G04 #@! TF.GenerationSoftware,KiCad,Pcbnew,(5.1.6-0-10_14)*
G04 #@! TF.CreationDate,2020-08-05T18:55:13-07:00*
G04 #@! TF.ProjectId,StringCar_M0_Express,53747269-6e67-4436-9172-5f4d305f4578,v06*
G04 #@! TF.SameCoordinates,Original*
G04 #@! TF.FileFunction,Soldermask,Bot*
G04 #@! TF.FilePolarity,Negative*
%FSLAX46Y46*%
G04 Gerber Fmt 4.6, Leading zero omitted, Abs format (unit mm)*
G04 Created by KiCad (PCBNEW (5.1.6-0-10_14)) date 2020-08-05 18:55:13*
%MOMM*%
%LPD*%
G01*
G04 APERTURE LIST*
%ADD10C,0.100000*%
%ADD11C,0.010000*%
%ADD12C,3.101600*%
%ADD13R,3.301600X1.701600*%
%ADD14C,1.551600*%
%ADD15O,2.001600X1.301600*%
%ADD16R,1.101600X3.601600*%
%ADD17R,1.601600X3.501600*%
%ADD18R,1.401600X3.501600*%
%ADD19R,0.841600X2.501600*%
%ADD20C,2.601600*%
%ADD21R,1.351600X2.601600*%
%ADD22C,1.001600*%
%ADD23R,0.701600X1.651600*%
%ADD24R,1.301600X1.901600*%
%ADD25R,1.001600X1.371600*%
%ADD26R,1.551600X0.901600*%
G04 APERTURE END LIST*
D10*
X120485714Y-115673809D02*
X120461904Y-115650000D01*
X120414285Y-115626190D01*
X120295238Y-115626190D01*
X120247619Y-115650000D01*
X120223809Y-115673809D01*
X120200000Y-115721428D01*
X120200000Y-115769047D01*
X120223809Y-115840476D01*
X120509523Y-116126190D01*
X120200000Y-116126190D01*
X119890476Y-115626190D02*
X119842857Y-115626190D01*
X119795238Y-115650000D01*
X119771428Y-115673809D01*
X119747619Y-115721428D01*
X119723809Y-115816666D01*
X119723809Y-115935714D01*
X119747619Y-116030952D01*
X119771428Y-116078571D01*
X119795238Y-116102380D01*
X119842857Y-116126190D01*
X119890476Y-116126190D01*
X119938095Y-116102380D01*
X119961904Y-116078571D01*
X119985714Y-116030952D01*
X120009523Y-115935714D01*
X120009523Y-115816666D01*
X119985714Y-115721428D01*
X119961904Y-115673809D01*
X119938095Y-115650000D01*
X119890476Y-115626190D01*
X119533333Y-115673809D02*
X119509523Y-115650000D01*
X119461904Y-115626190D01*
X119342857Y-115626190D01*
X119295238Y-115650000D01*
X119271428Y-115673809D01*
X119247619Y-115721428D01*
X119247619Y-115769047D01*
X119271428Y-115840476D01*
X119557142Y-116126190D01*
X119247619Y-116126190D01*
X118938095Y-115626190D02*
X118890476Y-115626190D01*
X118842857Y-115650000D01*
X118819047Y-115673809D01*
X118795238Y-115721428D01*
X118771428Y-115816666D01*
X118771428Y-115935714D01*
X118795238Y-116030952D01*
X118819047Y-116078571D01*
X118842857Y-116102380D01*
X118890476Y-116126190D01*
X118938095Y-116126190D01*
X118985714Y-116102380D01*
X119009523Y-116078571D01*
X119033333Y-116030952D01*
X119057142Y-115935714D01*
X119057142Y-115816666D01*
X119033333Y-115721428D01*
X119009523Y-115673809D01*
X118985714Y-115650000D01*
X118938095Y-115626190D01*
X118557142Y-115935714D02*
X118176190Y-115935714D01*
X117842857Y-115626190D02*
X117795238Y-115626190D01*
X117747619Y-115650000D01*
X117723809Y-115673809D01*
X117700000Y-115721428D01*
X117676190Y-115816666D01*
X117676190Y-115935714D01*
X117700000Y-116030952D01*
X117723809Y-116078571D01*
X117747619Y-116102380D01*
X117795238Y-116126190D01*
X117842857Y-116126190D01*
X117890476Y-116102380D01*
X117914285Y-116078571D01*
X117938095Y-116030952D01*
X117961904Y-115935714D01*
X117961904Y-115816666D01*
X117938095Y-115721428D01*
X117914285Y-115673809D01*
X117890476Y-115650000D01*
X117842857Y-115626190D01*
X117390476Y-115840476D02*
X117438095Y-115816666D01*
X117461904Y-115792857D01*
X117485714Y-115745238D01*
X117485714Y-115721428D01*
X117461904Y-115673809D01*
X117438095Y-115650000D01*
X117390476Y-115626190D01*
X117295238Y-115626190D01*
X117247619Y-115650000D01*
X117223809Y-115673809D01*
X117200000Y-115721428D01*
X117200000Y-115745238D01*
X117223809Y-115792857D01*
X117247619Y-115816666D01*
X117295238Y-115840476D01*
X117390476Y-115840476D01*
X117438095Y-115864285D01*
X117461904Y-115888095D01*
X117485714Y-115935714D01*
X117485714Y-116030952D01*
X117461904Y-116078571D01*
X117438095Y-116102380D01*
X117390476Y-116126190D01*
X117295238Y-116126190D01*
X117247619Y-116102380D01*
X117223809Y-116078571D01*
X117200000Y-116030952D01*
X117200000Y-115935714D01*
X117223809Y-115888095D01*
X117247619Y-115864285D01*
X117295238Y-115840476D01*
X116985714Y-115935714D02*
X116604761Y-115935714D01*
X116271428Y-115626190D02*
X116223809Y-115626190D01*
X116176190Y-115650000D01*
X116152380Y-115673809D01*
X116128571Y-115721428D01*
X116104761Y-115816666D01*
X116104761Y-115935714D01*
X116128571Y-116030952D01*
X116152380Y-116078571D01*
X116176190Y-116102380D01*
X116223809Y-116126190D01*
X116271428Y-116126190D01*
X116319047Y-116102380D01*
X116342857Y-116078571D01*
X116366666Y-116030952D01*
X116390476Y-115935714D01*
X116390476Y-115816666D01*
X116366666Y-115721428D01*
X116342857Y-115673809D01*
X116319047Y-115650000D01*
X116271428Y-115626190D01*
X115652380Y-115626190D02*
X115890476Y-115626190D01*
X115914285Y-115864285D01*
X115890476Y-115840476D01*
X115842857Y-115816666D01*
X115723809Y-115816666D01*
X115676190Y-115840476D01*
X115652380Y-115864285D01*
X115628571Y-115911904D01*
X115628571Y-116030952D01*
X115652380Y-116078571D01*
X115676190Y-116102380D01*
X115723809Y-116126190D01*
X115842857Y-116126190D01*
X115890476Y-116102380D01*
X115914285Y-116078571D01*
X115080952Y-115792857D02*
X114961904Y-116126190D01*
X114842857Y-115792857D01*
X114557142Y-115626190D02*
X114509523Y-115626190D01*
X114461904Y-115650000D01*
X114438095Y-115673809D01*
X114414285Y-115721428D01*
X114390476Y-115816666D01*
X114390476Y-115935714D01*
X114414285Y-116030952D01*
X114438095Y-116078571D01*
X114461904Y-116102380D01*
X114509523Y-116126190D01*
X114557142Y-116126190D01*
X114604761Y-116102380D01*
X114628571Y-116078571D01*
X114652380Y-116030952D01*
X114676190Y-115935714D01*
X114676190Y-115816666D01*
X114652380Y-115721428D01*
X114628571Y-115673809D01*
X114604761Y-115650000D01*
X114557142Y-115626190D01*
X113961904Y-115626190D02*
X114057142Y-115626190D01*
X114104761Y-115650000D01*
X114128571Y-115673809D01*
X114176190Y-115745238D01*
X114200000Y-115840476D01*
X114200000Y-116030952D01*
X114176190Y-116078571D01*
X114152380Y-116102380D01*
X114104761Y-116126190D01*
X114009523Y-116126190D01*
X113961904Y-116102380D01*
X113938095Y-116078571D01*
X113914285Y-116030952D01*
X113914285Y-115911904D01*
X113938095Y-115864285D01*
X113961904Y-115840476D01*
X114009523Y-115816666D01*
X114104761Y-115816666D01*
X114152380Y-115840476D01*
X114176190Y-115864285D01*
X114200000Y-115911904D01*
X100890000Y-98240000D02*
X100890000Y-97350000D01*
X99900000Y-98240000D02*
X99900000Y-97350000D01*
X100810000Y-98320000D02*
X99980000Y-98320000D01*
X100060000Y-98240000D02*
G75*
G03*
X100060000Y-98240000I-78102J0D01*
G01*
X100886204Y-98240000D02*
G75*
G03*
X100886204Y-98240000I-78102J0D01*
G01*
D11*
G36*
X105007768Y-98514357D02*
G01*
X104940882Y-98520936D01*
X104905758Y-98533640D01*
X104891861Y-98556853D01*
X104890711Y-98563083D01*
X104888221Y-98591952D01*
X104899034Y-98581625D01*
X104907439Y-98568375D01*
X104947496Y-98539414D01*
X105008186Y-98530290D01*
X105072997Y-98540531D01*
X105125417Y-98569669D01*
X105130370Y-98574719D01*
X105165965Y-98642661D01*
X105167494Y-98719861D01*
X105136186Y-98792208D01*
X105108836Y-98821948D01*
X105059516Y-98856252D01*
X105009429Y-98865874D01*
X104961728Y-98861238D01*
X104910529Y-98855825D01*
X104898000Y-98861309D01*
X104907167Y-98869375D01*
X104973238Y-98890899D01*
X105053406Y-98885868D01*
X105130717Y-98856500D01*
X105159543Y-98836368D01*
X105211871Y-98767868D01*
X105227865Y-98688286D01*
X105207029Y-98608970D01*
X105171611Y-98561020D01*
X105132563Y-98528967D01*
X105089227Y-98514740D01*
X105024573Y-98513488D01*
X105007768Y-98514357D01*
G37*
X105007768Y-98514357D02*
X104940882Y-98520936D01*
X104905758Y-98533640D01*
X104891861Y-98556853D01*
X104890711Y-98563083D01*
X104888221Y-98591952D01*
X104899034Y-98581625D01*
X104907439Y-98568375D01*
X104947496Y-98539414D01*
X105008186Y-98530290D01*
X105072997Y-98540531D01*
X105125417Y-98569669D01*
X105130370Y-98574719D01*
X105165965Y-98642661D01*
X105167494Y-98719861D01*
X105136186Y-98792208D01*
X105108836Y-98821948D01*
X105059516Y-98856252D01*
X105009429Y-98865874D01*
X104961728Y-98861238D01*
X104910529Y-98855825D01*
X104898000Y-98861309D01*
X104907167Y-98869375D01*
X104973238Y-98890899D01*
X105053406Y-98885868D01*
X105130717Y-98856500D01*
X105159543Y-98836368D01*
X105211871Y-98767868D01*
X105227865Y-98688286D01*
X105207029Y-98608970D01*
X105171611Y-98561020D01*
X105132563Y-98528967D01*
X105089227Y-98514740D01*
X105024573Y-98513488D01*
X105007768Y-98514357D01*
G36*
X104661624Y-98651996D02*
G01*
X104644127Y-98678643D01*
X104642584Y-98700667D01*
X104648431Y-98736270D01*
X104674006Y-98753335D01*
X104721959Y-98760153D01*
X104780184Y-98770303D01*
X104798737Y-98790327D01*
X104779858Y-98824152D01*
X104766541Y-98838269D01*
X104713654Y-98863295D01*
X104676583Y-98860304D01*
X104642262Y-98854639D01*
X104645220Y-98863316D01*
X104653167Y-98869033D01*
X104715306Y-98889577D01*
X104779517Y-98878764D01*
X104810405Y-98857905D01*
X104838036Y-98804150D01*
X104840367Y-98737497D01*
X104828076Y-98705958D01*
X104797304Y-98705958D01*
X104792951Y-98732368D01*
X104759731Y-98742338D01*
X104737834Y-98743000D01*
X104691358Y-98737750D01*
X104677195Y-98718207D01*
X104678363Y-98705958D01*
X104703551Y-98675397D01*
X104737834Y-98668917D01*
X104783645Y-98682578D01*
X104797304Y-98705958D01*
X104828076Y-98705958D01*
X104817527Y-98678892D01*
X104809262Y-98669285D01*
X104757810Y-98643944D01*
X104708721Y-98641315D01*
X104661624Y-98651996D01*
G37*
X104661624Y-98651996D02*
X104644127Y-98678643D01*
X104642584Y-98700667D01*
X104648431Y-98736270D01*
X104674006Y-98753335D01*
X104721959Y-98760153D01*
X104780184Y-98770303D01*
X104798737Y-98790327D01*
X104779858Y-98824152D01*
X104766541Y-98838269D01*
X104713654Y-98863295D01*
X104676583Y-98860304D01*
X104642262Y-98854639D01*
X104645220Y-98863316D01*
X104653167Y-98869033D01*
X104715306Y-98889577D01*
X104779517Y-98878764D01*
X104810405Y-98857905D01*
X104838036Y-98804150D01*
X104840367Y-98737497D01*
X104828076Y-98705958D01*
X104797304Y-98705958D01*
X104792951Y-98732368D01*
X104759731Y-98742338D01*
X104737834Y-98743000D01*
X104691358Y-98737750D01*
X104677195Y-98718207D01*
X104678363Y-98705958D01*
X104703551Y-98675397D01*
X104737834Y-98668917D01*
X104783645Y-98682578D01*
X104797304Y-98705958D01*
X104828076Y-98705958D01*
X104817527Y-98678892D01*
X104809262Y-98669285D01*
X104757810Y-98643944D01*
X104708721Y-98641315D01*
X104661624Y-98651996D01*
G36*
X104346423Y-98508677D02*
G01*
X104339076Y-98535185D01*
X104336179Y-98588448D01*
X104335667Y-98676127D01*
X104335667Y-98679718D01*
X104333136Y-98782962D01*
X104325265Y-98847287D01*
X104311633Y-98875819D01*
X104309209Y-98877148D01*
X104305567Y-98885721D01*
X104330375Y-98889495D01*
X104367489Y-98882578D01*
X104378000Y-98869255D01*
X104390958Y-98858155D01*
X104418942Y-98869255D01*
X104484076Y-98889891D01*
X104534330Y-98872383D01*
X104548270Y-98858289D01*
X104571771Y-98804273D01*
X104572963Y-98739676D01*
X104569102Y-98728860D01*
X104531938Y-98728860D01*
X104526915Y-98792870D01*
X104523570Y-98802629D01*
X104498568Y-98838917D01*
X104453402Y-98845618D01*
X104446949Y-98844963D01*
X104409263Y-98836138D01*
X104392596Y-98812684D01*
X104388607Y-98761543D01*
X104388584Y-98753583D01*
X104391165Y-98699258D01*
X104404728Y-98675106D01*
X104437999Y-98669030D01*
X104449659Y-98668917D01*
X104504845Y-98685116D01*
X104531938Y-98728860D01*
X104569102Y-98728860D01*
X104553060Y-98683930D01*
X104536233Y-98665920D01*
X104485171Y-98644000D01*
X104437455Y-98637167D01*
X104393846Y-98630393D01*
X104378827Y-98602867D01*
X104378000Y-98586014D01*
X104387452Y-98543433D01*
X104403913Y-98526223D01*
X104407379Y-98515600D01*
X104382746Y-98505275D01*
X104360291Y-98501260D01*
X104346423Y-98508677D01*
G37*
X104346423Y-98508677D02*
X104339076Y-98535185D01*
X104336179Y-98588448D01*
X104335667Y-98676127D01*
X104335667Y-98679718D01*
X104333136Y-98782962D01*
X104325265Y-98847287D01*
X104311633Y-98875819D01*
X104309209Y-98877148D01*
X104305567Y-98885721D01*
X104330375Y-98889495D01*
X104367489Y-98882578D01*
X104378000Y-98869255D01*
X104390958Y-98858155D01*
X104418942Y-98869255D01*
X104484076Y-98889891D01*
X104534330Y-98872383D01*
X104548270Y-98858289D01*
X104571771Y-98804273D01*
X104572963Y-98739676D01*
X104569102Y-98728860D01*
X104531938Y-98728860D01*
X104526915Y-98792870D01*
X104523570Y-98802629D01*
X104498568Y-98838917D01*
X104453402Y-98845618D01*
X104446949Y-98844963D01*
X104409263Y-98836138D01*
X104392596Y-98812684D01*
X104388607Y-98761543D01*
X104388584Y-98753583D01*
X104391165Y-98699258D01*
X104404728Y-98675106D01*
X104437999Y-98669030D01*
X104449659Y-98668917D01*
X104504845Y-98685116D01*
X104531938Y-98728860D01*
X104569102Y-98728860D01*
X104553060Y-98683930D01*
X104536233Y-98665920D01*
X104485171Y-98644000D01*
X104437455Y-98637167D01*
X104393846Y-98630393D01*
X104378827Y-98602867D01*
X104378000Y-98586014D01*
X104387452Y-98543433D01*
X104403913Y-98526223D01*
X104407379Y-98515600D01*
X104382746Y-98505275D01*
X104360291Y-98501260D01*
X104346423Y-98508677D01*
G36*
X104098728Y-98650212D02*
G01*
X104076616Y-98665275D01*
X104067470Y-98704451D01*
X104064337Y-98742585D01*
X104055460Y-98806531D01*
X104041195Y-98854303D01*
X104035287Y-98864293D01*
X104028827Y-98885764D01*
X104048084Y-98891766D01*
X104079030Y-98881407D01*
X104096211Y-98868156D01*
X104121761Y-98856592D01*
X104133444Y-98868156D01*
X104167105Y-98889166D01*
X104211054Y-98885755D01*
X104242788Y-98860279D01*
X104244450Y-98856539D01*
X104244097Y-98806376D01*
X104212938Y-98763692D01*
X104174648Y-98746390D01*
X104147119Y-98742885D01*
X104153409Y-98753018D01*
X104175065Y-98769787D01*
X104203318Y-98805825D01*
X104203678Y-98839122D01*
X104181012Y-98856801D01*
X104145188Y-98848844D01*
X104116061Y-98814147D01*
X104105221Y-98762057D01*
X104111937Y-98708736D01*
X104135481Y-98670351D01*
X104153635Y-98661751D01*
X104196338Y-98668712D01*
X104213034Y-98682709D01*
X104227441Y-98699258D01*
X104224390Y-98679500D01*
X104196724Y-98655080D01*
X104143403Y-98647750D01*
X104098728Y-98650212D01*
G37*
X104098728Y-98650212D02*
X104076616Y-98665275D01*
X104067470Y-98704451D01*
X104064337Y-98742585D01*
X104055460Y-98806531D01*
X104041195Y-98854303D01*
X104035287Y-98864293D01*
X104028827Y-98885764D01*
X104048084Y-98891766D01*
X104079030Y-98881407D01*
X104096211Y-98868156D01*
X104121761Y-98856592D01*
X104133444Y-98868156D01*
X104167105Y-98889166D01*
X104211054Y-98885755D01*
X104242788Y-98860279D01*
X104244450Y-98856539D01*
X104244097Y-98806376D01*
X104212938Y-98763692D01*
X104174648Y-98746390D01*
X104147119Y-98742885D01*
X104153409Y-98753018D01*
X104175065Y-98769787D01*
X104203318Y-98805825D01*
X104203678Y-98839122D01*
X104181012Y-98856801D01*
X104145188Y-98848844D01*
X104116061Y-98814147D01*
X104105221Y-98762057D01*
X104111937Y-98708736D01*
X104135481Y-98670351D01*
X104153635Y-98661751D01*
X104196338Y-98668712D01*
X104213034Y-98682709D01*
X104227441Y-98699258D01*
X104224390Y-98679500D01*
X104196724Y-98655080D01*
X104143403Y-98647750D01*
X104098728Y-98650212D01*
G36*
X103888816Y-98641021D02*
G01*
X103827793Y-98648858D01*
X103806520Y-98670025D01*
X103806500Y-98670888D01*
X103817569Y-98689140D01*
X103854125Y-98681507D01*
X103882775Y-98673290D01*
X103895497Y-98683670D01*
X103896813Y-98721704D01*
X103894022Y-98761406D01*
X103884589Y-98823172D01*
X103869673Y-98866054D01*
X103862272Y-98874967D01*
X103863453Y-98885435D01*
X103897834Y-98890708D01*
X103905204Y-98890842D01*
X103950284Y-98888559D01*
X103962152Y-98872714D01*
X103949350Y-98830749D01*
X103948188Y-98827667D01*
X103935036Y-98756740D01*
X103947675Y-98702026D01*
X103971131Y-98639885D01*
X103888816Y-98641021D01*
G37*
X103888816Y-98641021D02*
X103827793Y-98648858D01*
X103806520Y-98670025D01*
X103806500Y-98670888D01*
X103817569Y-98689140D01*
X103854125Y-98681507D01*
X103882775Y-98673290D01*
X103895497Y-98683670D01*
X103896813Y-98721704D01*
X103894022Y-98761406D01*
X103884589Y-98823172D01*
X103869673Y-98866054D01*
X103862272Y-98874967D01*
X103863453Y-98885435D01*
X103897834Y-98890708D01*
X103905204Y-98890842D01*
X103950284Y-98888559D01*
X103962152Y-98872714D01*
X103949350Y-98830749D01*
X103948188Y-98827667D01*
X103935036Y-98756740D01*
X103947675Y-98702026D01*
X103971131Y-98639885D01*
X103888816Y-98641021D01*
G36*
X103405733Y-98514524D02*
G01*
X103335924Y-98520841D01*
X103298177Y-98532891D01*
X103282261Y-98554520D01*
X103280548Y-98561586D01*
X103277341Y-98589315D01*
X103290101Y-98584443D01*
X103309403Y-98565788D01*
X103365528Y-98536570D01*
X103436673Y-98534104D01*
X103506919Y-98556252D01*
X103559251Y-98599377D01*
X103587842Y-98667756D01*
X103581988Y-98737770D01*
X103548181Y-98800284D01*
X103492916Y-98846160D01*
X103422687Y-98866263D01*
X103372995Y-98861411D01*
X103334125Y-98837396D01*
X103318682Y-98800618D01*
X103330743Y-98766917D01*
X103346125Y-98757018D01*
X103348497Y-98748862D01*
X103318041Y-98744671D01*
X103280144Y-98748593D01*
X103269442Y-98772217D01*
X103272538Y-98804586D01*
X103295764Y-98859738D01*
X103327080Y-98878380D01*
X103410834Y-98889730D01*
X103492661Y-98882887D01*
X103541917Y-98865601D01*
X103603291Y-98814685D01*
X103632172Y-98745800D01*
X103636494Y-98694364D01*
X103625945Y-98623173D01*
X103586538Y-98567217D01*
X103580152Y-98561138D01*
X103539548Y-98529850D01*
X103495527Y-98515420D01*
X103431392Y-98513385D01*
X103405733Y-98514524D01*
G37*
X103405733Y-98514524D02*
X103335924Y-98520841D01*
X103298177Y-98532891D01*
X103282261Y-98554520D01*
X103280548Y-98561586D01*
X103277341Y-98589315D01*
X103290101Y-98584443D01*
X103309403Y-98565788D01*
X103365528Y-98536570D01*
X103436673Y-98534104D01*
X103506919Y-98556252D01*
X103559251Y-98599377D01*
X103587842Y-98667756D01*
X103581988Y-98737770D01*
X103548181Y-98800284D01*
X103492916Y-98846160D01*
X103422687Y-98866263D01*
X103372995Y-98861411D01*
X103334125Y-98837396D01*
X103318682Y-98800618D01*
X103330743Y-98766917D01*
X103346125Y-98757018D01*
X103348497Y-98748862D01*
X103318041Y-98744671D01*
X103280144Y-98748593D01*
X103269442Y-98772217D01*
X103272538Y-98804586D01*
X103295764Y-98859738D01*
X103327080Y-98878380D01*
X103410834Y-98889730D01*
X103492661Y-98882887D01*
X103541917Y-98865601D01*
X103603291Y-98814685D01*
X103632172Y-98745800D01*
X103636494Y-98694364D01*
X103625945Y-98623173D01*
X103586538Y-98567217D01*
X103580152Y-98561138D01*
X103539548Y-98529850D01*
X103495527Y-98515420D01*
X103431392Y-98513385D01*
X103405733Y-98514524D01*
G36*
X103139119Y-98646288D02*
G01*
X103129167Y-98660925D01*
X103119415Y-98672520D01*
X103098129Y-98658924D01*
X103059097Y-98641839D01*
X103039921Y-98643226D01*
X103036215Y-98656481D01*
X103068237Y-98675351D01*
X103070959Y-98676453D01*
X103109695Y-98698505D01*
X103126168Y-98733283D01*
X103129167Y-98783045D01*
X103122968Y-98839902D01*
X103107320Y-98874089D01*
X103102709Y-98877148D01*
X103102971Y-98884430D01*
X103136903Y-98889038D01*
X103149275Y-98889495D01*
X103195498Y-98887566D01*
X103205406Y-98876887D01*
X103196900Y-98865767D01*
X103179790Y-98828650D01*
X103171617Y-98771578D01*
X103171500Y-98764167D01*
X103178169Y-98706167D01*
X103194469Y-98665347D01*
X103196900Y-98662567D01*
X103207822Y-98643198D01*
X103182023Y-98637232D01*
X103175734Y-98637167D01*
X103139119Y-98646288D01*
G37*
X103139119Y-98646288D02*
X103129167Y-98660925D01*
X103119415Y-98672520D01*
X103098129Y-98658924D01*
X103059097Y-98641839D01*
X103039921Y-98643226D01*
X103036215Y-98656481D01*
X103068237Y-98675351D01*
X103070959Y-98676453D01*
X103109695Y-98698505D01*
X103126168Y-98733283D01*
X103129167Y-98783045D01*
X103122968Y-98839902D01*
X103107320Y-98874089D01*
X103102709Y-98877148D01*
X103102971Y-98884430D01*
X103136903Y-98889038D01*
X103149275Y-98889495D01*
X103195498Y-98887566D01*
X103205406Y-98876887D01*
X103196900Y-98865767D01*
X103179790Y-98828650D01*
X103171617Y-98771578D01*
X103171500Y-98764167D01*
X103178169Y-98706167D01*
X103194469Y-98665347D01*
X103196900Y-98662567D01*
X103207822Y-98643198D01*
X103182023Y-98637232D01*
X103175734Y-98637167D01*
X103139119Y-98646288D01*
G36*
X102795115Y-98649765D02*
G01*
X102758523Y-98690265D01*
X102748167Y-98756616D01*
X102764525Y-98820930D01*
X102806019Y-98866564D01*
X102861278Y-98889016D01*
X102918931Y-98883785D01*
X102967606Y-98846370D01*
X102969217Y-98844123D01*
X102998499Y-98773575D01*
X102996531Y-98758156D01*
X102953208Y-98758156D01*
X102940673Y-98809941D01*
X102909929Y-98848950D01*
X102868811Y-98866194D01*
X102825156Y-98852682D01*
X102815900Y-98844600D01*
X102796342Y-98805020D01*
X102790500Y-98764167D01*
X102804365Y-98704701D01*
X102838603Y-98667903D01*
X102882182Y-98658327D01*
X102924071Y-98680526D01*
X102939695Y-98702587D01*
X102953208Y-98758156D01*
X102996531Y-98758156D01*
X102990333Y-98709618D01*
X102949463Y-98661396D01*
X102880633Y-98638055D01*
X102861859Y-98637167D01*
X102795115Y-98649765D01*
G37*
X102795115Y-98649765D02*
X102758523Y-98690265D01*
X102748167Y-98756616D01*
X102764525Y-98820930D01*
X102806019Y-98866564D01*
X102861278Y-98889016D01*
X102918931Y-98883785D01*
X102967606Y-98846370D01*
X102969217Y-98844123D01*
X102998499Y-98773575D01*
X102996531Y-98758156D01*
X102953208Y-98758156D01*
X102940673Y-98809941D01*
X102909929Y-98848950D01*
X102868811Y-98866194D01*
X102825156Y-98852682D01*
X102815900Y-98844600D01*
X102796342Y-98805020D01*
X102790500Y-98764167D01*
X102804365Y-98704701D01*
X102838603Y-98667903D01*
X102882182Y-98658327D01*
X102924071Y-98680526D01*
X102939695Y-98702587D01*
X102953208Y-98758156D01*
X102996531Y-98758156D01*
X102990333Y-98709618D01*
X102949463Y-98661396D01*
X102880633Y-98638055D01*
X102861859Y-98637167D01*
X102795115Y-98649765D01*
G36*
X102614660Y-98645927D02*
G01*
X102612445Y-98666133D01*
X102612059Y-98703664D01*
X102596605Y-98757953D01*
X102593054Y-98766675D01*
X102562548Y-98838250D01*
X102527684Y-98757943D01*
X102508614Y-98703121D01*
X102503418Y-98663938D01*
X102505326Y-98657401D01*
X102497710Y-98642171D01*
X102468958Y-98637491D01*
X102439615Y-98643003D01*
X102441473Y-98653366D01*
X102461498Y-98680028D01*
X102490796Y-98732567D01*
X102513883Y-98780042D01*
X102548615Y-98847071D01*
X102576835Y-98885336D01*
X102595028Y-98891170D01*
X102600000Y-98869896D01*
X102608621Y-98840230D01*
X102630800Y-98786533D01*
X102651006Y-98742896D01*
X102702012Y-98637167D01*
X102651670Y-98637167D01*
X102614660Y-98645927D01*
G37*
X102614660Y-98645927D02*
X102612445Y-98666133D01*
X102612059Y-98703664D01*
X102596605Y-98757953D01*
X102593054Y-98766675D01*
X102562548Y-98838250D01*
X102527684Y-98757943D01*
X102508614Y-98703121D01*
X102503418Y-98663938D01*
X102505326Y-98657401D01*
X102497710Y-98642171D01*
X102468958Y-98637491D01*
X102439615Y-98643003D01*
X102441473Y-98653366D01*
X102461498Y-98680028D01*
X102490796Y-98732567D01*
X102513883Y-98780042D01*
X102548615Y-98847071D01*
X102576835Y-98885336D01*
X102595028Y-98891170D01*
X102600000Y-98869896D01*
X102608621Y-98840230D01*
X102630800Y-98786533D01*
X102651006Y-98742896D01*
X102702012Y-98637167D01*
X102651670Y-98637167D01*
X102614660Y-98645927D01*
G36*
X102210744Y-98657159D02*
G01*
X102198058Y-98668647D01*
X102179283Y-98712501D01*
X102198058Y-98745964D01*
X102249831Y-98763098D01*
X102271253Y-98764167D01*
X102326883Y-98771223D01*
X102345943Y-98793364D01*
X102346000Y-98795172D01*
X102327593Y-98831249D01*
X102283144Y-98856203D01*
X102228811Y-98862258D01*
X102212909Y-98859203D01*
X102183253Y-98852979D01*
X102190513Y-98862996D01*
X102197834Y-98868289D01*
X102261774Y-98889564D01*
X102330989Y-98876938D01*
X102356066Y-98862413D01*
X102385731Y-98817918D01*
X102394891Y-98755173D01*
X102384848Y-98705958D01*
X102341971Y-98705958D01*
X102337618Y-98732368D01*
X102304398Y-98742338D01*
X102282500Y-98743000D01*
X102236025Y-98737750D01*
X102221862Y-98718207D01*
X102223030Y-98705958D01*
X102248217Y-98675397D01*
X102282500Y-98668917D01*
X102328311Y-98682578D01*
X102341971Y-98705958D01*
X102384848Y-98705958D01*
X102382329Y-98693615D01*
X102368103Y-98670044D01*
X102322797Y-98643605D01*
X102263229Y-98639251D01*
X102210744Y-98657159D01*
G37*
X102210744Y-98657159D02*
X102198058Y-98668647D01*
X102179283Y-98712501D01*
X102198058Y-98745964D01*
X102249831Y-98763098D01*
X102271253Y-98764167D01*
X102326883Y-98771223D01*
X102345943Y-98793364D01*
X102346000Y-98795172D01*
X102327593Y-98831249D01*
X102283144Y-98856203D01*
X102228811Y-98862258D01*
X102212909Y-98859203D01*
X102183253Y-98852979D01*
X102190513Y-98862996D01*
X102197834Y-98868289D01*
X102261774Y-98889564D01*
X102330989Y-98876938D01*
X102356066Y-98862413D01*
X102385731Y-98817918D01*
X102394891Y-98755173D01*
X102384848Y-98705958D01*
X102341971Y-98705958D01*
X102337618Y-98732368D01*
X102304398Y-98742338D01*
X102282500Y-98743000D01*
X102236025Y-98737750D01*
X102221862Y-98718207D01*
X102223030Y-98705958D01*
X102248217Y-98675397D01*
X102282500Y-98668917D01*
X102328311Y-98682578D01*
X102341971Y-98705958D01*
X102384848Y-98705958D01*
X102382329Y-98693615D01*
X102368103Y-98670044D01*
X102322797Y-98643605D01*
X102263229Y-98639251D01*
X102210744Y-98657159D01*
G36*
X101803323Y-98513540D02*
G01*
X101779479Y-98527974D01*
X101774500Y-98556545D01*
X101776886Y-98588577D01*
X101789897Y-98581285D01*
X101802003Y-98565313D01*
X101841814Y-98538364D01*
X101893136Y-98533891D01*
X101938933Y-98550024D01*
X101961830Y-98582851D01*
X101951697Y-98628694D01*
X101909449Y-98663369D01*
X101845159Y-98679219D01*
X101834700Y-98679500D01*
X101781050Y-98695155D01*
X101752134Y-98734266D01*
X101749226Y-98785050D01*
X101773601Y-98835725D01*
X101814248Y-98868616D01*
X101870637Y-98886948D01*
X101931196Y-98890014D01*
X101979935Y-98878549D01*
X101999411Y-98860115D01*
X102003816Y-98815634D01*
X102000418Y-98801906D01*
X101990933Y-98792692D01*
X101987838Y-98811388D01*
X101968166Y-98843118D01*
X101923877Y-98863012D01*
X101872141Y-98866014D01*
X101840016Y-98854935D01*
X101813032Y-98818354D01*
X101806250Y-98784816D01*
X101813575Y-98752294D01*
X101842472Y-98730831D01*
X101901500Y-98713039D01*
X101962052Y-98694539D01*
X101992074Y-98671486D01*
X102003144Y-98634942D01*
X102003191Y-98634536D01*
X101993188Y-98570854D01*
X101948611Y-98528490D01*
X101873112Y-98510560D01*
X101857655Y-98510167D01*
X101803323Y-98513540D01*
G37*
X101803323Y-98513540D02*
X101779479Y-98527974D01*
X101774500Y-98556545D01*
X101776886Y-98588577D01*
X101789897Y-98581285D01*
X101802003Y-98565313D01*
X101841814Y-98538364D01*
X101893136Y-98533891D01*
X101938933Y-98550024D01*
X101961830Y-98582851D01*
X101951697Y-98628694D01*
X101909449Y-98663369D01*
X101845159Y-98679219D01*
X101834700Y-98679500D01*
X101781050Y-98695155D01*
X101752134Y-98734266D01*
X101749226Y-98785050D01*
X101773601Y-98835725D01*
X101814248Y-98868616D01*
X101870637Y-98886948D01*
X101931196Y-98890014D01*
X101979935Y-98878549D01*
X101999411Y-98860115D01*
X102003816Y-98815634D01*
X102000418Y-98801906D01*
X101990933Y-98792692D01*
X101987838Y-98811388D01*
X101968166Y-98843118D01*
X101923877Y-98863012D01*
X101872141Y-98866014D01*
X101840016Y-98854935D01*
X101813032Y-98818354D01*
X101806250Y-98784816D01*
X101813575Y-98752294D01*
X101842472Y-98730831D01*
X101901500Y-98713039D01*
X101962052Y-98694539D01*
X101992074Y-98671486D01*
X102003144Y-98634942D01*
X102003191Y-98634536D01*
X101993188Y-98570854D01*
X101948611Y-98528490D01*
X101873112Y-98510560D01*
X101857655Y-98510167D01*
X101803323Y-98513540D01*
G36*
X101632018Y-98568020D02*
G01*
X101626334Y-98602101D01*
X101612509Y-98649285D01*
X101589292Y-98664909D01*
X101563205Y-98672954D01*
X101578236Y-98676270D01*
X101589292Y-98677044D01*
X101614000Y-98696138D01*
X101627161Y-98738782D01*
X101628401Y-98789058D01*
X101617344Y-98831047D01*
X101593617Y-98848831D01*
X101593335Y-98848833D01*
X101571426Y-98859095D01*
X101573417Y-98870000D01*
X101605188Y-98889106D01*
X101646899Y-98886481D01*
X101674681Y-98863687D01*
X101674806Y-98863367D01*
X101679090Y-98822664D01*
X101674580Y-98778578D01*
X101674419Y-98726092D01*
X101687159Y-98693306D01*
X101699785Y-98661776D01*
X101695212Y-98649600D01*
X101681178Y-98616644D01*
X101679520Y-98600453D01*
X101665053Y-98565797D01*
X101652792Y-98557850D01*
X101632018Y-98568020D01*
G37*
X101632018Y-98568020D02*
X101626334Y-98602101D01*
X101612509Y-98649285D01*
X101589292Y-98664909D01*
X101563205Y-98672954D01*
X101578236Y-98676270D01*
X101589292Y-98677044D01*
X101614000Y-98696138D01*
X101627161Y-98738782D01*
X101628401Y-98789058D01*
X101617344Y-98831047D01*
X101593617Y-98848831D01*
X101593335Y-98848833D01*
X101571426Y-98859095D01*
X101573417Y-98870000D01*
X101605188Y-98889106D01*
X101646899Y-98886481D01*
X101674681Y-98863687D01*
X101674806Y-98863367D01*
X101679090Y-98822664D01*
X101674580Y-98778578D01*
X101674419Y-98726092D01*
X101687159Y-98693306D01*
X101699785Y-98661776D01*
X101695212Y-98649600D01*
X101681178Y-98616644D01*
X101679520Y-98600453D01*
X101665053Y-98565797D01*
X101652792Y-98557850D01*
X101632018Y-98568020D01*
G36*
X101297119Y-98654881D02*
G01*
X101288676Y-98709910D01*
X101287667Y-98751819D01*
X101282750Y-98827562D01*
X101268905Y-98870569D01*
X101261209Y-98877148D01*
X101257567Y-98885721D01*
X101282375Y-98889495D01*
X101319458Y-98881289D01*
X101330000Y-98865767D01*
X101336248Y-98851040D01*
X101355400Y-98865767D01*
X101394868Y-98886164D01*
X101442686Y-98889683D01*
X101479644Y-98876476D01*
X101487746Y-98864708D01*
X101494598Y-98828857D01*
X101502415Y-98768703D01*
X101505648Y-98737708D01*
X101508554Y-98673678D01*
X101500258Y-98643006D01*
X101486150Y-98637167D01*
X101467036Y-98652074D01*
X101458114Y-98700382D01*
X101457000Y-98740735D01*
X101449072Y-98818025D01*
X101425390Y-98856267D01*
X101386106Y-98855302D01*
X101361232Y-98840488D01*
X101336993Y-98808126D01*
X101331357Y-98753153D01*
X101333276Y-98725526D01*
X101334325Y-98664140D01*
X101321432Y-98638541D01*
X101314685Y-98637167D01*
X101297119Y-98654881D01*
G37*
X101297119Y-98654881D02*
X101288676Y-98709910D01*
X101287667Y-98751819D01*
X101282750Y-98827562D01*
X101268905Y-98870569D01*
X101261209Y-98877148D01*
X101257567Y-98885721D01*
X101282375Y-98889495D01*
X101319458Y-98881289D01*
X101330000Y-98865767D01*
X101336248Y-98851040D01*
X101355400Y-98865767D01*
X101394868Y-98886164D01*
X101442686Y-98889683D01*
X101479644Y-98876476D01*
X101487746Y-98864708D01*
X101494598Y-98828857D01*
X101502415Y-98768703D01*
X101505648Y-98737708D01*
X101508554Y-98673678D01*
X101500258Y-98643006D01*
X101486150Y-98637167D01*
X101467036Y-98652074D01*
X101458114Y-98700382D01*
X101457000Y-98740735D01*
X101449072Y-98818025D01*
X101425390Y-98856267D01*
X101386106Y-98855302D01*
X101361232Y-98840488D01*
X101336993Y-98808126D01*
X101331357Y-98753153D01*
X101333276Y-98725526D01*
X101334325Y-98664140D01*
X101321432Y-98638541D01*
X101314685Y-98637167D01*
X101297119Y-98654881D01*
G36*
X100959474Y-98508810D02*
G01*
X100952843Y-98561451D01*
X100947400Y-98638076D01*
X100945161Y-98690131D01*
X100943557Y-98793000D01*
X100947236Y-98857632D01*
X100956539Y-98887831D01*
X100963112Y-98891214D01*
X100992226Y-98874407D01*
X100997507Y-98864708D01*
X101011641Y-98848864D01*
X101035255Y-98864708D01*
X101088390Y-98889516D01*
X101145591Y-98876577D01*
X101169739Y-98857905D01*
X101202428Y-98800989D01*
X101200712Y-98751942D01*
X101160667Y-98751942D01*
X101145864Y-98809066D01*
X101109685Y-98841443D01*
X101064478Y-98845652D01*
X101022589Y-98818271D01*
X101007900Y-98794273D01*
X100994163Y-98737570D01*
X101005331Y-98704314D01*
X101047494Y-98667743D01*
X101096352Y-98664201D01*
X101138363Y-98689535D01*
X101159982Y-98739593D01*
X101160667Y-98751942D01*
X101200712Y-98751942D01*
X101200315Y-98740595D01*
X101168763Y-98686619D01*
X101113135Y-98648959D01*
X101050124Y-98637167D01*
X101006952Y-98630331D01*
X100992169Y-98602152D01*
X100991334Y-98584250D01*
X101000384Y-98544373D01*
X101017792Y-98531009D01*
X101024627Y-98522801D01*
X101007536Y-98506113D01*
X100980157Y-98491989D01*
X100966328Y-98489324D01*
X100959474Y-98508810D01*
G37*
X100959474Y-98508810D02*
X100952843Y-98561451D01*
X100947400Y-98638076D01*
X100945161Y-98690131D01*
X100943557Y-98793000D01*
X100947236Y-98857632D01*
X100956539Y-98887831D01*
X100963112Y-98891214D01*
X100992226Y-98874407D01*
X100997507Y-98864708D01*
X101011641Y-98848864D01*
X101035255Y-98864708D01*
X101088390Y-98889516D01*
X101145591Y-98876577D01*
X101169739Y-98857905D01*
X101202428Y-98800989D01*
X101200712Y-98751942D01*
X101160667Y-98751942D01*
X101145864Y-98809066D01*
X101109685Y-98841443D01*
X101064478Y-98845652D01*
X101022589Y-98818271D01*
X101007900Y-98794273D01*
X100994163Y-98737570D01*
X101005331Y-98704314D01*
X101047494Y-98667743D01*
X101096352Y-98664201D01*
X101138363Y-98689535D01*
X101159982Y-98739593D01*
X101160667Y-98751942D01*
X101200712Y-98751942D01*
X101200315Y-98740595D01*
X101168763Y-98686619D01*
X101113135Y-98648959D01*
X101050124Y-98637167D01*
X101006952Y-98630331D01*
X100992169Y-98602152D01*
X100991334Y-98584250D01*
X101000384Y-98544373D01*
X101017792Y-98531009D01*
X101024627Y-98522801D01*
X101007536Y-98506113D01*
X100980157Y-98491989D01*
X100966328Y-98489324D01*
X100959474Y-98508810D01*
G36*
X100802220Y-98646875D02*
G01*
X100795420Y-98682009D01*
X100797561Y-98732923D01*
X100796720Y-98802501D01*
X100784128Y-98852338D01*
X100779247Y-98859923D01*
X100767891Y-98880924D01*
X100786273Y-98889578D01*
X100824700Y-98890842D01*
X100869019Y-98886934D01*
X100872021Y-98875681D01*
X100867403Y-98872344D01*
X100849015Y-98840399D01*
X100844776Y-98774142D01*
X100846236Y-98745655D01*
X100848183Y-98679626D01*
X100840867Y-98646420D01*
X100822291Y-98637156D01*
X100821848Y-98637153D01*
X100802220Y-98646875D01*
G37*
X100802220Y-98646875D02*
X100795420Y-98682009D01*
X100797561Y-98732923D01*
X100796720Y-98802501D01*
X100784128Y-98852338D01*
X100779247Y-98859923D01*
X100767891Y-98880924D01*
X100786273Y-98889578D01*
X100824700Y-98890842D01*
X100869019Y-98886934D01*
X100872021Y-98875681D01*
X100867403Y-98872344D01*
X100849015Y-98840399D01*
X100844776Y-98774142D01*
X100846236Y-98745655D01*
X100848183Y-98679626D01*
X100840867Y-98646420D01*
X100822291Y-98637156D01*
X100821848Y-98637153D01*
X100802220Y-98646875D01*
G36*
X100518776Y-98654171D02*
G01*
X100477154Y-98697612D01*
X100463104Y-98756131D01*
X100480877Y-98818373D01*
X100504500Y-98848833D01*
X100564670Y-98884862D01*
X100628785Y-98885252D01*
X100681137Y-98852458D01*
X100712931Y-98791268D01*
X100711860Y-98769036D01*
X100666994Y-98769036D01*
X100649185Y-98824845D01*
X100616318Y-98860340D01*
X100586003Y-98866176D01*
X100538572Y-98844822D01*
X100518058Y-98823492D01*
X100504983Y-98768298D01*
X100522700Y-98712454D01*
X100563586Y-98672120D01*
X100594110Y-98662290D01*
X100639360Y-98665648D01*
X100661096Y-98696214D01*
X100663686Y-98705450D01*
X100666994Y-98769036D01*
X100711860Y-98769036D01*
X100709885Y-98728050D01*
X100677240Y-98674389D01*
X100620241Y-98641874D01*
X100583721Y-98637167D01*
X100518776Y-98654171D01*
G37*
X100518776Y-98654171D02*
X100477154Y-98697612D01*
X100463104Y-98756131D01*
X100480877Y-98818373D01*
X100504500Y-98848833D01*
X100564670Y-98884862D01*
X100628785Y-98885252D01*
X100681137Y-98852458D01*
X100712931Y-98791268D01*
X100711860Y-98769036D01*
X100666994Y-98769036D01*
X100649185Y-98824845D01*
X100616318Y-98860340D01*
X100586003Y-98866176D01*
X100538572Y-98844822D01*
X100518058Y-98823492D01*
X100504983Y-98768298D01*
X100522700Y-98712454D01*
X100563586Y-98672120D01*
X100594110Y-98662290D01*
X100639360Y-98665648D01*
X100661096Y-98696214D01*
X100663686Y-98705450D01*
X100666994Y-98769036D01*
X100711860Y-98769036D01*
X100709885Y-98728050D01*
X100677240Y-98674389D01*
X100620241Y-98641874D01*
X100583721Y-98637167D01*
X100518776Y-98654171D01*
G36*
X100271922Y-98645221D02*
G01*
X100252303Y-98669837D01*
X100252172Y-98674208D01*
X100257592Y-98694266D01*
X100264519Y-98684792D01*
X100291583Y-98664332D01*
X100326348Y-98658333D01*
X100367844Y-98668369D01*
X100376203Y-98691904D01*
X100353591Y-98719075D01*
X100308741Y-98738440D01*
X100253533Y-98765764D01*
X100232821Y-98803659D01*
X100243562Y-98843128D01*
X100282714Y-98875171D01*
X100347234Y-98890792D01*
X100360379Y-98891167D01*
X100404432Y-98883979D01*
X100419311Y-98856381D01*
X100419834Y-98844788D01*
X100417533Y-98812717D01*
X100404741Y-98819667D01*
X100391976Y-98836506D01*
X100353613Y-98863261D01*
X100310405Y-98862522D01*
X100279948Y-98836175D01*
X100276024Y-98824072D01*
X100286778Y-98794074D01*
X100335419Y-98774695D01*
X100393581Y-98750214D01*
X100415816Y-98713299D01*
X100398960Y-98669274D01*
X100398443Y-98668647D01*
X100360710Y-98644029D01*
X100313297Y-98636419D01*
X100271922Y-98645221D01*
G37*
X100271922Y-98645221D02*
X100252303Y-98669837D01*
X100252172Y-98674208D01*
X100257592Y-98694266D01*
X100264519Y-98684792D01*
X100291583Y-98664332D01*
X100326348Y-98658333D01*
X100367844Y-98668369D01*
X100376203Y-98691904D01*
X100353591Y-98719075D01*
X100308741Y-98738440D01*
X100253533Y-98765764D01*
X100232821Y-98803659D01*
X100243562Y-98843128D01*
X100282714Y-98875171D01*
X100347234Y-98890792D01*
X100360379Y-98891167D01*
X100404432Y-98883979D01*
X100419311Y-98856381D01*
X100419834Y-98844788D01*
X100417533Y-98812717D01*
X100404741Y-98819667D01*
X100391976Y-98836506D01*
X100353613Y-98863261D01*
X100310405Y-98862522D01*
X100279948Y-98836175D01*
X100276024Y-98824072D01*
X100286778Y-98794074D01*
X100335419Y-98774695D01*
X100393581Y-98750214D01*
X100415816Y-98713299D01*
X100398960Y-98669274D01*
X100398443Y-98668647D01*
X100360710Y-98644029D01*
X100313297Y-98636419D01*
X100271922Y-98645221D01*
G36*
X100798544Y-98536076D02*
G01*
X100797659Y-98541917D01*
X100814138Y-98566735D01*
X100820413Y-98569610D01*
X100839714Y-98559392D01*
X100843167Y-98541917D01*
X100832427Y-98515573D01*
X100820413Y-98514223D01*
X100798544Y-98536076D01*
G37*
X100798544Y-98536076D02*
X100797659Y-98541917D01*
X100814138Y-98566735D01*
X100820413Y-98569610D01*
X100839714Y-98559392D01*
X100843167Y-98541917D01*
X100832427Y-98515573D01*
X100820413Y-98514223D01*
X100798544Y-98536076D01*
G36*
X100734799Y-97313613D02*
G01*
X100645236Y-97338573D01*
X100628520Y-97345535D01*
X100516245Y-97378257D01*
X100387074Y-97387802D01*
X100259537Y-97374170D01*
X100168814Y-97345535D01*
X100083975Y-97318198D01*
X99991460Y-97304222D01*
X99973022Y-97303667D01*
X99869500Y-97303667D01*
X99869500Y-97777572D01*
X99869754Y-97932444D01*
X99870808Y-98050705D01*
X99873105Y-98138075D01*
X99877086Y-98200274D01*
X99883192Y-98243023D01*
X99891864Y-98272042D01*
X99903545Y-98293052D01*
X99909924Y-98301447D01*
X99924925Y-98318404D01*
X99942659Y-98331121D01*
X99969104Y-98340321D01*
X100010240Y-98346729D01*
X100072049Y-98351071D01*
X100160508Y-98354071D01*
X100281599Y-98356455D01*
X100375981Y-98357945D01*
X100801616Y-98364474D01*
X100927834Y-98238256D01*
X100927834Y-97303667D01*
X100824312Y-97303667D01*
X100734799Y-97313613D01*
G37*
X100734799Y-97313613D02*
X100645236Y-97338573D01*
X100628520Y-97345535D01*
X100516245Y-97378257D01*
X100387074Y-97387802D01*
X100259537Y-97374170D01*
X100168814Y-97345535D01*
X100083975Y-97318198D01*
X99991460Y-97304222D01*
X99973022Y-97303667D01*
X99869500Y-97303667D01*
X99869500Y-97777572D01*
X99869754Y-97932444D01*
X99870808Y-98050705D01*
X99873105Y-98138075D01*
X99877086Y-98200274D01*
X99883192Y-98243023D01*
X99891864Y-98272042D01*
X99903545Y-98293052D01*
X99909924Y-98301447D01*
X99924925Y-98318404D01*
X99942659Y-98331121D01*
X99969104Y-98340321D01*
X100010240Y-98346729D01*
X100072049Y-98351071D01*
X100160508Y-98354071D01*
X100281599Y-98356455D01*
X100375981Y-98357945D01*
X100801616Y-98364474D01*
X100927834Y-98238256D01*
X100927834Y-97303667D01*
X100824312Y-97303667D01*
X100734799Y-97313613D01*
G36*
X104682265Y-97488669D02*
G01*
X104611494Y-97536025D01*
X104567491Y-97615586D01*
X104549893Y-97727876D01*
X104551185Y-97801427D01*
X104559576Y-97884553D01*
X104574858Y-97939578D01*
X104601654Y-97980677D01*
X104613935Y-97993722D01*
X104680730Y-98036213D01*
X104765120Y-98058166D01*
X104847400Y-98055585D01*
X104875417Y-98046740D01*
X104941296Y-98003551D01*
X104983302Y-97937917D01*
X105005418Y-97842488D01*
X105009261Y-97799671D01*
X105008245Y-97765433D01*
X104885688Y-97765433D01*
X104877761Y-97872367D01*
X104855048Y-97954788D01*
X104819974Y-98006785D01*
X104780167Y-98022685D01*
X104755161Y-98012601D01*
X104746294Y-98007134D01*
X104703865Y-97954004D01*
X104680183Y-97863568D01*
X104674646Y-97765433D01*
X104682687Y-97650009D01*
X104706539Y-97572846D01*
X104746740Y-97532725D01*
X104780167Y-97525917D01*
X104830790Y-97543651D01*
X104864731Y-97597669D01*
X104882527Y-97689191D01*
X104885688Y-97765433D01*
X105008245Y-97765433D01*
X105005416Y-97670146D01*
X104975095Y-97573479D01*
X104918023Y-97509280D01*
X104833925Y-97477157D01*
X104780167Y-97473000D01*
X104682265Y-97488669D01*
G37*
X104682265Y-97488669D02*
X104611494Y-97536025D01*
X104567491Y-97615586D01*
X104549893Y-97727876D01*
X104551185Y-97801427D01*
X104559576Y-97884553D01*
X104574858Y-97939578D01*
X104601654Y-97980677D01*
X104613935Y-97993722D01*
X104680730Y-98036213D01*
X104765120Y-98058166D01*
X104847400Y-98055585D01*
X104875417Y-98046740D01*
X104941296Y-98003551D01*
X104983302Y-97937917D01*
X105005418Y-97842488D01*
X105009261Y-97799671D01*
X105008245Y-97765433D01*
X104885688Y-97765433D01*
X104877761Y-97872367D01*
X104855048Y-97954788D01*
X104819974Y-98006785D01*
X104780167Y-98022685D01*
X104755161Y-98012601D01*
X104746294Y-98007134D01*
X104703865Y-97954004D01*
X104680183Y-97863568D01*
X104674646Y-97765433D01*
X104682687Y-97650009D01*
X104706539Y-97572846D01*
X104746740Y-97532725D01*
X104780167Y-97525917D01*
X104830790Y-97543651D01*
X104864731Y-97597669D01*
X104882527Y-97689191D01*
X104885688Y-97765433D01*
X105008245Y-97765433D01*
X105005416Y-97670146D01*
X104975095Y-97573479D01*
X104918023Y-97509280D01*
X104833925Y-97477157D01*
X104780167Y-97473000D01*
X104682265Y-97488669D01*
G36*
X101557066Y-97562409D02*
G01*
X101486136Y-97572978D01*
X101448624Y-97596993D01*
X101436327Y-97640168D01*
X101436158Y-97646640D01*
X101439247Y-97669349D01*
X101456594Y-97669103D01*
X101495769Y-97648299D01*
X101549710Y-97628744D01*
X101597059Y-97629676D01*
X101624159Y-97649782D01*
X101626334Y-97660850D01*
X101610398Y-97682761D01*
X101568976Y-97719711D01*
X101521003Y-97756368D01*
X101441200Y-97826328D01*
X101401345Y-97894403D01*
X101399433Y-97964373D01*
X101403255Y-97978389D01*
X101432719Y-98019094D01*
X101492817Y-98043541D01*
X101588159Y-98053474D01*
X101602741Y-98053781D01*
X101664892Y-98050526D01*
X101699367Y-98034690D01*
X101717304Y-98007369D01*
X101730823Y-97962451D01*
X101715863Y-97948048D01*
X101671603Y-97963720D01*
X101653932Y-97973388D01*
X101588617Y-97998341D01*
X101544196Y-97992565D01*
X101523798Y-97963756D01*
X101530550Y-97919611D01*
X101567583Y-97867825D01*
X101599875Y-97840410D01*
X101680805Y-97773780D01*
X101724065Y-97717501D01*
X101731477Y-97666674D01*
X101704861Y-97616395D01*
X101689358Y-97599524D01*
X101643227Y-97569560D01*
X101578733Y-97561499D01*
X101557066Y-97562409D01*
G37*
X101557066Y-97562409D02*
X101486136Y-97572978D01*
X101448624Y-97596993D01*
X101436327Y-97640168D01*
X101436158Y-97646640D01*
X101439247Y-97669349D01*
X101456594Y-97669103D01*
X101495769Y-97648299D01*
X101549710Y-97628744D01*
X101597059Y-97629676D01*
X101624159Y-97649782D01*
X101626334Y-97660850D01*
X101610398Y-97682761D01*
X101568976Y-97719711D01*
X101521003Y-97756368D01*
X101441200Y-97826328D01*
X101401345Y-97894403D01*
X101399433Y-97964373D01*
X101403255Y-97978389D01*
X101432719Y-98019094D01*
X101492817Y-98043541D01*
X101588159Y-98053474D01*
X101602741Y-98053781D01*
X101664892Y-98050526D01*
X101699367Y-98034690D01*
X101717304Y-98007369D01*
X101730823Y-97962451D01*
X101715863Y-97948048D01*
X101671603Y-97963720D01*
X101653932Y-97973388D01*
X101588617Y-97998341D01*
X101544196Y-97992565D01*
X101523798Y-97963756D01*
X101530550Y-97919611D01*
X101567583Y-97867825D01*
X101599875Y-97840410D01*
X101680805Y-97773780D01*
X101724065Y-97717501D01*
X101731477Y-97666674D01*
X101704861Y-97616395D01*
X101689358Y-97599524D01*
X101643227Y-97569560D01*
X101578733Y-97561499D01*
X101557066Y-97562409D01*
G36*
X101171494Y-97566316D02*
G01*
X101106392Y-97580679D01*
X101071562Y-97612257D01*
X101068293Y-97618839D01*
X101057502Y-97664056D01*
X101073381Y-97679491D01*
X101109988Y-97660334D01*
X101114579Y-97656315D01*
X101163748Y-97626835D01*
X101209732Y-97622228D01*
X101239966Y-97641803D01*
X101245334Y-97663500D01*
X101238052Y-97697918D01*
X101227977Y-97705833D01*
X101203464Y-97718589D01*
X101158808Y-97751418D01*
X101122144Y-97781566D01*
X101067133Y-97834574D01*
X101040378Y-97879551D01*
X101033667Y-97927141D01*
X101043158Y-97983908D01*
X101066052Y-98023847D01*
X101066673Y-98024376D01*
X101100650Y-98037245D01*
X101159354Y-98047478D01*
X101227795Y-98053887D01*
X101290981Y-98055279D01*
X101333921Y-98050466D01*
X101342357Y-98046264D01*
X101349132Y-98020695D01*
X101351167Y-97985621D01*
X101348863Y-97950990D01*
X101334278Y-97946943D01*
X101296999Y-97969290D01*
X101235211Y-97995651D01*
X101182328Y-97993647D01*
X101149041Y-97964851D01*
X101143684Y-97946740D01*
X101150796Y-97911688D01*
X101185675Y-97871078D01*
X101244226Y-97825066D01*
X101306182Y-97776607D01*
X101338987Y-97738058D01*
X101350615Y-97698990D01*
X101351167Y-97685190D01*
X101333269Y-97621120D01*
X101282598Y-97580057D01*
X101203692Y-97565001D01*
X101171494Y-97566316D01*
G37*
X101171494Y-97566316D02*
X101106392Y-97580679D01*
X101071562Y-97612257D01*
X101068293Y-97618839D01*
X101057502Y-97664056D01*
X101073381Y-97679491D01*
X101109988Y-97660334D01*
X101114579Y-97656315D01*
X101163748Y-97626835D01*
X101209732Y-97622228D01*
X101239966Y-97641803D01*
X101245334Y-97663500D01*
X101238052Y-97697918D01*
X101227977Y-97705833D01*
X101203464Y-97718589D01*
X101158808Y-97751418D01*
X101122144Y-97781566D01*
X101067133Y-97834574D01*
X101040378Y-97879551D01*
X101033667Y-97927141D01*
X101043158Y-97983908D01*
X101066052Y-98023847D01*
X101066673Y-98024376D01*
X101100650Y-98037245D01*
X101159354Y-98047478D01*
X101227795Y-98053887D01*
X101290981Y-98055279D01*
X101333921Y-98050466D01*
X101342357Y-98046264D01*
X101349132Y-98020695D01*
X101351167Y-97985621D01*
X101348863Y-97950990D01*
X101334278Y-97946943D01*
X101296999Y-97969290D01*
X101235211Y-97995651D01*
X101182328Y-97993647D01*
X101149041Y-97964851D01*
X101143684Y-97946740D01*
X101150796Y-97911688D01*
X101185675Y-97871078D01*
X101244226Y-97825066D01*
X101306182Y-97776607D01*
X101338987Y-97738058D01*
X101350615Y-97698990D01*
X101351167Y-97685190D01*
X101333269Y-97621120D01*
X101282598Y-97580057D01*
X101203692Y-97565001D01*
X101171494Y-97566316D01*
G36*
X105080219Y-97440052D02*
G01*
X105066059Y-97464148D01*
X105087317Y-97494360D01*
X105104069Y-97529703D01*
X105115260Y-97595801D01*
X105120967Y-97681453D01*
X105121268Y-97775460D01*
X105116239Y-97866618D01*
X105105958Y-97943729D01*
X105090500Y-97995591D01*
X105083803Y-98005791D01*
X105067368Y-98026747D01*
X105070818Y-98038340D01*
X105101184Y-98043332D01*
X105165497Y-98044486D01*
X105182334Y-98044500D01*
X105254058Y-98043813D01*
X105290451Y-98039852D01*
X105298515Y-98029765D01*
X105285251Y-98010702D01*
X105279927Y-98004756D01*
X105261051Y-97974458D01*
X105251128Y-97929342D01*
X105248656Y-97859001D01*
X105250189Y-97798666D01*
X105256417Y-97632319D01*
X105327959Y-97744006D01*
X105368632Y-97800963D01*
X105403569Y-97838463D01*
X105423209Y-97848146D01*
X105447945Y-97828109D01*
X105487301Y-97784139D01*
X105521000Y-97741256D01*
X105595084Y-97641916D01*
X105601269Y-97813763D01*
X105603014Y-97902487D01*
X105599425Y-97958880D01*
X105588947Y-97992772D01*
X105570023Y-98013997D01*
X105569519Y-98014382D01*
X105551783Y-98031348D01*
X105560784Y-98040089D01*
X105602808Y-98043375D01*
X105636359Y-98043827D01*
X105697338Y-98042061D01*
X105721962Y-98034518D01*
X105716026Y-98019393D01*
X105715734Y-98019100D01*
X105705220Y-97988446D01*
X105697370Y-97926963D01*
X105692260Y-97844898D01*
X105689963Y-97752503D01*
X105690553Y-97660027D01*
X105694106Y-97577721D01*
X105700696Y-97515833D01*
X105710396Y-97484614D01*
X105711846Y-97483370D01*
X105725660Y-97461004D01*
X105706332Y-97440663D01*
X105662568Y-97430759D01*
X105657313Y-97430667D01*
X105619230Y-97441817D01*
X105574021Y-97478798D01*
X105515417Y-97546908D01*
X105506999Y-97557667D01*
X105457845Y-97618403D01*
X105417708Y-97663317D01*
X105394083Y-97684122D01*
X105392157Y-97684667D01*
X105373993Y-97667724D01*
X105342882Y-97623603D01*
X105310557Y-97570388D01*
X105264000Y-97496398D01*
X105223086Y-97453736D01*
X105177543Y-97434501D01*
X105128935Y-97430667D01*
X105080219Y-97440052D01*
G37*
X105080219Y-97440052D02*
X105066059Y-97464148D01*
X105087317Y-97494360D01*
X105104069Y-97529703D01*
X105115260Y-97595801D01*
X105120967Y-97681453D01*
X105121268Y-97775460D01*
X105116239Y-97866618D01*
X105105958Y-97943729D01*
X105090500Y-97995591D01*
X105083803Y-98005791D01*
X105067368Y-98026747D01*
X105070818Y-98038340D01*
X105101184Y-98043332D01*
X105165497Y-98044486D01*
X105182334Y-98044500D01*
X105254058Y-98043813D01*
X105290451Y-98039852D01*
X105298515Y-98029765D01*
X105285251Y-98010702D01*
X105279927Y-98004756D01*
X105261051Y-97974458D01*
X105251128Y-97929342D01*
X105248656Y-97859001D01*
X105250189Y-97798666D01*
X105256417Y-97632319D01*
X105327959Y-97744006D01*
X105368632Y-97800963D01*
X105403569Y-97838463D01*
X105423209Y-97848146D01*
X105447945Y-97828109D01*
X105487301Y-97784139D01*
X105521000Y-97741256D01*
X105595084Y-97641916D01*
X105601269Y-97813763D01*
X105603014Y-97902487D01*
X105599425Y-97958880D01*
X105588947Y-97992772D01*
X105570023Y-98013997D01*
X105569519Y-98014382D01*
X105551783Y-98031348D01*
X105560784Y-98040089D01*
X105602808Y-98043375D01*
X105636359Y-98043827D01*
X105697338Y-98042061D01*
X105721962Y-98034518D01*
X105716026Y-98019393D01*
X105715734Y-98019100D01*
X105705220Y-97988446D01*
X105697370Y-97926963D01*
X105692260Y-97844898D01*
X105689963Y-97752503D01*
X105690553Y-97660027D01*
X105694106Y-97577721D01*
X105700696Y-97515833D01*
X105710396Y-97484614D01*
X105711846Y-97483370D01*
X105725660Y-97461004D01*
X105706332Y-97440663D01*
X105662568Y-97430759D01*
X105657313Y-97430667D01*
X105619230Y-97441817D01*
X105574021Y-97478798D01*
X105515417Y-97546908D01*
X105506999Y-97557667D01*
X105457845Y-97618403D01*
X105417708Y-97663317D01*
X105394083Y-97684122D01*
X105392157Y-97684667D01*
X105373993Y-97667724D01*
X105342882Y-97623603D01*
X105310557Y-97570388D01*
X105264000Y-97496398D01*
X105223086Y-97453736D01*
X105177543Y-97434501D01*
X105128935Y-97430667D01*
X105080219Y-97440052D01*
G36*
X103775429Y-97434644D02*
G01*
X103699169Y-97447705D01*
X103654900Y-97471544D01*
X103637776Y-97507854D01*
X103637167Y-97518512D01*
X103639786Y-97547477D01*
X103655240Y-97548931D01*
X103691253Y-97527097D01*
X103754480Y-97502644D01*
X103812961Y-97498204D01*
X103858542Y-97506932D01*
X103877137Y-97530323D01*
X103880584Y-97578833D01*
X103876469Y-97629418D01*
X103855602Y-97652802D01*
X103808183Y-97663500D01*
X103760457Y-97677575D01*
X103729551Y-97698754D01*
X103722900Y-97719001D01*
X103746528Y-97730134D01*
X103793850Y-97735907D01*
X103806500Y-97737583D01*
X103853335Y-97743650D01*
X103864709Y-97745033D01*
X103882542Y-97765960D01*
X103891629Y-97813907D01*
X103892380Y-97874566D01*
X103885207Y-97933626D01*
X103870522Y-97976777D01*
X103857686Y-97989319D01*
X103793044Y-98001807D01*
X103728299Y-97995907D01*
X103682452Y-97973632D01*
X103679500Y-97970417D01*
X103648237Y-97947137D01*
X103614294Y-97937989D01*
X103595306Y-97947090D01*
X103594834Y-97950641D01*
X103603723Y-97976867D01*
X103616745Y-98003558D01*
X103630633Y-98021852D01*
X103654225Y-98033709D01*
X103695660Y-98040445D01*
X103763078Y-98043379D01*
X103864618Y-98043829D01*
X103865454Y-98043827D01*
X103965031Y-98042855D01*
X104027871Y-98040088D01*
X104059557Y-98034677D01*
X104065674Y-98025776D01*
X104055209Y-98015035D01*
X104038898Y-97996867D01*
X104028104Y-97966639D01*
X104021762Y-97916528D01*
X104018809Y-97838710D01*
X104018167Y-97742806D01*
X104019088Y-97634622D01*
X104022452Y-97561720D01*
X104029166Y-97517078D01*
X104040134Y-97493674D01*
X104051259Y-97485997D01*
X104078916Y-97468058D01*
X104068547Y-97452136D01*
X104024456Y-97439695D01*
X103950947Y-97432196D01*
X103888526Y-97430667D01*
X103775429Y-97434644D01*
G37*
X103775429Y-97434644D02*
X103699169Y-97447705D01*
X103654900Y-97471544D01*
X103637776Y-97507854D01*
X103637167Y-97518512D01*
X103639786Y-97547477D01*
X103655240Y-97548931D01*
X103691253Y-97527097D01*
X103754480Y-97502644D01*
X103812961Y-97498204D01*
X103858542Y-97506932D01*
X103877137Y-97530323D01*
X103880584Y-97578833D01*
X103876469Y-97629418D01*
X103855602Y-97652802D01*
X103808183Y-97663500D01*
X103760457Y-97677575D01*
X103729551Y-97698754D01*
X103722900Y-97719001D01*
X103746528Y-97730134D01*
X103793850Y-97735907D01*
X103806500Y-97737583D01*
X103853335Y-97743650D01*
X103864709Y-97745033D01*
X103882542Y-97765960D01*
X103891629Y-97813907D01*
X103892380Y-97874566D01*
X103885207Y-97933626D01*
X103870522Y-97976777D01*
X103857686Y-97989319D01*
X103793044Y-98001807D01*
X103728299Y-97995907D01*
X103682452Y-97973632D01*
X103679500Y-97970417D01*
X103648237Y-97947137D01*
X103614294Y-97937989D01*
X103595306Y-97947090D01*
X103594834Y-97950641D01*
X103603723Y-97976867D01*
X103616745Y-98003558D01*
X103630633Y-98021852D01*
X103654225Y-98033709D01*
X103695660Y-98040445D01*
X103763078Y-98043379D01*
X103864618Y-98043829D01*
X103865454Y-98043827D01*
X103965031Y-98042855D01*
X104027871Y-98040088D01*
X104059557Y-98034677D01*
X104065674Y-98025776D01*
X104055209Y-98015035D01*
X104038898Y-97996867D01*
X104028104Y-97966639D01*
X104021762Y-97916528D01*
X104018809Y-97838710D01*
X104018167Y-97742806D01*
X104019088Y-97634622D01*
X104022452Y-97561720D01*
X104029166Y-97517078D01*
X104040134Y-97493674D01*
X104051259Y-97485997D01*
X104078916Y-97468058D01*
X104068547Y-97452136D01*
X104024456Y-97439695D01*
X103950947Y-97432196D01*
X103888526Y-97430667D01*
X103775429Y-97434644D01*
G36*
X103170492Y-97562588D02*
G01*
X103153437Y-97581345D01*
X103171229Y-97619924D01*
X103189511Y-97644770D01*
X103239915Y-97715803D01*
X103263014Y-97768626D01*
X103261932Y-97814464D01*
X103246995Y-97851271D01*
X103211313Y-97909495D01*
X103165694Y-97971338D01*
X103159804Y-97978462D01*
X103104237Y-98044500D01*
X103213201Y-98044500D01*
X103281043Y-98040694D01*
X103309065Y-98029485D01*
X103308294Y-98022056D01*
X103306190Y-97988693D01*
X103319911Y-97938166D01*
X103321410Y-97934458D01*
X103348398Y-97869305D01*
X103386949Y-97916914D01*
X103420342Y-97973130D01*
X103419339Y-98014020D01*
X103399042Y-98030482D01*
X103402392Y-98036611D01*
X103439309Y-98040938D01*
X103478417Y-98042185D01*
X103538450Y-98040688D01*
X103559897Y-98033988D01*
X103549284Y-98022799D01*
X103518830Y-97993410D01*
X103479796Y-97940994D01*
X103457874Y-97906072D01*
X103401430Y-97809757D01*
X103456050Y-97716556D01*
X103491408Y-97660418D01*
X103520976Y-97620665D01*
X103531585Y-97610428D01*
X103553543Y-97586531D01*
X103536578Y-97568693D01*
X103483908Y-97558912D01*
X103446667Y-97557667D01*
X103386295Y-97561474D01*
X103347976Y-97571209D01*
X103340834Y-97578833D01*
X103356941Y-97599385D01*
X103362000Y-97600000D01*
X103381311Y-97612343D01*
X103366907Y-97649625D01*
X103349908Y-97673980D01*
X103323760Y-97701724D01*
X103305349Y-97695493D01*
X103297454Y-97684563D01*
X103285484Y-97639493D01*
X103288110Y-97605292D01*
X103290719Y-97573432D01*
X103271036Y-97560170D01*
X103224820Y-97557667D01*
X103170492Y-97562588D01*
G37*
X103170492Y-97562588D02*
X103153437Y-97581345D01*
X103171229Y-97619924D01*
X103189511Y-97644770D01*
X103239915Y-97715803D01*
X103263014Y-97768626D01*
X103261932Y-97814464D01*
X103246995Y-97851271D01*
X103211313Y-97909495D01*
X103165694Y-97971338D01*
X103159804Y-97978462D01*
X103104237Y-98044500D01*
X103213201Y-98044500D01*
X103281043Y-98040694D01*
X103309065Y-98029485D01*
X103308294Y-98022056D01*
X103306190Y-97988693D01*
X103319911Y-97938166D01*
X103321410Y-97934458D01*
X103348398Y-97869305D01*
X103386949Y-97916914D01*
X103420342Y-97973130D01*
X103419339Y-98014020D01*
X103399042Y-98030482D01*
X103402392Y-98036611D01*
X103439309Y-98040938D01*
X103478417Y-98042185D01*
X103538450Y-98040688D01*
X103559897Y-98033988D01*
X103549284Y-98022799D01*
X103518830Y-97993410D01*
X103479796Y-97940994D01*
X103457874Y-97906072D01*
X103401430Y-97809757D01*
X103456050Y-97716556D01*
X103491408Y-97660418D01*
X103520976Y-97620665D01*
X103531585Y-97610428D01*
X103553543Y-97586531D01*
X103536578Y-97568693D01*
X103483908Y-97558912D01*
X103446667Y-97557667D01*
X103386295Y-97561474D01*
X103347976Y-97571209D01*
X103340834Y-97578833D01*
X103356941Y-97599385D01*
X103362000Y-97600000D01*
X103381311Y-97612343D01*
X103366907Y-97649625D01*
X103349908Y-97673980D01*
X103323760Y-97701724D01*
X103305349Y-97695493D01*
X103297454Y-97684563D01*
X103285484Y-97639493D01*
X103288110Y-97605292D01*
X103290719Y-97573432D01*
X103271036Y-97560170D01*
X103224820Y-97557667D01*
X103170492Y-97562588D01*
G36*
X102816087Y-97575121D02*
G01*
X102775453Y-97592570D01*
X102723023Y-97623248D01*
X102698350Y-97658538D01*
X102689065Y-97716543D01*
X102688859Y-97719307D01*
X102689391Y-97781373D01*
X102707654Y-97821987D01*
X102740535Y-97852540D01*
X102797097Y-97883495D01*
X102849440Y-97890218D01*
X102884921Y-97872002D01*
X102890604Y-97860924D01*
X102879393Y-97839464D01*
X102849929Y-97829174D01*
X102813702Y-97813769D01*
X102797067Y-97773204D01*
X102794348Y-97752075D01*
X102800547Y-97679725D01*
X102832726Y-97634260D01*
X102877759Y-97621167D01*
X102896346Y-97624872D01*
X102908052Y-97641202D01*
X102914439Y-97677974D01*
X102917062Y-97743005D01*
X102917500Y-97820486D01*
X102915254Y-97926683D01*
X102908217Y-97994318D01*
X102895942Y-98026939D01*
X102891042Y-98030482D01*
X102895132Y-98036418D01*
X102932881Y-98040841D01*
X102981000Y-98042505D01*
X103044038Y-98040585D01*
X103072412Y-98033550D01*
X103069152Y-98025935D01*
X103055498Y-98005019D01*
X103047817Y-97959433D01*
X103045496Y-97882879D01*
X103046979Y-97798737D01*
X103053071Y-97589456D01*
X102954363Y-97571423D01*
X102878208Y-97563501D01*
X102816087Y-97575121D01*
G37*
X102816087Y-97575121D02*
X102775453Y-97592570D01*
X102723023Y-97623248D01*
X102698350Y-97658538D01*
X102689065Y-97716543D01*
X102688859Y-97719307D01*
X102689391Y-97781373D01*
X102707654Y-97821987D01*
X102740535Y-97852540D01*
X102797097Y-97883495D01*
X102849440Y-97890218D01*
X102884921Y-97872002D01*
X102890604Y-97860924D01*
X102879393Y-97839464D01*
X102849929Y-97829174D01*
X102813702Y-97813769D01*
X102797067Y-97773204D01*
X102794348Y-97752075D01*
X102800547Y-97679725D01*
X102832726Y-97634260D01*
X102877759Y-97621167D01*
X102896346Y-97624872D01*
X102908052Y-97641202D01*
X102914439Y-97677974D01*
X102917062Y-97743005D01*
X102917500Y-97820486D01*
X102915254Y-97926683D01*
X102908217Y-97994318D01*
X102895942Y-98026939D01*
X102891042Y-98030482D01*
X102895132Y-98036418D01*
X102932881Y-98040841D01*
X102981000Y-98042505D01*
X103044038Y-98040585D01*
X103072412Y-98033550D01*
X103069152Y-98025935D01*
X103055498Y-98005019D01*
X103047817Y-97959433D01*
X103045496Y-97882879D01*
X103046979Y-97798737D01*
X103053071Y-97589456D01*
X102954363Y-97571423D01*
X102878208Y-97563501D01*
X102816087Y-97575121D01*
G36*
X102342913Y-97581215D02*
G01*
X102280523Y-97613917D01*
X102245145Y-97661117D01*
X102241464Y-97716032D01*
X102274166Y-97771878D01*
X102282500Y-97779917D01*
X102314972Y-97817959D01*
X102319964Y-97855799D01*
X102295686Y-97902843D01*
X102248287Y-97959772D01*
X102171741Y-98044500D01*
X102246293Y-98044500D01*
X102293035Y-98039925D01*
X102328489Y-98020202D01*
X102365400Y-97976330D01*
X102386339Y-97945621D01*
X102427999Y-97880356D01*
X102446771Y-97840190D01*
X102444233Y-97815674D01*
X102421960Y-97797357D01*
X102411991Y-97791833D01*
X102371536Y-97753707D01*
X102356929Y-97705575D01*
X102366244Y-97660075D01*
X102397556Y-97629842D01*
X102437391Y-97625174D01*
X102460154Y-97631705D01*
X102474437Y-97649186D01*
X102482731Y-97686334D01*
X102487529Y-97751866D01*
X102489765Y-97808426D01*
X102490027Y-97911974D01*
X102482875Y-97983329D01*
X102471298Y-98014801D01*
X102462971Y-98032645D01*
X102481212Y-98041615D01*
X102533122Y-98044434D01*
X102548725Y-98044500D01*
X102608567Y-98042271D01*
X102632050Y-98034304D01*
X102625400Y-98019100D01*
X102612308Y-97984843D01*
X102603880Y-97921561D01*
X102600155Y-97842251D01*
X102601172Y-97759912D01*
X102606970Y-97687541D01*
X102617588Y-97638136D01*
X102624229Y-97626572D01*
X102626475Y-97605390D01*
X102591546Y-97587893D01*
X102524544Y-97575554D01*
X102430570Y-97569847D01*
X102427628Y-97569798D01*
X102342913Y-97581215D01*
G37*
X102342913Y-97581215D02*
X102280523Y-97613917D01*
X102245145Y-97661117D01*
X102241464Y-97716032D01*
X102274166Y-97771878D01*
X102282500Y-97779917D01*
X102314972Y-97817959D01*
X102319964Y-97855799D01*
X102295686Y-97902843D01*
X102248287Y-97959772D01*
X102171741Y-98044500D01*
X102246293Y-98044500D01*
X102293035Y-98039925D01*
X102328489Y-98020202D01*
X102365400Y-97976330D01*
X102386339Y-97945621D01*
X102427999Y-97880356D01*
X102446771Y-97840190D01*
X102444233Y-97815674D01*
X102421960Y-97797357D01*
X102411991Y-97791833D01*
X102371536Y-97753707D01*
X102356929Y-97705575D01*
X102366244Y-97660075D01*
X102397556Y-97629842D01*
X102437391Y-97625174D01*
X102460154Y-97631705D01*
X102474437Y-97649186D01*
X102482731Y-97686334D01*
X102487529Y-97751866D01*
X102489765Y-97808426D01*
X102490027Y-97911974D01*
X102482875Y-97983329D01*
X102471298Y-98014801D01*
X102462971Y-98032645D01*
X102481212Y-98041615D01*
X102533122Y-98044434D01*
X102548725Y-98044500D01*
X102608567Y-98042271D01*
X102632050Y-98034304D01*
X102625400Y-98019100D01*
X102612308Y-97984843D01*
X102603880Y-97921561D01*
X102600155Y-97842251D01*
X102601172Y-97759912D01*
X102606970Y-97687541D01*
X102617588Y-97638136D01*
X102624229Y-97626572D01*
X102626475Y-97605390D01*
X102591546Y-97587893D01*
X102524544Y-97575554D01*
X102430570Y-97569847D01*
X102427628Y-97569798D01*
X102342913Y-97581215D01*
G36*
X101912379Y-97562334D02*
G01*
X101851687Y-97573206D01*
X101817083Y-97589162D01*
X101816409Y-97589928D01*
X101798974Y-97624050D01*
X101814456Y-97636552D01*
X101855963Y-97622881D01*
X101916393Y-97602441D01*
X101966888Y-97605876D01*
X101992947Y-97629472D01*
X102000636Y-97689839D01*
X101974209Y-97730845D01*
X101935393Y-97744402D01*
X101896520Y-97759471D01*
X101887405Y-97783035D01*
X101910549Y-97801432D01*
X101924489Y-97803933D01*
X101972403Y-97808360D01*
X101982093Y-97809225D01*
X102000289Y-97827850D01*
X102004363Y-97881836D01*
X102003259Y-97901625D01*
X101996555Y-97958481D01*
X101980682Y-97985769D01*
X101945523Y-97996244D01*
X101926576Y-97998319D01*
X101868721Y-97995692D01*
X101826258Y-97980020D01*
X101825523Y-97979428D01*
X101790846Y-97964200D01*
X101776086Y-97983222D01*
X101781805Y-98011837D01*
X101796373Y-98028082D01*
X101830037Y-98037836D01*
X101890642Y-98042325D01*
X101980211Y-98042829D01*
X102059124Y-98041004D01*
X102115250Y-98037510D01*
X102140761Y-98032954D01*
X102139625Y-98030482D01*
X102127895Y-98006536D01*
X102119318Y-97952590D01*
X102113993Y-97879412D01*
X102112022Y-97797770D01*
X102113507Y-97718433D01*
X102118549Y-97652168D01*
X102127248Y-97609745D01*
X102135583Y-97600000D01*
X102148225Y-97587032D01*
X102144917Y-97578833D01*
X102115426Y-97564794D01*
X102057802Y-97557670D01*
X101985602Y-97557002D01*
X101912379Y-97562334D01*
G37*
X101912379Y-97562334D02*
X101851687Y-97573206D01*
X101817083Y-97589162D01*
X101816409Y-97589928D01*
X101798974Y-97624050D01*
X101814456Y-97636552D01*
X101855963Y-97622881D01*
X101916393Y-97602441D01*
X101966888Y-97605876D01*
X101992947Y-97629472D01*
X102000636Y-97689839D01*
X101974209Y-97730845D01*
X101935393Y-97744402D01*
X101896520Y-97759471D01*
X101887405Y-97783035D01*
X101910549Y-97801432D01*
X101924489Y-97803933D01*
X101972403Y-97808360D01*
X101982093Y-97809225D01*
X102000289Y-97827850D01*
X102004363Y-97881836D01*
X102003259Y-97901625D01*
X101996555Y-97958481D01*
X101980682Y-97985769D01*
X101945523Y-97996244D01*
X101926576Y-97998319D01*
X101868721Y-97995692D01*
X101826258Y-97980020D01*
X101825523Y-97979428D01*
X101790846Y-97964200D01*
X101776086Y-97983222D01*
X101781805Y-98011837D01*
X101796373Y-98028082D01*
X101830037Y-98037836D01*
X101890642Y-98042325D01*
X101980211Y-98042829D01*
X102059124Y-98041004D01*
X102115250Y-98037510D01*
X102140761Y-98032954D01*
X102139625Y-98030482D01*
X102127895Y-98006536D01*
X102119318Y-97952590D01*
X102113993Y-97879412D01*
X102112022Y-97797770D01*
X102113507Y-97718433D01*
X102118549Y-97652168D01*
X102127248Y-97609745D01*
X102135583Y-97600000D01*
X102148225Y-97587032D01*
X102144917Y-97578833D01*
X102115426Y-97564794D01*
X102057802Y-97557670D01*
X101985602Y-97557002D01*
X101912379Y-97562334D01*
G36*
X100302284Y-97307030D02*
G01*
X100240090Y-97311506D01*
X100214014Y-97318053D01*
X100218750Y-97323475D01*
X100314165Y-97347676D01*
X100423515Y-97354394D01*
X100513828Y-97343822D01*
X100568774Y-97328913D01*
X100603319Y-97316313D01*
X100607314Y-97313742D01*
X100591936Y-97309729D01*
X100542481Y-97306739D01*
X100467202Y-97305114D01*
X100396903Y-97305008D01*
X100302284Y-97307030D01*
G37*
X100302284Y-97307030D02*
X100240090Y-97311506D01*
X100214014Y-97318053D01*
X100218750Y-97323475D01*
X100314165Y-97347676D01*
X100423515Y-97354394D01*
X100513828Y-97343822D01*
X100568774Y-97328913D01*
X100603319Y-97316313D01*
X100607314Y-97313742D01*
X100591936Y-97309729D01*
X100542481Y-97306739D01*
X100467202Y-97305114D01*
X100396903Y-97305008D01*
X100302284Y-97307030D01*
G36*
X105410420Y-96722210D02*
G01*
X105377386Y-96735736D01*
X105360340Y-96765060D01*
X105354468Y-96785083D01*
X105348579Y-96837729D01*
X105365529Y-96856547D01*
X105402532Y-96839222D01*
X105411100Y-96832092D01*
X105474095Y-96792667D01*
X105530140Y-96786967D01*
X105565513Y-96808875D01*
X105579878Y-96834202D01*
X105570186Y-96858341D01*
X105531072Y-96892475D01*
X105522120Y-96899311D01*
X105427961Y-96974366D01*
X105365047Y-97035038D01*
X105328033Y-97088232D01*
X105311571Y-97140852D01*
X105309334Y-97174062D01*
X105322729Y-97249756D01*
X105364751Y-97298059D01*
X105438156Y-97320955D01*
X105515609Y-97322641D01*
X105580405Y-97322043D01*
X105628126Y-97326722D01*
X105640442Y-97330745D01*
X105672252Y-97329956D01*
X105686945Y-97319755D01*
X105705322Y-97281422D01*
X105711500Y-97236244D01*
X105711500Y-97177289D01*
X105642709Y-97219232D01*
X105562528Y-97254747D01*
X105497530Y-97256044D01*
X105458343Y-97230599D01*
X105441578Y-97186656D01*
X105461896Y-97137246D01*
X105520709Y-97080080D01*
X105575330Y-97040926D01*
X105662233Y-96973379D01*
X105709850Y-96910654D01*
X105720339Y-96848960D01*
X105708263Y-96807597D01*
X105660301Y-96752214D01*
X105578451Y-96722141D01*
X105472611Y-96716879D01*
X105410420Y-96722210D01*
G37*
X105410420Y-96722210D02*
X105377386Y-96735736D01*
X105360340Y-96765060D01*
X105354468Y-96785083D01*
X105348579Y-96837729D01*
X105365529Y-96856547D01*
X105402532Y-96839222D01*
X105411100Y-96832092D01*
X105474095Y-96792667D01*
X105530140Y-96786967D01*
X105565513Y-96808875D01*
X105579878Y-96834202D01*
X105570186Y-96858341D01*
X105531072Y-96892475D01*
X105522120Y-96899311D01*
X105427961Y-96974366D01*
X105365047Y-97035038D01*
X105328033Y-97088232D01*
X105311571Y-97140852D01*
X105309334Y-97174062D01*
X105322729Y-97249756D01*
X105364751Y-97298059D01*
X105438156Y-97320955D01*
X105515609Y-97322641D01*
X105580405Y-97322043D01*
X105628126Y-97326722D01*
X105640442Y-97330745D01*
X105672252Y-97329956D01*
X105686945Y-97319755D01*
X105705322Y-97281422D01*
X105711500Y-97236244D01*
X105711500Y-97177289D01*
X105642709Y-97219232D01*
X105562528Y-97254747D01*
X105497530Y-97256044D01*
X105458343Y-97230599D01*
X105441578Y-97186656D01*
X105461896Y-97137246D01*
X105520709Y-97080080D01*
X105575330Y-97040926D01*
X105662233Y-96973379D01*
X105709850Y-96910654D01*
X105720339Y-96848960D01*
X105708263Y-96807597D01*
X105660301Y-96752214D01*
X105578451Y-96722141D01*
X105472611Y-96716879D01*
X105410420Y-96722210D01*
G36*
X104973919Y-96842209D02*
G01*
X104908461Y-96856170D01*
X104873916Y-96881885D01*
X104864834Y-96916804D01*
X104872872Y-96931769D01*
X104902274Y-96919915D01*
X104916820Y-96910747D01*
X104960946Y-96890453D01*
X104990903Y-96890341D01*
X105002409Y-96917840D01*
X105009724Y-96975543D01*
X105012942Y-97051537D01*
X105012159Y-97133909D01*
X105007474Y-97210749D01*
X104998980Y-97270144D01*
X104987600Y-97299433D01*
X104980972Y-97315010D01*
X105005211Y-97322811D01*
X105061684Y-97324833D01*
X105119940Y-97320797D01*
X105155749Y-97310541D01*
X105161167Y-97303667D01*
X105145060Y-97283115D01*
X105140000Y-97282500D01*
X105129868Y-97262513D01*
X105122638Y-97207167D01*
X105119074Y-97123379D01*
X105118834Y-97091336D01*
X105122310Y-96983381D01*
X105133767Y-96914686D01*
X105154749Y-96882670D01*
X105186801Y-96884751D01*
X105225585Y-96912914D01*
X105264829Y-96938621D01*
X105281385Y-96930534D01*
X105269690Y-96893146D01*
X105263376Y-96882394D01*
X105243754Y-96859343D01*
X105213743Y-96845909D01*
X105162887Y-96839620D01*
X105080726Y-96838002D01*
X105075642Y-96838000D01*
X104973919Y-96842209D01*
G37*
X104973919Y-96842209D02*
X104908461Y-96856170D01*
X104873916Y-96881885D01*
X104864834Y-96916804D01*
X104872872Y-96931769D01*
X104902274Y-96919915D01*
X104916820Y-96910747D01*
X104960946Y-96890453D01*
X104990903Y-96890341D01*
X105002409Y-96917840D01*
X105009724Y-96975543D01*
X105012942Y-97051537D01*
X105012159Y-97133909D01*
X105007474Y-97210749D01*
X104998980Y-97270144D01*
X104987600Y-97299433D01*
X104980972Y-97315010D01*
X105005211Y-97322811D01*
X105061684Y-97324833D01*
X105119940Y-97320797D01*
X105155749Y-97310541D01*
X105161167Y-97303667D01*
X105145060Y-97283115D01*
X105140000Y-97282500D01*
X105129868Y-97262513D01*
X105122638Y-97207167D01*
X105119074Y-97123379D01*
X105118834Y-97091336D01*
X105122310Y-96983381D01*
X105133767Y-96914686D01*
X105154749Y-96882670D01*
X105186801Y-96884751D01*
X105225585Y-96912914D01*
X105264829Y-96938621D01*
X105281385Y-96930534D01*
X105269690Y-96893146D01*
X105263376Y-96882394D01*
X105243754Y-96859343D01*
X105213743Y-96845909D01*
X105162887Y-96839620D01*
X105080726Y-96838002D01*
X105075642Y-96838000D01*
X104973919Y-96842209D01*
G36*
X104569631Y-96845291D02*
G01*
X104558316Y-96847112D01*
X104490696Y-96876014D01*
X104450739Y-96925567D01*
X104442143Y-96985188D01*
X104468607Y-97044293D01*
X104483834Y-97060250D01*
X104517152Y-97099722D01*
X104520599Y-97138108D01*
X104492405Y-97184766D01*
X104452084Y-97228172D01*
X104409280Y-97273313D01*
X104382522Y-97306029D01*
X104378000Y-97314885D01*
X104396387Y-97321685D01*
X104441213Y-97321379D01*
X104446792Y-97320883D01*
X104492680Y-97309549D01*
X104532319Y-97279677D01*
X104576998Y-97222193D01*
X104585795Y-97209191D01*
X104656006Y-97104131D01*
X104601670Y-97064550D01*
X104560930Y-97017611D01*
X104548225Y-96964916D01*
X104565029Y-96920054D01*
X104584375Y-96905105D01*
X104623864Y-96890867D01*
X104650148Y-96899747D01*
X104665676Y-96936763D01*
X104672896Y-97006931D01*
X104674334Y-97089530D01*
X104671261Y-97191866D01*
X104662519Y-97263837D01*
X104648934Y-97299433D01*
X104642973Y-97314376D01*
X104666990Y-97322275D01*
X104726758Y-97324810D01*
X104736192Y-97324833D01*
X104800079Y-97323299D01*
X104828919Y-97316971D01*
X104829940Y-97303258D01*
X104823027Y-97293718D01*
X104809338Y-97254672D01*
X104803227Y-97178330D01*
X104804520Y-97062493D01*
X104804561Y-97061371D01*
X104811917Y-96860139D01*
X104722100Y-96846687D01*
X104644697Y-96841286D01*
X104569631Y-96845291D01*
G37*
X104569631Y-96845291D02*
X104558316Y-96847112D01*
X104490696Y-96876014D01*
X104450739Y-96925567D01*
X104442143Y-96985188D01*
X104468607Y-97044293D01*
X104483834Y-97060250D01*
X104517152Y-97099722D01*
X104520599Y-97138108D01*
X104492405Y-97184766D01*
X104452084Y-97228172D01*
X104409280Y-97273313D01*
X104382522Y-97306029D01*
X104378000Y-97314885D01*
X104396387Y-97321685D01*
X104441213Y-97321379D01*
X104446792Y-97320883D01*
X104492680Y-97309549D01*
X104532319Y-97279677D01*
X104576998Y-97222193D01*
X104585795Y-97209191D01*
X104656006Y-97104131D01*
X104601670Y-97064550D01*
X104560930Y-97017611D01*
X104548225Y-96964916D01*
X104565029Y-96920054D01*
X104584375Y-96905105D01*
X104623864Y-96890867D01*
X104650148Y-96899747D01*
X104665676Y-96936763D01*
X104672896Y-97006931D01*
X104674334Y-97089530D01*
X104671261Y-97191866D01*
X104662519Y-97263837D01*
X104648934Y-97299433D01*
X104642973Y-97314376D01*
X104666990Y-97322275D01*
X104726758Y-97324810D01*
X104736192Y-97324833D01*
X104800079Y-97323299D01*
X104828919Y-97316971D01*
X104829940Y-97303258D01*
X104823027Y-97293718D01*
X104809338Y-97254672D01*
X104803227Y-97178330D01*
X104804520Y-97062493D01*
X104804561Y-97061371D01*
X104811917Y-96860139D01*
X104722100Y-96846687D01*
X104644697Y-96841286D01*
X104569631Y-96845291D01*
G36*
X104177460Y-96840284D02*
G01*
X104155085Y-96848465D01*
X104162101Y-96863400D01*
X104174935Y-96897430D01*
X104183407Y-96961336D01*
X104187518Y-97042886D01*
X104187266Y-97129848D01*
X104182653Y-97209989D01*
X104173679Y-97271077D01*
X104162100Y-97299433D01*
X104155472Y-97315010D01*
X104179711Y-97322811D01*
X104236184Y-97324833D01*
X104294443Y-97321035D01*
X104330252Y-97311383D01*
X104335667Y-97304916D01*
X104320281Y-97276249D01*
X104314500Y-97271917D01*
X104304804Y-97246083D01*
X104297444Y-97188700D01*
X104293617Y-97110534D01*
X104293334Y-97081417D01*
X104295701Y-96998675D01*
X104302004Y-96933089D01*
X104311048Y-96895427D01*
X104314500Y-96890917D01*
X104336578Y-96866824D01*
X104319946Y-96848747D01*
X104268072Y-96839027D01*
X104236184Y-96838000D01*
X104177460Y-96840284D01*
G37*
X104177460Y-96840284D02*
X104155085Y-96848465D01*
X104162101Y-96863400D01*
X104174935Y-96897430D01*
X104183407Y-96961336D01*
X104187518Y-97042886D01*
X104187266Y-97129848D01*
X104182653Y-97209989D01*
X104173679Y-97271077D01*
X104162100Y-97299433D01*
X104155472Y-97315010D01*
X104179711Y-97322811D01*
X104236184Y-97324833D01*
X104294443Y-97321035D01*
X104330252Y-97311383D01*
X104335667Y-97304916D01*
X104320281Y-97276249D01*
X104314500Y-97271917D01*
X104304804Y-97246083D01*
X104297444Y-97188700D01*
X104293617Y-97110534D01*
X104293334Y-97081417D01*
X104295701Y-96998675D01*
X104302004Y-96933089D01*
X104311048Y-96895427D01*
X104314500Y-96890917D01*
X104336578Y-96866824D01*
X104319946Y-96848747D01*
X104268072Y-96839027D01*
X104236184Y-96838000D01*
X104177460Y-96840284D01*
G36*
X104024734Y-96843403D02*
G01*
X103989380Y-96863981D01*
X103946742Y-96906291D01*
X103888764Y-96976888D01*
X103886233Y-96980112D01*
X103774750Y-97122224D01*
X103768178Y-97019492D01*
X103768639Y-96954706D01*
X103777262Y-96906797D01*
X103784053Y-96894314D01*
X103805270Y-96861109D01*
X103787166Y-96842601D01*
X103743000Y-96838000D01*
X103692672Y-96845536D01*
X103680384Y-96866917D01*
X103695375Y-96889177D01*
X103702228Y-96916012D01*
X103707594Y-96975034D01*
X103710736Y-97056105D01*
X103711250Y-97107704D01*
X103713881Y-97219016D01*
X103721731Y-97289377D01*
X103734740Y-97318267D01*
X103735698Y-97318676D01*
X103758034Y-97306401D01*
X103798273Y-97266601D01*
X103849793Y-97206256D01*
X103883865Y-97162430D01*
X104007584Y-96997839D01*
X104013933Y-97131434D01*
X104013589Y-97215395D01*
X104004595Y-97275145D01*
X103995467Y-97294931D01*
X103986022Y-97314334D01*
X104005560Y-97323037D01*
X104051559Y-97324833D01*
X104101759Y-97322049D01*
X104115616Y-97311951D01*
X104107067Y-97299433D01*
X104095823Y-97269119D01*
X104087701Y-97210975D01*
X104082814Y-97135894D01*
X104081269Y-97054766D01*
X104083177Y-96978483D01*
X104088649Y-96917937D01*
X104097795Y-96884019D01*
X104102834Y-96880333D01*
X104123385Y-96864226D01*
X104124000Y-96859167D01*
X104105616Y-96844272D01*
X104061353Y-96838000D01*
X104060858Y-96838000D01*
X104024734Y-96843403D01*
G37*
X104024734Y-96843403D02*
X103989380Y-96863981D01*
X103946742Y-96906291D01*
X103888764Y-96976888D01*
X103886233Y-96980112D01*
X103774750Y-97122224D01*
X103768178Y-97019492D01*
X103768639Y-96954706D01*
X103777262Y-96906797D01*
X103784053Y-96894314D01*
X103805270Y-96861109D01*
X103787166Y-96842601D01*
X103743000Y-96838000D01*
X103692672Y-96845536D01*
X103680384Y-96866917D01*
X103695375Y-96889177D01*
X103702228Y-96916012D01*
X103707594Y-96975034D01*
X103710736Y-97056105D01*
X103711250Y-97107704D01*
X103713881Y-97219016D01*
X103721731Y-97289377D01*
X103734740Y-97318267D01*
X103735698Y-97318676D01*
X103758034Y-97306401D01*
X103798273Y-97266601D01*
X103849793Y-97206256D01*
X103883865Y-97162430D01*
X104007584Y-96997839D01*
X104013933Y-97131434D01*
X104013589Y-97215395D01*
X104004595Y-97275145D01*
X103995467Y-97294931D01*
X103986022Y-97314334D01*
X104005560Y-97323037D01*
X104051559Y-97324833D01*
X104101759Y-97322049D01*
X104115616Y-97311951D01*
X104107067Y-97299433D01*
X104095823Y-97269119D01*
X104087701Y-97210975D01*
X104082814Y-97135894D01*
X104081269Y-97054766D01*
X104083177Y-96978483D01*
X104088649Y-96917937D01*
X104097795Y-96884019D01*
X104102834Y-96880333D01*
X104123385Y-96864226D01*
X104124000Y-96859167D01*
X104105616Y-96844272D01*
X104061353Y-96838000D01*
X104060858Y-96838000D01*
X104024734Y-96843403D01*
G36*
X103320825Y-96840877D02*
G01*
X103285199Y-96852390D01*
X103267976Y-96876862D01*
X103266244Y-96881928D01*
X103258725Y-96923522D01*
X103274996Y-96934997D01*
X103318922Y-96917737D01*
X103337562Y-96907452D01*
X103391262Y-96883793D01*
X103430146Y-96887210D01*
X103440970Y-96892994D01*
X103496474Y-96951432D01*
X103523358Y-97037047D01*
X103523725Y-97112331D01*
X103506162Y-97184020D01*
X103474029Y-97238224D01*
X103434593Y-97271260D01*
X103395125Y-97279449D01*
X103362893Y-97259109D01*
X103345166Y-97206558D01*
X103344784Y-97202951D01*
X103346254Y-97155705D01*
X103359167Y-97134477D01*
X103360659Y-97134333D01*
X103382286Y-97119020D01*
X103383167Y-97113167D01*
X103364448Y-97099654D01*
X103317938Y-97092395D01*
X103302407Y-97092000D01*
X103221647Y-97092000D01*
X103225723Y-97181958D01*
X103234331Y-97245949D01*
X103257289Y-97283019D01*
X103280025Y-97298063D01*
X103352664Y-97318769D01*
X103439246Y-97320727D01*
X103515637Y-97303681D01*
X103522440Y-97300607D01*
X103579648Y-97251411D01*
X103619961Y-97174007D01*
X103636990Y-97081197D01*
X103637167Y-97070742D01*
X103630635Y-97005934D01*
X103604954Y-96954490D01*
X103565200Y-96909967D01*
X103514216Y-96865122D01*
X103466348Y-96843958D01*
X103400781Y-96838082D01*
X103386710Y-96838000D01*
X103320825Y-96840877D01*
G37*
X103320825Y-96840877D02*
X103285199Y-96852390D01*
X103267976Y-96876862D01*
X103266244Y-96881928D01*
X103258725Y-96923522D01*
X103274996Y-96934997D01*
X103318922Y-96917737D01*
X103337562Y-96907452D01*
X103391262Y-96883793D01*
X103430146Y-96887210D01*
X103440970Y-96892994D01*
X103496474Y-96951432D01*
X103523358Y-97037047D01*
X103523725Y-97112331D01*
X103506162Y-97184020D01*
X103474029Y-97238224D01*
X103434593Y-97271260D01*
X103395125Y-97279449D01*
X103362893Y-97259109D01*
X103345166Y-97206558D01*
X103344784Y-97202951D01*
X103346254Y-97155705D01*
X103359167Y-97134477D01*
X103360659Y-97134333D01*
X103382286Y-97119020D01*
X103383167Y-97113167D01*
X103364448Y-97099654D01*
X103317938Y-97092395D01*
X103302407Y-97092000D01*
X103221647Y-97092000D01*
X103225723Y-97181958D01*
X103234331Y-97245949D01*
X103257289Y-97283019D01*
X103280025Y-97298063D01*
X103352664Y-97318769D01*
X103439246Y-97320727D01*
X103515637Y-97303681D01*
X103522440Y-97300607D01*
X103579648Y-97251411D01*
X103619961Y-97174007D01*
X103636990Y-97081197D01*
X103637167Y-97070742D01*
X103630635Y-97005934D01*
X103604954Y-96954490D01*
X103565200Y-96909967D01*
X103514216Y-96865122D01*
X103466348Y-96843958D01*
X103400781Y-96838082D01*
X103386710Y-96838000D01*
X103320825Y-96840877D01*
G36*
X102797041Y-96724230D02*
G01*
X102762106Y-96739921D01*
X102742563Y-96771048D01*
X102739090Y-96780387D01*
X102727929Y-96832540D01*
X102742188Y-96851002D01*
X102780888Y-96835177D01*
X102802824Y-96819246D01*
X102874737Y-96780039D01*
X102936725Y-96780133D01*
X102985769Y-96817066D01*
X103018850Y-96888372D01*
X103032949Y-96991588D01*
X103033231Y-97007338D01*
X103022983Y-97121590D01*
X102991917Y-97201959D01*
X102941786Y-97246924D01*
X102874340Y-97254965D01*
X102791332Y-97224560D01*
X102786305Y-97221716D01*
X102736528Y-97194296D01*
X102713152Y-97187870D01*
X102706231Y-97201724D01*
X102705834Y-97215956D01*
X102724934Y-97257595D01*
X102774745Y-97290830D01*
X102844031Y-97312967D01*
X102921556Y-97321311D01*
X102996083Y-97313168D01*
X103040484Y-97296198D01*
X103113342Y-97232408D01*
X103157604Y-97139710D01*
X103171361Y-97031699D01*
X103157073Y-96906562D01*
X103114241Y-96812357D01*
X103043429Y-96749656D01*
X102945203Y-96719031D01*
X102860827Y-96716961D01*
X102797041Y-96724230D01*
G37*
X102797041Y-96724230D02*
X102762106Y-96739921D01*
X102742563Y-96771048D01*
X102739090Y-96780387D01*
X102727929Y-96832540D01*
X102742188Y-96851002D01*
X102780888Y-96835177D01*
X102802824Y-96819246D01*
X102874737Y-96780039D01*
X102936725Y-96780133D01*
X102985769Y-96817066D01*
X103018850Y-96888372D01*
X103032949Y-96991588D01*
X103033231Y-97007338D01*
X103022983Y-97121590D01*
X102991917Y-97201959D01*
X102941786Y-97246924D01*
X102874340Y-97254965D01*
X102791332Y-97224560D01*
X102786305Y-97221716D01*
X102736528Y-97194296D01*
X102713152Y-97187870D01*
X102706231Y-97201724D01*
X102705834Y-97215956D01*
X102724934Y-97257595D01*
X102774745Y-97290830D01*
X102844031Y-97312967D01*
X102921556Y-97321311D01*
X102996083Y-97313168D01*
X103040484Y-97296198D01*
X103113342Y-97232408D01*
X103157604Y-97139710D01*
X103171361Y-97031699D01*
X103157073Y-96906562D01*
X103114241Y-96812357D01*
X103043429Y-96749656D01*
X102945203Y-96719031D01*
X102860827Y-96716961D01*
X102797041Y-96724230D01*
G36*
X102444424Y-96842428D02*
G01*
X102420307Y-96856898D01*
X102394479Y-96896735D01*
X102363866Y-96967670D01*
X102336101Y-97044189D01*
X102302689Y-97133621D01*
X102269285Y-97211479D01*
X102240965Y-97266396D01*
X102229752Y-97282314D01*
X102209928Y-97306333D01*
X102211007Y-97319009D01*
X102239929Y-97323967D01*
X102303633Y-97324832D01*
X102311149Y-97324833D01*
X102378071Y-97323748D01*
X102410561Y-97318310D01*
X102416506Y-97305243D01*
X102406339Y-97285304D01*
X102390837Y-97237120D01*
X102401857Y-97199102D01*
X102433803Y-97183908D01*
X102449948Y-97186651D01*
X102489448Y-97187183D01*
X102505099Y-97176103D01*
X102500030Y-97153149D01*
X102475130Y-97141023D01*
X102437053Y-97118094D01*
X102437002Y-97078250D01*
X102459506Y-97039485D01*
X102477089Y-97020540D01*
X102491305Y-97025517D01*
X102507732Y-97060463D01*
X102525045Y-97110541D01*
X102543596Y-97182689D01*
X102550931Y-97246457D01*
X102548720Y-97272934D01*
X102544087Y-97307470D01*
X102560882Y-97321898D01*
X102609407Y-97324833D01*
X102685935Y-97324833D01*
X102644709Y-97266625D01*
X102619662Y-97220161D01*
X102588255Y-97146195D01*
X102555903Y-97057887D01*
X102544181Y-97022345D01*
X102514281Y-96933008D01*
X102491302Y-96877741D01*
X102471430Y-96849664D01*
X102450849Y-96841897D01*
X102444424Y-96842428D01*
G37*
X102444424Y-96842428D02*
X102420307Y-96856898D01*
X102394479Y-96896735D01*
X102363866Y-96967670D01*
X102336101Y-97044189D01*
X102302689Y-97133621D01*
X102269285Y-97211479D01*
X102240965Y-97266396D01*
X102229752Y-97282314D01*
X102209928Y-97306333D01*
X102211007Y-97319009D01*
X102239929Y-97323967D01*
X102303633Y-97324832D01*
X102311149Y-97324833D01*
X102378071Y-97323748D01*
X102410561Y-97318310D01*
X102416506Y-97305243D01*
X102406339Y-97285304D01*
X102390837Y-97237120D01*
X102401857Y-97199102D01*
X102433803Y-97183908D01*
X102449948Y-97186651D01*
X102489448Y-97187183D01*
X102505099Y-97176103D01*
X102500030Y-97153149D01*
X102475130Y-97141023D01*
X102437053Y-97118094D01*
X102437002Y-97078250D01*
X102459506Y-97039485D01*
X102477089Y-97020540D01*
X102491305Y-97025517D01*
X102507732Y-97060463D01*
X102525045Y-97110541D01*
X102543596Y-97182689D01*
X102550931Y-97246457D01*
X102548720Y-97272934D01*
X102544087Y-97307470D01*
X102560882Y-97321898D01*
X102609407Y-97324833D01*
X102685935Y-97324833D01*
X102644709Y-97266625D01*
X102619662Y-97220161D01*
X102588255Y-97146195D01*
X102555903Y-97057887D01*
X102544181Y-97022345D01*
X102514281Y-96933008D01*
X102491302Y-96877741D01*
X102471430Y-96849664D01*
X102450849Y-96841897D01*
X102444424Y-96842428D01*
G36*
X101888744Y-96847320D02*
G01*
X101848272Y-96867946D01*
X101832709Y-96879618D01*
X101785271Y-96934382D01*
X101780126Y-96990458D01*
X101817246Y-97048570D01*
X101826353Y-97057410D01*
X101878206Y-97105466D01*
X101837614Y-97172214D01*
X101798190Y-97225126D01*
X101757016Y-97263851D01*
X101754011Y-97265822D01*
X101716660Y-97296867D01*
X101720143Y-97316912D01*
X101764121Y-97324764D01*
X101770811Y-97324833D01*
X101828425Y-97310134D01*
X101886009Y-97263222D01*
X101948600Y-97179873D01*
X101954298Y-97170996D01*
X101976979Y-97130816D01*
X101975748Y-97103708D01*
X101947307Y-97071509D01*
X101933976Y-97059069D01*
X101895724Y-97011805D01*
X101888736Y-96973661D01*
X101888961Y-96973049D01*
X101900148Y-96934461D01*
X101901500Y-96923200D01*
X101918638Y-96899851D01*
X101956505Y-96890890D01*
X101994778Y-96900356D01*
X101999433Y-96903726D01*
X102012522Y-96933376D01*
X102022066Y-96990186D01*
X102027828Y-97062749D01*
X102029569Y-97139659D01*
X102027051Y-97209510D01*
X102020038Y-97260895D01*
X102008290Y-97282407D01*
X102007334Y-97282500D01*
X101986782Y-97298607D01*
X101986167Y-97303667D01*
X102005135Y-97316061D01*
X102053340Y-97323680D01*
X102085650Y-97324833D01*
X102144375Y-97322549D01*
X102166750Y-97314368D01*
X102159734Y-97299433D01*
X102147221Y-97266723D01*
X102138845Y-97205899D01*
X102134683Y-97129250D01*
X102134809Y-97049063D01*
X102139300Y-96977629D01*
X102148230Y-96927235D01*
X102157345Y-96910943D01*
X102171014Y-96889923D01*
X102146474Y-96870352D01*
X102087844Y-96854155D01*
X102015074Y-96844546D01*
X101939046Y-96840539D01*
X101888744Y-96847320D01*
G37*
X101888744Y-96847320D02*
X101848272Y-96867946D01*
X101832709Y-96879618D01*
X101785271Y-96934382D01*
X101780126Y-96990458D01*
X101817246Y-97048570D01*
X101826353Y-97057410D01*
X101878206Y-97105466D01*
X101837614Y-97172214D01*
X101798190Y-97225126D01*
X101757016Y-97263851D01*
X101754011Y-97265822D01*
X101716660Y-97296867D01*
X101720143Y-97316912D01*
X101764121Y-97324764D01*
X101770811Y-97324833D01*
X101828425Y-97310134D01*
X101886009Y-97263222D01*
X101948600Y-97179873D01*
X101954298Y-97170996D01*
X101976979Y-97130816D01*
X101975748Y-97103708D01*
X101947307Y-97071509D01*
X101933976Y-97059069D01*
X101895724Y-97011805D01*
X101888736Y-96973661D01*
X101888961Y-96973049D01*
X101900148Y-96934461D01*
X101901500Y-96923200D01*
X101918638Y-96899851D01*
X101956505Y-96890890D01*
X101994778Y-96900356D01*
X101999433Y-96903726D01*
X102012522Y-96933376D01*
X102022066Y-96990186D01*
X102027828Y-97062749D01*
X102029569Y-97139659D01*
X102027051Y-97209510D01*
X102020038Y-97260895D01*
X102008290Y-97282407D01*
X102007334Y-97282500D01*
X101986782Y-97298607D01*
X101986167Y-97303667D01*
X102005135Y-97316061D01*
X102053340Y-97323680D01*
X102085650Y-97324833D01*
X102144375Y-97322549D01*
X102166750Y-97314368D01*
X102159734Y-97299433D01*
X102147221Y-97266723D01*
X102138845Y-97205899D01*
X102134683Y-97129250D01*
X102134809Y-97049063D01*
X102139300Y-96977629D01*
X102148230Y-96927235D01*
X102157345Y-96910943D01*
X102171014Y-96889923D01*
X102146474Y-96870352D01*
X102087844Y-96854155D01*
X102015074Y-96844546D01*
X101939046Y-96840539D01*
X101888744Y-96847320D01*
G36*
X101228935Y-96917375D02*
G01*
X101223119Y-97261333D01*
X101373382Y-97261333D01*
X101380000Y-96570000D01*
X101230000Y-96570000D01*
X101228935Y-96917375D01*
G37*
X101228935Y-96917375D02*
X101223119Y-97261333D01*
X101373382Y-97261333D01*
X101380000Y-96570000D01*
X101230000Y-96570000D01*
X101228935Y-96917375D01*
G36*
X100419834Y-97261333D02*
G01*
X101181834Y-97261333D01*
X101181834Y-97113167D01*
X100419834Y-97113167D01*
X100419834Y-97261333D01*
G37*
X100419834Y-97261333D02*
X101181834Y-97261333D01*
X101181834Y-97113167D01*
X100419834Y-97113167D01*
X100419834Y-97261333D01*
G36*
X99594334Y-97261333D02*
G01*
X100377500Y-97261333D01*
X100377500Y-97113167D01*
X99594334Y-97113167D01*
X99594334Y-97261333D01*
G37*
X99594334Y-97261333D02*
X100377500Y-97261333D01*
X100377500Y-97113167D01*
X99594334Y-97113167D01*
X99594334Y-97261333D01*
G36*
X99400000Y-97260000D02*
G01*
X99553049Y-97261333D01*
X99550000Y-96570000D01*
X99400000Y-96570000D01*
X99402785Y-97261333D01*
X99400000Y-97260000D01*
G37*
X99400000Y-97260000D02*
X99553049Y-97261333D01*
X99550000Y-96570000D01*
X99400000Y-96570000D01*
X99402785Y-97261333D01*
X99400000Y-97260000D01*
G36*
X100321813Y-96313216D02*
G01*
X100196894Y-96346423D01*
X100078187Y-96415480D01*
X100056960Y-96432763D01*
X99960369Y-96542010D01*
X99898020Y-96671083D01*
X99872260Y-96811977D01*
X99885433Y-96956685D01*
X99894018Y-96989002D01*
X99918535Y-97070833D01*
X100121559Y-97071122D01*
X100214603Y-97071906D01*
X100295165Y-97073768D01*
X100351372Y-97076380D01*
X100366917Y-97077908D01*
X100404751Y-97079502D01*
X100474124Y-97078756D01*
X100564319Y-97075886D01*
X100641959Y-97072327D01*
X100874667Y-97060250D01*
X100904479Y-96948502D01*
X100918343Y-96840078D01*
X100610334Y-96840078D01*
X100601290Y-96903945D01*
X100567233Y-96953734D01*
X100545210Y-96973702D01*
X100466138Y-97017580D01*
X100378203Y-97031042D01*
X100294855Y-97013925D01*
X100239816Y-96977406D01*
X100186174Y-96901581D01*
X100174623Y-96822928D01*
X100196080Y-96756240D01*
X100250413Y-96688668D01*
X100321563Y-96650577D01*
X100400409Y-96640120D01*
X100477829Y-96655453D01*
X100544702Y-96694729D01*
X100591906Y-96756101D01*
X100610321Y-96837725D01*
X100610334Y-96840078D01*
X100918343Y-96840078D01*
X100921959Y-96811805D01*
X100902963Y-96684982D01*
X100852828Y-96571279D01*
X100776889Y-96473943D01*
X100680482Y-96396222D01*
X100568943Y-96341362D01*
X100447608Y-96312611D01*
X100321813Y-96313216D01*
G37*
X100321813Y-96313216D02*
X100196894Y-96346423D01*
X100078187Y-96415480D01*
X100056960Y-96432763D01*
X99960369Y-96542010D01*
X99898020Y-96671083D01*
X99872260Y-96811977D01*
X99885433Y-96956685D01*
X99894018Y-96989002D01*
X99918535Y-97070833D01*
X100121559Y-97071122D01*
X100214603Y-97071906D01*
X100295165Y-97073768D01*
X100351372Y-97076380D01*
X100366917Y-97077908D01*
X100404751Y-97079502D01*
X100474124Y-97078756D01*
X100564319Y-97075886D01*
X100641959Y-97072327D01*
X100874667Y-97060250D01*
X100904479Y-96948502D01*
X100918343Y-96840078D01*
X100610334Y-96840078D01*
X100601290Y-96903945D01*
X100567233Y-96953734D01*
X100545210Y-96973702D01*
X100466138Y-97017580D01*
X100378203Y-97031042D01*
X100294855Y-97013925D01*
X100239816Y-96977406D01*
X100186174Y-96901581D01*
X100174623Y-96822928D01*
X100196080Y-96756240D01*
X100250413Y-96688668D01*
X100321563Y-96650577D01*
X100400409Y-96640120D01*
X100477829Y-96655453D01*
X100544702Y-96694729D01*
X100591906Y-96756101D01*
X100610321Y-96837725D01*
X100610334Y-96840078D01*
X100918343Y-96840078D01*
X100921959Y-96811805D01*
X100902963Y-96684982D01*
X100852828Y-96571279D01*
X100776889Y-96473943D01*
X100680482Y-96396222D01*
X100568943Y-96341362D01*
X100447608Y-96312611D01*
X100321813Y-96313216D01*
G36*
X100317659Y-96693244D02*
G01*
X100251050Y-96746859D01*
X100250758Y-96747229D01*
X100214096Y-96812857D01*
X100217116Y-96872818D01*
X100255792Y-96932092D01*
X100325866Y-96982987D01*
X100407926Y-96997790D01*
X100489601Y-96974404D01*
X100550952Y-96920768D01*
X100576599Y-96854821D01*
X100566794Y-96786593D01*
X100521789Y-96726116D01*
X100482698Y-96700088D01*
X100397981Y-96677023D01*
X100317659Y-96693244D01*
G37*
X100317659Y-96693244D02*
X100251050Y-96746859D01*
X100250758Y-96747229D01*
X100214096Y-96812857D01*
X100217116Y-96872818D01*
X100255792Y-96932092D01*
X100325866Y-96982987D01*
X100407926Y-96997790D01*
X100489601Y-96974404D01*
X100550952Y-96920768D01*
X100576599Y-96854821D01*
X100566794Y-96786593D01*
X100521789Y-96726116D01*
X100482698Y-96700088D01*
X100397981Y-96677023D01*
X100317659Y-96693244D01*
G36*
X98184372Y-98594019D02*
G01*
X98135227Y-98632422D01*
X98104939Y-98673587D01*
X98071741Y-98716335D01*
X98041685Y-98734304D01*
X98023732Y-98744643D01*
X98038519Y-98756976D01*
X98090256Y-98774623D01*
X98094413Y-98775860D01*
X98176558Y-98797137D01*
X98260974Y-98814571D01*
X98278405Y-98817423D01*
X98334973Y-98823601D01*
X98363025Y-98816304D01*
X98375469Y-98790792D01*
X98377663Y-98780966D01*
X98387858Y-98724790D01*
X98360980Y-98724790D01*
X98349730Y-98771245D01*
X98347324Y-98774432D01*
X98319910Y-98797471D01*
X98296046Y-98805264D01*
X98289678Y-98794534D01*
X98293323Y-98787118D01*
X98291129Y-98757904D01*
X98275972Y-98730086D01*
X98253367Y-98704891D01*
X98229681Y-98705143D01*
X98191602Y-98727705D01*
X98151873Y-98750688D01*
X98132465Y-98748813D01*
X98122969Y-98731033D01*
X98125022Y-98687251D01*
X98157506Y-98649235D01*
X98208519Y-98623071D01*
X98266157Y-98614846D01*
X98318520Y-98630646D01*
X98318856Y-98630866D01*
X98349226Y-98670622D01*
X98360980Y-98724790D01*
X98387858Y-98724790D01*
X98394242Y-98689619D01*
X98398296Y-98637705D01*
X98389789Y-98625706D01*
X98389316Y-98625981D01*
X98361908Y-98623188D01*
X98315836Y-98603239D01*
X98307954Y-98598883D01*
X98259830Y-98575609D01*
X98223834Y-98575593D01*
X98184372Y-98594019D01*
G37*
X98184372Y-98594019D02*
X98135227Y-98632422D01*
X98104939Y-98673587D01*
X98071741Y-98716335D01*
X98041685Y-98734304D01*
X98023732Y-98744643D01*
X98038519Y-98756976D01*
X98090256Y-98774623D01*
X98094413Y-98775860D01*
X98176558Y-98797137D01*
X98260974Y-98814571D01*
X98278405Y-98817423D01*
X98334973Y-98823601D01*
X98363025Y-98816304D01*
X98375469Y-98790792D01*
X98377663Y-98780966D01*
X98387858Y-98724790D01*
X98360980Y-98724790D01*
X98349730Y-98771245D01*
X98347324Y-98774432D01*
X98319910Y-98797471D01*
X98296046Y-98805264D01*
X98289678Y-98794534D01*
X98293323Y-98787118D01*
X98291129Y-98757904D01*
X98275972Y-98730086D01*
X98253367Y-98704891D01*
X98229681Y-98705143D01*
X98191602Y-98727705D01*
X98151873Y-98750688D01*
X98132465Y-98748813D01*
X98122969Y-98731033D01*
X98125022Y-98687251D01*
X98157506Y-98649235D01*
X98208519Y-98623071D01*
X98266157Y-98614846D01*
X98318520Y-98630646D01*
X98318856Y-98630866D01*
X98349226Y-98670622D01*
X98360980Y-98724790D01*
X98387858Y-98724790D01*
X98394242Y-98689619D01*
X98398296Y-98637705D01*
X98389789Y-98625706D01*
X98389316Y-98625981D01*
X98361908Y-98623188D01*
X98315836Y-98603239D01*
X98307954Y-98598883D01*
X98259830Y-98575609D01*
X98223834Y-98575593D01*
X98184372Y-98594019D01*
G36*
X98121982Y-98441917D02*
G01*
X98014841Y-98476041D01*
X97920004Y-98529289D01*
X97896123Y-98548427D01*
X97837111Y-98623429D01*
X97795102Y-98722699D01*
X97776924Y-98829412D01*
X97776667Y-98842769D01*
X97781152Y-98939254D01*
X97795844Y-99041353D01*
X97822598Y-99156746D01*
X97863269Y-99293114D01*
X97919712Y-99458137D01*
X97936644Y-99505155D01*
X97975857Y-99614544D01*
X98009340Y-99710562D01*
X98034620Y-99785905D01*
X98049224Y-99833269D01*
X98051833Y-99845280D01*
X98034139Y-99858745D01*
X97982018Y-99850113D01*
X97896912Y-99819772D01*
X97800749Y-99777684D01*
X97719717Y-99745430D01*
X97641407Y-99722902D01*
X97587782Y-99715333D01*
X97516001Y-99729077D01*
X97456468Y-99764502D01*
X97421342Y-99812896D01*
X97416722Y-99837866D01*
X97397200Y-99869263D01*
X97337621Y-99898708D01*
X97316493Y-99905833D01*
X97230049Y-99949313D01*
X97164803Y-100013482D01*
X97128492Y-100088806D01*
X97124380Y-100142573D01*
X97116284Y-100196799D01*
X97076674Y-100255304D01*
X97061623Y-100271480D01*
X96991505Y-100368277D01*
X96963334Y-100470685D01*
X96973185Y-100565162D01*
X97015321Y-100663087D01*
X97086157Y-100745238D01*
X97188142Y-100812831D01*
X97323723Y-100867083D01*
X97495349Y-100909213D01*
X97705469Y-100940436D01*
X97734333Y-100943609D01*
X97841008Y-100956909D01*
X97949048Y-100973634D01*
X98039731Y-100990793D01*
X98062417Y-100995983D01*
X98209461Y-101021927D01*
X98342368Y-101020840D01*
X98480213Y-100991936D01*
X98528083Y-100976818D01*
X98623363Y-100947077D01*
X98723241Y-100919459D01*
X98795671Y-100902249D01*
X98876258Y-100877786D01*
X98970526Y-100837965D01*
X99053804Y-100793827D01*
X99127506Y-100752860D01*
X99193219Y-100722416D01*
X99237971Y-100708426D01*
X99241299Y-100708135D01*
X99290453Y-100701969D01*
X99359833Y-100688628D01*
X99395917Y-100680361D01*
X99501750Y-100654619D01*
X99477306Y-100646667D01*
X99332417Y-100646667D01*
X99323401Y-100661006D01*
X99280075Y-100667652D01*
X99268917Y-100667833D01*
X99220090Y-100662892D01*
X99204147Y-100649782D01*
X99205417Y-100646667D01*
X99234667Y-100630132D01*
X99268917Y-100625500D01*
X99313240Y-100633490D01*
X99332417Y-100646667D01*
X99477306Y-100646667D01*
X99380042Y-100615027D01*
X99258333Y-100575435D01*
X99258333Y-100472076D01*
X99257960Y-100466719D01*
X99216965Y-100466719D01*
X99192071Y-100572818D01*
X99190521Y-100576497D01*
X99165042Y-100636083D01*
X99157334Y-100566007D01*
X99145639Y-100514940D01*
X99129685Y-100500654D01*
X99114759Y-100518688D01*
X99106149Y-100564578D01*
X99106558Y-100608856D01*
X99107725Y-100671477D01*
X99094824Y-100710052D01*
X99060801Y-100742284D01*
X99050374Y-100749860D01*
X98997083Y-100784406D01*
X98969985Y-100788650D01*
X98962975Y-100759657D01*
X98967782Y-100710167D01*
X98971132Y-100651984D01*
X98958122Y-100627653D01*
X98925256Y-100630692D01*
X98924958Y-100630792D01*
X98916642Y-100653023D01*
X98914865Y-100702375D01*
X98916086Y-100723735D01*
X98914592Y-100789437D01*
X98899115Y-100825943D01*
X98896767Y-100827654D01*
X98861093Y-100842441D01*
X98809962Y-100856816D01*
X98761339Y-100866511D01*
X98733189Y-100867260D01*
X98732258Y-100866731D01*
X98732236Y-100865389D01*
X98700945Y-100865389D01*
X98698039Y-100877972D01*
X98686833Y-100879500D01*
X98669411Y-100871755D01*
X98672722Y-100865389D01*
X98697842Y-100862855D01*
X98700945Y-100865389D01*
X98732236Y-100865389D01*
X98731892Y-100844719D01*
X98737289Y-100790770D01*
X98747376Y-100714726D01*
X98752877Y-100677754D01*
X98780987Y-100494520D01*
X98866202Y-100451895D01*
X98938345Y-100408582D01*
X99005567Y-100355972D01*
X99058308Y-100302891D01*
X99087010Y-100258163D01*
X99089621Y-100245639D01*
X99101170Y-100236026D01*
X99134771Y-100262544D01*
X99153121Y-100281875D01*
X99203659Y-100367193D01*
X99216965Y-100466719D01*
X99257960Y-100466719D01*
X99252481Y-100388129D01*
X99230437Y-100319648D01*
X99185467Y-100250234D01*
X99149396Y-100206722D01*
X99133472Y-100185710D01*
X99067833Y-100185710D01*
X99057987Y-100217461D01*
X99046667Y-100223333D01*
X99030755Y-100205219D01*
X99025500Y-100170417D01*
X99016144Y-100127909D01*
X98993820Y-100118881D01*
X98971444Y-100140511D01*
X98971459Y-100173451D01*
X98980778Y-100187077D01*
X99005891Y-100238346D01*
X98997196Y-100297524D01*
X98957835Y-100351865D01*
X98936098Y-100368213D01*
X98891067Y-100394510D01*
X98864356Y-100405924D01*
X98862046Y-100405601D01*
X98856572Y-100382788D01*
X98850989Y-100334924D01*
X98850495Y-100329061D01*
X98839613Y-100278558D01*
X98820817Y-100250544D01*
X98818884Y-100249711D01*
X98803923Y-100255965D01*
X98801432Y-100293055D01*
X98806298Y-100338043D01*
X98811702Y-100403856D01*
X98806570Y-100432151D01*
X98794017Y-100425484D01*
X98777156Y-100386409D01*
X98759100Y-100317482D01*
X98754734Y-100295724D01*
X98728314Y-100156448D01*
X98788747Y-100099932D01*
X98816113Y-100071124D01*
X98707676Y-100071124D01*
X98704251Y-100094812D01*
X98689618Y-100079426D01*
X98686833Y-100075167D01*
X98668864Y-100038972D01*
X98665991Y-100026292D01*
X98678948Y-100018609D01*
X98686833Y-100022250D01*
X98705251Y-100052457D01*
X98707676Y-100071124D01*
X98816113Y-100071124D01*
X98830515Y-100055964D01*
X98856646Y-100019408D01*
X98858898Y-100014160D01*
X98881012Y-99996905D01*
X98919617Y-100006689D01*
X98966114Y-100036456D01*
X99011906Y-100079144D01*
X99048397Y-100127697D01*
X99066989Y-100175054D01*
X99067833Y-100185710D01*
X99133472Y-100185710D01*
X99112029Y-100157418D01*
X99090821Y-100117248D01*
X99089000Y-100108062D01*
X99072776Y-100075262D01*
X99032554Y-100032590D01*
X98981011Y-99991318D01*
X98930825Y-99962718D01*
X98921885Y-99959454D01*
X98910058Y-99949869D01*
X98835167Y-99949869D01*
X98807514Y-100019979D01*
X98801802Y-100028478D01*
X98767514Y-100059659D01*
X98740909Y-100057082D01*
X98733113Y-100023988D01*
X98735919Y-100009299D01*
X98734045Y-99967636D01*
X98708250Y-99953716D01*
X98678033Y-99967854D01*
X98654737Y-99975440D01*
X98633635Y-99949743D01*
X98623194Y-99926664D01*
X98607172Y-99873610D01*
X98618939Y-99845615D01*
X98664007Y-99836065D01*
X98698685Y-99836079D01*
X98777773Y-99852359D01*
X98824260Y-99892142D01*
X98835167Y-99949869D01*
X98910058Y-99949869D01*
X98886299Y-99930614D01*
X98868101Y-99893096D01*
X98836072Y-99843949D01*
X98775675Y-99806758D01*
X98700467Y-99787627D01*
X98638093Y-99789543D01*
X98570417Y-99801754D01*
X98450356Y-99541251D01*
X98404608Y-99440146D01*
X98364662Y-99348430D01*
X98334366Y-99275186D01*
X98317570Y-99229495D01*
X98316264Y-99224845D01*
X98311877Y-99158947D01*
X98339422Y-99111499D01*
X98402447Y-99078740D01*
X98469455Y-99062557D01*
X98539265Y-99051310D01*
X98581565Y-99051114D01*
X98610277Y-99064335D01*
X98637299Y-99091090D01*
X98669761Y-99138884D01*
X98705650Y-99209153D01*
X98728651Y-99264501D01*
X98758428Y-99338882D01*
X98787877Y-99403341D01*
X98805133Y-99434875D01*
X98835137Y-99469914D01*
X98859465Y-99481920D01*
X98868326Y-99468243D01*
X98863821Y-99450750D01*
X98864456Y-99423550D01*
X98874431Y-99419000D01*
X98878088Y-99403888D01*
X98860361Y-99365877D01*
X98848221Y-99346789D01*
X98810791Y-99278651D01*
X98778587Y-99198928D01*
X98772440Y-99178940D01*
X98746788Y-99110024D01*
X98714607Y-99051989D01*
X98703537Y-99038085D01*
X98675904Y-99004922D01*
X98668830Y-98988975D01*
X98690867Y-98977718D01*
X98734654Y-98955487D01*
X98739750Y-98952904D01*
X98792611Y-98911599D01*
X98836646Y-98853886D01*
X98839853Y-98847813D01*
X98861277Y-98777766D01*
X98856893Y-98763514D01*
X98819288Y-98763514D01*
X98808138Y-98781615D01*
X98763776Y-98791810D01*
X98728453Y-98792756D01*
X98668396Y-98797280D01*
X98645089Y-98815151D01*
X98644500Y-98820174D01*
X98655285Y-98838325D01*
X98693381Y-98839498D01*
X98721303Y-98835010D01*
X98773807Y-98831951D01*
X98790810Y-98846284D01*
X98773094Y-98873591D01*
X98721438Y-98909453D01*
X98706740Y-98917453D01*
X98633610Y-98939860D01*
X98538415Y-98948009D01*
X98439042Y-98941639D01*
X98358750Y-98922529D01*
X98331779Y-98914427D01*
X98341202Y-98924993D01*
X98348167Y-98930175D01*
X98388336Y-98950840D01*
X98448354Y-98973176D01*
X98464583Y-98978176D01*
X98549250Y-99003007D01*
X98443417Y-99019486D01*
X98352137Y-99045646D01*
X98294604Y-99091787D01*
X98270170Y-99160021D01*
X98278184Y-99252458D01*
X98317996Y-99371211D01*
X98327990Y-99394418D01*
X98369409Y-99488051D01*
X98296939Y-99476291D01*
X98238339Y-99474480D01*
X98213693Y-99492612D01*
X98209647Y-99522436D01*
X98232008Y-99534989D01*
X98287222Y-99532947D01*
X98305435Y-99530669D01*
X98356888Y-99526580D01*
X98388223Y-99538174D01*
X98414474Y-99574478D01*
X98431100Y-99606102D01*
X98457520Y-99660747D01*
X98473251Y-99698800D01*
X98475167Y-99706694D01*
X98456615Y-99713059D01*
X98410204Y-99711803D01*
X98390504Y-99709552D01*
X98333105Y-99707171D01*
X98296717Y-99715705D01*
X98292542Y-99719714D01*
X98293318Y-99746072D01*
X98319128Y-99762665D01*
X98352683Y-99760735D01*
X98362052Y-99754926D01*
X98401229Y-99741110D01*
X98445539Y-99740262D01*
X98487377Y-99754453D01*
X98519493Y-99792201D01*
X98541875Y-99838628D01*
X98580612Y-99930173D01*
X98480264Y-99924002D01*
X98416603Y-99923343D01*
X98386092Y-99932962D01*
X98379917Y-99948874D01*
X98389665Y-99967291D01*
X98424574Y-99974558D01*
X98488089Y-99972897D01*
X98552137Y-99970180D01*
X98587985Y-99977705D01*
X98609669Y-100002862D01*
X98628793Y-100046980D01*
X98647813Y-100099977D01*
X98648852Y-100128112D01*
X98631999Y-100144805D01*
X98629448Y-100146296D01*
X98588773Y-100154956D01*
X98528776Y-100153209D01*
X98515202Y-100151338D01*
X98460075Y-100146148D01*
X98436109Y-100155500D01*
X98432833Y-100168917D01*
X98444205Y-100203392D01*
X98468202Y-100214969D01*
X98485537Y-100202512D01*
X98513197Y-100189235D01*
X98566662Y-100181669D01*
X98589482Y-100181000D01*
X98646942Y-100183551D01*
X98677678Y-100198799D01*
X98696886Y-100238136D01*
X98706389Y-100268634D01*
X98720926Y-100327123D01*
X98718907Y-100359285D01*
X98704447Y-100375135D01*
X98664064Y-100385335D01*
X98599674Y-100385879D01*
X98528380Y-100377209D01*
X98496333Y-100369792D01*
X98468844Y-100377529D01*
X98464583Y-100392667D01*
X98472613Y-100410090D01*
X98502327Y-100418278D01*
X98562164Y-100418794D01*
X98596875Y-100417177D01*
X98729167Y-100409938D01*
X98729167Y-100610129D01*
X98591583Y-100599085D01*
X98514104Y-100594911D01*
X98470961Y-100598602D01*
X98454733Y-100611093D01*
X98454000Y-100616387D01*
X98469272Y-100633939D01*
X98518135Y-100645280D01*
X98591598Y-100650991D01*
X98729196Y-100657250D01*
X98692140Y-100731333D01*
X98658641Y-100782552D01*
X98613238Y-100811072D01*
X98562631Y-100824825D01*
X98485044Y-100833822D01*
X98433156Y-100820994D01*
X98429478Y-100818816D01*
X98386849Y-100804519D01*
X98357366Y-100814681D01*
X98353688Y-100843147D01*
X98378833Y-100856300D01*
X98437856Y-100861632D01*
X98481805Y-100860839D01*
X98546741Y-100859372D01*
X98590442Y-100861334D01*
X98602167Y-100864948D01*
X98583130Y-100890339D01*
X98533826Y-100917563D01*
X98465963Y-100942971D01*
X98391250Y-100962909D01*
X98321397Y-100973729D01*
X98268113Y-100971778D01*
X98263500Y-100970546D01*
X98224274Y-100963037D01*
X98161555Y-100955180D01*
X98129485Y-100952116D01*
X98064963Y-100944388D01*
X98017725Y-100934745D01*
X98005858Y-100930166D01*
X98006565Y-100908839D01*
X98033007Y-100868546D01*
X98058166Y-100840023D01*
X98110772Y-100777989D01*
X98155773Y-100713161D01*
X98167693Y-100691910D01*
X98203236Y-100582144D01*
X98204188Y-100572155D01*
X98157667Y-100572155D01*
X98150493Y-100596301D01*
X98132463Y-100644951D01*
X98123619Y-100667405D01*
X98090304Y-100729051D01*
X98053897Y-100752131D01*
X98048109Y-100752500D01*
X98017966Y-100762132D01*
X98019295Y-100792350D01*
X98016709Y-100827956D01*
X97980919Y-100864169D01*
X97962514Y-100876638D01*
X97903430Y-100908317D01*
X97868957Y-100907782D01*
X97853413Y-100872386D01*
X97850750Y-100824610D01*
X97845252Y-100766484D01*
X97827134Y-100743104D01*
X97819000Y-100741917D01*
X97798061Y-100753489D01*
X97792549Y-100793811D01*
X97794197Y-100821292D01*
X97796472Y-100873143D01*
X97783488Y-100895393D01*
X97744134Y-100900570D01*
X97723787Y-100900667D01*
X97646430Y-100900667D01*
X97652925Y-100810708D01*
X97653367Y-100751210D01*
X97641788Y-100724515D01*
X97628160Y-100720750D01*
X97607485Y-100732820D01*
X97602186Y-100774377D01*
X97603738Y-100800125D01*
X97604907Y-100852675D01*
X97592646Y-100875251D01*
X97568000Y-100879500D01*
X97485984Y-100866785D01*
X97434244Y-100830510D01*
X97416833Y-100775440D01*
X97423416Y-100726283D01*
X97438345Y-100699370D01*
X97450575Y-100675881D01*
X97432684Y-100653461D01*
X97405406Y-100646667D01*
X97387521Y-100656161D01*
X97383180Y-100690590D01*
X97388365Y-100741917D01*
X97394030Y-100802919D01*
X97383920Y-100830895D01*
X97350047Y-100831636D01*
X97290340Y-100813005D01*
X97250596Y-100797232D01*
X97231299Y-100777510D01*
X97227123Y-100741118D01*
X97232735Y-100675421D01*
X97237124Y-100606112D01*
X97231277Y-100570792D01*
X97216675Y-100562000D01*
X97198187Y-100578751D01*
X97191759Y-100631490D01*
X97192114Y-100657250D01*
X97192453Y-100720297D01*
X97183820Y-100746766D01*
X97160138Y-100742316D01*
X97125210Y-100719550D01*
X97093090Y-100685312D01*
X97079661Y-100633171D01*
X97078167Y-100593799D01*
X97082680Y-100534304D01*
X97094028Y-100494464D01*
X97099679Y-100487703D01*
X97112126Y-100464396D01*
X97093953Y-100442268D01*
X97064070Y-100435000D01*
X97040739Y-100448070D01*
X97041223Y-100461458D01*
X97042132Y-100501531D01*
X97034392Y-100530250D01*
X97023494Y-100548822D01*
X97017878Y-100531084D01*
X97016155Y-100492157D01*
X97029345Y-100398391D01*
X97067446Y-100313822D01*
X97107105Y-100268000D01*
X97130559Y-100257576D01*
X97159542Y-100268868D01*
X97203351Y-100306495D01*
X97222487Y-100325320D01*
X97316988Y-100396484D01*
X97444648Y-100458149D01*
X97596862Y-100507734D01*
X97765026Y-100542656D01*
X97940533Y-100560335D01*
X98011362Y-100562000D01*
X98083885Y-100563344D01*
X98136224Y-100566878D01*
X98157603Y-100571855D01*
X98157667Y-100572155D01*
X98204188Y-100572155D01*
X98216430Y-100443819D01*
X98177162Y-100443819D01*
X98173271Y-100471273D01*
X98166045Y-100471601D01*
X98160992Y-100443271D01*
X98164374Y-100431031D01*
X98173773Y-100423014D01*
X98177162Y-100443819D01*
X98216430Y-100443819D01*
X98216516Y-100442918D01*
X98210081Y-100320207D01*
X98180248Y-100320207D01*
X98167823Y-100358732D01*
X98139750Y-100376783D01*
X98112843Y-100394355D01*
X98108170Y-100434740D01*
X98110403Y-100453335D01*
X98114405Y-100493470D01*
X98104075Y-100512895D01*
X98069243Y-100519128D01*
X98020666Y-100519667D01*
X97921193Y-100519667D01*
X97928305Y-100429708D01*
X97929292Y-100370576D01*
X97918269Y-100343878D01*
X97903667Y-100339750D01*
X97883623Y-100350199D01*
X97877142Y-100387411D01*
X97879029Y-100429708D01*
X97881164Y-100486229D01*
X97869475Y-100512590D01*
X97834374Y-100516038D01*
X97777905Y-100506156D01*
X97735166Y-100494376D01*
X97717093Y-100472918D01*
X97715183Y-100427858D01*
X97716621Y-100405821D01*
X97716593Y-100346763D01*
X97703183Y-100318549D01*
X97688132Y-100312304D01*
X97666705Y-100314681D01*
X97660159Y-100339736D01*
X97664891Y-100391471D01*
X97669848Y-100445277D01*
X97659887Y-100470685D01*
X97625998Y-100474220D01*
X97565253Y-100463625D01*
X97524505Y-100453360D01*
X97505644Y-100435747D01*
X97502369Y-100398283D01*
X97506584Y-100347209D01*
X97509632Y-100282073D01*
X97501620Y-100250586D01*
X97487810Y-100244500D01*
X97466896Y-100263604D01*
X97459222Y-100321729D01*
X97459167Y-100329167D01*
X97451833Y-100390540D01*
X97428154Y-100413444D01*
X97385609Y-100399421D01*
X97365980Y-100386209D01*
X97333387Y-100337846D01*
X97327209Y-100266498D01*
X97340591Y-100205513D01*
X97347958Y-100169699D01*
X97330651Y-100161647D01*
X97318434Y-100163450D01*
X97293081Y-100177083D01*
X97284113Y-100212297D01*
X97285284Y-100255354D01*
X97291121Y-100339750D01*
X97237561Y-100280361D01*
X97194891Y-100208360D01*
X97180791Y-100127589D01*
X97195245Y-100051425D01*
X97237911Y-99993500D01*
X97298153Y-99957742D01*
X97354759Y-99937270D01*
X97401886Y-99933823D01*
X97441572Y-99953094D01*
X97478377Y-99988405D01*
X97527559Y-100029467D01*
X97600830Y-100077353D01*
X97683279Y-100122418D01*
X97692477Y-100126888D01*
X97770171Y-100162034D01*
X97843933Y-100189654D01*
X97925849Y-100213341D01*
X98028005Y-100236686D01*
X98131208Y-100257296D01*
X98167626Y-100280558D01*
X98180248Y-100320207D01*
X98210081Y-100320207D01*
X98207998Y-100280488D01*
X98195933Y-100207986D01*
X98155336Y-100207986D01*
X98140654Y-100214895D01*
X98136500Y-100212750D01*
X98119591Y-100183266D01*
X98115658Y-100153292D01*
X98119023Y-100123097D01*
X98131699Y-100131545D01*
X98136500Y-100138667D01*
X98153952Y-100178001D01*
X98155336Y-100207986D01*
X98195933Y-100207986D01*
X98178147Y-100101107D01*
X98158913Y-100029023D01*
X98110260Y-100029023D01*
X98096817Y-100049589D01*
X98081003Y-100073890D01*
X98073180Y-100123223D01*
X98073000Y-100132493D01*
X98070559Y-100181935D01*
X98055431Y-100199594D01*
X98015913Y-100196008D01*
X98004870Y-100193832D01*
X97950995Y-100178146D01*
X97915810Y-100159268D01*
X97915442Y-100158908D01*
X97907098Y-100123636D01*
X97918826Y-100098087D01*
X97932934Y-100056016D01*
X97910727Y-100034993D01*
X97890085Y-100032833D01*
X97872046Y-100047367D01*
X97874694Y-100094317D01*
X97875092Y-100096333D01*
X97882148Y-100138495D01*
X97875349Y-100155521D01*
X97846190Y-100150436D01*
X97788352Y-100127179D01*
X97738553Y-100102871D01*
X97719711Y-100077918D01*
X97722530Y-100038572D01*
X97723949Y-100031929D01*
X97728865Y-99986669D01*
X97713821Y-99970181D01*
X97704265Y-99969333D01*
X97677073Y-99987524D01*
X97670833Y-100023447D01*
X97670833Y-100077560D01*
X97605998Y-100039322D01*
X97562705Y-100008017D01*
X97549390Y-99973843D01*
X97554041Y-99932292D01*
X97558576Y-99883734D01*
X97545307Y-99864913D01*
X97534209Y-99863500D01*
X97507400Y-99881579D01*
X97501176Y-99911125D01*
X97497834Y-99942053D01*
X97485384Y-99934449D01*
X97480333Y-99927000D01*
X97460489Y-99865371D01*
X97476881Y-99810395D01*
X97523496Y-99771404D01*
X97589423Y-99757667D01*
X97640849Y-99766122D01*
X97714425Y-99788290D01*
X97794229Y-99819373D01*
X97794286Y-99819398D01*
X97877354Y-99852953D01*
X97957045Y-99880540D01*
X98013577Y-99895609D01*
X98068318Y-99911699D01*
X98095653Y-99941387D01*
X98106186Y-99975869D01*
X98110260Y-100029023D01*
X98158913Y-100029023D01*
X98127429Y-99911032D01*
X98104552Y-99842333D01*
X98069044Y-99740982D01*
X98025271Y-99615943D01*
X97978931Y-99483492D01*
X97937878Y-99366083D01*
X97878739Y-99182713D01*
X97841072Y-99030353D01*
X97824196Y-98903937D01*
X97827432Y-98798401D01*
X97849727Y-98709650D01*
X97909261Y-98606134D01*
X97995943Y-98534961D01*
X98108727Y-98496894D01*
X98147633Y-98492033D01*
X98250261Y-98488937D01*
X98328051Y-98502979D01*
X98396739Y-98539228D01*
X98461839Y-98593230D01*
X98571379Y-98670112D01*
X98656379Y-98700831D01*
X98723599Y-98718239D01*
X98776599Y-98734705D01*
X98792667Y-98741167D01*
X98819288Y-98763514D01*
X98856893Y-98763514D01*
X98845211Y-98725545D01*
X98790761Y-98689770D01*
X98726694Y-98673321D01*
X98633697Y-98652580D01*
X98563445Y-98627072D01*
X98523571Y-98599996D01*
X98517356Y-98585640D01*
X98499772Y-98557742D01*
X98454770Y-98520483D01*
X98393598Y-98481736D01*
X98327504Y-98449375D01*
X98316417Y-98445010D01*
X98227237Y-98430410D01*
X98121982Y-98441917D01*
G37*
X98121982Y-98441917D02*
X98014841Y-98476041D01*
X97920004Y-98529289D01*
X97896123Y-98548427D01*
X97837111Y-98623429D01*
X97795102Y-98722699D01*
X97776924Y-98829412D01*
X97776667Y-98842769D01*
X97781152Y-98939254D01*
X97795844Y-99041353D01*
X97822598Y-99156746D01*
X97863269Y-99293114D01*
X97919712Y-99458137D01*
X97936644Y-99505155D01*
X97975857Y-99614544D01*
X98009340Y-99710562D01*
X98034620Y-99785905D01*
X98049224Y-99833269D01*
X98051833Y-99845280D01*
X98034139Y-99858745D01*
X97982018Y-99850113D01*
X97896912Y-99819772D01*
X97800749Y-99777684D01*
X97719717Y-99745430D01*
X97641407Y-99722902D01*
X97587782Y-99715333D01*
X97516001Y-99729077D01*
X97456468Y-99764502D01*
X97421342Y-99812896D01*
X97416722Y-99837866D01*
X97397200Y-99869263D01*
X97337621Y-99898708D01*
X97316493Y-99905833D01*
X97230049Y-99949313D01*
X97164803Y-100013482D01*
X97128492Y-100088806D01*
X97124380Y-100142573D01*
X97116284Y-100196799D01*
X97076674Y-100255304D01*
X97061623Y-100271480D01*
X96991505Y-100368277D01*
X96963334Y-100470685D01*
X96973185Y-100565162D01*
X97015321Y-100663087D01*
X97086157Y-100745238D01*
X97188142Y-100812831D01*
X97323723Y-100867083D01*
X97495349Y-100909213D01*
X97705469Y-100940436D01*
X97734333Y-100943609D01*
X97841008Y-100956909D01*
X97949048Y-100973634D01*
X98039731Y-100990793D01*
X98062417Y-100995983D01*
X98209461Y-101021927D01*
X98342368Y-101020840D01*
X98480213Y-100991936D01*
X98528083Y-100976818D01*
X98623363Y-100947077D01*
X98723241Y-100919459D01*
X98795671Y-100902249D01*
X98876258Y-100877786D01*
X98970526Y-100837965D01*
X99053804Y-100793827D01*
X99127506Y-100752860D01*
X99193219Y-100722416D01*
X99237971Y-100708426D01*
X99241299Y-100708135D01*
X99290453Y-100701969D01*
X99359833Y-100688628D01*
X99395917Y-100680361D01*
X99501750Y-100654619D01*
X99477306Y-100646667D01*
X99332417Y-100646667D01*
X99323401Y-100661006D01*
X99280075Y-100667652D01*
X99268917Y-100667833D01*
X99220090Y-100662892D01*
X99204147Y-100649782D01*
X99205417Y-100646667D01*
X99234667Y-100630132D01*
X99268917Y-100625500D01*
X99313240Y-100633490D01*
X99332417Y-100646667D01*
X99477306Y-100646667D01*
X99380042Y-100615027D01*
X99258333Y-100575435D01*
X99258333Y-100472076D01*
X99257960Y-100466719D01*
X99216965Y-100466719D01*
X99192071Y-100572818D01*
X99190521Y-100576497D01*
X99165042Y-100636083D01*
X99157334Y-100566007D01*
X99145639Y-100514940D01*
X99129685Y-100500654D01*
X99114759Y-100518688D01*
X99106149Y-100564578D01*
X99106558Y-100608856D01*
X99107725Y-100671477D01*
X99094824Y-100710052D01*
X99060801Y-100742284D01*
X99050374Y-100749860D01*
X98997083Y-100784406D01*
X98969985Y-100788650D01*
X98962975Y-100759657D01*
X98967782Y-100710167D01*
X98971132Y-100651984D01*
X98958122Y-100627653D01*
X98925256Y-100630692D01*
X98924958Y-100630792D01*
X98916642Y-100653023D01*
X98914865Y-100702375D01*
X98916086Y-100723735D01*
X98914592Y-100789437D01*
X98899115Y-100825943D01*
X98896767Y-100827654D01*
X98861093Y-100842441D01*
X98809962Y-100856816D01*
X98761339Y-100866511D01*
X98733189Y-100867260D01*
X98732258Y-100866731D01*
X98732236Y-100865389D01*
X98700945Y-100865389D01*
X98698039Y-100877972D01*
X98686833Y-100879500D01*
X98669411Y-100871755D01*
X98672722Y-100865389D01*
X98697842Y-100862855D01*
X98700945Y-100865389D01*
X98732236Y-100865389D01*
X98731892Y-100844719D01*
X98737289Y-100790770D01*
X98747376Y-100714726D01*
X98752877Y-100677754D01*
X98780987Y-100494520D01*
X98866202Y-100451895D01*
X98938345Y-100408582D01*
X99005567Y-100355972D01*
X99058308Y-100302891D01*
X99087010Y-100258163D01*
X99089621Y-100245639D01*
X99101170Y-100236026D01*
X99134771Y-100262544D01*
X99153121Y-100281875D01*
X99203659Y-100367193D01*
X99216965Y-100466719D01*
X99257960Y-100466719D01*
X99252481Y-100388129D01*
X99230437Y-100319648D01*
X99185467Y-100250234D01*
X99149396Y-100206722D01*
X99133472Y-100185710D01*
X99067833Y-100185710D01*
X99057987Y-100217461D01*
X99046667Y-100223333D01*
X99030755Y-100205219D01*
X99025500Y-100170417D01*
X99016144Y-100127909D01*
X98993820Y-100118881D01*
X98971444Y-100140511D01*
X98971459Y-100173451D01*
X98980778Y-100187077D01*
X99005891Y-100238346D01*
X98997196Y-100297524D01*
X98957835Y-100351865D01*
X98936098Y-100368213D01*
X98891067Y-100394510D01*
X98864356Y-100405924D01*
X98862046Y-100405601D01*
X98856572Y-100382788D01*
X98850989Y-100334924D01*
X98850495Y-100329061D01*
X98839613Y-100278558D01*
X98820817Y-100250544D01*
X98818884Y-100249711D01*
X98803923Y-100255965D01*
X98801432Y-100293055D01*
X98806298Y-100338043D01*
X98811702Y-100403856D01*
X98806570Y-100432151D01*
X98794017Y-100425484D01*
X98777156Y-100386409D01*
X98759100Y-100317482D01*
X98754734Y-100295724D01*
X98728314Y-100156448D01*
X98788747Y-100099932D01*
X98816113Y-100071124D01*
X98707676Y-100071124D01*
X98704251Y-100094812D01*
X98689618Y-100079426D01*
X98686833Y-100075167D01*
X98668864Y-100038972D01*
X98665991Y-100026292D01*
X98678948Y-100018609D01*
X98686833Y-100022250D01*
X98705251Y-100052457D01*
X98707676Y-100071124D01*
X98816113Y-100071124D01*
X98830515Y-100055964D01*
X98856646Y-100019408D01*
X98858898Y-100014160D01*
X98881012Y-99996905D01*
X98919617Y-100006689D01*
X98966114Y-100036456D01*
X99011906Y-100079144D01*
X99048397Y-100127697D01*
X99066989Y-100175054D01*
X99067833Y-100185710D01*
X99133472Y-100185710D01*
X99112029Y-100157418D01*
X99090821Y-100117248D01*
X99089000Y-100108062D01*
X99072776Y-100075262D01*
X99032554Y-100032590D01*
X98981011Y-99991318D01*
X98930825Y-99962718D01*
X98921885Y-99959454D01*
X98910058Y-99949869D01*
X98835167Y-99949869D01*
X98807514Y-100019979D01*
X98801802Y-100028478D01*
X98767514Y-100059659D01*
X98740909Y-100057082D01*
X98733113Y-100023988D01*
X98735919Y-100009299D01*
X98734045Y-99967636D01*
X98708250Y-99953716D01*
X98678033Y-99967854D01*
X98654737Y-99975440D01*
X98633635Y-99949743D01*
X98623194Y-99926664D01*
X98607172Y-99873610D01*
X98618939Y-99845615D01*
X98664007Y-99836065D01*
X98698685Y-99836079D01*
X98777773Y-99852359D01*
X98824260Y-99892142D01*
X98835167Y-99949869D01*
X98910058Y-99949869D01*
X98886299Y-99930614D01*
X98868101Y-99893096D01*
X98836072Y-99843949D01*
X98775675Y-99806758D01*
X98700467Y-99787627D01*
X98638093Y-99789543D01*
X98570417Y-99801754D01*
X98450356Y-99541251D01*
X98404608Y-99440146D01*
X98364662Y-99348430D01*
X98334366Y-99275186D01*
X98317570Y-99229495D01*
X98316264Y-99224845D01*
X98311877Y-99158947D01*
X98339422Y-99111499D01*
X98402447Y-99078740D01*
X98469455Y-99062557D01*
X98539265Y-99051310D01*
X98581565Y-99051114D01*
X98610277Y-99064335D01*
X98637299Y-99091090D01*
X98669761Y-99138884D01*
X98705650Y-99209153D01*
X98728651Y-99264501D01*
X98758428Y-99338882D01*
X98787877Y-99403341D01*
X98805133Y-99434875D01*
X98835137Y-99469914D01*
X98859465Y-99481920D01*
X98868326Y-99468243D01*
X98863821Y-99450750D01*
X98864456Y-99423550D01*
X98874431Y-99419000D01*
X98878088Y-99403888D01*
X98860361Y-99365877D01*
X98848221Y-99346789D01*
X98810791Y-99278651D01*
X98778587Y-99198928D01*
X98772440Y-99178940D01*
X98746788Y-99110024D01*
X98714607Y-99051989D01*
X98703537Y-99038085D01*
X98675904Y-99004922D01*
X98668830Y-98988975D01*
X98690867Y-98977718D01*
X98734654Y-98955487D01*
X98739750Y-98952904D01*
X98792611Y-98911599D01*
X98836646Y-98853886D01*
X98839853Y-98847813D01*
X98861277Y-98777766D01*
X98856893Y-98763514D01*
X98819288Y-98763514D01*
X98808138Y-98781615D01*
X98763776Y-98791810D01*
X98728453Y-98792756D01*
X98668396Y-98797280D01*
X98645089Y-98815151D01*
X98644500Y-98820174D01*
X98655285Y-98838325D01*
X98693381Y-98839498D01*
X98721303Y-98835010D01*
X98773807Y-98831951D01*
X98790810Y-98846284D01*
X98773094Y-98873591D01*
X98721438Y-98909453D01*
X98706740Y-98917453D01*
X98633610Y-98939860D01*
X98538415Y-98948009D01*
X98439042Y-98941639D01*
X98358750Y-98922529D01*
X98331779Y-98914427D01*
X98341202Y-98924993D01*
X98348167Y-98930175D01*
X98388336Y-98950840D01*
X98448354Y-98973176D01*
X98464583Y-98978176D01*
X98549250Y-99003007D01*
X98443417Y-99019486D01*
X98352137Y-99045646D01*
X98294604Y-99091787D01*
X98270170Y-99160021D01*
X98278184Y-99252458D01*
X98317996Y-99371211D01*
X98327990Y-99394418D01*
X98369409Y-99488051D01*
X98296939Y-99476291D01*
X98238339Y-99474480D01*
X98213693Y-99492612D01*
X98209647Y-99522436D01*
X98232008Y-99534989D01*
X98287222Y-99532947D01*
X98305435Y-99530669D01*
X98356888Y-99526580D01*
X98388223Y-99538174D01*
X98414474Y-99574478D01*
X98431100Y-99606102D01*
X98457520Y-99660747D01*
X98473251Y-99698800D01*
X98475167Y-99706694D01*
X98456615Y-99713059D01*
X98410204Y-99711803D01*
X98390504Y-99709552D01*
X98333105Y-99707171D01*
X98296717Y-99715705D01*
X98292542Y-99719714D01*
X98293318Y-99746072D01*
X98319128Y-99762665D01*
X98352683Y-99760735D01*
X98362052Y-99754926D01*
X98401229Y-99741110D01*
X98445539Y-99740262D01*
X98487377Y-99754453D01*
X98519493Y-99792201D01*
X98541875Y-99838628D01*
X98580612Y-99930173D01*
X98480264Y-99924002D01*
X98416603Y-99923343D01*
X98386092Y-99932962D01*
X98379917Y-99948874D01*
X98389665Y-99967291D01*
X98424574Y-99974558D01*
X98488089Y-99972897D01*
X98552137Y-99970180D01*
X98587985Y-99977705D01*
X98609669Y-100002862D01*
X98628793Y-100046980D01*
X98647813Y-100099977D01*
X98648852Y-100128112D01*
X98631999Y-100144805D01*
X98629448Y-100146296D01*
X98588773Y-100154956D01*
X98528776Y-100153209D01*
X98515202Y-100151338D01*
X98460075Y-100146148D01*
X98436109Y-100155500D01*
X98432833Y-100168917D01*
X98444205Y-100203392D01*
X98468202Y-100214969D01*
X98485537Y-100202512D01*
X98513197Y-100189235D01*
X98566662Y-100181669D01*
X98589482Y-100181000D01*
X98646942Y-100183551D01*
X98677678Y-100198799D01*
X98696886Y-100238136D01*
X98706389Y-100268634D01*
X98720926Y-100327123D01*
X98718907Y-100359285D01*
X98704447Y-100375135D01*
X98664064Y-100385335D01*
X98599674Y-100385879D01*
X98528380Y-100377209D01*
X98496333Y-100369792D01*
X98468844Y-100377529D01*
X98464583Y-100392667D01*
X98472613Y-100410090D01*
X98502327Y-100418278D01*
X98562164Y-100418794D01*
X98596875Y-100417177D01*
X98729167Y-100409938D01*
X98729167Y-100610129D01*
X98591583Y-100599085D01*
X98514104Y-100594911D01*
X98470961Y-100598602D01*
X98454733Y-100611093D01*
X98454000Y-100616387D01*
X98469272Y-100633939D01*
X98518135Y-100645280D01*
X98591598Y-100650991D01*
X98729196Y-100657250D01*
X98692140Y-100731333D01*
X98658641Y-100782552D01*
X98613238Y-100811072D01*
X98562631Y-100824825D01*
X98485044Y-100833822D01*
X98433156Y-100820994D01*
X98429478Y-100818816D01*
X98386849Y-100804519D01*
X98357366Y-100814681D01*
X98353688Y-100843147D01*
X98378833Y-100856300D01*
X98437856Y-100861632D01*
X98481805Y-100860839D01*
X98546741Y-100859372D01*
X98590442Y-100861334D01*
X98602167Y-100864948D01*
X98583130Y-100890339D01*
X98533826Y-100917563D01*
X98465963Y-100942971D01*
X98391250Y-100962909D01*
X98321397Y-100973729D01*
X98268113Y-100971778D01*
X98263500Y-100970546D01*
X98224274Y-100963037D01*
X98161555Y-100955180D01*
X98129485Y-100952116D01*
X98064963Y-100944388D01*
X98017725Y-100934745D01*
X98005858Y-100930166D01*
X98006565Y-100908839D01*
X98033007Y-100868546D01*
X98058166Y-100840023D01*
X98110772Y-100777989D01*
X98155773Y-100713161D01*
X98167693Y-100691910D01*
X98203236Y-100582144D01*
X98204188Y-100572155D01*
X98157667Y-100572155D01*
X98150493Y-100596301D01*
X98132463Y-100644951D01*
X98123619Y-100667405D01*
X98090304Y-100729051D01*
X98053897Y-100752131D01*
X98048109Y-100752500D01*
X98017966Y-100762132D01*
X98019295Y-100792350D01*
X98016709Y-100827956D01*
X97980919Y-100864169D01*
X97962514Y-100876638D01*
X97903430Y-100908317D01*
X97868957Y-100907782D01*
X97853413Y-100872386D01*
X97850750Y-100824610D01*
X97845252Y-100766484D01*
X97827134Y-100743104D01*
X97819000Y-100741917D01*
X97798061Y-100753489D01*
X97792549Y-100793811D01*
X97794197Y-100821292D01*
X97796472Y-100873143D01*
X97783488Y-100895393D01*
X97744134Y-100900570D01*
X97723787Y-100900667D01*
X97646430Y-100900667D01*
X97652925Y-100810708D01*
X97653367Y-100751210D01*
X97641788Y-100724515D01*
X97628160Y-100720750D01*
X97607485Y-100732820D01*
X97602186Y-100774377D01*
X97603738Y-100800125D01*
X97604907Y-100852675D01*
X97592646Y-100875251D01*
X97568000Y-100879500D01*
X97485984Y-100866785D01*
X97434244Y-100830510D01*
X97416833Y-100775440D01*
X97423416Y-100726283D01*
X97438345Y-100699370D01*
X97450575Y-100675881D01*
X97432684Y-100653461D01*
X97405406Y-100646667D01*
X97387521Y-100656161D01*
X97383180Y-100690590D01*
X97388365Y-100741917D01*
X97394030Y-100802919D01*
X97383920Y-100830895D01*
X97350047Y-100831636D01*
X97290340Y-100813005D01*
X97250596Y-100797232D01*
X97231299Y-100777510D01*
X97227123Y-100741118D01*
X97232735Y-100675421D01*
X97237124Y-100606112D01*
X97231277Y-100570792D01*
X97216675Y-100562000D01*
X97198187Y-100578751D01*
X97191759Y-100631490D01*
X97192114Y-100657250D01*
X97192453Y-100720297D01*
X97183820Y-100746766D01*
X97160138Y-100742316D01*
X97125210Y-100719550D01*
X97093090Y-100685312D01*
X97079661Y-100633171D01*
X97078167Y-100593799D01*
X97082680Y-100534304D01*
X97094028Y-100494464D01*
X97099679Y-100487703D01*
X97112126Y-100464396D01*
X97093953Y-100442268D01*
X97064070Y-100435000D01*
X97040739Y-100448070D01*
X97041223Y-100461458D01*
X97042132Y-100501531D01*
X97034392Y-100530250D01*
X97023494Y-100548822D01*
X97017878Y-100531084D01*
X97016155Y-100492157D01*
X97029345Y-100398391D01*
X97067446Y-100313822D01*
X97107105Y-100268000D01*
X97130559Y-100257576D01*
X97159542Y-100268868D01*
X97203351Y-100306495D01*
X97222487Y-100325320D01*
X97316988Y-100396484D01*
X97444648Y-100458149D01*
X97596862Y-100507734D01*
X97765026Y-100542656D01*
X97940533Y-100560335D01*
X98011362Y-100562000D01*
X98083885Y-100563344D01*
X98136224Y-100566878D01*
X98157603Y-100571855D01*
X98157667Y-100572155D01*
X98204188Y-100572155D01*
X98216430Y-100443819D01*
X98177162Y-100443819D01*
X98173271Y-100471273D01*
X98166045Y-100471601D01*
X98160992Y-100443271D01*
X98164374Y-100431031D01*
X98173773Y-100423014D01*
X98177162Y-100443819D01*
X98216430Y-100443819D01*
X98216516Y-100442918D01*
X98210081Y-100320207D01*
X98180248Y-100320207D01*
X98167823Y-100358732D01*
X98139750Y-100376783D01*
X98112843Y-100394355D01*
X98108170Y-100434740D01*
X98110403Y-100453335D01*
X98114405Y-100493470D01*
X98104075Y-100512895D01*
X98069243Y-100519128D01*
X98020666Y-100519667D01*
X97921193Y-100519667D01*
X97928305Y-100429708D01*
X97929292Y-100370576D01*
X97918269Y-100343878D01*
X97903667Y-100339750D01*
X97883623Y-100350199D01*
X97877142Y-100387411D01*
X97879029Y-100429708D01*
X97881164Y-100486229D01*
X97869475Y-100512590D01*
X97834374Y-100516038D01*
X97777905Y-100506156D01*
X97735166Y-100494376D01*
X97717093Y-100472918D01*
X97715183Y-100427858D01*
X97716621Y-100405821D01*
X97716593Y-100346763D01*
X97703183Y-100318549D01*
X97688132Y-100312304D01*
X97666705Y-100314681D01*
X97660159Y-100339736D01*
X97664891Y-100391471D01*
X97669848Y-100445277D01*
X97659887Y-100470685D01*
X97625998Y-100474220D01*
X97565253Y-100463625D01*
X97524505Y-100453360D01*
X97505644Y-100435747D01*
X97502369Y-100398283D01*
X97506584Y-100347209D01*
X97509632Y-100282073D01*
X97501620Y-100250586D01*
X97487810Y-100244500D01*
X97466896Y-100263604D01*
X97459222Y-100321729D01*
X97459167Y-100329167D01*
X97451833Y-100390540D01*
X97428154Y-100413444D01*
X97385609Y-100399421D01*
X97365980Y-100386209D01*
X97333387Y-100337846D01*
X97327209Y-100266498D01*
X97340591Y-100205513D01*
X97347958Y-100169699D01*
X97330651Y-100161647D01*
X97318434Y-100163450D01*
X97293081Y-100177083D01*
X97284113Y-100212297D01*
X97285284Y-100255354D01*
X97291121Y-100339750D01*
X97237561Y-100280361D01*
X97194891Y-100208360D01*
X97180791Y-100127589D01*
X97195245Y-100051425D01*
X97237911Y-99993500D01*
X97298153Y-99957742D01*
X97354759Y-99937270D01*
X97401886Y-99933823D01*
X97441572Y-99953094D01*
X97478377Y-99988405D01*
X97527559Y-100029467D01*
X97600830Y-100077353D01*
X97683279Y-100122418D01*
X97692477Y-100126888D01*
X97770171Y-100162034D01*
X97843933Y-100189654D01*
X97925849Y-100213341D01*
X98028005Y-100236686D01*
X98131208Y-100257296D01*
X98167626Y-100280558D01*
X98180248Y-100320207D01*
X98210081Y-100320207D01*
X98207998Y-100280488D01*
X98195933Y-100207986D01*
X98155336Y-100207986D01*
X98140654Y-100214895D01*
X98136500Y-100212750D01*
X98119591Y-100183266D01*
X98115658Y-100153292D01*
X98119023Y-100123097D01*
X98131699Y-100131545D01*
X98136500Y-100138667D01*
X98153952Y-100178001D01*
X98155336Y-100207986D01*
X98195933Y-100207986D01*
X98178147Y-100101107D01*
X98158913Y-100029023D01*
X98110260Y-100029023D01*
X98096817Y-100049589D01*
X98081003Y-100073890D01*
X98073180Y-100123223D01*
X98073000Y-100132493D01*
X98070559Y-100181935D01*
X98055431Y-100199594D01*
X98015913Y-100196008D01*
X98004870Y-100193832D01*
X97950995Y-100178146D01*
X97915810Y-100159268D01*
X97915442Y-100158908D01*
X97907098Y-100123636D01*
X97918826Y-100098087D01*
X97932934Y-100056016D01*
X97910727Y-100034993D01*
X97890085Y-100032833D01*
X97872046Y-100047367D01*
X97874694Y-100094317D01*
X97875092Y-100096333D01*
X97882148Y-100138495D01*
X97875349Y-100155521D01*
X97846190Y-100150436D01*
X97788352Y-100127179D01*
X97738553Y-100102871D01*
X97719711Y-100077918D01*
X97722530Y-100038572D01*
X97723949Y-100031929D01*
X97728865Y-99986669D01*
X97713821Y-99970181D01*
X97704265Y-99969333D01*
X97677073Y-99987524D01*
X97670833Y-100023447D01*
X97670833Y-100077560D01*
X97605998Y-100039322D01*
X97562705Y-100008017D01*
X97549390Y-99973843D01*
X97554041Y-99932292D01*
X97558576Y-99883734D01*
X97545307Y-99864913D01*
X97534209Y-99863500D01*
X97507400Y-99881579D01*
X97501176Y-99911125D01*
X97497834Y-99942053D01*
X97485384Y-99934449D01*
X97480333Y-99927000D01*
X97460489Y-99865371D01*
X97476881Y-99810395D01*
X97523496Y-99771404D01*
X97589423Y-99757667D01*
X97640849Y-99766122D01*
X97714425Y-99788290D01*
X97794229Y-99819373D01*
X97794286Y-99819398D01*
X97877354Y-99852953D01*
X97957045Y-99880540D01*
X98013577Y-99895609D01*
X98068318Y-99911699D01*
X98095653Y-99941387D01*
X98106186Y-99975869D01*
X98110260Y-100029023D01*
X98158913Y-100029023D01*
X98127429Y-99911032D01*
X98104552Y-99842333D01*
X98069044Y-99740982D01*
X98025271Y-99615943D01*
X97978931Y-99483492D01*
X97937878Y-99366083D01*
X97878739Y-99182713D01*
X97841072Y-99030353D01*
X97824196Y-98903937D01*
X97827432Y-98798401D01*
X97849727Y-98709650D01*
X97909261Y-98606134D01*
X97995943Y-98534961D01*
X98108727Y-98496894D01*
X98147633Y-98492033D01*
X98250261Y-98488937D01*
X98328051Y-98502979D01*
X98396739Y-98539228D01*
X98461839Y-98593230D01*
X98571379Y-98670112D01*
X98656379Y-98700831D01*
X98723599Y-98718239D01*
X98776599Y-98734705D01*
X98792667Y-98741167D01*
X98819288Y-98763514D01*
X98856893Y-98763514D01*
X98845211Y-98725545D01*
X98790761Y-98689770D01*
X98726694Y-98673321D01*
X98633697Y-98652580D01*
X98563445Y-98627072D01*
X98523571Y-98599996D01*
X98517356Y-98585640D01*
X98499772Y-98557742D01*
X98454770Y-98520483D01*
X98393598Y-98481736D01*
X98327504Y-98449375D01*
X98316417Y-98445010D01*
X98227237Y-98430410D01*
X98121982Y-98441917D01*
D12*
X96500000Y-114300000D03*
D13*
X113000000Y-111700000D03*
X118000000Y-111700000D03*
D14*
X98108000Y-102910000D03*
X98108000Y-107910000D03*
D15*
X95408000Y-101910000D03*
X95408000Y-108910000D03*
D16*
X135100000Y-109025000D03*
X133100000Y-109025000D03*
D17*
X137450000Y-114775000D03*
X130750000Y-114775000D03*
D18*
X137950000Y-99500000D03*
X129250000Y-99500000D03*
D19*
X112460000Y-101550000D03*
X112460000Y-105450000D03*
X113730000Y-101550000D03*
X113730000Y-105450000D03*
X115000000Y-101550000D03*
X115000000Y-105450000D03*
X116270000Y-101550000D03*
X116270000Y-105450000D03*
X117540000Y-101550000D03*
X117540000Y-105450000D03*
D20*
X142280000Y-96500000D03*
X142280000Y-114300000D03*
D12*
X96540000Y-96510000D03*
D21*
X103500000Y-111850000D03*
X106000000Y-111850000D03*
X108500000Y-111850000D03*
D22*
X109400000Y-114600000D03*
X102600000Y-114600000D03*
D23*
X122800000Y-99137500D03*
X123800000Y-99137500D03*
X124800000Y-99137500D03*
X125800000Y-99137500D03*
D24*
X121500000Y-95262500D03*
X127100000Y-95262500D03*
D25*
X112900000Y-96800000D03*
X117100000Y-96800000D03*
D26*
X118350000Y-94900000D03*
X111650000Y-94900000D03*
D23*
X126500000Y-111662500D03*
X125500000Y-111662500D03*
D24*
X127800000Y-115537500D03*
X124200000Y-115537500D03*
M02*
