G04 #@! TF.GenerationSoftware,KiCad,Pcbnew,(5.0.0-rc2-dev-444-g2974a2c10)*
G04 #@! TF.CreationDate,2019-10-03T16:28:08-07:00*
G04 #@! TF.ProjectId,StringCar CPy PCB,537472696E6743617220435079205043,v03*
G04 #@! TF.SameCoordinates,Original*
G04 #@! TF.FileFunction,Paste,Top*
G04 #@! TF.FilePolarity,Positive*
%FSLAX46Y46*%
G04 Gerber Fmt 4.6, Leading zero omitted, Abs format (unit mm)*
G04 Created by KiCad (PCBNEW (5.0.0-rc2-dev-444-g2974a2c10)) date 10/03/19 16:28:08*
%MOMM*%
%LPD*%
G01*
G04 APERTURE LIST*
%ADD10R,1.950000X0.550000*%
%ADD11R,0.500000X1.550000*%
%ADD12R,1.550000X0.500000*%
%ADD13R,0.950000X1.200000*%
%ADD14R,1.200000X0.950000*%
%ADD15R,0.650000X1.250000*%
%ADD16R,1.250000X0.650000*%
%ADD17R,1.850000X1.450000*%
%ADD18R,1.300000X0.350000*%
%ADD19R,1.450000X3.350000*%
%ADD20R,0.950000X3.450000*%
%ADD21R,1.950000X1.050000*%
%ADD22R,1.010000X0.600000*%
%ADD23R,1.510000X0.600000*%
%ADD24R,1.050000X1.050000*%
%ADD25R,0.950000X0.950000*%
%ADD26R,2.450000X1.750000*%
%ADD27R,1.550000X3.450000*%
%ADD28R,1.250000X0.550000*%
%ADD29R,0.550000X0.400000*%
%ADD30R,1.550000X0.250000*%
%ADD31R,2.410000X4.950000*%
G04 APERTURE END LIST*
D10*
X131850000Y-99035000D03*
X136750000Y-96495000D03*
X136750000Y-97765000D03*
X136750000Y-99035000D03*
X136750000Y-100305000D03*
X131850000Y-100305000D03*
X131850000Y-97765000D03*
X131850000Y-96495000D03*
D11*
X121400000Y-111450000D03*
X122200000Y-111450000D03*
X123000000Y-111450000D03*
X123800000Y-111450000D03*
X124600000Y-111450000D03*
X125400000Y-111450000D03*
X126200000Y-111450000D03*
X127000000Y-111450000D03*
D12*
X128450000Y-110000000D03*
X128450000Y-109200000D03*
X128450000Y-108400000D03*
X128450000Y-107600000D03*
X128450000Y-106800000D03*
X128450000Y-106000000D03*
X128450000Y-105200000D03*
X128450000Y-104400000D03*
D11*
X127000000Y-102950000D03*
X126200000Y-102950000D03*
X125400000Y-102950000D03*
X124600000Y-102950000D03*
X123800000Y-102950000D03*
X123000000Y-102950000D03*
X122200000Y-102950000D03*
X121400000Y-102950000D03*
D12*
X119950000Y-104400000D03*
X119950000Y-105200000D03*
X119950000Y-106000000D03*
X119950000Y-106800000D03*
X119950000Y-107600000D03*
X119950000Y-108400000D03*
X119950000Y-109200000D03*
X119950000Y-110000000D03*
D13*
X116600000Y-108600000D03*
X114600000Y-108600000D03*
D14*
X132234961Y-103517179D03*
X132234961Y-105517179D03*
D15*
X131177141Y-114636064D03*
X133077141Y-114636064D03*
D16*
X129200000Y-96250000D03*
X129200000Y-98150000D03*
D14*
X132234961Y-109517179D03*
X132234961Y-107517179D03*
X117008814Y-96294058D03*
X117008814Y-98294058D03*
D16*
X104272016Y-114450000D03*
X104272016Y-112550000D03*
X109900000Y-98410000D03*
X109900000Y-96510000D03*
D15*
X118250000Y-114600000D03*
X120150000Y-114600000D03*
D14*
X119152148Y-96294058D03*
X119152148Y-98294058D03*
X106100000Y-108821323D03*
X106100000Y-110821323D03*
D17*
X95408000Y-106410000D03*
D18*
X98108000Y-104760000D03*
X98108000Y-104110000D03*
X98108000Y-106710000D03*
X98108000Y-106060000D03*
X98108000Y-105410000D03*
D17*
X95408000Y-104410000D03*
D19*
X100917000Y-95931000D03*
X107617000Y-95931000D03*
D20*
X103267000Y-101681000D03*
X105267000Y-101681000D03*
D21*
X126600000Y-96300000D03*
X126600000Y-98000000D03*
X126600000Y-99700000D03*
X121800000Y-99700000D03*
X121800000Y-98000000D03*
X121800000Y-96300000D03*
D16*
X100900000Y-114450000D03*
X100900000Y-112550000D03*
D15*
X116250000Y-114600000D03*
X114350000Y-114600000D03*
D22*
X101646033Y-110771323D03*
X101646033Y-108871323D03*
X103846033Y-108871323D03*
X103846033Y-109821323D03*
X103846033Y-110771323D03*
D23*
X114728333Y-96260000D03*
X114728333Y-98160000D03*
X112028333Y-98160000D03*
X112028333Y-97210000D03*
X112028333Y-96260000D03*
D24*
X112600000Y-108500000D03*
X109800000Y-108500000D03*
D25*
X134834941Y-114600000D03*
X137095541Y-114600000D03*
X106500000Y-114768400D03*
X106500000Y-112507800D03*
D26*
X114500000Y-111800000D03*
X110500000Y-111800000D03*
D27*
X114060000Y-101200000D03*
X118940000Y-101200000D03*
D28*
X111950000Y-105950000D03*
X111950000Y-104050000D03*
X109850000Y-105000000D03*
X109850000Y-101400000D03*
X111950000Y-100450000D03*
X111950000Y-102350000D03*
D15*
X126850000Y-114700000D03*
X128750000Y-114700000D03*
X110750000Y-114600000D03*
X112650000Y-114600000D03*
D29*
X122950000Y-114700000D03*
X125050000Y-114700000D03*
D30*
X141434961Y-109192179D03*
D31*
X138634961Y-106917179D03*
D30*
X135834961Y-109192179D03*
X141434961Y-108542179D03*
X141434961Y-107892179D03*
X141434961Y-107242179D03*
X141434961Y-106592179D03*
X141434961Y-105942179D03*
X141434961Y-105292179D03*
X141434961Y-104642179D03*
X135834961Y-104642179D03*
X135834961Y-105292179D03*
X135834961Y-105942179D03*
X135834961Y-106592179D03*
X135834961Y-107242179D03*
X135834961Y-107892179D03*
X135834961Y-108542179D03*
M02*
