G04 #@! TF.GenerationSoftware,KiCad,Pcbnew,(5.1.6-0-10_14)*
G04 #@! TF.CreationDate,2020-08-05T18:55:13-07:00*
G04 #@! TF.ProjectId,StringCar_M0_Express,53747269-6e67-4436-9172-5f4d305f4578,v06*
G04 #@! TF.SameCoordinates,Original*
G04 #@! TF.FileFunction,Copper,L2,Bot*
G04 #@! TF.FilePolarity,Positive*
%FSLAX46Y46*%
G04 Gerber Fmt 4.6, Leading zero omitted, Abs format (unit mm)*
G04 Created by KiCad (PCBNEW (5.1.6-0-10_14)) date 2020-08-05 18:55:13*
%MOMM*%
%LPD*%
G01*
G04 APERTURE LIST*
G04 #@! TA.AperFunction,ComponentPad*
%ADD10C,3.000000*%
G04 #@! TD*
G04 #@! TA.AperFunction,SMDPad,CuDef*
%ADD11R,3.200000X1.600000*%
G04 #@! TD*
G04 #@! TA.AperFunction,ComponentPad*
%ADD12C,1.450000*%
G04 #@! TD*
G04 #@! TA.AperFunction,ComponentPad*
%ADD13O,1.900000X1.200000*%
G04 #@! TD*
G04 #@! TA.AperFunction,SMDPad,CuDef*
%ADD14R,1.000000X3.500000*%
G04 #@! TD*
G04 #@! TA.AperFunction,SMDPad,CuDef*
%ADD15R,1.500000X3.400000*%
G04 #@! TD*
G04 #@! TA.AperFunction,SMDPad,CuDef*
%ADD16R,1.300000X3.400000*%
G04 #@! TD*
G04 #@! TA.AperFunction,SMDPad,CuDef*
%ADD17R,0.740000X2.400000*%
G04 #@! TD*
G04 #@! TA.AperFunction,SMDPad,CuDef*
%ADD18R,1.250000X2.500000*%
G04 #@! TD*
G04 #@! TA.AperFunction,SMDPad,CuDef*
%ADD19R,0.600000X1.550000*%
G04 #@! TD*
G04 #@! TA.AperFunction,SMDPad,CuDef*
%ADD20R,1.200000X1.800000*%
G04 #@! TD*
G04 #@! TA.AperFunction,SMDPad,CuDef*
%ADD21R,0.900000X1.270000*%
G04 #@! TD*
G04 #@! TA.AperFunction,SMDPad,CuDef*
%ADD22R,1.450000X0.800000*%
G04 #@! TD*
G04 #@! TA.AperFunction,ComponentPad*
%ADD23C,0.330000*%
G04 #@! TD*
G04 #@! TA.AperFunction,ViaPad*
%ADD24C,0.685800*%
G04 #@! TD*
G04 #@! TA.AperFunction,ViaPad*
%ADD25C,0.812800*%
G04 #@! TD*
G04 #@! TA.AperFunction,Conductor*
%ADD26C,0.152400*%
G04 #@! TD*
G04 #@! TA.AperFunction,Conductor*
%ADD27C,0.203200*%
G04 #@! TD*
G04 #@! TA.AperFunction,Conductor*
%ADD28C,0.254000*%
G04 #@! TD*
G04 APERTURE END LIST*
D10*
X96500000Y-114300000D03*
D11*
X113000000Y-111700000D03*
X118000000Y-111700000D03*
D12*
X98108000Y-102910000D03*
X98108000Y-107910000D03*
D13*
X95408000Y-101910000D03*
X95408000Y-108910000D03*
D14*
X135100000Y-109025000D03*
X133100000Y-109025000D03*
D15*
X137450000Y-114775000D03*
X130750000Y-114775000D03*
D16*
X137950000Y-99500000D03*
X129250000Y-99500000D03*
D17*
X112460000Y-101550000D03*
X112460000Y-105450000D03*
X113730000Y-101550000D03*
X113730000Y-105450000D03*
X115000000Y-101550000D03*
X115000000Y-105450000D03*
X116270000Y-101550000D03*
X116270000Y-105450000D03*
X117540000Y-101550000D03*
X117540000Y-105450000D03*
D10*
X96540000Y-96510000D03*
D18*
X103500000Y-111850000D03*
X106000000Y-111850000D03*
X108500000Y-111850000D03*
D19*
X122800000Y-99137500D03*
X123800000Y-99137500D03*
X124800000Y-99137500D03*
X125800000Y-99137500D03*
D20*
X121500000Y-95262500D03*
X127100000Y-95262500D03*
D21*
X112900000Y-96800000D03*
X117100000Y-96800000D03*
D22*
X118350000Y-94900000D03*
X111650000Y-94900000D03*
D23*
X137884961Y-106917179D03*
X137884961Y-105417179D03*
X139384961Y-106917179D03*
X139384961Y-105417179D03*
X137884961Y-108417179D03*
X139384961Y-108417179D03*
D19*
X126500000Y-111662500D03*
X125500000Y-111662500D03*
D20*
X127800000Y-115537500D03*
X124200000Y-115537500D03*
D24*
X99000000Y-111600000D03*
X142000000Y-100100000D03*
X137884961Y-105417179D03*
X139384961Y-105417179D03*
X137884961Y-106917179D03*
X139384961Y-106917179D03*
X137884961Y-108417179D03*
X139384961Y-108417179D03*
X122000000Y-107000000D03*
X115600000Y-107188000D03*
X123700000Y-96300000D03*
X105000000Y-96000000D03*
X134000000Y-113200000D03*
X125900000Y-107300000D03*
X134600000Y-100300000D03*
X143200000Y-111600000D03*
X109700000Y-95100000D03*
X121400000Y-109600000D03*
X128090000Y-97100000D03*
X128500000Y-103200000D03*
X133500000Y-103100000D03*
X118700000Y-100700000D03*
X134823200Y-97028000D03*
D25*
X124800000Y-97000000D03*
X125200000Y-108400000D03*
X121600000Y-108400000D03*
X140200000Y-100200000D03*
X138600000Y-110900000D03*
X126200000Y-104600000D03*
D24*
X129500000Y-102500000D03*
X133800000Y-96500000D03*
X100500000Y-105700000D03*
X120500000Y-101900000D03*
X100500000Y-104800000D03*
X121300000Y-101500000D03*
D25*
X104900000Y-106172000D03*
X107696000Y-106172000D03*
D24*
X126000000Y-113300000D03*
D25*
X143092179Y-105292179D03*
X143057821Y-108542179D03*
X143600000Y-106592179D03*
D24*
X117300000Y-110100000D03*
X116100000Y-110000000D03*
X121800000Y-105500000D03*
D25*
X118400000Y-107300000D03*
D24*
X133900000Y-106200000D03*
D25*
X121500000Y-114600000D03*
X108966000Y-102616000D03*
X110744000Y-110236000D03*
D24*
X126900000Y-106699996D03*
X125200000Y-105600000D03*
X124300000Y-105600000D03*
X123400000Y-104600000D03*
X123100000Y-101400000D03*
X122500000Y-104600000D03*
X122100000Y-101200000D03*
X129100000Y-111300000D03*
X135834961Y-103403895D03*
X128400000Y-112100000D03*
X134600000Y-103400000D03*
D26*
X122800000Y-99612500D02*
X122800000Y-99137500D01*
D27*
X118650000Y-105450000D02*
X117540000Y-105450000D01*
X121600000Y-108400000D02*
X118650000Y-105450000D01*
X121600000Y-108400000D02*
X125200000Y-108400000D01*
X141600000Y-101600000D02*
X140200000Y-100200000D01*
X141600000Y-109900000D02*
X141600000Y-101600000D01*
X141300000Y-110200000D02*
X141600000Y-109900000D01*
X139874736Y-110200000D02*
X141300000Y-110200000D01*
X138600000Y-110900000D02*
X139174736Y-110900000D01*
X139174736Y-110900000D02*
X139874736Y-110200000D01*
X125000000Y-97200000D02*
X124800000Y-97000000D01*
X127400000Y-97600000D02*
X127000000Y-97200000D01*
X127000000Y-97200000D02*
X125000000Y-97200000D01*
X127400000Y-99500000D02*
X127400000Y-97600000D01*
X126200000Y-100700000D02*
X127400000Y-99500000D01*
X126200000Y-104600000D02*
X126200000Y-100700000D01*
X123800000Y-99137500D02*
X123800000Y-97400000D01*
X124200000Y-97000000D02*
X124800000Y-97000000D01*
X123800000Y-97400000D02*
X124200000Y-97000000D01*
X123800000Y-99137500D02*
X123800000Y-98200000D01*
D26*
X133800000Y-101100000D02*
X133800000Y-96500000D01*
X133209619Y-101690381D02*
X133800000Y-101100000D01*
X129500000Y-102500000D02*
X130309619Y-101690381D01*
X130309619Y-101690381D02*
X133209619Y-101690381D01*
X101285035Y-104914965D02*
X100500000Y-105700000D01*
X101285035Y-104485035D02*
X101285035Y-104914965D01*
X106570070Y-99200000D02*
X101285035Y-104485035D01*
X119900000Y-99200000D02*
X106570070Y-99200000D01*
X120500000Y-101900000D02*
X120500000Y-99800000D01*
X120500000Y-99800000D02*
X119900000Y-99200000D01*
X100500000Y-104800000D02*
X106432390Y-98867610D01*
X106432390Y-98867610D02*
X120037681Y-98867611D01*
X121300000Y-101400000D02*
X121300000Y-101354178D01*
X120832389Y-99662319D02*
X120037681Y-98867611D01*
X120832389Y-99662319D02*
X120832390Y-99662320D01*
X120832390Y-100632390D02*
X120832390Y-100300000D01*
X120832390Y-99662320D02*
X120832390Y-100300000D01*
X120832390Y-100300000D02*
X120832390Y-100400000D01*
X120832390Y-101032390D02*
X120832390Y-100632390D01*
X121300000Y-101500000D02*
X120832390Y-101032390D01*
D27*
X104900000Y-106172000D02*
X107696000Y-106172000D01*
D26*
X126000000Y-113137500D02*
X126000000Y-113300000D01*
X126500000Y-112800000D02*
X126500000Y-111662500D01*
X126000000Y-113300000D02*
X126500000Y-112800000D01*
D27*
X142651422Y-105732936D02*
X142700000Y-105684358D01*
X142651422Y-108135780D02*
X142651422Y-105732936D01*
X143057821Y-108542179D02*
X142651422Y-108135780D01*
X143092179Y-105292179D02*
X142700000Y-105684358D01*
X142700000Y-105684358D02*
X142685780Y-105698578D01*
X143057821Y-110042179D02*
X143057821Y-108542179D01*
X142400000Y-110700000D02*
X143057821Y-110042179D01*
X140325250Y-110700000D02*
X142400000Y-110700000D01*
X139131660Y-111893590D02*
X140325250Y-110700000D01*
X135100000Y-110978200D02*
X136015390Y-111893590D01*
X136015390Y-111893590D02*
X139131660Y-111893590D01*
X135100000Y-109025000D02*
X135100000Y-110978200D01*
X143600000Y-107166915D02*
X143600000Y-106592179D01*
X143769022Y-109905728D02*
X143769022Y-107335937D01*
X133100000Y-109025000D02*
X133100000Y-112100000D01*
X133100000Y-112100000D02*
X133300000Y-112300000D01*
X133300000Y-112300000D02*
X139300000Y-112300000D01*
X139300000Y-112300000D02*
X140493590Y-111106410D01*
X143769022Y-107335937D02*
X143600000Y-107166915D01*
X140493590Y-111106410D02*
X142568340Y-111106410D01*
X142568340Y-111106410D02*
X143769022Y-109905728D01*
D26*
X117540000Y-103060000D02*
X117540000Y-101550000D01*
X117000000Y-103600000D02*
X117540000Y-103060000D01*
X111600000Y-103600000D02*
X117000000Y-103600000D01*
X111200000Y-104000000D02*
X111600000Y-103600000D01*
X111200000Y-107000000D02*
X111200000Y-106500000D01*
X111200000Y-106500000D02*
X111200000Y-104000000D01*
X111200000Y-107950000D02*
X111200000Y-106500000D01*
X111200001Y-108152001D02*
X111200000Y-107950000D01*
X111506000Y-108458000D02*
X111200001Y-108152001D01*
X116142933Y-108458000D02*
X111506000Y-108458000D01*
X117300000Y-109615067D02*
X116142933Y-108458000D01*
X117300000Y-110100000D02*
X117300000Y-109615067D01*
X116270000Y-102902400D02*
X116270000Y-101550000D01*
X111473744Y-103295190D02*
X115877210Y-103295190D01*
X116100000Y-110000000D02*
X116100000Y-108988000D01*
X116100000Y-108988000D02*
X115874810Y-108762810D01*
X115874810Y-108762810D02*
X111379743Y-108762809D01*
X115877210Y-103295190D02*
X116270000Y-102902400D01*
X111379743Y-108762809D02*
X110895191Y-108278257D01*
X110895191Y-108278257D02*
X110895191Y-103873743D01*
X110895191Y-103873743D02*
X111473744Y-103295190D01*
X112460000Y-100720000D02*
X112460000Y-101550000D01*
X119304810Y-99504810D02*
X113675190Y-99504810D01*
X113675190Y-99504810D02*
X112460000Y-100720000D01*
X119800000Y-100000000D02*
X119304810Y-99504810D01*
X121800000Y-104454178D02*
X122606697Y-103647481D01*
X121800000Y-105500000D02*
X121800000Y-104454178D01*
X122606697Y-103647481D02*
X123982203Y-103647481D01*
X123982203Y-103647481D02*
X124294940Y-103334744D01*
X124294940Y-102394940D02*
X124200000Y-102300000D01*
X124294940Y-103334744D02*
X124294940Y-102394940D01*
X120171501Y-102471501D02*
X119800000Y-102100000D01*
X120774321Y-102471501D02*
X120171501Y-102471501D01*
X120945822Y-102300000D02*
X120774321Y-102471501D01*
X124200000Y-102300000D02*
X120945822Y-102300000D01*
X119800000Y-102100000D02*
X119800000Y-100000000D01*
X113300000Y-98562801D02*
X112900000Y-98162801D01*
X121137200Y-99536064D02*
X120163938Y-98562802D01*
X121528499Y-100628499D02*
X121137200Y-100237200D01*
X123821697Y-100628499D02*
X121528499Y-100628499D01*
X125209369Y-102016171D02*
X123821697Y-100628499D01*
X121800000Y-105500000D02*
X122128499Y-105171501D01*
X121137200Y-100237200D02*
X121137200Y-99536064D01*
X112900000Y-98162801D02*
X112900000Y-96800000D01*
X125209370Y-103713512D02*
X125209369Y-102016171D01*
X123751381Y-105171501D02*
X125209370Y-103713512D01*
X120163938Y-98562802D02*
X113300000Y-98562801D01*
X122128499Y-105171501D02*
X123751381Y-105171501D01*
D27*
X118400000Y-110296800D02*
X118400000Y-107300000D01*
X118000000Y-111700000D02*
X118000000Y-110696800D01*
X118000000Y-110696800D02*
X118400000Y-110296800D01*
X118900000Y-114600000D02*
X121500000Y-114600000D01*
X118000000Y-111700000D02*
X118000000Y-113700000D01*
X118000000Y-113700000D02*
X118900000Y-114600000D01*
X131600000Y-106200000D02*
X132100000Y-106200000D01*
X130981010Y-106818990D02*
X131600000Y-106200000D01*
X132100000Y-106200000D02*
X133900000Y-106200000D01*
X130981010Y-110803641D02*
X130981010Y-106818990D01*
X121500000Y-114600000D02*
X122074736Y-114600000D01*
X122074736Y-114600000D02*
X122727035Y-113947701D01*
X122727035Y-113947701D02*
X127667380Y-113947701D01*
X127667380Y-113947701D02*
X129015081Y-112600000D01*
X129015081Y-112600000D02*
X129184651Y-112600000D01*
X129184651Y-112600000D02*
X130981010Y-110803641D01*
D26*
X109728000Y-103378000D02*
X108966000Y-102616000D01*
X109728000Y-109220000D02*
X109728000Y-103378000D01*
X109220000Y-109728000D02*
X109728000Y-109220000D01*
X106719600Y-109728000D02*
X109220000Y-109728000D01*
X106000000Y-111850000D02*
X106000000Y-110447600D01*
X106000000Y-110447600D02*
X106719600Y-109728000D01*
D27*
X110169264Y-110236000D02*
X110744000Y-110236000D01*
X109489000Y-110236000D02*
X110169264Y-110236000D01*
X108500000Y-111225000D02*
X109489000Y-110236000D01*
X108500000Y-111850000D02*
X108500000Y-111225000D01*
D26*
X128447600Y-99500000D02*
X129250000Y-99500000D01*
X127500000Y-100447600D02*
X128447600Y-99500000D01*
X127242899Y-106357097D02*
X126900000Y-106699996D01*
X127500000Y-106099996D02*
X127242899Y-106357097D01*
X127500000Y-100447600D02*
X127500000Y-106099996D01*
X125818990Y-99156490D02*
X125800000Y-99137500D01*
X125818990Y-99918990D02*
X125818990Y-99156490D01*
X125104810Y-100633170D02*
X125818990Y-99918990D01*
X125104810Y-101049480D02*
X125104810Y-100633170D01*
X125818990Y-101763660D02*
X125104810Y-101049480D01*
X125818990Y-103966024D02*
X125818990Y-101763660D01*
X125200000Y-104585014D02*
X125818990Y-103966024D01*
X125200000Y-105600000D02*
X125200000Y-104585014D01*
X125514178Y-101889914D02*
X124800000Y-101175736D01*
X124800000Y-101175736D02*
X124800000Y-99137500D01*
X125514178Y-102314178D02*
X125514178Y-101889914D01*
X125514180Y-102314180D02*
X125514178Y-102314178D01*
X125514180Y-103839768D02*
X125514180Y-102314180D01*
X124895190Y-104458758D02*
X125514180Y-103839768D01*
X124895190Y-105004810D02*
X124895190Y-104458758D01*
X124300000Y-105600000D02*
X124895190Y-105004810D01*
X123742899Y-104257101D02*
X123400000Y-104600000D01*
X124904560Y-103587256D02*
X124234715Y-104257101D01*
X124234715Y-104257101D02*
X123742899Y-104257101D01*
X124904560Y-102142428D02*
X124904560Y-103587256D01*
X124162132Y-101400000D02*
X124904560Y-102142428D01*
X123100000Y-101400000D02*
X124162132Y-101400000D01*
X124302567Y-101971501D02*
X122386568Y-101971501D01*
X124599749Y-102268683D02*
X124302567Y-101971501D01*
X122386568Y-101971501D02*
X122100000Y-101684933D01*
X124599750Y-103461000D02*
X124599749Y-102268683D01*
X122100000Y-101684933D02*
X122100000Y-101200000D01*
X123147709Y-103952291D02*
X124108459Y-103952291D01*
X124108459Y-103952291D02*
X124599750Y-103461000D01*
X122500000Y-104600000D02*
X123147709Y-103952291D01*
X129442899Y-110957101D02*
X129100000Y-111300000D01*
X135834961Y-103403895D02*
X134426257Y-101995191D01*
X134426257Y-101995191D02*
X130873743Y-101995191D01*
X130873743Y-101995191D02*
X130295190Y-102573744D01*
X130295190Y-102573744D02*
X130295190Y-110519566D01*
X129857101Y-110957101D02*
X129442899Y-110957101D01*
X130295190Y-110519566D02*
X129857378Y-110957378D01*
X129857378Y-110957378D02*
X129857101Y-110957101D01*
X129145822Y-112100000D02*
X130600000Y-110645822D01*
X128400000Y-112100000D02*
X129145822Y-112100000D01*
X130600000Y-110645822D02*
X130600000Y-102800000D01*
X130600000Y-102800000D02*
X130600000Y-102700000D01*
X130600000Y-102700000D02*
X131000000Y-102300000D01*
X131000000Y-102300000D02*
X133500000Y-102300000D01*
X133984933Y-102300000D02*
X133800000Y-102300000D01*
X134600000Y-102915067D02*
X133984933Y-102300000D01*
X134600000Y-103400000D02*
X134600000Y-102915067D01*
X133500000Y-102300000D02*
X133800000Y-102300000D01*
X133800000Y-102300000D02*
X133900000Y-102300000D01*
D28*
G36*
X144349001Y-114278911D02*
G01*
X144306807Y-114709237D01*
X144187957Y-115102889D01*
X143994911Y-115465957D01*
X143735018Y-115784617D01*
X143418183Y-116046726D01*
X143056472Y-116242303D01*
X142663658Y-116363899D01*
X142234554Y-116409000D01*
X138582843Y-116409000D01*
X138582843Y-114139360D01*
X140649000Y-114139360D01*
X140649000Y-114460640D01*
X140711678Y-114775745D01*
X140834626Y-115072568D01*
X141013119Y-115339702D01*
X141240298Y-115566881D01*
X141507432Y-115745374D01*
X141804255Y-115868322D01*
X142119360Y-115931000D01*
X142440640Y-115931000D01*
X142755745Y-115868322D01*
X143052568Y-115745374D01*
X143319702Y-115566881D01*
X143546881Y-115339702D01*
X143725374Y-115072568D01*
X143848322Y-114775745D01*
X143911000Y-114460640D01*
X143911000Y-114139360D01*
X143848322Y-113824255D01*
X143725374Y-113527432D01*
X143546881Y-113260298D01*
X143319702Y-113033119D01*
X143052568Y-112854626D01*
X142755745Y-112731678D01*
X142440640Y-112669000D01*
X142119360Y-112669000D01*
X141804255Y-112731678D01*
X141507432Y-112854626D01*
X141240298Y-113033119D01*
X141013119Y-113260298D01*
X140834626Y-113527432D01*
X140711678Y-113824255D01*
X140649000Y-114139360D01*
X138582843Y-114139360D01*
X138582843Y-113075000D01*
X138575487Y-113000311D01*
X138553701Y-112928492D01*
X138518322Y-112862304D01*
X138470711Y-112804289D01*
X138444282Y-112782600D01*
X139276295Y-112782600D01*
X139300000Y-112784935D01*
X139323705Y-112782600D01*
X139323707Y-112782600D01*
X139394606Y-112775617D01*
X139485577Y-112748022D01*
X139569415Y-112703209D01*
X139642901Y-112642901D01*
X139658017Y-112624482D01*
X140693489Y-111589010D01*
X142544635Y-111589010D01*
X142568340Y-111591345D01*
X142592045Y-111589010D01*
X142592047Y-111589010D01*
X142662946Y-111582027D01*
X142753917Y-111554432D01*
X142837755Y-111509619D01*
X142911241Y-111449311D01*
X142926357Y-111430892D01*
X144093510Y-110263740D01*
X144111923Y-110248629D01*
X144172231Y-110175143D01*
X144217044Y-110091305D01*
X144236034Y-110028702D01*
X144244639Y-110000335D01*
X144253957Y-109905728D01*
X144251622Y-109882021D01*
X144251622Y-107359641D01*
X144253957Y-107335936D01*
X144249429Y-107289964D01*
X144244639Y-107241331D01*
X144217044Y-107150360D01*
X144195561Y-107110170D01*
X144211614Y-107094117D01*
X144297785Y-106965153D01*
X144349001Y-106841508D01*
X144349001Y-114278911D01*
G37*
X144349001Y-114278911D02*
X144306807Y-114709237D01*
X144187957Y-115102889D01*
X143994911Y-115465957D01*
X143735018Y-115784617D01*
X143418183Y-116046726D01*
X143056472Y-116242303D01*
X142663658Y-116363899D01*
X142234554Y-116409000D01*
X138582843Y-116409000D01*
X138582843Y-114139360D01*
X140649000Y-114139360D01*
X140649000Y-114460640D01*
X140711678Y-114775745D01*
X140834626Y-115072568D01*
X141013119Y-115339702D01*
X141240298Y-115566881D01*
X141507432Y-115745374D01*
X141804255Y-115868322D01*
X142119360Y-115931000D01*
X142440640Y-115931000D01*
X142755745Y-115868322D01*
X143052568Y-115745374D01*
X143319702Y-115566881D01*
X143546881Y-115339702D01*
X143725374Y-115072568D01*
X143848322Y-114775745D01*
X143911000Y-114460640D01*
X143911000Y-114139360D01*
X143848322Y-113824255D01*
X143725374Y-113527432D01*
X143546881Y-113260298D01*
X143319702Y-113033119D01*
X143052568Y-112854626D01*
X142755745Y-112731678D01*
X142440640Y-112669000D01*
X142119360Y-112669000D01*
X141804255Y-112731678D01*
X141507432Y-112854626D01*
X141240298Y-113033119D01*
X141013119Y-113260298D01*
X140834626Y-113527432D01*
X140711678Y-113824255D01*
X140649000Y-114139360D01*
X138582843Y-114139360D01*
X138582843Y-113075000D01*
X138575487Y-113000311D01*
X138553701Y-112928492D01*
X138518322Y-112862304D01*
X138470711Y-112804289D01*
X138444282Y-112782600D01*
X139276295Y-112782600D01*
X139300000Y-112784935D01*
X139323705Y-112782600D01*
X139323707Y-112782600D01*
X139394606Y-112775617D01*
X139485577Y-112748022D01*
X139569415Y-112703209D01*
X139642901Y-112642901D01*
X139658017Y-112624482D01*
X140693489Y-111589010D01*
X142544635Y-111589010D01*
X142568340Y-111591345D01*
X142592045Y-111589010D01*
X142592047Y-111589010D01*
X142662946Y-111582027D01*
X142753917Y-111554432D01*
X142837755Y-111509619D01*
X142911241Y-111449311D01*
X142926357Y-111430892D01*
X144093510Y-110263740D01*
X144111923Y-110248629D01*
X144172231Y-110175143D01*
X144217044Y-110091305D01*
X144236034Y-110028702D01*
X144244639Y-110000335D01*
X144253957Y-109905728D01*
X144251622Y-109882021D01*
X144251622Y-107359641D01*
X144253957Y-107335936D01*
X144249429Y-107289964D01*
X144244639Y-107241331D01*
X144217044Y-107150360D01*
X144195561Y-107110170D01*
X144211614Y-107094117D01*
X144297785Y-106965153D01*
X144349001Y-106841508D01*
X144349001Y-114278911D01*
G36*
X110549513Y-94425311D02*
G01*
X110542157Y-94500000D01*
X110542157Y-95300000D01*
X110549513Y-95374689D01*
X110571299Y-95446508D01*
X110606678Y-95512696D01*
X110654289Y-95570711D01*
X110712304Y-95618322D01*
X110778492Y-95653701D01*
X110850311Y-95675487D01*
X110925000Y-95682843D01*
X112375000Y-95682843D01*
X112449689Y-95675487D01*
X112521508Y-95653701D01*
X112587696Y-95618322D01*
X112645711Y-95570711D01*
X112693322Y-95512696D01*
X112728701Y-95446508D01*
X112750487Y-95374689D01*
X112757843Y-95300000D01*
X112757843Y-94500000D01*
X112750487Y-94425311D01*
X112746146Y-94411000D01*
X117253854Y-94411000D01*
X117249513Y-94425311D01*
X117242157Y-94500000D01*
X117242157Y-95300000D01*
X117249513Y-95374689D01*
X117271299Y-95446508D01*
X117306678Y-95512696D01*
X117350120Y-95565630D01*
X117227000Y-95688750D01*
X117227000Y-96673000D01*
X118026250Y-96673000D01*
X118185000Y-96514250D01*
X118188072Y-96165000D01*
X118175812Y-96040518D01*
X118139502Y-95920820D01*
X118080537Y-95810506D01*
X118001185Y-95713815D01*
X117963445Y-95682843D01*
X119075000Y-95682843D01*
X119149689Y-95675487D01*
X119221508Y-95653701D01*
X119287696Y-95618322D01*
X119345711Y-95570711D01*
X119393322Y-95512696D01*
X119428701Y-95446508D01*
X119450487Y-95374689D01*
X119457843Y-95300000D01*
X119457843Y-94500000D01*
X119450487Y-94425311D01*
X119446146Y-94411000D01*
X120517157Y-94411000D01*
X120517157Y-96162500D01*
X120524513Y-96237189D01*
X120546299Y-96309008D01*
X120581678Y-96375196D01*
X120629289Y-96433211D01*
X120687304Y-96480822D01*
X120753492Y-96516201D01*
X120825311Y-96537987D01*
X120900000Y-96545343D01*
X122100000Y-96545343D01*
X122174689Y-96537987D01*
X122246508Y-96516201D01*
X122312696Y-96480822D01*
X122370711Y-96433211D01*
X122418322Y-96375196D01*
X122453701Y-96309008D01*
X122475487Y-96237189D01*
X122482843Y-96162500D01*
X122482843Y-94411000D01*
X126117157Y-94411000D01*
X126117157Y-96162500D01*
X126124513Y-96237189D01*
X126146299Y-96309008D01*
X126181678Y-96375196D01*
X126229289Y-96433211D01*
X126287304Y-96480822D01*
X126353492Y-96516201D01*
X126425311Y-96537987D01*
X126500000Y-96545343D01*
X127700000Y-96545343D01*
X127774689Y-96537987D01*
X127846508Y-96516201D01*
X127912696Y-96480822D01*
X127970711Y-96433211D01*
X128018322Y-96375196D01*
X128053701Y-96309008D01*
X128075487Y-96237189D01*
X128082843Y-96162500D01*
X128082843Y-94411000D01*
X142218921Y-94411000D01*
X142649238Y-94453193D01*
X143042893Y-94572044D01*
X143405957Y-94765089D01*
X143724615Y-95024979D01*
X143986728Y-95341820D01*
X144182303Y-95703528D01*
X144303899Y-96096343D01*
X144349000Y-96525446D01*
X144349001Y-106342850D01*
X144297785Y-106219205D01*
X144211614Y-106090241D01*
X144101938Y-105980565D01*
X143972974Y-105894394D01*
X143829676Y-105835038D01*
X143690546Y-105807364D01*
X143703793Y-105794117D01*
X143789964Y-105665153D01*
X143849320Y-105521855D01*
X143879579Y-105369731D01*
X143879579Y-105214627D01*
X143849320Y-105062503D01*
X143789964Y-104919205D01*
X143703793Y-104790241D01*
X143594117Y-104680565D01*
X143465153Y-104594394D01*
X143321855Y-104535038D01*
X143169731Y-104504779D01*
X143014627Y-104504779D01*
X142862503Y-104535038D01*
X142719205Y-104594394D01*
X142590241Y-104680565D01*
X142480565Y-104790241D01*
X142394394Y-104919205D01*
X142335038Y-105062503D01*
X142304779Y-105214627D01*
X142304779Y-105369731D01*
X142308776Y-105389826D01*
X142308522Y-105390035D01*
X142293411Y-105408448D01*
X142293409Y-105408450D01*
X142248214Y-105463521D01*
X142203400Y-105547360D01*
X142175806Y-105638330D01*
X142166487Y-105732936D01*
X142168823Y-105756651D01*
X142168822Y-108112075D01*
X142166487Y-108135780D01*
X142168822Y-108159485D01*
X142168822Y-108159486D01*
X142175805Y-108230385D01*
X142203400Y-108321356D01*
X142248213Y-108405195D01*
X142275604Y-108438571D01*
X142270421Y-108464627D01*
X142270421Y-108619731D01*
X142300680Y-108771855D01*
X142360036Y-108915153D01*
X142446207Y-109044117D01*
X142555883Y-109153793D01*
X142575222Y-109166715D01*
X142575221Y-109842280D01*
X142200101Y-110217400D01*
X141963829Y-110217400D01*
X142003209Y-110169415D01*
X142048022Y-110085577D01*
X142075617Y-109994606D01*
X142082600Y-109923707D01*
X142082600Y-109923706D01*
X142084935Y-109900001D01*
X142082600Y-109876296D01*
X142082600Y-101623707D01*
X142084935Y-101600000D01*
X142075617Y-101505393D01*
X142048022Y-101414423D01*
X142031212Y-101382974D01*
X142003209Y-101330585D01*
X141942901Y-101257099D01*
X141924488Y-101241988D01*
X140982863Y-100300363D01*
X140987400Y-100277552D01*
X140987400Y-100122448D01*
X140957141Y-99970324D01*
X140897785Y-99827026D01*
X140811614Y-99698062D01*
X140701938Y-99588386D01*
X140572974Y-99502215D01*
X140429676Y-99442859D01*
X140277552Y-99412600D01*
X140122448Y-99412600D01*
X139970324Y-99442859D01*
X139827026Y-99502215D01*
X139698062Y-99588386D01*
X139588386Y-99698062D01*
X139502215Y-99827026D01*
X139442859Y-99970324D01*
X139412600Y-100122448D01*
X139412600Y-100277552D01*
X139442859Y-100429676D01*
X139502215Y-100572974D01*
X139588386Y-100701938D01*
X139698062Y-100811614D01*
X139827026Y-100897785D01*
X139970324Y-100957141D01*
X140122448Y-100987400D01*
X140277552Y-100987400D01*
X140300363Y-100982863D01*
X141117401Y-101799901D01*
X141117400Y-109700101D01*
X141100101Y-109717400D01*
X139898432Y-109717400D01*
X139874735Y-109715066D01*
X139851038Y-109717400D01*
X139851029Y-109717400D01*
X139780130Y-109724383D01*
X139689159Y-109751978D01*
X139605321Y-109796791D01*
X139531835Y-109857099D01*
X139516719Y-109875518D01*
X139102895Y-110289343D01*
X139101938Y-110288386D01*
X138972974Y-110202215D01*
X138829676Y-110142859D01*
X138677552Y-110112600D01*
X138522448Y-110112600D01*
X138370324Y-110142859D01*
X138227026Y-110202215D01*
X138098062Y-110288386D01*
X137988386Y-110398062D01*
X137902215Y-110527026D01*
X137842859Y-110670324D01*
X137812600Y-110822448D01*
X137812600Y-110977552D01*
X137842859Y-111129676D01*
X137902215Y-111272974D01*
X137988386Y-111401938D01*
X137997438Y-111410990D01*
X136215290Y-111410990D01*
X135859341Y-111055042D01*
X135870711Y-111045711D01*
X135918322Y-110987696D01*
X135953701Y-110921508D01*
X135975487Y-110849689D01*
X135982843Y-110775000D01*
X135982843Y-109089133D01*
X137443728Y-109089133D01*
X137583299Y-109162302D01*
X137734461Y-109206836D01*
X137891407Y-109221024D01*
X138048105Y-109204321D01*
X138198535Y-109157368D01*
X138326194Y-109089133D01*
X138943728Y-109089133D01*
X139083299Y-109162302D01*
X139234461Y-109206836D01*
X139391407Y-109221024D01*
X139548105Y-109204321D01*
X139698535Y-109157368D01*
X139826194Y-109089133D01*
X139813468Y-108899427D01*
X139384961Y-108470919D01*
X138956454Y-108899427D01*
X138943728Y-109089133D01*
X138326194Y-109089133D01*
X138313468Y-108899427D01*
X137884961Y-108470919D01*
X137456454Y-108899427D01*
X137443728Y-109089133D01*
X135982843Y-109089133D01*
X135982843Y-108423625D01*
X137081116Y-108423625D01*
X137097819Y-108580323D01*
X137144772Y-108730753D01*
X137213007Y-108858412D01*
X137402713Y-108845686D01*
X137831221Y-108417179D01*
X137938701Y-108417179D01*
X138367209Y-108845686D01*
X138556915Y-108858412D01*
X138630084Y-108718841D01*
X138635411Y-108700761D01*
X138644772Y-108730753D01*
X138713007Y-108858412D01*
X138902713Y-108845686D01*
X139331221Y-108417179D01*
X139438701Y-108417179D01*
X139867209Y-108845686D01*
X140056915Y-108858412D01*
X140130084Y-108718841D01*
X140174618Y-108567679D01*
X140188806Y-108410733D01*
X140172103Y-108254035D01*
X140125150Y-108103605D01*
X140056915Y-107975946D01*
X139867209Y-107988672D01*
X139438701Y-108417179D01*
X139331221Y-108417179D01*
X138902713Y-107988672D01*
X138713007Y-107975946D01*
X138639838Y-108115517D01*
X138634511Y-108133597D01*
X138625150Y-108103605D01*
X138556915Y-107975946D01*
X138367209Y-107988672D01*
X137938701Y-108417179D01*
X137831221Y-108417179D01*
X137402713Y-107988672D01*
X137213007Y-107975946D01*
X137139838Y-108115517D01*
X137095304Y-108266679D01*
X137081116Y-108423625D01*
X135982843Y-108423625D01*
X135982843Y-107589133D01*
X137443728Y-107589133D01*
X137583299Y-107662302D01*
X137601379Y-107667629D01*
X137571387Y-107676990D01*
X137443728Y-107745225D01*
X137456454Y-107934931D01*
X137884961Y-108363439D01*
X138313468Y-107934931D01*
X138326194Y-107745225D01*
X138186623Y-107672056D01*
X138168543Y-107666729D01*
X138198535Y-107657368D01*
X138326194Y-107589133D01*
X138943728Y-107589133D01*
X139083299Y-107662302D01*
X139101379Y-107667629D01*
X139071387Y-107676990D01*
X138943728Y-107745225D01*
X138956454Y-107934931D01*
X139384961Y-108363439D01*
X139813468Y-107934931D01*
X139826194Y-107745225D01*
X139686623Y-107672056D01*
X139668543Y-107666729D01*
X139698535Y-107657368D01*
X139826194Y-107589133D01*
X139813468Y-107399427D01*
X139384961Y-106970919D01*
X138956454Y-107399427D01*
X138943728Y-107589133D01*
X138326194Y-107589133D01*
X138313468Y-107399427D01*
X137884961Y-106970919D01*
X137456454Y-107399427D01*
X137443728Y-107589133D01*
X135982843Y-107589133D01*
X135982843Y-107275000D01*
X135975487Y-107200311D01*
X135953701Y-107128492D01*
X135918322Y-107062304D01*
X135870711Y-107004289D01*
X135812696Y-106956678D01*
X135750860Y-106923625D01*
X137081116Y-106923625D01*
X137097819Y-107080323D01*
X137144772Y-107230753D01*
X137213007Y-107358412D01*
X137402713Y-107345686D01*
X137831221Y-106917179D01*
X137938701Y-106917179D01*
X138367209Y-107345686D01*
X138556915Y-107358412D01*
X138630084Y-107218841D01*
X138635411Y-107200761D01*
X138644772Y-107230753D01*
X138713007Y-107358412D01*
X138902713Y-107345686D01*
X139331221Y-106917179D01*
X139438701Y-106917179D01*
X139867209Y-107345686D01*
X140056915Y-107358412D01*
X140130084Y-107218841D01*
X140174618Y-107067679D01*
X140188806Y-106910733D01*
X140172103Y-106754035D01*
X140125150Y-106603605D01*
X140056915Y-106475946D01*
X139867209Y-106488672D01*
X139438701Y-106917179D01*
X139331221Y-106917179D01*
X138902713Y-106488672D01*
X138713007Y-106475946D01*
X138639838Y-106615517D01*
X138634511Y-106633597D01*
X138625150Y-106603605D01*
X138556915Y-106475946D01*
X138367209Y-106488672D01*
X137938701Y-106917179D01*
X137831221Y-106917179D01*
X137402713Y-106488672D01*
X137213007Y-106475946D01*
X137139838Y-106615517D01*
X137095304Y-106766679D01*
X137081116Y-106923625D01*
X135750860Y-106923625D01*
X135746508Y-106921299D01*
X135674689Y-106899513D01*
X135600000Y-106892157D01*
X134600000Y-106892157D01*
X134525311Y-106899513D01*
X134453492Y-106921299D01*
X134387304Y-106956678D01*
X134329289Y-107004289D01*
X134281678Y-107062304D01*
X134246299Y-107128492D01*
X134224513Y-107200311D01*
X134217157Y-107275000D01*
X134217157Y-110775000D01*
X134224513Y-110849689D01*
X134246299Y-110921508D01*
X134281678Y-110987696D01*
X134329289Y-111045711D01*
X134387304Y-111093322D01*
X134453492Y-111128701D01*
X134525311Y-111150487D01*
X134600000Y-111157843D01*
X134650178Y-111157843D01*
X134651978Y-111163776D01*
X134696792Y-111247615D01*
X134730408Y-111288576D01*
X134757100Y-111321101D01*
X134775513Y-111336212D01*
X135256700Y-111817400D01*
X133582600Y-111817400D01*
X133582600Y-111157843D01*
X133600000Y-111157843D01*
X133674689Y-111150487D01*
X133746508Y-111128701D01*
X133812696Y-111093322D01*
X133870711Y-111045711D01*
X133918322Y-110987696D01*
X133953701Y-110921508D01*
X133975487Y-110849689D01*
X133982843Y-110775000D01*
X133982843Y-107275000D01*
X133975487Y-107200311D01*
X133953701Y-107128492D01*
X133918322Y-107062304D01*
X133870711Y-107004289D01*
X133812696Y-106956678D01*
X133746508Y-106921299D01*
X133674689Y-106899513D01*
X133600000Y-106892157D01*
X132600000Y-106892157D01*
X132525311Y-106899513D01*
X132453492Y-106921299D01*
X132387304Y-106956678D01*
X132329289Y-107004289D01*
X132281678Y-107062304D01*
X132246299Y-107128492D01*
X132224513Y-107200311D01*
X132217157Y-107275000D01*
X132217157Y-110775000D01*
X132224513Y-110849689D01*
X132246299Y-110921508D01*
X132281678Y-110987696D01*
X132329289Y-111045711D01*
X132387304Y-111093322D01*
X132453492Y-111128701D01*
X132525311Y-111150487D01*
X132600000Y-111157843D01*
X132617401Y-111157843D01*
X132617401Y-112076285D01*
X132615065Y-112100000D01*
X132624384Y-112194606D01*
X132651978Y-112285576D01*
X132696792Y-112369415D01*
X132733730Y-112414424D01*
X132757100Y-112442901D01*
X132775513Y-112458012D01*
X132941983Y-112624482D01*
X132957099Y-112642901D01*
X133030585Y-112703209D01*
X133095131Y-112737710D01*
X133114423Y-112748022D01*
X133205393Y-112775617D01*
X133300000Y-112784935D01*
X133323707Y-112782600D01*
X136455718Y-112782600D01*
X136429289Y-112804289D01*
X136381678Y-112862304D01*
X136346299Y-112928492D01*
X136324513Y-113000311D01*
X136317157Y-113075000D01*
X136317157Y-116409000D01*
X131882843Y-116409000D01*
X131882843Y-113075000D01*
X131875487Y-113000311D01*
X131853701Y-112928492D01*
X131818322Y-112862304D01*
X131770711Y-112804289D01*
X131712696Y-112756678D01*
X131646508Y-112721299D01*
X131574689Y-112699513D01*
X131500000Y-112692157D01*
X130000000Y-112692157D01*
X129925311Y-112699513D01*
X129853492Y-112721299D01*
X129787304Y-112756678D01*
X129729289Y-112804289D01*
X129681678Y-112862304D01*
X129646299Y-112928492D01*
X129624513Y-113000311D01*
X129617157Y-113075000D01*
X129617157Y-116409000D01*
X128782843Y-116409000D01*
X128782843Y-114637500D01*
X128775487Y-114562811D01*
X128753701Y-114490992D01*
X128718322Y-114424804D01*
X128670711Y-114366789D01*
X128612696Y-114319178D01*
X128546508Y-114283799D01*
X128474689Y-114262013D01*
X128400000Y-114254657D01*
X128042923Y-114254657D01*
X129215704Y-113081876D01*
X129279257Y-113075617D01*
X129370228Y-113048022D01*
X129454066Y-113003209D01*
X129527552Y-112942901D01*
X129542668Y-112924482D01*
X131305492Y-111161658D01*
X131323911Y-111146542D01*
X131384219Y-111073056D01*
X131429032Y-110989218D01*
X131456627Y-110898247D01*
X131463610Y-110827348D01*
X131463610Y-110827347D01*
X131465945Y-110803642D01*
X131463610Y-110779937D01*
X131463610Y-107018889D01*
X131799900Y-106682600D01*
X133358850Y-106682600D01*
X133438540Y-106762290D01*
X133557105Y-106841512D01*
X133688846Y-106896081D01*
X133828702Y-106923900D01*
X133971298Y-106923900D01*
X134111154Y-106896081D01*
X134242895Y-106841512D01*
X134361460Y-106762290D01*
X134462290Y-106661460D01*
X134541512Y-106542895D01*
X134596081Y-106411154D01*
X134623900Y-106271298D01*
X134623900Y-106128702D01*
X134616030Y-106089133D01*
X137443728Y-106089133D01*
X137583299Y-106162302D01*
X137601379Y-106167629D01*
X137571387Y-106176990D01*
X137443728Y-106245225D01*
X137456454Y-106434931D01*
X137884961Y-106863439D01*
X138313468Y-106434931D01*
X138326194Y-106245225D01*
X138186623Y-106172056D01*
X138168543Y-106166729D01*
X138198535Y-106157368D01*
X138326194Y-106089133D01*
X138943728Y-106089133D01*
X139083299Y-106162302D01*
X139101379Y-106167629D01*
X139071387Y-106176990D01*
X138943728Y-106245225D01*
X138956454Y-106434931D01*
X139384961Y-106863439D01*
X139813468Y-106434931D01*
X139826194Y-106245225D01*
X139686623Y-106172056D01*
X139668543Y-106166729D01*
X139698535Y-106157368D01*
X139826194Y-106089133D01*
X139813468Y-105899427D01*
X139384961Y-105470919D01*
X138956454Y-105899427D01*
X138943728Y-106089133D01*
X138326194Y-106089133D01*
X138313468Y-105899427D01*
X137884961Y-105470919D01*
X137456454Y-105899427D01*
X137443728Y-106089133D01*
X134616030Y-106089133D01*
X134596081Y-105988846D01*
X134541512Y-105857105D01*
X134462290Y-105738540D01*
X134361460Y-105637710D01*
X134242895Y-105558488D01*
X134111154Y-105503919D01*
X133971298Y-105476100D01*
X133828702Y-105476100D01*
X133688846Y-105503919D01*
X133557105Y-105558488D01*
X133438540Y-105637710D01*
X133358850Y-105717400D01*
X131623704Y-105717400D01*
X131599999Y-105715065D01*
X131576294Y-105717400D01*
X131576293Y-105717400D01*
X131505394Y-105724383D01*
X131414423Y-105751978D01*
X131330585Y-105796791D01*
X131330583Y-105796792D01*
X131330584Y-105796792D01*
X131283981Y-105835038D01*
X131257099Y-105857099D01*
X131241987Y-105875513D01*
X131057200Y-106060300D01*
X131057200Y-105423625D01*
X137081116Y-105423625D01*
X137097819Y-105580323D01*
X137144772Y-105730753D01*
X137213007Y-105858412D01*
X137402713Y-105845686D01*
X137831221Y-105417179D01*
X137938701Y-105417179D01*
X138367209Y-105845686D01*
X138556915Y-105858412D01*
X138630084Y-105718841D01*
X138635411Y-105700761D01*
X138644772Y-105730753D01*
X138713007Y-105858412D01*
X138902713Y-105845686D01*
X139331221Y-105417179D01*
X139438701Y-105417179D01*
X139867209Y-105845686D01*
X140056915Y-105858412D01*
X140130084Y-105718841D01*
X140174618Y-105567679D01*
X140188806Y-105410733D01*
X140172103Y-105254035D01*
X140125150Y-105103605D01*
X140056915Y-104975946D01*
X139867209Y-104988672D01*
X139438701Y-105417179D01*
X139331221Y-105417179D01*
X138902713Y-104988672D01*
X138713007Y-104975946D01*
X138639838Y-105115517D01*
X138634511Y-105133597D01*
X138625150Y-105103605D01*
X138556915Y-104975946D01*
X138367209Y-104988672D01*
X137938701Y-105417179D01*
X137831221Y-105417179D01*
X137402713Y-104988672D01*
X137213007Y-104975946D01*
X137139838Y-105115517D01*
X137095304Y-105266679D01*
X137081116Y-105423625D01*
X131057200Y-105423625D01*
X131057200Y-104745225D01*
X137443728Y-104745225D01*
X137456454Y-104934931D01*
X137884961Y-105363439D01*
X138313468Y-104934931D01*
X138326194Y-104745225D01*
X138943728Y-104745225D01*
X138956454Y-104934931D01*
X139384961Y-105363439D01*
X139813468Y-104934931D01*
X139826194Y-104745225D01*
X139686623Y-104672056D01*
X139535461Y-104627522D01*
X139378515Y-104613334D01*
X139221817Y-104630037D01*
X139071387Y-104676990D01*
X138943728Y-104745225D01*
X138326194Y-104745225D01*
X138186623Y-104672056D01*
X138035461Y-104627522D01*
X137878515Y-104613334D01*
X137721817Y-104630037D01*
X137571387Y-104676990D01*
X137443728Y-104745225D01*
X131057200Y-104745225D01*
X131057200Y-102889377D01*
X131189378Y-102757200D01*
X133795556Y-102757200D01*
X134013351Y-102974996D01*
X133958488Y-103057105D01*
X133903919Y-103188846D01*
X133876100Y-103328702D01*
X133876100Y-103471298D01*
X133903919Y-103611154D01*
X133958488Y-103742895D01*
X134037710Y-103861460D01*
X134138540Y-103962290D01*
X134257105Y-104041512D01*
X134388846Y-104096081D01*
X134528702Y-104123900D01*
X134671298Y-104123900D01*
X134811154Y-104096081D01*
X134942895Y-104041512D01*
X135061460Y-103962290D01*
X135162290Y-103861460D01*
X135216179Y-103780808D01*
X135272671Y-103865355D01*
X135373501Y-103966185D01*
X135492066Y-104045407D01*
X135623807Y-104099976D01*
X135763663Y-104127795D01*
X135906259Y-104127795D01*
X136046115Y-104099976D01*
X136177856Y-104045407D01*
X136296421Y-103966185D01*
X136397251Y-103865355D01*
X136476473Y-103746790D01*
X136531042Y-103615049D01*
X136558861Y-103475193D01*
X136558861Y-103332597D01*
X136531042Y-103192741D01*
X136476473Y-103061000D01*
X136397251Y-102942435D01*
X136296421Y-102841605D01*
X136177856Y-102762383D01*
X136046115Y-102707814D01*
X135906259Y-102679995D01*
X135763663Y-102679995D01*
X135758638Y-102680994D01*
X134765431Y-101687788D01*
X134751110Y-101670338D01*
X134681493Y-101613204D01*
X134602066Y-101570750D01*
X134515884Y-101544606D01*
X134448717Y-101537991D01*
X134448707Y-101537991D01*
X134426257Y-101535780D01*
X134403807Y-101537991D01*
X134008587Y-101537991D01*
X134107409Y-101439169D01*
X134124853Y-101424853D01*
X134181987Y-101355236D01*
X134224441Y-101275809D01*
X134247438Y-101200000D01*
X136661928Y-101200000D01*
X136674188Y-101324482D01*
X136710498Y-101444180D01*
X136769463Y-101554494D01*
X136848815Y-101651185D01*
X136945506Y-101730537D01*
X137055820Y-101789502D01*
X137175518Y-101825812D01*
X137300000Y-101838072D01*
X137664250Y-101835000D01*
X137823000Y-101676250D01*
X137823000Y-99627000D01*
X138077000Y-99627000D01*
X138077000Y-101676250D01*
X138235750Y-101835000D01*
X138600000Y-101838072D01*
X138724482Y-101825812D01*
X138844180Y-101789502D01*
X138954494Y-101730537D01*
X139051185Y-101651185D01*
X139130537Y-101554494D01*
X139189502Y-101444180D01*
X139225812Y-101324482D01*
X139238072Y-101200000D01*
X139235000Y-99785750D01*
X139076250Y-99627000D01*
X138077000Y-99627000D01*
X137823000Y-99627000D01*
X136823750Y-99627000D01*
X136665000Y-99785750D01*
X136661928Y-101200000D01*
X134247438Y-101200000D01*
X134250585Y-101189627D01*
X134257200Y-101122460D01*
X134257200Y-101122450D01*
X134259411Y-101100000D01*
X134257200Y-101077550D01*
X134257200Y-97800000D01*
X136661928Y-97800000D01*
X136665000Y-99214250D01*
X136823750Y-99373000D01*
X137823000Y-99373000D01*
X137823000Y-97323750D01*
X138077000Y-97323750D01*
X138077000Y-99373000D01*
X139076250Y-99373000D01*
X139235000Y-99214250D01*
X139238072Y-97800000D01*
X139225812Y-97675518D01*
X139189502Y-97555820D01*
X139130537Y-97445506D01*
X139051185Y-97348815D01*
X138954494Y-97269463D01*
X138844180Y-97210498D01*
X138724482Y-97174188D01*
X138600000Y-97161928D01*
X138235750Y-97165000D01*
X138077000Y-97323750D01*
X137823000Y-97323750D01*
X137664250Y-97165000D01*
X137300000Y-97161928D01*
X137175518Y-97174188D01*
X137055820Y-97210498D01*
X136945506Y-97269463D01*
X136848815Y-97348815D01*
X136769463Y-97445506D01*
X136710498Y-97555820D01*
X136674188Y-97675518D01*
X136661928Y-97800000D01*
X134257200Y-97800000D01*
X134257200Y-97065136D01*
X134261460Y-97062290D01*
X134362290Y-96961460D01*
X134441512Y-96842895D01*
X134496081Y-96711154D01*
X134523900Y-96571298D01*
X134523900Y-96428702D01*
X134506129Y-96339360D01*
X140649000Y-96339360D01*
X140649000Y-96660640D01*
X140711678Y-96975745D01*
X140834626Y-97272568D01*
X141013119Y-97539702D01*
X141240298Y-97766881D01*
X141507432Y-97945374D01*
X141804255Y-98068322D01*
X142119360Y-98131000D01*
X142440640Y-98131000D01*
X142755745Y-98068322D01*
X143052568Y-97945374D01*
X143319702Y-97766881D01*
X143546881Y-97539702D01*
X143725374Y-97272568D01*
X143848322Y-96975745D01*
X143911000Y-96660640D01*
X143911000Y-96339360D01*
X143848322Y-96024255D01*
X143725374Y-95727432D01*
X143546881Y-95460298D01*
X143319702Y-95233119D01*
X143052568Y-95054626D01*
X142755745Y-94931678D01*
X142440640Y-94869000D01*
X142119360Y-94869000D01*
X141804255Y-94931678D01*
X141507432Y-95054626D01*
X141240298Y-95233119D01*
X141013119Y-95460298D01*
X140834626Y-95727432D01*
X140711678Y-96024255D01*
X140649000Y-96339360D01*
X134506129Y-96339360D01*
X134496081Y-96288846D01*
X134441512Y-96157105D01*
X134362290Y-96038540D01*
X134261460Y-95937710D01*
X134142895Y-95858488D01*
X134011154Y-95803919D01*
X133871298Y-95776100D01*
X133728702Y-95776100D01*
X133588846Y-95803919D01*
X133457105Y-95858488D01*
X133338540Y-95937710D01*
X133237710Y-96038540D01*
X133158488Y-96157105D01*
X133103919Y-96288846D01*
X133076100Y-96428702D01*
X133076100Y-96571298D01*
X133103919Y-96711154D01*
X133158488Y-96842895D01*
X133237710Y-96961460D01*
X133338540Y-97062290D01*
X133342801Y-97065137D01*
X133342800Y-100910622D01*
X133020242Y-101233181D01*
X130332068Y-101233181D01*
X130309618Y-101230970D01*
X130287168Y-101233181D01*
X130287159Y-101233181D01*
X130279501Y-101233935D01*
X130282843Y-101200000D01*
X130282843Y-97800000D01*
X130275487Y-97725311D01*
X130253701Y-97653492D01*
X130218322Y-97587304D01*
X130170711Y-97529289D01*
X130112696Y-97481678D01*
X130046508Y-97446299D01*
X129974689Y-97424513D01*
X129900000Y-97417157D01*
X128600000Y-97417157D01*
X128525311Y-97424513D01*
X128453492Y-97446299D01*
X128387304Y-97481678D01*
X128329289Y-97529289D01*
X128281678Y-97587304D01*
X128246299Y-97653492D01*
X128224513Y-97725311D01*
X128217157Y-97800000D01*
X128217157Y-99104761D01*
X128192364Y-99118013D01*
X128140192Y-99160829D01*
X128140186Y-99160835D01*
X128122747Y-99175147D01*
X128108435Y-99192586D01*
X127882600Y-99418422D01*
X127882600Y-97623696D01*
X127884934Y-97599999D01*
X127882600Y-97576302D01*
X127882600Y-97576293D01*
X127875617Y-97505394D01*
X127848022Y-97414423D01*
X127803209Y-97330585D01*
X127742901Y-97257099D01*
X127724482Y-97241983D01*
X127358017Y-96875518D01*
X127342901Y-96857099D01*
X127269415Y-96796791D01*
X127185577Y-96751978D01*
X127094606Y-96724383D01*
X127023707Y-96717400D01*
X127023705Y-96717400D01*
X127000000Y-96715065D01*
X126976295Y-96717400D01*
X125535219Y-96717400D01*
X125497785Y-96627026D01*
X125411614Y-96498062D01*
X125301938Y-96388386D01*
X125172974Y-96302215D01*
X125029676Y-96242859D01*
X124877552Y-96212600D01*
X124722448Y-96212600D01*
X124570324Y-96242859D01*
X124427026Y-96302215D01*
X124298062Y-96388386D01*
X124188386Y-96498062D01*
X124175406Y-96517487D01*
X124105394Y-96524383D01*
X124014423Y-96551978D01*
X123930585Y-96596791D01*
X123857099Y-96657099D01*
X123841983Y-96675518D01*
X123475513Y-97041988D01*
X123457100Y-97057099D01*
X123441989Y-97075512D01*
X123441987Y-97075514D01*
X123396792Y-97130585D01*
X123351978Y-97214424D01*
X123324384Y-97305394D01*
X123315065Y-97400000D01*
X123317401Y-97423715D01*
X123317401Y-97764875D01*
X123224482Y-97736688D01*
X123100000Y-97724428D01*
X123085750Y-97727500D01*
X122927000Y-97886250D01*
X122927000Y-99010500D01*
X122947000Y-99010500D01*
X122947000Y-99264500D01*
X122927000Y-99264500D01*
X122927000Y-99284500D01*
X122673000Y-99284500D01*
X122673000Y-99264500D01*
X122023750Y-99264500D01*
X121865000Y-99423250D01*
X121861928Y-99912500D01*
X121874188Y-100036982D01*
X121910498Y-100156680D01*
X121918312Y-100171299D01*
X121717877Y-100171299D01*
X121594400Y-100047823D01*
X121594400Y-99558513D01*
X121596611Y-99536063D01*
X121594400Y-99513613D01*
X121594400Y-99513604D01*
X121587785Y-99446437D01*
X121561641Y-99360255D01*
X121536548Y-99313309D01*
X121519187Y-99280827D01*
X121476370Y-99228656D01*
X121462053Y-99211211D01*
X121444608Y-99196894D01*
X120610214Y-98362500D01*
X121861928Y-98362500D01*
X121865000Y-98851750D01*
X122023750Y-99010500D01*
X122673000Y-99010500D01*
X122673000Y-97886250D01*
X122514250Y-97727500D01*
X122500000Y-97724428D01*
X122375518Y-97736688D01*
X122255820Y-97772998D01*
X122145506Y-97831963D01*
X122048815Y-97911315D01*
X121969463Y-98008006D01*
X121910498Y-98118320D01*
X121874188Y-98238018D01*
X121861928Y-98362500D01*
X120610214Y-98362500D01*
X120503106Y-98255393D01*
X120488791Y-98237950D01*
X120462036Y-98215992D01*
X120419173Y-98180815D01*
X120339747Y-98138362D01*
X120339740Y-98138360D01*
X120253565Y-98112218D01*
X120186398Y-98105603D01*
X120163938Y-98103391D01*
X120141478Y-98105603D01*
X113489378Y-98105601D01*
X113357200Y-97973424D01*
X113357200Y-97817134D01*
X113424689Y-97810487D01*
X113496508Y-97788701D01*
X113562696Y-97753322D01*
X113620711Y-97705711D01*
X113668322Y-97647696D01*
X113703701Y-97581508D01*
X113725487Y-97509689D01*
X113732843Y-97435000D01*
X116011928Y-97435000D01*
X116024188Y-97559482D01*
X116060498Y-97679180D01*
X116119463Y-97789494D01*
X116198815Y-97886185D01*
X116295506Y-97965537D01*
X116405820Y-98024502D01*
X116525518Y-98060812D01*
X116650000Y-98073072D01*
X116814250Y-98070000D01*
X116973000Y-97911250D01*
X116973000Y-96927000D01*
X117227000Y-96927000D01*
X117227000Y-97911250D01*
X117385750Y-98070000D01*
X117550000Y-98073072D01*
X117674482Y-98060812D01*
X117794180Y-98024502D01*
X117904494Y-97965537D01*
X118001185Y-97886185D01*
X118080537Y-97789494D01*
X118139502Y-97679180D01*
X118175812Y-97559482D01*
X118188072Y-97435000D01*
X118185000Y-97085750D01*
X118026250Y-96927000D01*
X117227000Y-96927000D01*
X116973000Y-96927000D01*
X116173750Y-96927000D01*
X116015000Y-97085750D01*
X116011928Y-97435000D01*
X113732843Y-97435000D01*
X113732843Y-96165000D01*
X116011928Y-96165000D01*
X116015000Y-96514250D01*
X116173750Y-96673000D01*
X116973000Y-96673000D01*
X116973000Y-95688750D01*
X116814250Y-95530000D01*
X116650000Y-95526928D01*
X116525518Y-95539188D01*
X116405820Y-95575498D01*
X116295506Y-95634463D01*
X116198815Y-95713815D01*
X116119463Y-95810506D01*
X116060498Y-95920820D01*
X116024188Y-96040518D01*
X116011928Y-96165000D01*
X113732843Y-96165000D01*
X113725487Y-96090311D01*
X113703701Y-96018492D01*
X113668322Y-95952304D01*
X113620711Y-95894289D01*
X113562696Y-95846678D01*
X113496508Y-95811299D01*
X113424689Y-95789513D01*
X113350000Y-95782157D01*
X112450000Y-95782157D01*
X112375311Y-95789513D01*
X112303492Y-95811299D01*
X112237304Y-95846678D01*
X112179289Y-95894289D01*
X112131678Y-95952304D01*
X112096299Y-96018492D01*
X112074513Y-96090311D01*
X112067157Y-96165000D01*
X112067157Y-97435000D01*
X112074513Y-97509689D01*
X112096299Y-97581508D01*
X112131678Y-97647696D01*
X112179289Y-97705711D01*
X112237304Y-97753322D01*
X112303492Y-97788701D01*
X112375311Y-97810487D01*
X112442800Y-97817134D01*
X112442800Y-98140351D01*
X112440589Y-98162801D01*
X112442800Y-98185251D01*
X112442800Y-98185260D01*
X112449415Y-98252427D01*
X112475559Y-98338609D01*
X112513937Y-98410411D01*
X106454839Y-98410410D01*
X106432389Y-98408199D01*
X106409939Y-98410410D01*
X106409931Y-98410410D01*
X106342764Y-98417025D01*
X106256582Y-98443169D01*
X106256580Y-98443170D01*
X106177153Y-98485623D01*
X106124982Y-98528440D01*
X106124977Y-98528445D01*
X106107538Y-98542757D01*
X106093226Y-98560196D01*
X100576323Y-104077100D01*
X100571298Y-104076100D01*
X100428702Y-104076100D01*
X100288846Y-104103919D01*
X100157105Y-104158488D01*
X100038540Y-104237710D01*
X99937710Y-104338540D01*
X99858488Y-104457105D01*
X99803919Y-104588846D01*
X99776100Y-104728702D01*
X99776100Y-104871298D01*
X99803919Y-105011154D01*
X99858488Y-105142895D01*
X99930053Y-105250000D01*
X99858488Y-105357105D01*
X99803919Y-105488846D01*
X99776100Y-105628702D01*
X99776100Y-105771298D01*
X99803919Y-105911154D01*
X99858488Y-106042895D01*
X99937710Y-106161460D01*
X100038540Y-106262290D01*
X100157105Y-106341512D01*
X100288846Y-106396081D01*
X100428702Y-106423900D01*
X100571298Y-106423900D01*
X100711154Y-106396081D01*
X100842895Y-106341512D01*
X100961460Y-106262290D01*
X101062290Y-106161460D01*
X101107065Y-106094448D01*
X104112600Y-106094448D01*
X104112600Y-106249552D01*
X104142859Y-106401676D01*
X104202215Y-106544974D01*
X104288386Y-106673938D01*
X104398062Y-106783614D01*
X104527026Y-106869785D01*
X104670324Y-106929141D01*
X104822448Y-106959400D01*
X104977552Y-106959400D01*
X105129676Y-106929141D01*
X105272974Y-106869785D01*
X105401938Y-106783614D01*
X105511614Y-106673938D01*
X105524535Y-106654600D01*
X107071465Y-106654600D01*
X107084386Y-106673938D01*
X107194062Y-106783614D01*
X107323026Y-106869785D01*
X107466324Y-106929141D01*
X107618448Y-106959400D01*
X107773552Y-106959400D01*
X107925676Y-106929141D01*
X108068974Y-106869785D01*
X108197938Y-106783614D01*
X108307614Y-106673938D01*
X108393785Y-106544974D01*
X108453141Y-106401676D01*
X108483400Y-106249552D01*
X108483400Y-106094448D01*
X108453141Y-105942324D01*
X108393785Y-105799026D01*
X108307614Y-105670062D01*
X108197938Y-105560386D01*
X108068974Y-105474215D01*
X107925676Y-105414859D01*
X107773552Y-105384600D01*
X107618448Y-105384600D01*
X107466324Y-105414859D01*
X107323026Y-105474215D01*
X107194062Y-105560386D01*
X107084386Y-105670062D01*
X107071465Y-105689400D01*
X105524535Y-105689400D01*
X105511614Y-105670062D01*
X105401938Y-105560386D01*
X105272974Y-105474215D01*
X105129676Y-105414859D01*
X104977552Y-105384600D01*
X104822448Y-105384600D01*
X104670324Y-105414859D01*
X104527026Y-105474215D01*
X104398062Y-105560386D01*
X104288386Y-105670062D01*
X104202215Y-105799026D01*
X104142859Y-105942324D01*
X104112600Y-106094448D01*
X101107065Y-106094448D01*
X101141512Y-106042895D01*
X101196081Y-105911154D01*
X101223900Y-105771298D01*
X101223900Y-105628702D01*
X101222900Y-105623677D01*
X101592443Y-105254135D01*
X101609888Y-105239818D01*
X101667022Y-105170201D01*
X101709476Y-105090774D01*
X101735620Y-105004592D01*
X101742235Y-104937425D01*
X101742235Y-104937416D01*
X101744446Y-104914966D01*
X101742235Y-104892516D01*
X101742235Y-104674412D01*
X106759448Y-99657200D01*
X112876222Y-99657200D01*
X112566266Y-99967157D01*
X112090000Y-99967157D01*
X112015311Y-99974513D01*
X111943492Y-99996299D01*
X111877304Y-100031678D01*
X111819289Y-100079289D01*
X111771678Y-100137304D01*
X111736299Y-100203492D01*
X111714513Y-100275311D01*
X111707157Y-100350000D01*
X111707157Y-102750000D01*
X111714513Y-102824689D01*
X111718548Y-102837990D01*
X111496193Y-102837990D01*
X111473743Y-102835779D01*
X111451293Y-102837990D01*
X111451284Y-102837990D01*
X111384117Y-102844605D01*
X111297935Y-102870749D01*
X111262618Y-102889626D01*
X111218507Y-102913203D01*
X111166688Y-102955731D01*
X111148891Y-102970337D01*
X111134574Y-102987782D01*
X110587783Y-103534574D01*
X110570339Y-103548890D01*
X110556022Y-103566335D01*
X110556021Y-103566336D01*
X110513204Y-103618508D01*
X110488911Y-103663959D01*
X110470751Y-103697934D01*
X110454232Y-103752390D01*
X110444607Y-103784117D01*
X110435780Y-103873743D01*
X110437992Y-103896203D01*
X110437991Y-108255807D01*
X110435780Y-108278257D01*
X110437991Y-108300707D01*
X110437991Y-108300716D01*
X110444606Y-108367883D01*
X110470750Y-108454065D01*
X110513204Y-108533492D01*
X110570338Y-108603110D01*
X110587788Y-108617431D01*
X111040578Y-109070222D01*
X111054890Y-109087661D01*
X111072329Y-109101973D01*
X111072335Y-109101979D01*
X111124507Y-109144796D01*
X111203933Y-109187249D01*
X111290116Y-109213393D01*
X111379742Y-109222220D01*
X111402202Y-109220008D01*
X115642801Y-109220010D01*
X115642801Y-109434863D01*
X115638540Y-109437710D01*
X115537710Y-109538540D01*
X115458488Y-109657105D01*
X115403919Y-109788846D01*
X115376100Y-109928702D01*
X115376100Y-110071298D01*
X115403919Y-110211154D01*
X115458488Y-110342895D01*
X115537710Y-110461460D01*
X115638540Y-110562290D01*
X115757105Y-110641512D01*
X115888846Y-110696081D01*
X116028702Y-110723900D01*
X116062117Y-110723900D01*
X116046299Y-110753492D01*
X116024513Y-110825311D01*
X116017157Y-110900000D01*
X116017157Y-112500000D01*
X116024513Y-112574689D01*
X116046299Y-112646508D01*
X116081678Y-112712696D01*
X116129289Y-112770711D01*
X116187304Y-112818322D01*
X116253492Y-112853701D01*
X116325311Y-112875487D01*
X116400000Y-112882843D01*
X117517401Y-112882843D01*
X117517401Y-113676285D01*
X117515065Y-113700000D01*
X117524384Y-113794606D01*
X117551978Y-113885576D01*
X117596792Y-113969415D01*
X117617983Y-113995236D01*
X117657100Y-114042901D01*
X117675513Y-114058012D01*
X118541983Y-114924482D01*
X118557099Y-114942901D01*
X118630585Y-115003209D01*
X118714423Y-115048022D01*
X118805394Y-115075617D01*
X118876293Y-115082600D01*
X118876294Y-115082600D01*
X118899999Y-115084935D01*
X118923704Y-115082600D01*
X120875465Y-115082600D01*
X120888386Y-115101938D01*
X120998062Y-115211614D01*
X121127026Y-115297785D01*
X121270324Y-115357141D01*
X121422448Y-115387400D01*
X121577552Y-115387400D01*
X121729676Y-115357141D01*
X121872974Y-115297785D01*
X122001938Y-115211614D01*
X122111614Y-115101938D01*
X122126373Y-115079849D01*
X122169342Y-115075617D01*
X122260313Y-115048022D01*
X122344151Y-115003209D01*
X122417637Y-114942901D01*
X122432753Y-114924482D01*
X122926935Y-114430301D01*
X123278740Y-114430301D01*
X123246299Y-114490992D01*
X123224513Y-114562811D01*
X123217157Y-114637500D01*
X123217157Y-116409000D01*
X96541079Y-116409000D01*
X96110763Y-116366807D01*
X95717111Y-116247957D01*
X95354043Y-116054911D01*
X95035383Y-115795018D01*
X94773274Y-115478183D01*
X94577697Y-115116472D01*
X94456101Y-114723658D01*
X94411000Y-114294554D01*
X94411000Y-114114738D01*
X94619000Y-114114738D01*
X94619000Y-114485262D01*
X94691286Y-114848667D01*
X94833080Y-115190987D01*
X95038932Y-115499067D01*
X95300933Y-115761068D01*
X95609013Y-115966920D01*
X95951333Y-116108714D01*
X96314738Y-116181000D01*
X96685262Y-116181000D01*
X97048667Y-116108714D01*
X97390987Y-115966920D01*
X97699067Y-115761068D01*
X97961068Y-115499067D01*
X98166920Y-115190987D01*
X98308714Y-114848667D01*
X98374457Y-114518154D01*
X101769000Y-114518154D01*
X101769000Y-114681846D01*
X101800935Y-114842394D01*
X101863577Y-114993626D01*
X101954520Y-115129732D01*
X102070268Y-115245480D01*
X102206374Y-115336423D01*
X102357606Y-115399065D01*
X102518154Y-115431000D01*
X102681846Y-115431000D01*
X102842394Y-115399065D01*
X102993626Y-115336423D01*
X103129732Y-115245480D01*
X103245480Y-115129732D01*
X103336423Y-114993626D01*
X103399065Y-114842394D01*
X103431000Y-114681846D01*
X103431000Y-114518154D01*
X108569000Y-114518154D01*
X108569000Y-114681846D01*
X108600935Y-114842394D01*
X108663577Y-114993626D01*
X108754520Y-115129732D01*
X108870268Y-115245480D01*
X109006374Y-115336423D01*
X109157606Y-115399065D01*
X109318154Y-115431000D01*
X109481846Y-115431000D01*
X109642394Y-115399065D01*
X109793626Y-115336423D01*
X109929732Y-115245480D01*
X110045480Y-115129732D01*
X110136423Y-114993626D01*
X110199065Y-114842394D01*
X110231000Y-114681846D01*
X110231000Y-114518154D01*
X110199065Y-114357606D01*
X110136423Y-114206374D01*
X110045480Y-114070268D01*
X109929732Y-113954520D01*
X109793626Y-113863577D01*
X109642394Y-113800935D01*
X109481846Y-113769000D01*
X109318154Y-113769000D01*
X109157606Y-113800935D01*
X109006374Y-113863577D01*
X108870268Y-113954520D01*
X108754520Y-114070268D01*
X108663577Y-114206374D01*
X108600935Y-114357606D01*
X108569000Y-114518154D01*
X103431000Y-114518154D01*
X103399065Y-114357606D01*
X103336423Y-114206374D01*
X103245480Y-114070268D01*
X103129732Y-113954520D01*
X102993626Y-113863577D01*
X102842394Y-113800935D01*
X102681846Y-113769000D01*
X102518154Y-113769000D01*
X102357606Y-113800935D01*
X102206374Y-113863577D01*
X102070268Y-113954520D01*
X101954520Y-114070268D01*
X101863577Y-114206374D01*
X101800935Y-114357606D01*
X101769000Y-114518154D01*
X98374457Y-114518154D01*
X98381000Y-114485262D01*
X98381000Y-114114738D01*
X98308714Y-113751333D01*
X98166920Y-113409013D01*
X97961068Y-113100933D01*
X97960135Y-113100000D01*
X102236928Y-113100000D01*
X102249188Y-113224482D01*
X102285498Y-113344180D01*
X102344463Y-113454494D01*
X102423815Y-113551185D01*
X102520506Y-113630537D01*
X102630820Y-113689502D01*
X102750518Y-113725812D01*
X102875000Y-113738072D01*
X103214250Y-113735000D01*
X103373000Y-113576250D01*
X103373000Y-111977000D01*
X103627000Y-111977000D01*
X103627000Y-113576250D01*
X103785750Y-113735000D01*
X104125000Y-113738072D01*
X104249482Y-113725812D01*
X104369180Y-113689502D01*
X104479494Y-113630537D01*
X104576185Y-113551185D01*
X104655537Y-113454494D01*
X104714502Y-113344180D01*
X104750812Y-113224482D01*
X104763072Y-113100000D01*
X104760000Y-112135750D01*
X104601250Y-111977000D01*
X103627000Y-111977000D01*
X103373000Y-111977000D01*
X102398750Y-111977000D01*
X102240000Y-112135750D01*
X102236928Y-113100000D01*
X97960135Y-113100000D01*
X97699067Y-112838932D01*
X97390987Y-112633080D01*
X97048667Y-112491286D01*
X96685262Y-112419000D01*
X96314738Y-112419000D01*
X95951333Y-112491286D01*
X95609013Y-112633080D01*
X95300933Y-112838932D01*
X95038932Y-113100933D01*
X94833080Y-113409013D01*
X94691286Y-113751333D01*
X94619000Y-114114738D01*
X94411000Y-114114738D01*
X94411000Y-110600000D01*
X102236928Y-110600000D01*
X102240000Y-111564250D01*
X102398750Y-111723000D01*
X103373000Y-111723000D01*
X103373000Y-110123750D01*
X103627000Y-110123750D01*
X103627000Y-111723000D01*
X104601250Y-111723000D01*
X104760000Y-111564250D01*
X104763072Y-110600000D01*
X104992157Y-110600000D01*
X104992157Y-113100000D01*
X104999513Y-113174689D01*
X105021299Y-113246508D01*
X105056678Y-113312696D01*
X105104289Y-113370711D01*
X105162304Y-113418322D01*
X105228492Y-113453701D01*
X105300311Y-113475487D01*
X105375000Y-113482843D01*
X106625000Y-113482843D01*
X106699689Y-113475487D01*
X106771508Y-113453701D01*
X106837696Y-113418322D01*
X106895711Y-113370711D01*
X106943322Y-113312696D01*
X106978701Y-113246508D01*
X107000487Y-113174689D01*
X107007843Y-113100000D01*
X107007843Y-110600000D01*
X107000487Y-110525311D01*
X106978701Y-110453492D01*
X106943322Y-110387304D01*
X106895711Y-110329289D01*
X106837696Y-110281678D01*
X106821276Y-110272901D01*
X106908978Y-110185200D01*
X108857301Y-110185200D01*
X108825344Y-110217157D01*
X107875000Y-110217157D01*
X107800311Y-110224513D01*
X107728492Y-110246299D01*
X107662304Y-110281678D01*
X107604289Y-110329289D01*
X107556678Y-110387304D01*
X107521299Y-110453492D01*
X107499513Y-110525311D01*
X107492157Y-110600000D01*
X107492157Y-113100000D01*
X107499513Y-113174689D01*
X107521299Y-113246508D01*
X107556678Y-113312696D01*
X107604289Y-113370711D01*
X107662304Y-113418322D01*
X107728492Y-113453701D01*
X107800311Y-113475487D01*
X107875000Y-113482843D01*
X109125000Y-113482843D01*
X109199689Y-113475487D01*
X109271508Y-113453701D01*
X109337696Y-113418322D01*
X109395711Y-113370711D01*
X109443322Y-113312696D01*
X109478701Y-113246508D01*
X109500487Y-113174689D01*
X109507843Y-113100000D01*
X109507843Y-112500000D01*
X110761928Y-112500000D01*
X110774188Y-112624482D01*
X110810498Y-112744180D01*
X110869463Y-112854494D01*
X110948815Y-112951185D01*
X111045506Y-113030537D01*
X111155820Y-113089502D01*
X111275518Y-113125812D01*
X111400000Y-113138072D01*
X112714250Y-113135000D01*
X112873000Y-112976250D01*
X112873000Y-111827000D01*
X113127000Y-111827000D01*
X113127000Y-112976250D01*
X113285750Y-113135000D01*
X114600000Y-113138072D01*
X114724482Y-113125812D01*
X114844180Y-113089502D01*
X114954494Y-113030537D01*
X115051185Y-112951185D01*
X115130537Y-112854494D01*
X115189502Y-112744180D01*
X115225812Y-112624482D01*
X115238072Y-112500000D01*
X115235000Y-111985750D01*
X115076250Y-111827000D01*
X113127000Y-111827000D01*
X112873000Y-111827000D01*
X110923750Y-111827000D01*
X110765000Y-111985750D01*
X110761928Y-112500000D01*
X109507843Y-112500000D01*
X109507843Y-110899656D01*
X109688899Y-110718600D01*
X110119465Y-110718600D01*
X110132386Y-110737938D01*
X110242062Y-110847614D01*
X110371026Y-110933785D01*
X110514324Y-110993141D01*
X110666448Y-111023400D01*
X110762665Y-111023400D01*
X110765000Y-111414250D01*
X110923750Y-111573000D01*
X112873000Y-111573000D01*
X112873000Y-110423750D01*
X113127000Y-110423750D01*
X113127000Y-111573000D01*
X115076250Y-111573000D01*
X115235000Y-111414250D01*
X115238072Y-110900000D01*
X115225812Y-110775518D01*
X115189502Y-110655820D01*
X115130537Y-110545506D01*
X115051185Y-110448815D01*
X114954494Y-110369463D01*
X114844180Y-110310498D01*
X114724482Y-110274188D01*
X114600000Y-110261928D01*
X113285750Y-110265000D01*
X113127000Y-110423750D01*
X112873000Y-110423750D01*
X112714250Y-110265000D01*
X111531400Y-110262235D01*
X111531400Y-110158448D01*
X111501141Y-110006324D01*
X111441785Y-109863026D01*
X111355614Y-109734062D01*
X111245938Y-109624386D01*
X111116974Y-109538215D01*
X110973676Y-109478859D01*
X110821552Y-109448600D01*
X110666448Y-109448600D01*
X110514324Y-109478859D01*
X110371026Y-109538215D01*
X110242062Y-109624386D01*
X110132386Y-109734062D01*
X110119465Y-109753400D01*
X109841178Y-109753400D01*
X110035409Y-109559169D01*
X110052853Y-109544853D01*
X110068785Y-109525440D01*
X110109987Y-109475237D01*
X110134106Y-109430111D01*
X110152441Y-109395809D01*
X110178585Y-109309627D01*
X110185200Y-109242460D01*
X110185200Y-109242451D01*
X110187411Y-109220001D01*
X110185200Y-109197551D01*
X110185200Y-103400450D01*
X110187411Y-103378000D01*
X110185200Y-103355550D01*
X110185200Y-103355540D01*
X110178585Y-103288373D01*
X110152441Y-103202191D01*
X110152441Y-103202190D01*
X110109987Y-103122764D01*
X110067171Y-103070592D01*
X110067165Y-103070586D01*
X110052853Y-103053147D01*
X110035413Y-103038835D01*
X109742903Y-102746325D01*
X109753400Y-102693552D01*
X109753400Y-102538448D01*
X109723141Y-102386324D01*
X109663785Y-102243026D01*
X109577614Y-102114062D01*
X109467938Y-102004386D01*
X109338974Y-101918215D01*
X109195676Y-101858859D01*
X109043552Y-101828600D01*
X108888448Y-101828600D01*
X108736324Y-101858859D01*
X108593026Y-101918215D01*
X108464062Y-102004386D01*
X108354386Y-102114062D01*
X108268215Y-102243026D01*
X108208859Y-102386324D01*
X108178600Y-102538448D01*
X108178600Y-102693552D01*
X108208859Y-102845676D01*
X108268215Y-102988974D01*
X108354386Y-103117938D01*
X108464062Y-103227614D01*
X108593026Y-103313785D01*
X108736324Y-103373141D01*
X108888448Y-103403400D01*
X109043552Y-103403400D01*
X109096325Y-103392903D01*
X109270801Y-103567380D01*
X109270800Y-109030622D01*
X109030623Y-109270800D01*
X106742049Y-109270800D01*
X106719599Y-109268589D01*
X106697149Y-109270800D01*
X106697140Y-109270800D01*
X106629973Y-109277415D01*
X106543791Y-109303559D01*
X106464364Y-109346013D01*
X106394747Y-109403147D01*
X106380430Y-109420592D01*
X105692592Y-110108431D01*
X105675148Y-110122747D01*
X105660831Y-110140192D01*
X105660830Y-110140193D01*
X105618013Y-110192365D01*
X105604762Y-110217157D01*
X105375000Y-110217157D01*
X105300311Y-110224513D01*
X105228492Y-110246299D01*
X105162304Y-110281678D01*
X105104289Y-110329289D01*
X105056678Y-110387304D01*
X105021299Y-110453492D01*
X104999513Y-110525311D01*
X104992157Y-110600000D01*
X104763072Y-110600000D01*
X104750812Y-110475518D01*
X104714502Y-110355820D01*
X104655537Y-110245506D01*
X104576185Y-110148815D01*
X104479494Y-110069463D01*
X104369180Y-110010498D01*
X104249482Y-109974188D01*
X104125000Y-109961928D01*
X103785750Y-109965000D01*
X103627000Y-110123750D01*
X103373000Y-110123750D01*
X103214250Y-109965000D01*
X102875000Y-109961928D01*
X102750518Y-109974188D01*
X102630820Y-110010498D01*
X102520506Y-110069463D01*
X102423815Y-110148815D01*
X102344463Y-110245506D01*
X102285498Y-110355820D01*
X102249188Y-110475518D01*
X102236928Y-110600000D01*
X94411000Y-110600000D01*
X94411000Y-109963912D01*
X94468054Y-110002390D01*
X94692504Y-110096493D01*
X94931000Y-110145000D01*
X95281000Y-110145000D01*
X95281000Y-109037000D01*
X95535000Y-109037000D01*
X95535000Y-110145000D01*
X95885000Y-110145000D01*
X96123496Y-110096493D01*
X96347946Y-110002390D01*
X96549725Y-109866307D01*
X96721078Y-109693474D01*
X96855421Y-109490533D01*
X96947591Y-109265282D01*
X96951462Y-109227609D01*
X96826731Y-109037000D01*
X95535000Y-109037000D01*
X95281000Y-109037000D01*
X95261000Y-109037000D01*
X95261000Y-108849133D01*
X97348472Y-108849133D01*
X97410965Y-109085450D01*
X97653678Y-109198850D01*
X97913849Y-109262719D01*
X98181482Y-109274604D01*
X98446291Y-109234048D01*
X98698100Y-109142609D01*
X98805035Y-109085450D01*
X98867528Y-108849133D01*
X98108000Y-108089605D01*
X97348472Y-108849133D01*
X95261000Y-108849133D01*
X95261000Y-108783000D01*
X95281000Y-108783000D01*
X95281000Y-107675000D01*
X95535000Y-107675000D01*
X95535000Y-108783000D01*
X96826731Y-108783000D01*
X96940503Y-108609138D01*
X97168867Y-108669528D01*
X97928395Y-107910000D01*
X98287605Y-107910000D01*
X99047133Y-108669528D01*
X99283450Y-108607035D01*
X99396850Y-108364322D01*
X99460719Y-108104151D01*
X99472604Y-107836518D01*
X99432048Y-107571709D01*
X99340609Y-107319900D01*
X99283450Y-107212965D01*
X99047133Y-107150472D01*
X98287605Y-107910000D01*
X97928395Y-107910000D01*
X97168867Y-107150472D01*
X96932550Y-107212965D01*
X96819150Y-107455678D01*
X96755281Y-107715849D01*
X96743396Y-107983482D01*
X96778615Y-108213442D01*
X96721078Y-108126526D01*
X96549725Y-107953693D01*
X96347946Y-107817610D01*
X96123496Y-107723507D01*
X95885000Y-107675000D01*
X95535000Y-107675000D01*
X95281000Y-107675000D01*
X94931000Y-107675000D01*
X94692504Y-107723507D01*
X94468054Y-107817610D01*
X94411000Y-107856088D01*
X94411000Y-106970867D01*
X97348472Y-106970867D01*
X98108000Y-107730395D01*
X98867528Y-106970867D01*
X98805035Y-106734550D01*
X98562322Y-106621150D01*
X98302151Y-106557281D01*
X98034518Y-106545396D01*
X97769709Y-106585952D01*
X97517900Y-106677391D01*
X97410965Y-106734550D01*
X97348472Y-106970867D01*
X94411000Y-106970867D01*
X94411000Y-103849133D01*
X97348472Y-103849133D01*
X97410965Y-104085450D01*
X97653678Y-104198850D01*
X97913849Y-104262719D01*
X98181482Y-104274604D01*
X98446291Y-104234048D01*
X98698100Y-104142609D01*
X98805035Y-104085450D01*
X98867528Y-103849133D01*
X98108000Y-103089605D01*
X97348472Y-103849133D01*
X94411000Y-103849133D01*
X94411000Y-102964522D01*
X94583099Y-103056511D01*
X94815898Y-103127130D01*
X94997335Y-103145000D01*
X95818665Y-103145000D01*
X96000102Y-103127130D01*
X96232901Y-103056511D01*
X96447449Y-102941833D01*
X96635502Y-102787502D01*
X96781305Y-102609841D01*
X96755281Y-102715849D01*
X96743396Y-102983482D01*
X96783952Y-103248291D01*
X96875391Y-103500100D01*
X96932550Y-103607035D01*
X97168867Y-103669528D01*
X97928395Y-102910000D01*
X98287605Y-102910000D01*
X99047133Y-103669528D01*
X99283450Y-103607035D01*
X99396850Y-103364322D01*
X99460719Y-103104151D01*
X99472604Y-102836518D01*
X99432048Y-102571709D01*
X99340609Y-102319900D01*
X99283450Y-102212965D01*
X99047133Y-102150472D01*
X98287605Y-102910000D01*
X97928395Y-102910000D01*
X97168867Y-102150472D01*
X96958771Y-102206031D01*
X96975130Y-102152102D01*
X96992980Y-101970867D01*
X97348472Y-101970867D01*
X98108000Y-102730395D01*
X98867528Y-101970867D01*
X98805035Y-101734550D01*
X98562322Y-101621150D01*
X98302151Y-101557281D01*
X98034518Y-101545396D01*
X97769709Y-101585952D01*
X97517900Y-101677391D01*
X97410965Y-101734550D01*
X97348472Y-101970867D01*
X96992980Y-101970867D01*
X96998975Y-101910000D01*
X96975130Y-101667898D01*
X96904511Y-101435099D01*
X96789833Y-101220551D01*
X96635502Y-101032498D01*
X96447449Y-100878167D01*
X96232901Y-100763489D01*
X96000102Y-100692870D01*
X95818665Y-100675000D01*
X94997335Y-100675000D01*
X94815898Y-100692870D01*
X94583099Y-100763489D01*
X94411000Y-100855478D01*
X94411000Y-96541079D01*
X94432212Y-96324738D01*
X94659000Y-96324738D01*
X94659000Y-96695262D01*
X94731286Y-97058667D01*
X94873080Y-97400987D01*
X95078932Y-97709067D01*
X95340933Y-97971068D01*
X95649013Y-98176920D01*
X95991333Y-98318714D01*
X96354738Y-98391000D01*
X96725262Y-98391000D01*
X97088667Y-98318714D01*
X97430987Y-98176920D01*
X97739067Y-97971068D01*
X98001068Y-97709067D01*
X98206920Y-97400987D01*
X98348714Y-97058667D01*
X98421000Y-96695262D01*
X98421000Y-96324738D01*
X98348714Y-95961333D01*
X98206920Y-95619013D01*
X98001068Y-95310933D01*
X97739067Y-95048932D01*
X97430987Y-94843080D01*
X97088667Y-94701286D01*
X96725262Y-94629000D01*
X96354738Y-94629000D01*
X95991333Y-94701286D01*
X95649013Y-94843080D01*
X95340933Y-95048932D01*
X95078932Y-95310933D01*
X94873080Y-95619013D01*
X94731286Y-95961333D01*
X94659000Y-96324738D01*
X94432212Y-96324738D01*
X94453193Y-96110762D01*
X94572044Y-95717107D01*
X94765089Y-95354043D01*
X95024979Y-95035385D01*
X95341820Y-94773272D01*
X95703528Y-94577697D01*
X96096343Y-94456101D01*
X96525446Y-94411000D01*
X110553854Y-94411000D01*
X110549513Y-94425311D01*
G37*
X110549513Y-94425311D02*
X110542157Y-94500000D01*
X110542157Y-95300000D01*
X110549513Y-95374689D01*
X110571299Y-95446508D01*
X110606678Y-95512696D01*
X110654289Y-95570711D01*
X110712304Y-95618322D01*
X110778492Y-95653701D01*
X110850311Y-95675487D01*
X110925000Y-95682843D01*
X112375000Y-95682843D01*
X112449689Y-95675487D01*
X112521508Y-95653701D01*
X112587696Y-95618322D01*
X112645711Y-95570711D01*
X112693322Y-95512696D01*
X112728701Y-95446508D01*
X112750487Y-95374689D01*
X112757843Y-95300000D01*
X112757843Y-94500000D01*
X112750487Y-94425311D01*
X112746146Y-94411000D01*
X117253854Y-94411000D01*
X117249513Y-94425311D01*
X117242157Y-94500000D01*
X117242157Y-95300000D01*
X117249513Y-95374689D01*
X117271299Y-95446508D01*
X117306678Y-95512696D01*
X117350120Y-95565630D01*
X117227000Y-95688750D01*
X117227000Y-96673000D01*
X118026250Y-96673000D01*
X118185000Y-96514250D01*
X118188072Y-96165000D01*
X118175812Y-96040518D01*
X118139502Y-95920820D01*
X118080537Y-95810506D01*
X118001185Y-95713815D01*
X117963445Y-95682843D01*
X119075000Y-95682843D01*
X119149689Y-95675487D01*
X119221508Y-95653701D01*
X119287696Y-95618322D01*
X119345711Y-95570711D01*
X119393322Y-95512696D01*
X119428701Y-95446508D01*
X119450487Y-95374689D01*
X119457843Y-95300000D01*
X119457843Y-94500000D01*
X119450487Y-94425311D01*
X119446146Y-94411000D01*
X120517157Y-94411000D01*
X120517157Y-96162500D01*
X120524513Y-96237189D01*
X120546299Y-96309008D01*
X120581678Y-96375196D01*
X120629289Y-96433211D01*
X120687304Y-96480822D01*
X120753492Y-96516201D01*
X120825311Y-96537987D01*
X120900000Y-96545343D01*
X122100000Y-96545343D01*
X122174689Y-96537987D01*
X122246508Y-96516201D01*
X122312696Y-96480822D01*
X122370711Y-96433211D01*
X122418322Y-96375196D01*
X122453701Y-96309008D01*
X122475487Y-96237189D01*
X122482843Y-96162500D01*
X122482843Y-94411000D01*
X126117157Y-94411000D01*
X126117157Y-96162500D01*
X126124513Y-96237189D01*
X126146299Y-96309008D01*
X126181678Y-96375196D01*
X126229289Y-96433211D01*
X126287304Y-96480822D01*
X126353492Y-96516201D01*
X126425311Y-96537987D01*
X126500000Y-96545343D01*
X127700000Y-96545343D01*
X127774689Y-96537987D01*
X127846508Y-96516201D01*
X127912696Y-96480822D01*
X127970711Y-96433211D01*
X128018322Y-96375196D01*
X128053701Y-96309008D01*
X128075487Y-96237189D01*
X128082843Y-96162500D01*
X128082843Y-94411000D01*
X142218921Y-94411000D01*
X142649238Y-94453193D01*
X143042893Y-94572044D01*
X143405957Y-94765089D01*
X143724615Y-95024979D01*
X143986728Y-95341820D01*
X144182303Y-95703528D01*
X144303899Y-96096343D01*
X144349000Y-96525446D01*
X144349001Y-106342850D01*
X144297785Y-106219205D01*
X144211614Y-106090241D01*
X144101938Y-105980565D01*
X143972974Y-105894394D01*
X143829676Y-105835038D01*
X143690546Y-105807364D01*
X143703793Y-105794117D01*
X143789964Y-105665153D01*
X143849320Y-105521855D01*
X143879579Y-105369731D01*
X143879579Y-105214627D01*
X143849320Y-105062503D01*
X143789964Y-104919205D01*
X143703793Y-104790241D01*
X143594117Y-104680565D01*
X143465153Y-104594394D01*
X143321855Y-104535038D01*
X143169731Y-104504779D01*
X143014627Y-104504779D01*
X142862503Y-104535038D01*
X142719205Y-104594394D01*
X142590241Y-104680565D01*
X142480565Y-104790241D01*
X142394394Y-104919205D01*
X142335038Y-105062503D01*
X142304779Y-105214627D01*
X142304779Y-105369731D01*
X142308776Y-105389826D01*
X142308522Y-105390035D01*
X142293411Y-105408448D01*
X142293409Y-105408450D01*
X142248214Y-105463521D01*
X142203400Y-105547360D01*
X142175806Y-105638330D01*
X142166487Y-105732936D01*
X142168823Y-105756651D01*
X142168822Y-108112075D01*
X142166487Y-108135780D01*
X142168822Y-108159485D01*
X142168822Y-108159486D01*
X142175805Y-108230385D01*
X142203400Y-108321356D01*
X142248213Y-108405195D01*
X142275604Y-108438571D01*
X142270421Y-108464627D01*
X142270421Y-108619731D01*
X142300680Y-108771855D01*
X142360036Y-108915153D01*
X142446207Y-109044117D01*
X142555883Y-109153793D01*
X142575222Y-109166715D01*
X142575221Y-109842280D01*
X142200101Y-110217400D01*
X141963829Y-110217400D01*
X142003209Y-110169415D01*
X142048022Y-110085577D01*
X142075617Y-109994606D01*
X142082600Y-109923707D01*
X142082600Y-109923706D01*
X142084935Y-109900001D01*
X142082600Y-109876296D01*
X142082600Y-101623707D01*
X142084935Y-101600000D01*
X142075617Y-101505393D01*
X142048022Y-101414423D01*
X142031212Y-101382974D01*
X142003209Y-101330585D01*
X141942901Y-101257099D01*
X141924488Y-101241988D01*
X140982863Y-100300363D01*
X140987400Y-100277552D01*
X140987400Y-100122448D01*
X140957141Y-99970324D01*
X140897785Y-99827026D01*
X140811614Y-99698062D01*
X140701938Y-99588386D01*
X140572974Y-99502215D01*
X140429676Y-99442859D01*
X140277552Y-99412600D01*
X140122448Y-99412600D01*
X139970324Y-99442859D01*
X139827026Y-99502215D01*
X139698062Y-99588386D01*
X139588386Y-99698062D01*
X139502215Y-99827026D01*
X139442859Y-99970324D01*
X139412600Y-100122448D01*
X139412600Y-100277552D01*
X139442859Y-100429676D01*
X139502215Y-100572974D01*
X139588386Y-100701938D01*
X139698062Y-100811614D01*
X139827026Y-100897785D01*
X139970324Y-100957141D01*
X140122448Y-100987400D01*
X140277552Y-100987400D01*
X140300363Y-100982863D01*
X141117401Y-101799901D01*
X141117400Y-109700101D01*
X141100101Y-109717400D01*
X139898432Y-109717400D01*
X139874735Y-109715066D01*
X139851038Y-109717400D01*
X139851029Y-109717400D01*
X139780130Y-109724383D01*
X139689159Y-109751978D01*
X139605321Y-109796791D01*
X139531835Y-109857099D01*
X139516719Y-109875518D01*
X139102895Y-110289343D01*
X139101938Y-110288386D01*
X138972974Y-110202215D01*
X138829676Y-110142859D01*
X138677552Y-110112600D01*
X138522448Y-110112600D01*
X138370324Y-110142859D01*
X138227026Y-110202215D01*
X138098062Y-110288386D01*
X137988386Y-110398062D01*
X137902215Y-110527026D01*
X137842859Y-110670324D01*
X137812600Y-110822448D01*
X137812600Y-110977552D01*
X137842859Y-111129676D01*
X137902215Y-111272974D01*
X137988386Y-111401938D01*
X137997438Y-111410990D01*
X136215290Y-111410990D01*
X135859341Y-111055042D01*
X135870711Y-111045711D01*
X135918322Y-110987696D01*
X135953701Y-110921508D01*
X135975487Y-110849689D01*
X135982843Y-110775000D01*
X135982843Y-109089133D01*
X137443728Y-109089133D01*
X137583299Y-109162302D01*
X137734461Y-109206836D01*
X137891407Y-109221024D01*
X138048105Y-109204321D01*
X138198535Y-109157368D01*
X138326194Y-109089133D01*
X138943728Y-109089133D01*
X139083299Y-109162302D01*
X139234461Y-109206836D01*
X139391407Y-109221024D01*
X139548105Y-109204321D01*
X139698535Y-109157368D01*
X139826194Y-109089133D01*
X139813468Y-108899427D01*
X139384961Y-108470919D01*
X138956454Y-108899427D01*
X138943728Y-109089133D01*
X138326194Y-109089133D01*
X138313468Y-108899427D01*
X137884961Y-108470919D01*
X137456454Y-108899427D01*
X137443728Y-109089133D01*
X135982843Y-109089133D01*
X135982843Y-108423625D01*
X137081116Y-108423625D01*
X137097819Y-108580323D01*
X137144772Y-108730753D01*
X137213007Y-108858412D01*
X137402713Y-108845686D01*
X137831221Y-108417179D01*
X137938701Y-108417179D01*
X138367209Y-108845686D01*
X138556915Y-108858412D01*
X138630084Y-108718841D01*
X138635411Y-108700761D01*
X138644772Y-108730753D01*
X138713007Y-108858412D01*
X138902713Y-108845686D01*
X139331221Y-108417179D01*
X139438701Y-108417179D01*
X139867209Y-108845686D01*
X140056915Y-108858412D01*
X140130084Y-108718841D01*
X140174618Y-108567679D01*
X140188806Y-108410733D01*
X140172103Y-108254035D01*
X140125150Y-108103605D01*
X140056915Y-107975946D01*
X139867209Y-107988672D01*
X139438701Y-108417179D01*
X139331221Y-108417179D01*
X138902713Y-107988672D01*
X138713007Y-107975946D01*
X138639838Y-108115517D01*
X138634511Y-108133597D01*
X138625150Y-108103605D01*
X138556915Y-107975946D01*
X138367209Y-107988672D01*
X137938701Y-108417179D01*
X137831221Y-108417179D01*
X137402713Y-107988672D01*
X137213007Y-107975946D01*
X137139838Y-108115517D01*
X137095304Y-108266679D01*
X137081116Y-108423625D01*
X135982843Y-108423625D01*
X135982843Y-107589133D01*
X137443728Y-107589133D01*
X137583299Y-107662302D01*
X137601379Y-107667629D01*
X137571387Y-107676990D01*
X137443728Y-107745225D01*
X137456454Y-107934931D01*
X137884961Y-108363439D01*
X138313468Y-107934931D01*
X138326194Y-107745225D01*
X138186623Y-107672056D01*
X138168543Y-107666729D01*
X138198535Y-107657368D01*
X138326194Y-107589133D01*
X138943728Y-107589133D01*
X139083299Y-107662302D01*
X139101379Y-107667629D01*
X139071387Y-107676990D01*
X138943728Y-107745225D01*
X138956454Y-107934931D01*
X139384961Y-108363439D01*
X139813468Y-107934931D01*
X139826194Y-107745225D01*
X139686623Y-107672056D01*
X139668543Y-107666729D01*
X139698535Y-107657368D01*
X139826194Y-107589133D01*
X139813468Y-107399427D01*
X139384961Y-106970919D01*
X138956454Y-107399427D01*
X138943728Y-107589133D01*
X138326194Y-107589133D01*
X138313468Y-107399427D01*
X137884961Y-106970919D01*
X137456454Y-107399427D01*
X137443728Y-107589133D01*
X135982843Y-107589133D01*
X135982843Y-107275000D01*
X135975487Y-107200311D01*
X135953701Y-107128492D01*
X135918322Y-107062304D01*
X135870711Y-107004289D01*
X135812696Y-106956678D01*
X135750860Y-106923625D01*
X137081116Y-106923625D01*
X137097819Y-107080323D01*
X137144772Y-107230753D01*
X137213007Y-107358412D01*
X137402713Y-107345686D01*
X137831221Y-106917179D01*
X137938701Y-106917179D01*
X138367209Y-107345686D01*
X138556915Y-107358412D01*
X138630084Y-107218841D01*
X138635411Y-107200761D01*
X138644772Y-107230753D01*
X138713007Y-107358412D01*
X138902713Y-107345686D01*
X139331221Y-106917179D01*
X139438701Y-106917179D01*
X139867209Y-107345686D01*
X140056915Y-107358412D01*
X140130084Y-107218841D01*
X140174618Y-107067679D01*
X140188806Y-106910733D01*
X140172103Y-106754035D01*
X140125150Y-106603605D01*
X140056915Y-106475946D01*
X139867209Y-106488672D01*
X139438701Y-106917179D01*
X139331221Y-106917179D01*
X138902713Y-106488672D01*
X138713007Y-106475946D01*
X138639838Y-106615517D01*
X138634511Y-106633597D01*
X138625150Y-106603605D01*
X138556915Y-106475946D01*
X138367209Y-106488672D01*
X137938701Y-106917179D01*
X137831221Y-106917179D01*
X137402713Y-106488672D01*
X137213007Y-106475946D01*
X137139838Y-106615517D01*
X137095304Y-106766679D01*
X137081116Y-106923625D01*
X135750860Y-106923625D01*
X135746508Y-106921299D01*
X135674689Y-106899513D01*
X135600000Y-106892157D01*
X134600000Y-106892157D01*
X134525311Y-106899513D01*
X134453492Y-106921299D01*
X134387304Y-106956678D01*
X134329289Y-107004289D01*
X134281678Y-107062304D01*
X134246299Y-107128492D01*
X134224513Y-107200311D01*
X134217157Y-107275000D01*
X134217157Y-110775000D01*
X134224513Y-110849689D01*
X134246299Y-110921508D01*
X134281678Y-110987696D01*
X134329289Y-111045711D01*
X134387304Y-111093322D01*
X134453492Y-111128701D01*
X134525311Y-111150487D01*
X134600000Y-111157843D01*
X134650178Y-111157843D01*
X134651978Y-111163776D01*
X134696792Y-111247615D01*
X134730408Y-111288576D01*
X134757100Y-111321101D01*
X134775513Y-111336212D01*
X135256700Y-111817400D01*
X133582600Y-111817400D01*
X133582600Y-111157843D01*
X133600000Y-111157843D01*
X133674689Y-111150487D01*
X133746508Y-111128701D01*
X133812696Y-111093322D01*
X133870711Y-111045711D01*
X133918322Y-110987696D01*
X133953701Y-110921508D01*
X133975487Y-110849689D01*
X133982843Y-110775000D01*
X133982843Y-107275000D01*
X133975487Y-107200311D01*
X133953701Y-107128492D01*
X133918322Y-107062304D01*
X133870711Y-107004289D01*
X133812696Y-106956678D01*
X133746508Y-106921299D01*
X133674689Y-106899513D01*
X133600000Y-106892157D01*
X132600000Y-106892157D01*
X132525311Y-106899513D01*
X132453492Y-106921299D01*
X132387304Y-106956678D01*
X132329289Y-107004289D01*
X132281678Y-107062304D01*
X132246299Y-107128492D01*
X132224513Y-107200311D01*
X132217157Y-107275000D01*
X132217157Y-110775000D01*
X132224513Y-110849689D01*
X132246299Y-110921508D01*
X132281678Y-110987696D01*
X132329289Y-111045711D01*
X132387304Y-111093322D01*
X132453492Y-111128701D01*
X132525311Y-111150487D01*
X132600000Y-111157843D01*
X132617401Y-111157843D01*
X132617401Y-112076285D01*
X132615065Y-112100000D01*
X132624384Y-112194606D01*
X132651978Y-112285576D01*
X132696792Y-112369415D01*
X132733730Y-112414424D01*
X132757100Y-112442901D01*
X132775513Y-112458012D01*
X132941983Y-112624482D01*
X132957099Y-112642901D01*
X133030585Y-112703209D01*
X133095131Y-112737710D01*
X133114423Y-112748022D01*
X133205393Y-112775617D01*
X133300000Y-112784935D01*
X133323707Y-112782600D01*
X136455718Y-112782600D01*
X136429289Y-112804289D01*
X136381678Y-112862304D01*
X136346299Y-112928492D01*
X136324513Y-113000311D01*
X136317157Y-113075000D01*
X136317157Y-116409000D01*
X131882843Y-116409000D01*
X131882843Y-113075000D01*
X131875487Y-113000311D01*
X131853701Y-112928492D01*
X131818322Y-112862304D01*
X131770711Y-112804289D01*
X131712696Y-112756678D01*
X131646508Y-112721299D01*
X131574689Y-112699513D01*
X131500000Y-112692157D01*
X130000000Y-112692157D01*
X129925311Y-112699513D01*
X129853492Y-112721299D01*
X129787304Y-112756678D01*
X129729289Y-112804289D01*
X129681678Y-112862304D01*
X129646299Y-112928492D01*
X129624513Y-113000311D01*
X129617157Y-113075000D01*
X129617157Y-116409000D01*
X128782843Y-116409000D01*
X128782843Y-114637500D01*
X128775487Y-114562811D01*
X128753701Y-114490992D01*
X128718322Y-114424804D01*
X128670711Y-114366789D01*
X128612696Y-114319178D01*
X128546508Y-114283799D01*
X128474689Y-114262013D01*
X128400000Y-114254657D01*
X128042923Y-114254657D01*
X129215704Y-113081876D01*
X129279257Y-113075617D01*
X129370228Y-113048022D01*
X129454066Y-113003209D01*
X129527552Y-112942901D01*
X129542668Y-112924482D01*
X131305492Y-111161658D01*
X131323911Y-111146542D01*
X131384219Y-111073056D01*
X131429032Y-110989218D01*
X131456627Y-110898247D01*
X131463610Y-110827348D01*
X131463610Y-110827347D01*
X131465945Y-110803642D01*
X131463610Y-110779937D01*
X131463610Y-107018889D01*
X131799900Y-106682600D01*
X133358850Y-106682600D01*
X133438540Y-106762290D01*
X133557105Y-106841512D01*
X133688846Y-106896081D01*
X133828702Y-106923900D01*
X133971298Y-106923900D01*
X134111154Y-106896081D01*
X134242895Y-106841512D01*
X134361460Y-106762290D01*
X134462290Y-106661460D01*
X134541512Y-106542895D01*
X134596081Y-106411154D01*
X134623900Y-106271298D01*
X134623900Y-106128702D01*
X134616030Y-106089133D01*
X137443728Y-106089133D01*
X137583299Y-106162302D01*
X137601379Y-106167629D01*
X137571387Y-106176990D01*
X137443728Y-106245225D01*
X137456454Y-106434931D01*
X137884961Y-106863439D01*
X138313468Y-106434931D01*
X138326194Y-106245225D01*
X138186623Y-106172056D01*
X138168543Y-106166729D01*
X138198535Y-106157368D01*
X138326194Y-106089133D01*
X138943728Y-106089133D01*
X139083299Y-106162302D01*
X139101379Y-106167629D01*
X139071387Y-106176990D01*
X138943728Y-106245225D01*
X138956454Y-106434931D01*
X139384961Y-106863439D01*
X139813468Y-106434931D01*
X139826194Y-106245225D01*
X139686623Y-106172056D01*
X139668543Y-106166729D01*
X139698535Y-106157368D01*
X139826194Y-106089133D01*
X139813468Y-105899427D01*
X139384961Y-105470919D01*
X138956454Y-105899427D01*
X138943728Y-106089133D01*
X138326194Y-106089133D01*
X138313468Y-105899427D01*
X137884961Y-105470919D01*
X137456454Y-105899427D01*
X137443728Y-106089133D01*
X134616030Y-106089133D01*
X134596081Y-105988846D01*
X134541512Y-105857105D01*
X134462290Y-105738540D01*
X134361460Y-105637710D01*
X134242895Y-105558488D01*
X134111154Y-105503919D01*
X133971298Y-105476100D01*
X133828702Y-105476100D01*
X133688846Y-105503919D01*
X133557105Y-105558488D01*
X133438540Y-105637710D01*
X133358850Y-105717400D01*
X131623704Y-105717400D01*
X131599999Y-105715065D01*
X131576294Y-105717400D01*
X131576293Y-105717400D01*
X131505394Y-105724383D01*
X131414423Y-105751978D01*
X131330585Y-105796791D01*
X131330583Y-105796792D01*
X131330584Y-105796792D01*
X131283981Y-105835038D01*
X131257099Y-105857099D01*
X131241987Y-105875513D01*
X131057200Y-106060300D01*
X131057200Y-105423625D01*
X137081116Y-105423625D01*
X137097819Y-105580323D01*
X137144772Y-105730753D01*
X137213007Y-105858412D01*
X137402713Y-105845686D01*
X137831221Y-105417179D01*
X137938701Y-105417179D01*
X138367209Y-105845686D01*
X138556915Y-105858412D01*
X138630084Y-105718841D01*
X138635411Y-105700761D01*
X138644772Y-105730753D01*
X138713007Y-105858412D01*
X138902713Y-105845686D01*
X139331221Y-105417179D01*
X139438701Y-105417179D01*
X139867209Y-105845686D01*
X140056915Y-105858412D01*
X140130084Y-105718841D01*
X140174618Y-105567679D01*
X140188806Y-105410733D01*
X140172103Y-105254035D01*
X140125150Y-105103605D01*
X140056915Y-104975946D01*
X139867209Y-104988672D01*
X139438701Y-105417179D01*
X139331221Y-105417179D01*
X138902713Y-104988672D01*
X138713007Y-104975946D01*
X138639838Y-105115517D01*
X138634511Y-105133597D01*
X138625150Y-105103605D01*
X138556915Y-104975946D01*
X138367209Y-104988672D01*
X137938701Y-105417179D01*
X137831221Y-105417179D01*
X137402713Y-104988672D01*
X137213007Y-104975946D01*
X137139838Y-105115517D01*
X137095304Y-105266679D01*
X137081116Y-105423625D01*
X131057200Y-105423625D01*
X131057200Y-104745225D01*
X137443728Y-104745225D01*
X137456454Y-104934931D01*
X137884961Y-105363439D01*
X138313468Y-104934931D01*
X138326194Y-104745225D01*
X138943728Y-104745225D01*
X138956454Y-104934931D01*
X139384961Y-105363439D01*
X139813468Y-104934931D01*
X139826194Y-104745225D01*
X139686623Y-104672056D01*
X139535461Y-104627522D01*
X139378515Y-104613334D01*
X139221817Y-104630037D01*
X139071387Y-104676990D01*
X138943728Y-104745225D01*
X138326194Y-104745225D01*
X138186623Y-104672056D01*
X138035461Y-104627522D01*
X137878515Y-104613334D01*
X137721817Y-104630037D01*
X137571387Y-104676990D01*
X137443728Y-104745225D01*
X131057200Y-104745225D01*
X131057200Y-102889377D01*
X131189378Y-102757200D01*
X133795556Y-102757200D01*
X134013351Y-102974996D01*
X133958488Y-103057105D01*
X133903919Y-103188846D01*
X133876100Y-103328702D01*
X133876100Y-103471298D01*
X133903919Y-103611154D01*
X133958488Y-103742895D01*
X134037710Y-103861460D01*
X134138540Y-103962290D01*
X134257105Y-104041512D01*
X134388846Y-104096081D01*
X134528702Y-104123900D01*
X134671298Y-104123900D01*
X134811154Y-104096081D01*
X134942895Y-104041512D01*
X135061460Y-103962290D01*
X135162290Y-103861460D01*
X135216179Y-103780808D01*
X135272671Y-103865355D01*
X135373501Y-103966185D01*
X135492066Y-104045407D01*
X135623807Y-104099976D01*
X135763663Y-104127795D01*
X135906259Y-104127795D01*
X136046115Y-104099976D01*
X136177856Y-104045407D01*
X136296421Y-103966185D01*
X136397251Y-103865355D01*
X136476473Y-103746790D01*
X136531042Y-103615049D01*
X136558861Y-103475193D01*
X136558861Y-103332597D01*
X136531042Y-103192741D01*
X136476473Y-103061000D01*
X136397251Y-102942435D01*
X136296421Y-102841605D01*
X136177856Y-102762383D01*
X136046115Y-102707814D01*
X135906259Y-102679995D01*
X135763663Y-102679995D01*
X135758638Y-102680994D01*
X134765431Y-101687788D01*
X134751110Y-101670338D01*
X134681493Y-101613204D01*
X134602066Y-101570750D01*
X134515884Y-101544606D01*
X134448717Y-101537991D01*
X134448707Y-101537991D01*
X134426257Y-101535780D01*
X134403807Y-101537991D01*
X134008587Y-101537991D01*
X134107409Y-101439169D01*
X134124853Y-101424853D01*
X134181987Y-101355236D01*
X134224441Y-101275809D01*
X134247438Y-101200000D01*
X136661928Y-101200000D01*
X136674188Y-101324482D01*
X136710498Y-101444180D01*
X136769463Y-101554494D01*
X136848815Y-101651185D01*
X136945506Y-101730537D01*
X137055820Y-101789502D01*
X137175518Y-101825812D01*
X137300000Y-101838072D01*
X137664250Y-101835000D01*
X137823000Y-101676250D01*
X137823000Y-99627000D01*
X138077000Y-99627000D01*
X138077000Y-101676250D01*
X138235750Y-101835000D01*
X138600000Y-101838072D01*
X138724482Y-101825812D01*
X138844180Y-101789502D01*
X138954494Y-101730537D01*
X139051185Y-101651185D01*
X139130537Y-101554494D01*
X139189502Y-101444180D01*
X139225812Y-101324482D01*
X139238072Y-101200000D01*
X139235000Y-99785750D01*
X139076250Y-99627000D01*
X138077000Y-99627000D01*
X137823000Y-99627000D01*
X136823750Y-99627000D01*
X136665000Y-99785750D01*
X136661928Y-101200000D01*
X134247438Y-101200000D01*
X134250585Y-101189627D01*
X134257200Y-101122460D01*
X134257200Y-101122450D01*
X134259411Y-101100000D01*
X134257200Y-101077550D01*
X134257200Y-97800000D01*
X136661928Y-97800000D01*
X136665000Y-99214250D01*
X136823750Y-99373000D01*
X137823000Y-99373000D01*
X137823000Y-97323750D01*
X138077000Y-97323750D01*
X138077000Y-99373000D01*
X139076250Y-99373000D01*
X139235000Y-99214250D01*
X139238072Y-97800000D01*
X139225812Y-97675518D01*
X139189502Y-97555820D01*
X139130537Y-97445506D01*
X139051185Y-97348815D01*
X138954494Y-97269463D01*
X138844180Y-97210498D01*
X138724482Y-97174188D01*
X138600000Y-97161928D01*
X138235750Y-97165000D01*
X138077000Y-97323750D01*
X137823000Y-97323750D01*
X137664250Y-97165000D01*
X137300000Y-97161928D01*
X137175518Y-97174188D01*
X137055820Y-97210498D01*
X136945506Y-97269463D01*
X136848815Y-97348815D01*
X136769463Y-97445506D01*
X136710498Y-97555820D01*
X136674188Y-97675518D01*
X136661928Y-97800000D01*
X134257200Y-97800000D01*
X134257200Y-97065136D01*
X134261460Y-97062290D01*
X134362290Y-96961460D01*
X134441512Y-96842895D01*
X134496081Y-96711154D01*
X134523900Y-96571298D01*
X134523900Y-96428702D01*
X134506129Y-96339360D01*
X140649000Y-96339360D01*
X140649000Y-96660640D01*
X140711678Y-96975745D01*
X140834626Y-97272568D01*
X141013119Y-97539702D01*
X141240298Y-97766881D01*
X141507432Y-97945374D01*
X141804255Y-98068322D01*
X142119360Y-98131000D01*
X142440640Y-98131000D01*
X142755745Y-98068322D01*
X143052568Y-97945374D01*
X143319702Y-97766881D01*
X143546881Y-97539702D01*
X143725374Y-97272568D01*
X143848322Y-96975745D01*
X143911000Y-96660640D01*
X143911000Y-96339360D01*
X143848322Y-96024255D01*
X143725374Y-95727432D01*
X143546881Y-95460298D01*
X143319702Y-95233119D01*
X143052568Y-95054626D01*
X142755745Y-94931678D01*
X142440640Y-94869000D01*
X142119360Y-94869000D01*
X141804255Y-94931678D01*
X141507432Y-95054626D01*
X141240298Y-95233119D01*
X141013119Y-95460298D01*
X140834626Y-95727432D01*
X140711678Y-96024255D01*
X140649000Y-96339360D01*
X134506129Y-96339360D01*
X134496081Y-96288846D01*
X134441512Y-96157105D01*
X134362290Y-96038540D01*
X134261460Y-95937710D01*
X134142895Y-95858488D01*
X134011154Y-95803919D01*
X133871298Y-95776100D01*
X133728702Y-95776100D01*
X133588846Y-95803919D01*
X133457105Y-95858488D01*
X133338540Y-95937710D01*
X133237710Y-96038540D01*
X133158488Y-96157105D01*
X133103919Y-96288846D01*
X133076100Y-96428702D01*
X133076100Y-96571298D01*
X133103919Y-96711154D01*
X133158488Y-96842895D01*
X133237710Y-96961460D01*
X133338540Y-97062290D01*
X133342801Y-97065137D01*
X133342800Y-100910622D01*
X133020242Y-101233181D01*
X130332068Y-101233181D01*
X130309618Y-101230970D01*
X130287168Y-101233181D01*
X130287159Y-101233181D01*
X130279501Y-101233935D01*
X130282843Y-101200000D01*
X130282843Y-97800000D01*
X130275487Y-97725311D01*
X130253701Y-97653492D01*
X130218322Y-97587304D01*
X130170711Y-97529289D01*
X130112696Y-97481678D01*
X130046508Y-97446299D01*
X129974689Y-97424513D01*
X129900000Y-97417157D01*
X128600000Y-97417157D01*
X128525311Y-97424513D01*
X128453492Y-97446299D01*
X128387304Y-97481678D01*
X128329289Y-97529289D01*
X128281678Y-97587304D01*
X128246299Y-97653492D01*
X128224513Y-97725311D01*
X128217157Y-97800000D01*
X128217157Y-99104761D01*
X128192364Y-99118013D01*
X128140192Y-99160829D01*
X128140186Y-99160835D01*
X128122747Y-99175147D01*
X128108435Y-99192586D01*
X127882600Y-99418422D01*
X127882600Y-97623696D01*
X127884934Y-97599999D01*
X127882600Y-97576302D01*
X127882600Y-97576293D01*
X127875617Y-97505394D01*
X127848022Y-97414423D01*
X127803209Y-97330585D01*
X127742901Y-97257099D01*
X127724482Y-97241983D01*
X127358017Y-96875518D01*
X127342901Y-96857099D01*
X127269415Y-96796791D01*
X127185577Y-96751978D01*
X127094606Y-96724383D01*
X127023707Y-96717400D01*
X127023705Y-96717400D01*
X127000000Y-96715065D01*
X126976295Y-96717400D01*
X125535219Y-96717400D01*
X125497785Y-96627026D01*
X125411614Y-96498062D01*
X125301938Y-96388386D01*
X125172974Y-96302215D01*
X125029676Y-96242859D01*
X124877552Y-96212600D01*
X124722448Y-96212600D01*
X124570324Y-96242859D01*
X124427026Y-96302215D01*
X124298062Y-96388386D01*
X124188386Y-96498062D01*
X124175406Y-96517487D01*
X124105394Y-96524383D01*
X124014423Y-96551978D01*
X123930585Y-96596791D01*
X123857099Y-96657099D01*
X123841983Y-96675518D01*
X123475513Y-97041988D01*
X123457100Y-97057099D01*
X123441989Y-97075512D01*
X123441987Y-97075514D01*
X123396792Y-97130585D01*
X123351978Y-97214424D01*
X123324384Y-97305394D01*
X123315065Y-97400000D01*
X123317401Y-97423715D01*
X123317401Y-97764875D01*
X123224482Y-97736688D01*
X123100000Y-97724428D01*
X123085750Y-97727500D01*
X122927000Y-97886250D01*
X122927000Y-99010500D01*
X122947000Y-99010500D01*
X122947000Y-99264500D01*
X122927000Y-99264500D01*
X122927000Y-99284500D01*
X122673000Y-99284500D01*
X122673000Y-99264500D01*
X122023750Y-99264500D01*
X121865000Y-99423250D01*
X121861928Y-99912500D01*
X121874188Y-100036982D01*
X121910498Y-100156680D01*
X121918312Y-100171299D01*
X121717877Y-100171299D01*
X121594400Y-100047823D01*
X121594400Y-99558513D01*
X121596611Y-99536063D01*
X121594400Y-99513613D01*
X121594400Y-99513604D01*
X121587785Y-99446437D01*
X121561641Y-99360255D01*
X121536548Y-99313309D01*
X121519187Y-99280827D01*
X121476370Y-99228656D01*
X121462053Y-99211211D01*
X121444608Y-99196894D01*
X120610214Y-98362500D01*
X121861928Y-98362500D01*
X121865000Y-98851750D01*
X122023750Y-99010500D01*
X122673000Y-99010500D01*
X122673000Y-97886250D01*
X122514250Y-97727500D01*
X122500000Y-97724428D01*
X122375518Y-97736688D01*
X122255820Y-97772998D01*
X122145506Y-97831963D01*
X122048815Y-97911315D01*
X121969463Y-98008006D01*
X121910498Y-98118320D01*
X121874188Y-98238018D01*
X121861928Y-98362500D01*
X120610214Y-98362500D01*
X120503106Y-98255393D01*
X120488791Y-98237950D01*
X120462036Y-98215992D01*
X120419173Y-98180815D01*
X120339747Y-98138362D01*
X120339740Y-98138360D01*
X120253565Y-98112218D01*
X120186398Y-98105603D01*
X120163938Y-98103391D01*
X120141478Y-98105603D01*
X113489378Y-98105601D01*
X113357200Y-97973424D01*
X113357200Y-97817134D01*
X113424689Y-97810487D01*
X113496508Y-97788701D01*
X113562696Y-97753322D01*
X113620711Y-97705711D01*
X113668322Y-97647696D01*
X113703701Y-97581508D01*
X113725487Y-97509689D01*
X113732843Y-97435000D01*
X116011928Y-97435000D01*
X116024188Y-97559482D01*
X116060498Y-97679180D01*
X116119463Y-97789494D01*
X116198815Y-97886185D01*
X116295506Y-97965537D01*
X116405820Y-98024502D01*
X116525518Y-98060812D01*
X116650000Y-98073072D01*
X116814250Y-98070000D01*
X116973000Y-97911250D01*
X116973000Y-96927000D01*
X117227000Y-96927000D01*
X117227000Y-97911250D01*
X117385750Y-98070000D01*
X117550000Y-98073072D01*
X117674482Y-98060812D01*
X117794180Y-98024502D01*
X117904494Y-97965537D01*
X118001185Y-97886185D01*
X118080537Y-97789494D01*
X118139502Y-97679180D01*
X118175812Y-97559482D01*
X118188072Y-97435000D01*
X118185000Y-97085750D01*
X118026250Y-96927000D01*
X117227000Y-96927000D01*
X116973000Y-96927000D01*
X116173750Y-96927000D01*
X116015000Y-97085750D01*
X116011928Y-97435000D01*
X113732843Y-97435000D01*
X113732843Y-96165000D01*
X116011928Y-96165000D01*
X116015000Y-96514250D01*
X116173750Y-96673000D01*
X116973000Y-96673000D01*
X116973000Y-95688750D01*
X116814250Y-95530000D01*
X116650000Y-95526928D01*
X116525518Y-95539188D01*
X116405820Y-95575498D01*
X116295506Y-95634463D01*
X116198815Y-95713815D01*
X116119463Y-95810506D01*
X116060498Y-95920820D01*
X116024188Y-96040518D01*
X116011928Y-96165000D01*
X113732843Y-96165000D01*
X113725487Y-96090311D01*
X113703701Y-96018492D01*
X113668322Y-95952304D01*
X113620711Y-95894289D01*
X113562696Y-95846678D01*
X113496508Y-95811299D01*
X113424689Y-95789513D01*
X113350000Y-95782157D01*
X112450000Y-95782157D01*
X112375311Y-95789513D01*
X112303492Y-95811299D01*
X112237304Y-95846678D01*
X112179289Y-95894289D01*
X112131678Y-95952304D01*
X112096299Y-96018492D01*
X112074513Y-96090311D01*
X112067157Y-96165000D01*
X112067157Y-97435000D01*
X112074513Y-97509689D01*
X112096299Y-97581508D01*
X112131678Y-97647696D01*
X112179289Y-97705711D01*
X112237304Y-97753322D01*
X112303492Y-97788701D01*
X112375311Y-97810487D01*
X112442800Y-97817134D01*
X112442800Y-98140351D01*
X112440589Y-98162801D01*
X112442800Y-98185251D01*
X112442800Y-98185260D01*
X112449415Y-98252427D01*
X112475559Y-98338609D01*
X112513937Y-98410411D01*
X106454839Y-98410410D01*
X106432389Y-98408199D01*
X106409939Y-98410410D01*
X106409931Y-98410410D01*
X106342764Y-98417025D01*
X106256582Y-98443169D01*
X106256580Y-98443170D01*
X106177153Y-98485623D01*
X106124982Y-98528440D01*
X106124977Y-98528445D01*
X106107538Y-98542757D01*
X106093226Y-98560196D01*
X100576323Y-104077100D01*
X100571298Y-104076100D01*
X100428702Y-104076100D01*
X100288846Y-104103919D01*
X100157105Y-104158488D01*
X100038540Y-104237710D01*
X99937710Y-104338540D01*
X99858488Y-104457105D01*
X99803919Y-104588846D01*
X99776100Y-104728702D01*
X99776100Y-104871298D01*
X99803919Y-105011154D01*
X99858488Y-105142895D01*
X99930053Y-105250000D01*
X99858488Y-105357105D01*
X99803919Y-105488846D01*
X99776100Y-105628702D01*
X99776100Y-105771298D01*
X99803919Y-105911154D01*
X99858488Y-106042895D01*
X99937710Y-106161460D01*
X100038540Y-106262290D01*
X100157105Y-106341512D01*
X100288846Y-106396081D01*
X100428702Y-106423900D01*
X100571298Y-106423900D01*
X100711154Y-106396081D01*
X100842895Y-106341512D01*
X100961460Y-106262290D01*
X101062290Y-106161460D01*
X101107065Y-106094448D01*
X104112600Y-106094448D01*
X104112600Y-106249552D01*
X104142859Y-106401676D01*
X104202215Y-106544974D01*
X104288386Y-106673938D01*
X104398062Y-106783614D01*
X104527026Y-106869785D01*
X104670324Y-106929141D01*
X104822448Y-106959400D01*
X104977552Y-106959400D01*
X105129676Y-106929141D01*
X105272974Y-106869785D01*
X105401938Y-106783614D01*
X105511614Y-106673938D01*
X105524535Y-106654600D01*
X107071465Y-106654600D01*
X107084386Y-106673938D01*
X107194062Y-106783614D01*
X107323026Y-106869785D01*
X107466324Y-106929141D01*
X107618448Y-106959400D01*
X107773552Y-106959400D01*
X107925676Y-106929141D01*
X108068974Y-106869785D01*
X108197938Y-106783614D01*
X108307614Y-106673938D01*
X108393785Y-106544974D01*
X108453141Y-106401676D01*
X108483400Y-106249552D01*
X108483400Y-106094448D01*
X108453141Y-105942324D01*
X108393785Y-105799026D01*
X108307614Y-105670062D01*
X108197938Y-105560386D01*
X108068974Y-105474215D01*
X107925676Y-105414859D01*
X107773552Y-105384600D01*
X107618448Y-105384600D01*
X107466324Y-105414859D01*
X107323026Y-105474215D01*
X107194062Y-105560386D01*
X107084386Y-105670062D01*
X107071465Y-105689400D01*
X105524535Y-105689400D01*
X105511614Y-105670062D01*
X105401938Y-105560386D01*
X105272974Y-105474215D01*
X105129676Y-105414859D01*
X104977552Y-105384600D01*
X104822448Y-105384600D01*
X104670324Y-105414859D01*
X104527026Y-105474215D01*
X104398062Y-105560386D01*
X104288386Y-105670062D01*
X104202215Y-105799026D01*
X104142859Y-105942324D01*
X104112600Y-106094448D01*
X101107065Y-106094448D01*
X101141512Y-106042895D01*
X101196081Y-105911154D01*
X101223900Y-105771298D01*
X101223900Y-105628702D01*
X101222900Y-105623677D01*
X101592443Y-105254135D01*
X101609888Y-105239818D01*
X101667022Y-105170201D01*
X101709476Y-105090774D01*
X101735620Y-105004592D01*
X101742235Y-104937425D01*
X101742235Y-104937416D01*
X101744446Y-104914966D01*
X101742235Y-104892516D01*
X101742235Y-104674412D01*
X106759448Y-99657200D01*
X112876222Y-99657200D01*
X112566266Y-99967157D01*
X112090000Y-99967157D01*
X112015311Y-99974513D01*
X111943492Y-99996299D01*
X111877304Y-100031678D01*
X111819289Y-100079289D01*
X111771678Y-100137304D01*
X111736299Y-100203492D01*
X111714513Y-100275311D01*
X111707157Y-100350000D01*
X111707157Y-102750000D01*
X111714513Y-102824689D01*
X111718548Y-102837990D01*
X111496193Y-102837990D01*
X111473743Y-102835779D01*
X111451293Y-102837990D01*
X111451284Y-102837990D01*
X111384117Y-102844605D01*
X111297935Y-102870749D01*
X111262618Y-102889626D01*
X111218507Y-102913203D01*
X111166688Y-102955731D01*
X111148891Y-102970337D01*
X111134574Y-102987782D01*
X110587783Y-103534574D01*
X110570339Y-103548890D01*
X110556022Y-103566335D01*
X110556021Y-103566336D01*
X110513204Y-103618508D01*
X110488911Y-103663959D01*
X110470751Y-103697934D01*
X110454232Y-103752390D01*
X110444607Y-103784117D01*
X110435780Y-103873743D01*
X110437992Y-103896203D01*
X110437991Y-108255807D01*
X110435780Y-108278257D01*
X110437991Y-108300707D01*
X110437991Y-108300716D01*
X110444606Y-108367883D01*
X110470750Y-108454065D01*
X110513204Y-108533492D01*
X110570338Y-108603110D01*
X110587788Y-108617431D01*
X111040578Y-109070222D01*
X111054890Y-109087661D01*
X111072329Y-109101973D01*
X111072335Y-109101979D01*
X111124507Y-109144796D01*
X111203933Y-109187249D01*
X111290116Y-109213393D01*
X111379742Y-109222220D01*
X111402202Y-109220008D01*
X115642801Y-109220010D01*
X115642801Y-109434863D01*
X115638540Y-109437710D01*
X115537710Y-109538540D01*
X115458488Y-109657105D01*
X115403919Y-109788846D01*
X115376100Y-109928702D01*
X115376100Y-110071298D01*
X115403919Y-110211154D01*
X115458488Y-110342895D01*
X115537710Y-110461460D01*
X115638540Y-110562290D01*
X115757105Y-110641512D01*
X115888846Y-110696081D01*
X116028702Y-110723900D01*
X116062117Y-110723900D01*
X116046299Y-110753492D01*
X116024513Y-110825311D01*
X116017157Y-110900000D01*
X116017157Y-112500000D01*
X116024513Y-112574689D01*
X116046299Y-112646508D01*
X116081678Y-112712696D01*
X116129289Y-112770711D01*
X116187304Y-112818322D01*
X116253492Y-112853701D01*
X116325311Y-112875487D01*
X116400000Y-112882843D01*
X117517401Y-112882843D01*
X117517401Y-113676285D01*
X117515065Y-113700000D01*
X117524384Y-113794606D01*
X117551978Y-113885576D01*
X117596792Y-113969415D01*
X117617983Y-113995236D01*
X117657100Y-114042901D01*
X117675513Y-114058012D01*
X118541983Y-114924482D01*
X118557099Y-114942901D01*
X118630585Y-115003209D01*
X118714423Y-115048022D01*
X118805394Y-115075617D01*
X118876293Y-115082600D01*
X118876294Y-115082600D01*
X118899999Y-115084935D01*
X118923704Y-115082600D01*
X120875465Y-115082600D01*
X120888386Y-115101938D01*
X120998062Y-115211614D01*
X121127026Y-115297785D01*
X121270324Y-115357141D01*
X121422448Y-115387400D01*
X121577552Y-115387400D01*
X121729676Y-115357141D01*
X121872974Y-115297785D01*
X122001938Y-115211614D01*
X122111614Y-115101938D01*
X122126373Y-115079849D01*
X122169342Y-115075617D01*
X122260313Y-115048022D01*
X122344151Y-115003209D01*
X122417637Y-114942901D01*
X122432753Y-114924482D01*
X122926935Y-114430301D01*
X123278740Y-114430301D01*
X123246299Y-114490992D01*
X123224513Y-114562811D01*
X123217157Y-114637500D01*
X123217157Y-116409000D01*
X96541079Y-116409000D01*
X96110763Y-116366807D01*
X95717111Y-116247957D01*
X95354043Y-116054911D01*
X95035383Y-115795018D01*
X94773274Y-115478183D01*
X94577697Y-115116472D01*
X94456101Y-114723658D01*
X94411000Y-114294554D01*
X94411000Y-114114738D01*
X94619000Y-114114738D01*
X94619000Y-114485262D01*
X94691286Y-114848667D01*
X94833080Y-115190987D01*
X95038932Y-115499067D01*
X95300933Y-115761068D01*
X95609013Y-115966920D01*
X95951333Y-116108714D01*
X96314738Y-116181000D01*
X96685262Y-116181000D01*
X97048667Y-116108714D01*
X97390987Y-115966920D01*
X97699067Y-115761068D01*
X97961068Y-115499067D01*
X98166920Y-115190987D01*
X98308714Y-114848667D01*
X98374457Y-114518154D01*
X101769000Y-114518154D01*
X101769000Y-114681846D01*
X101800935Y-114842394D01*
X101863577Y-114993626D01*
X101954520Y-115129732D01*
X102070268Y-115245480D01*
X102206374Y-115336423D01*
X102357606Y-115399065D01*
X102518154Y-115431000D01*
X102681846Y-115431000D01*
X102842394Y-115399065D01*
X102993626Y-115336423D01*
X103129732Y-115245480D01*
X103245480Y-115129732D01*
X103336423Y-114993626D01*
X103399065Y-114842394D01*
X103431000Y-114681846D01*
X103431000Y-114518154D01*
X108569000Y-114518154D01*
X108569000Y-114681846D01*
X108600935Y-114842394D01*
X108663577Y-114993626D01*
X108754520Y-115129732D01*
X108870268Y-115245480D01*
X109006374Y-115336423D01*
X109157606Y-115399065D01*
X109318154Y-115431000D01*
X109481846Y-115431000D01*
X109642394Y-115399065D01*
X109793626Y-115336423D01*
X109929732Y-115245480D01*
X110045480Y-115129732D01*
X110136423Y-114993626D01*
X110199065Y-114842394D01*
X110231000Y-114681846D01*
X110231000Y-114518154D01*
X110199065Y-114357606D01*
X110136423Y-114206374D01*
X110045480Y-114070268D01*
X109929732Y-113954520D01*
X109793626Y-113863577D01*
X109642394Y-113800935D01*
X109481846Y-113769000D01*
X109318154Y-113769000D01*
X109157606Y-113800935D01*
X109006374Y-113863577D01*
X108870268Y-113954520D01*
X108754520Y-114070268D01*
X108663577Y-114206374D01*
X108600935Y-114357606D01*
X108569000Y-114518154D01*
X103431000Y-114518154D01*
X103399065Y-114357606D01*
X103336423Y-114206374D01*
X103245480Y-114070268D01*
X103129732Y-113954520D01*
X102993626Y-113863577D01*
X102842394Y-113800935D01*
X102681846Y-113769000D01*
X102518154Y-113769000D01*
X102357606Y-113800935D01*
X102206374Y-113863577D01*
X102070268Y-113954520D01*
X101954520Y-114070268D01*
X101863577Y-114206374D01*
X101800935Y-114357606D01*
X101769000Y-114518154D01*
X98374457Y-114518154D01*
X98381000Y-114485262D01*
X98381000Y-114114738D01*
X98308714Y-113751333D01*
X98166920Y-113409013D01*
X97961068Y-113100933D01*
X97960135Y-113100000D01*
X102236928Y-113100000D01*
X102249188Y-113224482D01*
X102285498Y-113344180D01*
X102344463Y-113454494D01*
X102423815Y-113551185D01*
X102520506Y-113630537D01*
X102630820Y-113689502D01*
X102750518Y-113725812D01*
X102875000Y-113738072D01*
X103214250Y-113735000D01*
X103373000Y-113576250D01*
X103373000Y-111977000D01*
X103627000Y-111977000D01*
X103627000Y-113576250D01*
X103785750Y-113735000D01*
X104125000Y-113738072D01*
X104249482Y-113725812D01*
X104369180Y-113689502D01*
X104479494Y-113630537D01*
X104576185Y-113551185D01*
X104655537Y-113454494D01*
X104714502Y-113344180D01*
X104750812Y-113224482D01*
X104763072Y-113100000D01*
X104760000Y-112135750D01*
X104601250Y-111977000D01*
X103627000Y-111977000D01*
X103373000Y-111977000D01*
X102398750Y-111977000D01*
X102240000Y-112135750D01*
X102236928Y-113100000D01*
X97960135Y-113100000D01*
X97699067Y-112838932D01*
X97390987Y-112633080D01*
X97048667Y-112491286D01*
X96685262Y-112419000D01*
X96314738Y-112419000D01*
X95951333Y-112491286D01*
X95609013Y-112633080D01*
X95300933Y-112838932D01*
X95038932Y-113100933D01*
X94833080Y-113409013D01*
X94691286Y-113751333D01*
X94619000Y-114114738D01*
X94411000Y-114114738D01*
X94411000Y-110600000D01*
X102236928Y-110600000D01*
X102240000Y-111564250D01*
X102398750Y-111723000D01*
X103373000Y-111723000D01*
X103373000Y-110123750D01*
X103627000Y-110123750D01*
X103627000Y-111723000D01*
X104601250Y-111723000D01*
X104760000Y-111564250D01*
X104763072Y-110600000D01*
X104992157Y-110600000D01*
X104992157Y-113100000D01*
X104999513Y-113174689D01*
X105021299Y-113246508D01*
X105056678Y-113312696D01*
X105104289Y-113370711D01*
X105162304Y-113418322D01*
X105228492Y-113453701D01*
X105300311Y-113475487D01*
X105375000Y-113482843D01*
X106625000Y-113482843D01*
X106699689Y-113475487D01*
X106771508Y-113453701D01*
X106837696Y-113418322D01*
X106895711Y-113370711D01*
X106943322Y-113312696D01*
X106978701Y-113246508D01*
X107000487Y-113174689D01*
X107007843Y-113100000D01*
X107007843Y-110600000D01*
X107000487Y-110525311D01*
X106978701Y-110453492D01*
X106943322Y-110387304D01*
X106895711Y-110329289D01*
X106837696Y-110281678D01*
X106821276Y-110272901D01*
X106908978Y-110185200D01*
X108857301Y-110185200D01*
X108825344Y-110217157D01*
X107875000Y-110217157D01*
X107800311Y-110224513D01*
X107728492Y-110246299D01*
X107662304Y-110281678D01*
X107604289Y-110329289D01*
X107556678Y-110387304D01*
X107521299Y-110453492D01*
X107499513Y-110525311D01*
X107492157Y-110600000D01*
X107492157Y-113100000D01*
X107499513Y-113174689D01*
X107521299Y-113246508D01*
X107556678Y-113312696D01*
X107604289Y-113370711D01*
X107662304Y-113418322D01*
X107728492Y-113453701D01*
X107800311Y-113475487D01*
X107875000Y-113482843D01*
X109125000Y-113482843D01*
X109199689Y-113475487D01*
X109271508Y-113453701D01*
X109337696Y-113418322D01*
X109395711Y-113370711D01*
X109443322Y-113312696D01*
X109478701Y-113246508D01*
X109500487Y-113174689D01*
X109507843Y-113100000D01*
X109507843Y-112500000D01*
X110761928Y-112500000D01*
X110774188Y-112624482D01*
X110810498Y-112744180D01*
X110869463Y-112854494D01*
X110948815Y-112951185D01*
X111045506Y-113030537D01*
X111155820Y-113089502D01*
X111275518Y-113125812D01*
X111400000Y-113138072D01*
X112714250Y-113135000D01*
X112873000Y-112976250D01*
X112873000Y-111827000D01*
X113127000Y-111827000D01*
X113127000Y-112976250D01*
X113285750Y-113135000D01*
X114600000Y-113138072D01*
X114724482Y-113125812D01*
X114844180Y-113089502D01*
X114954494Y-113030537D01*
X115051185Y-112951185D01*
X115130537Y-112854494D01*
X115189502Y-112744180D01*
X115225812Y-112624482D01*
X115238072Y-112500000D01*
X115235000Y-111985750D01*
X115076250Y-111827000D01*
X113127000Y-111827000D01*
X112873000Y-111827000D01*
X110923750Y-111827000D01*
X110765000Y-111985750D01*
X110761928Y-112500000D01*
X109507843Y-112500000D01*
X109507843Y-110899656D01*
X109688899Y-110718600D01*
X110119465Y-110718600D01*
X110132386Y-110737938D01*
X110242062Y-110847614D01*
X110371026Y-110933785D01*
X110514324Y-110993141D01*
X110666448Y-111023400D01*
X110762665Y-111023400D01*
X110765000Y-111414250D01*
X110923750Y-111573000D01*
X112873000Y-111573000D01*
X112873000Y-110423750D01*
X113127000Y-110423750D01*
X113127000Y-111573000D01*
X115076250Y-111573000D01*
X115235000Y-111414250D01*
X115238072Y-110900000D01*
X115225812Y-110775518D01*
X115189502Y-110655820D01*
X115130537Y-110545506D01*
X115051185Y-110448815D01*
X114954494Y-110369463D01*
X114844180Y-110310498D01*
X114724482Y-110274188D01*
X114600000Y-110261928D01*
X113285750Y-110265000D01*
X113127000Y-110423750D01*
X112873000Y-110423750D01*
X112714250Y-110265000D01*
X111531400Y-110262235D01*
X111531400Y-110158448D01*
X111501141Y-110006324D01*
X111441785Y-109863026D01*
X111355614Y-109734062D01*
X111245938Y-109624386D01*
X111116974Y-109538215D01*
X110973676Y-109478859D01*
X110821552Y-109448600D01*
X110666448Y-109448600D01*
X110514324Y-109478859D01*
X110371026Y-109538215D01*
X110242062Y-109624386D01*
X110132386Y-109734062D01*
X110119465Y-109753400D01*
X109841178Y-109753400D01*
X110035409Y-109559169D01*
X110052853Y-109544853D01*
X110068785Y-109525440D01*
X110109987Y-109475237D01*
X110134106Y-109430111D01*
X110152441Y-109395809D01*
X110178585Y-109309627D01*
X110185200Y-109242460D01*
X110185200Y-109242451D01*
X110187411Y-109220001D01*
X110185200Y-109197551D01*
X110185200Y-103400450D01*
X110187411Y-103378000D01*
X110185200Y-103355550D01*
X110185200Y-103355540D01*
X110178585Y-103288373D01*
X110152441Y-103202191D01*
X110152441Y-103202190D01*
X110109987Y-103122764D01*
X110067171Y-103070592D01*
X110067165Y-103070586D01*
X110052853Y-103053147D01*
X110035413Y-103038835D01*
X109742903Y-102746325D01*
X109753400Y-102693552D01*
X109753400Y-102538448D01*
X109723141Y-102386324D01*
X109663785Y-102243026D01*
X109577614Y-102114062D01*
X109467938Y-102004386D01*
X109338974Y-101918215D01*
X109195676Y-101858859D01*
X109043552Y-101828600D01*
X108888448Y-101828600D01*
X108736324Y-101858859D01*
X108593026Y-101918215D01*
X108464062Y-102004386D01*
X108354386Y-102114062D01*
X108268215Y-102243026D01*
X108208859Y-102386324D01*
X108178600Y-102538448D01*
X108178600Y-102693552D01*
X108208859Y-102845676D01*
X108268215Y-102988974D01*
X108354386Y-103117938D01*
X108464062Y-103227614D01*
X108593026Y-103313785D01*
X108736324Y-103373141D01*
X108888448Y-103403400D01*
X109043552Y-103403400D01*
X109096325Y-103392903D01*
X109270801Y-103567380D01*
X109270800Y-109030622D01*
X109030623Y-109270800D01*
X106742049Y-109270800D01*
X106719599Y-109268589D01*
X106697149Y-109270800D01*
X106697140Y-109270800D01*
X106629973Y-109277415D01*
X106543791Y-109303559D01*
X106464364Y-109346013D01*
X106394747Y-109403147D01*
X106380430Y-109420592D01*
X105692592Y-110108431D01*
X105675148Y-110122747D01*
X105660831Y-110140192D01*
X105660830Y-110140193D01*
X105618013Y-110192365D01*
X105604762Y-110217157D01*
X105375000Y-110217157D01*
X105300311Y-110224513D01*
X105228492Y-110246299D01*
X105162304Y-110281678D01*
X105104289Y-110329289D01*
X105056678Y-110387304D01*
X105021299Y-110453492D01*
X104999513Y-110525311D01*
X104992157Y-110600000D01*
X104763072Y-110600000D01*
X104750812Y-110475518D01*
X104714502Y-110355820D01*
X104655537Y-110245506D01*
X104576185Y-110148815D01*
X104479494Y-110069463D01*
X104369180Y-110010498D01*
X104249482Y-109974188D01*
X104125000Y-109961928D01*
X103785750Y-109965000D01*
X103627000Y-110123750D01*
X103373000Y-110123750D01*
X103214250Y-109965000D01*
X102875000Y-109961928D01*
X102750518Y-109974188D01*
X102630820Y-110010498D01*
X102520506Y-110069463D01*
X102423815Y-110148815D01*
X102344463Y-110245506D01*
X102285498Y-110355820D01*
X102249188Y-110475518D01*
X102236928Y-110600000D01*
X94411000Y-110600000D01*
X94411000Y-109963912D01*
X94468054Y-110002390D01*
X94692504Y-110096493D01*
X94931000Y-110145000D01*
X95281000Y-110145000D01*
X95281000Y-109037000D01*
X95535000Y-109037000D01*
X95535000Y-110145000D01*
X95885000Y-110145000D01*
X96123496Y-110096493D01*
X96347946Y-110002390D01*
X96549725Y-109866307D01*
X96721078Y-109693474D01*
X96855421Y-109490533D01*
X96947591Y-109265282D01*
X96951462Y-109227609D01*
X96826731Y-109037000D01*
X95535000Y-109037000D01*
X95281000Y-109037000D01*
X95261000Y-109037000D01*
X95261000Y-108849133D01*
X97348472Y-108849133D01*
X97410965Y-109085450D01*
X97653678Y-109198850D01*
X97913849Y-109262719D01*
X98181482Y-109274604D01*
X98446291Y-109234048D01*
X98698100Y-109142609D01*
X98805035Y-109085450D01*
X98867528Y-108849133D01*
X98108000Y-108089605D01*
X97348472Y-108849133D01*
X95261000Y-108849133D01*
X95261000Y-108783000D01*
X95281000Y-108783000D01*
X95281000Y-107675000D01*
X95535000Y-107675000D01*
X95535000Y-108783000D01*
X96826731Y-108783000D01*
X96940503Y-108609138D01*
X97168867Y-108669528D01*
X97928395Y-107910000D01*
X98287605Y-107910000D01*
X99047133Y-108669528D01*
X99283450Y-108607035D01*
X99396850Y-108364322D01*
X99460719Y-108104151D01*
X99472604Y-107836518D01*
X99432048Y-107571709D01*
X99340609Y-107319900D01*
X99283450Y-107212965D01*
X99047133Y-107150472D01*
X98287605Y-107910000D01*
X97928395Y-107910000D01*
X97168867Y-107150472D01*
X96932550Y-107212965D01*
X96819150Y-107455678D01*
X96755281Y-107715849D01*
X96743396Y-107983482D01*
X96778615Y-108213442D01*
X96721078Y-108126526D01*
X96549725Y-107953693D01*
X96347946Y-107817610D01*
X96123496Y-107723507D01*
X95885000Y-107675000D01*
X95535000Y-107675000D01*
X95281000Y-107675000D01*
X94931000Y-107675000D01*
X94692504Y-107723507D01*
X94468054Y-107817610D01*
X94411000Y-107856088D01*
X94411000Y-106970867D01*
X97348472Y-106970867D01*
X98108000Y-107730395D01*
X98867528Y-106970867D01*
X98805035Y-106734550D01*
X98562322Y-106621150D01*
X98302151Y-106557281D01*
X98034518Y-106545396D01*
X97769709Y-106585952D01*
X97517900Y-106677391D01*
X97410965Y-106734550D01*
X97348472Y-106970867D01*
X94411000Y-106970867D01*
X94411000Y-103849133D01*
X97348472Y-103849133D01*
X97410965Y-104085450D01*
X97653678Y-104198850D01*
X97913849Y-104262719D01*
X98181482Y-104274604D01*
X98446291Y-104234048D01*
X98698100Y-104142609D01*
X98805035Y-104085450D01*
X98867528Y-103849133D01*
X98108000Y-103089605D01*
X97348472Y-103849133D01*
X94411000Y-103849133D01*
X94411000Y-102964522D01*
X94583099Y-103056511D01*
X94815898Y-103127130D01*
X94997335Y-103145000D01*
X95818665Y-103145000D01*
X96000102Y-103127130D01*
X96232901Y-103056511D01*
X96447449Y-102941833D01*
X96635502Y-102787502D01*
X96781305Y-102609841D01*
X96755281Y-102715849D01*
X96743396Y-102983482D01*
X96783952Y-103248291D01*
X96875391Y-103500100D01*
X96932550Y-103607035D01*
X97168867Y-103669528D01*
X97928395Y-102910000D01*
X98287605Y-102910000D01*
X99047133Y-103669528D01*
X99283450Y-103607035D01*
X99396850Y-103364322D01*
X99460719Y-103104151D01*
X99472604Y-102836518D01*
X99432048Y-102571709D01*
X99340609Y-102319900D01*
X99283450Y-102212965D01*
X99047133Y-102150472D01*
X98287605Y-102910000D01*
X97928395Y-102910000D01*
X97168867Y-102150472D01*
X96958771Y-102206031D01*
X96975130Y-102152102D01*
X96992980Y-101970867D01*
X97348472Y-101970867D01*
X98108000Y-102730395D01*
X98867528Y-101970867D01*
X98805035Y-101734550D01*
X98562322Y-101621150D01*
X98302151Y-101557281D01*
X98034518Y-101545396D01*
X97769709Y-101585952D01*
X97517900Y-101677391D01*
X97410965Y-101734550D01*
X97348472Y-101970867D01*
X96992980Y-101970867D01*
X96998975Y-101910000D01*
X96975130Y-101667898D01*
X96904511Y-101435099D01*
X96789833Y-101220551D01*
X96635502Y-101032498D01*
X96447449Y-100878167D01*
X96232901Y-100763489D01*
X96000102Y-100692870D01*
X95818665Y-100675000D01*
X94997335Y-100675000D01*
X94815898Y-100692870D01*
X94583099Y-100763489D01*
X94411000Y-100855478D01*
X94411000Y-96541079D01*
X94432212Y-96324738D01*
X94659000Y-96324738D01*
X94659000Y-96695262D01*
X94731286Y-97058667D01*
X94873080Y-97400987D01*
X95078932Y-97709067D01*
X95340933Y-97971068D01*
X95649013Y-98176920D01*
X95991333Y-98318714D01*
X96354738Y-98391000D01*
X96725262Y-98391000D01*
X97088667Y-98318714D01*
X97430987Y-98176920D01*
X97739067Y-97971068D01*
X98001068Y-97709067D01*
X98206920Y-97400987D01*
X98348714Y-97058667D01*
X98421000Y-96695262D01*
X98421000Y-96324738D01*
X98348714Y-95961333D01*
X98206920Y-95619013D01*
X98001068Y-95310933D01*
X97739067Y-95048932D01*
X97430987Y-94843080D01*
X97088667Y-94701286D01*
X96725262Y-94629000D01*
X96354738Y-94629000D01*
X95991333Y-94701286D01*
X95649013Y-94843080D01*
X95340933Y-95048932D01*
X95078932Y-95310933D01*
X94873080Y-95619013D01*
X94731286Y-95961333D01*
X94659000Y-96324738D01*
X94432212Y-96324738D01*
X94453193Y-96110762D01*
X94572044Y-95717107D01*
X94765089Y-95354043D01*
X95024979Y-95035385D01*
X95341820Y-94773272D01*
X95703528Y-94577697D01*
X96096343Y-94456101D01*
X96525446Y-94411000D01*
X110553854Y-94411000D01*
X110549513Y-94425311D01*
G36*
X119342801Y-100189379D02*
G01*
X119342800Y-102077550D01*
X119340589Y-102100000D01*
X119342800Y-102122450D01*
X119342800Y-102122459D01*
X119349415Y-102189626D01*
X119375559Y-102275808D01*
X119418013Y-102355235D01*
X119475147Y-102424853D01*
X119492596Y-102439174D01*
X119832335Y-102778914D01*
X119846648Y-102796354D01*
X119864087Y-102810666D01*
X119864093Y-102810672D01*
X119916265Y-102853488D01*
X119995691Y-102895942D01*
X120015750Y-102902027D01*
X120081874Y-102922086D01*
X120149041Y-102928701D01*
X120149051Y-102928701D01*
X120171501Y-102930912D01*
X120193951Y-102928701D01*
X120751871Y-102928701D01*
X120774321Y-102930912D01*
X120796771Y-102928701D01*
X120796781Y-102928701D01*
X120863948Y-102922086D01*
X120950130Y-102895942D01*
X121029557Y-102853488D01*
X121099174Y-102796354D01*
X121113495Y-102778904D01*
X121135199Y-102757200D01*
X123837741Y-102757200D01*
X123837740Y-103145366D01*
X123792826Y-103190281D01*
X122629147Y-103190281D01*
X122606697Y-103188070D01*
X122584247Y-103190281D01*
X122584237Y-103190281D01*
X122517070Y-103196896D01*
X122430888Y-103223040D01*
X122384030Y-103248086D01*
X122351461Y-103265494D01*
X122322732Y-103289072D01*
X122281844Y-103322628D01*
X122267527Y-103340073D01*
X121492592Y-104115008D01*
X121475148Y-104129325D01*
X121460831Y-104146770D01*
X121460830Y-104146771D01*
X121418013Y-104198943D01*
X121378199Y-104273432D01*
X121375560Y-104278369D01*
X121349416Y-104364551D01*
X121348216Y-104376732D01*
X121340589Y-104454178D01*
X121342801Y-104476637D01*
X121342801Y-104934863D01*
X121338540Y-104937710D01*
X121237710Y-105038540D01*
X121158488Y-105157105D01*
X121103919Y-105288846D01*
X121076100Y-105428702D01*
X121076100Y-105571298D01*
X121103919Y-105711154D01*
X121158488Y-105842895D01*
X121237710Y-105961460D01*
X121338540Y-106062290D01*
X121457105Y-106141512D01*
X121588846Y-106196081D01*
X121728702Y-106223900D01*
X121871298Y-106223900D01*
X122011154Y-106196081D01*
X122142895Y-106141512D01*
X122261460Y-106062290D01*
X122362290Y-105961460D01*
X122441512Y-105842895D01*
X122496081Y-105711154D01*
X122512482Y-105628701D01*
X123576100Y-105628701D01*
X123576100Y-105671298D01*
X123603919Y-105811154D01*
X123658488Y-105942895D01*
X123737710Y-106061460D01*
X123838540Y-106162290D01*
X123957105Y-106241512D01*
X124088846Y-106296081D01*
X124228702Y-106323900D01*
X124371298Y-106323900D01*
X124511154Y-106296081D01*
X124642895Y-106241512D01*
X124750000Y-106169947D01*
X124857105Y-106241512D01*
X124988846Y-106296081D01*
X125128702Y-106323900D01*
X125271298Y-106323900D01*
X125411154Y-106296081D01*
X125542895Y-106241512D01*
X125661460Y-106162290D01*
X125762290Y-106061460D01*
X125841512Y-105942895D01*
X125896081Y-105811154D01*
X125923900Y-105671298D01*
X125923900Y-105528702D01*
X125896081Y-105388846D01*
X125864852Y-105313453D01*
X125970324Y-105357141D01*
X126122448Y-105387400D01*
X126277552Y-105387400D01*
X126429676Y-105357141D01*
X126572974Y-105297785D01*
X126701938Y-105211614D01*
X126811614Y-105101938D01*
X126897785Y-104972974D01*
X126957141Y-104829676D01*
X126987400Y-104677552D01*
X126987400Y-104522448D01*
X126957141Y-104370324D01*
X126897785Y-104227026D01*
X126811614Y-104098062D01*
X126701938Y-103988386D01*
X126682600Y-103975465D01*
X126682600Y-100899899D01*
X127042800Y-100539699D01*
X127042801Y-105910618D01*
X126976323Y-105977096D01*
X126971298Y-105976096D01*
X126828702Y-105976096D01*
X126688846Y-106003915D01*
X126557105Y-106058484D01*
X126438540Y-106137706D01*
X126337710Y-106238536D01*
X126258488Y-106357101D01*
X126203919Y-106488842D01*
X126176100Y-106628698D01*
X126176100Y-106771294D01*
X126203919Y-106911150D01*
X126258488Y-107042891D01*
X126337710Y-107161456D01*
X126438540Y-107262286D01*
X126557105Y-107341508D01*
X126688846Y-107396077D01*
X126828702Y-107423896D01*
X126971298Y-107423896D01*
X127111154Y-107396077D01*
X127242895Y-107341508D01*
X127361460Y-107262286D01*
X127462290Y-107161456D01*
X127541512Y-107042891D01*
X127596081Y-106911150D01*
X127623900Y-106771294D01*
X127623900Y-106628698D01*
X127622900Y-106623673D01*
X127807408Y-106439166D01*
X127824853Y-106424849D01*
X127851329Y-106392589D01*
X127881987Y-106355232D01*
X127924441Y-106275806D01*
X127933718Y-106245225D01*
X127950585Y-106189623D01*
X127957200Y-106122456D01*
X127957200Y-106122446D01*
X127959411Y-106099996D01*
X127957200Y-106077546D01*
X127957200Y-100636977D01*
X128217157Y-100377021D01*
X128217157Y-101200000D01*
X128224513Y-101274689D01*
X128246299Y-101346508D01*
X128281678Y-101412696D01*
X128329289Y-101470711D01*
X128387304Y-101518322D01*
X128453492Y-101553701D01*
X128525311Y-101575487D01*
X128600000Y-101582843D01*
X129770579Y-101582843D01*
X129576323Y-101777100D01*
X129571298Y-101776100D01*
X129428702Y-101776100D01*
X129288846Y-101803919D01*
X129157105Y-101858488D01*
X129038540Y-101937710D01*
X128937710Y-102038540D01*
X128858488Y-102157105D01*
X128803919Y-102288846D01*
X128776100Y-102428702D01*
X128776100Y-102571298D01*
X128803919Y-102711154D01*
X128858488Y-102842895D01*
X128937710Y-102961460D01*
X129038540Y-103062290D01*
X129157105Y-103141512D01*
X129288846Y-103196081D01*
X129428702Y-103223900D01*
X129571298Y-103223900D01*
X129711154Y-103196081D01*
X129837990Y-103143544D01*
X129837991Y-110330187D01*
X129668277Y-110499901D01*
X129465348Y-110499901D01*
X129442898Y-110497690D01*
X129420448Y-110499901D01*
X129420439Y-110499901D01*
X129353272Y-110506516D01*
X129267090Y-110532660D01*
X129241573Y-110546299D01*
X129187662Y-110575114D01*
X129183503Y-110578528D01*
X129171298Y-110576100D01*
X129028702Y-110576100D01*
X128888846Y-110603919D01*
X128757105Y-110658488D01*
X128638540Y-110737710D01*
X128537710Y-110838540D01*
X128458488Y-110957105D01*
X128403919Y-111088846D01*
X128376100Y-111228702D01*
X128376100Y-111371298D01*
X128377055Y-111376100D01*
X128328702Y-111376100D01*
X128188846Y-111403919D01*
X128057105Y-111458488D01*
X127938540Y-111537710D01*
X127837710Y-111638540D01*
X127758488Y-111757105D01*
X127703919Y-111888846D01*
X127676100Y-112028702D01*
X127676100Y-112171298D01*
X127703919Y-112311154D01*
X127758488Y-112442895D01*
X127837710Y-112561460D01*
X127938540Y-112662290D01*
X128057105Y-112741512D01*
X128151832Y-112780749D01*
X127467481Y-113465101D01*
X126705241Y-113465101D01*
X126723900Y-113371298D01*
X126723900Y-113228702D01*
X126722901Y-113223677D01*
X126807409Y-113139169D01*
X126824853Y-113124853D01*
X126881987Y-113055236D01*
X126915470Y-112992593D01*
X126924441Y-112975810D01*
X126938795Y-112928492D01*
X126950585Y-112889627D01*
X126957200Y-112822460D01*
X126957200Y-112822450D01*
X126959411Y-112800000D01*
X126957942Y-112785089D01*
X127012696Y-112755822D01*
X127070711Y-112708211D01*
X127118322Y-112650196D01*
X127153701Y-112584008D01*
X127175487Y-112512189D01*
X127182843Y-112437500D01*
X127182843Y-110887500D01*
X127175487Y-110812811D01*
X127153701Y-110740992D01*
X127118322Y-110674804D01*
X127070711Y-110616789D01*
X127012696Y-110569178D01*
X126946508Y-110533799D01*
X126874689Y-110512013D01*
X126800000Y-110504657D01*
X126307272Y-110504657D01*
X126251185Y-110436315D01*
X126154494Y-110356963D01*
X126044180Y-110297998D01*
X125924482Y-110261688D01*
X125800000Y-110249428D01*
X125785750Y-110252500D01*
X125627000Y-110411250D01*
X125627000Y-111535500D01*
X125647000Y-111535500D01*
X125647000Y-111789500D01*
X125627000Y-111789500D01*
X125627000Y-111809500D01*
X125373000Y-111809500D01*
X125373000Y-111789500D01*
X124723750Y-111789500D01*
X124565000Y-111948250D01*
X124561928Y-112437500D01*
X124574188Y-112561982D01*
X124610498Y-112681680D01*
X124669463Y-112791994D01*
X124748815Y-112888685D01*
X124845506Y-112968037D01*
X124955820Y-113027002D01*
X125075518Y-113063312D01*
X125200000Y-113075572D01*
X125214250Y-113072500D01*
X125372998Y-112913752D01*
X125372998Y-112935389D01*
X125358488Y-112957105D01*
X125303919Y-113088846D01*
X125276100Y-113228702D01*
X125276100Y-113371298D01*
X125294759Y-113465101D01*
X122750739Y-113465101D01*
X122727034Y-113462766D01*
X122703329Y-113465101D01*
X122703328Y-113465101D01*
X122632429Y-113472084D01*
X122541458Y-113499679D01*
X122457620Y-113544492D01*
X122457618Y-113544493D01*
X122457619Y-113544493D01*
X122418923Y-113576250D01*
X122384134Y-113604800D01*
X122369022Y-113623214D01*
X122002894Y-113989342D01*
X122001938Y-113988386D01*
X121872974Y-113902215D01*
X121729676Y-113842859D01*
X121577552Y-113812600D01*
X121422448Y-113812600D01*
X121270324Y-113842859D01*
X121127026Y-113902215D01*
X120998062Y-113988386D01*
X120888386Y-114098062D01*
X120875465Y-114117400D01*
X119099899Y-114117400D01*
X118482600Y-113500101D01*
X118482600Y-112882843D01*
X119600000Y-112882843D01*
X119674689Y-112875487D01*
X119746508Y-112853701D01*
X119812696Y-112818322D01*
X119870711Y-112770711D01*
X119918322Y-112712696D01*
X119953701Y-112646508D01*
X119975487Y-112574689D01*
X119982843Y-112500000D01*
X119982843Y-110900000D01*
X119981612Y-110887500D01*
X124561928Y-110887500D01*
X124565000Y-111376750D01*
X124723750Y-111535500D01*
X125373000Y-111535500D01*
X125373000Y-110411250D01*
X125214250Y-110252500D01*
X125200000Y-110249428D01*
X125075518Y-110261688D01*
X124955820Y-110297998D01*
X124845506Y-110356963D01*
X124748815Y-110436315D01*
X124669463Y-110533006D01*
X124610498Y-110643320D01*
X124574188Y-110763018D01*
X124561928Y-110887500D01*
X119981612Y-110887500D01*
X119975487Y-110825311D01*
X119953701Y-110753492D01*
X119918322Y-110687304D01*
X119870711Y-110629289D01*
X119812696Y-110581678D01*
X119746508Y-110546299D01*
X119674689Y-110524513D01*
X119600000Y-110517157D01*
X118829431Y-110517157D01*
X118848022Y-110482377D01*
X118875617Y-110391406D01*
X118882600Y-110320507D01*
X118882600Y-110320498D01*
X118884934Y-110296801D01*
X118882600Y-110273104D01*
X118882600Y-107924535D01*
X118901938Y-107911614D01*
X119011614Y-107801938D01*
X119097785Y-107672974D01*
X119157141Y-107529676D01*
X119187400Y-107377552D01*
X119187400Y-107222448D01*
X119157141Y-107070324D01*
X119097785Y-106927026D01*
X119011614Y-106798062D01*
X118901938Y-106688386D01*
X118772974Y-106602215D01*
X118629676Y-106542859D01*
X118477552Y-106512600D01*
X118322448Y-106512600D01*
X118292843Y-106518489D01*
X118292843Y-105932600D01*
X118450101Y-105932600D01*
X120817137Y-108299637D01*
X120812600Y-108322448D01*
X120812600Y-108477552D01*
X120842859Y-108629676D01*
X120902215Y-108772974D01*
X120988386Y-108901938D01*
X121098062Y-109011614D01*
X121227026Y-109097785D01*
X121370324Y-109157141D01*
X121522448Y-109187400D01*
X121677552Y-109187400D01*
X121829676Y-109157141D01*
X121972974Y-109097785D01*
X122101938Y-109011614D01*
X122211614Y-108901938D01*
X122224535Y-108882600D01*
X124575465Y-108882600D01*
X124588386Y-108901938D01*
X124698062Y-109011614D01*
X124827026Y-109097785D01*
X124970324Y-109157141D01*
X125122448Y-109187400D01*
X125277552Y-109187400D01*
X125429676Y-109157141D01*
X125572974Y-109097785D01*
X125701938Y-109011614D01*
X125811614Y-108901938D01*
X125897785Y-108772974D01*
X125957141Y-108629676D01*
X125987400Y-108477552D01*
X125987400Y-108322448D01*
X125957141Y-108170324D01*
X125897785Y-108027026D01*
X125811614Y-107898062D01*
X125701938Y-107788386D01*
X125572974Y-107702215D01*
X125429676Y-107642859D01*
X125277552Y-107612600D01*
X125122448Y-107612600D01*
X124970324Y-107642859D01*
X124827026Y-107702215D01*
X124698062Y-107788386D01*
X124588386Y-107898062D01*
X124575465Y-107917400D01*
X122224535Y-107917400D01*
X122211614Y-107898062D01*
X122101938Y-107788386D01*
X121972974Y-107702215D01*
X121829676Y-107642859D01*
X121677552Y-107612600D01*
X121522448Y-107612600D01*
X121499637Y-107617137D01*
X119008017Y-105125518D01*
X118992901Y-105107099D01*
X118919415Y-105046791D01*
X118835577Y-105001978D01*
X118744606Y-104974383D01*
X118673707Y-104967400D01*
X118673705Y-104967400D01*
X118650000Y-104965065D01*
X118626295Y-104967400D01*
X118292843Y-104967400D01*
X118292843Y-104250000D01*
X118285487Y-104175311D01*
X118263701Y-104103492D01*
X118228322Y-104037304D01*
X118180711Y-103979289D01*
X118122696Y-103931678D01*
X118056508Y-103896299D01*
X117984689Y-103874513D01*
X117910000Y-103867157D01*
X117379420Y-103867157D01*
X117847409Y-103399169D01*
X117864853Y-103384853D01*
X117902068Y-103339507D01*
X117921987Y-103315237D01*
X117959465Y-103245118D01*
X117964441Y-103235809D01*
X117990585Y-103149627D01*
X117993217Y-103122900D01*
X118056508Y-103103701D01*
X118122696Y-103068322D01*
X118180711Y-103020711D01*
X118228322Y-102962696D01*
X118263701Y-102896508D01*
X118285487Y-102824689D01*
X118292843Y-102750000D01*
X118292843Y-100350000D01*
X118285487Y-100275311D01*
X118263701Y-100203492D01*
X118228322Y-100137304D01*
X118180711Y-100079289D01*
X118122696Y-100031678D01*
X118056508Y-99996299D01*
X117984689Y-99974513D01*
X117910000Y-99967157D01*
X117170000Y-99967157D01*
X117095311Y-99974513D01*
X117023492Y-99996299D01*
X116957304Y-100031678D01*
X116905000Y-100074602D01*
X116852696Y-100031678D01*
X116786508Y-99996299D01*
X116714689Y-99974513D01*
X116640000Y-99967157D01*
X115900000Y-99967157D01*
X115825311Y-99974513D01*
X115753492Y-99996299D01*
X115687304Y-100031678D01*
X115635000Y-100074602D01*
X115582696Y-100031678D01*
X115516508Y-99996299D01*
X115444689Y-99974513D01*
X115370000Y-99967157D01*
X114630000Y-99967157D01*
X114555311Y-99974513D01*
X114483492Y-99996299D01*
X114417304Y-100031678D01*
X114365000Y-100074602D01*
X114312696Y-100031678D01*
X114246508Y-99996299D01*
X114174689Y-99974513D01*
X114100000Y-99967157D01*
X113859421Y-99967157D01*
X113864568Y-99962010D01*
X119115433Y-99962010D01*
X119342801Y-100189379D01*
G37*
X119342801Y-100189379D02*
X119342800Y-102077550D01*
X119340589Y-102100000D01*
X119342800Y-102122450D01*
X119342800Y-102122459D01*
X119349415Y-102189626D01*
X119375559Y-102275808D01*
X119418013Y-102355235D01*
X119475147Y-102424853D01*
X119492596Y-102439174D01*
X119832335Y-102778914D01*
X119846648Y-102796354D01*
X119864087Y-102810666D01*
X119864093Y-102810672D01*
X119916265Y-102853488D01*
X119995691Y-102895942D01*
X120015750Y-102902027D01*
X120081874Y-102922086D01*
X120149041Y-102928701D01*
X120149051Y-102928701D01*
X120171501Y-102930912D01*
X120193951Y-102928701D01*
X120751871Y-102928701D01*
X120774321Y-102930912D01*
X120796771Y-102928701D01*
X120796781Y-102928701D01*
X120863948Y-102922086D01*
X120950130Y-102895942D01*
X121029557Y-102853488D01*
X121099174Y-102796354D01*
X121113495Y-102778904D01*
X121135199Y-102757200D01*
X123837741Y-102757200D01*
X123837740Y-103145366D01*
X123792826Y-103190281D01*
X122629147Y-103190281D01*
X122606697Y-103188070D01*
X122584247Y-103190281D01*
X122584237Y-103190281D01*
X122517070Y-103196896D01*
X122430888Y-103223040D01*
X122384030Y-103248086D01*
X122351461Y-103265494D01*
X122322732Y-103289072D01*
X122281844Y-103322628D01*
X122267527Y-103340073D01*
X121492592Y-104115008D01*
X121475148Y-104129325D01*
X121460831Y-104146770D01*
X121460830Y-104146771D01*
X121418013Y-104198943D01*
X121378199Y-104273432D01*
X121375560Y-104278369D01*
X121349416Y-104364551D01*
X121348216Y-104376732D01*
X121340589Y-104454178D01*
X121342801Y-104476637D01*
X121342801Y-104934863D01*
X121338540Y-104937710D01*
X121237710Y-105038540D01*
X121158488Y-105157105D01*
X121103919Y-105288846D01*
X121076100Y-105428702D01*
X121076100Y-105571298D01*
X121103919Y-105711154D01*
X121158488Y-105842895D01*
X121237710Y-105961460D01*
X121338540Y-106062290D01*
X121457105Y-106141512D01*
X121588846Y-106196081D01*
X121728702Y-106223900D01*
X121871298Y-106223900D01*
X122011154Y-106196081D01*
X122142895Y-106141512D01*
X122261460Y-106062290D01*
X122362290Y-105961460D01*
X122441512Y-105842895D01*
X122496081Y-105711154D01*
X122512482Y-105628701D01*
X123576100Y-105628701D01*
X123576100Y-105671298D01*
X123603919Y-105811154D01*
X123658488Y-105942895D01*
X123737710Y-106061460D01*
X123838540Y-106162290D01*
X123957105Y-106241512D01*
X124088846Y-106296081D01*
X124228702Y-106323900D01*
X124371298Y-106323900D01*
X124511154Y-106296081D01*
X124642895Y-106241512D01*
X124750000Y-106169947D01*
X124857105Y-106241512D01*
X124988846Y-106296081D01*
X125128702Y-106323900D01*
X125271298Y-106323900D01*
X125411154Y-106296081D01*
X125542895Y-106241512D01*
X125661460Y-106162290D01*
X125762290Y-106061460D01*
X125841512Y-105942895D01*
X125896081Y-105811154D01*
X125923900Y-105671298D01*
X125923900Y-105528702D01*
X125896081Y-105388846D01*
X125864852Y-105313453D01*
X125970324Y-105357141D01*
X126122448Y-105387400D01*
X126277552Y-105387400D01*
X126429676Y-105357141D01*
X126572974Y-105297785D01*
X126701938Y-105211614D01*
X126811614Y-105101938D01*
X126897785Y-104972974D01*
X126957141Y-104829676D01*
X126987400Y-104677552D01*
X126987400Y-104522448D01*
X126957141Y-104370324D01*
X126897785Y-104227026D01*
X126811614Y-104098062D01*
X126701938Y-103988386D01*
X126682600Y-103975465D01*
X126682600Y-100899899D01*
X127042800Y-100539699D01*
X127042801Y-105910618D01*
X126976323Y-105977096D01*
X126971298Y-105976096D01*
X126828702Y-105976096D01*
X126688846Y-106003915D01*
X126557105Y-106058484D01*
X126438540Y-106137706D01*
X126337710Y-106238536D01*
X126258488Y-106357101D01*
X126203919Y-106488842D01*
X126176100Y-106628698D01*
X126176100Y-106771294D01*
X126203919Y-106911150D01*
X126258488Y-107042891D01*
X126337710Y-107161456D01*
X126438540Y-107262286D01*
X126557105Y-107341508D01*
X126688846Y-107396077D01*
X126828702Y-107423896D01*
X126971298Y-107423896D01*
X127111154Y-107396077D01*
X127242895Y-107341508D01*
X127361460Y-107262286D01*
X127462290Y-107161456D01*
X127541512Y-107042891D01*
X127596081Y-106911150D01*
X127623900Y-106771294D01*
X127623900Y-106628698D01*
X127622900Y-106623673D01*
X127807408Y-106439166D01*
X127824853Y-106424849D01*
X127851329Y-106392589D01*
X127881987Y-106355232D01*
X127924441Y-106275806D01*
X127933718Y-106245225D01*
X127950585Y-106189623D01*
X127957200Y-106122456D01*
X127957200Y-106122446D01*
X127959411Y-106099996D01*
X127957200Y-106077546D01*
X127957200Y-100636977D01*
X128217157Y-100377021D01*
X128217157Y-101200000D01*
X128224513Y-101274689D01*
X128246299Y-101346508D01*
X128281678Y-101412696D01*
X128329289Y-101470711D01*
X128387304Y-101518322D01*
X128453492Y-101553701D01*
X128525311Y-101575487D01*
X128600000Y-101582843D01*
X129770579Y-101582843D01*
X129576323Y-101777100D01*
X129571298Y-101776100D01*
X129428702Y-101776100D01*
X129288846Y-101803919D01*
X129157105Y-101858488D01*
X129038540Y-101937710D01*
X128937710Y-102038540D01*
X128858488Y-102157105D01*
X128803919Y-102288846D01*
X128776100Y-102428702D01*
X128776100Y-102571298D01*
X128803919Y-102711154D01*
X128858488Y-102842895D01*
X128937710Y-102961460D01*
X129038540Y-103062290D01*
X129157105Y-103141512D01*
X129288846Y-103196081D01*
X129428702Y-103223900D01*
X129571298Y-103223900D01*
X129711154Y-103196081D01*
X129837990Y-103143544D01*
X129837991Y-110330187D01*
X129668277Y-110499901D01*
X129465348Y-110499901D01*
X129442898Y-110497690D01*
X129420448Y-110499901D01*
X129420439Y-110499901D01*
X129353272Y-110506516D01*
X129267090Y-110532660D01*
X129241573Y-110546299D01*
X129187662Y-110575114D01*
X129183503Y-110578528D01*
X129171298Y-110576100D01*
X129028702Y-110576100D01*
X128888846Y-110603919D01*
X128757105Y-110658488D01*
X128638540Y-110737710D01*
X128537710Y-110838540D01*
X128458488Y-110957105D01*
X128403919Y-111088846D01*
X128376100Y-111228702D01*
X128376100Y-111371298D01*
X128377055Y-111376100D01*
X128328702Y-111376100D01*
X128188846Y-111403919D01*
X128057105Y-111458488D01*
X127938540Y-111537710D01*
X127837710Y-111638540D01*
X127758488Y-111757105D01*
X127703919Y-111888846D01*
X127676100Y-112028702D01*
X127676100Y-112171298D01*
X127703919Y-112311154D01*
X127758488Y-112442895D01*
X127837710Y-112561460D01*
X127938540Y-112662290D01*
X128057105Y-112741512D01*
X128151832Y-112780749D01*
X127467481Y-113465101D01*
X126705241Y-113465101D01*
X126723900Y-113371298D01*
X126723900Y-113228702D01*
X126722901Y-113223677D01*
X126807409Y-113139169D01*
X126824853Y-113124853D01*
X126881987Y-113055236D01*
X126915470Y-112992593D01*
X126924441Y-112975810D01*
X126938795Y-112928492D01*
X126950585Y-112889627D01*
X126957200Y-112822460D01*
X126957200Y-112822450D01*
X126959411Y-112800000D01*
X126957942Y-112785089D01*
X127012696Y-112755822D01*
X127070711Y-112708211D01*
X127118322Y-112650196D01*
X127153701Y-112584008D01*
X127175487Y-112512189D01*
X127182843Y-112437500D01*
X127182843Y-110887500D01*
X127175487Y-110812811D01*
X127153701Y-110740992D01*
X127118322Y-110674804D01*
X127070711Y-110616789D01*
X127012696Y-110569178D01*
X126946508Y-110533799D01*
X126874689Y-110512013D01*
X126800000Y-110504657D01*
X126307272Y-110504657D01*
X126251185Y-110436315D01*
X126154494Y-110356963D01*
X126044180Y-110297998D01*
X125924482Y-110261688D01*
X125800000Y-110249428D01*
X125785750Y-110252500D01*
X125627000Y-110411250D01*
X125627000Y-111535500D01*
X125647000Y-111535500D01*
X125647000Y-111789500D01*
X125627000Y-111789500D01*
X125627000Y-111809500D01*
X125373000Y-111809500D01*
X125373000Y-111789500D01*
X124723750Y-111789500D01*
X124565000Y-111948250D01*
X124561928Y-112437500D01*
X124574188Y-112561982D01*
X124610498Y-112681680D01*
X124669463Y-112791994D01*
X124748815Y-112888685D01*
X124845506Y-112968037D01*
X124955820Y-113027002D01*
X125075518Y-113063312D01*
X125200000Y-113075572D01*
X125214250Y-113072500D01*
X125372998Y-112913752D01*
X125372998Y-112935389D01*
X125358488Y-112957105D01*
X125303919Y-113088846D01*
X125276100Y-113228702D01*
X125276100Y-113371298D01*
X125294759Y-113465101D01*
X122750739Y-113465101D01*
X122727034Y-113462766D01*
X122703329Y-113465101D01*
X122703328Y-113465101D01*
X122632429Y-113472084D01*
X122541458Y-113499679D01*
X122457620Y-113544492D01*
X122457618Y-113544493D01*
X122457619Y-113544493D01*
X122418923Y-113576250D01*
X122384134Y-113604800D01*
X122369022Y-113623214D01*
X122002894Y-113989342D01*
X122001938Y-113988386D01*
X121872974Y-113902215D01*
X121729676Y-113842859D01*
X121577552Y-113812600D01*
X121422448Y-113812600D01*
X121270324Y-113842859D01*
X121127026Y-113902215D01*
X120998062Y-113988386D01*
X120888386Y-114098062D01*
X120875465Y-114117400D01*
X119099899Y-114117400D01*
X118482600Y-113500101D01*
X118482600Y-112882843D01*
X119600000Y-112882843D01*
X119674689Y-112875487D01*
X119746508Y-112853701D01*
X119812696Y-112818322D01*
X119870711Y-112770711D01*
X119918322Y-112712696D01*
X119953701Y-112646508D01*
X119975487Y-112574689D01*
X119982843Y-112500000D01*
X119982843Y-110900000D01*
X119981612Y-110887500D01*
X124561928Y-110887500D01*
X124565000Y-111376750D01*
X124723750Y-111535500D01*
X125373000Y-111535500D01*
X125373000Y-110411250D01*
X125214250Y-110252500D01*
X125200000Y-110249428D01*
X125075518Y-110261688D01*
X124955820Y-110297998D01*
X124845506Y-110356963D01*
X124748815Y-110436315D01*
X124669463Y-110533006D01*
X124610498Y-110643320D01*
X124574188Y-110763018D01*
X124561928Y-110887500D01*
X119981612Y-110887500D01*
X119975487Y-110825311D01*
X119953701Y-110753492D01*
X119918322Y-110687304D01*
X119870711Y-110629289D01*
X119812696Y-110581678D01*
X119746508Y-110546299D01*
X119674689Y-110524513D01*
X119600000Y-110517157D01*
X118829431Y-110517157D01*
X118848022Y-110482377D01*
X118875617Y-110391406D01*
X118882600Y-110320507D01*
X118882600Y-110320498D01*
X118884934Y-110296801D01*
X118882600Y-110273104D01*
X118882600Y-107924535D01*
X118901938Y-107911614D01*
X119011614Y-107801938D01*
X119097785Y-107672974D01*
X119157141Y-107529676D01*
X119187400Y-107377552D01*
X119187400Y-107222448D01*
X119157141Y-107070324D01*
X119097785Y-106927026D01*
X119011614Y-106798062D01*
X118901938Y-106688386D01*
X118772974Y-106602215D01*
X118629676Y-106542859D01*
X118477552Y-106512600D01*
X118322448Y-106512600D01*
X118292843Y-106518489D01*
X118292843Y-105932600D01*
X118450101Y-105932600D01*
X120817137Y-108299637D01*
X120812600Y-108322448D01*
X120812600Y-108477552D01*
X120842859Y-108629676D01*
X120902215Y-108772974D01*
X120988386Y-108901938D01*
X121098062Y-109011614D01*
X121227026Y-109097785D01*
X121370324Y-109157141D01*
X121522448Y-109187400D01*
X121677552Y-109187400D01*
X121829676Y-109157141D01*
X121972974Y-109097785D01*
X122101938Y-109011614D01*
X122211614Y-108901938D01*
X122224535Y-108882600D01*
X124575465Y-108882600D01*
X124588386Y-108901938D01*
X124698062Y-109011614D01*
X124827026Y-109097785D01*
X124970324Y-109157141D01*
X125122448Y-109187400D01*
X125277552Y-109187400D01*
X125429676Y-109157141D01*
X125572974Y-109097785D01*
X125701938Y-109011614D01*
X125811614Y-108901938D01*
X125897785Y-108772974D01*
X125957141Y-108629676D01*
X125987400Y-108477552D01*
X125987400Y-108322448D01*
X125957141Y-108170324D01*
X125897785Y-108027026D01*
X125811614Y-107898062D01*
X125701938Y-107788386D01*
X125572974Y-107702215D01*
X125429676Y-107642859D01*
X125277552Y-107612600D01*
X125122448Y-107612600D01*
X124970324Y-107642859D01*
X124827026Y-107702215D01*
X124698062Y-107788386D01*
X124588386Y-107898062D01*
X124575465Y-107917400D01*
X122224535Y-107917400D01*
X122211614Y-107898062D01*
X122101938Y-107788386D01*
X121972974Y-107702215D01*
X121829676Y-107642859D01*
X121677552Y-107612600D01*
X121522448Y-107612600D01*
X121499637Y-107617137D01*
X119008017Y-105125518D01*
X118992901Y-105107099D01*
X118919415Y-105046791D01*
X118835577Y-105001978D01*
X118744606Y-104974383D01*
X118673707Y-104967400D01*
X118673705Y-104967400D01*
X118650000Y-104965065D01*
X118626295Y-104967400D01*
X118292843Y-104967400D01*
X118292843Y-104250000D01*
X118285487Y-104175311D01*
X118263701Y-104103492D01*
X118228322Y-104037304D01*
X118180711Y-103979289D01*
X118122696Y-103931678D01*
X118056508Y-103896299D01*
X117984689Y-103874513D01*
X117910000Y-103867157D01*
X117379420Y-103867157D01*
X117847409Y-103399169D01*
X117864853Y-103384853D01*
X117902068Y-103339507D01*
X117921987Y-103315237D01*
X117959465Y-103245118D01*
X117964441Y-103235809D01*
X117990585Y-103149627D01*
X117993217Y-103122900D01*
X118056508Y-103103701D01*
X118122696Y-103068322D01*
X118180711Y-103020711D01*
X118228322Y-102962696D01*
X118263701Y-102896508D01*
X118285487Y-102824689D01*
X118292843Y-102750000D01*
X118292843Y-100350000D01*
X118285487Y-100275311D01*
X118263701Y-100203492D01*
X118228322Y-100137304D01*
X118180711Y-100079289D01*
X118122696Y-100031678D01*
X118056508Y-99996299D01*
X117984689Y-99974513D01*
X117910000Y-99967157D01*
X117170000Y-99967157D01*
X117095311Y-99974513D01*
X117023492Y-99996299D01*
X116957304Y-100031678D01*
X116905000Y-100074602D01*
X116852696Y-100031678D01*
X116786508Y-99996299D01*
X116714689Y-99974513D01*
X116640000Y-99967157D01*
X115900000Y-99967157D01*
X115825311Y-99974513D01*
X115753492Y-99996299D01*
X115687304Y-100031678D01*
X115635000Y-100074602D01*
X115582696Y-100031678D01*
X115516508Y-99996299D01*
X115444689Y-99974513D01*
X115370000Y-99967157D01*
X114630000Y-99967157D01*
X114555311Y-99974513D01*
X114483492Y-99996299D01*
X114417304Y-100031678D01*
X114365000Y-100074602D01*
X114312696Y-100031678D01*
X114246508Y-99996299D01*
X114174689Y-99974513D01*
X114100000Y-99967157D01*
X113859421Y-99967157D01*
X113864568Y-99962010D01*
X119115433Y-99962010D01*
X119342801Y-100189379D01*
G36*
X112587000Y-105323000D02*
G01*
X113603000Y-105323000D01*
X113603000Y-105303000D01*
X113857000Y-105303000D01*
X113857000Y-105323000D01*
X114873000Y-105323000D01*
X114873000Y-105303000D01*
X115127000Y-105303000D01*
X115127000Y-105323000D01*
X116143000Y-105323000D01*
X116143000Y-105303000D01*
X116397000Y-105303000D01*
X116397000Y-105323000D01*
X116417000Y-105323000D01*
X116417000Y-105577000D01*
X116397000Y-105577000D01*
X116397000Y-107126250D01*
X116555750Y-107285000D01*
X116640000Y-107288072D01*
X116764482Y-107275812D01*
X116884180Y-107239502D01*
X116994494Y-107180537D01*
X117091185Y-107101185D01*
X117148971Y-107030772D01*
X117170000Y-107032843D01*
X117658384Y-107032843D01*
X117642859Y-107070324D01*
X117612600Y-107222448D01*
X117612600Y-107377552D01*
X117642859Y-107529676D01*
X117702215Y-107672974D01*
X117788386Y-107801938D01*
X117898062Y-107911614D01*
X117917401Y-107924536D01*
X117917400Y-109721019D01*
X117862290Y-109638540D01*
X117761460Y-109537710D01*
X117751112Y-109530796D01*
X117750585Y-109525440D01*
X117724441Y-109439258D01*
X117681987Y-109359831D01*
X117670647Y-109346013D01*
X117639170Y-109307659D01*
X117624853Y-109290214D01*
X117607408Y-109275897D01*
X116482107Y-108150597D01*
X116467786Y-108133147D01*
X116398169Y-108076013D01*
X116318742Y-108033559D01*
X116232560Y-108007415D01*
X116165393Y-108000800D01*
X116165383Y-108000800D01*
X116142933Y-107998589D01*
X116120483Y-108000800D01*
X111695377Y-108000800D01*
X111657200Y-107962623D01*
X111657200Y-107116273D01*
X111735506Y-107180537D01*
X111845820Y-107239502D01*
X111965518Y-107275812D01*
X112090000Y-107288072D01*
X112174250Y-107285000D01*
X112333000Y-107126250D01*
X112333000Y-105577000D01*
X112587000Y-105577000D01*
X112587000Y-107126250D01*
X112745750Y-107285000D01*
X112830000Y-107288072D01*
X112954482Y-107275812D01*
X113074180Y-107239502D01*
X113095000Y-107228373D01*
X113115820Y-107239502D01*
X113235518Y-107275812D01*
X113360000Y-107288072D01*
X113444250Y-107285000D01*
X113603000Y-107126250D01*
X113603000Y-105577000D01*
X113857000Y-105577000D01*
X113857000Y-107126250D01*
X114015750Y-107285000D01*
X114100000Y-107288072D01*
X114224482Y-107275812D01*
X114344180Y-107239502D01*
X114365000Y-107228373D01*
X114385820Y-107239502D01*
X114505518Y-107275812D01*
X114630000Y-107288072D01*
X114714250Y-107285000D01*
X114873000Y-107126250D01*
X114873000Y-105577000D01*
X115127000Y-105577000D01*
X115127000Y-107126250D01*
X115285750Y-107285000D01*
X115370000Y-107288072D01*
X115494482Y-107275812D01*
X115614180Y-107239502D01*
X115635000Y-107228373D01*
X115655820Y-107239502D01*
X115775518Y-107275812D01*
X115900000Y-107288072D01*
X115984250Y-107285000D01*
X116143000Y-107126250D01*
X116143000Y-105577000D01*
X115127000Y-105577000D01*
X114873000Y-105577000D01*
X113857000Y-105577000D01*
X113603000Y-105577000D01*
X112587000Y-105577000D01*
X112333000Y-105577000D01*
X112313000Y-105577000D01*
X112313000Y-105323000D01*
X112333000Y-105323000D01*
X112333000Y-105303000D01*
X112587000Y-105303000D01*
X112587000Y-105323000D01*
G37*
X112587000Y-105323000D02*
X113603000Y-105323000D01*
X113603000Y-105303000D01*
X113857000Y-105303000D01*
X113857000Y-105323000D01*
X114873000Y-105323000D01*
X114873000Y-105303000D01*
X115127000Y-105303000D01*
X115127000Y-105323000D01*
X116143000Y-105323000D01*
X116143000Y-105303000D01*
X116397000Y-105303000D01*
X116397000Y-105323000D01*
X116417000Y-105323000D01*
X116417000Y-105577000D01*
X116397000Y-105577000D01*
X116397000Y-107126250D01*
X116555750Y-107285000D01*
X116640000Y-107288072D01*
X116764482Y-107275812D01*
X116884180Y-107239502D01*
X116994494Y-107180537D01*
X117091185Y-107101185D01*
X117148971Y-107030772D01*
X117170000Y-107032843D01*
X117658384Y-107032843D01*
X117642859Y-107070324D01*
X117612600Y-107222448D01*
X117612600Y-107377552D01*
X117642859Y-107529676D01*
X117702215Y-107672974D01*
X117788386Y-107801938D01*
X117898062Y-107911614D01*
X117917401Y-107924536D01*
X117917400Y-109721019D01*
X117862290Y-109638540D01*
X117761460Y-109537710D01*
X117751112Y-109530796D01*
X117750585Y-109525440D01*
X117724441Y-109439258D01*
X117681987Y-109359831D01*
X117670647Y-109346013D01*
X117639170Y-109307659D01*
X117624853Y-109290214D01*
X117607408Y-109275897D01*
X116482107Y-108150597D01*
X116467786Y-108133147D01*
X116398169Y-108076013D01*
X116318742Y-108033559D01*
X116232560Y-108007415D01*
X116165393Y-108000800D01*
X116165383Y-108000800D01*
X116142933Y-107998589D01*
X116120483Y-108000800D01*
X111695377Y-108000800D01*
X111657200Y-107962623D01*
X111657200Y-107116273D01*
X111735506Y-107180537D01*
X111845820Y-107239502D01*
X111965518Y-107275812D01*
X112090000Y-107288072D01*
X112174250Y-107285000D01*
X112333000Y-107126250D01*
X112333000Y-105577000D01*
X112587000Y-105577000D01*
X112587000Y-107126250D01*
X112745750Y-107285000D01*
X112830000Y-107288072D01*
X112954482Y-107275812D01*
X113074180Y-107239502D01*
X113095000Y-107228373D01*
X113115820Y-107239502D01*
X113235518Y-107275812D01*
X113360000Y-107288072D01*
X113444250Y-107285000D01*
X113603000Y-107126250D01*
X113603000Y-105577000D01*
X113857000Y-105577000D01*
X113857000Y-107126250D01*
X114015750Y-107285000D01*
X114100000Y-107288072D01*
X114224482Y-107275812D01*
X114344180Y-107239502D01*
X114365000Y-107228373D01*
X114385820Y-107239502D01*
X114505518Y-107275812D01*
X114630000Y-107288072D01*
X114714250Y-107285000D01*
X114873000Y-107126250D01*
X114873000Y-105577000D01*
X115127000Y-105577000D01*
X115127000Y-107126250D01*
X115285750Y-107285000D01*
X115370000Y-107288072D01*
X115494482Y-107275812D01*
X115614180Y-107239502D01*
X115635000Y-107228373D01*
X115655820Y-107239502D01*
X115775518Y-107275812D01*
X115900000Y-107288072D01*
X115984250Y-107285000D01*
X116143000Y-107126250D01*
X116143000Y-105577000D01*
X115127000Y-105577000D01*
X114873000Y-105577000D01*
X113857000Y-105577000D01*
X113603000Y-105577000D01*
X112587000Y-105577000D01*
X112333000Y-105577000D01*
X112313000Y-105577000D01*
X112313000Y-105323000D01*
X112333000Y-105323000D01*
X112333000Y-105303000D01*
X112587000Y-105303000D01*
X112587000Y-105323000D01*
M02*
