G04 #@! TF.GenerationSoftware,KiCad,Pcbnew,(5.0.0-rc2-dev-444-g2974a2c10)*
G04 #@! TF.CreationDate,2019-10-03T16:28:08-07:00*
G04 #@! TF.ProjectId,StringCar CPy PCB,537472696E6743617220435079205043,v03*
G04 #@! TF.SameCoordinates,Original*
G04 #@! TF.FileFunction,Legend,Top*
G04 #@! TF.FilePolarity,Positive*
%FSLAX46Y46*%
G04 Gerber Fmt 4.6, Leading zero omitted, Abs format (unit mm)*
G04 Created by KiCad (PCBNEW (5.0.0-rc2-dev-444-g2974a2c10)) date 10/03/19 16:28:08*
%MOMM*%
%LPD*%
G01*
G04 APERTURE LIST*
%ADD10C,0.200000*%
%ADD11C,0.150000*%
%ADD12C,0.100000*%
%ADD13C,0.010000*%
%ADD14C,0.120000*%
%ADD15C,0.080000*%
G04 APERTURE END LIST*
D10*
X106319047Y-102571428D02*
X107080952Y-102571428D01*
X106700000Y-102952380D02*
X106700000Y-102190476D01*
D11*
G36*
X110846000Y-95546000D02*
X111100000Y-95546000D01*
X111100000Y-95800000D01*
X110846000Y-95800000D01*
X110846000Y-95546000D01*
G37*
X110846000Y-95546000D02*
X111100000Y-95546000D01*
X111100000Y-95800000D01*
X110846000Y-95800000D01*
X110846000Y-95546000D01*
G36*
X113446000Y-107546000D02*
X113700000Y-107546000D01*
X113700000Y-107800000D01*
X113446000Y-107800000D01*
X113446000Y-107546000D01*
G37*
X113446000Y-107546000D02*
X113700000Y-107546000D01*
X113700000Y-107800000D01*
X113446000Y-107800000D01*
X113446000Y-107546000D01*
G36*
X108646000Y-110246000D02*
X108900000Y-110246000D01*
X108900000Y-110500000D01*
X108646000Y-110500000D01*
X108646000Y-110246000D01*
G37*
X108646000Y-110246000D02*
X108900000Y-110246000D01*
X108900000Y-110500000D01*
X108646000Y-110500000D01*
X108646000Y-110246000D01*
G36*
X104346000Y-111246000D02*
X104600000Y-111246000D01*
X104600000Y-111500000D01*
X104346000Y-111500000D01*
X104346000Y-111246000D01*
G37*
X104346000Y-111246000D02*
X104600000Y-111246000D01*
X104600000Y-111500000D01*
X104346000Y-111500000D01*
X104346000Y-111246000D01*
G36*
X142100000Y-109946000D02*
X142354000Y-109946000D01*
X142354000Y-110200000D01*
X142100000Y-110200000D01*
X142100000Y-109946000D01*
G37*
X142100000Y-109946000D02*
X142354000Y-109946000D01*
X142354000Y-110200000D01*
X142100000Y-110200000D01*
X142100000Y-109946000D01*
G36*
X120746000Y-94946000D02*
X121000000Y-94946000D01*
X121000000Y-95200000D01*
X120746000Y-95200000D01*
X120746000Y-94946000D01*
G37*
X120746000Y-94946000D02*
X121000000Y-94946000D01*
X121000000Y-95200000D01*
X120746000Y-95200000D01*
X120746000Y-94946000D01*
G36*
X120100000Y-111946000D02*
X120354000Y-111946000D01*
X120354000Y-112200000D01*
X120100000Y-112200000D01*
X120100000Y-111946000D01*
G37*
X120100000Y-111946000D02*
X120354000Y-111946000D01*
X120354000Y-112200000D01*
X120100000Y-112200000D01*
X120100000Y-111946000D01*
G36*
X130846000Y-95646000D02*
X131100000Y-95646000D01*
X131100000Y-95900000D01*
X130846000Y-95900000D01*
X130846000Y-95646000D01*
G37*
X130846000Y-95646000D02*
X131100000Y-95646000D01*
X131100000Y-95900000D01*
X130846000Y-95900000D01*
X130846000Y-95646000D01*
D12*
X108078571Y-115365000D02*
X108102380Y-115388809D01*
X108126190Y-115460238D01*
X108126190Y-115507857D01*
X108102380Y-115579285D01*
X108054761Y-115626904D01*
X108007142Y-115650714D01*
X107911904Y-115674523D01*
X107840476Y-115674523D01*
X107745238Y-115650714D01*
X107697619Y-115626904D01*
X107650000Y-115579285D01*
X107626190Y-115507857D01*
X107626190Y-115460238D01*
X107650000Y-115388809D01*
X107673809Y-115365000D01*
X108126190Y-115150714D02*
X107626190Y-115150714D01*
X107864285Y-115150714D02*
X107864285Y-114865000D01*
X108126190Y-114865000D02*
X107626190Y-114865000D01*
X107983333Y-114650714D02*
X107983333Y-114412619D01*
X108126190Y-114698333D02*
X107626190Y-114531666D01*
X108126190Y-114365000D01*
X108126190Y-113912619D02*
X107888095Y-114079285D01*
X108126190Y-114198333D02*
X107626190Y-114198333D01*
X107626190Y-114007857D01*
X107650000Y-113960238D01*
X107673809Y-113936428D01*
X107721428Y-113912619D01*
X107792857Y-113912619D01*
X107840476Y-113936428D01*
X107864285Y-113960238D01*
X107888095Y-114007857D01*
X107888095Y-114198333D01*
X107650000Y-113436428D02*
X107626190Y-113484047D01*
X107626190Y-113555476D01*
X107650000Y-113626904D01*
X107697619Y-113674523D01*
X107745238Y-113698333D01*
X107840476Y-113722142D01*
X107911904Y-113722142D01*
X108007142Y-113698333D01*
X108054761Y-113674523D01*
X108102380Y-113626904D01*
X108126190Y-113555476D01*
X108126190Y-113507857D01*
X108102380Y-113436428D01*
X108078571Y-113412619D01*
X107911904Y-113412619D01*
X107911904Y-113507857D01*
X107864285Y-113198333D02*
X107864285Y-113031666D01*
X108126190Y-112960238D02*
X108126190Y-113198333D01*
X107626190Y-113198333D01*
X107626190Y-112960238D01*
X138802380Y-115738095D02*
X138826190Y-115666666D01*
X138826190Y-115547619D01*
X138802380Y-115500000D01*
X138778571Y-115476190D01*
X138730952Y-115452380D01*
X138683333Y-115452380D01*
X138635714Y-115476190D01*
X138611904Y-115500000D01*
X138588095Y-115547619D01*
X138564285Y-115642857D01*
X138540476Y-115690476D01*
X138516666Y-115714285D01*
X138469047Y-115738095D01*
X138421428Y-115738095D01*
X138373809Y-115714285D01*
X138350000Y-115690476D01*
X138326190Y-115642857D01*
X138326190Y-115523809D01*
X138350000Y-115452380D01*
X138326190Y-115309523D02*
X138326190Y-115023809D01*
X138826190Y-115166666D02*
X138326190Y-115166666D01*
X138683333Y-114880952D02*
X138683333Y-114642857D01*
X138826190Y-114928571D02*
X138326190Y-114761904D01*
X138826190Y-114595238D01*
X138326190Y-114500000D02*
X138326190Y-114214285D01*
X138826190Y-114357142D02*
X138326190Y-114357142D01*
X138326190Y-114047619D02*
X138730952Y-114047619D01*
X138778571Y-114023809D01*
X138802380Y-114000000D01*
X138826190Y-113952380D01*
X138826190Y-113857142D01*
X138802380Y-113809523D01*
X138778571Y-113785714D01*
X138730952Y-113761904D01*
X138326190Y-113761904D01*
X138802380Y-113547619D02*
X138826190Y-113476190D01*
X138826190Y-113357142D01*
X138802380Y-113309523D01*
X138778571Y-113285714D01*
X138730952Y-113261904D01*
X138683333Y-113261904D01*
X138635714Y-113285714D01*
X138611904Y-113309523D01*
X138588095Y-113357142D01*
X138564285Y-113452380D01*
X138540476Y-113500000D01*
X138516666Y-113523809D01*
X138469047Y-113547619D01*
X138421428Y-113547619D01*
X138373809Y-113523809D01*
X138350000Y-113500000D01*
X138326190Y-113452380D01*
X138326190Y-113333333D01*
X138350000Y-113261904D01*
X136400000Y-101000000D02*
X136100000Y-101000000D01*
X136400000Y-100700000D02*
X136400000Y-101000000D01*
X136400000Y-95800000D02*
X136100000Y-95800000D01*
X136400000Y-96100000D02*
X136400000Y-95800000D01*
X132200000Y-101000000D02*
X132500000Y-101000000D01*
X132200000Y-100700000D02*
X132200000Y-101000000D01*
X132400000Y-96100000D02*
X131600000Y-96100000D01*
X132700000Y-95800000D02*
X132400000Y-96100000D01*
X133100000Y-95800000D02*
X132700000Y-95800000D01*
D13*
G36*
X135648778Y-102662614D02*
X135697294Y-102671431D01*
X135711872Y-102686292D01*
X135697831Y-102701390D01*
X135652097Y-102707249D01*
X135583142Y-102705491D01*
X135512427Y-102702407D01*
X135474650Y-102705489D01*
X135460519Y-102717967D01*
X135460741Y-102743074D01*
X135461395Y-102747825D01*
X135471266Y-102779252D01*
X135497216Y-102793171D01*
X135551685Y-102795710D01*
X135558375Y-102795590D01*
X135621739Y-102799793D01*
X135647430Y-102816383D01*
X135648333Y-102822048D01*
X135630569Y-102841667D01*
X135575377Y-102849936D01*
X135553083Y-102850334D01*
X135494306Y-102852527D01*
X135466459Y-102863308D01*
X135458197Y-102888977D01*
X135457833Y-102903250D01*
X135460522Y-102932577D01*
X135475216Y-102948411D01*
X135511856Y-102954893D01*
X135580382Y-102956166D01*
X135584833Y-102956167D01*
X135658576Y-102958605D01*
X135698169Y-102967249D01*
X135711583Y-102984091D01*
X135711833Y-102987917D01*
X135709015Y-103013969D01*
X135706542Y-103015929D01*
X135684435Y-103012344D01*
X135631678Y-103006577D01*
X135561676Y-103000054D01*
X135422102Y-102987917D01*
X135417419Y-102823875D01*
X135412736Y-102659834D01*
X135562284Y-102659834D01*
X135648778Y-102662614D01*
X135648778Y-102662614D01*
G37*
X135648778Y-102662614D02*
X135697294Y-102671431D01*
X135711872Y-102686292D01*
X135697831Y-102701390D01*
X135652097Y-102707249D01*
X135583142Y-102705491D01*
X135512427Y-102702407D01*
X135474650Y-102705489D01*
X135460519Y-102717967D01*
X135460741Y-102743074D01*
X135461395Y-102747825D01*
X135471266Y-102779252D01*
X135497216Y-102793171D01*
X135551685Y-102795710D01*
X135558375Y-102795590D01*
X135621739Y-102799793D01*
X135647430Y-102816383D01*
X135648333Y-102822048D01*
X135630569Y-102841667D01*
X135575377Y-102849936D01*
X135553083Y-102850334D01*
X135494306Y-102852527D01*
X135466459Y-102863308D01*
X135458197Y-102888977D01*
X135457833Y-102903250D01*
X135460522Y-102932577D01*
X135475216Y-102948411D01*
X135511856Y-102954893D01*
X135580382Y-102956166D01*
X135584833Y-102956167D01*
X135658576Y-102958605D01*
X135698169Y-102967249D01*
X135711583Y-102984091D01*
X135711833Y-102987917D01*
X135709015Y-103013969D01*
X135706542Y-103015929D01*
X135684435Y-103012344D01*
X135631678Y-103006577D01*
X135561676Y-103000054D01*
X135422102Y-102987917D01*
X135417419Y-102823875D01*
X135412736Y-102659834D01*
X135562284Y-102659834D01*
X135648778Y-102662614D01*
G36*
X139029708Y-102659798D02*
X139107699Y-102662525D01*
X139161846Y-102669834D01*
X139183126Y-102680478D01*
X139183167Y-102681000D01*
X139163863Y-102692244D01*
X139113330Y-102699878D01*
X139054694Y-102702167D01*
X138983985Y-102703278D01*
X138946306Y-102709034D01*
X138932367Y-102723071D01*
X138932878Y-102749024D01*
X138932986Y-102749792D01*
X138944359Y-102781194D01*
X138974792Y-102795342D01*
X139024417Y-102798786D01*
X139085583Y-102805360D01*
X139106845Y-102818867D01*
X139088804Y-102833925D01*
X139032060Y-102845155D01*
X139019125Y-102846259D01*
X138962138Y-102853324D01*
X138935998Y-102868438D01*
X138929223Y-102899032D01*
X138929167Y-102904467D01*
X138932016Y-102933131D01*
X138947182Y-102948608D01*
X138984594Y-102954939D01*
X139054179Y-102956167D01*
X139056167Y-102956167D01*
X139129910Y-102958605D01*
X139169502Y-102967249D01*
X139182916Y-102984091D01*
X139183167Y-102987917D01*
X139180350Y-103013926D01*
X139177875Y-103015853D01*
X139155785Y-103012384D01*
X139102662Y-103006851D01*
X139029685Y-103000410D01*
X139024417Y-102999978D01*
X138876250Y-102987917D01*
X138876250Y-102659763D01*
X139029708Y-102659798D01*
X139029708Y-102659798D01*
G37*
X139029708Y-102659798D02*
X139107699Y-102662525D01*
X139161846Y-102669834D01*
X139183126Y-102680478D01*
X139183167Y-102681000D01*
X139163863Y-102692244D01*
X139113330Y-102699878D01*
X139054694Y-102702167D01*
X138983985Y-102703278D01*
X138946306Y-102709034D01*
X138932367Y-102723071D01*
X138932878Y-102749024D01*
X138932986Y-102749792D01*
X138944359Y-102781194D01*
X138974792Y-102795342D01*
X139024417Y-102798786D01*
X139085583Y-102805360D01*
X139106845Y-102818867D01*
X139088804Y-102833925D01*
X139032060Y-102845155D01*
X139019125Y-102846259D01*
X138962138Y-102853324D01*
X138935998Y-102868438D01*
X138929223Y-102899032D01*
X138929167Y-102904467D01*
X138932016Y-102933131D01*
X138947182Y-102948608D01*
X138984594Y-102954939D01*
X139054179Y-102956167D01*
X139056167Y-102956167D01*
X139129910Y-102958605D01*
X139169502Y-102967249D01*
X139182916Y-102984091D01*
X139183167Y-102987917D01*
X139180350Y-103013926D01*
X139177875Y-103015853D01*
X139155785Y-103012384D01*
X139102662Y-103006851D01*
X139029685Y-103000410D01*
X139024417Y-102999978D01*
X138876250Y-102987917D01*
X138876250Y-102659763D01*
X139029708Y-102659798D01*
G36*
X135181394Y-102603065D02*
X135244735Y-102620550D01*
X135286246Y-102644724D01*
X135295728Y-102671525D01*
X135295649Y-102671735D01*
X135281786Y-102690108D01*
X135255487Y-102680929D01*
X135239309Y-102670113D01*
X135171737Y-102644285D01*
X135087809Y-102641232D01*
X135007277Y-102661627D01*
X135006080Y-102662168D01*
X134947902Y-102707988D01*
X134922304Y-102770448D01*
X134929726Y-102838628D01*
X134970613Y-102901612D01*
X134995540Y-102922281D01*
X135052675Y-102945765D01*
X135125310Y-102955032D01*
X135196016Y-102949869D01*
X135247367Y-102930063D01*
X135252718Y-102925425D01*
X135282850Y-102906021D01*
X135296563Y-102907786D01*
X135306897Y-102936456D01*
X135283796Y-102961352D01*
X135236106Y-102980798D01*
X135172673Y-102993121D01*
X135102344Y-102996645D01*
X135033965Y-102989698D01*
X134976383Y-102970605D01*
X134973330Y-102968962D01*
X134905590Y-102912643D01*
X134872318Y-102844198D01*
X134870690Y-102771532D01*
X134897882Y-102702555D01*
X134951067Y-102645174D01*
X135027424Y-102607295D01*
X135106421Y-102596334D01*
X135181394Y-102603065D01*
X135181394Y-102603065D01*
G37*
X135181394Y-102603065D02*
X135244735Y-102620550D01*
X135286246Y-102644724D01*
X135295728Y-102671525D01*
X135295649Y-102671735D01*
X135281786Y-102690108D01*
X135255487Y-102680929D01*
X135239309Y-102670113D01*
X135171737Y-102644285D01*
X135087809Y-102641232D01*
X135007277Y-102661627D01*
X135006080Y-102662168D01*
X134947902Y-102707988D01*
X134922304Y-102770448D01*
X134929726Y-102838628D01*
X134970613Y-102901612D01*
X134995540Y-102922281D01*
X135052675Y-102945765D01*
X135125310Y-102955032D01*
X135196016Y-102949869D01*
X135247367Y-102930063D01*
X135252718Y-102925425D01*
X135282850Y-102906021D01*
X135296563Y-102907786D01*
X135306897Y-102936456D01*
X135283796Y-102961352D01*
X135236106Y-102980798D01*
X135172673Y-102993121D01*
X135102344Y-102996645D01*
X135033965Y-102989698D01*
X134976383Y-102970605D01*
X134973330Y-102968962D01*
X134905590Y-102912643D01*
X134872318Y-102844198D01*
X134870690Y-102771532D01*
X134897882Y-102702555D01*
X134951067Y-102645174D01*
X135027424Y-102607295D01*
X135106421Y-102596334D01*
X135181394Y-102603065D01*
G36*
X135970205Y-102663625D02*
X136028971Y-102673304D01*
X136049665Y-102680553D01*
X136090224Y-102722900D01*
X136116373Y-102789459D01*
X136122015Y-102862934D01*
X136119713Y-102879295D01*
X136091188Y-102941797D01*
X136032236Y-102980642D01*
X135939844Y-102997486D01*
X135902915Y-102998500D01*
X135785917Y-102998500D01*
X135785917Y-102702167D01*
X135838833Y-102702167D01*
X135838833Y-102956167D01*
X135932883Y-102956167D01*
X136000586Y-102950451D01*
X136042260Y-102929546D01*
X136059883Y-102909124D01*
X136088461Y-102840510D01*
X136079217Y-102779125D01*
X136036659Y-102731809D01*
X135965296Y-102705406D01*
X135923500Y-102702167D01*
X135838833Y-102702167D01*
X135785917Y-102702167D01*
X135785917Y-102659834D01*
X135898433Y-102659834D01*
X135970205Y-102663625D01*
X135970205Y-102663625D01*
G37*
X135970205Y-102663625D02*
X136028971Y-102673304D01*
X136049665Y-102680553D01*
X136090224Y-102722900D01*
X136116373Y-102789459D01*
X136122015Y-102862934D01*
X136119713Y-102879295D01*
X136091188Y-102941797D01*
X136032236Y-102980642D01*
X135939844Y-102997486D01*
X135902915Y-102998500D01*
X135785917Y-102998500D01*
X135785917Y-102702167D01*
X135838833Y-102702167D01*
X135838833Y-102956167D01*
X135932883Y-102956167D01*
X136000586Y-102950451D01*
X136042260Y-102929546D01*
X136059883Y-102909124D01*
X136088461Y-102840510D01*
X136079217Y-102779125D01*
X136036659Y-102731809D01*
X135965296Y-102705406D01*
X135923500Y-102702167D01*
X135838833Y-102702167D01*
X135785917Y-102702167D01*
X135785917Y-102659834D01*
X135898433Y-102659834D01*
X135970205Y-102663625D01*
G36*
X136380655Y-102668243D02*
X136389167Y-102680441D01*
X136397897Y-102708161D01*
X136421018Y-102762937D01*
X136453921Y-102833991D01*
X136461547Y-102849774D01*
X136498627Y-102931640D01*
X136513704Y-102980307D01*
X136507516Y-102998286D01*
X136505307Y-102998500D01*
X136476525Y-102980894D01*
X136463250Y-102956167D01*
X136447183Y-102929985D01*
X136412965Y-102917277D01*
X136348889Y-102913838D01*
X136345407Y-102913834D01*
X136278132Y-102917785D01*
X136244573Y-102933143D01*
X136236563Y-102965163D01*
X136238493Y-102982625D01*
X136223131Y-102995752D01*
X136201314Y-102998500D01*
X136183818Y-102994495D01*
X136180757Y-102977712D01*
X136194037Y-102941002D01*
X136225563Y-102877215D01*
X136233486Y-102862053D01*
X136288736Y-102862053D01*
X136312380Y-102870697D01*
X136346833Y-102871500D01*
X136393077Y-102863724D01*
X136409583Y-102845042D01*
X136399355Y-102807772D01*
X136380344Y-102767154D01*
X136351855Y-102715725D01*
X136317594Y-102781978D01*
X136291543Y-102835752D01*
X136288736Y-102862053D01*
X136233486Y-102862053D01*
X136242033Y-102845700D01*
X136278092Y-102773063D01*
X136303067Y-102714667D01*
X136312850Y-102680427D01*
X136312220Y-102676367D01*
X136321152Y-102663282D01*
X136345584Y-102659834D01*
X136380655Y-102668243D01*
X136380655Y-102668243D01*
G37*
X136380655Y-102668243D02*
X136389167Y-102680441D01*
X136397897Y-102708161D01*
X136421018Y-102762937D01*
X136453921Y-102833991D01*
X136461547Y-102849774D01*
X136498627Y-102931640D01*
X136513704Y-102980307D01*
X136507516Y-102998286D01*
X136505307Y-102998500D01*
X136476525Y-102980894D01*
X136463250Y-102956167D01*
X136447183Y-102929985D01*
X136412965Y-102917277D01*
X136348889Y-102913838D01*
X136345407Y-102913834D01*
X136278132Y-102917785D01*
X136244573Y-102933143D01*
X136236563Y-102965163D01*
X136238493Y-102982625D01*
X136223131Y-102995752D01*
X136201314Y-102998500D01*
X136183818Y-102994495D01*
X136180757Y-102977712D01*
X136194037Y-102941002D01*
X136225563Y-102877215D01*
X136233486Y-102862053D01*
X136288736Y-102862053D01*
X136312380Y-102870697D01*
X136346833Y-102871500D01*
X136393077Y-102863724D01*
X136409583Y-102845042D01*
X136399355Y-102807772D01*
X136380344Y-102767154D01*
X136351855Y-102715725D01*
X136317594Y-102781978D01*
X136291543Y-102835752D01*
X136288736Y-102862053D01*
X136233486Y-102862053D01*
X136242033Y-102845700D01*
X136278092Y-102773063D01*
X136303067Y-102714667D01*
X136312850Y-102680427D01*
X136312220Y-102676367D01*
X136321152Y-102663282D01*
X136345584Y-102659834D01*
X136380655Y-102668243D01*
G36*
X136824903Y-102668398D02*
X136887175Y-102695058D01*
X136915750Y-102741264D01*
X136918333Y-102766354D01*
X136903609Y-102810219D01*
X136875608Y-102846156D01*
X136832882Y-102885961D01*
X136877144Y-102942230D01*
X136903157Y-102982822D01*
X136896952Y-102998203D01*
X136893411Y-102998439D01*
X136863967Y-102982216D01*
X136828283Y-102942492D01*
X136823083Y-102935000D01*
X136780799Y-102888472D01*
X136728053Y-102872200D01*
X136709556Y-102871561D01*
X136661777Y-102874681D01*
X136644923Y-102891905D01*
X136647660Y-102934854D01*
X136647682Y-102935000D01*
X136647513Y-102984143D01*
X136628917Y-102998500D01*
X136614011Y-102986747D01*
X136605108Y-102947497D01*
X136601215Y-102874764D01*
X136600833Y-102829167D01*
X136600833Y-102751556D01*
X136643167Y-102751556D01*
X136649523Y-102798848D01*
X136674852Y-102821805D01*
X136728539Y-102826492D01*
X136756660Y-102824871D01*
X136825577Y-102809546D01*
X136863261Y-102780939D01*
X136871323Y-102741925D01*
X136839669Y-102716006D01*
X136768971Y-102703584D01*
X136733125Y-102702491D01*
X136676287Y-102704937D01*
X136650160Y-102717002D01*
X136643255Y-102744951D01*
X136643167Y-102751556D01*
X136600833Y-102751556D01*
X136600833Y-102659834D01*
X136726321Y-102659834D01*
X136824903Y-102668398D01*
X136824903Y-102668398D01*
G37*
X136824903Y-102668398D02*
X136887175Y-102695058D01*
X136915750Y-102741264D01*
X136918333Y-102766354D01*
X136903609Y-102810219D01*
X136875608Y-102846156D01*
X136832882Y-102885961D01*
X136877144Y-102942230D01*
X136903157Y-102982822D01*
X136896952Y-102998203D01*
X136893411Y-102998439D01*
X136863967Y-102982216D01*
X136828283Y-102942492D01*
X136823083Y-102935000D01*
X136780799Y-102888472D01*
X136728053Y-102872200D01*
X136709556Y-102871561D01*
X136661777Y-102874681D01*
X136644923Y-102891905D01*
X136647660Y-102934854D01*
X136647682Y-102935000D01*
X136647513Y-102984143D01*
X136628917Y-102998500D01*
X136614011Y-102986747D01*
X136605108Y-102947497D01*
X136601215Y-102874764D01*
X136600833Y-102829167D01*
X136600833Y-102751556D01*
X136643167Y-102751556D01*
X136649523Y-102798848D01*
X136674852Y-102821805D01*
X136728539Y-102826492D01*
X136756660Y-102824871D01*
X136825577Y-102809546D01*
X136863261Y-102780939D01*
X136871323Y-102741925D01*
X136839669Y-102716006D01*
X136768971Y-102703584D01*
X136733125Y-102702491D01*
X136676287Y-102704937D01*
X136650160Y-102717002D01*
X136643255Y-102744951D01*
X136643167Y-102751556D01*
X136600833Y-102751556D01*
X136600833Y-102659834D01*
X136726321Y-102659834D01*
X136824903Y-102668398D01*
G36*
X137456747Y-102609644D02*
X137516267Y-102627069D01*
X137554065Y-102649660D01*
X137560686Y-102671203D01*
X137545241Y-102686537D01*
X137511867Y-102677548D01*
X137493638Y-102668521D01*
X137405564Y-102640791D01*
X137316946Y-102643533D01*
X137241913Y-102675586D01*
X137224288Y-102690621D01*
X137182435Y-102756083D01*
X137177223Y-102823613D01*
X137204269Y-102884837D01*
X137259189Y-102931379D01*
X137337600Y-102954864D01*
X137363263Y-102956167D01*
X137448191Y-102947502D01*
X137506674Y-102923571D01*
X137531724Y-102887471D01*
X137532167Y-102881339D01*
X137514992Y-102858166D01*
X137461274Y-102850346D01*
X137458083Y-102850334D01*
X137404758Y-102843401D01*
X137384031Y-102824640D01*
X137384000Y-102823723D01*
X137400270Y-102806875D01*
X137451743Y-102803058D01*
X137479250Y-102804687D01*
X137537939Y-102811585D01*
X137565737Y-102825346D01*
X137574062Y-102854172D01*
X137574500Y-102873088D01*
X137562652Y-102925092D01*
X137520203Y-102961827D01*
X137512051Y-102966207D01*
X137431279Y-102990733D01*
X137336132Y-102995706D01*
X137250283Y-102980129D01*
X137243390Y-102977512D01*
X137179354Y-102931197D01*
X137141456Y-102861980D01*
X137132326Y-102782168D01*
X137154600Y-102704067D01*
X137177658Y-102670288D01*
X137244765Y-102621407D01*
X137316536Y-102602647D01*
X137386504Y-102600474D01*
X137456747Y-102609644D01*
X137456747Y-102609644D01*
G37*
X137456747Y-102609644D02*
X137516267Y-102627069D01*
X137554065Y-102649660D01*
X137560686Y-102671203D01*
X137545241Y-102686537D01*
X137511867Y-102677548D01*
X137493638Y-102668521D01*
X137405564Y-102640791D01*
X137316946Y-102643533D01*
X137241913Y-102675586D01*
X137224288Y-102690621D01*
X137182435Y-102756083D01*
X137177223Y-102823613D01*
X137204269Y-102884837D01*
X137259189Y-102931379D01*
X137337600Y-102954864D01*
X137363263Y-102956167D01*
X137448191Y-102947502D01*
X137506674Y-102923571D01*
X137531724Y-102887471D01*
X137532167Y-102881339D01*
X137514992Y-102858166D01*
X137461274Y-102850346D01*
X137458083Y-102850334D01*
X137404758Y-102843401D01*
X137384031Y-102824640D01*
X137384000Y-102823723D01*
X137400270Y-102806875D01*
X137451743Y-102803058D01*
X137479250Y-102804687D01*
X137537939Y-102811585D01*
X137565737Y-102825346D01*
X137574062Y-102854172D01*
X137574500Y-102873088D01*
X137562652Y-102925092D01*
X137520203Y-102961827D01*
X137512051Y-102966207D01*
X137431279Y-102990733D01*
X137336132Y-102995706D01*
X137250283Y-102980129D01*
X137243390Y-102977512D01*
X137179354Y-102931197D01*
X137141456Y-102861980D01*
X137132326Y-102782168D01*
X137154600Y-102704067D01*
X137177658Y-102670288D01*
X137244765Y-102621407D01*
X137316536Y-102602647D01*
X137386504Y-102600474D01*
X137456747Y-102609644D01*
G36*
X137871579Y-102663858D02*
X137928313Y-102674352D01*
X137951267Y-102685234D01*
X137974604Y-102734740D01*
X137971704Y-102795437D01*
X137944735Y-102847126D01*
X137932779Y-102857507D01*
X137905747Y-102885903D01*
X137911498Y-102902219D01*
X137939408Y-102931233D01*
X137956131Y-102957346D01*
X137967362Y-102991502D01*
X137955847Y-103000404D01*
X137930446Y-102986962D01*
X137900020Y-102954087D01*
X137887693Y-102934866D01*
X137850437Y-102888166D01*
X137801313Y-102872063D01*
X137784749Y-102871500D01*
X137739043Y-102875195D01*
X137724069Y-102894725D01*
X137727182Y-102935000D01*
X137728118Y-102981675D01*
X137709662Y-102998071D01*
X137703126Y-102998500D01*
X137686149Y-102991611D01*
X137675958Y-102965714D01*
X137671008Y-102912962D01*
X137669750Y-102829167D01*
X137669750Y-102765667D01*
X137722667Y-102765667D01*
X137725556Y-102805101D01*
X137741983Y-102823514D01*
X137783588Y-102828882D01*
X137815325Y-102829167D01*
X137887022Y-102821327D01*
X137931839Y-102800130D01*
X137934333Y-102797417D01*
X137948874Y-102758059D01*
X137926294Y-102726498D01*
X137871638Y-102706773D01*
X137815325Y-102702167D01*
X137757783Y-102704147D01*
X137730915Y-102715405D01*
X137723083Y-102743917D01*
X137722667Y-102765667D01*
X137669750Y-102765667D01*
X137669750Y-102659834D01*
X137797808Y-102659834D01*
X137871579Y-102663858D01*
X137871579Y-102663858D01*
G37*
X137871579Y-102663858D02*
X137928313Y-102674352D01*
X137951267Y-102685234D01*
X137974604Y-102734740D01*
X137971704Y-102795437D01*
X137944735Y-102847126D01*
X137932779Y-102857507D01*
X137905747Y-102885903D01*
X137911498Y-102902219D01*
X137939408Y-102931233D01*
X137956131Y-102957346D01*
X137967362Y-102991502D01*
X137955847Y-103000404D01*
X137930446Y-102986962D01*
X137900020Y-102954087D01*
X137887693Y-102934866D01*
X137850437Y-102888166D01*
X137801313Y-102872063D01*
X137784749Y-102871500D01*
X137739043Y-102875195D01*
X137724069Y-102894725D01*
X137727182Y-102935000D01*
X137728118Y-102981675D01*
X137709662Y-102998071D01*
X137703126Y-102998500D01*
X137686149Y-102991611D01*
X137675958Y-102965714D01*
X137671008Y-102912962D01*
X137669750Y-102829167D01*
X137669750Y-102765667D01*
X137722667Y-102765667D01*
X137725556Y-102805101D01*
X137741983Y-102823514D01*
X137783588Y-102828882D01*
X137815325Y-102829167D01*
X137887022Y-102821327D01*
X137931839Y-102800130D01*
X137934333Y-102797417D01*
X137948874Y-102758059D01*
X137926294Y-102726498D01*
X137871638Y-102706773D01*
X137815325Y-102702167D01*
X137757783Y-102704147D01*
X137730915Y-102715405D01*
X137723083Y-102743917D01*
X137722667Y-102765667D01*
X137669750Y-102765667D01*
X137669750Y-102659834D01*
X137797808Y-102659834D01*
X137871579Y-102663858D01*
G36*
X138344383Y-102679182D02*
X138403651Y-102722145D01*
X138441200Y-102782278D01*
X138448707Y-102854728D01*
X138440455Y-102888957D01*
X138399241Y-102947851D01*
X138330463Y-102985426D01*
X138244711Y-102998695D01*
X138152578Y-102984670D01*
X138129817Y-102976560D01*
X138077275Y-102935675D01*
X138052115Y-102874091D01*
X138053764Y-102830703D01*
X138082500Y-102830703D01*
X138100602Y-102889070D01*
X138147282Y-102930919D01*
X138211103Y-102953545D01*
X138280629Y-102954244D01*
X138344422Y-102930314D01*
X138377297Y-102900396D01*
X138407382Y-102856870D01*
X138421086Y-102826625D01*
X138421167Y-102825350D01*
X138403515Y-102787534D01*
X138360271Y-102747170D01*
X138306004Y-102715101D01*
X138255650Y-102702167D01*
X138193080Y-102715951D01*
X138134440Y-102750521D01*
X138093435Y-102795701D01*
X138082500Y-102830703D01*
X138053764Y-102830703D01*
X138054789Y-102803771D01*
X138085745Y-102736677D01*
X138119483Y-102701832D01*
X138193977Y-102664174D01*
X138271718Y-102658242D01*
X138344383Y-102679182D01*
X138344383Y-102679182D01*
G37*
X138344383Y-102679182D02*
X138403651Y-102722145D01*
X138441200Y-102782278D01*
X138448707Y-102854728D01*
X138440455Y-102888957D01*
X138399241Y-102947851D01*
X138330463Y-102985426D01*
X138244711Y-102998695D01*
X138152578Y-102984670D01*
X138129817Y-102976560D01*
X138077275Y-102935675D01*
X138052115Y-102874091D01*
X138053764Y-102830703D01*
X138082500Y-102830703D01*
X138100602Y-102889070D01*
X138147282Y-102930919D01*
X138211103Y-102953545D01*
X138280629Y-102954244D01*
X138344422Y-102930314D01*
X138377297Y-102900396D01*
X138407382Y-102856870D01*
X138421086Y-102826625D01*
X138421167Y-102825350D01*
X138403515Y-102787534D01*
X138360271Y-102747170D01*
X138306004Y-102715101D01*
X138255650Y-102702167D01*
X138193080Y-102715951D01*
X138134440Y-102750521D01*
X138093435Y-102795701D01*
X138082500Y-102830703D01*
X138053764Y-102830703D01*
X138054789Y-102803771D01*
X138085745Y-102736677D01*
X138119483Y-102701832D01*
X138193977Y-102664174D01*
X138271718Y-102658242D01*
X138344383Y-102679182D01*
G36*
X138786096Y-102671860D02*
X138778836Y-102711409D01*
X138757154Y-102770959D01*
X138728076Y-102844821D01*
X138702404Y-102911827D01*
X138691893Y-102940292D01*
X138661058Y-102986994D01*
X138629513Y-102998500D01*
X138600202Y-102991902D01*
X138598006Y-102982313D01*
X138594386Y-102956816D01*
X138575863Y-102903569D01*
X138546132Y-102832850D01*
X138537074Y-102812980D01*
X138502713Y-102736286D01*
X138485942Y-102690056D01*
X138485129Y-102667036D01*
X138498644Y-102659971D01*
X138502648Y-102659834D01*
X138535032Y-102677284D01*
X138542206Y-102696875D01*
X138551251Y-102732833D01*
X138570998Y-102787374D01*
X138595862Y-102847363D01*
X138620260Y-102899661D01*
X138638608Y-102931133D01*
X138643417Y-102935000D01*
X138657202Y-102917241D01*
X138679560Y-102872722D01*
X138704905Y-102814581D01*
X138727654Y-102755952D01*
X138742224Y-102709975D01*
X138744627Y-102696875D01*
X138759976Y-102665416D01*
X138774612Y-102659834D01*
X138786096Y-102671860D01*
X138786096Y-102671860D01*
G37*
X138786096Y-102671860D02*
X138778836Y-102711409D01*
X138757154Y-102770959D01*
X138728076Y-102844821D01*
X138702404Y-102911827D01*
X138691893Y-102940292D01*
X138661058Y-102986994D01*
X138629513Y-102998500D01*
X138600202Y-102991902D01*
X138598006Y-102982313D01*
X138594386Y-102956816D01*
X138575863Y-102903569D01*
X138546132Y-102832850D01*
X138537074Y-102812980D01*
X138502713Y-102736286D01*
X138485942Y-102690056D01*
X138485129Y-102667036D01*
X138498644Y-102659971D01*
X138502648Y-102659834D01*
X138535032Y-102677284D01*
X138542206Y-102696875D01*
X138551251Y-102732833D01*
X138570998Y-102787374D01*
X138595862Y-102847363D01*
X138620260Y-102899661D01*
X138638608Y-102931133D01*
X138643417Y-102935000D01*
X138657202Y-102917241D01*
X138679560Y-102872722D01*
X138704905Y-102814581D01*
X138727654Y-102755952D01*
X138742224Y-102709975D01*
X138744627Y-102696875D01*
X138759976Y-102665416D01*
X138774612Y-102659834D01*
X138786096Y-102671860D01*
G36*
X139643459Y-102603047D02*
X139707078Y-102620530D01*
X139746920Y-102644797D01*
X139754667Y-102661574D01*
X139739769Y-102675212D01*
X139717625Y-102669256D01*
X139644181Y-102647747D01*
X139569561Y-102643041D01*
X139503954Y-102653323D01*
X139457545Y-102676774D01*
X139440522Y-102711578D01*
X139441292Y-102718542D01*
X139469107Y-102752932D01*
X139535826Y-102775199D01*
X139639308Y-102784724D01*
X139717852Y-102796475D01*
X139762009Y-102828938D01*
X139775833Y-102885094D01*
X139775833Y-102885117D01*
X139757104Y-102937251D01*
X139706739Y-102974381D01*
X139633467Y-102994250D01*
X139546021Y-102994601D01*
X139453130Y-102973178D01*
X139445660Y-102970432D01*
X139403676Y-102946702D01*
X139388566Y-102921850D01*
X139389110Y-102919440D01*
X139404924Y-102905493D01*
X139441184Y-102915990D01*
X139458941Y-102924731D01*
X139526487Y-102947530D01*
X139601437Y-102955248D01*
X139668267Y-102947888D01*
X139711456Y-102925454D01*
X139712109Y-102924686D01*
X139731656Y-102880953D01*
X139713024Y-102848383D01*
X139659757Y-102830985D01*
X139627651Y-102829167D01*
X139550002Y-102821034D01*
X139474999Y-102801185D01*
X139468237Y-102798497D01*
X139412892Y-102760796D01*
X139393181Y-102714834D01*
X139405437Y-102668079D01*
X139445992Y-102628002D01*
X139511178Y-102602073D01*
X139567498Y-102596334D01*
X139643459Y-102603047D01*
X139643459Y-102603047D01*
G37*
X139643459Y-102603047D02*
X139707078Y-102620530D01*
X139746920Y-102644797D01*
X139754667Y-102661574D01*
X139739769Y-102675212D01*
X139717625Y-102669256D01*
X139644181Y-102647747D01*
X139569561Y-102643041D01*
X139503954Y-102653323D01*
X139457545Y-102676774D01*
X139440522Y-102711578D01*
X139441292Y-102718542D01*
X139469107Y-102752932D01*
X139535826Y-102775199D01*
X139639308Y-102784724D01*
X139717852Y-102796475D01*
X139762009Y-102828938D01*
X139775833Y-102885094D01*
X139775833Y-102885117D01*
X139757104Y-102937251D01*
X139706739Y-102974381D01*
X139633467Y-102994250D01*
X139546021Y-102994601D01*
X139453130Y-102973178D01*
X139445660Y-102970432D01*
X139403676Y-102946702D01*
X139388566Y-102921850D01*
X139389110Y-102919440D01*
X139404924Y-102905493D01*
X139441184Y-102915990D01*
X139458941Y-102924731D01*
X139526487Y-102947530D01*
X139601437Y-102955248D01*
X139668267Y-102947888D01*
X139711456Y-102925454D01*
X139712109Y-102924686D01*
X139731656Y-102880953D01*
X139713024Y-102848383D01*
X139659757Y-102830985D01*
X139627651Y-102829167D01*
X139550002Y-102821034D01*
X139474999Y-102801185D01*
X139468237Y-102798497D01*
X139412892Y-102760796D01*
X139393181Y-102714834D01*
X139405437Y-102668079D01*
X139445992Y-102628002D01*
X139511178Y-102602073D01*
X139567498Y-102596334D01*
X139643459Y-102603047D01*
G36*
X140056907Y-102662460D02*
X140112660Y-102669569D01*
X140135518Y-102680008D01*
X140135667Y-102681000D01*
X140117029Y-102694862D01*
X140071069Y-102701934D01*
X140059846Y-102702167D01*
X139984026Y-102702167D01*
X139991055Y-102850381D01*
X139992675Y-102934174D01*
X139987208Y-102981652D01*
X139973927Y-102998349D01*
X139971625Y-102998548D01*
X139956372Y-102982869D01*
X139947790Y-102933197D01*
X139945167Y-102847931D01*
X139945167Y-102697362D01*
X139881667Y-102706682D01*
X139832524Y-102706514D01*
X139818167Y-102687918D01*
X139830393Y-102672568D01*
X139871038Y-102663622D01*
X139946051Y-102660026D01*
X139976917Y-102659834D01*
X140056907Y-102662460D01*
X140056907Y-102662460D01*
G37*
X140056907Y-102662460D02*
X140112660Y-102669569D01*
X140135518Y-102680008D01*
X140135667Y-102681000D01*
X140117029Y-102694862D01*
X140071069Y-102701934D01*
X140059846Y-102702167D01*
X139984026Y-102702167D01*
X139991055Y-102850381D01*
X139992675Y-102934174D01*
X139987208Y-102981652D01*
X139973927Y-102998349D01*
X139971625Y-102998548D01*
X139956372Y-102982869D01*
X139947790Y-102933197D01*
X139945167Y-102847931D01*
X139945167Y-102697362D01*
X139881667Y-102706682D01*
X139832524Y-102706514D01*
X139818167Y-102687918D01*
X139830393Y-102672568D01*
X139871038Y-102663622D01*
X139946051Y-102660026D01*
X139976917Y-102659834D01*
X140056907Y-102662460D01*
G36*
X140517367Y-102678668D02*
X140521808Y-102726941D01*
X140521071Y-102792203D01*
X140515815Y-102862033D01*
X140506702Y-102924009D01*
X140494392Y-102965711D01*
X140490479Y-102972042D01*
X140458009Y-102987684D01*
X140399981Y-102997178D01*
X140367108Y-102998500D01*
X140298023Y-102993997D01*
X140255965Y-102977081D01*
X140232117Y-102951457D01*
X140214047Y-102907558D01*
X140202691Y-102845132D01*
X140198329Y-102776706D01*
X140201240Y-102714806D01*
X140211701Y-102671960D01*
X140225625Y-102659820D01*
X140241995Y-102675765D01*
X140246584Y-102726451D01*
X140244894Y-102763500D01*
X140245737Y-102857420D01*
X140266049Y-102917378D01*
X140309079Y-102948517D01*
X140366653Y-102956167D01*
X140433725Y-102948177D01*
X140473877Y-102919765D01*
X140491777Y-102864271D01*
X140492208Y-102776934D01*
X140491503Y-102705520D01*
X140499432Y-102665798D01*
X140507086Y-102659805D01*
X140517367Y-102678668D01*
X140517367Y-102678668D01*
G37*
X140517367Y-102678668D02*
X140521808Y-102726941D01*
X140521071Y-102792203D01*
X140515815Y-102862033D01*
X140506702Y-102924009D01*
X140494392Y-102965711D01*
X140490479Y-102972042D01*
X140458009Y-102987684D01*
X140399981Y-102997178D01*
X140367108Y-102998500D01*
X140298023Y-102993997D01*
X140255965Y-102977081D01*
X140232117Y-102951457D01*
X140214047Y-102907558D01*
X140202691Y-102845132D01*
X140198329Y-102776706D01*
X140201240Y-102714806D01*
X140211701Y-102671960D01*
X140225625Y-102659820D01*
X140241995Y-102675765D01*
X140246584Y-102726451D01*
X140244894Y-102763500D01*
X140245737Y-102857420D01*
X140266049Y-102917378D01*
X140309079Y-102948517D01*
X140366653Y-102956167D01*
X140433725Y-102948177D01*
X140473877Y-102919765D01*
X140491777Y-102864271D01*
X140492208Y-102776934D01*
X140491503Y-102705520D01*
X140499432Y-102665798D01*
X140507086Y-102659805D01*
X140517367Y-102678668D01*
G36*
X140841212Y-102671536D02*
X140913289Y-102707309D01*
X140952514Y-102768149D01*
X140961167Y-102830703D01*
X140949883Y-102910374D01*
X140913026Y-102962475D01*
X140846088Y-102990629D01*
X140752480Y-102998500D01*
X140628460Y-102998500D01*
X140621319Y-102702167D01*
X140664833Y-102702167D01*
X140664833Y-102956167D01*
X140769922Y-102956167D01*
X140839132Y-102952113D01*
X140878620Y-102937361D01*
X140896922Y-102915225D01*
X140920481Y-102837495D01*
X140906203Y-102772153D01*
X140858116Y-102725327D01*
X140780251Y-102703144D01*
X140756803Y-102702167D01*
X140664833Y-102702167D01*
X140621319Y-102702167D01*
X140620298Y-102659834D01*
X140734961Y-102659834D01*
X140841212Y-102671536D01*
X140841212Y-102671536D01*
G37*
X140841212Y-102671536D02*
X140913289Y-102707309D01*
X140952514Y-102768149D01*
X140961167Y-102830703D01*
X140949883Y-102910374D01*
X140913026Y-102962475D01*
X140846088Y-102990629D01*
X140752480Y-102998500D01*
X140628460Y-102998500D01*
X140621319Y-102702167D01*
X140664833Y-102702167D01*
X140664833Y-102956167D01*
X140769922Y-102956167D01*
X140839132Y-102952113D01*
X140878620Y-102937361D01*
X140896922Y-102915225D01*
X140920481Y-102837495D01*
X140906203Y-102772153D01*
X140858116Y-102725327D01*
X140780251Y-102703144D01*
X140756803Y-102702167D01*
X140664833Y-102702167D01*
X140621319Y-102702167D01*
X140620298Y-102659834D01*
X140734961Y-102659834D01*
X140841212Y-102671536D01*
G36*
X141083290Y-102667809D02*
X141093067Y-102696747D01*
X141097739Y-102754165D01*
X141098750Y-102829167D01*
X141097254Y-102916050D01*
X141091828Y-102968192D01*
X141081063Y-102993110D01*
X141067000Y-102998500D01*
X141050709Y-102990524D01*
X141040933Y-102961586D01*
X141036261Y-102904169D01*
X141035250Y-102829167D01*
X141036745Y-102742283D01*
X141042171Y-102690141D01*
X141052937Y-102665224D01*
X141067000Y-102659834D01*
X141083290Y-102667809D01*
X141083290Y-102667809D01*
G37*
X141083290Y-102667809D02*
X141093067Y-102696747D01*
X141097739Y-102754165D01*
X141098750Y-102829167D01*
X141097254Y-102916050D01*
X141091828Y-102968192D01*
X141081063Y-102993110D01*
X141067000Y-102998500D01*
X141050709Y-102990524D01*
X141040933Y-102961586D01*
X141036261Y-102904169D01*
X141035250Y-102829167D01*
X141036745Y-102742283D01*
X141042171Y-102690141D01*
X141052937Y-102665224D01*
X141067000Y-102659834D01*
X141083290Y-102667809D01*
G36*
X141437426Y-102667661D02*
X141511841Y-102695670D01*
X141565354Y-102743999D01*
X141592966Y-102805557D01*
X141589678Y-102873255D01*
X141550488Y-102940005D01*
X141544212Y-102946546D01*
X141476319Y-102987179D01*
X141391702Y-103000237D01*
X141306126Y-102985286D01*
X141249771Y-102954631D01*
X141203333Y-102895846D01*
X141191561Y-102829167D01*
X141236333Y-102829167D01*
X141255231Y-102892376D01*
X141306691Y-102936697D01*
X141382861Y-102955851D01*
X141395083Y-102956167D01*
X141458848Y-102945187D01*
X141506790Y-102923217D01*
X141546380Y-102874478D01*
X141548601Y-102816775D01*
X141513944Y-102760085D01*
X141498062Y-102746036D01*
X141428497Y-102710792D01*
X141357187Y-102705489D01*
X141294506Y-102726836D01*
X141250826Y-102771536D01*
X141236333Y-102829167D01*
X141191561Y-102829167D01*
X141191372Y-102828097D01*
X141210509Y-102761366D01*
X141257365Y-102705636D01*
X141328561Y-102670890D01*
X141347109Y-102667060D01*
X141437426Y-102667661D01*
X141437426Y-102667661D01*
G37*
X141437426Y-102667661D02*
X141511841Y-102695670D01*
X141565354Y-102743999D01*
X141592966Y-102805557D01*
X141589678Y-102873255D01*
X141550488Y-102940005D01*
X141544212Y-102946546D01*
X141476319Y-102987179D01*
X141391702Y-103000237D01*
X141306126Y-102985286D01*
X141249771Y-102954631D01*
X141203333Y-102895846D01*
X141191561Y-102829167D01*
X141236333Y-102829167D01*
X141255231Y-102892376D01*
X141306691Y-102936697D01*
X141382861Y-102955851D01*
X141395083Y-102956167D01*
X141458848Y-102945187D01*
X141506790Y-102923217D01*
X141546380Y-102874478D01*
X141548601Y-102816775D01*
X141513944Y-102760085D01*
X141498062Y-102746036D01*
X141428497Y-102710792D01*
X141357187Y-102705489D01*
X141294506Y-102726836D01*
X141250826Y-102771536D01*
X141236333Y-102829167D01*
X141191561Y-102829167D01*
X141191372Y-102828097D01*
X141210509Y-102761366D01*
X141257365Y-102705636D01*
X141328561Y-102670890D01*
X141347109Y-102667060D01*
X141437426Y-102667661D01*
G36*
X141913041Y-102671956D02*
X141936225Y-102681745D01*
X141972815Y-102707877D01*
X141971616Y-102723384D01*
X141936510Y-102725092D01*
X141893850Y-102716380D01*
X141818686Y-102704794D01*
X141758360Y-102717958D01*
X141754604Y-102719625D01*
X141713189Y-102747625D01*
X141713215Y-102774040D01*
X141753791Y-102797824D01*
X141834026Y-102817932D01*
X141839104Y-102818829D01*
X141931599Y-102842328D01*
X141982723Y-102873645D01*
X141992766Y-102913089D01*
X141967704Y-102954928D01*
X141915568Y-102985394D01*
X141840993Y-102997614D01*
X141760251Y-102990478D01*
X141707292Y-102972666D01*
X141672221Y-102948409D01*
X141660210Y-102926861D01*
X141673607Y-102918573D01*
X141696708Y-102925146D01*
X141768765Y-102946591D01*
X141841752Y-102953461D01*
X141904489Y-102946626D01*
X141945798Y-102926958D01*
X141956000Y-102904925D01*
X141937563Y-102884294D01*
X141880677Y-102868352D01*
X141828608Y-102860871D01*
X141734181Y-102841063D01*
X141679880Y-102808138D01*
X141665535Y-102761966D01*
X141671490Y-102738317D01*
X141707101Y-102698312D01*
X141769041Y-102671821D01*
X141842592Y-102661987D01*
X141913041Y-102671956D01*
X141913041Y-102671956D01*
G37*
X141913041Y-102671956D02*
X141936225Y-102681745D01*
X141972815Y-102707877D01*
X141971616Y-102723384D01*
X141936510Y-102725092D01*
X141893850Y-102716380D01*
X141818686Y-102704794D01*
X141758360Y-102717958D01*
X141754604Y-102719625D01*
X141713189Y-102747625D01*
X141713215Y-102774040D01*
X141753791Y-102797824D01*
X141834026Y-102817932D01*
X141839104Y-102818829D01*
X141931599Y-102842328D01*
X141982723Y-102873645D01*
X141992766Y-102913089D01*
X141967704Y-102954928D01*
X141915568Y-102985394D01*
X141840993Y-102997614D01*
X141760251Y-102990478D01*
X141707292Y-102972666D01*
X141672221Y-102948409D01*
X141660210Y-102926861D01*
X141673607Y-102918573D01*
X141696708Y-102925146D01*
X141768765Y-102946591D01*
X141841752Y-102953461D01*
X141904489Y-102946626D01*
X141945798Y-102926958D01*
X141956000Y-102904925D01*
X141937563Y-102884294D01*
X141880677Y-102868352D01*
X141828608Y-102860871D01*
X141734181Y-102841063D01*
X141679880Y-102808138D01*
X141665535Y-102761966D01*
X141671490Y-102738317D01*
X141707101Y-102698312D01*
X141769041Y-102671821D01*
X141842592Y-102661987D01*
X141913041Y-102671956D01*
G36*
X135963421Y-101859485D02*
X135982036Y-101877893D01*
X135977247Y-101916892D01*
X135956864Y-101977925D01*
X135941012Y-102033016D01*
X135937036Y-102069805D01*
X135939225Y-102075836D01*
X135966861Y-102084319D01*
X136018384Y-102088836D01*
X136027569Y-102089007D01*
X136075615Y-102090851D01*
X136086899Y-102098560D01*
X136066983Y-102117215D01*
X136062329Y-102120757D01*
X136009596Y-102144593D01*
X135962331Y-102151834D01*
X135910514Y-102164800D01*
X135873338Y-102210063D01*
X135871550Y-102213465D01*
X135826822Y-102276800D01*
X135768905Y-102329183D01*
X135711064Y-102359753D01*
X135688300Y-102363500D01*
X135648701Y-102347059D01*
X135616509Y-102313441D01*
X135595268Y-102262920D01*
X135599331Y-102239377D01*
X135683676Y-102239377D01*
X135683778Y-102263645D01*
X135701295Y-102263245D01*
X135723701Y-102234100D01*
X135740130Y-102193560D01*
X135740121Y-102173065D01*
X135721602Y-102177055D01*
X135699385Y-102204627D01*
X135683676Y-102239377D01*
X135599331Y-102239377D01*
X135604713Y-102208204D01*
X135606128Y-102204414D01*
X135617220Y-102156350D01*
X135601080Y-102117909D01*
X135582612Y-102096553D01*
X135552135Y-102055961D01*
X135551465Y-102037148D01*
X135711833Y-102037148D01*
X135721872Y-102078471D01*
X135745868Y-102086062D01*
X135774642Y-102061641D01*
X135794429Y-102021675D01*
X135813089Y-101961436D01*
X135813564Y-101930655D01*
X135794303Y-101919862D01*
X135777598Y-101919000D01*
X135735896Y-101937357D01*
X135714744Y-101992541D01*
X135711833Y-102037148D01*
X135551465Y-102037148D01*
X135550776Y-102017806D01*
X135561374Y-101988034D01*
X135592840Y-101934815D01*
X135640523Y-101898718D01*
X135712745Y-101875828D01*
X135817825Y-101862229D01*
X135830897Y-101861196D01*
X135915131Y-101855856D01*
X135963421Y-101859485D01*
X135963421Y-101859485D01*
G37*
X135963421Y-101859485D02*
X135982036Y-101877893D01*
X135977247Y-101916892D01*
X135956864Y-101977925D01*
X135941012Y-102033016D01*
X135937036Y-102069805D01*
X135939225Y-102075836D01*
X135966861Y-102084319D01*
X136018384Y-102088836D01*
X136027569Y-102089007D01*
X136075615Y-102090851D01*
X136086899Y-102098560D01*
X136066983Y-102117215D01*
X136062329Y-102120757D01*
X136009596Y-102144593D01*
X135962331Y-102151834D01*
X135910514Y-102164800D01*
X135873338Y-102210063D01*
X135871550Y-102213465D01*
X135826822Y-102276800D01*
X135768905Y-102329183D01*
X135711064Y-102359753D01*
X135688300Y-102363500D01*
X135648701Y-102347059D01*
X135616509Y-102313441D01*
X135595268Y-102262920D01*
X135599331Y-102239377D01*
X135683676Y-102239377D01*
X135683778Y-102263645D01*
X135701295Y-102263245D01*
X135723701Y-102234100D01*
X135740130Y-102193560D01*
X135740121Y-102173065D01*
X135721602Y-102177055D01*
X135699385Y-102204627D01*
X135683676Y-102239377D01*
X135599331Y-102239377D01*
X135604713Y-102208204D01*
X135606128Y-102204414D01*
X135617220Y-102156350D01*
X135601080Y-102117909D01*
X135582612Y-102096553D01*
X135552135Y-102055961D01*
X135551465Y-102037148D01*
X135711833Y-102037148D01*
X135721872Y-102078471D01*
X135745868Y-102086062D01*
X135774642Y-102061641D01*
X135794429Y-102021675D01*
X135813089Y-101961436D01*
X135813564Y-101930655D01*
X135794303Y-101919862D01*
X135777598Y-101919000D01*
X135735896Y-101937357D01*
X135714744Y-101992541D01*
X135711833Y-102037148D01*
X135551465Y-102037148D01*
X135550776Y-102017806D01*
X135561374Y-101988034D01*
X135592840Y-101934815D01*
X135640523Y-101898718D01*
X135712745Y-101875828D01*
X135817825Y-101862229D01*
X135830897Y-101861196D01*
X135915131Y-101855856D01*
X135963421Y-101859485D01*
G36*
X141453496Y-101784305D02*
X141451777Y-101818459D01*
X141451206Y-101857322D01*
X141469674Y-101873445D01*
X141518685Y-101876666D01*
X141519824Y-101876667D01*
X141587614Y-101890226D01*
X141624206Y-101926589D01*
X141625456Y-101979279D01*
X141608254Y-102014925D01*
X141584183Y-102054832D01*
X141575000Y-102075846D01*
X141593980Y-102083090D01*
X141642265Y-102090105D01*
X141675542Y-102092990D01*
X141734717Y-102097721D01*
X141756156Y-102103288D01*
X141744364Y-102113311D01*
X141716497Y-102125900D01*
X141657824Y-102141495D01*
X141580756Y-102149688D01*
X141501480Y-102150143D01*
X141436181Y-102142529D01*
X141407537Y-102132271D01*
X141393809Y-102114251D01*
X141409095Y-102088267D01*
X141437539Y-102061847D01*
X141480176Y-102012094D01*
X141483959Y-101975252D01*
X141460149Y-101940696D01*
X141431376Y-101948177D01*
X141397644Y-101997693D01*
X141358954Y-102089238D01*
X141349856Y-102114792D01*
X141320182Y-102198528D01*
X141298062Y-102250361D01*
X141277244Y-102278409D01*
X141251472Y-102290787D01*
X141214493Y-102295610D01*
X141210240Y-102295964D01*
X141131230Y-102302512D01*
X141218893Y-102052548D01*
X141253262Y-101956190D01*
X141283404Y-101874723D01*
X141306222Y-101816310D01*
X141318620Y-101789113D01*
X141319070Y-101788529D01*
X141347192Y-101776339D01*
X141395083Y-101767362D01*
X141439107Y-101766300D01*
X141453496Y-101784305D01*
X141453496Y-101784305D01*
G37*
X141453496Y-101784305D02*
X141451777Y-101818459D01*
X141451206Y-101857322D01*
X141469674Y-101873445D01*
X141518685Y-101876666D01*
X141519824Y-101876667D01*
X141587614Y-101890226D01*
X141624206Y-101926589D01*
X141625456Y-101979279D01*
X141608254Y-102014925D01*
X141584183Y-102054832D01*
X141575000Y-102075846D01*
X141593980Y-102083090D01*
X141642265Y-102090105D01*
X141675542Y-102092990D01*
X141734717Y-102097721D01*
X141756156Y-102103288D01*
X141744364Y-102113311D01*
X141716497Y-102125900D01*
X141657824Y-102141495D01*
X141580756Y-102149688D01*
X141501480Y-102150143D01*
X141436181Y-102142529D01*
X141407537Y-102132271D01*
X141393809Y-102114251D01*
X141409095Y-102088267D01*
X141437539Y-102061847D01*
X141480176Y-102012094D01*
X141483959Y-101975252D01*
X141460149Y-101940696D01*
X141431376Y-101948177D01*
X141397644Y-101997693D01*
X141358954Y-102089238D01*
X141349856Y-102114792D01*
X141320182Y-102198528D01*
X141298062Y-102250361D01*
X141277244Y-102278409D01*
X141251472Y-102290787D01*
X141214493Y-102295610D01*
X141210240Y-102295964D01*
X141131230Y-102302512D01*
X141218893Y-102052548D01*
X141253262Y-101956190D01*
X141283404Y-101874723D01*
X141306222Y-101816310D01*
X141318620Y-101789113D01*
X141319070Y-101788529D01*
X141347192Y-101776339D01*
X141395083Y-101767362D01*
X141439107Y-101766300D01*
X141453496Y-101784305D01*
G36*
X133820322Y-101572424D02*
X133858238Y-101592429D01*
X133885505Y-101636098D01*
X133891500Y-101663920D01*
X133874994Y-101713322D01*
X133833807Y-101741396D01*
X133780437Y-101747063D01*
X133727380Y-101729242D01*
X133687134Y-101686853D01*
X133684575Y-101681811D01*
X133653811Y-101640789D01*
X133626210Y-101636450D01*
X133601209Y-101660371D01*
X133598252Y-101708083D01*
X133617361Y-101784973D01*
X133626916Y-101813167D01*
X133646935Y-101882962D01*
X133657937Y-101946697D01*
X133658667Y-101961108D01*
X133639179Y-102031065D01*
X133585503Y-102089410D01*
X133504818Y-102133516D01*
X133404306Y-102160758D01*
X133291146Y-102168507D01*
X133172518Y-102154139D01*
X133147579Y-102148064D01*
X133067407Y-102113558D01*
X133011673Y-102063196D01*
X132987413Y-102004742D01*
X132989578Y-101973700D01*
X133009835Y-101928840D01*
X133048744Y-101899205D01*
X133113832Y-101881544D01*
X133212628Y-101872610D01*
X133225155Y-101872050D01*
X133309070Y-101872574D01*
X133360516Y-101880866D01*
X133377112Y-101894595D01*
X133356479Y-101911429D01*
X133296238Y-101929037D01*
X133285554Y-101931225D01*
X133204142Y-101958244D01*
X133161465Y-101995089D01*
X133157268Y-102035093D01*
X133191299Y-102071592D01*
X133263301Y-102097919D01*
X133292097Y-102102814D01*
X133357547Y-102104709D01*
X133408025Y-102083975D01*
X133437550Y-102060978D01*
X133473417Y-102027938D01*
X133488079Y-102000051D01*
X133484763Y-101961482D01*
X133469277Y-101905246D01*
X133450568Y-101824254D01*
X133439226Y-101742940D01*
X133437861Y-101717917D01*
X133441217Y-101660271D01*
X133461205Y-101626139D01*
X133508835Y-101597075D01*
X133510500Y-101596241D01*
X133581318Y-101572488D01*
X133665947Y-101560497D01*
X133750308Y-101560425D01*
X133820322Y-101572424D01*
X133820322Y-101572424D01*
G37*
X133820322Y-101572424D02*
X133858238Y-101592429D01*
X133885505Y-101636098D01*
X133891500Y-101663920D01*
X133874994Y-101713322D01*
X133833807Y-101741396D01*
X133780437Y-101747063D01*
X133727380Y-101729242D01*
X133687134Y-101686853D01*
X133684575Y-101681811D01*
X133653811Y-101640789D01*
X133626210Y-101636450D01*
X133601209Y-101660371D01*
X133598252Y-101708083D01*
X133617361Y-101784973D01*
X133626916Y-101813167D01*
X133646935Y-101882962D01*
X133657937Y-101946697D01*
X133658667Y-101961108D01*
X133639179Y-102031065D01*
X133585503Y-102089410D01*
X133504818Y-102133516D01*
X133404306Y-102160758D01*
X133291146Y-102168507D01*
X133172518Y-102154139D01*
X133147579Y-102148064D01*
X133067407Y-102113558D01*
X133011673Y-102063196D01*
X132987413Y-102004742D01*
X132989578Y-101973700D01*
X133009835Y-101928840D01*
X133048744Y-101899205D01*
X133113832Y-101881544D01*
X133212628Y-101872610D01*
X133225155Y-101872050D01*
X133309070Y-101872574D01*
X133360516Y-101880866D01*
X133377112Y-101894595D01*
X133356479Y-101911429D01*
X133296238Y-101929037D01*
X133285554Y-101931225D01*
X133204142Y-101958244D01*
X133161465Y-101995089D01*
X133157268Y-102035093D01*
X133191299Y-102071592D01*
X133263301Y-102097919D01*
X133292097Y-102102814D01*
X133357547Y-102104709D01*
X133408025Y-102083975D01*
X133437550Y-102060978D01*
X133473417Y-102027938D01*
X133488079Y-102000051D01*
X133484763Y-101961482D01*
X133469277Y-101905246D01*
X133450568Y-101824254D01*
X133439226Y-101742940D01*
X133437861Y-101717917D01*
X133441217Y-101660271D01*
X133461205Y-101626139D01*
X133508835Y-101597075D01*
X133510500Y-101596241D01*
X133581318Y-101572488D01*
X133665947Y-101560497D01*
X133750308Y-101560425D01*
X133820322Y-101572424D01*
G36*
X134055874Y-101703525D02*
X134052208Y-101749444D01*
X134031106Y-101814694D01*
X134029541Y-101818459D01*
X134026457Y-101847169D01*
X134056775Y-101855471D01*
X134060332Y-101855500D01*
X134093694Y-101865194D01*
X134094828Y-101886947D01*
X134067013Y-101909764D01*
X134041524Y-101918562D01*
X134007208Y-101940859D01*
X133974009Y-101982860D01*
X133950479Y-102029903D01*
X133945167Y-102067330D01*
X133949708Y-102075986D01*
X133976582Y-102083520D01*
X134030207Y-102088270D01*
X134059069Y-102089007D01*
X134116268Y-102090547D01*
X134137313Y-102096431D01*
X134128374Y-102110162D01*
X134114996Y-102120757D01*
X134074390Y-102136688D01*
X134010520Y-102147237D01*
X133937025Y-102151959D01*
X133867543Y-102150411D01*
X133815715Y-102142151D01*
X133796519Y-102131102D01*
X133794207Y-102099490D01*
X133803802Y-102045183D01*
X133809702Y-102023605D01*
X133824085Y-101965906D01*
X133821899Y-101933978D01*
X133805390Y-101916241D01*
X133788364Y-101897037D01*
X133806579Y-101877054D01*
X133817417Y-101870280D01*
X133856819Y-101840594D01*
X133909665Y-101793461D01*
X133938277Y-101765542D01*
X133987051Y-101720616D01*
X134026602Y-101691844D01*
X134041286Y-101686167D01*
X134055874Y-101703525D01*
X134055874Y-101703525D01*
G37*
X134055874Y-101703525D02*
X134052208Y-101749444D01*
X134031106Y-101814694D01*
X134029541Y-101818459D01*
X134026457Y-101847169D01*
X134056775Y-101855471D01*
X134060332Y-101855500D01*
X134093694Y-101865194D01*
X134094828Y-101886947D01*
X134067013Y-101909764D01*
X134041524Y-101918562D01*
X134007208Y-101940859D01*
X133974009Y-101982860D01*
X133950479Y-102029903D01*
X133945167Y-102067330D01*
X133949708Y-102075986D01*
X133976582Y-102083520D01*
X134030207Y-102088270D01*
X134059069Y-102089007D01*
X134116268Y-102090547D01*
X134137313Y-102096431D01*
X134128374Y-102110162D01*
X134114996Y-102120757D01*
X134074390Y-102136688D01*
X134010520Y-102147237D01*
X133937025Y-102151959D01*
X133867543Y-102150411D01*
X133815715Y-102142151D01*
X133796519Y-102131102D01*
X133794207Y-102099490D01*
X133803802Y-102045183D01*
X133809702Y-102023605D01*
X133824085Y-101965906D01*
X133821899Y-101933978D01*
X133805390Y-101916241D01*
X133788364Y-101897037D01*
X133806579Y-101877054D01*
X133817417Y-101870280D01*
X133856819Y-101840594D01*
X133909665Y-101793461D01*
X133938277Y-101765542D01*
X133987051Y-101720616D01*
X134026602Y-101691844D01*
X134041286Y-101686167D01*
X134055874Y-101703525D01*
G36*
X134345468Y-101784728D02*
X134342441Y-101811989D01*
X134339705Y-101837557D01*
X134355132Y-101850516D01*
X134398071Y-101855063D01*
X134439364Y-101855500D01*
X134500562Y-101856896D01*
X134539828Y-101860471D01*
X134547667Y-101863422D01*
X134541259Y-101886341D01*
X134525077Y-101935033D01*
X134515917Y-101961334D01*
X134493212Y-102029948D01*
X134488373Y-102067968D01*
X134504314Y-102084406D01*
X134543952Y-102088274D01*
X134557001Y-102088334D01*
X134604459Y-102084793D01*
X134636885Y-102068309D01*
X134663185Y-102030086D01*
X134692266Y-101961328D01*
X134696306Y-101950762D01*
X134722586Y-101895032D01*
X134753797Y-101868488D01*
X134796848Y-101859451D01*
X134839996Y-101857932D01*
X134859859Y-101869618D01*
X134858866Y-101902682D01*
X134839446Y-101965294D01*
X134833417Y-101982500D01*
X134814325Y-102038459D01*
X134803006Y-102075211D01*
X134801667Y-102081628D01*
X134820438Y-102085863D01*
X134867564Y-102085609D01*
X134889917Y-102084259D01*
X134942182Y-102078067D01*
X134973007Y-102062121D01*
X134994336Y-102025550D01*
X135013324Y-101971917D01*
X135036319Y-101909645D01*
X135058936Y-101877184D01*
X135092181Y-101863572D01*
X135126157Y-101859514D01*
X135180187Y-101856599D01*
X135200052Y-101866782D01*
X135193782Y-101899733D01*
X135183190Y-101928206D01*
X135170469Y-101967539D01*
X135169697Y-101982500D01*
X135188921Y-101970532D01*
X135229817Y-101940080D01*
X135256750Y-101919000D01*
X135315491Y-101880769D01*
X135370804Y-101858142D01*
X135389063Y-101855500D01*
X135416456Y-101857630D01*
X135430610Y-101869410D01*
X135432203Y-101898930D01*
X135421915Y-101954276D01*
X135403732Y-102030125D01*
X135397427Y-102067781D01*
X135410422Y-102084393D01*
X135452820Y-102088773D01*
X135471241Y-102089007D01*
X135522171Y-102090672D01*
X135536488Y-102097646D01*
X135519908Y-102114650D01*
X135510767Y-102121656D01*
X135453807Y-102143681D01*
X135362595Y-102147936D01*
X135352017Y-102147441D01*
X135235583Y-102141250D01*
X135240944Y-102072546D01*
X135246304Y-102003842D01*
X135149364Y-102077838D01*
X135080551Y-102123226D01*
X135023013Y-102148036D01*
X134984081Y-102150128D01*
X134971000Y-102129922D01*
X134958043Y-102118822D01*
X134930058Y-102129922D01*
X134884716Y-102143303D01*
X134820653Y-102150214D01*
X134752740Y-102150618D01*
X134695852Y-102144475D01*
X134664862Y-102131747D01*
X134664048Y-102130610D01*
X134635936Y-102120900D01*
X134611273Y-102130610D01*
X134556973Y-102146771D01*
X134487453Y-102151632D01*
X134419327Y-102145829D01*
X134369211Y-102129998D01*
X134357846Y-102120903D01*
X134343216Y-102088387D01*
X134349189Y-102040614D01*
X134357364Y-102013651D01*
X134370820Y-101961599D01*
X134372436Y-101928760D01*
X134370772Y-101925550D01*
X134340750Y-101920150D01*
X134304851Y-101944499D01*
X134274711Y-101989807D01*
X134270017Y-102001691D01*
X134243131Y-102051765D01*
X134210623Y-102077873D01*
X134182180Y-102073251D01*
X134176949Y-102066680D01*
X134176423Y-102034660D01*
X134189015Y-102001458D01*
X134202279Y-101953564D01*
X134185680Y-101904393D01*
X134170807Y-101845961D01*
X134194184Y-101802819D01*
X134253470Y-101778242D01*
X134278262Y-101774947D01*
X134327682Y-101773479D01*
X134345468Y-101784728D01*
X134345468Y-101784728D01*
G37*
X134345468Y-101784728D02*
X134342441Y-101811989D01*
X134339705Y-101837557D01*
X134355132Y-101850516D01*
X134398071Y-101855063D01*
X134439364Y-101855500D01*
X134500562Y-101856896D01*
X134539828Y-101860471D01*
X134547667Y-101863422D01*
X134541259Y-101886341D01*
X134525077Y-101935033D01*
X134515917Y-101961334D01*
X134493212Y-102029948D01*
X134488373Y-102067968D01*
X134504314Y-102084406D01*
X134543952Y-102088274D01*
X134557001Y-102088334D01*
X134604459Y-102084793D01*
X134636885Y-102068309D01*
X134663185Y-102030086D01*
X134692266Y-101961328D01*
X134696306Y-101950762D01*
X134722586Y-101895032D01*
X134753797Y-101868488D01*
X134796848Y-101859451D01*
X134839996Y-101857932D01*
X134859859Y-101869618D01*
X134858866Y-101902682D01*
X134839446Y-101965294D01*
X134833417Y-101982500D01*
X134814325Y-102038459D01*
X134803006Y-102075211D01*
X134801667Y-102081628D01*
X134820438Y-102085863D01*
X134867564Y-102085609D01*
X134889917Y-102084259D01*
X134942182Y-102078067D01*
X134973007Y-102062121D01*
X134994336Y-102025550D01*
X135013324Y-101971917D01*
X135036319Y-101909645D01*
X135058936Y-101877184D01*
X135092181Y-101863572D01*
X135126157Y-101859514D01*
X135180187Y-101856599D01*
X135200052Y-101866782D01*
X135193782Y-101899733D01*
X135183190Y-101928206D01*
X135170469Y-101967539D01*
X135169697Y-101982500D01*
X135188921Y-101970532D01*
X135229817Y-101940080D01*
X135256750Y-101919000D01*
X135315491Y-101880769D01*
X135370804Y-101858142D01*
X135389063Y-101855500D01*
X135416456Y-101857630D01*
X135430610Y-101869410D01*
X135432203Y-101898930D01*
X135421915Y-101954276D01*
X135403732Y-102030125D01*
X135397427Y-102067781D01*
X135410422Y-102084393D01*
X135452820Y-102088773D01*
X135471241Y-102089007D01*
X135522171Y-102090672D01*
X135536488Y-102097646D01*
X135519908Y-102114650D01*
X135510767Y-102121656D01*
X135453807Y-102143681D01*
X135362595Y-102147936D01*
X135352017Y-102147441D01*
X135235583Y-102141250D01*
X135240944Y-102072546D01*
X135246304Y-102003842D01*
X135149364Y-102077838D01*
X135080551Y-102123226D01*
X135023013Y-102148036D01*
X134984081Y-102150128D01*
X134971000Y-102129922D01*
X134958043Y-102118822D01*
X134930058Y-102129922D01*
X134884716Y-102143303D01*
X134820653Y-102150214D01*
X134752740Y-102150618D01*
X134695852Y-102144475D01*
X134664862Y-102131747D01*
X134664048Y-102130610D01*
X134635936Y-102120900D01*
X134611273Y-102130610D01*
X134556973Y-102146771D01*
X134487453Y-102151632D01*
X134419327Y-102145829D01*
X134369211Y-102129998D01*
X134357846Y-102120903D01*
X134343216Y-102088387D01*
X134349189Y-102040614D01*
X134357364Y-102013651D01*
X134370820Y-101961599D01*
X134372436Y-101928760D01*
X134370772Y-101925550D01*
X134340750Y-101920150D01*
X134304851Y-101944499D01*
X134274711Y-101989807D01*
X134270017Y-102001691D01*
X134243131Y-102051765D01*
X134210623Y-102077873D01*
X134182180Y-102073251D01*
X134176949Y-102066680D01*
X134176423Y-102034660D01*
X134189015Y-102001458D01*
X134202279Y-101953564D01*
X134185680Y-101904393D01*
X134170807Y-101845961D01*
X134194184Y-101802819D01*
X134253470Y-101778242D01*
X134278262Y-101774947D01*
X134327682Y-101773479D01*
X134345468Y-101784728D01*
G36*
X136691284Y-101569438D02*
X136735762Y-101601581D01*
X136749000Y-101654417D01*
X136732098Y-101708965D01*
X136690390Y-101742616D01*
X136637372Y-101752431D01*
X136586541Y-101735471D01*
X136554648Y-101696750D01*
X136528144Y-101657726D01*
X136503810Y-101643834D01*
X136458748Y-101661075D01*
X136406743Y-101705045D01*
X136358759Y-101764113D01*
X136325763Y-101826650D01*
X136322680Y-101835956D01*
X136312121Y-101926022D01*
X136338777Y-101997526D01*
X136401232Y-102049211D01*
X136498065Y-102079821D01*
X136607675Y-102088334D01*
X136674019Y-102086793D01*
X136710428Y-102078040D01*
X136729289Y-102055874D01*
X136738118Y-102029707D01*
X136900443Y-102029707D01*
X136904303Y-102055234D01*
X136928240Y-102085543D01*
X136956863Y-102076947D01*
X136982357Y-102034039D01*
X137001334Y-101964436D01*
X136993044Y-101926719D01*
X136970796Y-101919000D01*
X136938116Y-101937191D01*
X136911790Y-101979984D01*
X136900443Y-102029707D01*
X136738118Y-102029707D01*
X136740821Y-102021696D01*
X136775821Y-101950897D01*
X136836753Y-101902054D01*
X136928712Y-101872248D01*
X137022231Y-101860552D01*
X137107648Y-101856685D01*
X137156335Y-101864018D01*
X137173545Y-101888297D01*
X137164529Y-101935269D01*
X137142385Y-101992037D01*
X137123477Y-102048560D01*
X137131826Y-102077455D01*
X137173180Y-102087561D01*
X137205043Y-102088334D01*
X137256666Y-102080662D01*
X137287601Y-102049386D01*
X137300340Y-102022404D01*
X137316468Y-101966150D01*
X137307283Y-101924412D01*
X137302907Y-101916858D01*
X137279352Y-101854335D01*
X137294875Y-101807019D01*
X137348434Y-101776605D01*
X137394583Y-101767597D01*
X137438834Y-101766756D01*
X137453616Y-101784117D01*
X137453041Y-101807875D01*
X137453908Y-101836165D01*
X137471131Y-101850295D01*
X137514902Y-101855091D01*
X137553583Y-101855500D01*
X137613879Y-101858837D01*
X137652101Y-101867367D01*
X137659167Y-101874006D01*
X137652614Y-101903803D01*
X137636106Y-101957162D01*
X137627417Y-101982500D01*
X137608347Y-102038148D01*
X137597022Y-102074285D01*
X137595667Y-102080411D01*
X137614541Y-102085394D01*
X137662001Y-102088551D01*
X137685625Y-102089007D01*
X137740058Y-102090559D01*
X137758131Y-102096828D01*
X137745813Y-102111908D01*
X137733250Y-102121675D01*
X137671018Y-102144675D01*
X137585083Y-102147460D01*
X137522472Y-102142266D01*
X137491423Y-102131522D01*
X137481195Y-102108051D01*
X137480729Y-102077750D01*
X137484889Y-102016433D01*
X137491313Y-101972684D01*
X137485042Y-101934706D01*
X137462975Y-101923430D01*
X137428992Y-101933256D01*
X137398480Y-101980759D01*
X137394962Y-101988912D01*
X137340813Y-102064123D01*
X137278293Y-102106957D01*
X137202080Y-102135203D01*
X137116911Y-102149757D01*
X137038746Y-102149204D01*
X136984911Y-102133017D01*
X136943682Y-102126784D01*
X136894503Y-102138152D01*
X136836848Y-102150674D01*
X136790396Y-102134993D01*
X136739079Y-102119917D01*
X136707571Y-102130183D01*
X136665577Y-102140698D01*
X136595963Y-102147081D01*
X136513266Y-102149061D01*
X136432023Y-102146368D01*
X136366771Y-102138730D01*
X136357417Y-102136706D01*
X136267456Y-102104454D01*
X136196724Y-102058876D01*
X136159266Y-102012234D01*
X136137620Y-101919268D01*
X136153327Y-101827665D01*
X136201548Y-101742263D01*
X136277445Y-101667895D01*
X136376179Y-101609399D01*
X136492913Y-101571608D01*
X136612475Y-101559285D01*
X136691284Y-101569438D01*
X136691284Y-101569438D01*
G37*
X136691284Y-101569438D02*
X136735762Y-101601581D01*
X136749000Y-101654417D01*
X136732098Y-101708965D01*
X136690390Y-101742616D01*
X136637372Y-101752431D01*
X136586541Y-101735471D01*
X136554648Y-101696750D01*
X136528144Y-101657726D01*
X136503810Y-101643834D01*
X136458748Y-101661075D01*
X136406743Y-101705045D01*
X136358759Y-101764113D01*
X136325763Y-101826650D01*
X136322680Y-101835956D01*
X136312121Y-101926022D01*
X136338777Y-101997526D01*
X136401232Y-102049211D01*
X136498065Y-102079821D01*
X136607675Y-102088334D01*
X136674019Y-102086793D01*
X136710428Y-102078040D01*
X136729289Y-102055874D01*
X136738118Y-102029707D01*
X136900443Y-102029707D01*
X136904303Y-102055234D01*
X136928240Y-102085543D01*
X136956863Y-102076947D01*
X136982357Y-102034039D01*
X137001334Y-101964436D01*
X136993044Y-101926719D01*
X136970796Y-101919000D01*
X136938116Y-101937191D01*
X136911790Y-101979984D01*
X136900443Y-102029707D01*
X136738118Y-102029707D01*
X136740821Y-102021696D01*
X136775821Y-101950897D01*
X136836753Y-101902054D01*
X136928712Y-101872248D01*
X137022231Y-101860552D01*
X137107648Y-101856685D01*
X137156335Y-101864018D01*
X137173545Y-101888297D01*
X137164529Y-101935269D01*
X137142385Y-101992037D01*
X137123477Y-102048560D01*
X137131826Y-102077455D01*
X137173180Y-102087561D01*
X137205043Y-102088334D01*
X137256666Y-102080662D01*
X137287601Y-102049386D01*
X137300340Y-102022404D01*
X137316468Y-101966150D01*
X137307283Y-101924412D01*
X137302907Y-101916858D01*
X137279352Y-101854335D01*
X137294875Y-101807019D01*
X137348434Y-101776605D01*
X137394583Y-101767597D01*
X137438834Y-101766756D01*
X137453616Y-101784117D01*
X137453041Y-101807875D01*
X137453908Y-101836165D01*
X137471131Y-101850295D01*
X137514902Y-101855091D01*
X137553583Y-101855500D01*
X137613879Y-101858837D01*
X137652101Y-101867367D01*
X137659167Y-101874006D01*
X137652614Y-101903803D01*
X137636106Y-101957162D01*
X137627417Y-101982500D01*
X137608347Y-102038148D01*
X137597022Y-102074285D01*
X137595667Y-102080411D01*
X137614541Y-102085394D01*
X137662001Y-102088551D01*
X137685625Y-102089007D01*
X137740058Y-102090559D01*
X137758131Y-102096828D01*
X137745813Y-102111908D01*
X137733250Y-102121675D01*
X137671018Y-102144675D01*
X137585083Y-102147460D01*
X137522472Y-102142266D01*
X137491423Y-102131522D01*
X137481195Y-102108051D01*
X137480729Y-102077750D01*
X137484889Y-102016433D01*
X137491313Y-101972684D01*
X137485042Y-101934706D01*
X137462975Y-101923430D01*
X137428992Y-101933256D01*
X137398480Y-101980759D01*
X137394962Y-101988912D01*
X137340813Y-102064123D01*
X137278293Y-102106957D01*
X137202080Y-102135203D01*
X137116911Y-102149757D01*
X137038746Y-102149204D01*
X136984911Y-102133017D01*
X136943682Y-102126784D01*
X136894503Y-102138152D01*
X136836848Y-102150674D01*
X136790396Y-102134993D01*
X136739079Y-102119917D01*
X136707571Y-102130183D01*
X136665577Y-102140698D01*
X136595963Y-102147081D01*
X136513266Y-102149061D01*
X136432023Y-102146368D01*
X136366771Y-102138730D01*
X136357417Y-102136706D01*
X136267456Y-102104454D01*
X136196724Y-102058876D01*
X136159266Y-102012234D01*
X136137620Y-101919268D01*
X136153327Y-101827665D01*
X136201548Y-101742263D01*
X136277445Y-101667895D01*
X136376179Y-101609399D01*
X136492913Y-101571608D01*
X136612475Y-101559285D01*
X136691284Y-101569438D01*
G36*
X138454243Y-101561010D02*
X138506370Y-101571306D01*
X138527160Y-101597206D01*
X138522103Y-101645863D01*
X138496686Y-101724426D01*
X138495250Y-101728500D01*
X138472609Y-101798392D01*
X138467807Y-101833797D01*
X138483143Y-101835162D01*
X138520914Y-101802932D01*
X138577097Y-101744375D01*
X138643638Y-101676383D01*
X138692247Y-101638118D01*
X138730723Y-101625693D01*
X138766861Y-101635217D01*
X138780351Y-101642984D01*
X138795296Y-101658873D01*
X138797044Y-101686309D01*
X138784514Y-101735136D01*
X138763515Y-101796119D01*
X138715579Y-101929584D01*
X138817808Y-101829042D01*
X138891807Y-101766388D01*
X138954578Y-101733011D01*
X139001347Y-101730588D01*
X139025723Y-101756023D01*
X139023895Y-101788359D01*
X139009128Y-101847460D01*
X138984561Y-101920930D01*
X138982726Y-101925840D01*
X138956463Y-101996920D01*
X138937363Y-102051103D01*
X138929231Y-102077568D01*
X138929167Y-102078233D01*
X138948039Y-102084546D01*
X138995496Y-102088474D01*
X139019125Y-102089007D01*
X139073392Y-102090635D01*
X139091375Y-102097024D01*
X139079116Y-102112096D01*
X139067996Y-102120757D01*
X139018361Y-102140375D01*
X138946545Y-102150071D01*
X138871695Y-102149082D01*
X138812960Y-102136644D01*
X138802524Y-102131336D01*
X138785278Y-102114332D01*
X138783972Y-102086820D01*
X138799059Y-102036498D01*
X138806803Y-102015243D01*
X138825828Y-101959751D01*
X138834784Y-101924973D01*
X138834101Y-101919000D01*
X138816635Y-101933239D01*
X138778049Y-101970909D01*
X138726051Y-102024435D01*
X138715628Y-102035417D01*
X138637799Y-102108481D01*
X138577289Y-102146855D01*
X138536397Y-102151227D01*
X138517421Y-102122285D01*
X138522663Y-102060717D01*
X138547171Y-101985025D01*
X138576073Y-101907711D01*
X138586440Y-101866467D01*
X138576700Y-101860825D01*
X138545279Y-101890317D01*
X138490605Y-101954477D01*
X138481555Y-101965526D01*
X138426197Y-102031688D01*
X138377504Y-102087017D01*
X138344344Y-102121507D01*
X138339926Y-102125375D01*
X138300209Y-102144518D01*
X138254238Y-102151285D01*
X138218893Y-102144880D01*
X138209500Y-102131530D01*
X138216257Y-102104179D01*
X138234497Y-102046422D01*
X138261175Y-101967614D01*
X138283577Y-101903989D01*
X138314338Y-101816489D01*
X138338860Y-101743999D01*
X138354114Y-101695632D01*
X138357660Y-101680875D01*
X138338620Y-101671818D01*
X138289931Y-101666070D01*
X138251833Y-101665000D01*
X138183974Y-101662368D01*
X138153235Y-101651442D01*
X138154572Y-101627677D01*
X138175465Y-101596209D01*
X138199458Y-101576348D01*
X138240439Y-101564860D01*
X138308113Y-101559851D01*
X138365292Y-101559167D01*
X138454243Y-101561010D01*
X138454243Y-101561010D01*
G37*
X138454243Y-101561010D02*
X138506370Y-101571306D01*
X138527160Y-101597206D01*
X138522103Y-101645863D01*
X138496686Y-101724426D01*
X138495250Y-101728500D01*
X138472609Y-101798392D01*
X138467807Y-101833797D01*
X138483143Y-101835162D01*
X138520914Y-101802932D01*
X138577097Y-101744375D01*
X138643638Y-101676383D01*
X138692247Y-101638118D01*
X138730723Y-101625693D01*
X138766861Y-101635217D01*
X138780351Y-101642984D01*
X138795296Y-101658873D01*
X138797044Y-101686309D01*
X138784514Y-101735136D01*
X138763515Y-101796119D01*
X138715579Y-101929584D01*
X138817808Y-101829042D01*
X138891807Y-101766388D01*
X138954578Y-101733011D01*
X139001347Y-101730588D01*
X139025723Y-101756023D01*
X139023895Y-101788359D01*
X139009128Y-101847460D01*
X138984561Y-101920930D01*
X138982726Y-101925840D01*
X138956463Y-101996920D01*
X138937363Y-102051103D01*
X138929231Y-102077568D01*
X138929167Y-102078233D01*
X138948039Y-102084546D01*
X138995496Y-102088474D01*
X139019125Y-102089007D01*
X139073392Y-102090635D01*
X139091375Y-102097024D01*
X139079116Y-102112096D01*
X139067996Y-102120757D01*
X139018361Y-102140375D01*
X138946545Y-102150071D01*
X138871695Y-102149082D01*
X138812960Y-102136644D01*
X138802524Y-102131336D01*
X138785278Y-102114332D01*
X138783972Y-102086820D01*
X138799059Y-102036498D01*
X138806803Y-102015243D01*
X138825828Y-101959751D01*
X138834784Y-101924973D01*
X138834101Y-101919000D01*
X138816635Y-101933239D01*
X138778049Y-101970909D01*
X138726051Y-102024435D01*
X138715628Y-102035417D01*
X138637799Y-102108481D01*
X138577289Y-102146855D01*
X138536397Y-102151227D01*
X138517421Y-102122285D01*
X138522663Y-102060717D01*
X138547171Y-101985025D01*
X138576073Y-101907711D01*
X138586440Y-101866467D01*
X138576700Y-101860825D01*
X138545279Y-101890317D01*
X138490605Y-101954477D01*
X138481555Y-101965526D01*
X138426197Y-102031688D01*
X138377504Y-102087017D01*
X138344344Y-102121507D01*
X138339926Y-102125375D01*
X138300209Y-102144518D01*
X138254238Y-102151285D01*
X138218893Y-102144880D01*
X138209500Y-102131530D01*
X138216257Y-102104179D01*
X138234497Y-102046422D01*
X138261175Y-101967614D01*
X138283577Y-101903989D01*
X138314338Y-101816489D01*
X138338860Y-101743999D01*
X138354114Y-101695632D01*
X138357660Y-101680875D01*
X138338620Y-101671818D01*
X138289931Y-101666070D01*
X138251833Y-101665000D01*
X138183974Y-101662368D01*
X138153235Y-101651442D01*
X138154572Y-101627677D01*
X138175465Y-101596209D01*
X138199458Y-101576348D01*
X138240439Y-101564860D01*
X138308113Y-101559851D01*
X138365292Y-101559167D01*
X138454243Y-101561010D01*
G36*
X139545608Y-101571814D02*
X139570725Y-101579005D01*
X139649033Y-101622338D01*
X139698252Y-101692718D01*
X139720220Y-101793250D01*
X139721806Y-101834713D01*
X139704333Y-101950071D01*
X139655223Y-102043043D01*
X139580738Y-102109457D01*
X139487141Y-102145142D01*
X139380697Y-102145928D01*
X139293499Y-102119944D01*
X139223148Y-102068035D01*
X139180043Y-101989821D01*
X139166575Y-101895571D01*
X139337419Y-101895571D01*
X139338177Y-101973124D01*
X139359238Y-102030561D01*
X139394220Y-102062740D01*
X139436738Y-102064520D01*
X139480411Y-102030758D01*
X139489519Y-102018082D01*
X139518759Y-101952452D01*
X139539987Y-101866463D01*
X139549735Y-101779544D01*
X139544535Y-101711122D01*
X139544407Y-101710639D01*
X139520593Y-101666538D01*
X139477977Y-101654417D01*
X139432425Y-101674185D01*
X139390399Y-101727935D01*
X139356754Y-101807339D01*
X139337419Y-101895571D01*
X139166575Y-101895571D01*
X139166207Y-101892999D01*
X139183664Y-101785263D01*
X139196157Y-101749822D01*
X139253875Y-101657765D01*
X139337055Y-101594812D01*
X139437149Y-101564862D01*
X139545608Y-101571814D01*
X139545608Y-101571814D01*
G37*
X139545608Y-101571814D02*
X139570725Y-101579005D01*
X139649033Y-101622338D01*
X139698252Y-101692718D01*
X139720220Y-101793250D01*
X139721806Y-101834713D01*
X139704333Y-101950071D01*
X139655223Y-102043043D01*
X139580738Y-102109457D01*
X139487141Y-102145142D01*
X139380697Y-102145928D01*
X139293499Y-102119944D01*
X139223148Y-102068035D01*
X139180043Y-101989821D01*
X139166575Y-101895571D01*
X139337419Y-101895571D01*
X139338177Y-101973124D01*
X139359238Y-102030561D01*
X139394220Y-102062740D01*
X139436738Y-102064520D01*
X139480411Y-102030758D01*
X139489519Y-102018082D01*
X139518759Y-101952452D01*
X139539987Y-101866463D01*
X139549735Y-101779544D01*
X139544535Y-101711122D01*
X139544407Y-101710639D01*
X139520593Y-101666538D01*
X139477977Y-101654417D01*
X139432425Y-101674185D01*
X139390399Y-101727935D01*
X139356754Y-101807339D01*
X139337419Y-101895571D01*
X139166575Y-101895571D01*
X139166207Y-101892999D01*
X139183664Y-101785263D01*
X139196157Y-101749822D01*
X139253875Y-101657765D01*
X139337055Y-101594812D01*
X139437149Y-101564862D01*
X139545608Y-101571814D01*
G36*
X140728617Y-101567248D02*
X140764233Y-101585529D01*
X140771508Y-101591678D01*
X140808023Y-101639989D01*
X140803580Y-101685774D01*
X140779738Y-101716405D01*
X140723251Y-101748213D01*
X140664256Y-101741858D01*
X140613859Y-101699261D01*
X140605640Y-101686301D01*
X140574563Y-101643454D01*
X140546612Y-101623070D01*
X140544177Y-101622801D01*
X140510211Y-101640801D01*
X140491981Y-101686186D01*
X140494467Y-101745394D01*
X140496409Y-101752838D01*
X140503061Y-101790941D01*
X140491282Y-101819927D01*
X140453701Y-101852089D01*
X140425133Y-101871729D01*
X140360037Y-101928133D01*
X140329589Y-101984059D01*
X140335671Y-102034059D01*
X140359952Y-102060689D01*
X140406434Y-102076520D01*
X140492170Y-102085811D01*
X140593615Y-102088334D01*
X140689227Y-102087170D01*
X140753207Y-102082325D01*
X140796224Y-102071764D01*
X140828947Y-102053454D01*
X140845226Y-102040377D01*
X140900979Y-101992420D01*
X140856989Y-101936496D01*
X140827054Y-101895068D01*
X140813127Y-101869151D01*
X140813000Y-101868037D01*
X140831805Y-101860208D01*
X140878818Y-101855833D01*
X140898331Y-101855500D01*
X140966472Y-101863893D01*
X140996137Y-101888010D01*
X141009254Y-101908724D01*
X141032559Y-101903780D01*
X141058228Y-101888010D01*
X141108978Y-101864316D01*
X141157126Y-101856130D01*
X141188726Y-101864616D01*
X141194000Y-101876667D01*
X141181735Y-101897822D01*
X141178125Y-101898538D01*
X141152073Y-101911347D01*
X141112692Y-101940537D01*
X141063135Y-101981833D01*
X141107401Y-102053456D01*
X141139950Y-102109483D01*
X141146773Y-102138828D01*
X141125552Y-102150079D01*
X141080864Y-102151834D01*
X141009979Y-102136818D01*
X140972302Y-102110110D01*
X140944363Y-102082786D01*
X140921529Y-102081771D01*
X140885375Y-102107064D01*
X140881500Y-102110110D01*
X140855058Y-102127407D01*
X140822233Y-102139116D01*
X140774893Y-102146231D01*
X140704906Y-102149744D01*
X140604140Y-102150650D01*
X140550854Y-102150492D01*
X140442760Y-102148603D01*
X140346772Y-102144408D01*
X140272548Y-102138501D01*
X140229748Y-102131478D01*
X140227009Y-102130519D01*
X140169142Y-102089860D01*
X140145600Y-102033925D01*
X140155310Y-101970657D01*
X140197198Y-101908001D01*
X140263909Y-101857345D01*
X140316412Y-101823621D01*
X140340659Y-101790353D01*
X140347215Y-101741113D01*
X140347333Y-101727634D01*
X140359449Y-101659249D01*
X140398703Y-101611131D01*
X140469452Y-101580375D01*
X140576056Y-101564077D01*
X140594725Y-101562743D01*
X140676278Y-101560334D01*
X140728617Y-101567248D01*
X140728617Y-101567248D01*
G37*
X140728617Y-101567248D02*
X140764233Y-101585529D01*
X140771508Y-101591678D01*
X140808023Y-101639989D01*
X140803580Y-101685774D01*
X140779738Y-101716405D01*
X140723251Y-101748213D01*
X140664256Y-101741858D01*
X140613859Y-101699261D01*
X140605640Y-101686301D01*
X140574563Y-101643454D01*
X140546612Y-101623070D01*
X140544177Y-101622801D01*
X140510211Y-101640801D01*
X140491981Y-101686186D01*
X140494467Y-101745394D01*
X140496409Y-101752838D01*
X140503061Y-101790941D01*
X140491282Y-101819927D01*
X140453701Y-101852089D01*
X140425133Y-101871729D01*
X140360037Y-101928133D01*
X140329589Y-101984059D01*
X140335671Y-102034059D01*
X140359952Y-102060689D01*
X140406434Y-102076520D01*
X140492170Y-102085811D01*
X140593615Y-102088334D01*
X140689227Y-102087170D01*
X140753207Y-102082325D01*
X140796224Y-102071764D01*
X140828947Y-102053454D01*
X140845226Y-102040377D01*
X140900979Y-101992420D01*
X140856989Y-101936496D01*
X140827054Y-101895068D01*
X140813127Y-101869151D01*
X140813000Y-101868037D01*
X140831805Y-101860208D01*
X140878818Y-101855833D01*
X140898331Y-101855500D01*
X140966472Y-101863893D01*
X140996137Y-101888010D01*
X141009254Y-101908724D01*
X141032559Y-101903780D01*
X141058228Y-101888010D01*
X141108978Y-101864316D01*
X141157126Y-101856130D01*
X141188726Y-101864616D01*
X141194000Y-101876667D01*
X141181735Y-101897822D01*
X141178125Y-101898538D01*
X141152073Y-101911347D01*
X141112692Y-101940537D01*
X141063135Y-101981833D01*
X141107401Y-102053456D01*
X141139950Y-102109483D01*
X141146773Y-102138828D01*
X141125552Y-102150079D01*
X141080864Y-102151834D01*
X141009979Y-102136818D01*
X140972302Y-102110110D01*
X140944363Y-102082786D01*
X140921529Y-102081771D01*
X140885375Y-102107064D01*
X140881500Y-102110110D01*
X140855058Y-102127407D01*
X140822233Y-102139116D01*
X140774893Y-102146231D01*
X140704906Y-102149744D01*
X140604140Y-102150650D01*
X140550854Y-102150492D01*
X140442760Y-102148603D01*
X140346772Y-102144408D01*
X140272548Y-102138501D01*
X140229748Y-102131478D01*
X140227009Y-102130519D01*
X140169142Y-102089860D01*
X140145600Y-102033925D01*
X140155310Y-101970657D01*
X140197198Y-101908001D01*
X140263909Y-101857345D01*
X140316412Y-101823621D01*
X140340659Y-101790353D01*
X140347215Y-101741113D01*
X140347333Y-101727634D01*
X140359449Y-101659249D01*
X140398703Y-101611131D01*
X140469452Y-101580375D01*
X140576056Y-101564077D01*
X140594725Y-101562743D01*
X140676278Y-101560334D01*
X140728617Y-101567248D01*
G36*
X141934059Y-101774110D02*
X141949775Y-101788548D01*
X141945417Y-101813167D01*
X141941522Y-101838116D01*
X141956559Y-101850720D01*
X141999662Y-101855101D01*
X142039240Y-101855500D01*
X142106711Y-101858893D01*
X142139819Y-101874403D01*
X142143177Y-101910024D01*
X142121400Y-101973750D01*
X142115589Y-101987810D01*
X142096334Y-102045833D01*
X142104695Y-102076181D01*
X142146247Y-102087321D01*
X142181778Y-102088334D01*
X142233906Y-102094925D01*
X142250953Y-102110702D01*
X142230177Y-102129672D01*
X142204708Y-102138492D01*
X142129816Y-102151106D01*
X142056132Y-102151537D01*
X141996571Y-102140913D01*
X141964049Y-102120356D01*
X141962631Y-102117417D01*
X141960341Y-102074613D01*
X141972896Y-102018148D01*
X141973879Y-102015372D01*
X141992971Y-101957794D01*
X141994292Y-101929335D01*
X141975842Y-101919832D01*
X141954920Y-101919000D01*
X141913249Y-101938324D01*
X141881157Y-101991636D01*
X141846098Y-102057927D01*
X141812390Y-102083827D01*
X141787465Y-102078243D01*
X141779145Y-102050028D01*
X141790428Y-102014448D01*
X141802742Y-101959176D01*
X141787054Y-101898768D01*
X141774068Y-101834436D01*
X141797147Y-101792134D01*
X141855916Y-101772350D01*
X141885935Y-101770834D01*
X141934059Y-101774110D01*
X141934059Y-101774110D01*
G37*
X141934059Y-101774110D02*
X141949775Y-101788548D01*
X141945417Y-101813167D01*
X141941522Y-101838116D01*
X141956559Y-101850720D01*
X141999662Y-101855101D01*
X142039240Y-101855500D01*
X142106711Y-101858893D01*
X142139819Y-101874403D01*
X142143177Y-101910024D01*
X142121400Y-101973750D01*
X142115589Y-101987810D01*
X142096334Y-102045833D01*
X142104695Y-102076181D01*
X142146247Y-102087321D01*
X142181778Y-102088334D01*
X142233906Y-102094925D01*
X142250953Y-102110702D01*
X142230177Y-102129672D01*
X142204708Y-102138492D01*
X142129816Y-102151106D01*
X142056132Y-102151537D01*
X141996571Y-102140913D01*
X141964049Y-102120356D01*
X141962631Y-102117417D01*
X141960341Y-102074613D01*
X141972896Y-102018148D01*
X141973879Y-102015372D01*
X141992971Y-101957794D01*
X141994292Y-101929335D01*
X141975842Y-101919832D01*
X141954920Y-101919000D01*
X141913249Y-101938324D01*
X141881157Y-101991636D01*
X141846098Y-102057927D01*
X141812390Y-102083827D01*
X141787465Y-102078243D01*
X141779145Y-102050028D01*
X141790428Y-102014448D01*
X141802742Y-101959176D01*
X141787054Y-101898768D01*
X141774068Y-101834436D01*
X141797147Y-101792134D01*
X141855916Y-101772350D01*
X141885935Y-101770834D01*
X141934059Y-101774110D01*
G36*
X143090863Y-101745349D02*
X143108598Y-101775614D01*
X143125577Y-101835697D01*
X143139215Y-101913125D01*
X143146926Y-101995422D01*
X143147702Y-102019542D01*
X143152903Y-102067075D01*
X143174311Y-102085600D01*
X143209281Y-102088334D01*
X143273910Y-102076308D01*
X143321228Y-102054651D01*
X143361004Y-102033681D01*
X143396373Y-102035320D01*
X143437981Y-102053568D01*
X143483374Y-102073268D01*
X143505590Y-102071395D01*
X143515095Y-102055500D01*
X143518292Y-102009725D01*
X143513321Y-101989544D01*
X143496033Y-101966832D01*
X143475073Y-101978961D01*
X143435164Y-102001204D01*
X143419160Y-102003667D01*
X143404450Y-101995940D01*
X143420862Y-101969210D01*
X143433977Y-101954678D01*
X143466897Y-101906741D01*
X143480000Y-101863117D01*
X143494739Y-101818636D01*
X143527952Y-101775497D01*
X143569461Y-101745720D01*
X143601189Y-101746300D01*
X143624613Y-101779941D01*
X143641214Y-101849348D01*
X143652471Y-101957225D01*
X143655661Y-102008959D01*
X143660957Y-102060057D01*
X143678045Y-102082558D01*
X143719872Y-102088182D01*
X143743337Y-102088334D01*
X143794772Y-102089630D01*
X143809749Y-102096388D01*
X143794125Y-102112908D01*
X143785670Y-102119410D01*
X143743710Y-102134607D01*
X143672337Y-102145190D01*
X143584252Y-102150886D01*
X143492153Y-102151424D01*
X143408739Y-102146531D01*
X143346709Y-102135935D01*
X143329089Y-102129198D01*
X143283304Y-102117919D01*
X143257732Y-102130682D01*
X143217984Y-102143022D01*
X143137737Y-102147392D01*
X143020960Y-102144060D01*
X142914897Y-102138573D01*
X142839414Y-102135026D01*
X142782803Y-102133366D01*
X142733356Y-102133537D01*
X142679368Y-102135485D01*
X142609130Y-102139154D01*
X142559250Y-102141890D01*
X142455990Y-102145399D01*
X142384478Y-102141962D01*
X142334561Y-102130670D01*
X142310542Y-102119628D01*
X142264700Y-102073257D01*
X142252086Y-102012941D01*
X142273973Y-101952502D01*
X142293152Y-101930954D01*
X142354518Y-101894940D01*
X142433418Y-101874467D01*
X142516879Y-101869827D01*
X142591928Y-101881314D01*
X142645591Y-101909218D01*
X142656826Y-101922765D01*
X142663027Y-101965125D01*
X142636616Y-102002153D01*
X142586985Y-102023206D01*
X142566794Y-102024834D01*
X142522404Y-102021073D01*
X142509736Y-102002689D01*
X142515025Y-101971917D01*
X142518866Y-101932443D01*
X142498044Y-101919456D01*
X142487640Y-101919000D01*
X142455251Y-101937086D01*
X142426091Y-101979725D01*
X142408845Y-102029489D01*
X142412199Y-102068953D01*
X142412586Y-102069598D01*
X142437207Y-102078310D01*
X142491016Y-102084240D01*
X142562669Y-102087391D01*
X142640823Y-102087769D01*
X142714134Y-102085379D01*
X142771259Y-102080225D01*
X142800853Y-102072312D01*
X142802667Y-102069431D01*
X142819953Y-102043989D01*
X142862673Y-102036284D01*
X142917117Y-102047929D01*
X142931389Y-102054270D01*
X142973873Y-102072449D01*
X142994122Y-102067394D01*
X143004329Y-102044175D01*
X143009271Y-101995396D01*
X142988563Y-101975414D01*
X142950814Y-101987424D01*
X142909586Y-102002396D01*
X142893846Y-101990039D01*
X142910673Y-101961145D01*
X142925652Y-101949063D01*
X142960961Y-101907330D01*
X142972000Y-101868573D01*
X142984920Y-101824351D01*
X143016024Y-101780802D01*
X143053826Y-101749833D01*
X143086841Y-101743350D01*
X143090863Y-101745349D01*
X143090863Y-101745349D01*
G37*
X143090863Y-101745349D02*
X143108598Y-101775614D01*
X143125577Y-101835697D01*
X143139215Y-101913125D01*
X143146926Y-101995422D01*
X143147702Y-102019542D01*
X143152903Y-102067075D01*
X143174311Y-102085600D01*
X143209281Y-102088334D01*
X143273910Y-102076308D01*
X143321228Y-102054651D01*
X143361004Y-102033681D01*
X143396373Y-102035320D01*
X143437981Y-102053568D01*
X143483374Y-102073268D01*
X143505590Y-102071395D01*
X143515095Y-102055500D01*
X143518292Y-102009725D01*
X143513321Y-101989544D01*
X143496033Y-101966832D01*
X143475073Y-101978961D01*
X143435164Y-102001204D01*
X143419160Y-102003667D01*
X143404450Y-101995940D01*
X143420862Y-101969210D01*
X143433977Y-101954678D01*
X143466897Y-101906741D01*
X143480000Y-101863117D01*
X143494739Y-101818636D01*
X143527952Y-101775497D01*
X143569461Y-101745720D01*
X143601189Y-101746300D01*
X143624613Y-101779941D01*
X143641214Y-101849348D01*
X143652471Y-101957225D01*
X143655661Y-102008959D01*
X143660957Y-102060057D01*
X143678045Y-102082558D01*
X143719872Y-102088182D01*
X143743337Y-102088334D01*
X143794772Y-102089630D01*
X143809749Y-102096388D01*
X143794125Y-102112908D01*
X143785670Y-102119410D01*
X143743710Y-102134607D01*
X143672337Y-102145190D01*
X143584252Y-102150886D01*
X143492153Y-102151424D01*
X143408739Y-102146531D01*
X143346709Y-102135935D01*
X143329089Y-102129198D01*
X143283304Y-102117919D01*
X143257732Y-102130682D01*
X143217984Y-102143022D01*
X143137737Y-102147392D01*
X143020960Y-102144060D01*
X142914897Y-102138573D01*
X142839414Y-102135026D01*
X142782803Y-102133366D01*
X142733356Y-102133537D01*
X142679368Y-102135485D01*
X142609130Y-102139154D01*
X142559250Y-102141890D01*
X142455990Y-102145399D01*
X142384478Y-102141962D01*
X142334561Y-102130670D01*
X142310542Y-102119628D01*
X142264700Y-102073257D01*
X142252086Y-102012941D01*
X142273973Y-101952502D01*
X142293152Y-101930954D01*
X142354518Y-101894940D01*
X142433418Y-101874467D01*
X142516879Y-101869827D01*
X142591928Y-101881314D01*
X142645591Y-101909218D01*
X142656826Y-101922765D01*
X142663027Y-101965125D01*
X142636616Y-102002153D01*
X142586985Y-102023206D01*
X142566794Y-102024834D01*
X142522404Y-102021073D01*
X142509736Y-102002689D01*
X142515025Y-101971917D01*
X142518866Y-101932443D01*
X142498044Y-101919456D01*
X142487640Y-101919000D01*
X142455251Y-101937086D01*
X142426091Y-101979725D01*
X142408845Y-102029489D01*
X142412199Y-102068953D01*
X142412586Y-102069598D01*
X142437207Y-102078310D01*
X142491016Y-102084240D01*
X142562669Y-102087391D01*
X142640823Y-102087769D01*
X142714134Y-102085379D01*
X142771259Y-102080225D01*
X142800853Y-102072312D01*
X142802667Y-102069431D01*
X142819953Y-102043989D01*
X142862673Y-102036284D01*
X142917117Y-102047929D01*
X142931389Y-102054270D01*
X142973873Y-102072449D01*
X142994122Y-102067394D01*
X143004329Y-102044175D01*
X143009271Y-101995396D01*
X142988563Y-101975414D01*
X142950814Y-101987424D01*
X142909586Y-102002396D01*
X142893846Y-101990039D01*
X142910673Y-101961145D01*
X142925652Y-101949063D01*
X142960961Y-101907330D01*
X142972000Y-101868573D01*
X142984920Y-101824351D01*
X143016024Y-101780802D01*
X143053826Y-101749833D01*
X143086841Y-101743350D01*
X143090863Y-101745349D01*
G36*
X134875857Y-101611106D02*
X134915136Y-101648476D01*
X134928667Y-101700239D01*
X134910316Y-101747282D01*
X134866319Y-101782422D01*
X134826570Y-101792000D01*
X134796957Y-101779786D01*
X134757148Y-101752153D01*
X134724085Y-101718543D01*
X134722086Y-101685042D01*
X134733182Y-101656903D01*
X134771790Y-101612417D01*
X134823712Y-101598119D01*
X134875857Y-101611106D01*
X134875857Y-101611106D01*
G37*
X134875857Y-101611106D02*
X134915136Y-101648476D01*
X134928667Y-101700239D01*
X134910316Y-101747282D01*
X134866319Y-101782422D01*
X134826570Y-101792000D01*
X134796957Y-101779786D01*
X134757148Y-101752153D01*
X134724085Y-101718543D01*
X134722086Y-101685042D01*
X134733182Y-101656903D01*
X134771790Y-101612417D01*
X134823712Y-101598119D01*
X134875857Y-101611106D01*
D11*
X120575000Y-110825000D02*
X120800000Y-110825000D01*
X120575000Y-103575000D02*
X120900000Y-103575000D01*
X127825000Y-103575000D02*
X127500000Y-103575000D01*
X127825000Y-110825000D02*
X127500000Y-110825000D01*
X120575000Y-110825000D02*
X120575000Y-110500000D01*
X127825000Y-110825000D02*
X127825000Y-110500000D01*
X127825000Y-103575000D02*
X127825000Y-103900000D01*
X120575000Y-103575000D02*
X120575000Y-103900000D01*
X120800000Y-110825000D02*
X120800000Y-112250000D01*
D14*
X115100000Y-109450000D02*
X116100000Y-109450000D01*
X116100000Y-107750000D02*
X115100000Y-107750000D01*
X133084961Y-105017179D02*
X133084961Y-104017179D01*
X131384961Y-104017179D02*
X131384961Y-105017179D01*
X132727141Y-115516064D02*
X131527141Y-115516064D01*
X131527141Y-113756064D02*
X132727141Y-113756064D01*
X128320000Y-97800000D02*
X128320000Y-96600000D01*
X130080000Y-96600000D02*
X130080000Y-97800000D01*
X131384961Y-108017179D02*
X131384961Y-109017179D01*
X133084961Y-109017179D02*
X133084961Y-108017179D01*
X117858814Y-97794058D02*
X117858814Y-96794058D01*
X116158814Y-96794058D02*
X116158814Y-97794058D01*
X105152016Y-112900000D02*
X105152016Y-114100000D01*
X103392016Y-114100000D02*
X103392016Y-112900000D01*
X110780000Y-96860000D02*
X110780000Y-98060000D01*
X109020000Y-98060000D02*
X109020000Y-96860000D01*
X119800000Y-115480000D02*
X118600000Y-115480000D01*
X118600000Y-113720000D02*
X119800000Y-113720000D01*
X120002148Y-97794058D02*
X120002148Y-96794058D01*
X118302148Y-96794058D02*
X118302148Y-97794058D01*
X106950000Y-110321323D02*
X106950000Y-109321323D01*
X105250000Y-109321323D02*
X105250000Y-110321323D01*
X98408000Y-101510000D02*
X98408000Y-101960000D01*
X96558000Y-101510000D02*
X98408000Y-101510000D01*
X94008000Y-109310000D02*
X94258000Y-109310000D01*
X94008000Y-101510000D02*
X94258000Y-101510000D01*
X96558000Y-109310000D02*
X98408000Y-109310000D01*
X98408000Y-109310000D02*
X98408000Y-108860000D01*
X98958000Y-103710000D02*
X98958000Y-104160000D01*
X98958000Y-103710000D02*
X98508000Y-103710000D01*
X106042000Y-100531000D02*
X106042000Y-103431000D01*
X106592000Y-94331000D02*
X101942000Y-94331000D01*
X101217000Y-100531000D02*
X102492000Y-100531000D01*
X101217000Y-102131000D02*
X101217000Y-100531000D01*
X100217000Y-102131000D02*
X101217000Y-102131000D01*
X100217000Y-97906000D02*
X100217000Y-102131000D01*
X108317000Y-102131000D02*
X108317000Y-97906000D01*
X107317000Y-102131000D02*
X108317000Y-102131000D01*
X107317000Y-100531000D02*
X107317000Y-102131000D01*
X106042000Y-100531000D02*
X107317000Y-100531000D01*
X126700000Y-100700000D02*
X121700000Y-100700000D01*
X120600000Y-96400000D02*
X120600000Y-95300000D01*
X120600000Y-95300000D02*
X126700000Y-95300000D01*
X101780000Y-112900000D02*
X101780000Y-114100000D01*
X100020000Y-114100000D02*
X100020000Y-112900000D01*
X114700000Y-113720000D02*
X115900000Y-113720000D01*
X115900000Y-115480000D02*
X114700000Y-115480000D01*
X101846033Y-111431323D02*
X104296033Y-111431323D01*
X103646033Y-108211323D02*
X101846033Y-108211323D01*
X114278333Y-95600000D02*
X111828333Y-95600000D01*
X112478333Y-98820000D02*
X114278333Y-98820000D01*
X113400000Y-109500000D02*
X113400000Y-107500000D01*
X113400000Y-107500000D02*
X109550000Y-107500000D01*
X113400000Y-109500000D02*
X109550000Y-109500000D01*
X137857541Y-115400000D02*
X134911141Y-115400000D01*
X137857541Y-113787200D02*
X134936541Y-113787200D01*
X137857541Y-115400000D02*
X137857541Y-113800000D01*
D10*
X138104141Y-115450000D02*
G75*
G03X138104141Y-115450000I-127000J0D01*
G01*
X105777000Y-115650000D02*
G75*
G03X105777000Y-115650000I-127000J0D01*
G01*
D14*
X105700000Y-115530400D02*
X107300000Y-115530400D01*
X107312800Y-115530400D02*
X107312800Y-112609400D01*
X105700000Y-115530400D02*
X105700000Y-112584000D01*
X109100000Y-110150000D02*
X114500000Y-110150000D01*
X109100000Y-113450000D02*
X114500000Y-113450000D01*
X109100000Y-110150000D02*
X109100000Y-113450000D01*
X118230000Y-103080000D02*
X114770000Y-103080000D01*
X118230000Y-99320000D02*
X114770000Y-99320000D01*
D12*
X110075000Y-106650000D02*
X110075000Y-106350000D01*
X110450000Y-106650000D02*
X110075000Y-106650000D01*
X110075000Y-103350000D02*
X110525000Y-103350000D01*
X110075000Y-103650000D02*
X110075000Y-103350000D01*
X110075000Y-103575000D02*
X110075000Y-103700000D01*
X111725000Y-103350000D02*
X111725000Y-103700000D01*
X111250000Y-103350000D02*
X111725000Y-103350000D01*
X111725000Y-106325000D02*
X112500000Y-106325000D01*
X111725000Y-106375000D02*
X111725000Y-106325000D01*
X111350000Y-106650000D02*
X111725000Y-106375000D01*
X111075000Y-106650000D02*
X111350000Y-106650000D01*
X111075000Y-103050000D02*
X111350000Y-103050000D01*
X111350000Y-103050000D02*
X111725000Y-102775000D01*
X111725000Y-102775000D02*
X111725000Y-102725000D01*
X111725000Y-102725000D02*
X112500000Y-102725000D01*
X111250000Y-99750000D02*
X111725000Y-99750000D01*
X111725000Y-99750000D02*
X111725000Y-100100000D01*
X110075000Y-99975000D02*
X110075000Y-100100000D01*
X110075000Y-100050000D02*
X110075000Y-99750000D01*
X110075000Y-99750000D02*
X110525000Y-99750000D01*
X110450000Y-103050000D02*
X110075000Y-103050000D01*
X110075000Y-103050000D02*
X110075000Y-102750000D01*
D14*
X128400000Y-115580000D02*
X127200000Y-115580000D01*
X127200000Y-113820000D02*
X128400000Y-113820000D01*
X112300000Y-115480000D02*
X111100000Y-115480000D01*
X111100000Y-113720000D02*
X112300000Y-113720000D01*
X125500000Y-115550000D02*
X122950000Y-115550000D01*
X125500000Y-113850000D02*
X122950000Y-113850000D01*
X125500000Y-115550000D02*
X125500000Y-113850000D01*
D12*
X140234961Y-109617179D02*
X140534961Y-109617179D01*
X140534961Y-109617179D02*
X140634961Y-109517179D01*
X140634961Y-109517179D02*
X141934961Y-109517179D01*
X141034961Y-104417179D02*
X141034961Y-104217179D01*
X141034961Y-104217179D02*
X140634961Y-104217179D01*
X136234961Y-109417179D02*
X136234961Y-109617179D01*
X136234961Y-109617179D02*
X136634961Y-109617179D01*
X136234961Y-104317179D02*
X136234961Y-104417179D01*
X136234961Y-104417179D02*
X136234961Y-104217179D01*
X136234961Y-104217179D02*
X136734961Y-104217179D01*
D11*
G36*
X141784961Y-109767179D02*
X141784961Y-109617179D01*
X141934961Y-109617179D01*
X141934961Y-109767179D01*
X141784961Y-109767179D01*
G37*
X141784961Y-109767179D02*
X141784961Y-109617179D01*
X141934961Y-109617179D01*
X141934961Y-109767179D01*
X141784961Y-109767179D01*
D15*
X131695238Y-95180952D02*
X131695238Y-95504761D01*
X131714285Y-95542857D01*
X131733333Y-95561904D01*
X131771428Y-95580952D01*
X131847619Y-95580952D01*
X131885714Y-95561904D01*
X131904761Y-95542857D01*
X131923809Y-95504761D01*
X131923809Y-95180952D01*
X132095238Y-95219047D02*
X132114285Y-95200000D01*
X132152380Y-95180952D01*
X132247619Y-95180952D01*
X132285714Y-95200000D01*
X132304761Y-95219047D01*
X132323809Y-95257142D01*
X132323809Y-95295238D01*
X132304761Y-95352380D01*
X132076190Y-95580952D01*
X132323809Y-95580952D01*
X133238095Y-95466666D02*
X133428571Y-95466666D01*
X133200000Y-95580952D02*
X133333333Y-95180952D01*
X133466666Y-95580952D01*
X133542857Y-95180952D02*
X133771428Y-95180952D01*
X133657142Y-95580952D02*
X133657142Y-95180952D01*
X133885714Y-95219047D02*
X133904761Y-95200000D01*
X133942857Y-95180952D01*
X134038095Y-95180952D01*
X134076190Y-95200000D01*
X134095238Y-95219047D01*
X134114285Y-95257142D01*
X134114285Y-95295238D01*
X134095238Y-95352380D01*
X133866666Y-95580952D01*
X134114285Y-95580952D01*
X134476190Y-95180952D02*
X134285714Y-95180952D01*
X134266666Y-95371428D01*
X134285714Y-95352380D01*
X134323809Y-95333333D01*
X134419047Y-95333333D01*
X134457142Y-95352380D01*
X134476190Y-95371428D01*
X134495238Y-95409523D01*
X134495238Y-95504761D01*
X134476190Y-95542857D01*
X134457142Y-95561904D01*
X134419047Y-95580952D01*
X134323809Y-95580952D01*
X134285714Y-95561904D01*
X134266666Y-95542857D01*
X134647619Y-95561904D02*
X134704761Y-95580952D01*
X134800000Y-95580952D01*
X134838095Y-95561904D01*
X134857142Y-95542857D01*
X134876190Y-95504761D01*
X134876190Y-95466666D01*
X134857142Y-95428571D01*
X134838095Y-95409523D01*
X134800000Y-95390476D01*
X134723809Y-95371428D01*
X134685714Y-95352380D01*
X134666666Y-95333333D01*
X134647619Y-95295238D01*
X134647619Y-95257142D01*
X134666666Y-95219047D01*
X134685714Y-95200000D01*
X134723809Y-95180952D01*
X134819047Y-95180952D01*
X134876190Y-95200000D01*
X135180952Y-95371428D02*
X135047619Y-95371428D01*
X135047619Y-95580952D02*
X135047619Y-95180952D01*
X135238095Y-95180952D01*
X135600000Y-95580952D02*
X135371428Y-95580952D01*
X135485714Y-95580952D02*
X135485714Y-95180952D01*
X135447619Y-95238095D01*
X135409523Y-95276190D01*
X135371428Y-95295238D01*
X135942857Y-95180952D02*
X135866666Y-95180952D01*
X135828571Y-95200000D01*
X135809523Y-95219047D01*
X135771428Y-95276190D01*
X135752380Y-95352380D01*
X135752380Y-95504761D01*
X135771428Y-95542857D01*
X135790476Y-95561904D01*
X135828571Y-95580952D01*
X135904761Y-95580952D01*
X135942857Y-95561904D01*
X135961904Y-95542857D01*
X135980952Y-95504761D01*
X135980952Y-95409523D01*
X135961904Y-95371428D01*
X135942857Y-95352380D01*
X135904761Y-95333333D01*
X135828571Y-95333333D01*
X135790476Y-95352380D01*
X135771428Y-95371428D01*
X135752380Y-95409523D01*
X136361904Y-95580952D02*
X136133333Y-95580952D01*
X136247619Y-95580952D02*
X136247619Y-95180952D01*
X136209523Y-95238095D01*
X136171428Y-95276190D01*
X136133333Y-95295238D01*
X118480952Y-112304761D02*
X118804761Y-112304761D01*
X118842857Y-112285714D01*
X118861904Y-112266666D01*
X118880952Y-112228571D01*
X118880952Y-112152380D01*
X118861904Y-112114285D01*
X118842857Y-112095238D01*
X118804761Y-112076190D01*
X118480952Y-112076190D01*
X118880952Y-111676190D02*
X118880952Y-111904761D01*
X118880952Y-111790476D02*
X118480952Y-111790476D01*
X118538095Y-111828571D01*
X118576190Y-111866666D01*
X118595238Y-111904761D01*
X118861904Y-110828571D02*
X118880952Y-110771428D01*
X118880952Y-110676190D01*
X118861904Y-110638095D01*
X118842857Y-110619047D01*
X118804761Y-110600000D01*
X118766666Y-110600000D01*
X118728571Y-110619047D01*
X118709523Y-110638095D01*
X118690476Y-110676190D01*
X118671428Y-110752380D01*
X118652380Y-110790476D01*
X118633333Y-110809523D01*
X118595238Y-110828571D01*
X118557142Y-110828571D01*
X118519047Y-110809523D01*
X118500000Y-110790476D01*
X118480952Y-110752380D01*
X118480952Y-110657142D01*
X118500000Y-110600000D01*
X118766666Y-110447619D02*
X118766666Y-110257142D01*
X118880952Y-110485714D02*
X118480952Y-110352380D01*
X118880952Y-110219047D01*
X118880952Y-110085714D02*
X118480952Y-110085714D01*
X118766666Y-109952380D01*
X118480952Y-109819047D01*
X118880952Y-109819047D01*
X118880952Y-109628571D02*
X118480952Y-109628571D01*
X118480952Y-109533333D01*
X118500000Y-109476190D01*
X118538095Y-109438095D01*
X118576190Y-109419047D01*
X118652380Y-109400000D01*
X118709523Y-109400000D01*
X118785714Y-109419047D01*
X118823809Y-109438095D01*
X118861904Y-109476190D01*
X118880952Y-109533333D01*
X118880952Y-109628571D01*
X118519047Y-109247619D02*
X118500000Y-109228571D01*
X118480952Y-109190476D01*
X118480952Y-109095238D01*
X118500000Y-109057142D01*
X118519047Y-109038095D01*
X118557142Y-109019047D01*
X118595238Y-109019047D01*
X118652380Y-109038095D01*
X118880952Y-109266666D01*
X118880952Y-109019047D01*
X118880952Y-108638095D02*
X118880952Y-108866666D01*
X118880952Y-108752380D02*
X118480952Y-108752380D01*
X118538095Y-108790476D01*
X118576190Y-108828571D01*
X118595238Y-108866666D01*
X118671428Y-108466666D02*
X118671428Y-108333333D01*
X118880952Y-108276190D02*
X118880952Y-108466666D01*
X118480952Y-108466666D01*
X118480952Y-108276190D01*
X118880952Y-107895238D02*
X118880952Y-108123809D01*
X118880952Y-108009523D02*
X118480952Y-108009523D01*
X118538095Y-108047619D01*
X118576190Y-108085714D01*
X118595238Y-108123809D01*
X118652380Y-107666666D02*
X118633333Y-107704761D01*
X118614285Y-107723809D01*
X118576190Y-107742857D01*
X118557142Y-107742857D01*
X118519047Y-107723809D01*
X118500000Y-107704761D01*
X118480952Y-107666666D01*
X118480952Y-107590476D01*
X118500000Y-107552380D01*
X118519047Y-107533333D01*
X118557142Y-107514285D01*
X118576190Y-107514285D01*
X118614285Y-107533333D01*
X118633333Y-107552380D01*
X118652380Y-107590476D01*
X118652380Y-107666666D01*
X118671428Y-107704761D01*
X118690476Y-107723809D01*
X118728571Y-107742857D01*
X118804761Y-107742857D01*
X118842857Y-107723809D01*
X118861904Y-107704761D01*
X118880952Y-107666666D01*
X118880952Y-107590476D01*
X118861904Y-107552380D01*
X118842857Y-107533333D01*
X118804761Y-107514285D01*
X118728571Y-107514285D01*
X118690476Y-107533333D01*
X118671428Y-107552380D01*
X118652380Y-107590476D01*
X118766666Y-107361904D02*
X118766666Y-107171428D01*
X118880952Y-107400000D02*
X118480952Y-107266666D01*
X118880952Y-107133333D01*
X117033333Y-106901357D02*
X117014285Y-106920404D01*
X116957142Y-106939452D01*
X116919047Y-106939452D01*
X116861904Y-106920404D01*
X116823809Y-106882309D01*
X116804761Y-106844214D01*
X116785714Y-106768023D01*
X116785714Y-106710880D01*
X116804761Y-106634690D01*
X116823809Y-106596595D01*
X116861904Y-106558500D01*
X116919047Y-106539452D01*
X116957142Y-106539452D01*
X117014285Y-106558500D01*
X117033333Y-106577547D01*
X117414285Y-106939452D02*
X117185714Y-106939452D01*
X117300000Y-106939452D02*
X117300000Y-106539452D01*
X117261904Y-106596595D01*
X117223809Y-106634690D01*
X117185714Y-106653738D01*
X116661904Y-107580952D02*
X116433333Y-107580952D01*
X116547619Y-107580952D02*
X116547619Y-107180952D01*
X116509523Y-107238095D01*
X116471428Y-107276190D01*
X116433333Y-107295238D01*
X117004761Y-107314285D02*
X117004761Y-107580952D01*
X116833333Y-107314285D02*
X116833333Y-107523809D01*
X116852380Y-107561904D01*
X116890476Y-107580952D01*
X116947619Y-107580952D01*
X116985714Y-107561904D01*
X117004761Y-107542857D01*
X117328571Y-107371428D02*
X117195238Y-107371428D01*
X117195238Y-107580952D02*
X117195238Y-107180952D01*
X117385714Y-107180952D01*
X130833333Y-103242857D02*
X130814285Y-103261904D01*
X130757142Y-103280952D01*
X130719047Y-103280952D01*
X130661904Y-103261904D01*
X130623809Y-103223809D01*
X130604761Y-103185714D01*
X130585714Y-103109523D01*
X130585714Y-103052380D01*
X130604761Y-102976190D01*
X130623809Y-102938095D01*
X130661904Y-102900000D01*
X130719047Y-102880952D01*
X130757142Y-102880952D01*
X130814285Y-102900000D01*
X130833333Y-102919047D01*
X130985714Y-102919047D02*
X131004761Y-102900000D01*
X131042857Y-102880952D01*
X131138095Y-102880952D01*
X131176190Y-102900000D01*
X131195238Y-102919047D01*
X131214285Y-102957142D01*
X131214285Y-102995238D01*
X131195238Y-103052380D01*
X130966666Y-103280952D01*
X131214285Y-103280952D01*
X130742857Y-102280952D02*
X130780952Y-102280952D01*
X130819047Y-102300000D01*
X130838095Y-102319047D01*
X130857142Y-102357142D01*
X130876190Y-102433333D01*
X130876190Y-102528571D01*
X130857142Y-102604761D01*
X130838095Y-102642857D01*
X130819047Y-102661904D01*
X130780952Y-102680952D01*
X130742857Y-102680952D01*
X130704761Y-102661904D01*
X130685714Y-102642857D01*
X130666666Y-102604761D01*
X130647619Y-102528571D01*
X130647619Y-102433333D01*
X130666666Y-102357142D01*
X130685714Y-102319047D01*
X130704761Y-102300000D01*
X130742857Y-102280952D01*
X131047619Y-102642857D02*
X131066666Y-102661904D01*
X131047619Y-102680952D01*
X131028571Y-102661904D01*
X131047619Y-102642857D01*
X131047619Y-102680952D01*
X131447619Y-102680952D02*
X131219047Y-102680952D01*
X131333333Y-102680952D02*
X131333333Y-102280952D01*
X131295238Y-102338095D01*
X131257142Y-102376190D01*
X131219047Y-102395238D01*
X131790476Y-102414285D02*
X131790476Y-102680952D01*
X131619047Y-102414285D02*
X131619047Y-102623809D01*
X131638095Y-102661904D01*
X131676190Y-102680952D01*
X131733333Y-102680952D01*
X131771428Y-102661904D01*
X131790476Y-102642857D01*
X132114285Y-102471428D02*
X131980952Y-102471428D01*
X131980952Y-102680952D02*
X131980952Y-102280952D01*
X132171428Y-102280952D01*
X130833333Y-113580952D02*
X130700000Y-113390476D01*
X130604761Y-113580952D02*
X130604761Y-113180952D01*
X130757142Y-113180952D01*
X130795238Y-113200000D01*
X130814285Y-113219047D01*
X130833333Y-113257142D01*
X130833333Y-113314285D01*
X130814285Y-113352380D01*
X130795238Y-113371428D01*
X130757142Y-113390476D01*
X130604761Y-113390476D01*
X131214285Y-113580952D02*
X130985714Y-113580952D01*
X131100000Y-113580952D02*
X131100000Y-113180952D01*
X131061904Y-113238095D01*
X131023809Y-113276190D01*
X130985714Y-113295238D01*
X131728571Y-113580952D02*
X131500000Y-113580952D01*
X131614285Y-113580952D02*
X131614285Y-113180952D01*
X131576190Y-113238095D01*
X131538095Y-113276190D01*
X131500000Y-113295238D01*
X131900000Y-113542857D02*
X131919047Y-113561904D01*
X131900000Y-113580952D01*
X131880952Y-113561904D01*
X131900000Y-113542857D01*
X131900000Y-113580952D01*
X132280952Y-113180952D02*
X132090476Y-113180952D01*
X132071428Y-113371428D01*
X132090476Y-113352380D01*
X132128571Y-113333333D01*
X132223809Y-113333333D01*
X132261904Y-113352380D01*
X132280952Y-113371428D01*
X132300000Y-113409523D01*
X132300000Y-113504761D01*
X132280952Y-113542857D01*
X132261904Y-113561904D01*
X132223809Y-113580952D01*
X132128571Y-113580952D01*
X132090476Y-113561904D01*
X132071428Y-113542857D01*
X132471428Y-113580952D02*
X132471428Y-113180952D01*
X132700000Y-113580952D02*
X132528571Y-113352380D01*
X132700000Y-113180952D02*
X132471428Y-113409523D01*
X129733333Y-94980952D02*
X129600000Y-94790476D01*
X129504761Y-94980952D02*
X129504761Y-94580952D01*
X129657142Y-94580952D01*
X129695238Y-94600000D01*
X129714285Y-94619047D01*
X129733333Y-94657142D01*
X129733333Y-94714285D01*
X129714285Y-94752380D01*
X129695238Y-94771428D01*
X129657142Y-94790476D01*
X129504761Y-94790476D01*
X129885714Y-94619047D02*
X129904761Y-94600000D01*
X129942857Y-94580952D01*
X130038095Y-94580952D01*
X130076190Y-94600000D01*
X130095238Y-94619047D01*
X130114285Y-94657142D01*
X130114285Y-94695238D01*
X130095238Y-94752380D01*
X129866666Y-94980952D01*
X130114285Y-94980952D01*
X129323809Y-95580952D02*
X129095238Y-95580952D01*
X129209523Y-95580952D02*
X129209523Y-95180952D01*
X129171428Y-95238095D01*
X129133333Y-95276190D01*
X129095238Y-95295238D01*
X129571428Y-95180952D02*
X129609523Y-95180952D01*
X129647619Y-95200000D01*
X129666666Y-95219047D01*
X129685714Y-95257142D01*
X129704761Y-95333333D01*
X129704761Y-95428571D01*
X129685714Y-95504761D01*
X129666666Y-95542857D01*
X129647619Y-95561904D01*
X129609523Y-95580952D01*
X129571428Y-95580952D01*
X129533333Y-95561904D01*
X129514285Y-95542857D01*
X129495238Y-95504761D01*
X129476190Y-95428571D01*
X129476190Y-95333333D01*
X129495238Y-95257142D01*
X129514285Y-95219047D01*
X129533333Y-95200000D01*
X129571428Y-95180952D01*
X129876190Y-95580952D02*
X129876190Y-95180952D01*
X130104761Y-95580952D02*
X129933333Y-95352380D01*
X130104761Y-95180952D02*
X129876190Y-95409523D01*
X130833333Y-110158636D02*
X130814285Y-110177683D01*
X130757142Y-110196731D01*
X130719047Y-110196731D01*
X130661904Y-110177683D01*
X130623809Y-110139588D01*
X130604761Y-110101493D01*
X130585714Y-110025302D01*
X130585714Y-109968159D01*
X130604761Y-109891969D01*
X130623809Y-109853874D01*
X130661904Y-109815779D01*
X130719047Y-109796731D01*
X130757142Y-109796731D01*
X130814285Y-109815779D01*
X130833333Y-109834826D01*
X130966666Y-109796731D02*
X131214285Y-109796731D01*
X131080952Y-109949112D01*
X131138095Y-109949112D01*
X131176190Y-109968159D01*
X131195238Y-109987207D01*
X131214285Y-110025302D01*
X131214285Y-110120540D01*
X131195238Y-110158636D01*
X131176190Y-110177683D01*
X131138095Y-110196731D01*
X131023809Y-110196731D01*
X130985714Y-110177683D01*
X130966666Y-110158636D01*
X130871428Y-110780952D02*
X130642857Y-110780952D01*
X130757142Y-110780952D02*
X130757142Y-110380952D01*
X130719047Y-110438095D01*
X130680952Y-110476190D01*
X130642857Y-110495238D01*
X131119047Y-110380952D02*
X131157142Y-110380952D01*
X131195238Y-110400000D01*
X131214285Y-110419047D01*
X131233333Y-110457142D01*
X131252380Y-110533333D01*
X131252380Y-110628571D01*
X131233333Y-110704761D01*
X131214285Y-110742857D01*
X131195238Y-110761904D01*
X131157142Y-110780952D01*
X131119047Y-110780952D01*
X131080952Y-110761904D01*
X131061904Y-110742857D01*
X131042857Y-110704761D01*
X131023809Y-110628571D01*
X131023809Y-110533333D01*
X131042857Y-110457142D01*
X131061904Y-110419047D01*
X131080952Y-110400000D01*
X131119047Y-110380952D01*
X131595238Y-110514285D02*
X131595238Y-110780952D01*
X131423809Y-110514285D02*
X131423809Y-110723809D01*
X131442857Y-110761904D01*
X131480952Y-110780952D01*
X131538095Y-110780952D01*
X131576190Y-110761904D01*
X131595238Y-110742857D01*
X131919047Y-110571428D02*
X131785714Y-110571428D01*
X131785714Y-110780952D02*
X131785714Y-110380952D01*
X131976190Y-110380952D01*
X117433333Y-94742857D02*
X117414285Y-94761904D01*
X117357142Y-94780952D01*
X117319047Y-94780952D01*
X117261904Y-94761904D01*
X117223809Y-94723809D01*
X117204761Y-94685714D01*
X117185714Y-94609523D01*
X117185714Y-94552380D01*
X117204761Y-94476190D01*
X117223809Y-94438095D01*
X117261904Y-94400000D01*
X117319047Y-94380952D01*
X117357142Y-94380952D01*
X117414285Y-94400000D01*
X117433333Y-94419047D01*
X117795238Y-94380952D02*
X117604761Y-94380952D01*
X117585714Y-94571428D01*
X117604761Y-94552380D01*
X117642857Y-94533333D01*
X117738095Y-94533333D01*
X117776190Y-94552380D01*
X117795238Y-94571428D01*
X117814285Y-94609523D01*
X117814285Y-94704761D01*
X117795238Y-94742857D01*
X117776190Y-94761904D01*
X117738095Y-94780952D01*
X117642857Y-94780952D01*
X117604761Y-94761904D01*
X117585714Y-94742857D01*
X117161904Y-95380952D02*
X116933333Y-95380952D01*
X117047619Y-95380952D02*
X117047619Y-94980952D01*
X117009523Y-95038095D01*
X116971428Y-95076190D01*
X116933333Y-95095238D01*
X117504761Y-95114285D02*
X117504761Y-95380952D01*
X117333333Y-95114285D02*
X117333333Y-95323809D01*
X117352380Y-95361904D01*
X117390476Y-95380952D01*
X117447619Y-95380952D01*
X117485714Y-95361904D01*
X117504761Y-95342857D01*
X117828571Y-95171428D02*
X117695238Y-95171428D01*
X117695238Y-95380952D02*
X117695238Y-94980952D01*
X117885714Y-94980952D01*
X103633333Y-115580952D02*
X103500000Y-115390476D01*
X103404761Y-115580952D02*
X103404761Y-115180952D01*
X103557142Y-115180952D01*
X103595238Y-115200000D01*
X103614285Y-115219047D01*
X103633333Y-115257142D01*
X103633333Y-115314285D01*
X103614285Y-115352380D01*
X103595238Y-115371428D01*
X103557142Y-115390476D01*
X103404761Y-115390476D01*
X103766666Y-115180952D02*
X104014285Y-115180952D01*
X103880952Y-115333333D01*
X103938095Y-115333333D01*
X103976190Y-115352380D01*
X103995238Y-115371428D01*
X104014285Y-115409523D01*
X104014285Y-115504761D01*
X103995238Y-115542857D01*
X103976190Y-115561904D01*
X103938095Y-115580952D01*
X103823809Y-115580952D01*
X103785714Y-115561904D01*
X103766666Y-115542857D01*
X104714285Y-115580952D02*
X104485714Y-115580952D01*
X104600000Y-115580952D02*
X104600000Y-115180952D01*
X104561904Y-115238095D01*
X104523809Y-115276190D01*
X104485714Y-115295238D01*
X104885714Y-115580952D02*
X104885714Y-115180952D01*
X105114285Y-115580952D02*
X104942857Y-115352380D01*
X105114285Y-115180952D02*
X104885714Y-115409523D01*
X109433333Y-95180952D02*
X109300000Y-94990476D01*
X109204761Y-95180952D02*
X109204761Y-94780952D01*
X109357142Y-94780952D01*
X109395238Y-94800000D01*
X109414285Y-94819047D01*
X109433333Y-94857142D01*
X109433333Y-94914285D01*
X109414285Y-94952380D01*
X109395238Y-94971428D01*
X109357142Y-94990476D01*
X109204761Y-94990476D01*
X109776190Y-94914285D02*
X109776190Y-95180952D01*
X109680952Y-94761904D02*
X109585714Y-95047619D01*
X109833333Y-95047619D01*
X109433333Y-95735952D02*
X109204761Y-95735952D01*
X109319047Y-95735952D02*
X109319047Y-95335952D01*
X109280952Y-95393095D01*
X109242857Y-95431190D01*
X109204761Y-95450238D01*
X109680952Y-95335952D02*
X109719047Y-95335952D01*
X109757142Y-95355000D01*
X109776190Y-95374047D01*
X109795238Y-95412142D01*
X109814285Y-95488333D01*
X109814285Y-95583571D01*
X109795238Y-95659761D01*
X109776190Y-95697857D01*
X109757142Y-95716904D01*
X109719047Y-95735952D01*
X109680952Y-95735952D01*
X109642857Y-95716904D01*
X109623809Y-95697857D01*
X109604761Y-95659761D01*
X109585714Y-95583571D01*
X109585714Y-95488333D01*
X109604761Y-95412142D01*
X109623809Y-95374047D01*
X109642857Y-95355000D01*
X109680952Y-95335952D01*
X110061904Y-95335952D02*
X110100000Y-95335952D01*
X110138095Y-95355000D01*
X110157142Y-95374047D01*
X110176190Y-95412142D01*
X110195238Y-95488333D01*
X110195238Y-95583571D01*
X110176190Y-95659761D01*
X110157142Y-95697857D01*
X110138095Y-95716904D01*
X110100000Y-95735952D01*
X110061904Y-95735952D01*
X110023809Y-95716904D01*
X110004761Y-95697857D01*
X109985714Y-95659761D01*
X109966666Y-95583571D01*
X109966666Y-95488333D01*
X109985714Y-95412142D01*
X110004761Y-95374047D01*
X110023809Y-95355000D01*
X110061904Y-95335952D01*
X110366666Y-95735952D02*
X110366666Y-95335952D01*
X110595238Y-95735952D02*
X110423809Y-95507380D01*
X110595238Y-95335952D02*
X110366666Y-95564523D01*
X119233333Y-115980952D02*
X119100000Y-115790476D01*
X119004761Y-115980952D02*
X119004761Y-115580952D01*
X119157142Y-115580952D01*
X119195238Y-115600000D01*
X119214285Y-115619047D01*
X119233333Y-115657142D01*
X119233333Y-115714285D01*
X119214285Y-115752380D01*
X119195238Y-115771428D01*
X119157142Y-115790476D01*
X119004761Y-115790476D01*
X119576190Y-115580952D02*
X119500000Y-115580952D01*
X119461904Y-115600000D01*
X119442857Y-115619047D01*
X119404761Y-115676190D01*
X119385714Y-115752380D01*
X119385714Y-115904761D01*
X119404761Y-115942857D01*
X119423809Y-115961904D01*
X119461904Y-115980952D01*
X119538095Y-115980952D01*
X119576190Y-115961904D01*
X119595238Y-115942857D01*
X119614285Y-115904761D01*
X119614285Y-115809523D01*
X119595238Y-115771428D01*
X119576190Y-115752380D01*
X119538095Y-115733333D01*
X119461904Y-115733333D01*
X119423809Y-115752380D01*
X119404761Y-115771428D01*
X119385714Y-115809523D01*
X118733333Y-113580952D02*
X118504761Y-113580952D01*
X118619047Y-113580952D02*
X118619047Y-113180952D01*
X118580952Y-113238095D01*
X118542857Y-113276190D01*
X118504761Y-113295238D01*
X118980952Y-113180952D02*
X119019047Y-113180952D01*
X119057142Y-113200000D01*
X119076190Y-113219047D01*
X119095238Y-113257142D01*
X119114285Y-113333333D01*
X119114285Y-113428571D01*
X119095238Y-113504761D01*
X119076190Y-113542857D01*
X119057142Y-113561904D01*
X119019047Y-113580952D01*
X118980952Y-113580952D01*
X118942857Y-113561904D01*
X118923809Y-113542857D01*
X118904761Y-113504761D01*
X118885714Y-113428571D01*
X118885714Y-113333333D01*
X118904761Y-113257142D01*
X118923809Y-113219047D01*
X118942857Y-113200000D01*
X118980952Y-113180952D01*
X119361904Y-113180952D02*
X119400000Y-113180952D01*
X119438095Y-113200000D01*
X119457142Y-113219047D01*
X119476190Y-113257142D01*
X119495238Y-113333333D01*
X119495238Y-113428571D01*
X119476190Y-113504761D01*
X119457142Y-113542857D01*
X119438095Y-113561904D01*
X119400000Y-113580952D01*
X119361904Y-113580952D01*
X119323809Y-113561904D01*
X119304761Y-113542857D01*
X119285714Y-113504761D01*
X119266666Y-113428571D01*
X119266666Y-113333333D01*
X119285714Y-113257142D01*
X119304761Y-113219047D01*
X119323809Y-113200000D01*
X119361904Y-113180952D01*
X119666666Y-113580952D02*
X119666666Y-113180952D01*
X119895238Y-113580952D02*
X119723809Y-113352380D01*
X119895238Y-113180952D02*
X119666666Y-113409523D01*
X119633333Y-94842857D02*
X119614285Y-94861904D01*
X119557142Y-94880952D01*
X119519047Y-94880952D01*
X119461904Y-94861904D01*
X119423809Y-94823809D01*
X119404761Y-94785714D01*
X119385714Y-94709523D01*
X119385714Y-94652380D01*
X119404761Y-94576190D01*
X119423809Y-94538095D01*
X119461904Y-94500000D01*
X119519047Y-94480952D01*
X119557142Y-94480952D01*
X119614285Y-94500000D01*
X119633333Y-94519047D01*
X119976190Y-94480952D02*
X119900000Y-94480952D01*
X119861904Y-94500000D01*
X119842857Y-94519047D01*
X119804761Y-94576190D01*
X119785714Y-94652380D01*
X119785714Y-94804761D01*
X119804761Y-94842857D01*
X119823809Y-94861904D01*
X119861904Y-94880952D01*
X119938095Y-94880952D01*
X119976190Y-94861904D01*
X119995238Y-94842857D01*
X120014285Y-94804761D01*
X120014285Y-94709523D01*
X119995238Y-94671428D01*
X119976190Y-94652380D01*
X119938095Y-94633333D01*
X119861904Y-94633333D01*
X119823809Y-94652380D01*
X119804761Y-94671428D01*
X119785714Y-94709523D01*
X118971428Y-95480952D02*
X118742857Y-95480952D01*
X118857142Y-95480952D02*
X118857142Y-95080952D01*
X118819047Y-95138095D01*
X118780952Y-95176190D01*
X118742857Y-95195238D01*
X119219047Y-95080952D02*
X119257142Y-95080952D01*
X119295238Y-95100000D01*
X119314285Y-95119047D01*
X119333333Y-95157142D01*
X119352380Y-95233333D01*
X119352380Y-95328571D01*
X119333333Y-95404761D01*
X119314285Y-95442857D01*
X119295238Y-95461904D01*
X119257142Y-95480952D01*
X119219047Y-95480952D01*
X119180952Y-95461904D01*
X119161904Y-95442857D01*
X119142857Y-95404761D01*
X119123809Y-95328571D01*
X119123809Y-95233333D01*
X119142857Y-95157142D01*
X119161904Y-95119047D01*
X119180952Y-95100000D01*
X119219047Y-95080952D01*
X119695238Y-95214285D02*
X119695238Y-95480952D01*
X119523809Y-95214285D02*
X119523809Y-95423809D01*
X119542857Y-95461904D01*
X119580952Y-95480952D01*
X119638095Y-95480952D01*
X119676190Y-95461904D01*
X119695238Y-95442857D01*
X120019047Y-95271428D02*
X119885714Y-95271428D01*
X119885714Y-95480952D02*
X119885714Y-95080952D01*
X120076190Y-95080952D01*
X106633333Y-107342857D02*
X106614285Y-107361904D01*
X106557142Y-107380952D01*
X106519047Y-107380952D01*
X106461904Y-107361904D01*
X106423809Y-107323809D01*
X106404761Y-107285714D01*
X106385714Y-107209523D01*
X106385714Y-107152380D01*
X106404761Y-107076190D01*
X106423809Y-107038095D01*
X106461904Y-107000000D01*
X106519047Y-106980952D01*
X106557142Y-106980952D01*
X106614285Y-107000000D01*
X106633333Y-107019047D01*
X106766666Y-106980952D02*
X107033333Y-106980952D01*
X106861904Y-107380952D01*
X105971428Y-107980952D02*
X105742857Y-107980952D01*
X105857142Y-107980952D02*
X105857142Y-107580952D01*
X105819047Y-107638095D01*
X105780952Y-107676190D01*
X105742857Y-107695238D01*
X106219047Y-107580952D02*
X106257142Y-107580952D01*
X106295238Y-107600000D01*
X106314285Y-107619047D01*
X106333333Y-107657142D01*
X106352380Y-107733333D01*
X106352380Y-107828571D01*
X106333333Y-107904761D01*
X106314285Y-107942857D01*
X106295238Y-107961904D01*
X106257142Y-107980952D01*
X106219047Y-107980952D01*
X106180952Y-107961904D01*
X106161904Y-107942857D01*
X106142857Y-107904761D01*
X106123809Y-107828571D01*
X106123809Y-107733333D01*
X106142857Y-107657142D01*
X106161904Y-107619047D01*
X106180952Y-107600000D01*
X106219047Y-107580952D01*
X106695238Y-107714285D02*
X106695238Y-107980952D01*
X106523809Y-107714285D02*
X106523809Y-107923809D01*
X106542857Y-107961904D01*
X106580952Y-107980952D01*
X106638095Y-107980952D01*
X106676190Y-107961904D01*
X106695238Y-107942857D01*
X107019047Y-107771428D02*
X106885714Y-107771428D01*
X106885714Y-107980952D02*
X106885714Y-107580952D01*
X107076190Y-107580952D01*
X94866666Y-99580952D02*
X94866666Y-99866666D01*
X94847619Y-99923809D01*
X94809523Y-99961904D01*
X94752380Y-99980952D01*
X94714285Y-99980952D01*
X95266666Y-99980952D02*
X95038095Y-99980952D01*
X95152380Y-99980952D02*
X95152380Y-99580952D01*
X95114285Y-99638095D01*
X95076190Y-99676190D01*
X95038095Y-99695238D01*
D12*
X94711904Y-100226190D02*
X94711904Y-100630952D01*
X94735714Y-100678571D01*
X94759523Y-100702380D01*
X94807142Y-100726190D01*
X94902380Y-100726190D01*
X94950000Y-100702380D01*
X94973809Y-100678571D01*
X94997619Y-100630952D01*
X94997619Y-100226190D01*
X95211904Y-100702380D02*
X95283333Y-100726190D01*
X95402380Y-100726190D01*
X95450000Y-100702380D01*
X95473809Y-100678571D01*
X95497619Y-100630952D01*
X95497619Y-100583333D01*
X95473809Y-100535714D01*
X95450000Y-100511904D01*
X95402380Y-100488095D01*
X95307142Y-100464285D01*
X95259523Y-100440476D01*
X95235714Y-100416666D01*
X95211904Y-100369047D01*
X95211904Y-100321428D01*
X95235714Y-100273809D01*
X95259523Y-100250000D01*
X95307142Y-100226190D01*
X95426190Y-100226190D01*
X95497619Y-100250000D01*
X95878571Y-100464285D02*
X95950000Y-100488095D01*
X95973809Y-100511904D01*
X95997619Y-100559523D01*
X95997619Y-100630952D01*
X95973809Y-100678571D01*
X95950000Y-100702380D01*
X95902380Y-100726190D01*
X95711904Y-100726190D01*
X95711904Y-100226190D01*
X95878571Y-100226190D01*
X95926190Y-100250000D01*
X95950000Y-100273809D01*
X95973809Y-100321428D01*
X95973809Y-100369047D01*
X95950000Y-100416666D01*
X95926190Y-100440476D01*
X95878571Y-100464285D01*
X95711904Y-100464285D01*
X96092857Y-100773809D02*
X96473809Y-100773809D01*
X96592857Y-100726190D02*
X96592857Y-100226190D01*
X96759523Y-100583333D01*
X96926190Y-100226190D01*
X96926190Y-100726190D01*
X97164285Y-100726190D02*
X97164285Y-100226190D01*
X97688095Y-100678571D02*
X97664285Y-100702380D01*
X97592857Y-100726190D01*
X97545238Y-100726190D01*
X97473809Y-100702380D01*
X97426190Y-100654761D01*
X97402380Y-100607142D01*
X97378571Y-100511904D01*
X97378571Y-100440476D01*
X97402380Y-100345238D01*
X97426190Y-100297619D01*
X97473809Y-100250000D01*
X97545238Y-100226190D01*
X97592857Y-100226190D01*
X97664285Y-100250000D01*
X97688095Y-100273809D01*
X98188095Y-100726190D02*
X98021428Y-100488095D01*
X97902380Y-100726190D02*
X97902380Y-100226190D01*
X98092857Y-100226190D01*
X98140476Y-100250000D01*
X98164285Y-100273809D01*
X98188095Y-100321428D01*
X98188095Y-100392857D01*
X98164285Y-100440476D01*
X98140476Y-100464285D01*
X98092857Y-100488095D01*
X97902380Y-100488095D01*
X98497619Y-100226190D02*
X98592857Y-100226190D01*
X98640476Y-100250000D01*
X98688095Y-100297619D01*
X98711904Y-100392857D01*
X98711904Y-100559523D01*
X98688095Y-100654761D01*
X98640476Y-100702380D01*
X98592857Y-100726190D01*
X98497619Y-100726190D01*
X98450000Y-100702380D01*
X98402380Y-100654761D01*
X98378571Y-100559523D01*
X98378571Y-100392857D01*
X98402380Y-100297619D01*
X98450000Y-100250000D01*
X98497619Y-100226190D01*
D15*
X100666666Y-102380952D02*
X100666666Y-102666666D01*
X100647619Y-102723809D01*
X100609523Y-102761904D01*
X100552380Y-102780952D01*
X100514285Y-102780952D01*
X101028571Y-102380952D02*
X100952380Y-102380952D01*
X100914285Y-102400000D01*
X100895238Y-102419047D01*
X100857142Y-102476190D01*
X100838095Y-102552380D01*
X100838095Y-102704761D01*
X100857142Y-102742857D01*
X100876190Y-102761904D01*
X100914285Y-102780952D01*
X100990476Y-102780952D01*
X101028571Y-102761904D01*
X101047619Y-102742857D01*
X101066666Y-102704761D01*
X101066666Y-102609523D01*
X101047619Y-102571428D01*
X101028571Y-102552380D01*
X100990476Y-102533333D01*
X100914285Y-102533333D01*
X100876190Y-102552380D01*
X100857142Y-102571428D01*
X100838095Y-102609523D01*
D12*
X102688095Y-104226190D02*
X102450000Y-104226190D01*
X102450000Y-103726190D01*
X102854761Y-104226190D02*
X102854761Y-103726190D01*
X103092857Y-104226190D02*
X103092857Y-103726190D01*
X103283333Y-103726190D01*
X103330952Y-103750000D01*
X103354761Y-103773809D01*
X103378571Y-103821428D01*
X103378571Y-103892857D01*
X103354761Y-103940476D01*
X103330952Y-103964285D01*
X103283333Y-103988095D01*
X103092857Y-103988095D01*
X103688095Y-103726190D02*
X103783333Y-103726190D01*
X103830952Y-103750000D01*
X103878571Y-103797619D01*
X103902380Y-103892857D01*
X103902380Y-104059523D01*
X103878571Y-104154761D01*
X103830952Y-104202380D01*
X103783333Y-104226190D01*
X103688095Y-104226190D01*
X103640476Y-104202380D01*
X103592857Y-104154761D01*
X103569047Y-104059523D01*
X103569047Y-103892857D01*
X103592857Y-103797619D01*
X103640476Y-103750000D01*
X103688095Y-103726190D01*
X103997619Y-104273809D02*
X104378571Y-104273809D01*
X104664285Y-103964285D02*
X104735714Y-103988095D01*
X104759523Y-104011904D01*
X104783333Y-104059523D01*
X104783333Y-104130952D01*
X104759523Y-104178571D01*
X104735714Y-104202380D01*
X104688095Y-104226190D01*
X104497619Y-104226190D01*
X104497619Y-103726190D01*
X104664285Y-103726190D01*
X104711904Y-103750000D01*
X104735714Y-103773809D01*
X104759523Y-103821428D01*
X104759523Y-103869047D01*
X104735714Y-103916666D01*
X104711904Y-103940476D01*
X104664285Y-103964285D01*
X104497619Y-103964285D01*
X104973809Y-104083333D02*
X105211904Y-104083333D01*
X104926190Y-104226190D02*
X105092857Y-103726190D01*
X105259523Y-104226190D01*
X105354761Y-103726190D02*
X105640476Y-103726190D01*
X105497619Y-104226190D02*
X105497619Y-103726190D01*
X105735714Y-103726190D02*
X106021428Y-103726190D01*
X105878571Y-104226190D02*
X105878571Y-103726190D01*
D15*
X120831380Y-101355952D02*
X120640904Y-101355952D01*
X120640904Y-100955952D01*
X120964714Y-101146428D02*
X121098047Y-101146428D01*
X121155190Y-101355952D02*
X120964714Y-101355952D01*
X120964714Y-100955952D01*
X121155190Y-100955952D01*
X121326619Y-101355952D02*
X121326619Y-100955952D01*
X121421857Y-100955952D01*
X121479000Y-100975000D01*
X121517095Y-101013095D01*
X121536142Y-101051190D01*
X121555190Y-101127380D01*
X121555190Y-101184523D01*
X121536142Y-101260714D01*
X121517095Y-101298809D01*
X121479000Y-101336904D01*
X121421857Y-101355952D01*
X121326619Y-101355952D01*
X121707571Y-100994047D02*
X121726619Y-100975000D01*
X121764714Y-100955952D01*
X121859952Y-100955952D01*
X121898047Y-100975000D01*
X121917095Y-100994047D01*
X121936142Y-101032142D01*
X121936142Y-101070238D01*
X121917095Y-101127380D01*
X121688523Y-101355952D01*
X121936142Y-101355952D01*
X122833333Y-101241666D02*
X123023809Y-101241666D01*
X122795238Y-101355952D02*
X122928571Y-100955952D01*
X123061904Y-101355952D01*
X123195238Y-101355952D02*
X123195238Y-100955952D01*
X123347619Y-100955952D01*
X123385714Y-100975000D01*
X123404761Y-100994047D01*
X123423809Y-101032142D01*
X123423809Y-101089285D01*
X123404761Y-101127380D01*
X123385714Y-101146428D01*
X123347619Y-101165476D01*
X123195238Y-101165476D01*
X123576190Y-101241666D02*
X123766666Y-101241666D01*
X123538095Y-101355952D02*
X123671428Y-100955952D01*
X123804761Y-101355952D01*
X124147619Y-101355952D02*
X123919047Y-101355952D01*
X124033333Y-101355952D02*
X124033333Y-100955952D01*
X123995238Y-101013095D01*
X123957142Y-101051190D01*
X123919047Y-101070238D01*
X124395238Y-100955952D02*
X124433333Y-100955952D01*
X124471428Y-100975000D01*
X124490476Y-100994047D01*
X124509523Y-101032142D01*
X124528571Y-101108333D01*
X124528571Y-101203571D01*
X124509523Y-101279761D01*
X124490476Y-101317857D01*
X124471428Y-101336904D01*
X124433333Y-101355952D01*
X124395238Y-101355952D01*
X124357142Y-101336904D01*
X124338095Y-101317857D01*
X124319047Y-101279761D01*
X124300000Y-101203571D01*
X124300000Y-101108333D01*
X124319047Y-101032142D01*
X124338095Y-100994047D01*
X124357142Y-100975000D01*
X124395238Y-100955952D01*
X124680952Y-100994047D02*
X124700000Y-100975000D01*
X124738095Y-100955952D01*
X124833333Y-100955952D01*
X124871428Y-100975000D01*
X124890476Y-100994047D01*
X124909523Y-101032142D01*
X124909523Y-101070238D01*
X124890476Y-101127380D01*
X124661904Y-101355952D01*
X124909523Y-101355952D01*
X124985714Y-101394047D02*
X125290476Y-101394047D01*
X125385714Y-101355952D02*
X125385714Y-100955952D01*
X125480952Y-100955952D01*
X125538095Y-100975000D01*
X125576190Y-101013095D01*
X125595238Y-101051190D01*
X125614285Y-101127380D01*
X125614285Y-101184523D01*
X125595238Y-101260714D01*
X125576190Y-101298809D01*
X125538095Y-101336904D01*
X125480952Y-101355952D01*
X125385714Y-101355952D01*
X125861904Y-100955952D02*
X125938095Y-100955952D01*
X125976190Y-100975000D01*
X126014285Y-101013095D01*
X126033333Y-101089285D01*
X126033333Y-101222619D01*
X126014285Y-101298809D01*
X125976190Y-101336904D01*
X125938095Y-101355952D01*
X125861904Y-101355952D01*
X125823809Y-101336904D01*
X125785714Y-101298809D01*
X125766666Y-101222619D01*
X125766666Y-101089285D01*
X125785714Y-101013095D01*
X125823809Y-100975000D01*
X125861904Y-100955952D01*
X126147619Y-100955952D02*
X126376190Y-100955952D01*
X126261904Y-101355952D02*
X126261904Y-100955952D01*
X126490476Y-101336904D02*
X126547619Y-101355952D01*
X126642857Y-101355952D01*
X126680952Y-101336904D01*
X126700000Y-101317857D01*
X126719047Y-101279761D01*
X126719047Y-101241666D01*
X126700000Y-101203571D01*
X126680952Y-101184523D01*
X126642857Y-101165476D01*
X126566666Y-101146428D01*
X126528571Y-101127380D01*
X126509523Y-101108333D01*
X126490476Y-101070238D01*
X126490476Y-101032142D01*
X126509523Y-100994047D01*
X126528571Y-100975000D01*
X126566666Y-100955952D01*
X126661904Y-100955952D01*
X126719047Y-100975000D01*
X126833333Y-100955952D02*
X127061904Y-100955952D01*
X126947619Y-101355952D02*
X126947619Y-100955952D01*
X127176190Y-101241666D02*
X127366666Y-101241666D01*
X127138095Y-101355952D02*
X127271428Y-100955952D01*
X127404761Y-101355952D01*
X127766666Y-101355952D02*
X127633333Y-101165476D01*
X127538095Y-101355952D02*
X127538095Y-100955952D01*
X127690476Y-100955952D01*
X127728571Y-100975000D01*
X127747619Y-100994047D01*
X127766666Y-101032142D01*
X127766666Y-101089285D01*
X127747619Y-101127380D01*
X127728571Y-101146428D01*
X127690476Y-101165476D01*
X127538095Y-101165476D01*
X100233333Y-115585952D02*
X100100000Y-115395476D01*
X100004761Y-115585952D02*
X100004761Y-115185952D01*
X100157142Y-115185952D01*
X100195238Y-115205000D01*
X100214285Y-115224047D01*
X100233333Y-115262142D01*
X100233333Y-115319285D01*
X100214285Y-115357380D01*
X100195238Y-115376428D01*
X100157142Y-115395476D01*
X100004761Y-115395476D01*
X100461904Y-115357380D02*
X100423809Y-115338333D01*
X100404761Y-115319285D01*
X100385714Y-115281190D01*
X100385714Y-115262142D01*
X100404761Y-115224047D01*
X100423809Y-115205000D01*
X100461904Y-115185952D01*
X100538095Y-115185952D01*
X100576190Y-115205000D01*
X100595238Y-115224047D01*
X100614285Y-115262142D01*
X100614285Y-115281190D01*
X100595238Y-115319285D01*
X100576190Y-115338333D01*
X100538095Y-115357380D01*
X100461904Y-115357380D01*
X100423809Y-115376428D01*
X100404761Y-115395476D01*
X100385714Y-115433571D01*
X100385714Y-115509761D01*
X100404761Y-115547857D01*
X100423809Y-115566904D01*
X100461904Y-115585952D01*
X100538095Y-115585952D01*
X100576190Y-115566904D01*
X100595238Y-115547857D01*
X100614285Y-115509761D01*
X100614285Y-115433571D01*
X100595238Y-115395476D01*
X100576190Y-115376428D01*
X100538095Y-115357380D01*
X101185714Y-115219047D02*
X101204761Y-115200000D01*
X101242857Y-115180952D01*
X101338095Y-115180952D01*
X101376190Y-115200000D01*
X101395238Y-115219047D01*
X101414285Y-115257142D01*
X101414285Y-115295238D01*
X101395238Y-115352380D01*
X101166666Y-115580952D01*
X101414285Y-115580952D01*
X101585714Y-115580952D02*
X101585714Y-115180952D01*
X101814285Y-115580952D02*
X101642857Y-115352380D01*
X101814285Y-115180952D02*
X101585714Y-115409523D01*
X115233333Y-115980952D02*
X115100000Y-115790476D01*
X115004761Y-115980952D02*
X115004761Y-115580952D01*
X115157142Y-115580952D01*
X115195238Y-115600000D01*
X115214285Y-115619047D01*
X115233333Y-115657142D01*
X115233333Y-115714285D01*
X115214285Y-115752380D01*
X115195238Y-115771428D01*
X115157142Y-115790476D01*
X115004761Y-115790476D01*
X115423809Y-115980952D02*
X115500000Y-115980952D01*
X115538095Y-115961904D01*
X115557142Y-115942857D01*
X115595238Y-115885714D01*
X115614285Y-115809523D01*
X115614285Y-115657142D01*
X115595238Y-115619047D01*
X115576190Y-115600000D01*
X115538095Y-115580952D01*
X115461904Y-115580952D01*
X115423809Y-115600000D01*
X115404761Y-115619047D01*
X115385714Y-115657142D01*
X115385714Y-115752380D01*
X115404761Y-115790476D01*
X115423809Y-115809523D01*
X115461904Y-115828571D01*
X115538095Y-115828571D01*
X115576190Y-115809523D01*
X115595238Y-115790476D01*
X115614285Y-115752380D01*
X117380952Y-115066666D02*
X117380952Y-115295238D01*
X117380952Y-115180952D02*
X116980952Y-115180952D01*
X117038095Y-115219047D01*
X117076190Y-115257142D01*
X117095238Y-115295238D01*
X116980952Y-114819047D02*
X116980952Y-114780952D01*
X117000000Y-114742857D01*
X117019047Y-114723809D01*
X117057142Y-114704761D01*
X117133333Y-114685714D01*
X117228571Y-114685714D01*
X117304761Y-114704761D01*
X117342857Y-114723809D01*
X117361904Y-114742857D01*
X117380952Y-114780952D01*
X117380952Y-114819047D01*
X117361904Y-114857142D01*
X117342857Y-114876190D01*
X117304761Y-114895238D01*
X117228571Y-114914285D01*
X117133333Y-114914285D01*
X117057142Y-114895238D01*
X117019047Y-114876190D01*
X117000000Y-114857142D01*
X116980952Y-114819047D01*
X116980952Y-114438095D02*
X116980952Y-114400000D01*
X117000000Y-114361904D01*
X117019047Y-114342857D01*
X117057142Y-114323809D01*
X117133333Y-114304761D01*
X117228571Y-114304761D01*
X117304761Y-114323809D01*
X117342857Y-114342857D01*
X117361904Y-114361904D01*
X117380952Y-114400000D01*
X117380952Y-114438095D01*
X117361904Y-114476190D01*
X117342857Y-114495238D01*
X117304761Y-114514285D01*
X117228571Y-114533333D01*
X117133333Y-114533333D01*
X117057142Y-114514285D01*
X117019047Y-114495238D01*
X117000000Y-114476190D01*
X116980952Y-114438095D01*
X117380952Y-114133333D02*
X116980952Y-114133333D01*
X117380952Y-113904761D02*
X117152380Y-114076190D01*
X116980952Y-113904761D02*
X117209523Y-114133333D01*
X100995238Y-107380952D02*
X100995238Y-107704761D01*
X101014285Y-107742857D01*
X101033333Y-107761904D01*
X101071428Y-107780952D01*
X101147619Y-107780952D01*
X101185714Y-107761904D01*
X101204761Y-107742857D01*
X101223809Y-107704761D01*
X101223809Y-107380952D01*
X101585714Y-107514285D02*
X101585714Y-107780952D01*
X101490476Y-107361904D02*
X101395238Y-107647619D01*
X101642857Y-107647619D01*
X100680952Y-111533333D02*
X100280952Y-111533333D01*
X100566666Y-111400000D01*
X100280952Y-111266666D01*
X100680952Y-111266666D01*
X100642857Y-110847619D02*
X100661904Y-110866666D01*
X100680952Y-110923809D01*
X100680952Y-110961904D01*
X100661904Y-111019047D01*
X100623809Y-111057142D01*
X100585714Y-111076190D01*
X100509523Y-111095238D01*
X100452380Y-111095238D01*
X100376190Y-111076190D01*
X100338095Y-111057142D01*
X100300000Y-111019047D01*
X100280952Y-110961904D01*
X100280952Y-110923809D01*
X100300000Y-110866666D01*
X100319047Y-110847619D01*
X100680952Y-110676190D02*
X100280952Y-110676190D01*
X100280952Y-110523809D01*
X100300000Y-110485714D01*
X100319047Y-110466666D01*
X100357142Y-110447619D01*
X100414285Y-110447619D01*
X100452380Y-110466666D01*
X100471428Y-110485714D01*
X100490476Y-110523809D01*
X100490476Y-110676190D01*
X100280952Y-110314285D02*
X100280952Y-110047619D01*
X100680952Y-110219047D01*
X100280952Y-109933333D02*
X100280952Y-109685714D01*
X100433333Y-109819047D01*
X100433333Y-109761904D01*
X100452380Y-109723809D01*
X100471428Y-109704761D01*
X100509523Y-109685714D01*
X100604761Y-109685714D01*
X100642857Y-109704761D01*
X100661904Y-109723809D01*
X100680952Y-109761904D01*
X100680952Y-109876190D01*
X100661904Y-109914285D01*
X100642857Y-109933333D01*
X100452380Y-109457142D02*
X100433333Y-109495238D01*
X100414285Y-109514285D01*
X100376190Y-109533333D01*
X100357142Y-109533333D01*
X100319047Y-109514285D01*
X100300000Y-109495238D01*
X100280952Y-109457142D01*
X100280952Y-109380952D01*
X100300000Y-109342857D01*
X100319047Y-109323809D01*
X100357142Y-109304761D01*
X100376190Y-109304761D01*
X100414285Y-109323809D01*
X100433333Y-109342857D01*
X100452380Y-109380952D01*
X100452380Y-109457142D01*
X100471428Y-109495238D01*
X100490476Y-109514285D01*
X100528571Y-109533333D01*
X100604761Y-109533333D01*
X100642857Y-109514285D01*
X100661904Y-109495238D01*
X100680952Y-109457142D01*
X100680952Y-109380952D01*
X100661904Y-109342857D01*
X100642857Y-109323809D01*
X100604761Y-109304761D01*
X100528571Y-109304761D01*
X100490476Y-109323809D01*
X100471428Y-109342857D01*
X100452380Y-109380952D01*
X100280952Y-109171428D02*
X100280952Y-108923809D01*
X100433333Y-109057142D01*
X100433333Y-109000000D01*
X100452380Y-108961904D01*
X100471428Y-108942857D01*
X100509523Y-108923809D01*
X100604761Y-108923809D01*
X100642857Y-108942857D01*
X100661904Y-108961904D01*
X100680952Y-109000000D01*
X100680952Y-109114285D01*
X100661904Y-109152380D01*
X100642857Y-109171428D01*
X100680952Y-108542857D02*
X100680952Y-108771428D01*
X100680952Y-108657142D02*
X100280952Y-108657142D01*
X100338095Y-108695238D01*
X100376190Y-108733333D01*
X100395238Y-108771428D01*
X100528571Y-108371428D02*
X100528571Y-108066666D01*
X100319047Y-107895238D02*
X100300000Y-107876190D01*
X100280952Y-107838095D01*
X100280952Y-107742857D01*
X100300000Y-107704761D01*
X100319047Y-107685714D01*
X100357142Y-107666666D01*
X100395238Y-107666666D01*
X100452380Y-107685714D01*
X100680952Y-107914285D01*
X100680952Y-107666666D01*
X100528571Y-107495238D02*
X100528571Y-107190476D01*
X100280952Y-106923809D02*
X100280952Y-106847619D01*
X100300000Y-106809523D01*
X100338095Y-106771428D01*
X100414285Y-106752380D01*
X100547619Y-106752380D01*
X100623809Y-106771428D01*
X100661904Y-106809523D01*
X100680952Y-106847619D01*
X100680952Y-106923809D01*
X100661904Y-106961904D01*
X100623809Y-107000000D01*
X100547619Y-107019047D01*
X100414285Y-107019047D01*
X100338095Y-107000000D01*
X100300000Y-106961904D01*
X100280952Y-106923809D01*
X100280952Y-106638095D02*
X100280952Y-106409523D01*
X100680952Y-106523809D02*
X100280952Y-106523809D01*
X111041571Y-94880952D02*
X111041571Y-95204761D01*
X111060618Y-95242857D01*
X111079666Y-95261904D01*
X111117761Y-95280952D01*
X111193952Y-95280952D01*
X111232047Y-95261904D01*
X111251094Y-95242857D01*
X111270142Y-95204761D01*
X111270142Y-94880952D01*
X111651094Y-94880952D02*
X111460618Y-94880952D01*
X111441571Y-95071428D01*
X111460618Y-95052380D01*
X111498713Y-95033333D01*
X111593952Y-95033333D01*
X111632047Y-95052380D01*
X111651094Y-95071428D01*
X111670142Y-95109523D01*
X111670142Y-95204761D01*
X111651094Y-95242857D01*
X111632047Y-95261904D01*
X111593952Y-95280952D01*
X111498713Y-95280952D01*
X111460618Y-95261904D01*
X111441571Y-95242857D01*
X112119047Y-95166666D02*
X112309523Y-95166666D01*
X112080952Y-95280952D02*
X112214285Y-94880952D01*
X112347619Y-95280952D01*
X112480952Y-95280952D02*
X112480952Y-94880952D01*
X112633333Y-94880952D01*
X112671428Y-94900000D01*
X112690476Y-94919047D01*
X112709523Y-94957142D01*
X112709523Y-95014285D01*
X112690476Y-95052380D01*
X112671428Y-95071428D01*
X112633333Y-95090476D01*
X112480952Y-95090476D01*
X112861904Y-94919047D02*
X112880952Y-94900000D01*
X112919047Y-94880952D01*
X113014285Y-94880952D01*
X113052380Y-94900000D01*
X113071428Y-94919047D01*
X113090476Y-94957142D01*
X113090476Y-94995238D01*
X113071428Y-95052380D01*
X112842857Y-95280952D01*
X113090476Y-95280952D01*
X113471428Y-95280952D02*
X113242857Y-95280952D01*
X113357142Y-95280952D02*
X113357142Y-94880952D01*
X113319047Y-94938095D01*
X113280952Y-94976190D01*
X113242857Y-94995238D01*
X113852380Y-95280952D02*
X113623809Y-95280952D01*
X113738095Y-95280952D02*
X113738095Y-94880952D01*
X113700000Y-94938095D01*
X113661904Y-94976190D01*
X113623809Y-94995238D01*
X114004761Y-94919047D02*
X114023809Y-94900000D01*
X114061904Y-94880952D01*
X114157142Y-94880952D01*
X114195238Y-94900000D01*
X114214285Y-94919047D01*
X114233333Y-94957142D01*
X114233333Y-94995238D01*
X114214285Y-95052380D01*
X113985714Y-95280952D01*
X114233333Y-95280952D01*
X114404761Y-95128571D02*
X114709523Y-95128571D01*
X114861904Y-94880952D02*
X115109523Y-94880952D01*
X114976190Y-95033333D01*
X115033333Y-95033333D01*
X115071428Y-95052380D01*
X115090476Y-95071428D01*
X115109523Y-95109523D01*
X115109523Y-95204761D01*
X115090476Y-95242857D01*
X115071428Y-95261904D01*
X115033333Y-95280952D01*
X114919047Y-95280952D01*
X114880952Y-95261904D01*
X114861904Y-95242857D01*
X115280952Y-95242857D02*
X115300000Y-95261904D01*
X115280952Y-95280952D01*
X115261904Y-95261904D01*
X115280952Y-95242857D01*
X115280952Y-95280952D01*
X115433333Y-94880952D02*
X115680952Y-94880952D01*
X115547619Y-95033333D01*
X115604761Y-95033333D01*
X115642857Y-95052380D01*
X115661904Y-95071428D01*
X115680952Y-95109523D01*
X115680952Y-95204761D01*
X115661904Y-95242857D01*
X115642857Y-95261904D01*
X115604761Y-95280952D01*
X115490476Y-95280952D01*
X115452380Y-95261904D01*
X115433333Y-95242857D01*
X107704761Y-107780952D02*
X107704761Y-107380952D01*
X107800000Y-107380952D01*
X107857142Y-107400000D01*
X107895238Y-107438095D01*
X107914285Y-107476190D01*
X107933333Y-107552380D01*
X107933333Y-107609523D01*
X107914285Y-107685714D01*
X107895238Y-107723809D01*
X107857142Y-107761904D01*
X107800000Y-107780952D01*
X107704761Y-107780952D01*
X108085714Y-107419047D02*
X108104761Y-107400000D01*
X108142857Y-107380952D01*
X108238095Y-107380952D01*
X108276190Y-107400000D01*
X108295238Y-107419047D01*
X108314285Y-107457142D01*
X108314285Y-107495238D01*
X108295238Y-107552380D01*
X108066666Y-107780952D01*
X108314285Y-107780952D01*
X108880952Y-109604761D02*
X108480952Y-109604761D01*
X108766666Y-109471428D01*
X108480952Y-109338095D01*
X108880952Y-109338095D01*
X108671428Y-109014285D02*
X108690476Y-108957142D01*
X108709523Y-108938095D01*
X108747619Y-108919047D01*
X108804761Y-108919047D01*
X108842857Y-108938095D01*
X108861904Y-108957142D01*
X108880952Y-108995238D01*
X108880952Y-109147619D01*
X108480952Y-109147619D01*
X108480952Y-109014285D01*
X108500000Y-108976190D01*
X108519047Y-108957142D01*
X108557142Y-108938095D01*
X108595238Y-108938095D01*
X108633333Y-108957142D01*
X108652380Y-108976190D01*
X108671428Y-109014285D01*
X108671428Y-109147619D01*
X108880952Y-108519047D02*
X108690476Y-108652380D01*
X108880952Y-108747619D02*
X108480952Y-108747619D01*
X108480952Y-108595238D01*
X108500000Y-108557142D01*
X108519047Y-108538095D01*
X108557142Y-108519047D01*
X108614285Y-108519047D01*
X108652380Y-108538095D01*
X108671428Y-108557142D01*
X108690476Y-108595238D01*
X108690476Y-108747619D01*
X108880952Y-108138095D02*
X108880952Y-108366666D01*
X108880952Y-108252380D02*
X108480952Y-108252380D01*
X108538095Y-108290476D01*
X108576190Y-108328571D01*
X108595238Y-108366666D01*
X108519047Y-107985714D02*
X108500000Y-107966666D01*
X108480952Y-107928571D01*
X108480952Y-107833333D01*
X108500000Y-107795238D01*
X108519047Y-107776190D01*
X108557142Y-107757142D01*
X108595238Y-107757142D01*
X108652380Y-107776190D01*
X108880952Y-108004761D01*
X108880952Y-107757142D01*
X108480952Y-107509523D02*
X108480952Y-107471428D01*
X108500000Y-107433333D01*
X108519047Y-107414285D01*
X108557142Y-107395238D01*
X108633333Y-107376190D01*
X108728571Y-107376190D01*
X108804761Y-107395238D01*
X108842857Y-107414285D01*
X108861904Y-107433333D01*
X108880952Y-107471428D01*
X108880952Y-107509523D01*
X108861904Y-107547619D01*
X108842857Y-107566666D01*
X108804761Y-107585714D01*
X108728571Y-107604761D01*
X108633333Y-107604761D01*
X108557142Y-107585714D01*
X108519047Y-107566666D01*
X108500000Y-107547619D01*
X108480952Y-107509523D01*
X134452380Y-113580952D02*
X134261904Y-113580952D01*
X134261904Y-113180952D01*
X134585714Y-113371428D02*
X134719047Y-113371428D01*
X134776190Y-113580952D02*
X134585714Y-113580952D01*
X134585714Y-113180952D01*
X134776190Y-113180952D01*
X134947619Y-113580952D02*
X134947619Y-113180952D01*
X135042857Y-113180952D01*
X135100000Y-113200000D01*
X135138095Y-113238095D01*
X135157142Y-113276190D01*
X135176190Y-113352380D01*
X135176190Y-113409523D01*
X135157142Y-113485714D01*
X135138095Y-113523809D01*
X135100000Y-113561904D01*
X135042857Y-113580952D01*
X134947619Y-113580952D01*
X135557142Y-113580952D02*
X135328571Y-113580952D01*
X135442857Y-113580952D02*
X135442857Y-113180952D01*
X135404761Y-113238095D01*
X135366666Y-113276190D01*
X135328571Y-113295238D01*
X107752380Y-112380952D02*
X107561904Y-112380952D01*
X107561904Y-111980952D01*
X107885714Y-112171428D02*
X108019047Y-112171428D01*
X108076190Y-112380952D02*
X107885714Y-112380952D01*
X107885714Y-111980952D01*
X108076190Y-111980952D01*
X108247619Y-112380952D02*
X108247619Y-111980952D01*
X108342857Y-111980952D01*
X108400000Y-112000000D01*
X108438095Y-112038095D01*
X108457142Y-112076190D01*
X108476190Y-112152380D01*
X108476190Y-112209523D01*
X108457142Y-112285714D01*
X108438095Y-112323809D01*
X108400000Y-112361904D01*
X108342857Y-112380952D01*
X108247619Y-112380952D01*
X108609523Y-111980952D02*
X108857142Y-111980952D01*
X108723809Y-112133333D01*
X108780952Y-112133333D01*
X108819047Y-112152380D01*
X108838095Y-112171428D01*
X108857142Y-112209523D01*
X108857142Y-112304761D01*
X108838095Y-112342857D01*
X108819047Y-112361904D01*
X108780952Y-112380952D01*
X108666666Y-112380952D01*
X108628571Y-112361904D01*
X108609523Y-112342857D01*
X116104761Y-110480952D02*
X116104761Y-110080952D01*
X116200000Y-110080952D01*
X116257142Y-110100000D01*
X116295238Y-110138095D01*
X116314285Y-110176190D01*
X116333333Y-110252380D01*
X116333333Y-110309523D01*
X116314285Y-110385714D01*
X116295238Y-110423809D01*
X116257142Y-110461904D01*
X116200000Y-110480952D01*
X116104761Y-110480952D01*
X116466666Y-110080952D02*
X116714285Y-110080952D01*
X116580952Y-110233333D01*
X116638095Y-110233333D01*
X116676190Y-110252380D01*
X116695238Y-110271428D01*
X116714285Y-110309523D01*
X116714285Y-110404761D01*
X116695238Y-110442857D01*
X116676190Y-110461904D01*
X116638095Y-110480952D01*
X116523809Y-110480952D01*
X116485714Y-110461904D01*
X116466666Y-110442857D01*
X116461904Y-113414285D02*
X116480952Y-113357142D01*
X116480952Y-113261904D01*
X116461904Y-113223809D01*
X116442857Y-113204761D01*
X116404761Y-113185714D01*
X116366666Y-113185714D01*
X116328571Y-113204761D01*
X116309523Y-113223809D01*
X116290476Y-113261904D01*
X116271428Y-113338095D01*
X116252380Y-113376190D01*
X116233333Y-113395238D01*
X116195238Y-113414285D01*
X116157142Y-113414285D01*
X116119047Y-113395238D01*
X116100000Y-113376190D01*
X116080952Y-113338095D01*
X116080952Y-113242857D01*
X116100000Y-113185714D01*
X116480952Y-113014285D02*
X116080952Y-113014285D01*
X116366666Y-112880952D01*
X116080952Y-112747619D01*
X116480952Y-112747619D01*
X116366666Y-112576190D02*
X116366666Y-112385714D01*
X116480952Y-112614285D02*
X116080952Y-112480952D01*
X116480952Y-112347619D01*
X116080952Y-112100000D02*
X116366666Y-112100000D01*
X116423809Y-112119047D01*
X116461904Y-112157142D01*
X116480952Y-112214285D01*
X116480952Y-112252380D01*
X116080952Y-111738095D02*
X116080952Y-111814285D01*
X116100000Y-111852380D01*
X116119047Y-111871428D01*
X116176190Y-111909523D01*
X116252380Y-111928571D01*
X116404761Y-111928571D01*
X116442857Y-111909523D01*
X116461904Y-111890476D01*
X116480952Y-111852380D01*
X116480952Y-111776190D01*
X116461904Y-111738095D01*
X116442857Y-111719047D01*
X116404761Y-111700000D01*
X116309523Y-111700000D01*
X116271428Y-111719047D01*
X116252380Y-111738095D01*
X116233333Y-111776190D01*
X116233333Y-111852380D01*
X116252380Y-111890476D01*
X116271428Y-111909523D01*
X116309523Y-111928571D01*
X116442857Y-111528571D02*
X116461904Y-111509523D01*
X116480952Y-111528571D01*
X116461904Y-111547619D01*
X116442857Y-111528571D01*
X116480952Y-111528571D01*
X116080952Y-111261904D02*
X116080952Y-111223809D01*
X116100000Y-111185714D01*
X116119047Y-111166666D01*
X116157142Y-111147619D01*
X116233333Y-111128571D01*
X116328571Y-111128571D01*
X116404761Y-111147619D01*
X116442857Y-111166666D01*
X116461904Y-111185714D01*
X116480952Y-111223809D01*
X116480952Y-111261904D01*
X116461904Y-111300000D01*
X116442857Y-111319047D01*
X116404761Y-111338095D01*
X116328571Y-111357142D01*
X116233333Y-111357142D01*
X116157142Y-111338095D01*
X116119047Y-111319047D01*
X116100000Y-111300000D01*
X116080952Y-111261904D01*
X116366666Y-110976190D02*
X116366666Y-110785714D01*
X116480952Y-111014285D02*
X116080952Y-110880952D01*
X116480952Y-110747619D01*
X113266666Y-104171428D02*
X113133333Y-104171428D01*
X113133333Y-104380952D02*
X113133333Y-103980952D01*
X113323809Y-103980952D01*
X113685714Y-104380952D02*
X113457142Y-104380952D01*
X113571428Y-104380952D02*
X113571428Y-103980952D01*
X113533333Y-104038095D01*
X113495238Y-104076190D01*
X113457142Y-104095238D01*
X113195238Y-103380952D02*
X113233333Y-103380952D01*
X113271428Y-103400000D01*
X113290476Y-103419047D01*
X113309523Y-103457142D01*
X113328571Y-103533333D01*
X113328571Y-103628571D01*
X113309523Y-103704761D01*
X113290476Y-103742857D01*
X113271428Y-103761904D01*
X113233333Y-103780952D01*
X113195238Y-103780952D01*
X113157142Y-103761904D01*
X113138095Y-103742857D01*
X113119047Y-103704761D01*
X113100000Y-103628571D01*
X113100000Y-103533333D01*
X113119047Y-103457142D01*
X113138095Y-103419047D01*
X113157142Y-103400000D01*
X113195238Y-103380952D01*
X113461904Y-103380952D02*
X113728571Y-103380952D01*
X113461904Y-103780952D01*
X113728571Y-103780952D01*
X114109523Y-103742857D02*
X114090476Y-103761904D01*
X114033333Y-103780952D01*
X113995238Y-103780952D01*
X113938095Y-103761904D01*
X113900000Y-103723809D01*
X113880952Y-103685714D01*
X113861904Y-103609523D01*
X113861904Y-103552380D01*
X113880952Y-103476190D01*
X113900000Y-103438095D01*
X113938095Y-103400000D01*
X113995238Y-103380952D01*
X114033333Y-103380952D01*
X114090476Y-103400000D01*
X114109523Y-103419047D01*
X114490476Y-103400000D02*
X114452380Y-103380952D01*
X114395238Y-103380952D01*
X114338095Y-103400000D01*
X114300000Y-103438095D01*
X114280952Y-103476190D01*
X114261904Y-103552380D01*
X114261904Y-103609523D01*
X114280952Y-103685714D01*
X114300000Y-103723809D01*
X114338095Y-103761904D01*
X114395238Y-103780952D01*
X114433333Y-103780952D01*
X114490476Y-103761904D01*
X114509523Y-103742857D01*
X114509523Y-103609523D01*
X114433333Y-103609523D01*
X114757142Y-103380952D02*
X114795238Y-103380952D01*
X114833333Y-103400000D01*
X114852380Y-103419047D01*
X114871428Y-103457142D01*
X114890476Y-103533333D01*
X114890476Y-103628571D01*
X114871428Y-103704761D01*
X114852380Y-103742857D01*
X114833333Y-103761904D01*
X114795238Y-103780952D01*
X114757142Y-103780952D01*
X114719047Y-103761904D01*
X114700000Y-103742857D01*
X114680952Y-103704761D01*
X114661904Y-103628571D01*
X114661904Y-103533333D01*
X114680952Y-103457142D01*
X114700000Y-103419047D01*
X114719047Y-103400000D01*
X114757142Y-103380952D01*
X115138095Y-103380952D02*
X115176190Y-103380952D01*
X115214285Y-103400000D01*
X115233333Y-103419047D01*
X115252380Y-103457142D01*
X115271428Y-103533333D01*
X115271428Y-103628571D01*
X115252380Y-103704761D01*
X115233333Y-103742857D01*
X115214285Y-103761904D01*
X115176190Y-103780952D01*
X115138095Y-103780952D01*
X115100000Y-103761904D01*
X115080952Y-103742857D01*
X115061904Y-103704761D01*
X115042857Y-103628571D01*
X115042857Y-103533333D01*
X115061904Y-103457142D01*
X115080952Y-103419047D01*
X115100000Y-103400000D01*
X115138095Y-103380952D01*
X115633333Y-103380952D02*
X115442857Y-103380952D01*
X115423809Y-103571428D01*
X115442857Y-103552380D01*
X115480952Y-103533333D01*
X115576190Y-103533333D01*
X115614285Y-103552380D01*
X115633333Y-103571428D01*
X115652380Y-103609523D01*
X115652380Y-103704761D01*
X115633333Y-103742857D01*
X115614285Y-103761904D01*
X115576190Y-103780952D01*
X115480952Y-103780952D01*
X115442857Y-103761904D01*
X115423809Y-103742857D01*
X115900000Y-103380952D02*
X115938095Y-103380952D01*
X115976190Y-103400000D01*
X115995238Y-103419047D01*
X116014285Y-103457142D01*
X116033333Y-103533333D01*
X116033333Y-103628571D01*
X116014285Y-103704761D01*
X115995238Y-103742857D01*
X115976190Y-103761904D01*
X115938095Y-103780952D01*
X115900000Y-103780952D01*
X115861904Y-103761904D01*
X115842857Y-103742857D01*
X115823809Y-103704761D01*
X115804761Y-103628571D01*
X115804761Y-103533333D01*
X115823809Y-103457142D01*
X115842857Y-103419047D01*
X115861904Y-103400000D01*
X115900000Y-103380952D01*
X116185714Y-103666666D02*
X116376190Y-103666666D01*
X116147619Y-103780952D02*
X116280952Y-103380952D01*
X116414285Y-103780952D01*
X116680952Y-103571428D02*
X116547619Y-103571428D01*
X116547619Y-103780952D02*
X116547619Y-103380952D01*
X116738095Y-103380952D01*
X116871428Y-103419047D02*
X116890476Y-103400000D01*
X116928571Y-103380952D01*
X117023809Y-103380952D01*
X117061904Y-103400000D01*
X117080952Y-103419047D01*
X117100000Y-103457142D01*
X117100000Y-103495238D01*
X117080952Y-103552380D01*
X116852380Y-103780952D01*
X117100000Y-103780952D01*
X117500000Y-103742857D02*
X117480952Y-103761904D01*
X117423809Y-103780952D01*
X117385714Y-103780952D01*
X117328571Y-103761904D01*
X117290476Y-103723809D01*
X117271428Y-103685714D01*
X117252380Y-103609523D01*
X117252380Y-103552380D01*
X117271428Y-103476190D01*
X117290476Y-103438095D01*
X117328571Y-103400000D01*
X117385714Y-103380952D01*
X117423809Y-103380952D01*
X117480952Y-103400000D01*
X117500000Y-103419047D01*
X109461904Y-106619047D02*
X109423809Y-106600000D01*
X109385714Y-106561904D01*
X109328571Y-106504761D01*
X109290476Y-106485714D01*
X109252380Y-106485714D01*
X109271428Y-106580952D02*
X109233333Y-106561904D01*
X109195238Y-106523809D01*
X109176190Y-106447619D01*
X109176190Y-106314285D01*
X109195238Y-106238095D01*
X109233333Y-106200000D01*
X109271428Y-106180952D01*
X109347619Y-106180952D01*
X109385714Y-106200000D01*
X109423809Y-106238095D01*
X109442857Y-106314285D01*
X109442857Y-106447619D01*
X109423809Y-106523809D01*
X109385714Y-106561904D01*
X109347619Y-106580952D01*
X109271428Y-106580952D01*
X109823809Y-106580952D02*
X109595238Y-106580952D01*
X109709523Y-106580952D02*
X109709523Y-106180952D01*
X109671428Y-106238095D01*
X109633333Y-106276190D01*
X109595238Y-106295238D01*
X109461904Y-100219047D02*
X109423809Y-100200000D01*
X109385714Y-100161904D01*
X109328571Y-100104761D01*
X109290476Y-100085714D01*
X109252380Y-100085714D01*
X109271428Y-100180952D02*
X109233333Y-100161904D01*
X109195238Y-100123809D01*
X109176190Y-100047619D01*
X109176190Y-99914285D01*
X109195238Y-99838095D01*
X109233333Y-99800000D01*
X109271428Y-99780952D01*
X109347619Y-99780952D01*
X109385714Y-99800000D01*
X109423809Y-99838095D01*
X109442857Y-99914285D01*
X109442857Y-100047619D01*
X109423809Y-100123809D01*
X109385714Y-100161904D01*
X109347619Y-100180952D01*
X109271428Y-100180952D01*
X109595238Y-99819047D02*
X109614285Y-99800000D01*
X109652380Y-99780952D01*
X109747619Y-99780952D01*
X109785714Y-99800000D01*
X109804761Y-99819047D01*
X109823809Y-99857142D01*
X109823809Y-99895238D01*
X109804761Y-99952380D01*
X109576190Y-100180952D01*
X109823809Y-100180952D01*
X108880952Y-105523809D02*
X108480952Y-105523809D01*
X108480952Y-105428571D01*
X108500000Y-105371428D01*
X108538095Y-105333333D01*
X108576190Y-105314285D01*
X108652380Y-105295238D01*
X108709523Y-105295238D01*
X108785714Y-105314285D01*
X108823809Y-105333333D01*
X108861904Y-105371428D01*
X108880952Y-105428571D01*
X108880952Y-105523809D01*
X108880952Y-105123809D02*
X108480952Y-105123809D01*
X108766666Y-104990476D01*
X108480952Y-104857142D01*
X108880952Y-104857142D01*
X108500000Y-104457142D02*
X108480952Y-104495238D01*
X108480952Y-104552380D01*
X108500000Y-104609523D01*
X108538095Y-104647619D01*
X108576190Y-104666666D01*
X108652380Y-104685714D01*
X108709523Y-104685714D01*
X108785714Y-104666666D01*
X108823809Y-104647619D01*
X108861904Y-104609523D01*
X108880952Y-104552380D01*
X108880952Y-104514285D01*
X108861904Y-104457142D01*
X108842857Y-104438095D01*
X108709523Y-104438095D01*
X108709523Y-104514285D01*
X108519047Y-104285714D02*
X108500000Y-104266666D01*
X108480952Y-104228571D01*
X108480952Y-104133333D01*
X108500000Y-104095238D01*
X108519047Y-104076190D01*
X108557142Y-104057142D01*
X108595238Y-104057142D01*
X108652380Y-104076190D01*
X108880952Y-104304761D01*
X108880952Y-104057142D01*
X108480952Y-103923809D02*
X108480952Y-103676190D01*
X108633333Y-103809523D01*
X108633333Y-103752380D01*
X108652380Y-103714285D01*
X108671428Y-103695238D01*
X108709523Y-103676190D01*
X108804761Y-103676190D01*
X108842857Y-103695238D01*
X108861904Y-103714285D01*
X108880952Y-103752380D01*
X108880952Y-103866666D01*
X108861904Y-103904761D01*
X108842857Y-103923809D01*
X108480952Y-103428571D02*
X108480952Y-103390476D01*
X108500000Y-103352380D01*
X108519047Y-103333333D01*
X108557142Y-103314285D01*
X108633333Y-103295238D01*
X108728571Y-103295238D01*
X108804761Y-103314285D01*
X108842857Y-103333333D01*
X108861904Y-103352380D01*
X108880952Y-103390476D01*
X108880952Y-103428571D01*
X108861904Y-103466666D01*
X108842857Y-103485714D01*
X108804761Y-103504761D01*
X108728571Y-103523809D01*
X108633333Y-103523809D01*
X108557142Y-103504761D01*
X108519047Y-103485714D01*
X108500000Y-103466666D01*
X108480952Y-103428571D01*
X108480952Y-102933333D02*
X108480952Y-103123809D01*
X108671428Y-103142857D01*
X108652380Y-103123809D01*
X108633333Y-103085714D01*
X108633333Y-102990476D01*
X108652380Y-102952380D01*
X108671428Y-102933333D01*
X108709523Y-102914285D01*
X108804761Y-102914285D01*
X108842857Y-102933333D01*
X108861904Y-102952380D01*
X108880952Y-102990476D01*
X108880952Y-103085714D01*
X108861904Y-103123809D01*
X108842857Y-103142857D01*
X108480952Y-102742857D02*
X108804761Y-102742857D01*
X108842857Y-102723809D01*
X108861904Y-102704761D01*
X108880952Y-102666666D01*
X108880952Y-102590476D01*
X108861904Y-102552380D01*
X108842857Y-102533333D01*
X108804761Y-102514285D01*
X108480952Y-102514285D01*
X108480952Y-102361904D02*
X108880952Y-102095238D01*
X108480952Y-102095238D02*
X108880952Y-102361904D01*
X108728571Y-101942857D02*
X108728571Y-101638095D01*
X108880952Y-101238095D02*
X108880952Y-101466666D01*
X108880952Y-101352380D02*
X108480952Y-101352380D01*
X108538095Y-101390476D01*
X108576190Y-101428571D01*
X108595238Y-101466666D01*
X108480952Y-101104761D02*
X108480952Y-100857142D01*
X108633333Y-100990476D01*
X108633333Y-100933333D01*
X108652380Y-100895238D01*
X108671428Y-100876190D01*
X108709523Y-100857142D01*
X108804761Y-100857142D01*
X108842857Y-100876190D01*
X108861904Y-100895238D01*
X108880952Y-100933333D01*
X108880952Y-101047619D01*
X108861904Y-101085714D01*
X108842857Y-101104761D01*
X127233333Y-113680952D02*
X127100000Y-113490476D01*
X127004761Y-113680952D02*
X127004761Y-113280952D01*
X127157142Y-113280952D01*
X127195238Y-113300000D01*
X127214285Y-113319047D01*
X127233333Y-113357142D01*
X127233333Y-113414285D01*
X127214285Y-113452380D01*
X127195238Y-113471428D01*
X127157142Y-113490476D01*
X127004761Y-113490476D01*
X127595238Y-113280952D02*
X127404761Y-113280952D01*
X127385714Y-113471428D01*
X127404761Y-113452380D01*
X127442857Y-113433333D01*
X127538095Y-113433333D01*
X127576190Y-113452380D01*
X127595238Y-113471428D01*
X127614285Y-113509523D01*
X127614285Y-113604761D01*
X127595238Y-113642857D01*
X127576190Y-113661904D01*
X127538095Y-113680952D01*
X127442857Y-113680952D01*
X127404761Y-113661904D01*
X127385714Y-113642857D01*
X128290476Y-113414285D02*
X128290476Y-113680952D01*
X128195238Y-113261904D02*
X128100000Y-113547619D01*
X128347619Y-113547619D01*
X128500000Y-113642857D02*
X128519047Y-113661904D01*
X128500000Y-113680952D01*
X128480952Y-113661904D01*
X128500000Y-113642857D01*
X128500000Y-113680952D01*
X128652380Y-113280952D02*
X128919047Y-113280952D01*
X128747619Y-113680952D01*
X129071428Y-113680952D02*
X129071428Y-113280952D01*
X129300000Y-113680952D02*
X129128571Y-113452380D01*
X129300000Y-113280952D02*
X129071428Y-113509523D01*
X111442857Y-115980952D02*
X111309523Y-115790476D01*
X111214285Y-115980952D02*
X111214285Y-115580952D01*
X111366666Y-115580952D01*
X111404761Y-115600000D01*
X111423809Y-115619047D01*
X111442857Y-115657142D01*
X111442857Y-115714285D01*
X111423809Y-115752380D01*
X111404761Y-115771428D01*
X111366666Y-115790476D01*
X111214285Y-115790476D01*
X111823809Y-115980952D02*
X111595238Y-115980952D01*
X111709523Y-115980952D02*
X111709523Y-115580952D01*
X111671428Y-115638095D01*
X111633333Y-115676190D01*
X111595238Y-115695238D01*
X112071428Y-115580952D02*
X112109523Y-115580952D01*
X112147619Y-115600000D01*
X112166666Y-115619047D01*
X112185714Y-115657142D01*
X112204761Y-115733333D01*
X112204761Y-115828571D01*
X112185714Y-115904761D01*
X112166666Y-115942857D01*
X112147619Y-115961904D01*
X112109523Y-115980952D01*
X112071428Y-115980952D01*
X112033333Y-115961904D01*
X112014285Y-115942857D01*
X111995238Y-115904761D01*
X111976190Y-115828571D01*
X111976190Y-115733333D01*
X111995238Y-115657142D01*
X112014285Y-115619047D01*
X112033333Y-115600000D01*
X112071428Y-115580952D01*
X113680952Y-115066666D02*
X113680952Y-115295238D01*
X113680952Y-115180952D02*
X113280952Y-115180952D01*
X113338095Y-115219047D01*
X113376190Y-115257142D01*
X113395238Y-115295238D01*
X113280952Y-114819047D02*
X113280952Y-114780952D01*
X113300000Y-114742857D01*
X113319047Y-114723809D01*
X113357142Y-114704761D01*
X113433333Y-114685714D01*
X113528571Y-114685714D01*
X113604761Y-114704761D01*
X113642857Y-114723809D01*
X113661904Y-114742857D01*
X113680952Y-114780952D01*
X113680952Y-114819047D01*
X113661904Y-114857142D01*
X113642857Y-114876190D01*
X113604761Y-114895238D01*
X113528571Y-114914285D01*
X113433333Y-114914285D01*
X113357142Y-114895238D01*
X113319047Y-114876190D01*
X113300000Y-114857142D01*
X113280952Y-114819047D01*
X113280952Y-114438095D02*
X113280952Y-114400000D01*
X113300000Y-114361904D01*
X113319047Y-114342857D01*
X113357142Y-114323809D01*
X113433333Y-114304761D01*
X113528571Y-114304761D01*
X113604761Y-114323809D01*
X113642857Y-114342857D01*
X113661904Y-114361904D01*
X113680952Y-114400000D01*
X113680952Y-114438095D01*
X113661904Y-114476190D01*
X113642857Y-114495238D01*
X113604761Y-114514285D01*
X113528571Y-114533333D01*
X113433333Y-114533333D01*
X113357142Y-114514285D01*
X113319047Y-114495238D01*
X113300000Y-114476190D01*
X113280952Y-114438095D01*
X113680952Y-114133333D02*
X113280952Y-114133333D01*
X113680952Y-113904761D02*
X113452380Y-114076190D01*
X113280952Y-113904761D02*
X113509523Y-114133333D01*
X122304761Y-113080952D02*
X122304761Y-112680952D01*
X122400000Y-112680952D01*
X122457142Y-112700000D01*
X122495238Y-112738095D01*
X122514285Y-112776190D01*
X122533333Y-112852380D01*
X122533333Y-112909523D01*
X122514285Y-112985714D01*
X122495238Y-113023809D01*
X122457142Y-113061904D01*
X122400000Y-113080952D01*
X122304761Y-113080952D01*
X122914285Y-113080952D02*
X122685714Y-113080952D01*
X122800000Y-113080952D02*
X122800000Y-112680952D01*
X122761904Y-112738095D01*
X122723809Y-112776190D01*
X122685714Y-112795238D01*
X122361904Y-113580952D02*
X122361904Y-113180952D01*
X122495238Y-113466666D01*
X122628571Y-113180952D01*
X122628571Y-113580952D01*
X122819047Y-113580952D02*
X122819047Y-113180952D01*
X122952380Y-113466666D01*
X123085714Y-113180952D01*
X123085714Y-113580952D01*
X123238095Y-113180952D02*
X123485714Y-113180952D01*
X123352380Y-113333333D01*
X123409523Y-113333333D01*
X123447619Y-113352380D01*
X123466666Y-113371428D01*
X123485714Y-113409523D01*
X123485714Y-113504761D01*
X123466666Y-113542857D01*
X123447619Y-113561904D01*
X123409523Y-113580952D01*
X123295238Y-113580952D01*
X123257142Y-113561904D01*
X123238095Y-113542857D01*
X123619047Y-113180952D02*
X123885714Y-113180952D01*
X123619047Y-113580952D01*
X123885714Y-113580952D01*
X124000000Y-113180952D02*
X124247619Y-113180952D01*
X124114285Y-113333333D01*
X124171428Y-113333333D01*
X124209523Y-113352380D01*
X124228571Y-113371428D01*
X124247619Y-113409523D01*
X124247619Y-113504761D01*
X124228571Y-113542857D01*
X124209523Y-113561904D01*
X124171428Y-113580952D01*
X124057142Y-113580952D01*
X124019047Y-113561904D01*
X124000000Y-113542857D01*
X124361904Y-113180952D02*
X124495238Y-113580952D01*
X124628571Y-113180952D01*
X124933333Y-113180952D02*
X124857142Y-113180952D01*
X124819047Y-113200000D01*
X124800000Y-113219047D01*
X124761904Y-113276190D01*
X124742857Y-113352380D01*
X124742857Y-113504761D01*
X124761904Y-113542857D01*
X124780952Y-113561904D01*
X124819047Y-113580952D01*
X124895238Y-113580952D01*
X124933333Y-113561904D01*
X124952380Y-113542857D01*
X124971428Y-113504761D01*
X124971428Y-113409523D01*
X124952380Y-113371428D01*
X124933333Y-113352380D01*
X124895238Y-113333333D01*
X124819047Y-113333333D01*
X124780952Y-113352380D01*
X124761904Y-113371428D01*
X124742857Y-113409523D01*
X125085714Y-113180952D02*
X125314285Y-113180952D01*
X125200000Y-113580952D02*
X125200000Y-113180952D01*
X125657142Y-113580952D02*
X125428571Y-113580952D01*
X125542857Y-113580952D02*
X125542857Y-113180952D01*
X125504761Y-113238095D01*
X125466666Y-113276190D01*
X125428571Y-113295238D01*
X126038095Y-113200000D02*
X126000000Y-113180952D01*
X125942857Y-113180952D01*
X125885714Y-113200000D01*
X125847619Y-113238095D01*
X125828571Y-113276190D01*
X125809523Y-113352380D01*
X125809523Y-113409523D01*
X125828571Y-113485714D01*
X125847619Y-113523809D01*
X125885714Y-113561904D01*
X125942857Y-113580952D01*
X125980952Y-113580952D01*
X126038095Y-113561904D01*
X126057142Y-113542857D01*
X126057142Y-113409523D01*
X125980952Y-113409523D01*
X135980199Y-109798131D02*
X135980199Y-110121940D01*
X135999246Y-110160036D01*
X136018294Y-110179083D01*
X136056389Y-110198131D01*
X136132580Y-110198131D01*
X136170675Y-110179083D01*
X136189722Y-110160036D01*
X136208770Y-110121940D01*
X136208770Y-109798131D01*
X136361151Y-109798131D02*
X136608770Y-109798131D01*
X136475437Y-109950512D01*
X136532580Y-109950512D01*
X136570675Y-109969559D01*
X136589722Y-109988607D01*
X136608770Y-110026702D01*
X136608770Y-110121940D01*
X136589722Y-110160036D01*
X136570675Y-110179083D01*
X136532580Y-110198131D01*
X136418294Y-110198131D01*
X136380199Y-110179083D01*
X136361151Y-110160036D01*
X137318294Y-110198131D02*
X137318294Y-109798131D01*
X137413532Y-109798131D01*
X137470675Y-109817179D01*
X137508770Y-109855274D01*
X137527818Y-109893369D01*
X137546865Y-109969559D01*
X137546865Y-110026702D01*
X137527818Y-110102893D01*
X137508770Y-110140988D01*
X137470675Y-110179083D01*
X137413532Y-110198131D01*
X137318294Y-110198131D01*
X137946865Y-110198131D02*
X137813532Y-110007655D01*
X137718294Y-110198131D02*
X137718294Y-109798131D01*
X137870675Y-109798131D01*
X137908770Y-109817179D01*
X137927818Y-109836226D01*
X137946865Y-109874321D01*
X137946865Y-109931464D01*
X137927818Y-109969559D01*
X137908770Y-109988607D01*
X137870675Y-110007655D01*
X137718294Y-110007655D01*
X138061151Y-109798131D02*
X138194484Y-110198131D01*
X138327818Y-109798131D01*
X138518294Y-109969559D02*
X138480199Y-109950512D01*
X138461151Y-109931464D01*
X138442103Y-109893369D01*
X138442103Y-109874321D01*
X138461151Y-109836226D01*
X138480199Y-109817179D01*
X138518294Y-109798131D01*
X138594484Y-109798131D01*
X138632580Y-109817179D01*
X138651627Y-109836226D01*
X138670675Y-109874321D01*
X138670675Y-109893369D01*
X138651627Y-109931464D01*
X138632580Y-109950512D01*
X138594484Y-109969559D01*
X138518294Y-109969559D01*
X138480199Y-109988607D01*
X138461151Y-110007655D01*
X138442103Y-110045750D01*
X138442103Y-110121940D01*
X138461151Y-110160036D01*
X138480199Y-110179083D01*
X138518294Y-110198131D01*
X138594484Y-110198131D01*
X138632580Y-110179083D01*
X138651627Y-110160036D01*
X138670675Y-110121940D01*
X138670675Y-110045750D01*
X138651627Y-110007655D01*
X138632580Y-109988607D01*
X138594484Y-109969559D01*
X138899246Y-109969559D02*
X138861151Y-109950512D01*
X138842103Y-109931464D01*
X138823056Y-109893369D01*
X138823056Y-109874321D01*
X138842103Y-109836226D01*
X138861151Y-109817179D01*
X138899246Y-109798131D01*
X138975437Y-109798131D01*
X139013532Y-109817179D01*
X139032580Y-109836226D01*
X139051627Y-109874321D01*
X139051627Y-109893369D01*
X139032580Y-109931464D01*
X139013532Y-109950512D01*
X138975437Y-109969559D01*
X138899246Y-109969559D01*
X138861151Y-109988607D01*
X138842103Y-110007655D01*
X138823056Y-110045750D01*
X138823056Y-110121940D01*
X138842103Y-110160036D01*
X138861151Y-110179083D01*
X138899246Y-110198131D01*
X138975437Y-110198131D01*
X139013532Y-110179083D01*
X139032580Y-110160036D01*
X139051627Y-110121940D01*
X139051627Y-110045750D01*
X139032580Y-110007655D01*
X139013532Y-109988607D01*
X138975437Y-109969559D01*
X139184961Y-109798131D02*
X139432580Y-109798131D01*
X139299246Y-109950512D01*
X139356389Y-109950512D01*
X139394484Y-109969559D01*
X139413532Y-109988607D01*
X139432580Y-110026702D01*
X139432580Y-110121940D01*
X139413532Y-110160036D01*
X139394484Y-110179083D01*
X139356389Y-110198131D01*
X139242103Y-110198131D01*
X139204008Y-110179083D01*
X139184961Y-110160036D01*
X139565913Y-109798131D02*
X139813532Y-109798131D01*
X139680199Y-109950512D01*
X139737341Y-109950512D01*
X139775437Y-109969559D01*
X139794484Y-109988607D01*
X139813532Y-110026702D01*
X139813532Y-110121940D01*
X139794484Y-110160036D01*
X139775437Y-110179083D01*
X139737341Y-110198131D01*
X139623056Y-110198131D01*
X139584961Y-110179083D01*
X139565913Y-110160036D01*
X139984961Y-110198131D02*
X139984961Y-109798131D01*
X140137341Y-109798131D01*
X140175437Y-109817179D01*
X140194484Y-109836226D01*
X140213532Y-109874321D01*
X140213532Y-109931464D01*
X140194484Y-109969559D01*
X140175437Y-109988607D01*
X140137341Y-110007655D01*
X139984961Y-110007655D01*
X140346865Y-109798131D02*
X140442103Y-110198131D01*
X140518294Y-109912417D01*
X140594484Y-110198131D01*
X140689722Y-109798131D01*
X140842103Y-110198131D02*
X140842103Y-109798131D01*
X140994484Y-109798131D01*
X141032580Y-109817179D01*
X141051627Y-109836226D01*
X141070675Y-109874321D01*
X141070675Y-109931464D01*
X141051627Y-109969559D01*
X141032580Y-109988607D01*
X140994484Y-110007655D01*
X140842103Y-110007655D01*
X141470675Y-110198131D02*
X141337341Y-110007655D01*
X141242103Y-110198131D02*
X141242103Y-109798131D01*
X141394484Y-109798131D01*
X141432580Y-109817179D01*
X141451627Y-109836226D01*
X141470675Y-109874321D01*
X141470675Y-109931464D01*
X141451627Y-109969559D01*
X141432580Y-109988607D01*
X141394484Y-110007655D01*
X141242103Y-110007655D01*
M02*
