G04 #@! TF.GenerationSoftware,KiCad,Pcbnew,(5.0.0-rc2-dev-444-g2974a2c10)*
G04 #@! TF.CreationDate,2019-10-03T16:28:08-07:00*
G04 #@! TF.ProjectId,StringCar CPy PCB,537472696E6743617220435079205043,v03*
G04 #@! TF.SameCoordinates,Original*
G04 #@! TF.FileFunction,Soldermask,Top*
G04 #@! TF.FilePolarity,Negative*
%FSLAX46Y46*%
G04 Gerber Fmt 4.6, Leading zero omitted, Abs format (unit mm)*
G04 Created by KiCad (PCBNEW (5.0.0-rc2-dev-444-g2974a2c10)) date 10/03/19 16:28:08*
%MOMM*%
%LPD*%
G01*
G04 APERTURE LIST*
%ADD10R,2.101600X0.701600*%
%ADD11C,3.101600*%
%ADD12R,0.651600X1.701600*%
%ADD13R,1.701600X0.651600*%
%ADD14R,1.101600X1.351600*%
%ADD15R,1.351600X1.101600*%
%ADD16R,0.801600X1.401600*%
%ADD17R,1.401600X0.801600*%
%ADD18R,2.001600X1.601600*%
%ADD19C,1.551600*%
%ADD20R,1.451600X0.501600*%
%ADD21O,2.001600X1.301600*%
%ADD22R,2.001600X1.301600*%
%ADD23R,1.601600X3.501600*%
%ADD24R,1.101600X3.601600*%
%ADD25R,2.101600X1.201600*%
%ADD26R,1.161600X0.751600*%
%ADD27R,1.661600X0.751600*%
%ADD28R,1.201600X1.201600*%
%ADD29R,1.101600X1.101600*%
%ADD30R,2.601600X1.901600*%
%ADD31R,1.701600X3.601600*%
%ADD32R,1.440000X0.740000*%
%ADD33R,0.701600X0.551600*%
%ADD34C,2.601600*%
%ADD35C,1.001600*%
%ADD36R,1.740000X0.440000*%
%ADD37R,2.460200X5.000200*%
G04 APERTURE END LIST*
D10*
X131850000Y-99035000D03*
X136750000Y-96495000D03*
X136750000Y-97765000D03*
X136750000Y-99035000D03*
X136750000Y-100305000D03*
X131850000Y-100305000D03*
X131850000Y-97765000D03*
X131850000Y-96495000D03*
D11*
X96500000Y-114300000D03*
D12*
X121400000Y-111450000D03*
X122200000Y-111450000D03*
X123000000Y-111450000D03*
X123800000Y-111450000D03*
X124600000Y-111450000D03*
X125400000Y-111450000D03*
X126200000Y-111450000D03*
X127000000Y-111450000D03*
D13*
X128450000Y-110000000D03*
X128450000Y-109200000D03*
X128450000Y-108400000D03*
X128450000Y-107600000D03*
X128450000Y-106800000D03*
X128450000Y-106000000D03*
X128450000Y-105200000D03*
X128450000Y-104400000D03*
D12*
X127000000Y-102950000D03*
X126200000Y-102950000D03*
X125400000Y-102950000D03*
X124600000Y-102950000D03*
X123800000Y-102950000D03*
X123000000Y-102950000D03*
X122200000Y-102950000D03*
X121400000Y-102950000D03*
D13*
X119950000Y-104400000D03*
X119950000Y-105200000D03*
X119950000Y-106000000D03*
X119950000Y-106800000D03*
X119950000Y-107600000D03*
X119950000Y-108400000D03*
X119950000Y-109200000D03*
X119950000Y-110000000D03*
D14*
X116600000Y-108600000D03*
X114600000Y-108600000D03*
D15*
X132234961Y-103517179D03*
X132234961Y-105517179D03*
D16*
X131177141Y-114636064D03*
X133077141Y-114636064D03*
D17*
X129200000Y-96250000D03*
X129200000Y-98150000D03*
D15*
X132234961Y-109517179D03*
X132234961Y-107517179D03*
X117008814Y-96294058D03*
X117008814Y-98294058D03*
D17*
X104272016Y-114450000D03*
X104272016Y-112550000D03*
X109900000Y-98410000D03*
X109900000Y-96510000D03*
D16*
X118250000Y-114600000D03*
X120150000Y-114600000D03*
D15*
X119152148Y-96294058D03*
X119152148Y-98294058D03*
X106100000Y-108821323D03*
X106100000Y-110821323D03*
D18*
X95408000Y-106410000D03*
D19*
X98108000Y-102910000D03*
D20*
X98108000Y-104760000D03*
X98108000Y-104110000D03*
X98108000Y-106710000D03*
X98108000Y-106060000D03*
X98108000Y-105410000D03*
D19*
X98108000Y-107910000D03*
D18*
X95408000Y-104410000D03*
D21*
X95408000Y-101910000D03*
X95408000Y-108910000D03*
D22*
X95408000Y-108310000D03*
X95408000Y-102510000D03*
D23*
X100917000Y-95931000D03*
X107617000Y-95931000D03*
D24*
X103267000Y-101681000D03*
X105267000Y-101681000D03*
D25*
X126600000Y-96300000D03*
X126600000Y-98000000D03*
X126600000Y-99700000D03*
X121800000Y-99700000D03*
X121800000Y-98000000D03*
X121800000Y-96300000D03*
D17*
X100900000Y-114450000D03*
X100900000Y-112550000D03*
D16*
X116250000Y-114600000D03*
X114350000Y-114600000D03*
D26*
X101646033Y-110771323D03*
X101646033Y-108871323D03*
X103846033Y-108871323D03*
X103846033Y-109821323D03*
X103846033Y-110771323D03*
D27*
X114728333Y-96260000D03*
X114728333Y-98160000D03*
X112028333Y-98160000D03*
X112028333Y-97210000D03*
X112028333Y-96260000D03*
D28*
X112600000Y-108500000D03*
X109800000Y-108500000D03*
D29*
X134834941Y-114600000D03*
X137095541Y-114600000D03*
X106500000Y-114768400D03*
X106500000Y-112507800D03*
D30*
X114500000Y-111800000D03*
X110500000Y-111800000D03*
D31*
X114060000Y-101200000D03*
X118940000Y-101200000D03*
D32*
X111950000Y-105950000D03*
X111950000Y-104050000D03*
X109850000Y-105000000D03*
X109850000Y-101400000D03*
X111950000Y-100450000D03*
X111950000Y-102350000D03*
D16*
X126850000Y-114700000D03*
X128750000Y-114700000D03*
X110750000Y-114600000D03*
X112650000Y-114600000D03*
D33*
X122950000Y-114700000D03*
X125050000Y-114700000D03*
D34*
X142280000Y-96500000D03*
X142280000Y-114300000D03*
D11*
X96540000Y-96510000D03*
D35*
X109400000Y-114600000D03*
X102600000Y-114600000D03*
D36*
X141434961Y-109192179D03*
D37*
X138634961Y-106917179D03*
D36*
X135834961Y-109192179D03*
X141434961Y-108542179D03*
X141434961Y-107892179D03*
X141434961Y-107242179D03*
X141434961Y-106592179D03*
X141434961Y-105942179D03*
X141434961Y-105292179D03*
X141434961Y-104642179D03*
X135834961Y-104642179D03*
X135834961Y-105292179D03*
X135834961Y-105942179D03*
X135834961Y-106592179D03*
X135834961Y-107242179D03*
X135834961Y-107892179D03*
X135834961Y-108542179D03*
M02*
