G04 #@! TF.GenerationSoftware,KiCad,Pcbnew,(5.0.0-rc2-dev-444-g2974a2c10)*
G04 #@! TF.CreationDate,2019-10-03T16:28:08-07:00*
G04 #@! TF.ProjectId,StringCar CPy PCB,537472696E6743617220435079205043,v03*
G04 #@! TF.SameCoordinates,Original*
G04 #@! TF.FileFunction,Soldermask,Bot*
G04 #@! TF.FilePolarity,Negative*
%FSLAX46Y46*%
G04 Gerber Fmt 4.6, Leading zero omitted, Abs format (unit mm)*
G04 Created by KiCad (PCBNEW (5.0.0-rc2-dev-444-g2974a2c10)) date 10/03/19 16:28:08*
%MOMM*%
%LPD*%
G01*
G04 APERTURE LIST*
%ADD10C,3.101600*%
%ADD11R,3.301600X1.701600*%
%ADD12C,1.551600*%
%ADD13O,2.001600X1.301600*%
%ADD14R,1.101600X3.601600*%
%ADD15R,1.601600X3.501600*%
%ADD16R,1.401600X3.501600*%
%ADD17R,0.841600X2.501600*%
%ADD18C,2.601600*%
%ADD19R,1.351600X2.601600*%
%ADD20C,1.001600*%
%ADD21R,0.701600X1.651600*%
%ADD22R,1.301600X1.901600*%
%ADD23R,1.001600X1.371600*%
%ADD24R,1.551600X0.901600*%
G04 APERTURE END LIST*
D10*
X96500000Y-114300000D03*
D11*
X113000000Y-111700000D03*
X118000000Y-111700000D03*
D12*
X98108000Y-102910000D03*
X98108000Y-107910000D03*
D13*
X95408000Y-101910000D03*
X95408000Y-108910000D03*
D14*
X135100000Y-109025000D03*
X133100000Y-109025000D03*
D15*
X137450000Y-114775000D03*
X130750000Y-114775000D03*
D16*
X137950000Y-99500000D03*
X129250000Y-99500000D03*
D17*
X112460000Y-101550000D03*
X112460000Y-105450000D03*
X113730000Y-101550000D03*
X113730000Y-105450000D03*
X115000000Y-101550000D03*
X115000000Y-105450000D03*
X116270000Y-101550000D03*
X116270000Y-105450000D03*
X117540000Y-101550000D03*
X117540000Y-105450000D03*
D18*
X142280000Y-96500000D03*
X142280000Y-114300000D03*
D10*
X96540000Y-96510000D03*
D19*
X103500000Y-111850000D03*
X106000000Y-111850000D03*
X108500000Y-111850000D03*
D20*
X109400000Y-114600000D03*
X102600000Y-114600000D03*
D21*
X122800000Y-99137500D03*
X123800000Y-99137500D03*
X124800000Y-99137500D03*
X125800000Y-99137500D03*
D22*
X121500000Y-95262500D03*
X127100000Y-95262500D03*
D23*
X112900000Y-96800000D03*
X117100000Y-96800000D03*
D24*
X118350000Y-94900000D03*
X111650000Y-94900000D03*
D21*
X126500000Y-111662500D03*
X125500000Y-111662500D03*
D22*
X127800000Y-115537500D03*
X124200000Y-115537500D03*
M02*
