M48
; DRILL file {KiCad (5.1.6-0-10_14)} date Friday, July 31, 2020 at 03:36:22 PM
; FORMAT={-:-/ absolute / inch / decimal}
; #@! TF.CreationDate,2020-07-31T15:36:22-07:00
; #@! TF.GenerationSoftware,Kicad,Pcbnew,(5.1.6-0-10_14)
; #@! TF.FileFunction,Plated,1,2,PTH
FMAT,2
INCH
T1C0.0130
T2C0.0130
T3C0.0200
T4C0.0236
T5C0.0335
T6C0.0984
%
G90
G05
T1
X5.4285Y-4.1503
X5.4285Y-4.2093
X5.4285Y-4.2684
X5.4876Y-4.1503
X5.4876Y-4.2093
X5.4876Y-4.2684
T2
X3.8976Y-4.3937
X3.9567Y-4.126
X3.9567Y-4.1614
X4.1339Y-3.7795
X4.3189Y-3.7441
X4.5512Y-4.22
X4.5709Y-4.3307
X4.6181Y-4.3346
X4.6732Y-3.9646
X4.7441Y-4.0118
X4.7756Y-3.9961
X4.7795Y-4.315
X4.7953Y-4.1535
X4.8031Y-4.2126
X4.8071Y-3.9843
X4.8228Y-4.1181
X4.8465Y-3.9921
X4.8583Y-4.1181
X4.8701Y-3.7913
X4.8937Y-4.1575
X4.9291Y-4.1575
X4.9567Y-4.2244
X4.9606Y-4.4606
X4.9961Y-4.2008
X5.0429Y-3.8228
X5.0551Y-4.4134
X5.0591Y-4.063
X5.0827Y-4.3819
X5.0984Y-4.0354
X5.2559Y-4.0591
X5.2677Y-3.7992
X5.2717Y-4.1811
X5.2756Y-4.4567
X5.2992Y-3.9488
X5.2992Y-4.0709
X5.308Y-3.82
X5.3478Y-4.071
X5.4285Y-4.1503
X5.4285Y-4.2093
X5.4285Y-4.2684
X5.4876Y-4.1503
X5.4876Y-4.2093
X5.4876Y-4.2684
X5.5906Y-3.9409
X5.6378Y-4.3937
T3
X4.1299Y-4.18
X4.24Y-4.18
X4.29Y-4.04
X4.36Y-4.34
X4.6614Y-4.2244
X4.7835Y-4.5118
X4.7874Y-4.2677
X4.9134Y-3.8189
X4.9291Y-4.2677
X4.9685Y-4.1181
X5.4567Y-4.3661
X5.5197Y-3.9449
X5.6322Y-4.2733
X5.6336Y-4.1454
X5.6535Y-4.1965
T5
X3.8625Y-4.0516
X3.8625Y-4.2484
T6
X3.7992Y-4.5
X3.8008Y-3.7996
T4
G00X3.7424Y-4.0122
M15
G01X3.77Y-4.0122
M16
G05
G00X3.77Y-4.2878
M15
G01X3.7424Y-4.2878
M16
G05
T0
M30
