G04 #@! TF.GenerationSoftware,KiCad,Pcbnew,(5.0.0-rc2-dev-444-g2974a2c10)*
G04 #@! TF.CreationDate,2019-10-20T18:48:13-07:00*
G04 #@! TF.ProjectId,StringCar_M0_Express,537472696E674361725F4D305F457870,v04*
G04 #@! TF.SameCoordinates,Original*
G04 #@! TF.FileFunction,Soldermask,Top*
G04 #@! TF.FilePolarity,Negative*
%FSLAX46Y46*%
G04 Gerber Fmt 4.6, Leading zero omitted, Abs format (unit mm)*
G04 Created by KiCad (PCBNEW (5.0.0-rc2-dev-444-g2974a2c10)) date 10/20/19 18:48:13*
%MOMM*%
%LPD*%
G01*
G04 APERTURE LIST*
%ADD10C,0.010000*%
%ADD11C,0.100000*%
%ADD12R,1.301600X1.301600*%
%ADD13R,2.101600X0.701600*%
%ADD14C,3.101600*%
%ADD15R,0.651600X1.701600*%
%ADD16R,1.701600X0.651600*%
%ADD17R,1.101600X1.351600*%
%ADD18R,1.351600X1.101600*%
%ADD19R,0.801600X1.401600*%
%ADD20R,1.401600X0.801600*%
%ADD21R,2.001600X1.601600*%
%ADD22C,1.551600*%
%ADD23R,1.451600X0.501600*%
%ADD24O,2.001600X1.301600*%
%ADD25R,2.001600X1.301600*%
%ADD26R,1.601600X3.501600*%
%ADD27R,1.101600X3.601600*%
%ADD28R,2.101600X1.201600*%
%ADD29R,1.161600X0.751600*%
%ADD30R,1.661600X0.751600*%
%ADD31R,1.201600X1.201600*%
%ADD32R,2.601600X1.901600*%
%ADD33R,1.440000X0.740000*%
%ADD34R,0.701600X0.551600*%
%ADD35C,2.601600*%
%ADD36C,1.001600*%
%ADD37R,1.740000X0.440000*%
%ADD38R,2.460200X5.000200*%
G04 APERTURE END LIST*
D10*
G36*
X116178018Y-103941917D02*
X116285159Y-103976041D01*
X116379996Y-104029289D01*
X116403877Y-104048427D01*
X116462889Y-104123429D01*
X116504898Y-104222699D01*
X116523076Y-104329412D01*
X116523333Y-104342769D01*
X116518848Y-104439254D01*
X116504156Y-104541353D01*
X116477402Y-104656746D01*
X116436731Y-104793114D01*
X116380288Y-104958137D01*
X116363356Y-105005155D01*
X116324143Y-105114544D01*
X116290660Y-105210562D01*
X116265380Y-105285905D01*
X116250776Y-105333269D01*
X116248167Y-105345280D01*
X116265861Y-105358745D01*
X116317982Y-105350113D01*
X116403088Y-105319772D01*
X116499251Y-105277684D01*
X116580283Y-105245430D01*
X116658593Y-105222902D01*
X116712218Y-105215333D01*
X116783999Y-105229077D01*
X116843532Y-105264502D01*
X116878658Y-105312896D01*
X116883278Y-105337866D01*
X116902800Y-105369263D01*
X116962379Y-105398708D01*
X116983507Y-105405833D01*
X117069951Y-105449313D01*
X117135197Y-105513482D01*
X117171508Y-105588806D01*
X117175620Y-105642573D01*
X117183716Y-105696799D01*
X117223326Y-105755304D01*
X117238377Y-105771480D01*
X117308495Y-105868277D01*
X117336666Y-105970685D01*
X117326815Y-106065162D01*
X117284679Y-106163087D01*
X117213843Y-106245238D01*
X117111858Y-106312831D01*
X116976277Y-106367083D01*
X116804651Y-106409213D01*
X116594531Y-106440436D01*
X116565667Y-106443609D01*
X116458992Y-106456909D01*
X116350952Y-106473634D01*
X116260269Y-106490793D01*
X116237583Y-106495983D01*
X116090539Y-106521927D01*
X115957632Y-106520840D01*
X115819787Y-106491936D01*
X115771917Y-106476818D01*
X115676637Y-106447077D01*
X115576759Y-106419459D01*
X115504329Y-106402249D01*
X115423742Y-106377786D01*
X115329474Y-106337965D01*
X115246196Y-106293827D01*
X115172494Y-106252860D01*
X115106781Y-106222416D01*
X115062029Y-106208426D01*
X115058701Y-106208135D01*
X115009547Y-106201969D01*
X114940167Y-106188628D01*
X114904083Y-106180361D01*
X114798250Y-106154619D01*
X114822694Y-106146667D01*
X114967583Y-106146667D01*
X114976599Y-106161006D01*
X115019925Y-106167652D01*
X115031083Y-106167833D01*
X115079910Y-106162892D01*
X115095853Y-106149782D01*
X115094583Y-106146667D01*
X115065333Y-106130132D01*
X115031083Y-106125500D01*
X114986760Y-106133490D01*
X114967583Y-106146667D01*
X114822694Y-106146667D01*
X114919958Y-106115027D01*
X115041667Y-106075435D01*
X115041667Y-105972076D01*
X115042040Y-105966719D01*
X115083035Y-105966719D01*
X115107929Y-106072818D01*
X115109479Y-106076497D01*
X115134958Y-106136083D01*
X115142666Y-106066007D01*
X115154361Y-106014940D01*
X115170315Y-106000654D01*
X115185241Y-106018688D01*
X115193851Y-106064578D01*
X115193442Y-106108856D01*
X115192275Y-106171477D01*
X115205176Y-106210052D01*
X115239199Y-106242284D01*
X115249626Y-106249860D01*
X115302917Y-106284406D01*
X115330015Y-106288650D01*
X115337025Y-106259657D01*
X115332218Y-106210167D01*
X115328868Y-106151984D01*
X115341878Y-106127653D01*
X115374744Y-106130692D01*
X115375042Y-106130792D01*
X115383358Y-106153023D01*
X115385135Y-106202375D01*
X115383914Y-106223735D01*
X115385408Y-106289437D01*
X115400885Y-106325943D01*
X115403233Y-106327654D01*
X115438907Y-106342441D01*
X115490038Y-106356816D01*
X115538661Y-106366511D01*
X115566811Y-106367260D01*
X115567742Y-106366731D01*
X115567764Y-106365389D01*
X115599055Y-106365389D01*
X115601961Y-106377972D01*
X115613167Y-106379500D01*
X115630589Y-106371755D01*
X115627278Y-106365389D01*
X115602158Y-106362855D01*
X115599055Y-106365389D01*
X115567764Y-106365389D01*
X115568108Y-106344719D01*
X115562711Y-106290770D01*
X115552624Y-106214726D01*
X115547123Y-106177754D01*
X115519013Y-105994520D01*
X115433798Y-105951895D01*
X115361655Y-105908582D01*
X115294433Y-105855972D01*
X115241692Y-105802891D01*
X115212990Y-105758163D01*
X115210379Y-105745639D01*
X115198830Y-105736026D01*
X115165229Y-105762544D01*
X115146879Y-105781875D01*
X115096341Y-105867193D01*
X115083035Y-105966719D01*
X115042040Y-105966719D01*
X115047519Y-105888129D01*
X115069563Y-105819648D01*
X115114533Y-105750234D01*
X115150604Y-105706722D01*
X115166528Y-105685710D01*
X115232167Y-105685710D01*
X115242013Y-105717461D01*
X115253333Y-105723333D01*
X115269245Y-105705219D01*
X115274500Y-105670417D01*
X115283856Y-105627909D01*
X115306180Y-105618881D01*
X115328556Y-105640511D01*
X115328541Y-105673451D01*
X115319222Y-105687077D01*
X115294109Y-105738346D01*
X115302804Y-105797524D01*
X115342165Y-105851865D01*
X115363902Y-105868213D01*
X115408933Y-105894510D01*
X115435644Y-105905924D01*
X115437954Y-105905601D01*
X115443428Y-105882788D01*
X115449011Y-105834924D01*
X115449505Y-105829061D01*
X115460387Y-105778558D01*
X115479183Y-105750544D01*
X115481116Y-105749711D01*
X115496077Y-105755965D01*
X115498568Y-105793055D01*
X115493702Y-105838043D01*
X115488298Y-105903856D01*
X115493430Y-105932151D01*
X115505983Y-105925484D01*
X115522844Y-105886409D01*
X115540900Y-105817482D01*
X115545266Y-105795724D01*
X115571686Y-105656448D01*
X115511253Y-105599932D01*
X115483887Y-105571124D01*
X115592324Y-105571124D01*
X115595749Y-105594812D01*
X115610382Y-105579426D01*
X115613167Y-105575167D01*
X115631136Y-105538972D01*
X115634009Y-105526292D01*
X115621052Y-105518609D01*
X115613167Y-105522250D01*
X115594749Y-105552457D01*
X115592324Y-105571124D01*
X115483887Y-105571124D01*
X115469485Y-105555964D01*
X115443354Y-105519408D01*
X115441102Y-105514160D01*
X115418988Y-105496905D01*
X115380383Y-105506689D01*
X115333886Y-105536456D01*
X115288094Y-105579144D01*
X115251603Y-105627697D01*
X115233011Y-105675054D01*
X115232167Y-105685710D01*
X115166528Y-105685710D01*
X115187971Y-105657418D01*
X115209179Y-105617248D01*
X115211000Y-105608062D01*
X115227224Y-105575262D01*
X115267446Y-105532590D01*
X115318989Y-105491318D01*
X115369175Y-105462718D01*
X115378115Y-105459454D01*
X115389942Y-105449869D01*
X115464833Y-105449869D01*
X115492486Y-105519979D01*
X115498198Y-105528478D01*
X115532486Y-105559659D01*
X115559091Y-105557082D01*
X115566887Y-105523988D01*
X115564081Y-105509299D01*
X115565955Y-105467636D01*
X115591750Y-105453716D01*
X115621967Y-105467854D01*
X115645263Y-105475440D01*
X115666365Y-105449743D01*
X115676806Y-105426664D01*
X115692828Y-105373610D01*
X115681061Y-105345615D01*
X115635993Y-105336065D01*
X115601315Y-105336079D01*
X115522227Y-105352359D01*
X115475740Y-105392142D01*
X115464833Y-105449869D01*
X115389942Y-105449869D01*
X115413701Y-105430614D01*
X115431899Y-105393096D01*
X115463928Y-105343949D01*
X115524325Y-105306758D01*
X115599533Y-105287627D01*
X115661907Y-105289543D01*
X115729583Y-105301754D01*
X115849644Y-105041251D01*
X115895392Y-104940146D01*
X115935338Y-104848430D01*
X115965634Y-104775186D01*
X115982430Y-104729495D01*
X115983736Y-104724845D01*
X115988123Y-104658947D01*
X115960578Y-104611499D01*
X115897553Y-104578740D01*
X115830545Y-104562557D01*
X115760735Y-104551310D01*
X115718435Y-104551114D01*
X115689723Y-104564335D01*
X115662701Y-104591090D01*
X115630239Y-104638884D01*
X115594350Y-104709153D01*
X115571349Y-104764501D01*
X115541572Y-104838882D01*
X115512123Y-104903341D01*
X115494867Y-104934875D01*
X115464863Y-104969914D01*
X115440535Y-104981920D01*
X115431674Y-104968243D01*
X115436179Y-104950750D01*
X115435544Y-104923550D01*
X115425569Y-104919000D01*
X115421912Y-104903888D01*
X115439639Y-104865877D01*
X115451779Y-104846789D01*
X115489209Y-104778651D01*
X115521413Y-104698928D01*
X115527560Y-104678940D01*
X115553212Y-104610024D01*
X115585393Y-104551989D01*
X115596463Y-104538085D01*
X115624096Y-104504922D01*
X115631170Y-104488975D01*
X115609133Y-104477718D01*
X115565346Y-104455487D01*
X115560250Y-104452904D01*
X115507389Y-104411599D01*
X115463354Y-104353886D01*
X115460147Y-104347813D01*
X115438723Y-104277766D01*
X115443107Y-104263514D01*
X115480712Y-104263514D01*
X115491862Y-104281615D01*
X115536224Y-104291810D01*
X115571547Y-104292756D01*
X115631604Y-104297280D01*
X115654911Y-104315151D01*
X115655500Y-104320174D01*
X115644715Y-104338325D01*
X115606619Y-104339498D01*
X115578697Y-104335010D01*
X115526193Y-104331951D01*
X115509190Y-104346284D01*
X115526906Y-104373591D01*
X115578562Y-104409453D01*
X115593260Y-104417453D01*
X115666390Y-104439860D01*
X115761585Y-104448009D01*
X115860958Y-104441639D01*
X115941250Y-104422529D01*
X115968221Y-104414427D01*
X115958798Y-104424993D01*
X115951833Y-104430175D01*
X115911664Y-104450840D01*
X115851646Y-104473176D01*
X115835417Y-104478176D01*
X115750750Y-104503007D01*
X115856583Y-104519486D01*
X115947863Y-104545646D01*
X116005396Y-104591787D01*
X116029830Y-104660021D01*
X116021816Y-104752458D01*
X115982004Y-104871211D01*
X115972010Y-104894418D01*
X115930591Y-104988051D01*
X116003061Y-104976291D01*
X116061661Y-104974480D01*
X116086307Y-104992612D01*
X116090353Y-105022436D01*
X116067992Y-105034989D01*
X116012778Y-105032947D01*
X115994565Y-105030669D01*
X115943112Y-105026580D01*
X115911777Y-105038174D01*
X115885526Y-105074478D01*
X115868900Y-105106102D01*
X115842480Y-105160747D01*
X115826749Y-105198800D01*
X115824833Y-105206694D01*
X115843385Y-105213059D01*
X115889796Y-105211803D01*
X115909496Y-105209552D01*
X115966895Y-105207171D01*
X116003283Y-105215705D01*
X116007458Y-105219714D01*
X116006682Y-105246072D01*
X115980872Y-105262665D01*
X115947317Y-105260735D01*
X115937948Y-105254926D01*
X115898771Y-105241110D01*
X115854461Y-105240262D01*
X115812623Y-105254453D01*
X115780507Y-105292201D01*
X115758125Y-105338628D01*
X115719388Y-105430173D01*
X115819736Y-105424002D01*
X115883397Y-105423343D01*
X115913908Y-105432962D01*
X115920083Y-105448874D01*
X115910335Y-105467291D01*
X115875426Y-105474558D01*
X115811911Y-105472897D01*
X115747863Y-105470180D01*
X115712015Y-105477705D01*
X115690331Y-105502862D01*
X115671207Y-105546980D01*
X115652187Y-105599977D01*
X115651148Y-105628112D01*
X115668001Y-105644805D01*
X115670552Y-105646296D01*
X115711227Y-105654956D01*
X115771224Y-105653209D01*
X115784798Y-105651338D01*
X115839925Y-105646148D01*
X115863891Y-105655500D01*
X115867167Y-105668917D01*
X115855795Y-105703392D01*
X115831798Y-105714969D01*
X115814463Y-105702512D01*
X115786803Y-105689235D01*
X115733338Y-105681669D01*
X115710518Y-105681000D01*
X115653058Y-105683551D01*
X115622322Y-105698799D01*
X115603114Y-105738136D01*
X115593611Y-105768634D01*
X115579074Y-105827123D01*
X115581093Y-105859285D01*
X115595553Y-105875135D01*
X115635936Y-105885335D01*
X115700326Y-105885879D01*
X115771620Y-105877209D01*
X115803667Y-105869792D01*
X115831156Y-105877529D01*
X115835417Y-105892667D01*
X115827387Y-105910090D01*
X115797673Y-105918278D01*
X115737836Y-105918794D01*
X115703125Y-105917177D01*
X115570833Y-105909938D01*
X115570833Y-106110129D01*
X115708417Y-106099085D01*
X115785896Y-106094911D01*
X115829039Y-106098602D01*
X115845267Y-106111093D01*
X115846000Y-106116387D01*
X115830728Y-106133939D01*
X115781865Y-106145280D01*
X115708402Y-106150991D01*
X115570804Y-106157250D01*
X115607860Y-106231333D01*
X115641359Y-106282552D01*
X115686762Y-106311072D01*
X115737369Y-106324825D01*
X115814956Y-106333822D01*
X115866844Y-106320994D01*
X115870522Y-106318816D01*
X115913151Y-106304519D01*
X115942634Y-106314681D01*
X115946312Y-106343147D01*
X115921167Y-106356300D01*
X115862144Y-106361632D01*
X115818195Y-106360839D01*
X115753259Y-106359372D01*
X115709558Y-106361334D01*
X115697833Y-106364948D01*
X115716870Y-106390339D01*
X115766174Y-106417563D01*
X115834037Y-106442971D01*
X115908750Y-106462909D01*
X115978603Y-106473729D01*
X116031887Y-106471778D01*
X116036500Y-106470546D01*
X116075726Y-106463037D01*
X116138445Y-106455180D01*
X116170515Y-106452116D01*
X116235037Y-106444388D01*
X116282275Y-106434745D01*
X116294142Y-106430166D01*
X116293435Y-106408839D01*
X116266993Y-106368546D01*
X116241834Y-106340023D01*
X116189228Y-106277989D01*
X116144227Y-106213161D01*
X116132307Y-106191910D01*
X116096764Y-106082144D01*
X116095812Y-106072155D01*
X116142333Y-106072155D01*
X116149507Y-106096301D01*
X116167537Y-106144951D01*
X116176381Y-106167405D01*
X116209696Y-106229051D01*
X116246103Y-106252131D01*
X116251891Y-106252500D01*
X116282034Y-106262132D01*
X116280705Y-106292350D01*
X116283291Y-106327956D01*
X116319081Y-106364169D01*
X116337486Y-106376638D01*
X116396570Y-106408317D01*
X116431043Y-106407782D01*
X116446587Y-106372386D01*
X116449250Y-106324610D01*
X116454748Y-106266484D01*
X116472866Y-106243104D01*
X116481000Y-106241917D01*
X116501939Y-106253489D01*
X116507451Y-106293811D01*
X116505803Y-106321292D01*
X116503528Y-106373143D01*
X116516512Y-106395393D01*
X116555866Y-106400570D01*
X116576213Y-106400667D01*
X116653570Y-106400667D01*
X116647075Y-106310708D01*
X116646633Y-106251210D01*
X116658212Y-106224515D01*
X116671840Y-106220750D01*
X116692515Y-106232820D01*
X116697814Y-106274377D01*
X116696262Y-106300125D01*
X116695093Y-106352675D01*
X116707354Y-106375251D01*
X116732000Y-106379500D01*
X116814016Y-106366785D01*
X116865756Y-106330510D01*
X116883167Y-106275440D01*
X116876584Y-106226283D01*
X116861655Y-106199370D01*
X116849425Y-106175881D01*
X116867316Y-106153461D01*
X116894594Y-106146667D01*
X116912479Y-106156161D01*
X116916820Y-106190590D01*
X116911635Y-106241917D01*
X116905970Y-106302919D01*
X116916080Y-106330895D01*
X116949953Y-106331636D01*
X117009660Y-106313005D01*
X117049404Y-106297232D01*
X117068701Y-106277510D01*
X117072877Y-106241118D01*
X117067265Y-106175421D01*
X117062876Y-106106112D01*
X117068723Y-106070792D01*
X117083325Y-106062000D01*
X117101813Y-106078751D01*
X117108241Y-106131490D01*
X117107886Y-106157250D01*
X117107547Y-106220297D01*
X117116180Y-106246766D01*
X117139862Y-106242316D01*
X117174790Y-106219550D01*
X117206910Y-106185312D01*
X117220339Y-106133171D01*
X117221833Y-106093799D01*
X117217320Y-106034304D01*
X117205972Y-105994464D01*
X117200321Y-105987703D01*
X117187874Y-105964396D01*
X117206047Y-105942268D01*
X117235930Y-105935000D01*
X117259261Y-105948070D01*
X117258777Y-105961458D01*
X117257868Y-106001531D01*
X117265608Y-106030250D01*
X117276506Y-106048822D01*
X117282122Y-106031084D01*
X117283845Y-105992157D01*
X117270655Y-105898391D01*
X117232554Y-105813822D01*
X117192895Y-105768000D01*
X117169441Y-105757576D01*
X117140458Y-105768868D01*
X117096649Y-105806495D01*
X117077513Y-105825320D01*
X116983012Y-105896484D01*
X116855352Y-105958149D01*
X116703138Y-106007734D01*
X116534974Y-106042656D01*
X116359467Y-106060335D01*
X116288638Y-106062000D01*
X116216115Y-106063344D01*
X116163776Y-106066878D01*
X116142397Y-106071855D01*
X116142333Y-106072155D01*
X116095812Y-106072155D01*
X116083570Y-105943819D01*
X116122838Y-105943819D01*
X116126729Y-105971273D01*
X116133955Y-105971601D01*
X116139008Y-105943271D01*
X116135626Y-105931031D01*
X116126227Y-105923014D01*
X116122838Y-105943819D01*
X116083570Y-105943819D01*
X116083484Y-105942918D01*
X116089919Y-105820207D01*
X116119752Y-105820207D01*
X116132177Y-105858732D01*
X116160250Y-105876783D01*
X116187157Y-105894355D01*
X116191830Y-105934740D01*
X116189597Y-105953335D01*
X116185595Y-105993470D01*
X116195925Y-106012895D01*
X116230757Y-106019128D01*
X116279334Y-106019667D01*
X116378807Y-106019667D01*
X116371695Y-105929708D01*
X116370708Y-105870576D01*
X116381731Y-105843878D01*
X116396333Y-105839750D01*
X116416377Y-105850199D01*
X116422858Y-105887411D01*
X116420971Y-105929708D01*
X116418836Y-105986229D01*
X116430525Y-106012590D01*
X116465626Y-106016038D01*
X116522095Y-106006156D01*
X116564834Y-105994376D01*
X116582907Y-105972918D01*
X116584817Y-105927858D01*
X116583379Y-105905821D01*
X116583407Y-105846763D01*
X116596817Y-105818549D01*
X116611868Y-105812304D01*
X116633295Y-105814681D01*
X116639841Y-105839736D01*
X116635109Y-105891471D01*
X116630152Y-105945277D01*
X116640113Y-105970685D01*
X116674002Y-105974220D01*
X116734747Y-105963625D01*
X116775495Y-105953360D01*
X116794356Y-105935747D01*
X116797631Y-105898283D01*
X116793416Y-105847209D01*
X116790368Y-105782073D01*
X116798380Y-105750586D01*
X116812190Y-105744500D01*
X116833104Y-105763604D01*
X116840778Y-105821729D01*
X116840833Y-105829167D01*
X116848167Y-105890540D01*
X116871846Y-105913444D01*
X116914391Y-105899421D01*
X116934020Y-105886209D01*
X116966613Y-105837846D01*
X116972791Y-105766498D01*
X116959409Y-105705513D01*
X116952042Y-105669699D01*
X116969349Y-105661647D01*
X116981566Y-105663450D01*
X117006919Y-105677083D01*
X117015887Y-105712297D01*
X117014716Y-105755354D01*
X117008879Y-105839750D01*
X117062439Y-105780361D01*
X117105109Y-105708360D01*
X117119209Y-105627589D01*
X117104755Y-105551425D01*
X117062089Y-105493500D01*
X117001847Y-105457742D01*
X116945241Y-105437270D01*
X116898114Y-105433823D01*
X116858428Y-105453094D01*
X116821623Y-105488405D01*
X116772441Y-105529467D01*
X116699170Y-105577353D01*
X116616721Y-105622418D01*
X116607523Y-105626888D01*
X116529829Y-105662034D01*
X116456067Y-105689654D01*
X116374151Y-105713341D01*
X116271995Y-105736686D01*
X116168792Y-105757296D01*
X116132374Y-105780558D01*
X116119752Y-105820207D01*
X116089919Y-105820207D01*
X116092002Y-105780488D01*
X116104067Y-105707986D01*
X116144664Y-105707986D01*
X116159346Y-105714895D01*
X116163500Y-105712750D01*
X116180409Y-105683266D01*
X116184342Y-105653292D01*
X116180977Y-105623097D01*
X116168301Y-105631545D01*
X116163500Y-105638667D01*
X116146048Y-105678001D01*
X116144664Y-105707986D01*
X116104067Y-105707986D01*
X116121853Y-105601107D01*
X116141087Y-105529023D01*
X116189740Y-105529023D01*
X116203183Y-105549589D01*
X116218997Y-105573890D01*
X116226820Y-105623223D01*
X116227000Y-105632493D01*
X116229441Y-105681935D01*
X116244569Y-105699594D01*
X116284087Y-105696008D01*
X116295130Y-105693832D01*
X116349005Y-105678146D01*
X116384190Y-105659268D01*
X116384558Y-105658908D01*
X116392902Y-105623636D01*
X116381174Y-105598087D01*
X116367066Y-105556016D01*
X116389273Y-105534993D01*
X116409915Y-105532833D01*
X116427954Y-105547367D01*
X116425306Y-105594317D01*
X116424908Y-105596333D01*
X116417852Y-105638495D01*
X116424651Y-105655521D01*
X116453810Y-105650436D01*
X116511648Y-105627179D01*
X116561447Y-105602871D01*
X116580289Y-105577918D01*
X116577470Y-105538572D01*
X116576051Y-105531929D01*
X116571135Y-105486669D01*
X116586179Y-105470181D01*
X116595735Y-105469333D01*
X116622927Y-105487524D01*
X116629167Y-105523447D01*
X116629167Y-105577560D01*
X116694002Y-105539322D01*
X116737295Y-105508017D01*
X116750610Y-105473843D01*
X116745959Y-105432292D01*
X116741424Y-105383734D01*
X116754693Y-105364913D01*
X116765791Y-105363500D01*
X116792600Y-105381579D01*
X116798824Y-105411125D01*
X116802166Y-105442053D01*
X116814616Y-105434449D01*
X116819667Y-105427000D01*
X116839511Y-105365371D01*
X116823119Y-105310395D01*
X116776504Y-105271404D01*
X116710577Y-105257667D01*
X116659151Y-105266122D01*
X116585575Y-105288290D01*
X116505771Y-105319373D01*
X116505714Y-105319398D01*
X116422646Y-105352953D01*
X116342955Y-105380540D01*
X116286423Y-105395609D01*
X116231682Y-105411699D01*
X116204347Y-105441387D01*
X116193814Y-105475869D01*
X116189740Y-105529023D01*
X116141087Y-105529023D01*
X116172571Y-105411032D01*
X116195448Y-105342333D01*
X116230956Y-105240982D01*
X116274729Y-105115943D01*
X116321069Y-104983492D01*
X116362122Y-104866083D01*
X116421261Y-104682713D01*
X116458928Y-104530353D01*
X116475804Y-104403937D01*
X116472568Y-104298401D01*
X116450273Y-104209650D01*
X116390739Y-104106134D01*
X116304057Y-104034961D01*
X116191273Y-103996894D01*
X116152367Y-103992033D01*
X116049739Y-103988937D01*
X115971949Y-104002979D01*
X115903261Y-104039228D01*
X115838161Y-104093230D01*
X115728621Y-104170112D01*
X115643621Y-104200831D01*
X115576401Y-104218239D01*
X115523401Y-104234705D01*
X115507333Y-104241167D01*
X115480712Y-104263514D01*
X115443107Y-104263514D01*
X115454789Y-104225545D01*
X115509239Y-104189770D01*
X115573306Y-104173321D01*
X115666303Y-104152580D01*
X115736555Y-104127072D01*
X115776429Y-104099996D01*
X115782644Y-104085640D01*
X115800228Y-104057742D01*
X115845230Y-104020483D01*
X115906402Y-103981736D01*
X115972496Y-103949375D01*
X115983583Y-103945010D01*
X116072763Y-103930410D01*
X116178018Y-103941917D01*
X116178018Y-103941917D01*
G37*
X116178018Y-103941917D02*
X116285159Y-103976041D01*
X116379996Y-104029289D01*
X116403877Y-104048427D01*
X116462889Y-104123429D01*
X116504898Y-104222699D01*
X116523076Y-104329412D01*
X116523333Y-104342769D01*
X116518848Y-104439254D01*
X116504156Y-104541353D01*
X116477402Y-104656746D01*
X116436731Y-104793114D01*
X116380288Y-104958137D01*
X116363356Y-105005155D01*
X116324143Y-105114544D01*
X116290660Y-105210562D01*
X116265380Y-105285905D01*
X116250776Y-105333269D01*
X116248167Y-105345280D01*
X116265861Y-105358745D01*
X116317982Y-105350113D01*
X116403088Y-105319772D01*
X116499251Y-105277684D01*
X116580283Y-105245430D01*
X116658593Y-105222902D01*
X116712218Y-105215333D01*
X116783999Y-105229077D01*
X116843532Y-105264502D01*
X116878658Y-105312896D01*
X116883278Y-105337866D01*
X116902800Y-105369263D01*
X116962379Y-105398708D01*
X116983507Y-105405833D01*
X117069951Y-105449313D01*
X117135197Y-105513482D01*
X117171508Y-105588806D01*
X117175620Y-105642573D01*
X117183716Y-105696799D01*
X117223326Y-105755304D01*
X117238377Y-105771480D01*
X117308495Y-105868277D01*
X117336666Y-105970685D01*
X117326815Y-106065162D01*
X117284679Y-106163087D01*
X117213843Y-106245238D01*
X117111858Y-106312831D01*
X116976277Y-106367083D01*
X116804651Y-106409213D01*
X116594531Y-106440436D01*
X116565667Y-106443609D01*
X116458992Y-106456909D01*
X116350952Y-106473634D01*
X116260269Y-106490793D01*
X116237583Y-106495983D01*
X116090539Y-106521927D01*
X115957632Y-106520840D01*
X115819787Y-106491936D01*
X115771917Y-106476818D01*
X115676637Y-106447077D01*
X115576759Y-106419459D01*
X115504329Y-106402249D01*
X115423742Y-106377786D01*
X115329474Y-106337965D01*
X115246196Y-106293827D01*
X115172494Y-106252860D01*
X115106781Y-106222416D01*
X115062029Y-106208426D01*
X115058701Y-106208135D01*
X115009547Y-106201969D01*
X114940167Y-106188628D01*
X114904083Y-106180361D01*
X114798250Y-106154619D01*
X114822694Y-106146667D01*
X114967583Y-106146667D01*
X114976599Y-106161006D01*
X115019925Y-106167652D01*
X115031083Y-106167833D01*
X115079910Y-106162892D01*
X115095853Y-106149782D01*
X115094583Y-106146667D01*
X115065333Y-106130132D01*
X115031083Y-106125500D01*
X114986760Y-106133490D01*
X114967583Y-106146667D01*
X114822694Y-106146667D01*
X114919958Y-106115027D01*
X115041667Y-106075435D01*
X115041667Y-105972076D01*
X115042040Y-105966719D01*
X115083035Y-105966719D01*
X115107929Y-106072818D01*
X115109479Y-106076497D01*
X115134958Y-106136083D01*
X115142666Y-106066007D01*
X115154361Y-106014940D01*
X115170315Y-106000654D01*
X115185241Y-106018688D01*
X115193851Y-106064578D01*
X115193442Y-106108856D01*
X115192275Y-106171477D01*
X115205176Y-106210052D01*
X115239199Y-106242284D01*
X115249626Y-106249860D01*
X115302917Y-106284406D01*
X115330015Y-106288650D01*
X115337025Y-106259657D01*
X115332218Y-106210167D01*
X115328868Y-106151984D01*
X115341878Y-106127653D01*
X115374744Y-106130692D01*
X115375042Y-106130792D01*
X115383358Y-106153023D01*
X115385135Y-106202375D01*
X115383914Y-106223735D01*
X115385408Y-106289437D01*
X115400885Y-106325943D01*
X115403233Y-106327654D01*
X115438907Y-106342441D01*
X115490038Y-106356816D01*
X115538661Y-106366511D01*
X115566811Y-106367260D01*
X115567742Y-106366731D01*
X115567764Y-106365389D01*
X115599055Y-106365389D01*
X115601961Y-106377972D01*
X115613167Y-106379500D01*
X115630589Y-106371755D01*
X115627278Y-106365389D01*
X115602158Y-106362855D01*
X115599055Y-106365389D01*
X115567764Y-106365389D01*
X115568108Y-106344719D01*
X115562711Y-106290770D01*
X115552624Y-106214726D01*
X115547123Y-106177754D01*
X115519013Y-105994520D01*
X115433798Y-105951895D01*
X115361655Y-105908582D01*
X115294433Y-105855972D01*
X115241692Y-105802891D01*
X115212990Y-105758163D01*
X115210379Y-105745639D01*
X115198830Y-105736026D01*
X115165229Y-105762544D01*
X115146879Y-105781875D01*
X115096341Y-105867193D01*
X115083035Y-105966719D01*
X115042040Y-105966719D01*
X115047519Y-105888129D01*
X115069563Y-105819648D01*
X115114533Y-105750234D01*
X115150604Y-105706722D01*
X115166528Y-105685710D01*
X115232167Y-105685710D01*
X115242013Y-105717461D01*
X115253333Y-105723333D01*
X115269245Y-105705219D01*
X115274500Y-105670417D01*
X115283856Y-105627909D01*
X115306180Y-105618881D01*
X115328556Y-105640511D01*
X115328541Y-105673451D01*
X115319222Y-105687077D01*
X115294109Y-105738346D01*
X115302804Y-105797524D01*
X115342165Y-105851865D01*
X115363902Y-105868213D01*
X115408933Y-105894510D01*
X115435644Y-105905924D01*
X115437954Y-105905601D01*
X115443428Y-105882788D01*
X115449011Y-105834924D01*
X115449505Y-105829061D01*
X115460387Y-105778558D01*
X115479183Y-105750544D01*
X115481116Y-105749711D01*
X115496077Y-105755965D01*
X115498568Y-105793055D01*
X115493702Y-105838043D01*
X115488298Y-105903856D01*
X115493430Y-105932151D01*
X115505983Y-105925484D01*
X115522844Y-105886409D01*
X115540900Y-105817482D01*
X115545266Y-105795724D01*
X115571686Y-105656448D01*
X115511253Y-105599932D01*
X115483887Y-105571124D01*
X115592324Y-105571124D01*
X115595749Y-105594812D01*
X115610382Y-105579426D01*
X115613167Y-105575167D01*
X115631136Y-105538972D01*
X115634009Y-105526292D01*
X115621052Y-105518609D01*
X115613167Y-105522250D01*
X115594749Y-105552457D01*
X115592324Y-105571124D01*
X115483887Y-105571124D01*
X115469485Y-105555964D01*
X115443354Y-105519408D01*
X115441102Y-105514160D01*
X115418988Y-105496905D01*
X115380383Y-105506689D01*
X115333886Y-105536456D01*
X115288094Y-105579144D01*
X115251603Y-105627697D01*
X115233011Y-105675054D01*
X115232167Y-105685710D01*
X115166528Y-105685710D01*
X115187971Y-105657418D01*
X115209179Y-105617248D01*
X115211000Y-105608062D01*
X115227224Y-105575262D01*
X115267446Y-105532590D01*
X115318989Y-105491318D01*
X115369175Y-105462718D01*
X115378115Y-105459454D01*
X115389942Y-105449869D01*
X115464833Y-105449869D01*
X115492486Y-105519979D01*
X115498198Y-105528478D01*
X115532486Y-105559659D01*
X115559091Y-105557082D01*
X115566887Y-105523988D01*
X115564081Y-105509299D01*
X115565955Y-105467636D01*
X115591750Y-105453716D01*
X115621967Y-105467854D01*
X115645263Y-105475440D01*
X115666365Y-105449743D01*
X115676806Y-105426664D01*
X115692828Y-105373610D01*
X115681061Y-105345615D01*
X115635993Y-105336065D01*
X115601315Y-105336079D01*
X115522227Y-105352359D01*
X115475740Y-105392142D01*
X115464833Y-105449869D01*
X115389942Y-105449869D01*
X115413701Y-105430614D01*
X115431899Y-105393096D01*
X115463928Y-105343949D01*
X115524325Y-105306758D01*
X115599533Y-105287627D01*
X115661907Y-105289543D01*
X115729583Y-105301754D01*
X115849644Y-105041251D01*
X115895392Y-104940146D01*
X115935338Y-104848430D01*
X115965634Y-104775186D01*
X115982430Y-104729495D01*
X115983736Y-104724845D01*
X115988123Y-104658947D01*
X115960578Y-104611499D01*
X115897553Y-104578740D01*
X115830545Y-104562557D01*
X115760735Y-104551310D01*
X115718435Y-104551114D01*
X115689723Y-104564335D01*
X115662701Y-104591090D01*
X115630239Y-104638884D01*
X115594350Y-104709153D01*
X115571349Y-104764501D01*
X115541572Y-104838882D01*
X115512123Y-104903341D01*
X115494867Y-104934875D01*
X115464863Y-104969914D01*
X115440535Y-104981920D01*
X115431674Y-104968243D01*
X115436179Y-104950750D01*
X115435544Y-104923550D01*
X115425569Y-104919000D01*
X115421912Y-104903888D01*
X115439639Y-104865877D01*
X115451779Y-104846789D01*
X115489209Y-104778651D01*
X115521413Y-104698928D01*
X115527560Y-104678940D01*
X115553212Y-104610024D01*
X115585393Y-104551989D01*
X115596463Y-104538085D01*
X115624096Y-104504922D01*
X115631170Y-104488975D01*
X115609133Y-104477718D01*
X115565346Y-104455487D01*
X115560250Y-104452904D01*
X115507389Y-104411599D01*
X115463354Y-104353886D01*
X115460147Y-104347813D01*
X115438723Y-104277766D01*
X115443107Y-104263514D01*
X115480712Y-104263514D01*
X115491862Y-104281615D01*
X115536224Y-104291810D01*
X115571547Y-104292756D01*
X115631604Y-104297280D01*
X115654911Y-104315151D01*
X115655500Y-104320174D01*
X115644715Y-104338325D01*
X115606619Y-104339498D01*
X115578697Y-104335010D01*
X115526193Y-104331951D01*
X115509190Y-104346284D01*
X115526906Y-104373591D01*
X115578562Y-104409453D01*
X115593260Y-104417453D01*
X115666390Y-104439860D01*
X115761585Y-104448009D01*
X115860958Y-104441639D01*
X115941250Y-104422529D01*
X115968221Y-104414427D01*
X115958798Y-104424993D01*
X115951833Y-104430175D01*
X115911664Y-104450840D01*
X115851646Y-104473176D01*
X115835417Y-104478176D01*
X115750750Y-104503007D01*
X115856583Y-104519486D01*
X115947863Y-104545646D01*
X116005396Y-104591787D01*
X116029830Y-104660021D01*
X116021816Y-104752458D01*
X115982004Y-104871211D01*
X115972010Y-104894418D01*
X115930591Y-104988051D01*
X116003061Y-104976291D01*
X116061661Y-104974480D01*
X116086307Y-104992612D01*
X116090353Y-105022436D01*
X116067992Y-105034989D01*
X116012778Y-105032947D01*
X115994565Y-105030669D01*
X115943112Y-105026580D01*
X115911777Y-105038174D01*
X115885526Y-105074478D01*
X115868900Y-105106102D01*
X115842480Y-105160747D01*
X115826749Y-105198800D01*
X115824833Y-105206694D01*
X115843385Y-105213059D01*
X115889796Y-105211803D01*
X115909496Y-105209552D01*
X115966895Y-105207171D01*
X116003283Y-105215705D01*
X116007458Y-105219714D01*
X116006682Y-105246072D01*
X115980872Y-105262665D01*
X115947317Y-105260735D01*
X115937948Y-105254926D01*
X115898771Y-105241110D01*
X115854461Y-105240262D01*
X115812623Y-105254453D01*
X115780507Y-105292201D01*
X115758125Y-105338628D01*
X115719388Y-105430173D01*
X115819736Y-105424002D01*
X115883397Y-105423343D01*
X115913908Y-105432962D01*
X115920083Y-105448874D01*
X115910335Y-105467291D01*
X115875426Y-105474558D01*
X115811911Y-105472897D01*
X115747863Y-105470180D01*
X115712015Y-105477705D01*
X115690331Y-105502862D01*
X115671207Y-105546980D01*
X115652187Y-105599977D01*
X115651148Y-105628112D01*
X115668001Y-105644805D01*
X115670552Y-105646296D01*
X115711227Y-105654956D01*
X115771224Y-105653209D01*
X115784798Y-105651338D01*
X115839925Y-105646148D01*
X115863891Y-105655500D01*
X115867167Y-105668917D01*
X115855795Y-105703392D01*
X115831798Y-105714969D01*
X115814463Y-105702512D01*
X115786803Y-105689235D01*
X115733338Y-105681669D01*
X115710518Y-105681000D01*
X115653058Y-105683551D01*
X115622322Y-105698799D01*
X115603114Y-105738136D01*
X115593611Y-105768634D01*
X115579074Y-105827123D01*
X115581093Y-105859285D01*
X115595553Y-105875135D01*
X115635936Y-105885335D01*
X115700326Y-105885879D01*
X115771620Y-105877209D01*
X115803667Y-105869792D01*
X115831156Y-105877529D01*
X115835417Y-105892667D01*
X115827387Y-105910090D01*
X115797673Y-105918278D01*
X115737836Y-105918794D01*
X115703125Y-105917177D01*
X115570833Y-105909938D01*
X115570833Y-106110129D01*
X115708417Y-106099085D01*
X115785896Y-106094911D01*
X115829039Y-106098602D01*
X115845267Y-106111093D01*
X115846000Y-106116387D01*
X115830728Y-106133939D01*
X115781865Y-106145280D01*
X115708402Y-106150991D01*
X115570804Y-106157250D01*
X115607860Y-106231333D01*
X115641359Y-106282552D01*
X115686762Y-106311072D01*
X115737369Y-106324825D01*
X115814956Y-106333822D01*
X115866844Y-106320994D01*
X115870522Y-106318816D01*
X115913151Y-106304519D01*
X115942634Y-106314681D01*
X115946312Y-106343147D01*
X115921167Y-106356300D01*
X115862144Y-106361632D01*
X115818195Y-106360839D01*
X115753259Y-106359372D01*
X115709558Y-106361334D01*
X115697833Y-106364948D01*
X115716870Y-106390339D01*
X115766174Y-106417563D01*
X115834037Y-106442971D01*
X115908750Y-106462909D01*
X115978603Y-106473729D01*
X116031887Y-106471778D01*
X116036500Y-106470546D01*
X116075726Y-106463037D01*
X116138445Y-106455180D01*
X116170515Y-106452116D01*
X116235037Y-106444388D01*
X116282275Y-106434745D01*
X116294142Y-106430166D01*
X116293435Y-106408839D01*
X116266993Y-106368546D01*
X116241834Y-106340023D01*
X116189228Y-106277989D01*
X116144227Y-106213161D01*
X116132307Y-106191910D01*
X116096764Y-106082144D01*
X116095812Y-106072155D01*
X116142333Y-106072155D01*
X116149507Y-106096301D01*
X116167537Y-106144951D01*
X116176381Y-106167405D01*
X116209696Y-106229051D01*
X116246103Y-106252131D01*
X116251891Y-106252500D01*
X116282034Y-106262132D01*
X116280705Y-106292350D01*
X116283291Y-106327956D01*
X116319081Y-106364169D01*
X116337486Y-106376638D01*
X116396570Y-106408317D01*
X116431043Y-106407782D01*
X116446587Y-106372386D01*
X116449250Y-106324610D01*
X116454748Y-106266484D01*
X116472866Y-106243104D01*
X116481000Y-106241917D01*
X116501939Y-106253489D01*
X116507451Y-106293811D01*
X116505803Y-106321292D01*
X116503528Y-106373143D01*
X116516512Y-106395393D01*
X116555866Y-106400570D01*
X116576213Y-106400667D01*
X116653570Y-106400667D01*
X116647075Y-106310708D01*
X116646633Y-106251210D01*
X116658212Y-106224515D01*
X116671840Y-106220750D01*
X116692515Y-106232820D01*
X116697814Y-106274377D01*
X116696262Y-106300125D01*
X116695093Y-106352675D01*
X116707354Y-106375251D01*
X116732000Y-106379500D01*
X116814016Y-106366785D01*
X116865756Y-106330510D01*
X116883167Y-106275440D01*
X116876584Y-106226283D01*
X116861655Y-106199370D01*
X116849425Y-106175881D01*
X116867316Y-106153461D01*
X116894594Y-106146667D01*
X116912479Y-106156161D01*
X116916820Y-106190590D01*
X116911635Y-106241917D01*
X116905970Y-106302919D01*
X116916080Y-106330895D01*
X116949953Y-106331636D01*
X117009660Y-106313005D01*
X117049404Y-106297232D01*
X117068701Y-106277510D01*
X117072877Y-106241118D01*
X117067265Y-106175421D01*
X117062876Y-106106112D01*
X117068723Y-106070792D01*
X117083325Y-106062000D01*
X117101813Y-106078751D01*
X117108241Y-106131490D01*
X117107886Y-106157250D01*
X117107547Y-106220297D01*
X117116180Y-106246766D01*
X117139862Y-106242316D01*
X117174790Y-106219550D01*
X117206910Y-106185312D01*
X117220339Y-106133171D01*
X117221833Y-106093799D01*
X117217320Y-106034304D01*
X117205972Y-105994464D01*
X117200321Y-105987703D01*
X117187874Y-105964396D01*
X117206047Y-105942268D01*
X117235930Y-105935000D01*
X117259261Y-105948070D01*
X117258777Y-105961458D01*
X117257868Y-106001531D01*
X117265608Y-106030250D01*
X117276506Y-106048822D01*
X117282122Y-106031084D01*
X117283845Y-105992157D01*
X117270655Y-105898391D01*
X117232554Y-105813822D01*
X117192895Y-105768000D01*
X117169441Y-105757576D01*
X117140458Y-105768868D01*
X117096649Y-105806495D01*
X117077513Y-105825320D01*
X116983012Y-105896484D01*
X116855352Y-105958149D01*
X116703138Y-106007734D01*
X116534974Y-106042656D01*
X116359467Y-106060335D01*
X116288638Y-106062000D01*
X116216115Y-106063344D01*
X116163776Y-106066878D01*
X116142397Y-106071855D01*
X116142333Y-106072155D01*
X116095812Y-106072155D01*
X116083570Y-105943819D01*
X116122838Y-105943819D01*
X116126729Y-105971273D01*
X116133955Y-105971601D01*
X116139008Y-105943271D01*
X116135626Y-105931031D01*
X116126227Y-105923014D01*
X116122838Y-105943819D01*
X116083570Y-105943819D01*
X116083484Y-105942918D01*
X116089919Y-105820207D01*
X116119752Y-105820207D01*
X116132177Y-105858732D01*
X116160250Y-105876783D01*
X116187157Y-105894355D01*
X116191830Y-105934740D01*
X116189597Y-105953335D01*
X116185595Y-105993470D01*
X116195925Y-106012895D01*
X116230757Y-106019128D01*
X116279334Y-106019667D01*
X116378807Y-106019667D01*
X116371695Y-105929708D01*
X116370708Y-105870576D01*
X116381731Y-105843878D01*
X116396333Y-105839750D01*
X116416377Y-105850199D01*
X116422858Y-105887411D01*
X116420971Y-105929708D01*
X116418836Y-105986229D01*
X116430525Y-106012590D01*
X116465626Y-106016038D01*
X116522095Y-106006156D01*
X116564834Y-105994376D01*
X116582907Y-105972918D01*
X116584817Y-105927858D01*
X116583379Y-105905821D01*
X116583407Y-105846763D01*
X116596817Y-105818549D01*
X116611868Y-105812304D01*
X116633295Y-105814681D01*
X116639841Y-105839736D01*
X116635109Y-105891471D01*
X116630152Y-105945277D01*
X116640113Y-105970685D01*
X116674002Y-105974220D01*
X116734747Y-105963625D01*
X116775495Y-105953360D01*
X116794356Y-105935747D01*
X116797631Y-105898283D01*
X116793416Y-105847209D01*
X116790368Y-105782073D01*
X116798380Y-105750586D01*
X116812190Y-105744500D01*
X116833104Y-105763604D01*
X116840778Y-105821729D01*
X116840833Y-105829167D01*
X116848167Y-105890540D01*
X116871846Y-105913444D01*
X116914391Y-105899421D01*
X116934020Y-105886209D01*
X116966613Y-105837846D01*
X116972791Y-105766498D01*
X116959409Y-105705513D01*
X116952042Y-105669699D01*
X116969349Y-105661647D01*
X116981566Y-105663450D01*
X117006919Y-105677083D01*
X117015887Y-105712297D01*
X117014716Y-105755354D01*
X117008879Y-105839750D01*
X117062439Y-105780361D01*
X117105109Y-105708360D01*
X117119209Y-105627589D01*
X117104755Y-105551425D01*
X117062089Y-105493500D01*
X117001847Y-105457742D01*
X116945241Y-105437270D01*
X116898114Y-105433823D01*
X116858428Y-105453094D01*
X116821623Y-105488405D01*
X116772441Y-105529467D01*
X116699170Y-105577353D01*
X116616721Y-105622418D01*
X116607523Y-105626888D01*
X116529829Y-105662034D01*
X116456067Y-105689654D01*
X116374151Y-105713341D01*
X116271995Y-105736686D01*
X116168792Y-105757296D01*
X116132374Y-105780558D01*
X116119752Y-105820207D01*
X116089919Y-105820207D01*
X116092002Y-105780488D01*
X116104067Y-105707986D01*
X116144664Y-105707986D01*
X116159346Y-105714895D01*
X116163500Y-105712750D01*
X116180409Y-105683266D01*
X116184342Y-105653292D01*
X116180977Y-105623097D01*
X116168301Y-105631545D01*
X116163500Y-105638667D01*
X116146048Y-105678001D01*
X116144664Y-105707986D01*
X116104067Y-105707986D01*
X116121853Y-105601107D01*
X116141087Y-105529023D01*
X116189740Y-105529023D01*
X116203183Y-105549589D01*
X116218997Y-105573890D01*
X116226820Y-105623223D01*
X116227000Y-105632493D01*
X116229441Y-105681935D01*
X116244569Y-105699594D01*
X116284087Y-105696008D01*
X116295130Y-105693832D01*
X116349005Y-105678146D01*
X116384190Y-105659268D01*
X116384558Y-105658908D01*
X116392902Y-105623636D01*
X116381174Y-105598087D01*
X116367066Y-105556016D01*
X116389273Y-105534993D01*
X116409915Y-105532833D01*
X116427954Y-105547367D01*
X116425306Y-105594317D01*
X116424908Y-105596333D01*
X116417852Y-105638495D01*
X116424651Y-105655521D01*
X116453810Y-105650436D01*
X116511648Y-105627179D01*
X116561447Y-105602871D01*
X116580289Y-105577918D01*
X116577470Y-105538572D01*
X116576051Y-105531929D01*
X116571135Y-105486669D01*
X116586179Y-105470181D01*
X116595735Y-105469333D01*
X116622927Y-105487524D01*
X116629167Y-105523447D01*
X116629167Y-105577560D01*
X116694002Y-105539322D01*
X116737295Y-105508017D01*
X116750610Y-105473843D01*
X116745959Y-105432292D01*
X116741424Y-105383734D01*
X116754693Y-105364913D01*
X116765791Y-105363500D01*
X116792600Y-105381579D01*
X116798824Y-105411125D01*
X116802166Y-105442053D01*
X116814616Y-105434449D01*
X116819667Y-105427000D01*
X116839511Y-105365371D01*
X116823119Y-105310395D01*
X116776504Y-105271404D01*
X116710577Y-105257667D01*
X116659151Y-105266122D01*
X116585575Y-105288290D01*
X116505771Y-105319373D01*
X116505714Y-105319398D01*
X116422646Y-105352953D01*
X116342955Y-105380540D01*
X116286423Y-105395609D01*
X116231682Y-105411699D01*
X116204347Y-105441387D01*
X116193814Y-105475869D01*
X116189740Y-105529023D01*
X116141087Y-105529023D01*
X116172571Y-105411032D01*
X116195448Y-105342333D01*
X116230956Y-105240982D01*
X116274729Y-105115943D01*
X116321069Y-104983492D01*
X116362122Y-104866083D01*
X116421261Y-104682713D01*
X116458928Y-104530353D01*
X116475804Y-104403937D01*
X116472568Y-104298401D01*
X116450273Y-104209650D01*
X116390739Y-104106134D01*
X116304057Y-104034961D01*
X116191273Y-103996894D01*
X116152367Y-103992033D01*
X116049739Y-103988937D01*
X115971949Y-104002979D01*
X115903261Y-104039228D01*
X115838161Y-104093230D01*
X115728621Y-104170112D01*
X115643621Y-104200831D01*
X115576401Y-104218239D01*
X115523401Y-104234705D01*
X115507333Y-104241167D01*
X115480712Y-104263514D01*
X115443107Y-104263514D01*
X115454789Y-104225545D01*
X115509239Y-104189770D01*
X115573306Y-104173321D01*
X115666303Y-104152580D01*
X115736555Y-104127072D01*
X115776429Y-104099996D01*
X115782644Y-104085640D01*
X115800228Y-104057742D01*
X115845230Y-104020483D01*
X115906402Y-103981736D01*
X115972496Y-103949375D01*
X115983583Y-103945010D01*
X116072763Y-103930410D01*
X116178018Y-103941917D01*
G36*
X116115628Y-104094019D02*
X116164773Y-104132422D01*
X116195061Y-104173587D01*
X116228259Y-104216335D01*
X116258315Y-104234304D01*
X116276268Y-104244643D01*
X116261481Y-104256976D01*
X116209744Y-104274623D01*
X116205587Y-104275860D01*
X116123442Y-104297137D01*
X116039026Y-104314571D01*
X116021595Y-104317423D01*
X115965027Y-104323601D01*
X115936975Y-104316304D01*
X115924531Y-104290792D01*
X115922337Y-104280966D01*
X115912142Y-104224790D01*
X115939020Y-104224790D01*
X115950270Y-104271245D01*
X115952676Y-104274432D01*
X115980090Y-104297471D01*
X116003954Y-104305264D01*
X116010322Y-104294534D01*
X116006677Y-104287118D01*
X116008871Y-104257904D01*
X116024028Y-104230086D01*
X116046633Y-104204891D01*
X116070319Y-104205143D01*
X116108398Y-104227705D01*
X116148127Y-104250688D01*
X116167535Y-104248813D01*
X116177031Y-104231033D01*
X116174978Y-104187251D01*
X116142494Y-104149235D01*
X116091481Y-104123071D01*
X116033843Y-104114846D01*
X115981480Y-104130646D01*
X115981144Y-104130866D01*
X115950774Y-104170622D01*
X115939020Y-104224790D01*
X115912142Y-104224790D01*
X115905758Y-104189619D01*
X115901704Y-104137705D01*
X115910211Y-104125706D01*
X115910684Y-104125981D01*
X115938092Y-104123188D01*
X115984164Y-104103239D01*
X115992046Y-104098883D01*
X116040170Y-104075609D01*
X116076166Y-104075593D01*
X116115628Y-104094019D01*
X116115628Y-104094019D01*
G37*
X116115628Y-104094019D02*
X116164773Y-104132422D01*
X116195061Y-104173587D01*
X116228259Y-104216335D01*
X116258315Y-104234304D01*
X116276268Y-104244643D01*
X116261481Y-104256976D01*
X116209744Y-104274623D01*
X116205587Y-104275860D01*
X116123442Y-104297137D01*
X116039026Y-104314571D01*
X116021595Y-104317423D01*
X115965027Y-104323601D01*
X115936975Y-104316304D01*
X115924531Y-104290792D01*
X115922337Y-104280966D01*
X115912142Y-104224790D01*
X115939020Y-104224790D01*
X115950270Y-104271245D01*
X115952676Y-104274432D01*
X115980090Y-104297471D01*
X116003954Y-104305264D01*
X116010322Y-104294534D01*
X116006677Y-104287118D01*
X116008871Y-104257904D01*
X116024028Y-104230086D01*
X116046633Y-104204891D01*
X116070319Y-104205143D01*
X116108398Y-104227705D01*
X116148127Y-104250688D01*
X116167535Y-104248813D01*
X116177031Y-104231033D01*
X116174978Y-104187251D01*
X116142494Y-104149235D01*
X116091481Y-104123071D01*
X116033843Y-104114846D01*
X115981480Y-104130646D01*
X115981144Y-104130866D01*
X115950774Y-104170622D01*
X115939020Y-104224790D01*
X115912142Y-104224790D01*
X115905758Y-104189619D01*
X115901704Y-104137705D01*
X115910211Y-104125706D01*
X115910684Y-104125981D01*
X115938092Y-104123188D01*
X115984164Y-104103239D01*
X115992046Y-104098883D01*
X116040170Y-104075609D01*
X116076166Y-104075593D01*
X116115628Y-104094019D01*
D11*
X142210000Y-102840000D02*
X142210000Y-101950000D01*
X143200000Y-102840000D02*
X143200000Y-101950000D01*
X142290000Y-102920000D02*
X143120000Y-102920000D01*
X143196204Y-102840000D02*
G75*
G03X143196204Y-102840000I-78102J0D01*
G01*
X142370000Y-102840000D02*
G75*
G03X142370000Y-102840000I-78102J0D01*
G01*
D10*
G36*
X138092232Y-103114357D02*
X138159118Y-103120936D01*
X138194242Y-103133640D01*
X138208139Y-103156853D01*
X138209289Y-103163083D01*
X138211779Y-103191952D01*
X138200966Y-103181625D01*
X138192561Y-103168375D01*
X138152504Y-103139414D01*
X138091814Y-103130290D01*
X138027003Y-103140531D01*
X137974583Y-103169669D01*
X137969630Y-103174719D01*
X137934035Y-103242661D01*
X137932506Y-103319861D01*
X137963814Y-103392208D01*
X137991164Y-103421948D01*
X138040484Y-103456252D01*
X138090571Y-103465874D01*
X138138272Y-103461238D01*
X138189471Y-103455825D01*
X138202000Y-103461309D01*
X138192833Y-103469375D01*
X138126762Y-103490899D01*
X138046594Y-103485868D01*
X137969283Y-103456500D01*
X137940457Y-103436368D01*
X137888129Y-103367868D01*
X137872135Y-103288286D01*
X137892971Y-103208970D01*
X137928389Y-103161020D01*
X137967437Y-103128967D01*
X138010773Y-103114740D01*
X138075427Y-103113488D01*
X138092232Y-103114357D01*
X138092232Y-103114357D01*
G37*
X138092232Y-103114357D02*
X138159118Y-103120936D01*
X138194242Y-103133640D01*
X138208139Y-103156853D01*
X138209289Y-103163083D01*
X138211779Y-103191952D01*
X138200966Y-103181625D01*
X138192561Y-103168375D01*
X138152504Y-103139414D01*
X138091814Y-103130290D01*
X138027003Y-103140531D01*
X137974583Y-103169669D01*
X137969630Y-103174719D01*
X137934035Y-103242661D01*
X137932506Y-103319861D01*
X137963814Y-103392208D01*
X137991164Y-103421948D01*
X138040484Y-103456252D01*
X138090571Y-103465874D01*
X138138272Y-103461238D01*
X138189471Y-103455825D01*
X138202000Y-103461309D01*
X138192833Y-103469375D01*
X138126762Y-103490899D01*
X138046594Y-103485868D01*
X137969283Y-103456500D01*
X137940457Y-103436368D01*
X137888129Y-103367868D01*
X137872135Y-103288286D01*
X137892971Y-103208970D01*
X137928389Y-103161020D01*
X137967437Y-103128967D01*
X138010773Y-103114740D01*
X138075427Y-103113488D01*
X138092232Y-103114357D01*
G36*
X138438376Y-103251996D02*
X138455873Y-103278643D01*
X138457416Y-103300667D01*
X138451569Y-103336270D01*
X138425994Y-103353335D01*
X138378041Y-103360153D01*
X138319816Y-103370303D01*
X138301263Y-103390327D01*
X138320142Y-103424152D01*
X138333459Y-103438269D01*
X138386346Y-103463295D01*
X138423417Y-103460304D01*
X138457738Y-103454639D01*
X138454780Y-103463316D01*
X138446833Y-103469033D01*
X138384694Y-103489577D01*
X138320483Y-103478764D01*
X138289595Y-103457905D01*
X138261964Y-103404150D01*
X138259633Y-103337497D01*
X138271924Y-103305958D01*
X138302696Y-103305958D01*
X138307049Y-103332368D01*
X138340269Y-103342338D01*
X138362166Y-103343000D01*
X138408642Y-103337750D01*
X138422805Y-103318207D01*
X138421637Y-103305958D01*
X138396449Y-103275397D01*
X138362166Y-103268917D01*
X138316355Y-103282578D01*
X138302696Y-103305958D01*
X138271924Y-103305958D01*
X138282473Y-103278892D01*
X138290738Y-103269285D01*
X138342190Y-103243944D01*
X138391279Y-103241315D01*
X138438376Y-103251996D01*
X138438376Y-103251996D01*
G37*
X138438376Y-103251996D02*
X138455873Y-103278643D01*
X138457416Y-103300667D01*
X138451569Y-103336270D01*
X138425994Y-103353335D01*
X138378041Y-103360153D01*
X138319816Y-103370303D01*
X138301263Y-103390327D01*
X138320142Y-103424152D01*
X138333459Y-103438269D01*
X138386346Y-103463295D01*
X138423417Y-103460304D01*
X138457738Y-103454639D01*
X138454780Y-103463316D01*
X138446833Y-103469033D01*
X138384694Y-103489577D01*
X138320483Y-103478764D01*
X138289595Y-103457905D01*
X138261964Y-103404150D01*
X138259633Y-103337497D01*
X138271924Y-103305958D01*
X138302696Y-103305958D01*
X138307049Y-103332368D01*
X138340269Y-103342338D01*
X138362166Y-103343000D01*
X138408642Y-103337750D01*
X138422805Y-103318207D01*
X138421637Y-103305958D01*
X138396449Y-103275397D01*
X138362166Y-103268917D01*
X138316355Y-103282578D01*
X138302696Y-103305958D01*
X138271924Y-103305958D01*
X138282473Y-103278892D01*
X138290738Y-103269285D01*
X138342190Y-103243944D01*
X138391279Y-103241315D01*
X138438376Y-103251996D01*
G36*
X138753577Y-103108677D02*
X138760924Y-103135185D01*
X138763821Y-103188448D01*
X138764333Y-103276127D01*
X138764333Y-103279718D01*
X138766864Y-103382962D01*
X138774735Y-103447287D01*
X138788367Y-103475819D01*
X138790791Y-103477148D01*
X138794433Y-103485721D01*
X138769625Y-103489495D01*
X138732511Y-103482578D01*
X138722000Y-103469255D01*
X138709042Y-103458155D01*
X138681058Y-103469255D01*
X138615924Y-103489891D01*
X138565670Y-103472383D01*
X138551730Y-103458289D01*
X138528229Y-103404273D01*
X138527037Y-103339676D01*
X138530898Y-103328860D01*
X138568062Y-103328860D01*
X138573085Y-103392870D01*
X138576430Y-103402629D01*
X138601432Y-103438917D01*
X138646598Y-103445618D01*
X138653051Y-103444963D01*
X138690737Y-103436138D01*
X138707404Y-103412684D01*
X138711393Y-103361543D01*
X138711416Y-103353583D01*
X138708835Y-103299258D01*
X138695272Y-103275106D01*
X138662001Y-103269030D01*
X138650341Y-103268917D01*
X138595155Y-103285116D01*
X138568062Y-103328860D01*
X138530898Y-103328860D01*
X138546940Y-103283930D01*
X138563767Y-103265920D01*
X138614829Y-103244000D01*
X138662545Y-103237167D01*
X138706154Y-103230393D01*
X138721173Y-103202867D01*
X138722000Y-103186014D01*
X138712548Y-103143433D01*
X138696087Y-103126223D01*
X138692621Y-103115600D01*
X138717254Y-103105275D01*
X138739709Y-103101260D01*
X138753577Y-103108677D01*
X138753577Y-103108677D01*
G37*
X138753577Y-103108677D02*
X138760924Y-103135185D01*
X138763821Y-103188448D01*
X138764333Y-103276127D01*
X138764333Y-103279718D01*
X138766864Y-103382962D01*
X138774735Y-103447287D01*
X138788367Y-103475819D01*
X138790791Y-103477148D01*
X138794433Y-103485721D01*
X138769625Y-103489495D01*
X138732511Y-103482578D01*
X138722000Y-103469255D01*
X138709042Y-103458155D01*
X138681058Y-103469255D01*
X138615924Y-103489891D01*
X138565670Y-103472383D01*
X138551730Y-103458289D01*
X138528229Y-103404273D01*
X138527037Y-103339676D01*
X138530898Y-103328860D01*
X138568062Y-103328860D01*
X138573085Y-103392870D01*
X138576430Y-103402629D01*
X138601432Y-103438917D01*
X138646598Y-103445618D01*
X138653051Y-103444963D01*
X138690737Y-103436138D01*
X138707404Y-103412684D01*
X138711393Y-103361543D01*
X138711416Y-103353583D01*
X138708835Y-103299258D01*
X138695272Y-103275106D01*
X138662001Y-103269030D01*
X138650341Y-103268917D01*
X138595155Y-103285116D01*
X138568062Y-103328860D01*
X138530898Y-103328860D01*
X138546940Y-103283930D01*
X138563767Y-103265920D01*
X138614829Y-103244000D01*
X138662545Y-103237167D01*
X138706154Y-103230393D01*
X138721173Y-103202867D01*
X138722000Y-103186014D01*
X138712548Y-103143433D01*
X138696087Y-103126223D01*
X138692621Y-103115600D01*
X138717254Y-103105275D01*
X138739709Y-103101260D01*
X138753577Y-103108677D01*
G36*
X139001272Y-103250212D02*
X139023384Y-103265275D01*
X139032530Y-103304451D01*
X139035663Y-103342585D01*
X139044540Y-103406531D01*
X139058805Y-103454303D01*
X139064713Y-103464293D01*
X139071173Y-103485764D01*
X139051916Y-103491766D01*
X139020970Y-103481407D01*
X139003789Y-103468156D01*
X138978239Y-103456592D01*
X138966556Y-103468156D01*
X138932895Y-103489166D01*
X138888946Y-103485755D01*
X138857212Y-103460279D01*
X138855550Y-103456539D01*
X138855903Y-103406376D01*
X138887062Y-103363692D01*
X138925352Y-103346390D01*
X138952881Y-103342885D01*
X138946591Y-103353018D01*
X138924935Y-103369787D01*
X138896682Y-103405825D01*
X138896322Y-103439122D01*
X138918988Y-103456801D01*
X138954812Y-103448844D01*
X138983939Y-103414147D01*
X138994779Y-103362057D01*
X138988063Y-103308736D01*
X138964519Y-103270351D01*
X138946365Y-103261751D01*
X138903662Y-103268712D01*
X138886966Y-103282709D01*
X138872559Y-103299258D01*
X138875610Y-103279500D01*
X138903276Y-103255080D01*
X138956597Y-103247750D01*
X139001272Y-103250212D01*
X139001272Y-103250212D01*
G37*
X139001272Y-103250212D02*
X139023384Y-103265275D01*
X139032530Y-103304451D01*
X139035663Y-103342585D01*
X139044540Y-103406531D01*
X139058805Y-103454303D01*
X139064713Y-103464293D01*
X139071173Y-103485764D01*
X139051916Y-103491766D01*
X139020970Y-103481407D01*
X139003789Y-103468156D01*
X138978239Y-103456592D01*
X138966556Y-103468156D01*
X138932895Y-103489166D01*
X138888946Y-103485755D01*
X138857212Y-103460279D01*
X138855550Y-103456539D01*
X138855903Y-103406376D01*
X138887062Y-103363692D01*
X138925352Y-103346390D01*
X138952881Y-103342885D01*
X138946591Y-103353018D01*
X138924935Y-103369787D01*
X138896682Y-103405825D01*
X138896322Y-103439122D01*
X138918988Y-103456801D01*
X138954812Y-103448844D01*
X138983939Y-103414147D01*
X138994779Y-103362057D01*
X138988063Y-103308736D01*
X138964519Y-103270351D01*
X138946365Y-103261751D01*
X138903662Y-103268712D01*
X138886966Y-103282709D01*
X138872559Y-103299258D01*
X138875610Y-103279500D01*
X138903276Y-103255080D01*
X138956597Y-103247750D01*
X139001272Y-103250212D01*
G36*
X139211184Y-103241021D02*
X139272207Y-103248858D01*
X139293480Y-103270025D01*
X139293500Y-103270888D01*
X139282431Y-103289140D01*
X139245875Y-103281507D01*
X139217225Y-103273290D01*
X139204503Y-103283670D01*
X139203187Y-103321704D01*
X139205978Y-103361406D01*
X139215411Y-103423172D01*
X139230327Y-103466054D01*
X139237728Y-103474967D01*
X139236547Y-103485435D01*
X139202166Y-103490708D01*
X139194796Y-103490842D01*
X139149716Y-103488559D01*
X139137848Y-103472714D01*
X139150650Y-103430749D01*
X139151812Y-103427667D01*
X139164964Y-103356740D01*
X139152325Y-103302026D01*
X139128869Y-103239885D01*
X139211184Y-103241021D01*
X139211184Y-103241021D01*
G37*
X139211184Y-103241021D02*
X139272207Y-103248858D01*
X139293480Y-103270025D01*
X139293500Y-103270888D01*
X139282431Y-103289140D01*
X139245875Y-103281507D01*
X139217225Y-103273290D01*
X139204503Y-103283670D01*
X139203187Y-103321704D01*
X139205978Y-103361406D01*
X139215411Y-103423172D01*
X139230327Y-103466054D01*
X139237728Y-103474967D01*
X139236547Y-103485435D01*
X139202166Y-103490708D01*
X139194796Y-103490842D01*
X139149716Y-103488559D01*
X139137848Y-103472714D01*
X139150650Y-103430749D01*
X139151812Y-103427667D01*
X139164964Y-103356740D01*
X139152325Y-103302026D01*
X139128869Y-103239885D01*
X139211184Y-103241021D01*
G36*
X139694267Y-103114524D02*
X139764076Y-103120841D01*
X139801823Y-103132891D01*
X139817739Y-103154520D01*
X139819452Y-103161586D01*
X139822659Y-103189315D01*
X139809899Y-103184443D01*
X139790597Y-103165788D01*
X139734472Y-103136570D01*
X139663327Y-103134104D01*
X139593081Y-103156252D01*
X139540749Y-103199377D01*
X139512158Y-103267756D01*
X139518012Y-103337770D01*
X139551819Y-103400284D01*
X139607084Y-103446160D01*
X139677313Y-103466263D01*
X139727005Y-103461411D01*
X139765875Y-103437396D01*
X139781318Y-103400618D01*
X139769257Y-103366917D01*
X139753875Y-103357018D01*
X139751503Y-103348862D01*
X139781959Y-103344671D01*
X139819856Y-103348593D01*
X139830558Y-103372217D01*
X139827462Y-103404586D01*
X139804236Y-103459738D01*
X139772920Y-103478380D01*
X139689166Y-103489730D01*
X139607339Y-103482887D01*
X139558083Y-103465601D01*
X139496709Y-103414685D01*
X139467828Y-103345800D01*
X139463506Y-103294364D01*
X139474055Y-103223173D01*
X139513462Y-103167217D01*
X139519848Y-103161138D01*
X139560452Y-103129850D01*
X139604473Y-103115420D01*
X139668608Y-103113385D01*
X139694267Y-103114524D01*
X139694267Y-103114524D01*
G37*
X139694267Y-103114524D02*
X139764076Y-103120841D01*
X139801823Y-103132891D01*
X139817739Y-103154520D01*
X139819452Y-103161586D01*
X139822659Y-103189315D01*
X139809899Y-103184443D01*
X139790597Y-103165788D01*
X139734472Y-103136570D01*
X139663327Y-103134104D01*
X139593081Y-103156252D01*
X139540749Y-103199377D01*
X139512158Y-103267756D01*
X139518012Y-103337770D01*
X139551819Y-103400284D01*
X139607084Y-103446160D01*
X139677313Y-103466263D01*
X139727005Y-103461411D01*
X139765875Y-103437396D01*
X139781318Y-103400618D01*
X139769257Y-103366917D01*
X139753875Y-103357018D01*
X139751503Y-103348862D01*
X139781959Y-103344671D01*
X139819856Y-103348593D01*
X139830558Y-103372217D01*
X139827462Y-103404586D01*
X139804236Y-103459738D01*
X139772920Y-103478380D01*
X139689166Y-103489730D01*
X139607339Y-103482887D01*
X139558083Y-103465601D01*
X139496709Y-103414685D01*
X139467828Y-103345800D01*
X139463506Y-103294364D01*
X139474055Y-103223173D01*
X139513462Y-103167217D01*
X139519848Y-103161138D01*
X139560452Y-103129850D01*
X139604473Y-103115420D01*
X139668608Y-103113385D01*
X139694267Y-103114524D01*
G36*
X139960881Y-103246288D02*
X139970833Y-103260925D01*
X139980585Y-103272520D01*
X140001871Y-103258924D01*
X140040903Y-103241839D01*
X140060079Y-103243226D01*
X140063785Y-103256481D01*
X140031763Y-103275351D01*
X140029041Y-103276453D01*
X139990305Y-103298505D01*
X139973832Y-103333283D01*
X139970833Y-103383045D01*
X139977032Y-103439902D01*
X139992680Y-103474089D01*
X139997291Y-103477148D01*
X139997029Y-103484430D01*
X139963097Y-103489038D01*
X139950725Y-103489495D01*
X139904502Y-103487566D01*
X139894594Y-103476887D01*
X139903100Y-103465767D01*
X139920210Y-103428650D01*
X139928383Y-103371578D01*
X139928500Y-103364167D01*
X139921831Y-103306167D01*
X139905531Y-103265347D01*
X139903100Y-103262567D01*
X139892178Y-103243198D01*
X139917977Y-103237232D01*
X139924266Y-103237167D01*
X139960881Y-103246288D01*
X139960881Y-103246288D01*
G37*
X139960881Y-103246288D02*
X139970833Y-103260925D01*
X139980585Y-103272520D01*
X140001871Y-103258924D01*
X140040903Y-103241839D01*
X140060079Y-103243226D01*
X140063785Y-103256481D01*
X140031763Y-103275351D01*
X140029041Y-103276453D01*
X139990305Y-103298505D01*
X139973832Y-103333283D01*
X139970833Y-103383045D01*
X139977032Y-103439902D01*
X139992680Y-103474089D01*
X139997291Y-103477148D01*
X139997029Y-103484430D01*
X139963097Y-103489038D01*
X139950725Y-103489495D01*
X139904502Y-103487566D01*
X139894594Y-103476887D01*
X139903100Y-103465767D01*
X139920210Y-103428650D01*
X139928383Y-103371578D01*
X139928500Y-103364167D01*
X139921831Y-103306167D01*
X139905531Y-103265347D01*
X139903100Y-103262567D01*
X139892178Y-103243198D01*
X139917977Y-103237232D01*
X139924266Y-103237167D01*
X139960881Y-103246288D01*
G36*
X140304885Y-103249765D02*
X140341477Y-103290265D01*
X140351833Y-103356616D01*
X140335475Y-103420930D01*
X140293981Y-103466564D01*
X140238722Y-103489016D01*
X140181069Y-103483785D01*
X140132394Y-103446370D01*
X140130783Y-103444123D01*
X140101501Y-103373575D01*
X140103469Y-103358156D01*
X140146792Y-103358156D01*
X140159327Y-103409941D01*
X140190071Y-103448950D01*
X140231189Y-103466194D01*
X140274844Y-103452682D01*
X140284100Y-103444600D01*
X140303658Y-103405020D01*
X140309500Y-103364167D01*
X140295635Y-103304701D01*
X140261397Y-103267903D01*
X140217818Y-103258327D01*
X140175929Y-103280526D01*
X140160305Y-103302587D01*
X140146792Y-103358156D01*
X140103469Y-103358156D01*
X140109667Y-103309618D01*
X140150537Y-103261396D01*
X140219367Y-103238055D01*
X140238141Y-103237167D01*
X140304885Y-103249765D01*
X140304885Y-103249765D01*
G37*
X140304885Y-103249765D02*
X140341477Y-103290265D01*
X140351833Y-103356616D01*
X140335475Y-103420930D01*
X140293981Y-103466564D01*
X140238722Y-103489016D01*
X140181069Y-103483785D01*
X140132394Y-103446370D01*
X140130783Y-103444123D01*
X140101501Y-103373575D01*
X140103469Y-103358156D01*
X140146792Y-103358156D01*
X140159327Y-103409941D01*
X140190071Y-103448950D01*
X140231189Y-103466194D01*
X140274844Y-103452682D01*
X140284100Y-103444600D01*
X140303658Y-103405020D01*
X140309500Y-103364167D01*
X140295635Y-103304701D01*
X140261397Y-103267903D01*
X140217818Y-103258327D01*
X140175929Y-103280526D01*
X140160305Y-103302587D01*
X140146792Y-103358156D01*
X140103469Y-103358156D01*
X140109667Y-103309618D01*
X140150537Y-103261396D01*
X140219367Y-103238055D01*
X140238141Y-103237167D01*
X140304885Y-103249765D01*
G36*
X140485340Y-103245927D02*
X140487555Y-103266133D01*
X140487941Y-103303664D01*
X140503395Y-103357953D01*
X140506946Y-103366675D01*
X140537452Y-103438250D01*
X140572316Y-103357943D01*
X140591386Y-103303121D01*
X140596582Y-103263938D01*
X140594674Y-103257401D01*
X140602290Y-103242171D01*
X140631042Y-103237491D01*
X140660385Y-103243003D01*
X140658527Y-103253366D01*
X140638502Y-103280028D01*
X140609204Y-103332567D01*
X140586117Y-103380042D01*
X140551385Y-103447071D01*
X140523165Y-103485336D01*
X140504972Y-103491170D01*
X140500000Y-103469896D01*
X140491379Y-103440230D01*
X140469200Y-103386533D01*
X140448994Y-103342896D01*
X140397988Y-103237167D01*
X140448330Y-103237167D01*
X140485340Y-103245927D01*
X140485340Y-103245927D01*
G37*
X140485340Y-103245927D02*
X140487555Y-103266133D01*
X140487941Y-103303664D01*
X140503395Y-103357953D01*
X140506946Y-103366675D01*
X140537452Y-103438250D01*
X140572316Y-103357943D01*
X140591386Y-103303121D01*
X140596582Y-103263938D01*
X140594674Y-103257401D01*
X140602290Y-103242171D01*
X140631042Y-103237491D01*
X140660385Y-103243003D01*
X140658527Y-103253366D01*
X140638502Y-103280028D01*
X140609204Y-103332567D01*
X140586117Y-103380042D01*
X140551385Y-103447071D01*
X140523165Y-103485336D01*
X140504972Y-103491170D01*
X140500000Y-103469896D01*
X140491379Y-103440230D01*
X140469200Y-103386533D01*
X140448994Y-103342896D01*
X140397988Y-103237167D01*
X140448330Y-103237167D01*
X140485340Y-103245927D01*
G36*
X140889256Y-103257159D02*
X140901942Y-103268647D01*
X140920717Y-103312501D01*
X140901942Y-103345964D01*
X140850169Y-103363098D01*
X140828747Y-103364167D01*
X140773117Y-103371223D01*
X140754057Y-103393364D01*
X140754000Y-103395172D01*
X140772407Y-103431249D01*
X140816856Y-103456203D01*
X140871189Y-103462258D01*
X140887091Y-103459203D01*
X140916747Y-103452979D01*
X140909487Y-103462996D01*
X140902166Y-103468289D01*
X140838226Y-103489564D01*
X140769011Y-103476938D01*
X140743934Y-103462413D01*
X140714269Y-103417918D01*
X140705109Y-103355173D01*
X140715152Y-103305958D01*
X140758029Y-103305958D01*
X140762382Y-103332368D01*
X140795602Y-103342338D01*
X140817500Y-103343000D01*
X140863975Y-103337750D01*
X140878138Y-103318207D01*
X140876970Y-103305958D01*
X140851783Y-103275397D01*
X140817500Y-103268917D01*
X140771689Y-103282578D01*
X140758029Y-103305958D01*
X140715152Y-103305958D01*
X140717671Y-103293615D01*
X140731897Y-103270044D01*
X140777203Y-103243605D01*
X140836771Y-103239251D01*
X140889256Y-103257159D01*
X140889256Y-103257159D01*
G37*
X140889256Y-103257159D02*
X140901942Y-103268647D01*
X140920717Y-103312501D01*
X140901942Y-103345964D01*
X140850169Y-103363098D01*
X140828747Y-103364167D01*
X140773117Y-103371223D01*
X140754057Y-103393364D01*
X140754000Y-103395172D01*
X140772407Y-103431249D01*
X140816856Y-103456203D01*
X140871189Y-103462258D01*
X140887091Y-103459203D01*
X140916747Y-103452979D01*
X140909487Y-103462996D01*
X140902166Y-103468289D01*
X140838226Y-103489564D01*
X140769011Y-103476938D01*
X140743934Y-103462413D01*
X140714269Y-103417918D01*
X140705109Y-103355173D01*
X140715152Y-103305958D01*
X140758029Y-103305958D01*
X140762382Y-103332368D01*
X140795602Y-103342338D01*
X140817500Y-103343000D01*
X140863975Y-103337750D01*
X140878138Y-103318207D01*
X140876970Y-103305958D01*
X140851783Y-103275397D01*
X140817500Y-103268917D01*
X140771689Y-103282578D01*
X140758029Y-103305958D01*
X140715152Y-103305958D01*
X140717671Y-103293615D01*
X140731897Y-103270044D01*
X140777203Y-103243605D01*
X140836771Y-103239251D01*
X140889256Y-103257159D01*
G36*
X141296677Y-103113540D02*
X141320521Y-103127974D01*
X141325500Y-103156545D01*
X141323114Y-103188577D01*
X141310103Y-103181285D01*
X141297997Y-103165313D01*
X141258186Y-103138364D01*
X141206864Y-103133891D01*
X141161067Y-103150024D01*
X141138170Y-103182851D01*
X141148303Y-103228694D01*
X141190551Y-103263369D01*
X141254841Y-103279219D01*
X141265300Y-103279500D01*
X141318950Y-103295155D01*
X141347866Y-103334266D01*
X141350774Y-103385050D01*
X141326399Y-103435725D01*
X141285752Y-103468616D01*
X141229363Y-103486948D01*
X141168804Y-103490014D01*
X141120065Y-103478549D01*
X141100589Y-103460115D01*
X141096184Y-103415634D01*
X141099582Y-103401906D01*
X141109067Y-103392692D01*
X141112162Y-103411388D01*
X141131834Y-103443118D01*
X141176123Y-103463012D01*
X141227859Y-103466014D01*
X141259984Y-103454935D01*
X141286968Y-103418354D01*
X141293750Y-103384816D01*
X141286425Y-103352294D01*
X141257528Y-103330831D01*
X141198500Y-103313039D01*
X141137948Y-103294539D01*
X141107926Y-103271486D01*
X141096856Y-103234942D01*
X141096809Y-103234536D01*
X141106812Y-103170854D01*
X141151389Y-103128490D01*
X141226888Y-103110560D01*
X141242345Y-103110167D01*
X141296677Y-103113540D01*
X141296677Y-103113540D01*
G37*
X141296677Y-103113540D02*
X141320521Y-103127974D01*
X141325500Y-103156545D01*
X141323114Y-103188577D01*
X141310103Y-103181285D01*
X141297997Y-103165313D01*
X141258186Y-103138364D01*
X141206864Y-103133891D01*
X141161067Y-103150024D01*
X141138170Y-103182851D01*
X141148303Y-103228694D01*
X141190551Y-103263369D01*
X141254841Y-103279219D01*
X141265300Y-103279500D01*
X141318950Y-103295155D01*
X141347866Y-103334266D01*
X141350774Y-103385050D01*
X141326399Y-103435725D01*
X141285752Y-103468616D01*
X141229363Y-103486948D01*
X141168804Y-103490014D01*
X141120065Y-103478549D01*
X141100589Y-103460115D01*
X141096184Y-103415634D01*
X141099582Y-103401906D01*
X141109067Y-103392692D01*
X141112162Y-103411388D01*
X141131834Y-103443118D01*
X141176123Y-103463012D01*
X141227859Y-103466014D01*
X141259984Y-103454935D01*
X141286968Y-103418354D01*
X141293750Y-103384816D01*
X141286425Y-103352294D01*
X141257528Y-103330831D01*
X141198500Y-103313039D01*
X141137948Y-103294539D01*
X141107926Y-103271486D01*
X141096856Y-103234942D01*
X141096809Y-103234536D01*
X141106812Y-103170854D01*
X141151389Y-103128490D01*
X141226888Y-103110560D01*
X141242345Y-103110167D01*
X141296677Y-103113540D01*
G36*
X141467982Y-103168020D02*
X141473666Y-103202101D01*
X141487491Y-103249285D01*
X141510708Y-103264909D01*
X141536795Y-103272954D01*
X141521764Y-103276270D01*
X141510708Y-103277044D01*
X141486000Y-103296138D01*
X141472839Y-103338782D01*
X141471599Y-103389058D01*
X141482656Y-103431047D01*
X141506383Y-103448831D01*
X141506665Y-103448833D01*
X141528574Y-103459095D01*
X141526583Y-103470000D01*
X141494812Y-103489106D01*
X141453101Y-103486481D01*
X141425319Y-103463687D01*
X141425194Y-103463367D01*
X141420910Y-103422664D01*
X141425420Y-103378578D01*
X141425581Y-103326092D01*
X141412841Y-103293306D01*
X141400215Y-103261776D01*
X141404788Y-103249600D01*
X141418822Y-103216644D01*
X141420480Y-103200453D01*
X141434947Y-103165797D01*
X141447208Y-103157850D01*
X141467982Y-103168020D01*
X141467982Y-103168020D01*
G37*
X141467982Y-103168020D02*
X141473666Y-103202101D01*
X141487491Y-103249285D01*
X141510708Y-103264909D01*
X141536795Y-103272954D01*
X141521764Y-103276270D01*
X141510708Y-103277044D01*
X141486000Y-103296138D01*
X141472839Y-103338782D01*
X141471599Y-103389058D01*
X141482656Y-103431047D01*
X141506383Y-103448831D01*
X141506665Y-103448833D01*
X141528574Y-103459095D01*
X141526583Y-103470000D01*
X141494812Y-103489106D01*
X141453101Y-103486481D01*
X141425319Y-103463687D01*
X141425194Y-103463367D01*
X141420910Y-103422664D01*
X141425420Y-103378578D01*
X141425581Y-103326092D01*
X141412841Y-103293306D01*
X141400215Y-103261776D01*
X141404788Y-103249600D01*
X141418822Y-103216644D01*
X141420480Y-103200453D01*
X141434947Y-103165797D01*
X141447208Y-103157850D01*
X141467982Y-103168020D01*
G36*
X141802881Y-103254881D02*
X141811324Y-103309910D01*
X141812333Y-103351819D01*
X141817250Y-103427562D01*
X141831095Y-103470569D01*
X141838791Y-103477148D01*
X141842433Y-103485721D01*
X141817625Y-103489495D01*
X141780542Y-103481289D01*
X141770000Y-103465767D01*
X141763752Y-103451040D01*
X141744600Y-103465767D01*
X141705132Y-103486164D01*
X141657314Y-103489683D01*
X141620356Y-103476476D01*
X141612254Y-103464708D01*
X141605402Y-103428857D01*
X141597585Y-103368703D01*
X141594352Y-103337708D01*
X141591446Y-103273678D01*
X141599742Y-103243006D01*
X141613850Y-103237167D01*
X141632964Y-103252074D01*
X141641886Y-103300382D01*
X141643000Y-103340735D01*
X141650928Y-103418025D01*
X141674610Y-103456267D01*
X141713894Y-103455302D01*
X141738768Y-103440488D01*
X141763007Y-103408126D01*
X141768643Y-103353153D01*
X141766724Y-103325526D01*
X141765675Y-103264140D01*
X141778568Y-103238541D01*
X141785315Y-103237167D01*
X141802881Y-103254881D01*
X141802881Y-103254881D01*
G37*
X141802881Y-103254881D02*
X141811324Y-103309910D01*
X141812333Y-103351819D01*
X141817250Y-103427562D01*
X141831095Y-103470569D01*
X141838791Y-103477148D01*
X141842433Y-103485721D01*
X141817625Y-103489495D01*
X141780542Y-103481289D01*
X141770000Y-103465767D01*
X141763752Y-103451040D01*
X141744600Y-103465767D01*
X141705132Y-103486164D01*
X141657314Y-103489683D01*
X141620356Y-103476476D01*
X141612254Y-103464708D01*
X141605402Y-103428857D01*
X141597585Y-103368703D01*
X141594352Y-103337708D01*
X141591446Y-103273678D01*
X141599742Y-103243006D01*
X141613850Y-103237167D01*
X141632964Y-103252074D01*
X141641886Y-103300382D01*
X141643000Y-103340735D01*
X141650928Y-103418025D01*
X141674610Y-103456267D01*
X141713894Y-103455302D01*
X141738768Y-103440488D01*
X141763007Y-103408126D01*
X141768643Y-103353153D01*
X141766724Y-103325526D01*
X141765675Y-103264140D01*
X141778568Y-103238541D01*
X141785315Y-103237167D01*
X141802881Y-103254881D01*
G36*
X142140526Y-103108810D02*
X142147157Y-103161451D01*
X142152600Y-103238076D01*
X142154839Y-103290131D01*
X142156443Y-103393000D01*
X142152764Y-103457632D01*
X142143461Y-103487831D01*
X142136888Y-103491214D01*
X142107774Y-103474407D01*
X142102493Y-103464708D01*
X142088359Y-103448864D01*
X142064745Y-103464708D01*
X142011610Y-103489516D01*
X141954409Y-103476577D01*
X141930261Y-103457905D01*
X141897572Y-103400989D01*
X141899288Y-103351942D01*
X141939333Y-103351942D01*
X141954136Y-103409066D01*
X141990315Y-103441443D01*
X142035522Y-103445652D01*
X142077411Y-103418271D01*
X142092100Y-103394273D01*
X142105837Y-103337570D01*
X142094669Y-103304314D01*
X142052506Y-103267743D01*
X142003648Y-103264201D01*
X141961637Y-103289535D01*
X141940018Y-103339593D01*
X141939333Y-103351942D01*
X141899288Y-103351942D01*
X141899685Y-103340595D01*
X141931237Y-103286619D01*
X141986865Y-103248959D01*
X142049876Y-103237167D01*
X142093048Y-103230331D01*
X142107831Y-103202152D01*
X142108666Y-103184250D01*
X142099616Y-103144373D01*
X142082208Y-103131009D01*
X142075373Y-103122801D01*
X142092464Y-103106113D01*
X142119843Y-103091989D01*
X142133672Y-103089324D01*
X142140526Y-103108810D01*
X142140526Y-103108810D01*
G37*
X142140526Y-103108810D02*
X142147157Y-103161451D01*
X142152600Y-103238076D01*
X142154839Y-103290131D01*
X142156443Y-103393000D01*
X142152764Y-103457632D01*
X142143461Y-103487831D01*
X142136888Y-103491214D01*
X142107774Y-103474407D01*
X142102493Y-103464708D01*
X142088359Y-103448864D01*
X142064745Y-103464708D01*
X142011610Y-103489516D01*
X141954409Y-103476577D01*
X141930261Y-103457905D01*
X141897572Y-103400989D01*
X141899288Y-103351942D01*
X141939333Y-103351942D01*
X141954136Y-103409066D01*
X141990315Y-103441443D01*
X142035522Y-103445652D01*
X142077411Y-103418271D01*
X142092100Y-103394273D01*
X142105837Y-103337570D01*
X142094669Y-103304314D01*
X142052506Y-103267743D01*
X142003648Y-103264201D01*
X141961637Y-103289535D01*
X141940018Y-103339593D01*
X141939333Y-103351942D01*
X141899288Y-103351942D01*
X141899685Y-103340595D01*
X141931237Y-103286619D01*
X141986865Y-103248959D01*
X142049876Y-103237167D01*
X142093048Y-103230331D01*
X142107831Y-103202152D01*
X142108666Y-103184250D01*
X142099616Y-103144373D01*
X142082208Y-103131009D01*
X142075373Y-103122801D01*
X142092464Y-103106113D01*
X142119843Y-103091989D01*
X142133672Y-103089324D01*
X142140526Y-103108810D01*
G36*
X142297780Y-103246875D02*
X142304580Y-103282009D01*
X142302439Y-103332923D01*
X142303280Y-103402501D01*
X142315872Y-103452338D01*
X142320753Y-103459923D01*
X142332109Y-103480924D01*
X142313727Y-103489578D01*
X142275300Y-103490842D01*
X142230981Y-103486934D01*
X142227979Y-103475681D01*
X142232597Y-103472344D01*
X142250985Y-103440399D01*
X142255224Y-103374142D01*
X142253764Y-103345655D01*
X142251817Y-103279626D01*
X142259133Y-103246420D01*
X142277709Y-103237156D01*
X142278152Y-103237153D01*
X142297780Y-103246875D01*
X142297780Y-103246875D01*
G37*
X142297780Y-103246875D02*
X142304580Y-103282009D01*
X142302439Y-103332923D01*
X142303280Y-103402501D01*
X142315872Y-103452338D01*
X142320753Y-103459923D01*
X142332109Y-103480924D01*
X142313727Y-103489578D01*
X142275300Y-103490842D01*
X142230981Y-103486934D01*
X142227979Y-103475681D01*
X142232597Y-103472344D01*
X142250985Y-103440399D01*
X142255224Y-103374142D01*
X142253764Y-103345655D01*
X142251817Y-103279626D01*
X142259133Y-103246420D01*
X142277709Y-103237156D01*
X142278152Y-103237153D01*
X142297780Y-103246875D01*
G36*
X142581224Y-103254171D02*
X142622846Y-103297612D01*
X142636896Y-103356131D01*
X142619123Y-103418373D01*
X142595500Y-103448833D01*
X142535330Y-103484862D01*
X142471215Y-103485252D01*
X142418863Y-103452458D01*
X142387069Y-103391268D01*
X142388140Y-103369036D01*
X142433006Y-103369036D01*
X142450815Y-103424845D01*
X142483682Y-103460340D01*
X142513997Y-103466176D01*
X142561428Y-103444822D01*
X142581942Y-103423492D01*
X142595017Y-103368298D01*
X142577300Y-103312454D01*
X142536414Y-103272120D01*
X142505890Y-103262290D01*
X142460640Y-103265648D01*
X142438904Y-103296214D01*
X142436314Y-103305450D01*
X142433006Y-103369036D01*
X142388140Y-103369036D01*
X142390115Y-103328050D01*
X142422760Y-103274389D01*
X142479759Y-103241874D01*
X142516279Y-103237167D01*
X142581224Y-103254171D01*
X142581224Y-103254171D01*
G37*
X142581224Y-103254171D02*
X142622846Y-103297612D01*
X142636896Y-103356131D01*
X142619123Y-103418373D01*
X142595500Y-103448833D01*
X142535330Y-103484862D01*
X142471215Y-103485252D01*
X142418863Y-103452458D01*
X142387069Y-103391268D01*
X142388140Y-103369036D01*
X142433006Y-103369036D01*
X142450815Y-103424845D01*
X142483682Y-103460340D01*
X142513997Y-103466176D01*
X142561428Y-103444822D01*
X142581942Y-103423492D01*
X142595017Y-103368298D01*
X142577300Y-103312454D01*
X142536414Y-103272120D01*
X142505890Y-103262290D01*
X142460640Y-103265648D01*
X142438904Y-103296214D01*
X142436314Y-103305450D01*
X142433006Y-103369036D01*
X142388140Y-103369036D01*
X142390115Y-103328050D01*
X142422760Y-103274389D01*
X142479759Y-103241874D01*
X142516279Y-103237167D01*
X142581224Y-103254171D01*
G36*
X142828078Y-103245221D02*
X142847697Y-103269837D01*
X142847828Y-103274208D01*
X142842408Y-103294266D01*
X142835481Y-103284792D01*
X142808417Y-103264332D01*
X142773652Y-103258333D01*
X142732156Y-103268369D01*
X142723797Y-103291904D01*
X142746409Y-103319075D01*
X142791259Y-103338440D01*
X142846467Y-103365764D01*
X142867179Y-103403659D01*
X142856438Y-103443128D01*
X142817286Y-103475171D01*
X142752766Y-103490792D01*
X142739621Y-103491167D01*
X142695568Y-103483979D01*
X142680689Y-103456381D01*
X142680166Y-103444788D01*
X142682467Y-103412717D01*
X142695259Y-103419667D01*
X142708024Y-103436506D01*
X142746387Y-103463261D01*
X142789595Y-103462522D01*
X142820052Y-103436175D01*
X142823976Y-103424072D01*
X142813222Y-103394074D01*
X142764581Y-103374695D01*
X142706419Y-103350214D01*
X142684184Y-103313299D01*
X142701040Y-103269274D01*
X142701557Y-103268647D01*
X142739290Y-103244029D01*
X142786703Y-103236419D01*
X142828078Y-103245221D01*
X142828078Y-103245221D01*
G37*
X142828078Y-103245221D02*
X142847697Y-103269837D01*
X142847828Y-103274208D01*
X142842408Y-103294266D01*
X142835481Y-103284792D01*
X142808417Y-103264332D01*
X142773652Y-103258333D01*
X142732156Y-103268369D01*
X142723797Y-103291904D01*
X142746409Y-103319075D01*
X142791259Y-103338440D01*
X142846467Y-103365764D01*
X142867179Y-103403659D01*
X142856438Y-103443128D01*
X142817286Y-103475171D01*
X142752766Y-103490792D01*
X142739621Y-103491167D01*
X142695568Y-103483979D01*
X142680689Y-103456381D01*
X142680166Y-103444788D01*
X142682467Y-103412717D01*
X142695259Y-103419667D01*
X142708024Y-103436506D01*
X142746387Y-103463261D01*
X142789595Y-103462522D01*
X142820052Y-103436175D01*
X142823976Y-103424072D01*
X142813222Y-103394074D01*
X142764581Y-103374695D01*
X142706419Y-103350214D01*
X142684184Y-103313299D01*
X142701040Y-103269274D01*
X142701557Y-103268647D01*
X142739290Y-103244029D01*
X142786703Y-103236419D01*
X142828078Y-103245221D01*
G36*
X142301456Y-103136076D02*
X142302341Y-103141917D01*
X142285862Y-103166735D01*
X142279587Y-103169610D01*
X142260286Y-103159392D01*
X142256833Y-103141917D01*
X142267573Y-103115573D01*
X142279587Y-103114223D01*
X142301456Y-103136076D01*
X142301456Y-103136076D01*
G37*
X142301456Y-103136076D02*
X142302341Y-103141917D01*
X142285862Y-103166735D01*
X142279587Y-103169610D01*
X142260286Y-103159392D01*
X142256833Y-103141917D01*
X142267573Y-103115573D01*
X142279587Y-103114223D01*
X142301456Y-103136076D01*
G36*
X142365201Y-101913613D02*
X142454764Y-101938573D01*
X142471480Y-101945535D01*
X142583755Y-101978257D01*
X142712926Y-101987802D01*
X142840463Y-101974170D01*
X142931186Y-101945535D01*
X143016025Y-101918198D01*
X143108540Y-101904222D01*
X143126978Y-101903667D01*
X143230500Y-101903667D01*
X143230500Y-102377572D01*
X143230246Y-102532444D01*
X143229192Y-102650705D01*
X143226895Y-102738075D01*
X143222914Y-102800274D01*
X143216808Y-102843023D01*
X143208136Y-102872042D01*
X143196455Y-102893052D01*
X143190076Y-102901447D01*
X143175075Y-102918404D01*
X143157341Y-102931121D01*
X143130896Y-102940321D01*
X143089760Y-102946729D01*
X143027951Y-102951071D01*
X142939492Y-102954071D01*
X142818401Y-102956455D01*
X142724019Y-102957945D01*
X142298384Y-102964474D01*
X142172166Y-102838256D01*
X142172166Y-101903667D01*
X142275688Y-101903667D01*
X142365201Y-101913613D01*
X142365201Y-101913613D01*
G37*
X142365201Y-101913613D02*
X142454764Y-101938573D01*
X142471480Y-101945535D01*
X142583755Y-101978257D01*
X142712926Y-101987802D01*
X142840463Y-101974170D01*
X142931186Y-101945535D01*
X143016025Y-101918198D01*
X143108540Y-101904222D01*
X143126978Y-101903667D01*
X143230500Y-101903667D01*
X143230500Y-102377572D01*
X143230246Y-102532444D01*
X143229192Y-102650705D01*
X143226895Y-102738075D01*
X143222914Y-102800274D01*
X143216808Y-102843023D01*
X143208136Y-102872042D01*
X143196455Y-102893052D01*
X143190076Y-102901447D01*
X143175075Y-102918404D01*
X143157341Y-102931121D01*
X143130896Y-102940321D01*
X143089760Y-102946729D01*
X143027951Y-102951071D01*
X142939492Y-102954071D01*
X142818401Y-102956455D01*
X142724019Y-102957945D01*
X142298384Y-102964474D01*
X142172166Y-102838256D01*
X142172166Y-101903667D01*
X142275688Y-101903667D01*
X142365201Y-101913613D01*
G36*
X138417735Y-102088669D02*
X138488506Y-102136025D01*
X138532509Y-102215586D01*
X138550107Y-102327876D01*
X138548815Y-102401427D01*
X138540424Y-102484553D01*
X138525142Y-102539578D01*
X138498346Y-102580677D01*
X138486065Y-102593722D01*
X138419270Y-102636213D01*
X138334880Y-102658166D01*
X138252600Y-102655585D01*
X138224583Y-102646740D01*
X138158704Y-102603551D01*
X138116698Y-102537917D01*
X138094582Y-102442488D01*
X138090739Y-102399671D01*
X138091755Y-102365433D01*
X138214312Y-102365433D01*
X138222239Y-102472367D01*
X138244952Y-102554788D01*
X138280026Y-102606785D01*
X138319833Y-102622685D01*
X138344839Y-102612601D01*
X138353706Y-102607134D01*
X138396135Y-102554004D01*
X138419817Y-102463568D01*
X138425354Y-102365433D01*
X138417313Y-102250009D01*
X138393461Y-102172846D01*
X138353260Y-102132725D01*
X138319833Y-102125917D01*
X138269210Y-102143651D01*
X138235269Y-102197669D01*
X138217473Y-102289191D01*
X138214312Y-102365433D01*
X138091755Y-102365433D01*
X138094584Y-102270146D01*
X138124905Y-102173479D01*
X138181977Y-102109280D01*
X138266075Y-102077157D01*
X138319833Y-102073000D01*
X138417735Y-102088669D01*
X138417735Y-102088669D01*
G37*
X138417735Y-102088669D02*
X138488506Y-102136025D01*
X138532509Y-102215586D01*
X138550107Y-102327876D01*
X138548815Y-102401427D01*
X138540424Y-102484553D01*
X138525142Y-102539578D01*
X138498346Y-102580677D01*
X138486065Y-102593722D01*
X138419270Y-102636213D01*
X138334880Y-102658166D01*
X138252600Y-102655585D01*
X138224583Y-102646740D01*
X138158704Y-102603551D01*
X138116698Y-102537917D01*
X138094582Y-102442488D01*
X138090739Y-102399671D01*
X138091755Y-102365433D01*
X138214312Y-102365433D01*
X138222239Y-102472367D01*
X138244952Y-102554788D01*
X138280026Y-102606785D01*
X138319833Y-102622685D01*
X138344839Y-102612601D01*
X138353706Y-102607134D01*
X138396135Y-102554004D01*
X138419817Y-102463568D01*
X138425354Y-102365433D01*
X138417313Y-102250009D01*
X138393461Y-102172846D01*
X138353260Y-102132725D01*
X138319833Y-102125917D01*
X138269210Y-102143651D01*
X138235269Y-102197669D01*
X138217473Y-102289191D01*
X138214312Y-102365433D01*
X138091755Y-102365433D01*
X138094584Y-102270146D01*
X138124905Y-102173479D01*
X138181977Y-102109280D01*
X138266075Y-102077157D01*
X138319833Y-102073000D01*
X138417735Y-102088669D01*
G36*
X141542934Y-102162409D02*
X141613864Y-102172978D01*
X141651376Y-102196993D01*
X141663673Y-102240168D01*
X141663842Y-102246640D01*
X141660753Y-102269349D01*
X141643406Y-102269103D01*
X141604231Y-102248299D01*
X141550290Y-102228744D01*
X141502941Y-102229676D01*
X141475841Y-102249782D01*
X141473666Y-102260850D01*
X141489602Y-102282761D01*
X141531024Y-102319711D01*
X141578997Y-102356368D01*
X141658800Y-102426328D01*
X141698655Y-102494403D01*
X141700567Y-102564373D01*
X141696745Y-102578389D01*
X141667281Y-102619094D01*
X141607183Y-102643541D01*
X141511841Y-102653474D01*
X141497259Y-102653781D01*
X141435108Y-102650526D01*
X141400633Y-102634690D01*
X141382696Y-102607369D01*
X141369177Y-102562451D01*
X141384137Y-102548048D01*
X141428397Y-102563720D01*
X141446068Y-102573388D01*
X141511383Y-102598341D01*
X141555804Y-102592565D01*
X141576202Y-102563756D01*
X141569450Y-102519611D01*
X141532417Y-102467825D01*
X141500125Y-102440410D01*
X141419195Y-102373780D01*
X141375935Y-102317501D01*
X141368523Y-102266674D01*
X141395139Y-102216395D01*
X141410642Y-102199524D01*
X141456773Y-102169560D01*
X141521267Y-102161499D01*
X141542934Y-102162409D01*
X141542934Y-102162409D01*
G37*
X141542934Y-102162409D02*
X141613864Y-102172978D01*
X141651376Y-102196993D01*
X141663673Y-102240168D01*
X141663842Y-102246640D01*
X141660753Y-102269349D01*
X141643406Y-102269103D01*
X141604231Y-102248299D01*
X141550290Y-102228744D01*
X141502941Y-102229676D01*
X141475841Y-102249782D01*
X141473666Y-102260850D01*
X141489602Y-102282761D01*
X141531024Y-102319711D01*
X141578997Y-102356368D01*
X141658800Y-102426328D01*
X141698655Y-102494403D01*
X141700567Y-102564373D01*
X141696745Y-102578389D01*
X141667281Y-102619094D01*
X141607183Y-102643541D01*
X141511841Y-102653474D01*
X141497259Y-102653781D01*
X141435108Y-102650526D01*
X141400633Y-102634690D01*
X141382696Y-102607369D01*
X141369177Y-102562451D01*
X141384137Y-102548048D01*
X141428397Y-102563720D01*
X141446068Y-102573388D01*
X141511383Y-102598341D01*
X141555804Y-102592565D01*
X141576202Y-102563756D01*
X141569450Y-102519611D01*
X141532417Y-102467825D01*
X141500125Y-102440410D01*
X141419195Y-102373780D01*
X141375935Y-102317501D01*
X141368523Y-102266674D01*
X141395139Y-102216395D01*
X141410642Y-102199524D01*
X141456773Y-102169560D01*
X141521267Y-102161499D01*
X141542934Y-102162409D01*
G36*
X141928506Y-102166316D02*
X141993608Y-102180679D01*
X142028438Y-102212257D01*
X142031707Y-102218839D01*
X142042498Y-102264056D01*
X142026619Y-102279491D01*
X141990012Y-102260334D01*
X141985421Y-102256315D01*
X141936252Y-102226835D01*
X141890268Y-102222228D01*
X141860034Y-102241803D01*
X141854666Y-102263500D01*
X141861948Y-102297918D01*
X141872023Y-102305833D01*
X141896536Y-102318589D01*
X141941192Y-102351418D01*
X141977856Y-102381566D01*
X142032867Y-102434574D01*
X142059622Y-102479551D01*
X142066333Y-102527141D01*
X142056842Y-102583908D01*
X142033948Y-102623847D01*
X142033327Y-102624376D01*
X141999350Y-102637245D01*
X141940646Y-102647478D01*
X141872205Y-102653887D01*
X141809019Y-102655279D01*
X141766079Y-102650466D01*
X141757643Y-102646264D01*
X141750868Y-102620695D01*
X141748833Y-102585621D01*
X141751137Y-102550990D01*
X141765722Y-102546943D01*
X141803001Y-102569290D01*
X141864789Y-102595651D01*
X141917672Y-102593647D01*
X141950959Y-102564851D01*
X141956316Y-102546740D01*
X141949204Y-102511688D01*
X141914325Y-102471078D01*
X141855774Y-102425066D01*
X141793818Y-102376607D01*
X141761013Y-102338058D01*
X141749385Y-102298990D01*
X141748833Y-102285190D01*
X141766731Y-102221120D01*
X141817402Y-102180057D01*
X141896308Y-102165001D01*
X141928506Y-102166316D01*
X141928506Y-102166316D01*
G37*
X141928506Y-102166316D02*
X141993608Y-102180679D01*
X142028438Y-102212257D01*
X142031707Y-102218839D01*
X142042498Y-102264056D01*
X142026619Y-102279491D01*
X141990012Y-102260334D01*
X141985421Y-102256315D01*
X141936252Y-102226835D01*
X141890268Y-102222228D01*
X141860034Y-102241803D01*
X141854666Y-102263500D01*
X141861948Y-102297918D01*
X141872023Y-102305833D01*
X141896536Y-102318589D01*
X141941192Y-102351418D01*
X141977856Y-102381566D01*
X142032867Y-102434574D01*
X142059622Y-102479551D01*
X142066333Y-102527141D01*
X142056842Y-102583908D01*
X142033948Y-102623847D01*
X142033327Y-102624376D01*
X141999350Y-102637245D01*
X141940646Y-102647478D01*
X141872205Y-102653887D01*
X141809019Y-102655279D01*
X141766079Y-102650466D01*
X141757643Y-102646264D01*
X141750868Y-102620695D01*
X141748833Y-102585621D01*
X141751137Y-102550990D01*
X141765722Y-102546943D01*
X141803001Y-102569290D01*
X141864789Y-102595651D01*
X141917672Y-102593647D01*
X141950959Y-102564851D01*
X141956316Y-102546740D01*
X141949204Y-102511688D01*
X141914325Y-102471078D01*
X141855774Y-102425066D01*
X141793818Y-102376607D01*
X141761013Y-102338058D01*
X141749385Y-102298990D01*
X141748833Y-102285190D01*
X141766731Y-102221120D01*
X141817402Y-102180057D01*
X141896308Y-102165001D01*
X141928506Y-102166316D01*
G36*
X138019781Y-102040052D02*
X138033941Y-102064148D01*
X138012683Y-102094360D01*
X137995931Y-102129703D01*
X137984740Y-102195801D01*
X137979033Y-102281453D01*
X137978732Y-102375460D01*
X137983761Y-102466618D01*
X137994042Y-102543729D01*
X138009500Y-102595591D01*
X138016197Y-102605791D01*
X138032632Y-102626747D01*
X138029182Y-102638340D01*
X137998816Y-102643332D01*
X137934503Y-102644486D01*
X137917666Y-102644500D01*
X137845942Y-102643813D01*
X137809549Y-102639852D01*
X137801485Y-102629765D01*
X137814749Y-102610702D01*
X137820073Y-102604756D01*
X137838949Y-102574458D01*
X137848872Y-102529342D01*
X137851344Y-102459001D01*
X137849811Y-102398666D01*
X137843583Y-102232319D01*
X137772041Y-102344006D01*
X137731368Y-102400963D01*
X137696431Y-102438463D01*
X137676791Y-102448146D01*
X137652055Y-102428109D01*
X137612699Y-102384139D01*
X137579000Y-102341256D01*
X137504916Y-102241916D01*
X137498731Y-102413763D01*
X137496986Y-102502487D01*
X137500575Y-102558880D01*
X137511053Y-102592772D01*
X137529977Y-102613997D01*
X137530481Y-102614382D01*
X137548217Y-102631348D01*
X137539216Y-102640089D01*
X137497192Y-102643375D01*
X137463641Y-102643827D01*
X137402662Y-102642061D01*
X137378038Y-102634518D01*
X137383974Y-102619393D01*
X137384266Y-102619100D01*
X137394780Y-102588446D01*
X137402630Y-102526963D01*
X137407740Y-102444898D01*
X137410037Y-102352503D01*
X137409447Y-102260027D01*
X137405894Y-102177721D01*
X137399304Y-102115833D01*
X137389604Y-102084614D01*
X137388154Y-102083370D01*
X137374340Y-102061004D01*
X137393668Y-102040663D01*
X137437432Y-102030759D01*
X137442687Y-102030667D01*
X137480770Y-102041817D01*
X137525979Y-102078798D01*
X137584583Y-102146908D01*
X137593001Y-102157667D01*
X137642155Y-102218403D01*
X137682292Y-102263317D01*
X137705917Y-102284122D01*
X137707843Y-102284667D01*
X137726007Y-102267724D01*
X137757118Y-102223603D01*
X137789443Y-102170388D01*
X137836000Y-102096398D01*
X137876914Y-102053736D01*
X137922457Y-102034501D01*
X137971065Y-102030667D01*
X138019781Y-102040052D01*
X138019781Y-102040052D01*
G37*
X138019781Y-102040052D02*
X138033941Y-102064148D01*
X138012683Y-102094360D01*
X137995931Y-102129703D01*
X137984740Y-102195801D01*
X137979033Y-102281453D01*
X137978732Y-102375460D01*
X137983761Y-102466618D01*
X137994042Y-102543729D01*
X138009500Y-102595591D01*
X138016197Y-102605791D01*
X138032632Y-102626747D01*
X138029182Y-102638340D01*
X137998816Y-102643332D01*
X137934503Y-102644486D01*
X137917666Y-102644500D01*
X137845942Y-102643813D01*
X137809549Y-102639852D01*
X137801485Y-102629765D01*
X137814749Y-102610702D01*
X137820073Y-102604756D01*
X137838949Y-102574458D01*
X137848872Y-102529342D01*
X137851344Y-102459001D01*
X137849811Y-102398666D01*
X137843583Y-102232319D01*
X137772041Y-102344006D01*
X137731368Y-102400963D01*
X137696431Y-102438463D01*
X137676791Y-102448146D01*
X137652055Y-102428109D01*
X137612699Y-102384139D01*
X137579000Y-102341256D01*
X137504916Y-102241916D01*
X137498731Y-102413763D01*
X137496986Y-102502487D01*
X137500575Y-102558880D01*
X137511053Y-102592772D01*
X137529977Y-102613997D01*
X137530481Y-102614382D01*
X137548217Y-102631348D01*
X137539216Y-102640089D01*
X137497192Y-102643375D01*
X137463641Y-102643827D01*
X137402662Y-102642061D01*
X137378038Y-102634518D01*
X137383974Y-102619393D01*
X137384266Y-102619100D01*
X137394780Y-102588446D01*
X137402630Y-102526963D01*
X137407740Y-102444898D01*
X137410037Y-102352503D01*
X137409447Y-102260027D01*
X137405894Y-102177721D01*
X137399304Y-102115833D01*
X137389604Y-102084614D01*
X137388154Y-102083370D01*
X137374340Y-102061004D01*
X137393668Y-102040663D01*
X137437432Y-102030759D01*
X137442687Y-102030667D01*
X137480770Y-102041817D01*
X137525979Y-102078798D01*
X137584583Y-102146908D01*
X137593001Y-102157667D01*
X137642155Y-102218403D01*
X137682292Y-102263317D01*
X137705917Y-102284122D01*
X137707843Y-102284667D01*
X137726007Y-102267724D01*
X137757118Y-102223603D01*
X137789443Y-102170388D01*
X137836000Y-102096398D01*
X137876914Y-102053736D01*
X137922457Y-102034501D01*
X137971065Y-102030667D01*
X138019781Y-102040052D01*
G36*
X139324571Y-102034644D02*
X139400831Y-102047705D01*
X139445100Y-102071544D01*
X139462224Y-102107854D01*
X139462833Y-102118512D01*
X139460214Y-102147477D01*
X139444760Y-102148931D01*
X139408747Y-102127097D01*
X139345520Y-102102644D01*
X139287039Y-102098204D01*
X139241458Y-102106932D01*
X139222863Y-102130323D01*
X139219416Y-102178833D01*
X139223531Y-102229418D01*
X139244398Y-102252802D01*
X139291817Y-102263500D01*
X139339543Y-102277575D01*
X139370449Y-102298754D01*
X139377100Y-102319001D01*
X139353472Y-102330134D01*
X139306150Y-102335907D01*
X139293500Y-102337583D01*
X139246665Y-102343650D01*
X139235291Y-102345033D01*
X139217458Y-102365960D01*
X139208371Y-102413907D01*
X139207620Y-102474566D01*
X139214793Y-102533626D01*
X139229478Y-102576777D01*
X139242314Y-102589319D01*
X139306956Y-102601807D01*
X139371701Y-102595907D01*
X139417548Y-102573632D01*
X139420500Y-102570417D01*
X139451763Y-102547137D01*
X139485706Y-102537989D01*
X139504694Y-102547090D01*
X139505166Y-102550641D01*
X139496277Y-102576867D01*
X139483255Y-102603558D01*
X139469367Y-102621852D01*
X139445775Y-102633709D01*
X139404340Y-102640445D01*
X139336922Y-102643379D01*
X139235382Y-102643829D01*
X139234546Y-102643827D01*
X139134969Y-102642855D01*
X139072129Y-102640088D01*
X139040443Y-102634677D01*
X139034326Y-102625776D01*
X139044791Y-102615035D01*
X139061102Y-102596867D01*
X139071896Y-102566639D01*
X139078238Y-102516528D01*
X139081191Y-102438710D01*
X139081833Y-102342806D01*
X139080912Y-102234622D01*
X139077548Y-102161720D01*
X139070834Y-102117078D01*
X139059866Y-102093674D01*
X139048741Y-102085997D01*
X139021084Y-102068058D01*
X139031453Y-102052136D01*
X139075544Y-102039695D01*
X139149053Y-102032196D01*
X139211474Y-102030667D01*
X139324571Y-102034644D01*
X139324571Y-102034644D01*
G37*
X139324571Y-102034644D02*
X139400831Y-102047705D01*
X139445100Y-102071544D01*
X139462224Y-102107854D01*
X139462833Y-102118512D01*
X139460214Y-102147477D01*
X139444760Y-102148931D01*
X139408747Y-102127097D01*
X139345520Y-102102644D01*
X139287039Y-102098204D01*
X139241458Y-102106932D01*
X139222863Y-102130323D01*
X139219416Y-102178833D01*
X139223531Y-102229418D01*
X139244398Y-102252802D01*
X139291817Y-102263500D01*
X139339543Y-102277575D01*
X139370449Y-102298754D01*
X139377100Y-102319001D01*
X139353472Y-102330134D01*
X139306150Y-102335907D01*
X139293500Y-102337583D01*
X139246665Y-102343650D01*
X139235291Y-102345033D01*
X139217458Y-102365960D01*
X139208371Y-102413907D01*
X139207620Y-102474566D01*
X139214793Y-102533626D01*
X139229478Y-102576777D01*
X139242314Y-102589319D01*
X139306956Y-102601807D01*
X139371701Y-102595907D01*
X139417548Y-102573632D01*
X139420500Y-102570417D01*
X139451763Y-102547137D01*
X139485706Y-102537989D01*
X139504694Y-102547090D01*
X139505166Y-102550641D01*
X139496277Y-102576867D01*
X139483255Y-102603558D01*
X139469367Y-102621852D01*
X139445775Y-102633709D01*
X139404340Y-102640445D01*
X139336922Y-102643379D01*
X139235382Y-102643829D01*
X139234546Y-102643827D01*
X139134969Y-102642855D01*
X139072129Y-102640088D01*
X139040443Y-102634677D01*
X139034326Y-102625776D01*
X139044791Y-102615035D01*
X139061102Y-102596867D01*
X139071896Y-102566639D01*
X139078238Y-102516528D01*
X139081191Y-102438710D01*
X139081833Y-102342806D01*
X139080912Y-102234622D01*
X139077548Y-102161720D01*
X139070834Y-102117078D01*
X139059866Y-102093674D01*
X139048741Y-102085997D01*
X139021084Y-102068058D01*
X139031453Y-102052136D01*
X139075544Y-102039695D01*
X139149053Y-102032196D01*
X139211474Y-102030667D01*
X139324571Y-102034644D01*
G36*
X139929508Y-102162588D02*
X139946563Y-102181345D01*
X139928771Y-102219924D01*
X139910489Y-102244770D01*
X139860085Y-102315803D01*
X139836986Y-102368626D01*
X139838068Y-102414464D01*
X139853005Y-102451271D01*
X139888687Y-102509495D01*
X139934306Y-102571338D01*
X139940196Y-102578462D01*
X139995763Y-102644500D01*
X139886799Y-102644500D01*
X139818957Y-102640694D01*
X139790935Y-102629485D01*
X139791706Y-102622056D01*
X139793810Y-102588693D01*
X139780089Y-102538166D01*
X139778590Y-102534458D01*
X139751602Y-102469305D01*
X139713051Y-102516914D01*
X139679658Y-102573130D01*
X139680661Y-102614020D01*
X139700958Y-102630482D01*
X139697608Y-102636611D01*
X139660691Y-102640938D01*
X139621583Y-102642185D01*
X139561550Y-102640688D01*
X139540103Y-102633988D01*
X139550716Y-102622799D01*
X139581170Y-102593410D01*
X139620204Y-102540994D01*
X139642126Y-102506072D01*
X139698570Y-102409757D01*
X139643950Y-102316556D01*
X139608592Y-102260418D01*
X139579024Y-102220665D01*
X139568415Y-102210428D01*
X139546457Y-102186531D01*
X139563422Y-102168693D01*
X139616092Y-102158912D01*
X139653333Y-102157667D01*
X139713705Y-102161474D01*
X139752024Y-102171209D01*
X139759166Y-102178833D01*
X139743059Y-102199385D01*
X139738000Y-102200000D01*
X139718689Y-102212343D01*
X139733093Y-102249625D01*
X139750092Y-102273980D01*
X139776240Y-102301724D01*
X139794651Y-102295493D01*
X139802546Y-102284563D01*
X139814516Y-102239493D01*
X139811890Y-102205292D01*
X139809281Y-102173432D01*
X139828964Y-102160170D01*
X139875180Y-102157667D01*
X139929508Y-102162588D01*
X139929508Y-102162588D01*
G37*
X139929508Y-102162588D02*
X139946563Y-102181345D01*
X139928771Y-102219924D01*
X139910489Y-102244770D01*
X139860085Y-102315803D01*
X139836986Y-102368626D01*
X139838068Y-102414464D01*
X139853005Y-102451271D01*
X139888687Y-102509495D01*
X139934306Y-102571338D01*
X139940196Y-102578462D01*
X139995763Y-102644500D01*
X139886799Y-102644500D01*
X139818957Y-102640694D01*
X139790935Y-102629485D01*
X139791706Y-102622056D01*
X139793810Y-102588693D01*
X139780089Y-102538166D01*
X139778590Y-102534458D01*
X139751602Y-102469305D01*
X139713051Y-102516914D01*
X139679658Y-102573130D01*
X139680661Y-102614020D01*
X139700958Y-102630482D01*
X139697608Y-102636611D01*
X139660691Y-102640938D01*
X139621583Y-102642185D01*
X139561550Y-102640688D01*
X139540103Y-102633988D01*
X139550716Y-102622799D01*
X139581170Y-102593410D01*
X139620204Y-102540994D01*
X139642126Y-102506072D01*
X139698570Y-102409757D01*
X139643950Y-102316556D01*
X139608592Y-102260418D01*
X139579024Y-102220665D01*
X139568415Y-102210428D01*
X139546457Y-102186531D01*
X139563422Y-102168693D01*
X139616092Y-102158912D01*
X139653333Y-102157667D01*
X139713705Y-102161474D01*
X139752024Y-102171209D01*
X139759166Y-102178833D01*
X139743059Y-102199385D01*
X139738000Y-102200000D01*
X139718689Y-102212343D01*
X139733093Y-102249625D01*
X139750092Y-102273980D01*
X139776240Y-102301724D01*
X139794651Y-102295493D01*
X139802546Y-102284563D01*
X139814516Y-102239493D01*
X139811890Y-102205292D01*
X139809281Y-102173432D01*
X139828964Y-102160170D01*
X139875180Y-102157667D01*
X139929508Y-102162588D01*
G36*
X140283913Y-102175121D02*
X140324547Y-102192570D01*
X140376977Y-102223248D01*
X140401650Y-102258538D01*
X140410935Y-102316543D01*
X140411141Y-102319307D01*
X140410609Y-102381373D01*
X140392346Y-102421987D01*
X140359465Y-102452540D01*
X140302903Y-102483495D01*
X140250560Y-102490218D01*
X140215079Y-102472002D01*
X140209396Y-102460924D01*
X140220607Y-102439464D01*
X140250071Y-102429174D01*
X140286298Y-102413769D01*
X140302933Y-102373204D01*
X140305652Y-102352075D01*
X140299453Y-102279725D01*
X140267274Y-102234260D01*
X140222241Y-102221167D01*
X140203654Y-102224872D01*
X140191948Y-102241202D01*
X140185561Y-102277974D01*
X140182938Y-102343005D01*
X140182500Y-102420486D01*
X140184746Y-102526683D01*
X140191783Y-102594318D01*
X140204058Y-102626939D01*
X140208958Y-102630482D01*
X140204868Y-102636418D01*
X140167119Y-102640841D01*
X140119000Y-102642505D01*
X140055962Y-102640585D01*
X140027588Y-102633550D01*
X140030848Y-102625935D01*
X140044502Y-102605019D01*
X140052183Y-102559433D01*
X140054504Y-102482879D01*
X140053021Y-102398737D01*
X140046929Y-102189456D01*
X140145637Y-102171423D01*
X140221792Y-102163501D01*
X140283913Y-102175121D01*
X140283913Y-102175121D01*
G37*
X140283913Y-102175121D02*
X140324547Y-102192570D01*
X140376977Y-102223248D01*
X140401650Y-102258538D01*
X140410935Y-102316543D01*
X140411141Y-102319307D01*
X140410609Y-102381373D01*
X140392346Y-102421987D01*
X140359465Y-102452540D01*
X140302903Y-102483495D01*
X140250560Y-102490218D01*
X140215079Y-102472002D01*
X140209396Y-102460924D01*
X140220607Y-102439464D01*
X140250071Y-102429174D01*
X140286298Y-102413769D01*
X140302933Y-102373204D01*
X140305652Y-102352075D01*
X140299453Y-102279725D01*
X140267274Y-102234260D01*
X140222241Y-102221167D01*
X140203654Y-102224872D01*
X140191948Y-102241202D01*
X140185561Y-102277974D01*
X140182938Y-102343005D01*
X140182500Y-102420486D01*
X140184746Y-102526683D01*
X140191783Y-102594318D01*
X140204058Y-102626939D01*
X140208958Y-102630482D01*
X140204868Y-102636418D01*
X140167119Y-102640841D01*
X140119000Y-102642505D01*
X140055962Y-102640585D01*
X140027588Y-102633550D01*
X140030848Y-102625935D01*
X140044502Y-102605019D01*
X140052183Y-102559433D01*
X140054504Y-102482879D01*
X140053021Y-102398737D01*
X140046929Y-102189456D01*
X140145637Y-102171423D01*
X140221792Y-102163501D01*
X140283913Y-102175121D01*
G36*
X140757087Y-102181215D02*
X140819477Y-102213917D01*
X140854855Y-102261117D01*
X140858536Y-102316032D01*
X140825834Y-102371878D01*
X140817500Y-102379917D01*
X140785028Y-102417959D01*
X140780036Y-102455799D01*
X140804314Y-102502843D01*
X140851713Y-102559772D01*
X140928259Y-102644500D01*
X140853707Y-102644500D01*
X140806965Y-102639925D01*
X140771511Y-102620202D01*
X140734600Y-102576330D01*
X140713661Y-102545621D01*
X140672001Y-102480356D01*
X140653229Y-102440190D01*
X140655767Y-102415674D01*
X140678040Y-102397357D01*
X140688009Y-102391833D01*
X140728464Y-102353707D01*
X140743071Y-102305575D01*
X140733756Y-102260075D01*
X140702444Y-102229842D01*
X140662609Y-102225174D01*
X140639846Y-102231705D01*
X140625563Y-102249186D01*
X140617269Y-102286334D01*
X140612471Y-102351866D01*
X140610235Y-102408426D01*
X140609973Y-102511974D01*
X140617125Y-102583329D01*
X140628702Y-102614801D01*
X140637029Y-102632645D01*
X140618788Y-102641615D01*
X140566878Y-102644434D01*
X140551275Y-102644500D01*
X140491433Y-102642271D01*
X140467950Y-102634304D01*
X140474600Y-102619100D01*
X140487692Y-102584843D01*
X140496120Y-102521561D01*
X140499845Y-102442251D01*
X140498828Y-102359912D01*
X140493030Y-102287541D01*
X140482412Y-102238136D01*
X140475771Y-102226572D01*
X140473525Y-102205390D01*
X140508454Y-102187893D01*
X140575456Y-102175554D01*
X140669430Y-102169847D01*
X140672372Y-102169798D01*
X140757087Y-102181215D01*
X140757087Y-102181215D01*
G37*
X140757087Y-102181215D02*
X140819477Y-102213917D01*
X140854855Y-102261117D01*
X140858536Y-102316032D01*
X140825834Y-102371878D01*
X140817500Y-102379917D01*
X140785028Y-102417959D01*
X140780036Y-102455799D01*
X140804314Y-102502843D01*
X140851713Y-102559772D01*
X140928259Y-102644500D01*
X140853707Y-102644500D01*
X140806965Y-102639925D01*
X140771511Y-102620202D01*
X140734600Y-102576330D01*
X140713661Y-102545621D01*
X140672001Y-102480356D01*
X140653229Y-102440190D01*
X140655767Y-102415674D01*
X140678040Y-102397357D01*
X140688009Y-102391833D01*
X140728464Y-102353707D01*
X140743071Y-102305575D01*
X140733756Y-102260075D01*
X140702444Y-102229842D01*
X140662609Y-102225174D01*
X140639846Y-102231705D01*
X140625563Y-102249186D01*
X140617269Y-102286334D01*
X140612471Y-102351866D01*
X140610235Y-102408426D01*
X140609973Y-102511974D01*
X140617125Y-102583329D01*
X140628702Y-102614801D01*
X140637029Y-102632645D01*
X140618788Y-102641615D01*
X140566878Y-102644434D01*
X140551275Y-102644500D01*
X140491433Y-102642271D01*
X140467950Y-102634304D01*
X140474600Y-102619100D01*
X140487692Y-102584843D01*
X140496120Y-102521561D01*
X140499845Y-102442251D01*
X140498828Y-102359912D01*
X140493030Y-102287541D01*
X140482412Y-102238136D01*
X140475771Y-102226572D01*
X140473525Y-102205390D01*
X140508454Y-102187893D01*
X140575456Y-102175554D01*
X140669430Y-102169847D01*
X140672372Y-102169798D01*
X140757087Y-102181215D01*
G36*
X141187621Y-102162334D02*
X141248313Y-102173206D01*
X141282917Y-102189162D01*
X141283591Y-102189928D01*
X141301026Y-102224050D01*
X141285544Y-102236552D01*
X141244037Y-102222881D01*
X141183607Y-102202441D01*
X141133112Y-102205876D01*
X141107053Y-102229472D01*
X141099364Y-102289839D01*
X141125791Y-102330845D01*
X141164607Y-102344402D01*
X141203480Y-102359471D01*
X141212595Y-102383035D01*
X141189451Y-102401432D01*
X141175511Y-102403933D01*
X141127597Y-102408360D01*
X141117907Y-102409225D01*
X141099711Y-102427850D01*
X141095637Y-102481836D01*
X141096741Y-102501625D01*
X141103445Y-102558481D01*
X141119318Y-102585769D01*
X141154477Y-102596244D01*
X141173424Y-102598319D01*
X141231279Y-102595692D01*
X141273742Y-102580020D01*
X141274477Y-102579428D01*
X141309154Y-102564200D01*
X141323914Y-102583222D01*
X141318195Y-102611837D01*
X141303627Y-102628082D01*
X141269963Y-102637836D01*
X141209358Y-102642325D01*
X141119789Y-102642829D01*
X141040876Y-102641004D01*
X140984750Y-102637510D01*
X140959239Y-102632954D01*
X140960375Y-102630482D01*
X140972105Y-102606536D01*
X140980682Y-102552590D01*
X140986007Y-102479412D01*
X140987978Y-102397770D01*
X140986493Y-102318433D01*
X140981451Y-102252168D01*
X140972752Y-102209745D01*
X140964417Y-102200000D01*
X140951775Y-102187032D01*
X140955083Y-102178833D01*
X140984574Y-102164794D01*
X141042198Y-102157670D01*
X141114398Y-102157002D01*
X141187621Y-102162334D01*
X141187621Y-102162334D01*
G37*
X141187621Y-102162334D02*
X141248313Y-102173206D01*
X141282917Y-102189162D01*
X141283591Y-102189928D01*
X141301026Y-102224050D01*
X141285544Y-102236552D01*
X141244037Y-102222881D01*
X141183607Y-102202441D01*
X141133112Y-102205876D01*
X141107053Y-102229472D01*
X141099364Y-102289839D01*
X141125791Y-102330845D01*
X141164607Y-102344402D01*
X141203480Y-102359471D01*
X141212595Y-102383035D01*
X141189451Y-102401432D01*
X141175511Y-102403933D01*
X141127597Y-102408360D01*
X141117907Y-102409225D01*
X141099711Y-102427850D01*
X141095637Y-102481836D01*
X141096741Y-102501625D01*
X141103445Y-102558481D01*
X141119318Y-102585769D01*
X141154477Y-102596244D01*
X141173424Y-102598319D01*
X141231279Y-102595692D01*
X141273742Y-102580020D01*
X141274477Y-102579428D01*
X141309154Y-102564200D01*
X141323914Y-102583222D01*
X141318195Y-102611837D01*
X141303627Y-102628082D01*
X141269963Y-102637836D01*
X141209358Y-102642325D01*
X141119789Y-102642829D01*
X141040876Y-102641004D01*
X140984750Y-102637510D01*
X140959239Y-102632954D01*
X140960375Y-102630482D01*
X140972105Y-102606536D01*
X140980682Y-102552590D01*
X140986007Y-102479412D01*
X140987978Y-102397770D01*
X140986493Y-102318433D01*
X140981451Y-102252168D01*
X140972752Y-102209745D01*
X140964417Y-102200000D01*
X140951775Y-102187032D01*
X140955083Y-102178833D01*
X140984574Y-102164794D01*
X141042198Y-102157670D01*
X141114398Y-102157002D01*
X141187621Y-102162334D01*
G36*
X142797716Y-101907030D02*
X142859910Y-101911506D01*
X142885986Y-101918053D01*
X142881250Y-101923475D01*
X142785835Y-101947676D01*
X142676485Y-101954394D01*
X142586172Y-101943822D01*
X142531226Y-101928913D01*
X142496681Y-101916313D01*
X142492686Y-101913742D01*
X142508064Y-101909729D01*
X142557519Y-101906739D01*
X142632798Y-101905114D01*
X142703097Y-101905008D01*
X142797716Y-101907030D01*
X142797716Y-101907030D01*
G37*
X142797716Y-101907030D02*
X142859910Y-101911506D01*
X142885986Y-101918053D01*
X142881250Y-101923475D01*
X142785835Y-101947676D01*
X142676485Y-101954394D01*
X142586172Y-101943822D01*
X142531226Y-101928913D01*
X142496681Y-101916313D01*
X142492686Y-101913742D01*
X142508064Y-101909729D01*
X142557519Y-101906739D01*
X142632798Y-101905114D01*
X142703097Y-101905008D01*
X142797716Y-101907030D01*
G36*
X137689580Y-101322210D02*
X137722614Y-101335736D01*
X137739660Y-101365060D01*
X137745532Y-101385083D01*
X137751421Y-101437729D01*
X137734471Y-101456547D01*
X137697468Y-101439222D01*
X137688900Y-101432092D01*
X137625905Y-101392667D01*
X137569860Y-101386967D01*
X137534487Y-101408875D01*
X137520122Y-101434202D01*
X137529814Y-101458341D01*
X137568928Y-101492475D01*
X137577880Y-101499311D01*
X137672039Y-101574366D01*
X137734953Y-101635038D01*
X137771967Y-101688232D01*
X137788429Y-101740852D01*
X137790666Y-101774062D01*
X137777271Y-101849756D01*
X137735249Y-101898059D01*
X137661844Y-101920955D01*
X137584391Y-101922641D01*
X137519595Y-101922043D01*
X137471874Y-101926722D01*
X137459558Y-101930745D01*
X137427748Y-101929956D01*
X137413055Y-101919755D01*
X137394678Y-101881422D01*
X137388500Y-101836244D01*
X137388500Y-101777289D01*
X137457291Y-101819232D01*
X137537472Y-101854747D01*
X137602470Y-101856044D01*
X137641657Y-101830599D01*
X137658422Y-101786656D01*
X137638104Y-101737246D01*
X137579291Y-101680080D01*
X137524670Y-101640926D01*
X137437767Y-101573379D01*
X137390150Y-101510654D01*
X137379661Y-101448960D01*
X137391737Y-101407597D01*
X137439699Y-101352214D01*
X137521549Y-101322141D01*
X137627389Y-101316879D01*
X137689580Y-101322210D01*
X137689580Y-101322210D01*
G37*
X137689580Y-101322210D02*
X137722614Y-101335736D01*
X137739660Y-101365060D01*
X137745532Y-101385083D01*
X137751421Y-101437729D01*
X137734471Y-101456547D01*
X137697468Y-101439222D01*
X137688900Y-101432092D01*
X137625905Y-101392667D01*
X137569860Y-101386967D01*
X137534487Y-101408875D01*
X137520122Y-101434202D01*
X137529814Y-101458341D01*
X137568928Y-101492475D01*
X137577880Y-101499311D01*
X137672039Y-101574366D01*
X137734953Y-101635038D01*
X137771967Y-101688232D01*
X137788429Y-101740852D01*
X137790666Y-101774062D01*
X137777271Y-101849756D01*
X137735249Y-101898059D01*
X137661844Y-101920955D01*
X137584391Y-101922641D01*
X137519595Y-101922043D01*
X137471874Y-101926722D01*
X137459558Y-101930745D01*
X137427748Y-101929956D01*
X137413055Y-101919755D01*
X137394678Y-101881422D01*
X137388500Y-101836244D01*
X137388500Y-101777289D01*
X137457291Y-101819232D01*
X137537472Y-101854747D01*
X137602470Y-101856044D01*
X137641657Y-101830599D01*
X137658422Y-101786656D01*
X137638104Y-101737246D01*
X137579291Y-101680080D01*
X137524670Y-101640926D01*
X137437767Y-101573379D01*
X137390150Y-101510654D01*
X137379661Y-101448960D01*
X137391737Y-101407597D01*
X137439699Y-101352214D01*
X137521549Y-101322141D01*
X137627389Y-101316879D01*
X137689580Y-101322210D01*
G36*
X138126081Y-101442209D02*
X138191539Y-101456170D01*
X138226084Y-101481885D01*
X138235166Y-101516804D01*
X138227128Y-101531769D01*
X138197726Y-101519915D01*
X138183180Y-101510747D01*
X138139054Y-101490453D01*
X138109097Y-101490341D01*
X138097591Y-101517840D01*
X138090276Y-101575543D01*
X138087058Y-101651537D01*
X138087841Y-101733909D01*
X138092526Y-101810749D01*
X138101020Y-101870144D01*
X138112400Y-101899433D01*
X138119028Y-101915010D01*
X138094789Y-101922811D01*
X138038316Y-101924833D01*
X137980060Y-101920797D01*
X137944251Y-101910541D01*
X137938833Y-101903667D01*
X137954940Y-101883115D01*
X137960000Y-101882500D01*
X137970132Y-101862513D01*
X137977362Y-101807167D01*
X137980926Y-101723379D01*
X137981166Y-101691336D01*
X137977690Y-101583381D01*
X137966233Y-101514686D01*
X137945251Y-101482670D01*
X137913199Y-101484751D01*
X137874415Y-101512914D01*
X137835171Y-101538621D01*
X137818615Y-101530534D01*
X137830310Y-101493146D01*
X137836624Y-101482394D01*
X137856246Y-101459343D01*
X137886257Y-101445909D01*
X137937113Y-101439620D01*
X138019274Y-101438002D01*
X138024358Y-101438000D01*
X138126081Y-101442209D01*
X138126081Y-101442209D01*
G37*
X138126081Y-101442209D02*
X138191539Y-101456170D01*
X138226084Y-101481885D01*
X138235166Y-101516804D01*
X138227128Y-101531769D01*
X138197726Y-101519915D01*
X138183180Y-101510747D01*
X138139054Y-101490453D01*
X138109097Y-101490341D01*
X138097591Y-101517840D01*
X138090276Y-101575543D01*
X138087058Y-101651537D01*
X138087841Y-101733909D01*
X138092526Y-101810749D01*
X138101020Y-101870144D01*
X138112400Y-101899433D01*
X138119028Y-101915010D01*
X138094789Y-101922811D01*
X138038316Y-101924833D01*
X137980060Y-101920797D01*
X137944251Y-101910541D01*
X137938833Y-101903667D01*
X137954940Y-101883115D01*
X137960000Y-101882500D01*
X137970132Y-101862513D01*
X137977362Y-101807167D01*
X137980926Y-101723379D01*
X137981166Y-101691336D01*
X137977690Y-101583381D01*
X137966233Y-101514686D01*
X137945251Y-101482670D01*
X137913199Y-101484751D01*
X137874415Y-101512914D01*
X137835171Y-101538621D01*
X137818615Y-101530534D01*
X137830310Y-101493146D01*
X137836624Y-101482394D01*
X137856246Y-101459343D01*
X137886257Y-101445909D01*
X137937113Y-101439620D01*
X138019274Y-101438002D01*
X138024358Y-101438000D01*
X138126081Y-101442209D01*
G36*
X138530369Y-101445291D02*
X138541684Y-101447112D01*
X138609304Y-101476014D01*
X138649261Y-101525567D01*
X138657857Y-101585188D01*
X138631393Y-101644293D01*
X138616166Y-101660250D01*
X138582848Y-101699722D01*
X138579401Y-101738108D01*
X138607595Y-101784766D01*
X138647916Y-101828172D01*
X138690720Y-101873313D01*
X138717478Y-101906029D01*
X138722000Y-101914885D01*
X138703613Y-101921685D01*
X138658787Y-101921379D01*
X138653208Y-101920883D01*
X138607320Y-101909549D01*
X138567681Y-101879677D01*
X138523002Y-101822193D01*
X138514205Y-101809191D01*
X138443994Y-101704131D01*
X138498330Y-101664550D01*
X138539070Y-101617611D01*
X138551775Y-101564916D01*
X138534971Y-101520054D01*
X138515625Y-101505105D01*
X138476136Y-101490867D01*
X138449852Y-101499747D01*
X138434324Y-101536763D01*
X138427104Y-101606931D01*
X138425666Y-101689530D01*
X138428739Y-101791866D01*
X138437481Y-101863837D01*
X138451066Y-101899433D01*
X138457027Y-101914376D01*
X138433010Y-101922275D01*
X138373242Y-101924810D01*
X138363808Y-101924833D01*
X138299921Y-101923299D01*
X138271081Y-101916971D01*
X138270060Y-101903258D01*
X138276973Y-101893718D01*
X138290662Y-101854672D01*
X138296773Y-101778330D01*
X138295480Y-101662493D01*
X138295439Y-101661371D01*
X138288083Y-101460139D01*
X138377900Y-101446687D01*
X138455303Y-101441286D01*
X138530369Y-101445291D01*
X138530369Y-101445291D01*
G37*
X138530369Y-101445291D02*
X138541684Y-101447112D01*
X138609304Y-101476014D01*
X138649261Y-101525567D01*
X138657857Y-101585188D01*
X138631393Y-101644293D01*
X138616166Y-101660250D01*
X138582848Y-101699722D01*
X138579401Y-101738108D01*
X138607595Y-101784766D01*
X138647916Y-101828172D01*
X138690720Y-101873313D01*
X138717478Y-101906029D01*
X138722000Y-101914885D01*
X138703613Y-101921685D01*
X138658787Y-101921379D01*
X138653208Y-101920883D01*
X138607320Y-101909549D01*
X138567681Y-101879677D01*
X138523002Y-101822193D01*
X138514205Y-101809191D01*
X138443994Y-101704131D01*
X138498330Y-101664550D01*
X138539070Y-101617611D01*
X138551775Y-101564916D01*
X138534971Y-101520054D01*
X138515625Y-101505105D01*
X138476136Y-101490867D01*
X138449852Y-101499747D01*
X138434324Y-101536763D01*
X138427104Y-101606931D01*
X138425666Y-101689530D01*
X138428739Y-101791866D01*
X138437481Y-101863837D01*
X138451066Y-101899433D01*
X138457027Y-101914376D01*
X138433010Y-101922275D01*
X138373242Y-101924810D01*
X138363808Y-101924833D01*
X138299921Y-101923299D01*
X138271081Y-101916971D01*
X138270060Y-101903258D01*
X138276973Y-101893718D01*
X138290662Y-101854672D01*
X138296773Y-101778330D01*
X138295480Y-101662493D01*
X138295439Y-101661371D01*
X138288083Y-101460139D01*
X138377900Y-101446687D01*
X138455303Y-101441286D01*
X138530369Y-101445291D01*
G36*
X138922540Y-101440284D02*
X138944915Y-101448465D01*
X138937899Y-101463400D01*
X138925065Y-101497430D01*
X138916593Y-101561336D01*
X138912482Y-101642886D01*
X138912734Y-101729848D01*
X138917347Y-101809989D01*
X138926321Y-101871077D01*
X138937900Y-101899433D01*
X138944528Y-101915010D01*
X138920289Y-101922811D01*
X138863816Y-101924833D01*
X138805557Y-101921035D01*
X138769748Y-101911383D01*
X138764333Y-101904916D01*
X138779719Y-101876249D01*
X138785500Y-101871917D01*
X138795196Y-101846083D01*
X138802556Y-101788700D01*
X138806383Y-101710534D01*
X138806666Y-101681417D01*
X138804299Y-101598675D01*
X138797996Y-101533089D01*
X138788952Y-101495427D01*
X138785500Y-101490917D01*
X138763422Y-101466824D01*
X138780054Y-101448747D01*
X138831928Y-101439027D01*
X138863816Y-101438000D01*
X138922540Y-101440284D01*
X138922540Y-101440284D01*
G37*
X138922540Y-101440284D02*
X138944915Y-101448465D01*
X138937899Y-101463400D01*
X138925065Y-101497430D01*
X138916593Y-101561336D01*
X138912482Y-101642886D01*
X138912734Y-101729848D01*
X138917347Y-101809989D01*
X138926321Y-101871077D01*
X138937900Y-101899433D01*
X138944528Y-101915010D01*
X138920289Y-101922811D01*
X138863816Y-101924833D01*
X138805557Y-101921035D01*
X138769748Y-101911383D01*
X138764333Y-101904916D01*
X138779719Y-101876249D01*
X138785500Y-101871917D01*
X138795196Y-101846083D01*
X138802556Y-101788700D01*
X138806383Y-101710534D01*
X138806666Y-101681417D01*
X138804299Y-101598675D01*
X138797996Y-101533089D01*
X138788952Y-101495427D01*
X138785500Y-101490917D01*
X138763422Y-101466824D01*
X138780054Y-101448747D01*
X138831928Y-101439027D01*
X138863816Y-101438000D01*
X138922540Y-101440284D01*
G36*
X139075266Y-101443403D02*
X139110620Y-101463981D01*
X139153258Y-101506291D01*
X139211236Y-101576888D01*
X139213767Y-101580112D01*
X139325250Y-101722224D01*
X139331822Y-101619492D01*
X139331361Y-101554706D01*
X139322738Y-101506797D01*
X139315947Y-101494314D01*
X139294730Y-101461109D01*
X139312834Y-101442601D01*
X139357000Y-101438000D01*
X139407328Y-101445536D01*
X139419616Y-101466917D01*
X139404625Y-101489177D01*
X139397772Y-101516012D01*
X139392406Y-101575034D01*
X139389264Y-101656105D01*
X139388750Y-101707704D01*
X139386119Y-101819016D01*
X139378269Y-101889377D01*
X139365260Y-101918267D01*
X139364302Y-101918676D01*
X139341966Y-101906401D01*
X139301727Y-101866601D01*
X139250207Y-101806256D01*
X139216135Y-101762430D01*
X139092416Y-101597839D01*
X139086067Y-101731434D01*
X139086411Y-101815395D01*
X139095405Y-101875145D01*
X139104533Y-101894931D01*
X139113978Y-101914334D01*
X139094440Y-101923037D01*
X139048441Y-101924833D01*
X138998241Y-101922049D01*
X138984384Y-101911951D01*
X138992933Y-101899433D01*
X139004177Y-101869119D01*
X139012299Y-101810975D01*
X139017186Y-101735894D01*
X139018731Y-101654766D01*
X139016823Y-101578483D01*
X139011351Y-101517937D01*
X139002205Y-101484019D01*
X138997166Y-101480333D01*
X138976615Y-101464226D01*
X138976000Y-101459167D01*
X138994384Y-101444272D01*
X139038647Y-101438000D01*
X139039142Y-101438000D01*
X139075266Y-101443403D01*
X139075266Y-101443403D01*
G37*
X139075266Y-101443403D02*
X139110620Y-101463981D01*
X139153258Y-101506291D01*
X139211236Y-101576888D01*
X139213767Y-101580112D01*
X139325250Y-101722224D01*
X139331822Y-101619492D01*
X139331361Y-101554706D01*
X139322738Y-101506797D01*
X139315947Y-101494314D01*
X139294730Y-101461109D01*
X139312834Y-101442601D01*
X139357000Y-101438000D01*
X139407328Y-101445536D01*
X139419616Y-101466917D01*
X139404625Y-101489177D01*
X139397772Y-101516012D01*
X139392406Y-101575034D01*
X139389264Y-101656105D01*
X139388750Y-101707704D01*
X139386119Y-101819016D01*
X139378269Y-101889377D01*
X139365260Y-101918267D01*
X139364302Y-101918676D01*
X139341966Y-101906401D01*
X139301727Y-101866601D01*
X139250207Y-101806256D01*
X139216135Y-101762430D01*
X139092416Y-101597839D01*
X139086067Y-101731434D01*
X139086411Y-101815395D01*
X139095405Y-101875145D01*
X139104533Y-101894931D01*
X139113978Y-101914334D01*
X139094440Y-101923037D01*
X139048441Y-101924833D01*
X138998241Y-101922049D01*
X138984384Y-101911951D01*
X138992933Y-101899433D01*
X139004177Y-101869119D01*
X139012299Y-101810975D01*
X139017186Y-101735894D01*
X139018731Y-101654766D01*
X139016823Y-101578483D01*
X139011351Y-101517937D01*
X139002205Y-101484019D01*
X138997166Y-101480333D01*
X138976615Y-101464226D01*
X138976000Y-101459167D01*
X138994384Y-101444272D01*
X139038647Y-101438000D01*
X139039142Y-101438000D01*
X139075266Y-101443403D01*
G36*
X139779175Y-101440877D02*
X139814801Y-101452390D01*
X139832024Y-101476862D01*
X139833756Y-101481928D01*
X139841275Y-101523522D01*
X139825004Y-101534997D01*
X139781078Y-101517737D01*
X139762438Y-101507452D01*
X139708738Y-101483793D01*
X139669854Y-101487210D01*
X139659030Y-101492994D01*
X139603526Y-101551432D01*
X139576642Y-101637047D01*
X139576275Y-101712331D01*
X139593838Y-101784020D01*
X139625971Y-101838224D01*
X139665407Y-101871260D01*
X139704875Y-101879449D01*
X139737107Y-101859109D01*
X139754834Y-101806558D01*
X139755216Y-101802951D01*
X139753746Y-101755705D01*
X139740833Y-101734477D01*
X139739341Y-101734333D01*
X139717714Y-101719020D01*
X139716833Y-101713167D01*
X139735552Y-101699654D01*
X139782062Y-101692395D01*
X139797593Y-101692000D01*
X139878353Y-101692000D01*
X139874277Y-101781958D01*
X139865669Y-101845949D01*
X139842711Y-101883019D01*
X139819975Y-101898063D01*
X139747336Y-101918769D01*
X139660754Y-101920727D01*
X139584363Y-101903681D01*
X139577560Y-101900607D01*
X139520352Y-101851411D01*
X139480039Y-101774007D01*
X139463010Y-101681197D01*
X139462833Y-101670742D01*
X139469365Y-101605934D01*
X139495046Y-101554490D01*
X139534800Y-101509967D01*
X139585784Y-101465122D01*
X139633652Y-101443958D01*
X139699219Y-101438082D01*
X139713290Y-101438000D01*
X139779175Y-101440877D01*
X139779175Y-101440877D01*
G37*
X139779175Y-101440877D02*
X139814801Y-101452390D01*
X139832024Y-101476862D01*
X139833756Y-101481928D01*
X139841275Y-101523522D01*
X139825004Y-101534997D01*
X139781078Y-101517737D01*
X139762438Y-101507452D01*
X139708738Y-101483793D01*
X139669854Y-101487210D01*
X139659030Y-101492994D01*
X139603526Y-101551432D01*
X139576642Y-101637047D01*
X139576275Y-101712331D01*
X139593838Y-101784020D01*
X139625971Y-101838224D01*
X139665407Y-101871260D01*
X139704875Y-101879449D01*
X139737107Y-101859109D01*
X139754834Y-101806558D01*
X139755216Y-101802951D01*
X139753746Y-101755705D01*
X139740833Y-101734477D01*
X139739341Y-101734333D01*
X139717714Y-101719020D01*
X139716833Y-101713167D01*
X139735552Y-101699654D01*
X139782062Y-101692395D01*
X139797593Y-101692000D01*
X139878353Y-101692000D01*
X139874277Y-101781958D01*
X139865669Y-101845949D01*
X139842711Y-101883019D01*
X139819975Y-101898063D01*
X139747336Y-101918769D01*
X139660754Y-101920727D01*
X139584363Y-101903681D01*
X139577560Y-101900607D01*
X139520352Y-101851411D01*
X139480039Y-101774007D01*
X139463010Y-101681197D01*
X139462833Y-101670742D01*
X139469365Y-101605934D01*
X139495046Y-101554490D01*
X139534800Y-101509967D01*
X139585784Y-101465122D01*
X139633652Y-101443958D01*
X139699219Y-101438082D01*
X139713290Y-101438000D01*
X139779175Y-101440877D01*
G36*
X140302959Y-101324230D02*
X140337894Y-101339921D01*
X140357437Y-101371048D01*
X140360910Y-101380387D01*
X140372071Y-101432540D01*
X140357812Y-101451002D01*
X140319112Y-101435177D01*
X140297176Y-101419246D01*
X140225263Y-101380039D01*
X140163275Y-101380133D01*
X140114231Y-101417066D01*
X140081150Y-101488372D01*
X140067051Y-101591588D01*
X140066769Y-101607338D01*
X140077017Y-101721590D01*
X140108083Y-101801959D01*
X140158214Y-101846924D01*
X140225660Y-101854965D01*
X140308668Y-101824560D01*
X140313695Y-101821716D01*
X140363472Y-101794296D01*
X140386848Y-101787870D01*
X140393769Y-101801724D01*
X140394166Y-101815956D01*
X140375066Y-101857595D01*
X140325255Y-101890830D01*
X140255969Y-101912967D01*
X140178444Y-101921311D01*
X140103917Y-101913168D01*
X140059516Y-101896198D01*
X139986658Y-101832408D01*
X139942396Y-101739710D01*
X139928639Y-101631699D01*
X139942927Y-101506562D01*
X139985759Y-101412357D01*
X140056571Y-101349656D01*
X140154797Y-101319031D01*
X140239173Y-101316961D01*
X140302959Y-101324230D01*
X140302959Y-101324230D01*
G37*
X140302959Y-101324230D02*
X140337894Y-101339921D01*
X140357437Y-101371048D01*
X140360910Y-101380387D01*
X140372071Y-101432540D01*
X140357812Y-101451002D01*
X140319112Y-101435177D01*
X140297176Y-101419246D01*
X140225263Y-101380039D01*
X140163275Y-101380133D01*
X140114231Y-101417066D01*
X140081150Y-101488372D01*
X140067051Y-101591588D01*
X140066769Y-101607338D01*
X140077017Y-101721590D01*
X140108083Y-101801959D01*
X140158214Y-101846924D01*
X140225660Y-101854965D01*
X140308668Y-101824560D01*
X140313695Y-101821716D01*
X140363472Y-101794296D01*
X140386848Y-101787870D01*
X140393769Y-101801724D01*
X140394166Y-101815956D01*
X140375066Y-101857595D01*
X140325255Y-101890830D01*
X140255969Y-101912967D01*
X140178444Y-101921311D01*
X140103917Y-101913168D01*
X140059516Y-101896198D01*
X139986658Y-101832408D01*
X139942396Y-101739710D01*
X139928639Y-101631699D01*
X139942927Y-101506562D01*
X139985759Y-101412357D01*
X140056571Y-101349656D01*
X140154797Y-101319031D01*
X140239173Y-101316961D01*
X140302959Y-101324230D01*
G36*
X140655576Y-101442428D02*
X140679693Y-101456898D01*
X140705521Y-101496735D01*
X140736134Y-101567670D01*
X140763899Y-101644189D01*
X140797311Y-101733621D01*
X140830715Y-101811479D01*
X140859035Y-101866396D01*
X140870248Y-101882314D01*
X140890072Y-101906333D01*
X140888993Y-101919009D01*
X140860071Y-101923967D01*
X140796367Y-101924832D01*
X140788851Y-101924833D01*
X140721929Y-101923748D01*
X140689439Y-101918310D01*
X140683494Y-101905243D01*
X140693661Y-101885304D01*
X140709163Y-101837120D01*
X140698143Y-101799102D01*
X140666197Y-101783908D01*
X140650052Y-101786651D01*
X140610552Y-101787183D01*
X140594901Y-101776103D01*
X140599970Y-101753149D01*
X140624870Y-101741023D01*
X140662947Y-101718094D01*
X140662998Y-101678250D01*
X140640494Y-101639485D01*
X140622911Y-101620540D01*
X140608695Y-101625517D01*
X140592268Y-101660463D01*
X140574955Y-101710541D01*
X140556404Y-101782689D01*
X140549069Y-101846457D01*
X140551280Y-101872934D01*
X140555913Y-101907470D01*
X140539118Y-101921898D01*
X140490593Y-101924833D01*
X140414065Y-101924833D01*
X140455291Y-101866625D01*
X140480338Y-101820161D01*
X140511745Y-101746195D01*
X140544097Y-101657887D01*
X140555819Y-101622345D01*
X140585719Y-101533008D01*
X140608698Y-101477741D01*
X140628570Y-101449664D01*
X140649151Y-101441897D01*
X140655576Y-101442428D01*
X140655576Y-101442428D01*
G37*
X140655576Y-101442428D02*
X140679693Y-101456898D01*
X140705521Y-101496735D01*
X140736134Y-101567670D01*
X140763899Y-101644189D01*
X140797311Y-101733621D01*
X140830715Y-101811479D01*
X140859035Y-101866396D01*
X140870248Y-101882314D01*
X140890072Y-101906333D01*
X140888993Y-101919009D01*
X140860071Y-101923967D01*
X140796367Y-101924832D01*
X140788851Y-101924833D01*
X140721929Y-101923748D01*
X140689439Y-101918310D01*
X140683494Y-101905243D01*
X140693661Y-101885304D01*
X140709163Y-101837120D01*
X140698143Y-101799102D01*
X140666197Y-101783908D01*
X140650052Y-101786651D01*
X140610552Y-101787183D01*
X140594901Y-101776103D01*
X140599970Y-101753149D01*
X140624870Y-101741023D01*
X140662947Y-101718094D01*
X140662998Y-101678250D01*
X140640494Y-101639485D01*
X140622911Y-101620540D01*
X140608695Y-101625517D01*
X140592268Y-101660463D01*
X140574955Y-101710541D01*
X140556404Y-101782689D01*
X140549069Y-101846457D01*
X140551280Y-101872934D01*
X140555913Y-101907470D01*
X140539118Y-101921898D01*
X140490593Y-101924833D01*
X140414065Y-101924833D01*
X140455291Y-101866625D01*
X140480338Y-101820161D01*
X140511745Y-101746195D01*
X140544097Y-101657887D01*
X140555819Y-101622345D01*
X140585719Y-101533008D01*
X140608698Y-101477741D01*
X140628570Y-101449664D01*
X140649151Y-101441897D01*
X140655576Y-101442428D01*
G36*
X141211256Y-101447320D02*
X141251728Y-101467946D01*
X141267291Y-101479618D01*
X141314729Y-101534382D01*
X141319874Y-101590458D01*
X141282754Y-101648570D01*
X141273647Y-101657410D01*
X141221794Y-101705466D01*
X141262386Y-101772214D01*
X141301810Y-101825126D01*
X141342984Y-101863851D01*
X141345989Y-101865822D01*
X141383340Y-101896867D01*
X141379857Y-101916912D01*
X141335879Y-101924764D01*
X141329189Y-101924833D01*
X141271575Y-101910134D01*
X141213991Y-101863222D01*
X141151400Y-101779873D01*
X141145702Y-101770996D01*
X141123021Y-101730816D01*
X141124252Y-101703708D01*
X141152693Y-101671509D01*
X141166024Y-101659069D01*
X141204276Y-101611805D01*
X141211264Y-101573661D01*
X141211039Y-101573049D01*
X141199852Y-101534461D01*
X141198500Y-101523200D01*
X141181362Y-101499851D01*
X141143495Y-101490890D01*
X141105222Y-101500356D01*
X141100567Y-101503726D01*
X141087478Y-101533376D01*
X141077934Y-101590186D01*
X141072172Y-101662749D01*
X141070431Y-101739659D01*
X141072949Y-101809510D01*
X141079962Y-101860895D01*
X141091710Y-101882407D01*
X141092666Y-101882500D01*
X141113218Y-101898607D01*
X141113833Y-101903667D01*
X141094865Y-101916061D01*
X141046660Y-101923680D01*
X141014350Y-101924833D01*
X140955625Y-101922549D01*
X140933250Y-101914368D01*
X140940266Y-101899433D01*
X140952779Y-101866723D01*
X140961155Y-101805899D01*
X140965317Y-101729250D01*
X140965191Y-101649063D01*
X140960700Y-101577629D01*
X140951770Y-101527235D01*
X140942655Y-101510943D01*
X140928986Y-101489923D01*
X140953526Y-101470352D01*
X141012156Y-101454155D01*
X141084926Y-101444546D01*
X141160954Y-101440539D01*
X141211256Y-101447320D01*
X141211256Y-101447320D01*
G37*
X141211256Y-101447320D02*
X141251728Y-101467946D01*
X141267291Y-101479618D01*
X141314729Y-101534382D01*
X141319874Y-101590458D01*
X141282754Y-101648570D01*
X141273647Y-101657410D01*
X141221794Y-101705466D01*
X141262386Y-101772214D01*
X141301810Y-101825126D01*
X141342984Y-101863851D01*
X141345989Y-101865822D01*
X141383340Y-101896867D01*
X141379857Y-101916912D01*
X141335879Y-101924764D01*
X141329189Y-101924833D01*
X141271575Y-101910134D01*
X141213991Y-101863222D01*
X141151400Y-101779873D01*
X141145702Y-101770996D01*
X141123021Y-101730816D01*
X141124252Y-101703708D01*
X141152693Y-101671509D01*
X141166024Y-101659069D01*
X141204276Y-101611805D01*
X141211264Y-101573661D01*
X141211039Y-101573049D01*
X141199852Y-101534461D01*
X141198500Y-101523200D01*
X141181362Y-101499851D01*
X141143495Y-101490890D01*
X141105222Y-101500356D01*
X141100567Y-101503726D01*
X141087478Y-101533376D01*
X141077934Y-101590186D01*
X141072172Y-101662749D01*
X141070431Y-101739659D01*
X141072949Y-101809510D01*
X141079962Y-101860895D01*
X141091710Y-101882407D01*
X141092666Y-101882500D01*
X141113218Y-101898607D01*
X141113833Y-101903667D01*
X141094865Y-101916061D01*
X141046660Y-101923680D01*
X141014350Y-101924833D01*
X140955625Y-101922549D01*
X140933250Y-101914368D01*
X140940266Y-101899433D01*
X140952779Y-101866723D01*
X140961155Y-101805899D01*
X140965317Y-101729250D01*
X140965191Y-101649063D01*
X140960700Y-101577629D01*
X140951770Y-101527235D01*
X140942655Y-101510943D01*
X140928986Y-101489923D01*
X140953526Y-101470352D01*
X141012156Y-101454155D01*
X141084926Y-101444546D01*
X141160954Y-101440539D01*
X141211256Y-101447320D01*
G36*
X141871065Y-101517375D02*
X141876881Y-101861333D01*
X141726618Y-101861333D01*
X141720000Y-101170000D01*
X141870000Y-101170000D01*
X141871065Y-101517375D01*
X141871065Y-101517375D01*
G37*
X141871065Y-101517375D02*
X141876881Y-101861333D01*
X141726618Y-101861333D01*
X141720000Y-101170000D01*
X141870000Y-101170000D01*
X141871065Y-101517375D01*
G36*
X142680166Y-101861333D02*
X141918166Y-101861333D01*
X141918166Y-101713167D01*
X142680166Y-101713167D01*
X142680166Y-101861333D01*
X142680166Y-101861333D01*
G37*
X142680166Y-101861333D02*
X141918166Y-101861333D01*
X141918166Y-101713167D01*
X142680166Y-101713167D01*
X142680166Y-101861333D01*
G36*
X143505666Y-101861333D02*
X142722500Y-101861333D01*
X142722500Y-101713167D01*
X143505666Y-101713167D01*
X143505666Y-101861333D01*
X143505666Y-101861333D01*
G37*
X143505666Y-101861333D02*
X142722500Y-101861333D01*
X142722500Y-101713167D01*
X143505666Y-101713167D01*
X143505666Y-101861333D01*
G36*
X143700000Y-101860000D02*
X143546951Y-101861333D01*
X143550000Y-101170000D01*
X143700000Y-101170000D01*
X143697215Y-101861333D01*
X143700000Y-101860000D01*
G37*
X143700000Y-101860000D02*
X143546951Y-101861333D01*
X143550000Y-101170000D01*
X143700000Y-101170000D01*
X143697215Y-101861333D01*
X143700000Y-101860000D01*
G36*
X142778187Y-100913216D02*
X142903106Y-100946423D01*
X143021813Y-101015480D01*
X143043040Y-101032763D01*
X143139631Y-101142010D01*
X143201980Y-101271083D01*
X143227740Y-101411977D01*
X143214567Y-101556685D01*
X143205982Y-101589002D01*
X143181465Y-101670833D01*
X142978441Y-101671122D01*
X142885397Y-101671906D01*
X142804835Y-101673768D01*
X142748628Y-101676380D01*
X142733083Y-101677908D01*
X142695249Y-101679502D01*
X142625876Y-101678756D01*
X142535681Y-101675886D01*
X142458041Y-101672327D01*
X142225333Y-101660250D01*
X142195521Y-101548502D01*
X142181657Y-101440078D01*
X142489666Y-101440078D01*
X142498710Y-101503945D01*
X142532767Y-101553734D01*
X142554790Y-101573702D01*
X142633862Y-101617580D01*
X142721797Y-101631042D01*
X142805145Y-101613925D01*
X142860184Y-101577406D01*
X142913826Y-101501581D01*
X142925377Y-101422928D01*
X142903920Y-101356240D01*
X142849587Y-101288668D01*
X142778437Y-101250577D01*
X142699591Y-101240120D01*
X142622171Y-101255453D01*
X142555298Y-101294729D01*
X142508094Y-101356101D01*
X142489679Y-101437725D01*
X142489666Y-101440078D01*
X142181657Y-101440078D01*
X142178041Y-101411805D01*
X142197037Y-101284982D01*
X142247172Y-101171279D01*
X142323111Y-101073943D01*
X142419518Y-100996222D01*
X142531057Y-100941362D01*
X142652392Y-100912611D01*
X142778187Y-100913216D01*
X142778187Y-100913216D01*
G37*
X142778187Y-100913216D02*
X142903106Y-100946423D01*
X143021813Y-101015480D01*
X143043040Y-101032763D01*
X143139631Y-101142010D01*
X143201980Y-101271083D01*
X143227740Y-101411977D01*
X143214567Y-101556685D01*
X143205982Y-101589002D01*
X143181465Y-101670833D01*
X142978441Y-101671122D01*
X142885397Y-101671906D01*
X142804835Y-101673768D01*
X142748628Y-101676380D01*
X142733083Y-101677908D01*
X142695249Y-101679502D01*
X142625876Y-101678756D01*
X142535681Y-101675886D01*
X142458041Y-101672327D01*
X142225333Y-101660250D01*
X142195521Y-101548502D01*
X142181657Y-101440078D01*
X142489666Y-101440078D01*
X142498710Y-101503945D01*
X142532767Y-101553734D01*
X142554790Y-101573702D01*
X142633862Y-101617580D01*
X142721797Y-101631042D01*
X142805145Y-101613925D01*
X142860184Y-101577406D01*
X142913826Y-101501581D01*
X142925377Y-101422928D01*
X142903920Y-101356240D01*
X142849587Y-101288668D01*
X142778437Y-101250577D01*
X142699591Y-101240120D01*
X142622171Y-101255453D01*
X142555298Y-101294729D01*
X142508094Y-101356101D01*
X142489679Y-101437725D01*
X142489666Y-101440078D01*
X142181657Y-101440078D01*
X142178041Y-101411805D01*
X142197037Y-101284982D01*
X142247172Y-101171279D01*
X142323111Y-101073943D01*
X142419518Y-100996222D01*
X142531057Y-100941362D01*
X142652392Y-100912611D01*
X142778187Y-100913216D01*
G36*
X142782341Y-101293244D02*
X142848950Y-101346859D01*
X142849242Y-101347229D01*
X142885904Y-101412857D01*
X142882884Y-101472818D01*
X142844208Y-101532092D01*
X142774134Y-101582987D01*
X142692074Y-101597790D01*
X142610399Y-101574404D01*
X142549048Y-101520768D01*
X142523401Y-101454821D01*
X142533206Y-101386593D01*
X142578211Y-101326116D01*
X142617302Y-101300088D01*
X142702019Y-101277023D01*
X142782341Y-101293244D01*
X142782341Y-101293244D01*
G37*
X142782341Y-101293244D02*
X142848950Y-101346859D01*
X142849242Y-101347229D01*
X142885904Y-101412857D01*
X142882884Y-101472818D01*
X142844208Y-101532092D01*
X142774134Y-101582987D01*
X142692074Y-101597790D01*
X142610399Y-101574404D01*
X142549048Y-101520768D01*
X142523401Y-101454821D01*
X142533206Y-101386593D01*
X142578211Y-101326116D01*
X142617302Y-101300088D01*
X142702019Y-101277023D01*
X142782341Y-101293244D01*
D12*
X106500000Y-112500000D03*
X106500000Y-114700000D03*
X134827141Y-114600000D03*
X137027141Y-114600000D03*
D13*
X131850000Y-99035000D03*
X136750000Y-96495000D03*
X136750000Y-97765000D03*
X136750000Y-99035000D03*
X136750000Y-100305000D03*
X131850000Y-100305000D03*
X131850000Y-97765000D03*
X131850000Y-96495000D03*
D14*
X96500000Y-114300000D03*
D15*
X121400000Y-111450000D03*
X122200000Y-111450000D03*
X123000000Y-111450000D03*
X123800000Y-111450000D03*
X124600000Y-111450000D03*
X125400000Y-111450000D03*
X126200000Y-111450000D03*
X127000000Y-111450000D03*
D16*
X128450000Y-110000000D03*
X128450000Y-109200000D03*
X128450000Y-108400000D03*
X128450000Y-107600000D03*
X128450000Y-106800000D03*
X128450000Y-106000000D03*
X128450000Y-105200000D03*
X128450000Y-104400000D03*
D15*
X127000000Y-102950000D03*
X126200000Y-102950000D03*
X125400000Y-102950000D03*
X124600000Y-102950000D03*
X123800000Y-102950000D03*
X123000000Y-102950000D03*
X122200000Y-102950000D03*
X121400000Y-102950000D03*
D16*
X119950000Y-104400000D03*
X119950000Y-105200000D03*
X119950000Y-106000000D03*
X119950000Y-106800000D03*
X119950000Y-107600000D03*
X119950000Y-108400000D03*
X119950000Y-109200000D03*
X119950000Y-110000000D03*
D17*
X116600000Y-108600000D03*
X114600000Y-108600000D03*
D18*
X132234961Y-103517179D03*
X132234961Y-105517179D03*
D19*
X131177141Y-114636064D03*
X133077141Y-114636064D03*
D20*
X129200000Y-96250000D03*
X129200000Y-98150000D03*
D18*
X132234961Y-109517179D03*
X132234961Y-107517179D03*
X117008814Y-96294058D03*
X117008814Y-98294058D03*
D20*
X104272016Y-114450000D03*
X104272016Y-112550000D03*
X109900000Y-98410000D03*
X109900000Y-96510000D03*
D19*
X118250000Y-114600000D03*
X120150000Y-114600000D03*
D18*
X119152148Y-96294058D03*
X119152148Y-98294058D03*
X106100000Y-108821323D03*
X106100000Y-110821323D03*
D21*
X95408000Y-106410000D03*
D22*
X98108000Y-102910000D03*
D23*
X98108000Y-104760000D03*
X98108000Y-104110000D03*
X98108000Y-106710000D03*
X98108000Y-106060000D03*
X98108000Y-105410000D03*
D22*
X98108000Y-107910000D03*
D21*
X95408000Y-104410000D03*
D24*
X95408000Y-101910000D03*
X95408000Y-108910000D03*
D25*
X95408000Y-108310000D03*
X95408000Y-102510000D03*
D26*
X100917000Y-95931000D03*
X107617000Y-95931000D03*
D27*
X103267000Y-101681000D03*
X105267000Y-101681000D03*
D28*
X126600000Y-96300000D03*
X126600000Y-98000000D03*
X126600000Y-99700000D03*
X121800000Y-99700000D03*
X121800000Y-98000000D03*
X121800000Y-96300000D03*
D20*
X100900000Y-114450000D03*
X100900000Y-112550000D03*
D19*
X116250000Y-114600000D03*
X114350000Y-114600000D03*
D29*
X101646033Y-110771323D03*
X101646033Y-108871323D03*
X103846033Y-108871323D03*
X103846033Y-109821323D03*
X103846033Y-110771323D03*
D30*
X114728333Y-96260000D03*
X114728333Y-98160000D03*
X112028333Y-98160000D03*
X112028333Y-97210000D03*
X112028333Y-96260000D03*
D31*
X112600000Y-108500000D03*
X109800000Y-108500000D03*
D32*
X114500000Y-111800000D03*
X110500000Y-111800000D03*
D33*
X111950000Y-105950000D03*
X111950000Y-104050000D03*
X109850000Y-105000000D03*
X109850000Y-101400000D03*
X111950000Y-100450000D03*
X111950000Y-102350000D03*
D19*
X126850000Y-114700000D03*
X128750000Y-114700000D03*
X110750000Y-114600000D03*
X112650000Y-114600000D03*
D34*
X122950000Y-114700000D03*
X125050000Y-114700000D03*
D35*
X142280000Y-96500000D03*
X142280000Y-114300000D03*
D14*
X96540000Y-96510000D03*
D36*
X109400000Y-114600000D03*
X102600000Y-114600000D03*
D37*
X141434961Y-109192179D03*
D38*
X138634961Y-106917179D03*
D37*
X135834961Y-109192179D03*
X141434961Y-108542179D03*
X141434961Y-107892179D03*
X141434961Y-107242179D03*
X141434961Y-106592179D03*
X141434961Y-105942179D03*
X141434961Y-105292179D03*
X141434961Y-104642179D03*
X135834961Y-104642179D03*
X135834961Y-105292179D03*
X135834961Y-105942179D03*
X135834961Y-106592179D03*
X135834961Y-107242179D03*
X135834961Y-107892179D03*
X135834961Y-108542179D03*
D18*
X116000000Y-102400000D03*
X116000000Y-100400000D03*
M02*
