G04 #@! TF.GenerationSoftware,KiCad,Pcbnew,(5.1.6-0-10_14)*
G04 #@! TF.CreationDate,2020-07-31T15:36:24-07:00*
G04 #@! TF.ProjectId,StringCar_M0_Express,53747269-6e67-4436-9172-5f4d305f4578,v06*
G04 #@! TF.SameCoordinates,Original*
G04 #@! TF.FileFunction,Legend,Bot*
G04 #@! TF.FilePolarity,Positive*
%FSLAX46Y46*%
G04 Gerber Fmt 4.6, Leading zero omitted, Abs format (unit mm)*
G04 Created by KiCad (PCBNEW (5.1.6-0-10_14)) date 2020-07-31 15:36:24*
%MOMM*%
%LPD*%
G01*
G04 APERTURE LIST*
%ADD10C,0.140000*%
%ADD11C,0.150000*%
%ADD12C,0.120000*%
%ADD13C,0.010000*%
%ADD14C,0.100000*%
%ADD15C,0.050000*%
%ADD16C,0.080000*%
G04 APERTURE END LIST*
D10*
X100833333Y-115766666D02*
X100700000Y-115766666D01*
X100633333Y-115800000D01*
X100566666Y-115866666D01*
X100533333Y-116000000D01*
X100533333Y-116233333D01*
X100566666Y-116366666D01*
X100633333Y-116433333D01*
X100700000Y-116466666D01*
X100833333Y-116466666D01*
X100900000Y-116433333D01*
X100966666Y-116366666D01*
X101000000Y-116233333D01*
X101000000Y-116000000D01*
X100966666Y-115866666D01*
X100900000Y-115800000D01*
X100833333Y-115766666D01*
X100233333Y-116466666D02*
X100233333Y-115766666D01*
X99833333Y-116466666D01*
X99833333Y-115766666D01*
X112516666Y-115716666D02*
X112383333Y-115716666D01*
X112316666Y-115750000D01*
X112250000Y-115816666D01*
X112216666Y-115950000D01*
X112216666Y-116183333D01*
X112250000Y-116316666D01*
X112316666Y-116383333D01*
X112383333Y-116416666D01*
X112516666Y-116416666D01*
X112583333Y-116383333D01*
X112650000Y-116316666D01*
X112683333Y-116183333D01*
X112683333Y-115950000D01*
X112650000Y-115816666D01*
X112583333Y-115750000D01*
X112516666Y-115716666D01*
X111683333Y-116050000D02*
X111916666Y-116050000D01*
X111916666Y-116416666D02*
X111916666Y-115716666D01*
X111583333Y-115716666D01*
X111083333Y-116050000D02*
X111316666Y-116050000D01*
X111316666Y-116416666D02*
X111316666Y-115716666D01*
X110983333Y-115716666D01*
D11*
G36*
X118554000Y-106600000D02*
G01*
X118300000Y-106600000D01*
X118300000Y-106346000D01*
X118554000Y-106346000D01*
X118554000Y-106600000D01*
G37*
X118554000Y-106600000D02*
X118300000Y-106600000D01*
X118300000Y-106346000D01*
X118554000Y-106346000D01*
X118554000Y-106600000D01*
D12*
X116479142Y-107342857D02*
X116022000Y-107342857D01*
X115736285Y-107342857D02*
X115279142Y-107342857D01*
X114679142Y-107000000D02*
X114736285Y-106971428D01*
X114822000Y-106971428D01*
X114907714Y-107000000D01*
X114964857Y-107057142D01*
X114993428Y-107114285D01*
X115022000Y-107228571D01*
X115022000Y-107314285D01*
X114993428Y-107428571D01*
X114964857Y-107485714D01*
X114907714Y-107542857D01*
X114822000Y-107571428D01*
X114764857Y-107571428D01*
X114679142Y-107542857D01*
X114650571Y-107514285D01*
X114650571Y-107314285D01*
X114764857Y-107314285D01*
X114393428Y-107571428D02*
X114393428Y-106971428D01*
X114050571Y-107571428D01*
X114050571Y-106971428D01*
X113764857Y-107571428D02*
X113764857Y-106971428D01*
X113622000Y-106971428D01*
X113536285Y-107000000D01*
X113479142Y-107057142D01*
X113450571Y-107114285D01*
X113422000Y-107228571D01*
X113422000Y-107314285D01*
X113450571Y-107428571D01*
X113479142Y-107485714D01*
X113536285Y-107542857D01*
X113622000Y-107571428D01*
X113764857Y-107571428D01*
X113164857Y-107342857D02*
X112707714Y-107342857D01*
X112422000Y-107342857D02*
X111964857Y-107342857D01*
X117936285Y-107071428D02*
X117564857Y-107071428D01*
X117764857Y-107300000D01*
X117679142Y-107300000D01*
X117622000Y-107328571D01*
X117593428Y-107357142D01*
X117564857Y-107414285D01*
X117564857Y-107557142D01*
X117593428Y-107614285D01*
X117622000Y-107642857D01*
X117679142Y-107671428D01*
X117850571Y-107671428D01*
X117907714Y-107642857D01*
X117936285Y-107614285D01*
X117393428Y-107071428D02*
X117193428Y-107671428D01*
X116993428Y-107071428D01*
X117679142Y-99971428D02*
X117679142Y-99371428D01*
X117536285Y-99371428D01*
X117450571Y-99400000D01*
X117393428Y-99457142D01*
X117364857Y-99514285D01*
X117336285Y-99628571D01*
X117336285Y-99714285D01*
X117364857Y-99828571D01*
X117393428Y-99885714D01*
X117450571Y-99942857D01*
X117536285Y-99971428D01*
X117679142Y-99971428D01*
X112722000Y-99112000D02*
X112122000Y-99112000D01*
X112236285Y-99971428D02*
X112436285Y-99685714D01*
X112579142Y-99971428D02*
X112579142Y-99371428D01*
X112350571Y-99371428D01*
X112293428Y-99400000D01*
X112264857Y-99428571D01*
X112236285Y-99485714D01*
X112236285Y-99571428D01*
X112264857Y-99628571D01*
X112293428Y-99657142D01*
X112350571Y-99685714D01*
X112579142Y-99685714D01*
X116136285Y-99914285D02*
X116164857Y-99942857D01*
X116250571Y-99971428D01*
X116307714Y-99971428D01*
X116393428Y-99942857D01*
X116450571Y-99885714D01*
X116479142Y-99828571D01*
X116507714Y-99714285D01*
X116507714Y-99628571D01*
X116479142Y-99514285D01*
X116450571Y-99457142D01*
X116393428Y-99400000D01*
X116307714Y-99371428D01*
X116250571Y-99371428D01*
X116164857Y-99400000D01*
X116136285Y-99428571D01*
X126842857Y-100600000D02*
X126900000Y-100571428D01*
X126985714Y-100571428D01*
X127071428Y-100600000D01*
X127128571Y-100657142D01*
X127157142Y-100714285D01*
X127185714Y-100828571D01*
X127185714Y-100914285D01*
X127157142Y-101028571D01*
X127128571Y-101085714D01*
X127071428Y-101142857D01*
X126985714Y-101171428D01*
X126928571Y-101171428D01*
X126842857Y-101142857D01*
X126814285Y-101114285D01*
X126814285Y-100914285D01*
X126928571Y-100914285D01*
X126157142Y-100571428D02*
X125785714Y-100571428D01*
X125985714Y-100800000D01*
X125900000Y-100800000D01*
X125842857Y-100828571D01*
X125814285Y-100857142D01*
X125785714Y-100914285D01*
X125785714Y-101057142D01*
X125814285Y-101114285D01*
X125842857Y-101142857D01*
X125900000Y-101171428D01*
X126071428Y-101171428D01*
X126128571Y-101142857D01*
X126157142Y-101114285D01*
X125614285Y-100571428D02*
X125414285Y-101171428D01*
X125214285Y-100571428D01*
X124585714Y-101142857D02*
X124500000Y-101171428D01*
X124357142Y-101171428D01*
X124300000Y-101142857D01*
X124271428Y-101114285D01*
X124242857Y-101057142D01*
X124242857Y-101000000D01*
X124271428Y-100942857D01*
X124300000Y-100914285D01*
X124357142Y-100885714D01*
X124471428Y-100857142D01*
X124528571Y-100828571D01*
X124557142Y-100800000D01*
X124585714Y-100742857D01*
X124585714Y-100685714D01*
X124557142Y-100628571D01*
X124528571Y-100600000D01*
X124471428Y-100571428D01*
X124328571Y-100571428D01*
X124242857Y-100600000D01*
X123985714Y-101171428D02*
X123985714Y-100571428D01*
X123842857Y-100571428D01*
X123757142Y-100600000D01*
X123700000Y-100657142D01*
X123671428Y-100714285D01*
X123642857Y-100828571D01*
X123642857Y-100914285D01*
X123671428Y-101028571D01*
X123700000Y-101085714D01*
X123757142Y-101142857D01*
X123842857Y-101171428D01*
X123985714Y-101171428D01*
X123414285Y-101000000D02*
X123128571Y-101000000D01*
X123471428Y-101171428D02*
X123271428Y-100571428D01*
X123071428Y-101171428D01*
X122442857Y-101142857D02*
X122357142Y-101171428D01*
X122214285Y-101171428D01*
X122157142Y-101142857D01*
X122128571Y-101114285D01*
X122100000Y-101057142D01*
X122100000Y-101000000D01*
X122128571Y-100942857D01*
X122157142Y-100914285D01*
X122214285Y-100885714D01*
X122328571Y-100857142D01*
X122385714Y-100828571D01*
X122414285Y-100800000D01*
X122442857Y-100742857D01*
X122442857Y-100685714D01*
X122414285Y-100628571D01*
X122385714Y-100600000D01*
X122328571Y-100571428D01*
X122185714Y-100571428D01*
X122100000Y-100600000D01*
X121500000Y-101114285D02*
X121528571Y-101142857D01*
X121614285Y-101171428D01*
X121671428Y-101171428D01*
X121757142Y-101142857D01*
X121814285Y-101085714D01*
X121842857Y-101028571D01*
X121871428Y-100914285D01*
X121871428Y-100828571D01*
X121842857Y-100714285D01*
X121814285Y-100657142D01*
X121757142Y-100600000D01*
X121671428Y-100571428D01*
X121614285Y-100571428D01*
X121528571Y-100600000D01*
X121500000Y-100628571D01*
X120957142Y-101171428D02*
X121242857Y-101171428D01*
X121242857Y-100571428D01*
D13*
G36*
X100532685Y-103290279D02*
G01*
X100450545Y-103299727D01*
X100265405Y-103369102D01*
X100137772Y-103489528D01*
X100071297Y-103646724D01*
X100069633Y-103826411D01*
X100136433Y-104014309D01*
X100232810Y-104151065D01*
X100360510Y-104296508D01*
X100200650Y-104497171D01*
X99987279Y-104750693D01*
X99807217Y-104934208D01*
X99662506Y-105045792D01*
X99581973Y-105080377D01*
X99484708Y-105110556D01*
X99464669Y-105136815D01*
X99514428Y-105153902D01*
X99626554Y-105156565D01*
X99684250Y-105152678D01*
X99824580Y-105134723D01*
X99935365Y-105100999D01*
X100034155Y-105039215D01*
X100138497Y-104937084D01*
X100265943Y-104782319D01*
X100328201Y-104701772D01*
X100444026Y-104552788D01*
X100525981Y-104458827D01*
X100591048Y-104407220D01*
X100656209Y-104385298D01*
X100738447Y-104380389D01*
X100759035Y-104380334D01*
X100943667Y-104380334D01*
X100943667Y-104658283D01*
X100932775Y-104871294D01*
X100897922Y-105010317D01*
X100835842Y-105083461D01*
X100765789Y-105100000D01*
X100704945Y-105109505D01*
X100700864Y-105125308D01*
X100753959Y-105139705D01*
X100863283Y-105150068D01*
X101002689Y-105155941D01*
X101146027Y-105156873D01*
X101267151Y-105152408D01*
X101339911Y-105142093D01*
X101349429Y-105136563D01*
X101329460Y-105105826D01*
X101286828Y-105088909D01*
X101251178Y-105069908D01*
X101225599Y-105024871D01*
X101206768Y-104938962D01*
X101191363Y-104797344D01*
X101176904Y-104598181D01*
X101166516Y-104354608D01*
X101164188Y-104092246D01*
X101169958Y-103852048D01*
X101176124Y-103750093D01*
X101192763Y-103567013D01*
X101210913Y-103450945D01*
X101227411Y-103406667D01*
X100943667Y-103406667D01*
X100943667Y-103801778D01*
X100940821Y-103977024D01*
X100933188Y-104118943D01*
X100922124Y-104207180D01*
X100915445Y-104225111D01*
X100844459Y-104250127D01*
X100725168Y-104255479D01*
X100590965Y-104243730D01*
X100475242Y-104217446D01*
X100417588Y-104186873D01*
X100339726Y-104054680D01*
X100312643Y-103884824D01*
X100335314Y-103706611D01*
X100406716Y-103549346D01*
X100441370Y-103506430D01*
X100527079Y-103439896D01*
X100639607Y-103410861D01*
X100739380Y-103406667D01*
X100943667Y-103406667D01*
X101227411Y-103406667D01*
X101235740Y-103384315D01*
X101272411Y-103349549D01*
X101297107Y-103338510D01*
X101300069Y-103323360D01*
X101236094Y-103309610D01*
X101122913Y-103298071D01*
X100978252Y-103289556D01*
X100819842Y-103284878D01*
X100665410Y-103284848D01*
X100532685Y-103290279D01*
G37*
X100532685Y-103290279D02*
X100450545Y-103299727D01*
X100265405Y-103369102D01*
X100137772Y-103489528D01*
X100071297Y-103646724D01*
X100069633Y-103826411D01*
X100136433Y-104014309D01*
X100232810Y-104151065D01*
X100360510Y-104296508D01*
X100200650Y-104497171D01*
X99987279Y-104750693D01*
X99807217Y-104934208D01*
X99662506Y-105045792D01*
X99581973Y-105080377D01*
X99484708Y-105110556D01*
X99464669Y-105136815D01*
X99514428Y-105153902D01*
X99626554Y-105156565D01*
X99684250Y-105152678D01*
X99824580Y-105134723D01*
X99935365Y-105100999D01*
X100034155Y-105039215D01*
X100138497Y-104937084D01*
X100265943Y-104782319D01*
X100328201Y-104701772D01*
X100444026Y-104552788D01*
X100525981Y-104458827D01*
X100591048Y-104407220D01*
X100656209Y-104385298D01*
X100738447Y-104380389D01*
X100759035Y-104380334D01*
X100943667Y-104380334D01*
X100943667Y-104658283D01*
X100932775Y-104871294D01*
X100897922Y-105010317D01*
X100835842Y-105083461D01*
X100765789Y-105100000D01*
X100704945Y-105109505D01*
X100700864Y-105125308D01*
X100753959Y-105139705D01*
X100863283Y-105150068D01*
X101002689Y-105155941D01*
X101146027Y-105156873D01*
X101267151Y-105152408D01*
X101339911Y-105142093D01*
X101349429Y-105136563D01*
X101329460Y-105105826D01*
X101286828Y-105088909D01*
X101251178Y-105069908D01*
X101225599Y-105024871D01*
X101206768Y-104938962D01*
X101191363Y-104797344D01*
X101176904Y-104598181D01*
X101166516Y-104354608D01*
X101164188Y-104092246D01*
X101169958Y-103852048D01*
X101176124Y-103750093D01*
X101192763Y-103567013D01*
X101210913Y-103450945D01*
X101227411Y-103406667D01*
X100943667Y-103406667D01*
X100943667Y-103801778D01*
X100940821Y-103977024D01*
X100933188Y-104118943D01*
X100922124Y-104207180D01*
X100915445Y-104225111D01*
X100844459Y-104250127D01*
X100725168Y-104255479D01*
X100590965Y-104243730D01*
X100475242Y-104217446D01*
X100417588Y-104186873D01*
X100339726Y-104054680D01*
X100312643Y-103884824D01*
X100335314Y-103706611D01*
X100406716Y-103549346D01*
X100441370Y-103506430D01*
X100527079Y-103439896D01*
X100639607Y-103410861D01*
X100739380Y-103406667D01*
X100943667Y-103406667D01*
X101227411Y-103406667D01*
X101235740Y-103384315D01*
X101272411Y-103349549D01*
X101297107Y-103338510D01*
X101300069Y-103323360D01*
X101236094Y-103309610D01*
X101122913Y-103298071D01*
X100978252Y-103289556D01*
X100819842Y-103284878D01*
X100665410Y-103284848D01*
X100532685Y-103290279D01*
G36*
X102499589Y-103283324D02*
G01*
X102446625Y-103384247D01*
X102373147Y-103541552D01*
X102284333Y-103744007D01*
X102185360Y-103980384D01*
X102149179Y-104069293D01*
X102019471Y-104386676D01*
X101914516Y-104633161D01*
X101829581Y-104817215D01*
X101759934Y-104947308D01*
X101700841Y-105031906D01*
X101647569Y-105079478D01*
X101595385Y-105098493D01*
X101573096Y-105100000D01*
X101513588Y-105112816D01*
X101508534Y-105131750D01*
X101557824Y-105146307D01*
X101666302Y-105152176D01*
X101786368Y-105149148D01*
X101918274Y-105137568D01*
X102005218Y-105121660D01*
X102027779Y-105106815D01*
X102034224Y-105056765D01*
X102066713Y-104950061D01*
X102118577Y-104808143D01*
X102128665Y-104782500D01*
X102246444Y-104486167D01*
X102869183Y-104486167D01*
X102966904Y-104760332D01*
X103017027Y-104906179D01*
X103038731Y-104993902D01*
X103033556Y-105044565D01*
X103003041Y-105079234D01*
X102990888Y-105088416D01*
X102940194Y-105131349D01*
X102935826Y-105144069D01*
X103065032Y-105151989D01*
X103209057Y-105154869D01*
X103343260Y-105153058D01*
X103443000Y-105146904D01*
X103483634Y-105136753D01*
X103483683Y-105136339D01*
X103448046Y-105106727D01*
X103382782Y-105083858D01*
X103348131Y-105072081D01*
X103315701Y-105049646D01*
X103281371Y-105007936D01*
X103241022Y-104938335D01*
X103190532Y-104832226D01*
X103125781Y-104680993D01*
X103042648Y-104476018D01*
X102970283Y-104292881D01*
X102784801Y-104292881D01*
X102758662Y-104327895D01*
X102693222Y-104338316D01*
X102585297Y-104338094D01*
X102559432Y-104338000D01*
X102306825Y-104338000D01*
X102436748Y-103996032D01*
X102566670Y-103654064D01*
X102659269Y-103900782D01*
X102731919Y-104093275D01*
X102774825Y-104219324D01*
X102784801Y-104292881D01*
X102970283Y-104292881D01*
X102937014Y-104208686D01*
X102814800Y-103896122D01*
X102728772Y-103681093D01*
X102650546Y-103495679D01*
X102586208Y-103353538D01*
X102541843Y-103268325D01*
X102526864Y-103250010D01*
X102499589Y-103283324D01*
G37*
X102499589Y-103283324D02*
X102446625Y-103384247D01*
X102373147Y-103541552D01*
X102284333Y-103744007D01*
X102185360Y-103980384D01*
X102149179Y-104069293D01*
X102019471Y-104386676D01*
X101914516Y-104633161D01*
X101829581Y-104817215D01*
X101759934Y-104947308D01*
X101700841Y-105031906D01*
X101647569Y-105079478D01*
X101595385Y-105098493D01*
X101573096Y-105100000D01*
X101513588Y-105112816D01*
X101508534Y-105131750D01*
X101557824Y-105146307D01*
X101666302Y-105152176D01*
X101786368Y-105149148D01*
X101918274Y-105137568D01*
X102005218Y-105121660D01*
X102027779Y-105106815D01*
X102034224Y-105056765D01*
X102066713Y-104950061D01*
X102118577Y-104808143D01*
X102128665Y-104782500D01*
X102246444Y-104486167D01*
X102869183Y-104486167D01*
X102966904Y-104760332D01*
X103017027Y-104906179D01*
X103038731Y-104993902D01*
X103033556Y-105044565D01*
X103003041Y-105079234D01*
X102990888Y-105088416D01*
X102940194Y-105131349D01*
X102935826Y-105144069D01*
X103065032Y-105151989D01*
X103209057Y-105154869D01*
X103343260Y-105153058D01*
X103443000Y-105146904D01*
X103483634Y-105136753D01*
X103483683Y-105136339D01*
X103448046Y-105106727D01*
X103382782Y-105083858D01*
X103348131Y-105072081D01*
X103315701Y-105049646D01*
X103281371Y-105007936D01*
X103241022Y-104938335D01*
X103190532Y-104832226D01*
X103125781Y-104680993D01*
X103042648Y-104476018D01*
X102970283Y-104292881D01*
X102784801Y-104292881D01*
X102758662Y-104327895D01*
X102693222Y-104338316D01*
X102585297Y-104338094D01*
X102559432Y-104338000D01*
X102306825Y-104338000D01*
X102436748Y-103996032D01*
X102566670Y-103654064D01*
X102659269Y-103900782D01*
X102731919Y-104093275D01*
X102774825Y-104219324D01*
X102784801Y-104292881D01*
X102970283Y-104292881D01*
X102937014Y-104208686D01*
X102814800Y-103896122D01*
X102728772Y-103681093D01*
X102650546Y-103495679D01*
X102586208Y-103353538D01*
X102541843Y-103268325D01*
X102526864Y-103250010D01*
X102499589Y-103283324D01*
G36*
X105012492Y-103282521D02*
G01*
X104797064Y-103287384D01*
X104774834Y-103288067D01*
X104500976Y-103300947D01*
X104293650Y-103323184D01*
X104134833Y-103359754D01*
X104006503Y-103415630D01*
X103890638Y-103495787D01*
X103828797Y-103549202D01*
X103686899Y-103731774D01*
X103598260Y-103960406D01*
X103566722Y-104212408D01*
X103596129Y-104465092D01*
X103648180Y-104615529D01*
X103776371Y-104810514D01*
X103961015Y-104981213D01*
X104173904Y-105104391D01*
X104287600Y-105142237D01*
X104383727Y-105156032D01*
X104530954Y-105166424D01*
X104711027Y-105173340D01*
X104905692Y-105176706D01*
X105096694Y-105176450D01*
X105265780Y-105172497D01*
X105394694Y-105164776D01*
X105465184Y-105153211D01*
X105472987Y-105147000D01*
X105443654Y-105112207D01*
X105399250Y-105076407D01*
X105373061Y-105048826D01*
X105353314Y-105001797D01*
X105338821Y-104923599D01*
X105328398Y-104802512D01*
X105320858Y-104626816D01*
X105315015Y-104384790D01*
X105312017Y-104214418D01*
X105311510Y-104183247D01*
X105050000Y-104183247D01*
X105049885Y-104475526D01*
X105046215Y-104693926D01*
X105034009Y-104849222D01*
X105008282Y-104952190D01*
X104964052Y-105013605D01*
X104896336Y-105044243D01*
X104800151Y-105054880D01*
X104670513Y-105056290D01*
X104646220Y-105056380D01*
X104418751Y-105037878D01*
X104226109Y-104973907D01*
X104202689Y-104962417D01*
X104026305Y-104841845D01*
X103912751Y-104684375D01*
X103854908Y-104476779D01*
X103843754Y-104295667D01*
X103872233Y-104021987D01*
X103962103Y-103800097D01*
X104119170Y-103617919D01*
X104199942Y-103554992D01*
X104305897Y-103487865D01*
X104408262Y-103447226D01*
X104536724Y-103424885D01*
X104714755Y-103412926D01*
X105050000Y-103397702D01*
X105050000Y-104183247D01*
X105311510Y-104183247D01*
X105298867Y-103406523D01*
X105417851Y-103356704D01*
X105536834Y-103306885D01*
X105431000Y-103288812D01*
X105349446Y-103283257D01*
X105203281Y-103281153D01*
X105012492Y-103282521D01*
G37*
X105012492Y-103282521D02*
X104797064Y-103287384D01*
X104774834Y-103288067D01*
X104500976Y-103300947D01*
X104293650Y-103323184D01*
X104134833Y-103359754D01*
X104006503Y-103415630D01*
X103890638Y-103495787D01*
X103828797Y-103549202D01*
X103686899Y-103731774D01*
X103598260Y-103960406D01*
X103566722Y-104212408D01*
X103596129Y-104465092D01*
X103648180Y-104615529D01*
X103776371Y-104810514D01*
X103961015Y-104981213D01*
X104173904Y-105104391D01*
X104287600Y-105142237D01*
X104383727Y-105156032D01*
X104530954Y-105166424D01*
X104711027Y-105173340D01*
X104905692Y-105176706D01*
X105096694Y-105176450D01*
X105265780Y-105172497D01*
X105394694Y-105164776D01*
X105465184Y-105153211D01*
X105472987Y-105147000D01*
X105443654Y-105112207D01*
X105399250Y-105076407D01*
X105373061Y-105048826D01*
X105353314Y-105001797D01*
X105338821Y-104923599D01*
X105328398Y-104802512D01*
X105320858Y-104626816D01*
X105315015Y-104384790D01*
X105312017Y-104214418D01*
X105311510Y-104183247D01*
X105050000Y-104183247D01*
X105049885Y-104475526D01*
X105046215Y-104693926D01*
X105034009Y-104849222D01*
X105008282Y-104952190D01*
X104964052Y-105013605D01*
X104896336Y-105044243D01*
X104800151Y-105054880D01*
X104670513Y-105056290D01*
X104646220Y-105056380D01*
X104418751Y-105037878D01*
X104226109Y-104973907D01*
X104202689Y-104962417D01*
X104026305Y-104841845D01*
X103912751Y-104684375D01*
X103854908Y-104476779D01*
X103843754Y-104295667D01*
X103872233Y-104021987D01*
X103962103Y-103800097D01*
X104119170Y-103617919D01*
X104199942Y-103554992D01*
X104305897Y-103487865D01*
X104408262Y-103447226D01*
X104536724Y-103424885D01*
X104714755Y-103412926D01*
X105050000Y-103397702D01*
X105050000Y-104183247D01*
X105311510Y-104183247D01*
X105298867Y-103406523D01*
X105417851Y-103356704D01*
X105536834Y-103306885D01*
X105431000Y-103288812D01*
X105349446Y-103283257D01*
X105203281Y-103281153D01*
X105012492Y-103282521D01*
G36*
X99588926Y-105745584D02*
G01*
X99600777Y-105855471D01*
X99629366Y-105902103D01*
X99664442Y-105877650D01*
X99685933Y-105819667D01*
X99709771Y-105772090D01*
X99763514Y-105746390D01*
X99868064Y-105736247D01*
X99966037Y-105735000D01*
X100224000Y-105735000D01*
X100224000Y-106421588D01*
X99609892Y-106390576D01*
X99625059Y-106549622D01*
X99644958Y-106645367D01*
X99675240Y-106703895D01*
X99703162Y-106711185D01*
X99715982Y-106653213D01*
X99716000Y-106649696D01*
X99745942Y-106588446D01*
X99841117Y-106552634D01*
X100009549Y-106539516D01*
X100038551Y-106539334D01*
X100227178Y-106539334D01*
X100202834Y-107322500D01*
X99993973Y-107335721D01*
X99796553Y-107338106D01*
X99667032Y-107312702D01*
X99592033Y-107255447D01*
X99568405Y-107206547D01*
X99543529Y-107143553D01*
X99526203Y-107157801D01*
X99517264Y-107188265D01*
X99511201Y-107290526D01*
X99522558Y-107368182D01*
X99535582Y-107409983D01*
X99559388Y-107438521D01*
X99608187Y-107456326D01*
X99696185Y-107465930D01*
X99837591Y-107469865D01*
X100046612Y-107470661D01*
X100097807Y-107470667D01*
X100647334Y-107470667D01*
X100561736Y-107385069D01*
X100531743Y-107350364D01*
X100509985Y-107306791D01*
X100495399Y-107241772D01*
X100486924Y-107142730D01*
X100483498Y-106997085D01*
X100484057Y-106792260D01*
X100487540Y-106515675D01*
X100487653Y-106507864D01*
X100499167Y-105716255D01*
X100602864Y-105664596D01*
X100634068Y-105643380D01*
X100622717Y-105627895D01*
X100559138Y-105616767D01*
X100433664Y-105608619D01*
X100236624Y-105602079D01*
X100147707Y-105599885D01*
X99588852Y-105586834D01*
X99588926Y-105745584D01*
G37*
X99588926Y-105745584D02*
X99600777Y-105855471D01*
X99629366Y-105902103D01*
X99664442Y-105877650D01*
X99685933Y-105819667D01*
X99709771Y-105772090D01*
X99763514Y-105746390D01*
X99868064Y-105736247D01*
X99966037Y-105735000D01*
X100224000Y-105735000D01*
X100224000Y-106421588D01*
X99609892Y-106390576D01*
X99625059Y-106549622D01*
X99644958Y-106645367D01*
X99675240Y-106703895D01*
X99703162Y-106711185D01*
X99715982Y-106653213D01*
X99716000Y-106649696D01*
X99745942Y-106588446D01*
X99841117Y-106552634D01*
X100009549Y-106539516D01*
X100038551Y-106539334D01*
X100227178Y-106539334D01*
X100202834Y-107322500D01*
X99993973Y-107335721D01*
X99796553Y-107338106D01*
X99667032Y-107312702D01*
X99592033Y-107255447D01*
X99568405Y-107206547D01*
X99543529Y-107143553D01*
X99526203Y-107157801D01*
X99517264Y-107188265D01*
X99511201Y-107290526D01*
X99522558Y-107368182D01*
X99535582Y-107409983D01*
X99559388Y-107438521D01*
X99608187Y-107456326D01*
X99696185Y-107465930D01*
X99837591Y-107469865D01*
X100046612Y-107470661D01*
X100097807Y-107470667D01*
X100647334Y-107470667D01*
X100561736Y-107385069D01*
X100531743Y-107350364D01*
X100509985Y-107306791D01*
X100495399Y-107241772D01*
X100486924Y-107142730D01*
X100483498Y-106997085D01*
X100484057Y-106792260D01*
X100487540Y-106515675D01*
X100487653Y-106507864D01*
X100499167Y-105716255D01*
X100602864Y-105664596D01*
X100634068Y-105643380D01*
X100622717Y-105627895D01*
X100559138Y-105616767D01*
X100433664Y-105608619D01*
X100236624Y-105602079D01*
X100147707Y-105599885D01*
X99588852Y-105586834D01*
X99588926Y-105745584D01*
G36*
X106198491Y-105612603D02*
G01*
X106037688Y-105618960D01*
X105925392Y-105633582D01*
X105843571Y-105658598D01*
X105787460Y-105687818D01*
X105650302Y-105814868D01*
X105582752Y-105977756D01*
X105585351Y-106163349D01*
X105658642Y-106358512D01*
X105754114Y-106495951D01*
X105863305Y-106625717D01*
X105692075Y-106847109D01*
X105498487Y-107078025D01*
X105315693Y-107258827D01*
X105154251Y-107379774D01*
X105071167Y-107419862D01*
X105006840Y-107444659D01*
X105001760Y-107458355D01*
X105064785Y-107464749D01*
X105181875Y-107467325D01*
X105318364Y-107462531D01*
X105429381Y-107436635D01*
X105530725Y-107378876D01*
X105638191Y-107278495D01*
X105767576Y-107124735D01*
X105859895Y-107005536D01*
X105970724Y-106863077D01*
X106049490Y-106775453D01*
X106114404Y-106729371D01*
X106183675Y-106711543D01*
X106266648Y-106708667D01*
X106447000Y-106708667D01*
X106447000Y-107020983D01*
X106441430Y-107204262D01*
X106419209Y-107321467D01*
X106372075Y-107390779D01*
X106291763Y-107430374D01*
X106256500Y-107440034D01*
X106256336Y-107449456D01*
X106327065Y-107457188D01*
X106454916Y-107462079D01*
X106531667Y-107463073D01*
X106704901Y-107461501D01*
X106798525Y-107453682D01*
X106817409Y-107438942D01*
X106795371Y-107426689D01*
X106762926Y-107411806D01*
X106738911Y-107389322D01*
X106722251Y-107347880D01*
X106711872Y-107276124D01*
X106706700Y-107162695D01*
X106705659Y-106996238D01*
X106707677Y-106765395D01*
X106710704Y-106531668D01*
X106714242Y-106267318D01*
X106441305Y-106267318D01*
X106439132Y-106414198D01*
X106432186Y-106509065D01*
X106428061Y-106527629D01*
X106382774Y-106563848D01*
X106275794Y-106576088D01*
X106182891Y-106573312D01*
X106050116Y-106561364D01*
X105972425Y-106533748D01*
X105920242Y-106473435D01*
X105881718Y-106399909D01*
X105826826Y-106199736D01*
X105854480Y-106003860D01*
X105954784Y-105834608D01*
X106044788Y-105756582D01*
X106158860Y-105723065D01*
X106238647Y-105718024D01*
X106425834Y-105713834D01*
X106438171Y-106091483D01*
X106441305Y-106267318D01*
X106714242Y-106267318D01*
X106722167Y-105675259D01*
X106828000Y-105645849D01*
X106830100Y-105634428D01*
X106759635Y-105624407D01*
X106628709Y-105616796D01*
X106449424Y-105612600D01*
X106425834Y-105612378D01*
X106198491Y-105612603D01*
G37*
X106198491Y-105612603D02*
X106037688Y-105618960D01*
X105925392Y-105633582D01*
X105843571Y-105658598D01*
X105787460Y-105687818D01*
X105650302Y-105814868D01*
X105582752Y-105977756D01*
X105585351Y-106163349D01*
X105658642Y-106358512D01*
X105754114Y-106495951D01*
X105863305Y-106625717D01*
X105692075Y-106847109D01*
X105498487Y-107078025D01*
X105315693Y-107258827D01*
X105154251Y-107379774D01*
X105071167Y-107419862D01*
X105006840Y-107444659D01*
X105001760Y-107458355D01*
X105064785Y-107464749D01*
X105181875Y-107467325D01*
X105318364Y-107462531D01*
X105429381Y-107436635D01*
X105530725Y-107378876D01*
X105638191Y-107278495D01*
X105767576Y-107124735D01*
X105859895Y-107005536D01*
X105970724Y-106863077D01*
X106049490Y-106775453D01*
X106114404Y-106729371D01*
X106183675Y-106711543D01*
X106266648Y-106708667D01*
X106447000Y-106708667D01*
X106447000Y-107020983D01*
X106441430Y-107204262D01*
X106419209Y-107321467D01*
X106372075Y-107390779D01*
X106291763Y-107430374D01*
X106256500Y-107440034D01*
X106256336Y-107449456D01*
X106327065Y-107457188D01*
X106454916Y-107462079D01*
X106531667Y-107463073D01*
X106704901Y-107461501D01*
X106798525Y-107453682D01*
X106817409Y-107438942D01*
X106795371Y-107426689D01*
X106762926Y-107411806D01*
X106738911Y-107389322D01*
X106722251Y-107347880D01*
X106711872Y-107276124D01*
X106706700Y-107162695D01*
X106705659Y-106996238D01*
X106707677Y-106765395D01*
X106710704Y-106531668D01*
X106714242Y-106267318D01*
X106441305Y-106267318D01*
X106439132Y-106414198D01*
X106432186Y-106509065D01*
X106428061Y-106527629D01*
X106382774Y-106563848D01*
X106275794Y-106576088D01*
X106182891Y-106573312D01*
X106050116Y-106561364D01*
X105972425Y-106533748D01*
X105920242Y-106473435D01*
X105881718Y-106399909D01*
X105826826Y-106199736D01*
X105854480Y-106003860D01*
X105954784Y-105834608D01*
X106044788Y-105756582D01*
X106158860Y-105723065D01*
X106238647Y-105718024D01*
X106425834Y-105713834D01*
X106438171Y-106091483D01*
X106441305Y-106267318D01*
X106714242Y-106267318D01*
X106722167Y-105675259D01*
X106828000Y-105645849D01*
X106830100Y-105634428D01*
X106759635Y-105624407D01*
X106628709Y-105616796D01*
X106449424Y-105612600D01*
X106425834Y-105612378D01*
X106198491Y-105612603D01*
G36*
X100983191Y-105612936D02*
G01*
X100905604Y-105618892D01*
X100890150Y-105633307D01*
X100925573Y-105659435D01*
X100940880Y-105668079D01*
X100986494Y-105709826D01*
X101044418Y-105794955D01*
X101118591Y-105931053D01*
X101212957Y-106125709D01*
X101331456Y-106386508D01*
X101427713Y-106605232D01*
X101539927Y-106858746D01*
X101643246Y-107084999D01*
X101732286Y-107272772D01*
X101801663Y-107410846D01*
X101845994Y-107488004D01*
X101857263Y-107500297D01*
X101886115Y-107467432D01*
X101941095Y-107367056D01*
X102016911Y-107210282D01*
X102108272Y-107008219D01*
X102209887Y-106771978D01*
X102250527Y-106674496D01*
X102378829Y-106365802D01*
X102480668Y-106126573D01*
X102561042Y-105947668D01*
X102624948Y-105819948D01*
X102677382Y-105734272D01*
X102723341Y-105681502D01*
X102767823Y-105652495D01*
X102815825Y-105638113D01*
X102817290Y-105637827D01*
X102822064Y-105629681D01*
X102755316Y-105623198D01*
X102630187Y-105619328D01*
X102552334Y-105618676D01*
X102400682Y-105620312D01*
X102298122Y-105625412D01*
X102259085Y-105633041D01*
X102266584Y-105637182D01*
X102329843Y-105667041D01*
X102341762Y-105685188D01*
X102327927Y-105744063D01*
X102288570Y-105860528D01*
X102229786Y-106019527D01*
X102157673Y-106206006D01*
X102078326Y-106404910D01*
X101997842Y-106601184D01*
X101922318Y-106779774D01*
X101857848Y-106925624D01*
X101810530Y-107023680D01*
X101786460Y-107058888D01*
X101785662Y-107058480D01*
X101757849Y-107007177D01*
X101706907Y-106893392D01*
X101639613Y-106733851D01*
X101562749Y-106545282D01*
X101483092Y-106344411D01*
X101407424Y-106147963D01*
X101342523Y-105972664D01*
X101321356Y-105912958D01*
X101243213Y-105688750D01*
X101336857Y-105651058D01*
X101364115Y-105630940D01*
X101320853Y-105618581D01*
X101201197Y-105612856D01*
X101134167Y-105612184D01*
X100983191Y-105612936D01*
G37*
X100983191Y-105612936D02*
X100905604Y-105618892D01*
X100890150Y-105633307D01*
X100925573Y-105659435D01*
X100940880Y-105668079D01*
X100986494Y-105709826D01*
X101044418Y-105794955D01*
X101118591Y-105931053D01*
X101212957Y-106125709D01*
X101331456Y-106386508D01*
X101427713Y-106605232D01*
X101539927Y-106858746D01*
X101643246Y-107084999D01*
X101732286Y-107272772D01*
X101801663Y-107410846D01*
X101845994Y-107488004D01*
X101857263Y-107500297D01*
X101886115Y-107467432D01*
X101941095Y-107367056D01*
X102016911Y-107210282D01*
X102108272Y-107008219D01*
X102209887Y-106771978D01*
X102250527Y-106674496D01*
X102378829Y-106365802D01*
X102480668Y-106126573D01*
X102561042Y-105947668D01*
X102624948Y-105819948D01*
X102677382Y-105734272D01*
X102723341Y-105681502D01*
X102767823Y-105652495D01*
X102815825Y-105638113D01*
X102817290Y-105637827D01*
X102822064Y-105629681D01*
X102755316Y-105623198D01*
X102630187Y-105619328D01*
X102552334Y-105618676D01*
X102400682Y-105620312D01*
X102298122Y-105625412D01*
X102259085Y-105633041D01*
X102266584Y-105637182D01*
X102329843Y-105667041D01*
X102341762Y-105685188D01*
X102327927Y-105744063D01*
X102288570Y-105860528D01*
X102229786Y-106019527D01*
X102157673Y-106206006D01*
X102078326Y-106404910D01*
X101997842Y-106601184D01*
X101922318Y-106779774D01*
X101857848Y-106925624D01*
X101810530Y-107023680D01*
X101786460Y-107058888D01*
X101785662Y-107058480D01*
X101757849Y-107007177D01*
X101706907Y-106893392D01*
X101639613Y-106733851D01*
X101562749Y-106545282D01*
X101483092Y-106344411D01*
X101407424Y-106147963D01*
X101342523Y-105972664D01*
X101321356Y-105912958D01*
X101243213Y-105688750D01*
X101336857Y-105651058D01*
X101364115Y-105630940D01*
X101320853Y-105618581D01*
X101201197Y-105612856D01*
X101134167Y-105612184D01*
X100983191Y-105612936D01*
G36*
X103867974Y-105575256D02*
G01*
X103571265Y-105632136D01*
X103324784Y-105751337D01*
X103134606Y-105924352D01*
X103006807Y-106142668D01*
X102947464Y-106397778D01*
X102962651Y-106681170D01*
X102991587Y-106802717D01*
X103104713Y-107051540D01*
X103277402Y-107252463D01*
X103495895Y-107399919D01*
X103746435Y-107488346D01*
X104015264Y-107512180D01*
X104288622Y-107465856D01*
X104460064Y-107396584D01*
X104690546Y-107243582D01*
X104847253Y-107052264D01*
X104935407Y-106814775D01*
X104957465Y-106648483D01*
X104954542Y-106474897D01*
X104685159Y-106474897D01*
X104650952Y-106755656D01*
X104560228Y-106994351D01*
X104422059Y-107183567D01*
X104245522Y-107315891D01*
X104039689Y-107383909D01*
X103813634Y-107380207D01*
X103641057Y-107327956D01*
X103450389Y-107203864D01*
X103318639Y-107019122D01*
X103245748Y-106773615D01*
X103229667Y-106552823D01*
X103262552Y-106269542D01*
X103357539Y-106035875D01*
X103509121Y-105857931D01*
X103711796Y-105741822D01*
X103960058Y-105693660D01*
X104004471Y-105692667D01*
X104248150Y-105726864D01*
X104440686Y-105827412D01*
X104579415Y-105991252D01*
X104661673Y-106215320D01*
X104685159Y-106474897D01*
X104954542Y-106474897D01*
X104952994Y-106383054D01*
X104896114Y-106164592D01*
X104778423Y-105967739D01*
X104702394Y-105878371D01*
X104508179Y-105709255D01*
X104292941Y-105608999D01*
X104039004Y-105571180D01*
X103867974Y-105575256D01*
G37*
X103867974Y-105575256D02*
X103571265Y-105632136D01*
X103324784Y-105751337D01*
X103134606Y-105924352D01*
X103006807Y-106142668D01*
X102947464Y-106397778D01*
X102962651Y-106681170D01*
X102991587Y-106802717D01*
X103104713Y-107051540D01*
X103277402Y-107252463D01*
X103495895Y-107399919D01*
X103746435Y-107488346D01*
X104015264Y-107512180D01*
X104288622Y-107465856D01*
X104460064Y-107396584D01*
X104690546Y-107243582D01*
X104847253Y-107052264D01*
X104935407Y-106814775D01*
X104957465Y-106648483D01*
X104954542Y-106474897D01*
X104685159Y-106474897D01*
X104650952Y-106755656D01*
X104560228Y-106994351D01*
X104422059Y-107183567D01*
X104245522Y-107315891D01*
X104039689Y-107383909D01*
X103813634Y-107380207D01*
X103641057Y-107327956D01*
X103450389Y-107203864D01*
X103318639Y-107019122D01*
X103245748Y-106773615D01*
X103229667Y-106552823D01*
X103262552Y-106269542D01*
X103357539Y-106035875D01*
X103509121Y-105857931D01*
X103711796Y-105741822D01*
X103960058Y-105693660D01*
X104004471Y-105692667D01*
X104248150Y-105726864D01*
X104440686Y-105827412D01*
X104579415Y-105991252D01*
X104661673Y-106215320D01*
X104685159Y-106474897D01*
X104954542Y-106474897D01*
X104952994Y-106383054D01*
X104896114Y-106164592D01*
X104778423Y-105967739D01*
X104702394Y-105878371D01*
X104508179Y-105709255D01*
X104292941Y-105608999D01*
X104039004Y-105571180D01*
X103867974Y-105575256D01*
G36*
X107972099Y-102725655D02*
G01*
X107965937Y-102726533D01*
X107743663Y-102757939D01*
X107591452Y-102783620D01*
X107496137Y-102813383D01*
X107444551Y-102857034D01*
X107423526Y-102924379D01*
X107419895Y-103025225D01*
X107420667Y-103132627D01*
X107424034Y-103294324D01*
X107432891Y-103428010D01*
X107445371Y-103506263D01*
X107446270Y-103508795D01*
X107483182Y-103558283D01*
X107518632Y-103536094D01*
X107542744Y-103454798D01*
X107547667Y-103379745D01*
X107586663Y-103212090D01*
X107700231Y-103075742D01*
X107883239Y-102973446D01*
X108130556Y-102907946D01*
X108437050Y-102881987D01*
X108479000Y-102881659D01*
X108762302Y-102895388D01*
X108985092Y-102941080D01*
X109167686Y-103025493D01*
X109330402Y-103155385D01*
X109344943Y-103169715D01*
X109495464Y-103351895D01*
X109594396Y-103553938D01*
X109647132Y-103793427D01*
X109659061Y-104087947D01*
X109655778Y-104183633D01*
X109640761Y-104396709D01*
X109615011Y-104555079D01*
X109572034Y-104688600D01*
X109523207Y-104793084D01*
X109456877Y-104911850D01*
X109401791Y-104992492D01*
X109375208Y-105015334D01*
X109327160Y-104987374D01*
X109248711Y-104917674D01*
X109222777Y-104891406D01*
X109036320Y-104750188D01*
X108780582Y-104638527D01*
X108467247Y-104561222D01*
X108388471Y-104548835D01*
X108252912Y-104531600D01*
X108132894Y-104523049D01*
X108009012Y-104524184D01*
X107861866Y-104536002D01*
X107672053Y-104559504D01*
X107420169Y-104595690D01*
X107388917Y-104600327D01*
X107082000Y-104645950D01*
X107082000Y-104872975D01*
X107075093Y-105014893D01*
X107052172Y-105085794D01*
X107023030Y-105100000D01*
X106986483Y-105092223D01*
X106958918Y-105062079D01*
X106939102Y-104999355D01*
X106925802Y-104893832D01*
X106917786Y-104735297D01*
X106913821Y-104513533D01*
X106912674Y-104218323D01*
X106912667Y-104185323D01*
X106912667Y-103404571D01*
X107018500Y-103364334D01*
X107096636Y-103327356D01*
X107124334Y-103301881D01*
X107084592Y-103293704D01*
X106975728Y-103286883D01*
X106813280Y-103282030D01*
X106612791Y-103279760D01*
X106561334Y-103279667D01*
X105998335Y-103279667D01*
X106015633Y-103427834D01*
X106037928Y-103520949D01*
X106070096Y-103573797D01*
X106098152Y-103572920D01*
X106108334Y-103517029D01*
X106135490Y-103457882D01*
X106223352Y-103422429D01*
X106381515Y-103407575D01*
X106450463Y-103406667D01*
X106658667Y-103406667D01*
X106658667Y-104093254D01*
X106346541Y-104077493D01*
X106034415Y-104061731D01*
X106056032Y-104231616D01*
X106077706Y-104365905D01*
X106099180Y-104418435D01*
X106122368Y-104392086D01*
X106135093Y-104350649D01*
X106184406Y-104273719D01*
X106290562Y-104228957D01*
X106465004Y-104212002D01*
X106499917Y-104211578D01*
X106658667Y-104211000D01*
X106658667Y-104590511D01*
X106656527Y-104775147D01*
X106647782Y-104893193D01*
X106628948Y-104962669D01*
X106596538Y-105001594D01*
X106576784Y-105013844D01*
X106434211Y-105056530D01*
X106277847Y-105053120D01*
X106134613Y-105009839D01*
X106031433Y-104932915D01*
X106002314Y-104880998D01*
X105977705Y-104814895D01*
X105964108Y-104825066D01*
X105951585Y-104896823D01*
X105954449Y-105015831D01*
X105979337Y-105096269D01*
X106003779Y-105131848D01*
X106041865Y-105154930D01*
X106108835Y-105167279D01*
X106219928Y-105170660D01*
X106390384Y-105166835D01*
X106541067Y-105161288D01*
X106757705Y-105153517D01*
X106905184Y-105151543D01*
X106998927Y-105157424D01*
X107054358Y-105173216D01*
X107086901Y-105200977D01*
X107108892Y-105237009D01*
X107150228Y-105296778D01*
X107174899Y-105281589D01*
X107178995Y-105269334D01*
X107204033Y-105183834D01*
X107234973Y-105078834D01*
X107278374Y-104992893D01*
X107364301Y-104916246D01*
X107511502Y-104832446D01*
X107521666Y-104827343D01*
X107661812Y-104763247D01*
X107786193Y-104725237D01*
X107927403Y-104706573D01*
X108118035Y-104700511D01*
X108135499Y-104700375D01*
X108340323Y-104706543D01*
X108525534Y-104725612D01*
X108659734Y-104754268D01*
X108665939Y-104756382D01*
X108770487Y-104808408D01*
X108895315Y-104891601D01*
X109020105Y-104989382D01*
X109124538Y-105085178D01*
X109188298Y-105162412D01*
X109198667Y-105190991D01*
X109161143Y-105249440D01*
X109061872Y-105320268D01*
X108920803Y-105393629D01*
X108757889Y-105459680D01*
X108593079Y-105508577D01*
X108528843Y-105521505D01*
X108249345Y-105545693D01*
X107999193Y-105524067D01*
X107791012Y-105460337D01*
X107637422Y-105358214D01*
X107555916Y-105235520D01*
X107499769Y-105087711D01*
X107465789Y-105013101D01*
X107447005Y-105005391D01*
X107436448Y-105058285D01*
X107430680Y-105122382D01*
X107435654Y-105280771D01*
X107466255Y-105443138D01*
X107471761Y-105461049D01*
X107518195Y-105561945D01*
X107589737Y-105634987D01*
X107698897Y-105684318D01*
X107858185Y-105714079D01*
X108080107Y-105728415D01*
X108288500Y-105731518D01*
X108528285Y-105728204D01*
X108712147Y-105714297D01*
X108868545Y-105686161D01*
X109025935Y-105640161D01*
X109039412Y-105635604D01*
X109324656Y-105538394D01*
X109351887Y-105683547D01*
X109365412Y-105900954D01*
X109339220Y-106155716D01*
X109278553Y-106413445D01*
X109214226Y-106586570D01*
X109053135Y-106850894D01*
X108831431Y-107079280D01*
X108571370Y-107249545D01*
X108529453Y-107269133D01*
X108334673Y-107331487D01*
X108105416Y-107369419D01*
X107874855Y-107380165D01*
X107676165Y-107360961D01*
X107615953Y-107345246D01*
X107460594Y-107293973D01*
X107472381Y-106740452D01*
X107484167Y-106186931D01*
X107632334Y-106133520D01*
X107706440Y-106105833D01*
X107741017Y-106087126D01*
X107727116Y-106075638D01*
X107655790Y-106069611D01*
X107518092Y-106067283D01*
X107305075Y-106066894D01*
X107293667Y-106066894D01*
X107078568Y-106067048D01*
X106938369Y-106068815D01*
X106863306Y-106074147D01*
X106843613Y-106085000D01*
X106869527Y-106103326D01*
X106931281Y-106131081D01*
X106944417Y-106136780D01*
X107082000Y-106196580D01*
X107082000Y-106769147D01*
X107082711Y-106999910D01*
X107086322Y-107160780D01*
X107095054Y-107266530D01*
X107111129Y-107331931D01*
X107136767Y-107371754D01*
X107174188Y-107400772D01*
X107177250Y-107402745D01*
X107342680Y-107476507D01*
X107566796Y-107531687D01*
X107825000Y-107564957D01*
X108092698Y-107572987D01*
X108314985Y-107556744D01*
X108698644Y-107472024D01*
X109023371Y-107326762D01*
X109289869Y-107120518D01*
X109498841Y-106852853D01*
X109531957Y-106795278D01*
X109608901Y-106644574D01*
X109656189Y-106516176D01*
X109682668Y-106376191D01*
X109697184Y-106190730D01*
X109698941Y-106155543D01*
X109699437Y-105867068D01*
X109668636Y-105634900D01*
X109649760Y-105561479D01*
X109613526Y-105430291D01*
X109604657Y-105350946D01*
X109626167Y-105294198D01*
X109681068Y-105230802D01*
X109684159Y-105227548D01*
X109759598Y-105130346D01*
X109847374Y-104992048D01*
X109904542Y-104888334D01*
X109959179Y-104774072D01*
X109994049Y-104672363D01*
X110013477Y-104558537D01*
X110021790Y-104407923D01*
X110023337Y-104211000D01*
X110021065Y-104003338D01*
X110011776Y-103855155D01*
X109990956Y-103741304D01*
X109954090Y-103636632D01*
X109899653Y-103521917D01*
X109707717Y-103228594D01*
X109460454Y-102998036D01*
X109160561Y-102831353D01*
X108810738Y-102729655D01*
X108413684Y-102694052D01*
X107972099Y-102725655D01*
G37*
X107972099Y-102725655D02*
X107965937Y-102726533D01*
X107743663Y-102757939D01*
X107591452Y-102783620D01*
X107496137Y-102813383D01*
X107444551Y-102857034D01*
X107423526Y-102924379D01*
X107419895Y-103025225D01*
X107420667Y-103132627D01*
X107424034Y-103294324D01*
X107432891Y-103428010D01*
X107445371Y-103506263D01*
X107446270Y-103508795D01*
X107483182Y-103558283D01*
X107518632Y-103536094D01*
X107542744Y-103454798D01*
X107547667Y-103379745D01*
X107586663Y-103212090D01*
X107700231Y-103075742D01*
X107883239Y-102973446D01*
X108130556Y-102907946D01*
X108437050Y-102881987D01*
X108479000Y-102881659D01*
X108762302Y-102895388D01*
X108985092Y-102941080D01*
X109167686Y-103025493D01*
X109330402Y-103155385D01*
X109344943Y-103169715D01*
X109495464Y-103351895D01*
X109594396Y-103553938D01*
X109647132Y-103793427D01*
X109659061Y-104087947D01*
X109655778Y-104183633D01*
X109640761Y-104396709D01*
X109615011Y-104555079D01*
X109572034Y-104688600D01*
X109523207Y-104793084D01*
X109456877Y-104911850D01*
X109401791Y-104992492D01*
X109375208Y-105015334D01*
X109327160Y-104987374D01*
X109248711Y-104917674D01*
X109222777Y-104891406D01*
X109036320Y-104750188D01*
X108780582Y-104638527D01*
X108467247Y-104561222D01*
X108388471Y-104548835D01*
X108252912Y-104531600D01*
X108132894Y-104523049D01*
X108009012Y-104524184D01*
X107861866Y-104536002D01*
X107672053Y-104559504D01*
X107420169Y-104595690D01*
X107388917Y-104600327D01*
X107082000Y-104645950D01*
X107082000Y-104872975D01*
X107075093Y-105014893D01*
X107052172Y-105085794D01*
X107023030Y-105100000D01*
X106986483Y-105092223D01*
X106958918Y-105062079D01*
X106939102Y-104999355D01*
X106925802Y-104893832D01*
X106917786Y-104735297D01*
X106913821Y-104513533D01*
X106912674Y-104218323D01*
X106912667Y-104185323D01*
X106912667Y-103404571D01*
X107018500Y-103364334D01*
X107096636Y-103327356D01*
X107124334Y-103301881D01*
X107084592Y-103293704D01*
X106975728Y-103286883D01*
X106813280Y-103282030D01*
X106612791Y-103279760D01*
X106561334Y-103279667D01*
X105998335Y-103279667D01*
X106015633Y-103427834D01*
X106037928Y-103520949D01*
X106070096Y-103573797D01*
X106098152Y-103572920D01*
X106108334Y-103517029D01*
X106135490Y-103457882D01*
X106223352Y-103422429D01*
X106381515Y-103407575D01*
X106450463Y-103406667D01*
X106658667Y-103406667D01*
X106658667Y-104093254D01*
X106346541Y-104077493D01*
X106034415Y-104061731D01*
X106056032Y-104231616D01*
X106077706Y-104365905D01*
X106099180Y-104418435D01*
X106122368Y-104392086D01*
X106135093Y-104350649D01*
X106184406Y-104273719D01*
X106290562Y-104228957D01*
X106465004Y-104212002D01*
X106499917Y-104211578D01*
X106658667Y-104211000D01*
X106658667Y-104590511D01*
X106656527Y-104775147D01*
X106647782Y-104893193D01*
X106628948Y-104962669D01*
X106596538Y-105001594D01*
X106576784Y-105013844D01*
X106434211Y-105056530D01*
X106277847Y-105053120D01*
X106134613Y-105009839D01*
X106031433Y-104932915D01*
X106002314Y-104880998D01*
X105977705Y-104814895D01*
X105964108Y-104825066D01*
X105951585Y-104896823D01*
X105954449Y-105015831D01*
X105979337Y-105096269D01*
X106003779Y-105131848D01*
X106041865Y-105154930D01*
X106108835Y-105167279D01*
X106219928Y-105170660D01*
X106390384Y-105166835D01*
X106541067Y-105161288D01*
X106757705Y-105153517D01*
X106905184Y-105151543D01*
X106998927Y-105157424D01*
X107054358Y-105173216D01*
X107086901Y-105200977D01*
X107108892Y-105237009D01*
X107150228Y-105296778D01*
X107174899Y-105281589D01*
X107178995Y-105269334D01*
X107204033Y-105183834D01*
X107234973Y-105078834D01*
X107278374Y-104992893D01*
X107364301Y-104916246D01*
X107511502Y-104832446D01*
X107521666Y-104827343D01*
X107661812Y-104763247D01*
X107786193Y-104725237D01*
X107927403Y-104706573D01*
X108118035Y-104700511D01*
X108135499Y-104700375D01*
X108340323Y-104706543D01*
X108525534Y-104725612D01*
X108659734Y-104754268D01*
X108665939Y-104756382D01*
X108770487Y-104808408D01*
X108895315Y-104891601D01*
X109020105Y-104989382D01*
X109124538Y-105085178D01*
X109188298Y-105162412D01*
X109198667Y-105190991D01*
X109161143Y-105249440D01*
X109061872Y-105320268D01*
X108920803Y-105393629D01*
X108757889Y-105459680D01*
X108593079Y-105508577D01*
X108528843Y-105521505D01*
X108249345Y-105545693D01*
X107999193Y-105524067D01*
X107791012Y-105460337D01*
X107637422Y-105358214D01*
X107555916Y-105235520D01*
X107499769Y-105087711D01*
X107465789Y-105013101D01*
X107447005Y-105005391D01*
X107436448Y-105058285D01*
X107430680Y-105122382D01*
X107435654Y-105280771D01*
X107466255Y-105443138D01*
X107471761Y-105461049D01*
X107518195Y-105561945D01*
X107589737Y-105634987D01*
X107698897Y-105684318D01*
X107858185Y-105714079D01*
X108080107Y-105728415D01*
X108288500Y-105731518D01*
X108528285Y-105728204D01*
X108712147Y-105714297D01*
X108868545Y-105686161D01*
X109025935Y-105640161D01*
X109039412Y-105635604D01*
X109324656Y-105538394D01*
X109351887Y-105683547D01*
X109365412Y-105900954D01*
X109339220Y-106155716D01*
X109278553Y-106413445D01*
X109214226Y-106586570D01*
X109053135Y-106850894D01*
X108831431Y-107079280D01*
X108571370Y-107249545D01*
X108529453Y-107269133D01*
X108334673Y-107331487D01*
X108105416Y-107369419D01*
X107874855Y-107380165D01*
X107676165Y-107360961D01*
X107615953Y-107345246D01*
X107460594Y-107293973D01*
X107472381Y-106740452D01*
X107484167Y-106186931D01*
X107632334Y-106133520D01*
X107706440Y-106105833D01*
X107741017Y-106087126D01*
X107727116Y-106075638D01*
X107655790Y-106069611D01*
X107518092Y-106067283D01*
X107305075Y-106066894D01*
X107293667Y-106066894D01*
X107078568Y-106067048D01*
X106938369Y-106068815D01*
X106863306Y-106074147D01*
X106843613Y-106085000D01*
X106869527Y-106103326D01*
X106931281Y-106131081D01*
X106944417Y-106136780D01*
X107082000Y-106196580D01*
X107082000Y-106769147D01*
X107082711Y-106999910D01*
X107086322Y-107160780D01*
X107095054Y-107266530D01*
X107111129Y-107331931D01*
X107136767Y-107371754D01*
X107174188Y-107400772D01*
X107177250Y-107402745D01*
X107342680Y-107476507D01*
X107566796Y-107531687D01*
X107825000Y-107564957D01*
X108092698Y-107572987D01*
X108314985Y-107556744D01*
X108698644Y-107472024D01*
X109023371Y-107326762D01*
X109289869Y-107120518D01*
X109498841Y-106852853D01*
X109531957Y-106795278D01*
X109608901Y-106644574D01*
X109656189Y-106516176D01*
X109682668Y-106376191D01*
X109697184Y-106190730D01*
X109698941Y-106155543D01*
X109699437Y-105867068D01*
X109668636Y-105634900D01*
X109649760Y-105561479D01*
X109613526Y-105430291D01*
X109604657Y-105350946D01*
X109626167Y-105294198D01*
X109681068Y-105230802D01*
X109684159Y-105227548D01*
X109759598Y-105130346D01*
X109847374Y-104992048D01*
X109904542Y-104888334D01*
X109959179Y-104774072D01*
X109994049Y-104672363D01*
X110013477Y-104558537D01*
X110021790Y-104407923D01*
X110023337Y-104211000D01*
X110021065Y-104003338D01*
X110011776Y-103855155D01*
X109990956Y-103741304D01*
X109954090Y-103636632D01*
X109899653Y-103521917D01*
X109707717Y-103228594D01*
X109460454Y-102998036D01*
X109160561Y-102831353D01*
X108810738Y-102729655D01*
X108413684Y-102694052D01*
X107972099Y-102725655D01*
G36*
X101519881Y-107754787D02*
G01*
X101453784Y-107763742D01*
X101461649Y-107790546D01*
X101485534Y-107817800D01*
X101512680Y-107890115D01*
X101529957Y-108037510D01*
X101536321Y-108250858D01*
X101536334Y-108262300D01*
X101533984Y-108451692D01*
X101525397Y-108570812D01*
X101508265Y-108633961D01*
X101480283Y-108655444D01*
X101472834Y-108656000D01*
X101416498Y-108678859D01*
X101409334Y-108698334D01*
X101447171Y-108723580D01*
X101542903Y-108738724D01*
X101599834Y-108740667D01*
X101713444Y-108732259D01*
X101781593Y-108710985D01*
X101790334Y-108698334D01*
X101758119Y-108657230D01*
X101748000Y-108656000D01*
X101728396Y-108617449D01*
X101714890Y-108516484D01*
X101707462Y-108375135D01*
X101706095Y-108215433D01*
X101710771Y-108059410D01*
X101721470Y-107929096D01*
X101738174Y-107846523D01*
X101748691Y-107830073D01*
X101775590Y-107792726D01*
X101735065Y-107765176D01*
X101644151Y-107751252D01*
X101519881Y-107754787D01*
G37*
X101519881Y-107754787D02*
X101453784Y-107763742D01*
X101461649Y-107790546D01*
X101485534Y-107817800D01*
X101512680Y-107890115D01*
X101529957Y-108037510D01*
X101536321Y-108250858D01*
X101536334Y-108262300D01*
X101533984Y-108451692D01*
X101525397Y-108570812D01*
X101508265Y-108633961D01*
X101480283Y-108655444D01*
X101472834Y-108656000D01*
X101416498Y-108678859D01*
X101409334Y-108698334D01*
X101447171Y-108723580D01*
X101542903Y-108738724D01*
X101599834Y-108740667D01*
X101713444Y-108732259D01*
X101781593Y-108710985D01*
X101790334Y-108698334D01*
X101758119Y-108657230D01*
X101748000Y-108656000D01*
X101728396Y-108617449D01*
X101714890Y-108516484D01*
X101707462Y-108375135D01*
X101706095Y-108215433D01*
X101710771Y-108059410D01*
X101721470Y-107929096D01*
X101738174Y-107846523D01*
X101748691Y-107830073D01*
X101775590Y-107792726D01*
X101735065Y-107765176D01*
X101644151Y-107751252D01*
X101519881Y-107754787D01*
G36*
X102666946Y-107751489D02*
G01*
X102413695Y-107772962D01*
X102228747Y-107826755D01*
X102100077Y-107918448D01*
X102015692Y-108053527D01*
X101979175Y-108243202D01*
X102021213Y-108430053D01*
X102136973Y-108596582D01*
X102175346Y-108631714D01*
X102251130Y-108687614D01*
X102330392Y-108720422D01*
X102438550Y-108736094D01*
X102601016Y-108740586D01*
X102640249Y-108740667D01*
X102796681Y-108736039D01*
X102914181Y-108723750D01*
X102972624Y-108706189D01*
X102975667Y-108700832D01*
X102944895Y-108643498D01*
X102933334Y-108634834D01*
X102914401Y-108583397D01*
X102899840Y-108468199D01*
X102891859Y-108310117D01*
X102891000Y-108234698D01*
X102891142Y-108225611D01*
X102721667Y-108225611D01*
X102718664Y-108395967D01*
X102710639Y-108532657D01*
X102699068Y-108614650D01*
X102693445Y-108627778D01*
X102615960Y-108654376D01*
X102496034Y-108645782D01*
X102366696Y-108605181D01*
X102343695Y-108594066D01*
X102250646Y-108529533D01*
X102197631Y-108463604D01*
X102173288Y-108330243D01*
X102180640Y-108177474D01*
X102214922Y-108060989D01*
X102302082Y-107967865D01*
X102436778Y-107892154D01*
X102581904Y-107853332D01*
X102613732Y-107851667D01*
X102665206Y-107854562D01*
X102696989Y-107874212D01*
X102713829Y-107927063D01*
X102720471Y-108029563D01*
X102721665Y-108198157D01*
X102721667Y-108225611D01*
X102891142Y-108225611D01*
X102893931Y-108047156D01*
X102904455Y-107928446D01*
X102925174Y-107862881D01*
X102957184Y-107835328D01*
X103012567Y-107801262D01*
X102990373Y-107774442D01*
X102897525Y-107756870D01*
X102740951Y-107750546D01*
X102666946Y-107751489D01*
G37*
X102666946Y-107751489D02*
X102413695Y-107772962D01*
X102228747Y-107826755D01*
X102100077Y-107918448D01*
X102015692Y-108053527D01*
X101979175Y-108243202D01*
X102021213Y-108430053D01*
X102136973Y-108596582D01*
X102175346Y-108631714D01*
X102251130Y-108687614D01*
X102330392Y-108720422D01*
X102438550Y-108736094D01*
X102601016Y-108740586D01*
X102640249Y-108740667D01*
X102796681Y-108736039D01*
X102914181Y-108723750D01*
X102972624Y-108706189D01*
X102975667Y-108700832D01*
X102944895Y-108643498D01*
X102933334Y-108634834D01*
X102914401Y-108583397D01*
X102899840Y-108468199D01*
X102891859Y-108310117D01*
X102891000Y-108234698D01*
X102891142Y-108225611D01*
X102721667Y-108225611D01*
X102718664Y-108395967D01*
X102710639Y-108532657D01*
X102699068Y-108614650D01*
X102693445Y-108627778D01*
X102615960Y-108654376D01*
X102496034Y-108645782D01*
X102366696Y-108605181D01*
X102343695Y-108594066D01*
X102250646Y-108529533D01*
X102197631Y-108463604D01*
X102173288Y-108330243D01*
X102180640Y-108177474D01*
X102214922Y-108060989D01*
X102302082Y-107967865D01*
X102436778Y-107892154D01*
X102581904Y-107853332D01*
X102613732Y-107851667D01*
X102665206Y-107854562D01*
X102696989Y-107874212D01*
X102713829Y-107927063D01*
X102720471Y-108029563D01*
X102721665Y-108198157D01*
X102721667Y-108225611D01*
X102891142Y-108225611D01*
X102893931Y-108047156D01*
X102904455Y-107928446D01*
X102925174Y-107862881D01*
X102957184Y-107835328D01*
X103012567Y-107801262D01*
X102990373Y-107774442D01*
X102897525Y-107756870D01*
X102740951Y-107750546D01*
X102666946Y-107751489D01*
G36*
X104677952Y-107754860D02*
G01*
X104472641Y-107762667D01*
X104340196Y-107778381D01*
X104268877Y-107806662D01*
X104246946Y-107852170D01*
X104262664Y-107919566D01*
X104262719Y-107919709D01*
X104289190Y-107962462D01*
X104330779Y-107941104D01*
X104354403Y-107918312D01*
X104444375Y-107863566D01*
X104502691Y-107851667D01*
X104540689Y-107858456D01*
X104564677Y-107889247D01*
X104577829Y-107959678D01*
X104583319Y-108085383D01*
X104584334Y-108253834D01*
X104580111Y-108443530D01*
X104568357Y-108579783D01*
X104550438Y-108649592D01*
X104542000Y-108656000D01*
X104500897Y-108688215D01*
X104499667Y-108698334D01*
X104537062Y-108725561D01*
X104629785Y-108740011D01*
X104658417Y-108740714D01*
X104817167Y-108740762D01*
X104802730Y-108296214D01*
X104798431Y-108081740D01*
X104805679Y-107941569D01*
X104829847Y-107865562D01*
X104876307Y-107843581D01*
X104950434Y-107865488D01*
X105014076Y-107897430D01*
X105095237Y-107928712D01*
X105121297Y-107898366D01*
X105109671Y-107828651D01*
X105092747Y-107790478D01*
X105055278Y-107766867D01*
X104980860Y-107755012D01*
X104853090Y-107752111D01*
X104677952Y-107754860D01*
G37*
X104677952Y-107754860D02*
X104472641Y-107762667D01*
X104340196Y-107778381D01*
X104268877Y-107806662D01*
X104246946Y-107852170D01*
X104262664Y-107919566D01*
X104262719Y-107919709D01*
X104289190Y-107962462D01*
X104330779Y-107941104D01*
X104354403Y-107918312D01*
X104444375Y-107863566D01*
X104502691Y-107851667D01*
X104540689Y-107858456D01*
X104564677Y-107889247D01*
X104577829Y-107959678D01*
X104583319Y-108085383D01*
X104584334Y-108253834D01*
X104580111Y-108443530D01*
X104568357Y-108579783D01*
X104550438Y-108649592D01*
X104542000Y-108656000D01*
X104500897Y-108688215D01*
X104499667Y-108698334D01*
X104537062Y-108725561D01*
X104629785Y-108740011D01*
X104658417Y-108740714D01*
X104817167Y-108740762D01*
X104802730Y-108296214D01*
X104798431Y-108081740D01*
X104805679Y-107941569D01*
X104829847Y-107865562D01*
X104876307Y-107843581D01*
X104950434Y-107865488D01*
X105014076Y-107897430D01*
X105095237Y-107928712D01*
X105121297Y-107898366D01*
X105109671Y-107828651D01*
X105092747Y-107790478D01*
X105055278Y-107766867D01*
X104980860Y-107755012D01*
X104853090Y-107752111D01*
X104677952Y-107754860D01*
G36*
X99564638Y-107741906D02*
G01*
X99484719Y-107802749D01*
X99462000Y-107877363D01*
X99482171Y-107958696D01*
X99526943Y-107974802D01*
X99572706Y-107917689D01*
X99573692Y-107915167D01*
X99631109Y-107864326D01*
X99721014Y-107854863D01*
X99802652Y-107885683D01*
X99830335Y-107922055D01*
X99822125Y-107986976D01*
X99750592Y-108076894D01*
X99659673Y-108159294D01*
X99543114Y-108266999D01*
X99482565Y-108353247D01*
X99462517Y-108441893D01*
X99462000Y-108463344D01*
X99499190Y-108604086D01*
X99598843Y-108706501D01*
X99743086Y-108758992D01*
X99906500Y-108751747D01*
X100013311Y-108707356D01*
X100045778Y-108633425D01*
X100034853Y-108575595D01*
X99994442Y-108504656D01*
X99950719Y-108489756D01*
X99927873Y-108537658D01*
X99927667Y-108545638D01*
X99894422Y-108616961D01*
X99815407Y-108650089D01*
X99721702Y-108642362D01*
X99644386Y-108591117D01*
X99631171Y-108571029D01*
X99614829Y-108517950D01*
X99634172Y-108461593D01*
X99699722Y-108384312D01*
X99799015Y-108289556D01*
X99938305Y-108142633D01*
X100003598Y-108021313D01*
X99997521Y-107915178D01*
X99922699Y-107813812D01*
X99919685Y-107810983D01*
X99805890Y-107742575D01*
X99679618Y-107720699D01*
X99564638Y-107741906D01*
G37*
X99564638Y-107741906D02*
X99484719Y-107802749D01*
X99462000Y-107877363D01*
X99482171Y-107958696D01*
X99526943Y-107974802D01*
X99572706Y-107917689D01*
X99573692Y-107915167D01*
X99631109Y-107864326D01*
X99721014Y-107854863D01*
X99802652Y-107885683D01*
X99830335Y-107922055D01*
X99822125Y-107986976D01*
X99750592Y-108076894D01*
X99659673Y-108159294D01*
X99543114Y-108266999D01*
X99482565Y-108353247D01*
X99462517Y-108441893D01*
X99462000Y-108463344D01*
X99499190Y-108604086D01*
X99598843Y-108706501D01*
X99743086Y-108758992D01*
X99906500Y-108751747D01*
X100013311Y-108707356D01*
X100045778Y-108633425D01*
X100034853Y-108575595D01*
X99994442Y-108504656D01*
X99950719Y-108489756D01*
X99927873Y-108537658D01*
X99927667Y-108545638D01*
X99894422Y-108616961D01*
X99815407Y-108650089D01*
X99721702Y-108642362D01*
X99644386Y-108591117D01*
X99631171Y-108571029D01*
X99614829Y-108517950D01*
X99634172Y-108461593D01*
X99699722Y-108384312D01*
X99799015Y-108289556D01*
X99938305Y-108142633D01*
X100003598Y-108021313D01*
X99997521Y-107915178D01*
X99922699Y-107813812D01*
X99919685Y-107810983D01*
X99805890Y-107742575D01*
X99679618Y-107720699D01*
X99564638Y-107741906D01*
G36*
X100583786Y-107742063D02*
G01*
X100411012Y-107823032D01*
X100283608Y-107956128D01*
X100210244Y-108121627D01*
X100199591Y-108299806D01*
X100260321Y-108470941D01*
X100262089Y-108473783D01*
X100409897Y-108644302D01*
X100587590Y-108737057D01*
X100789326Y-108749892D01*
X100922500Y-108717271D01*
X101029474Y-108680213D01*
X101096067Y-108658735D01*
X101104798Y-108656638D01*
X101127819Y-108621288D01*
X101171867Y-108532046D01*
X101199936Y-108470232D01*
X101257391Y-108265380D01*
X101242199Y-108141863D01*
X101058373Y-108141863D01*
X101057794Y-108273603D01*
X101008275Y-108447980D01*
X100914089Y-108572963D01*
X100790931Y-108640757D01*
X100654493Y-108643563D01*
X100520469Y-108573587D01*
X100497243Y-108552091D01*
X100425174Y-108453784D01*
X100395994Y-108329406D01*
X100393334Y-108253834D01*
X100424956Y-108066438D01*
X100515055Y-107932985D01*
X100656478Y-107861583D01*
X100748170Y-107851667D01*
X100901795Y-107887170D01*
X101007588Y-107987162D01*
X101058373Y-108141863D01*
X101242199Y-108141863D01*
X101234966Y-108083065D01*
X101131307Y-107914170D01*
X101114650Y-107895766D01*
X100961739Y-107787772D01*
X100772368Y-107733045D01*
X100583786Y-107742063D01*
G37*
X100583786Y-107742063D02*
X100411012Y-107823032D01*
X100283608Y-107956128D01*
X100210244Y-108121627D01*
X100199591Y-108299806D01*
X100260321Y-108470941D01*
X100262089Y-108473783D01*
X100409897Y-108644302D01*
X100587590Y-108737057D01*
X100789326Y-108749892D01*
X100922500Y-108717271D01*
X101029474Y-108680213D01*
X101096067Y-108658735D01*
X101104798Y-108656638D01*
X101127819Y-108621288D01*
X101171867Y-108532046D01*
X101199936Y-108470232D01*
X101257391Y-108265380D01*
X101242199Y-108141863D01*
X101058373Y-108141863D01*
X101057794Y-108273603D01*
X101008275Y-108447980D01*
X100914089Y-108572963D01*
X100790931Y-108640757D01*
X100654493Y-108643563D01*
X100520469Y-108573587D01*
X100497243Y-108552091D01*
X100425174Y-108453784D01*
X100395994Y-108329406D01*
X100393334Y-108253834D01*
X100424956Y-108066438D01*
X100515055Y-107932985D01*
X100656478Y-107861583D01*
X100748170Y-107851667D01*
X100901795Y-107887170D01*
X101007588Y-107987162D01*
X101058373Y-108141863D01*
X101242199Y-108141863D01*
X101234966Y-108083065D01*
X101131307Y-107914170D01*
X101114650Y-107895766D01*
X100961739Y-107787772D01*
X100772368Y-107733045D01*
X100583786Y-107742063D01*
G36*
X103890396Y-107764898D02*
G01*
X103833919Y-107797332D01*
X103831955Y-107801637D01*
X103844266Y-107847506D01*
X103861139Y-107851667D01*
X103886977Y-107889619D01*
X103902059Y-107987313D01*
X103906349Y-108120506D01*
X103899815Y-108264955D01*
X103882422Y-108396417D01*
X103862019Y-108472466D01*
X103782143Y-108602342D01*
X103677358Y-108655802D01*
X103559376Y-108629785D01*
X103483667Y-108571334D01*
X103437855Y-108509698D01*
X103411791Y-108424119D01*
X103400603Y-108291662D01*
X103399000Y-108172695D01*
X103405822Y-107986452D01*
X103425727Y-107874291D01*
X103448829Y-107842113D01*
X103490498Y-107811818D01*
X103466664Y-107781234D01*
X103395881Y-107760206D01*
X103296704Y-107758577D01*
X103292303Y-107759066D01*
X103194080Y-107778770D01*
X103173108Y-107808201D01*
X103183900Y-107822833D01*
X103208784Y-107887668D01*
X103225406Y-108007501D01*
X103229667Y-108115493D01*
X103251641Y-108371828D01*
X103318920Y-108559915D01*
X103433540Y-108684285D01*
X103501951Y-108721024D01*
X103600224Y-108760005D01*
X103657701Y-108778866D01*
X103662224Y-108779182D01*
X103706696Y-108766087D01*
X103799308Y-108739218D01*
X103811218Y-108735776D01*
X103935662Y-108670186D01*
X104018518Y-108551970D01*
X104063964Y-108371899D01*
X104076334Y-108150102D01*
X104082544Y-107982153D01*
X104100121Y-107879664D01*
X104122195Y-107851667D01*
X104154205Y-107821557D01*
X104151379Y-107801637D01*
X104102087Y-107767764D01*
X104004037Y-107751791D01*
X103991667Y-107751606D01*
X103890396Y-107764898D01*
G37*
X103890396Y-107764898D02*
X103833919Y-107797332D01*
X103831955Y-107801637D01*
X103844266Y-107847506D01*
X103861139Y-107851667D01*
X103886977Y-107889619D01*
X103902059Y-107987313D01*
X103906349Y-108120506D01*
X103899815Y-108264955D01*
X103882422Y-108396417D01*
X103862019Y-108472466D01*
X103782143Y-108602342D01*
X103677358Y-108655802D01*
X103559376Y-108629785D01*
X103483667Y-108571334D01*
X103437855Y-108509698D01*
X103411791Y-108424119D01*
X103400603Y-108291662D01*
X103399000Y-108172695D01*
X103405822Y-107986452D01*
X103425727Y-107874291D01*
X103448829Y-107842113D01*
X103490498Y-107811818D01*
X103466664Y-107781234D01*
X103395881Y-107760206D01*
X103296704Y-107758577D01*
X103292303Y-107759066D01*
X103194080Y-107778770D01*
X103173108Y-107808201D01*
X103183900Y-107822833D01*
X103208784Y-107887668D01*
X103225406Y-108007501D01*
X103229667Y-108115493D01*
X103251641Y-108371828D01*
X103318920Y-108559915D01*
X103433540Y-108684285D01*
X103501951Y-108721024D01*
X103600224Y-108760005D01*
X103657701Y-108778866D01*
X103662224Y-108779182D01*
X103706696Y-108766087D01*
X103799308Y-108739218D01*
X103811218Y-108735776D01*
X103935662Y-108670186D01*
X104018518Y-108551970D01*
X104063964Y-108371899D01*
X104076334Y-108150102D01*
X104082544Y-107982153D01*
X104100121Y-107879664D01*
X104122195Y-107851667D01*
X104154205Y-107821557D01*
X104151379Y-107801637D01*
X104102087Y-107767764D01*
X104004037Y-107751791D01*
X103991667Y-107751606D01*
X103890396Y-107764898D01*
G36*
X105402106Y-107572592D02*
G01*
X105389618Y-107576198D01*
X105324716Y-107625464D01*
X105304941Y-107729752D01*
X105304942Y-107738103D01*
X105305883Y-107872834D01*
X105382164Y-107773664D01*
X105482258Y-107695587D01*
X105560707Y-107688997D01*
X105652428Y-107725561D01*
X105671809Y-107799981D01*
X105618542Y-107913719D01*
X105492315Y-108068239D01*
X105476952Y-108084634D01*
X105340963Y-108245912D01*
X105273757Y-108376740D01*
X105272212Y-108491370D01*
X105333206Y-108604051D01*
X105356917Y-108632518D01*
X105492740Y-108730157D01*
X105657020Y-108766892D01*
X105801417Y-108740950D01*
X105881883Y-108667705D01*
X105896667Y-108596363D01*
X105880867Y-108502288D01*
X105844447Y-108465657D01*
X105803883Y-108497089D01*
X105791060Y-108528287D01*
X105727737Y-108606794D01*
X105624376Y-108644448D01*
X105520254Y-108630022D01*
X105493951Y-108613211D01*
X105439532Y-108537140D01*
X105448743Y-108444130D01*
X105524868Y-108325014D01*
X105642667Y-108198334D01*
X105779090Y-108045658D01*
X105845144Y-107918672D01*
X105845058Y-107803016D01*
X105790781Y-107695105D01*
X105688506Y-107612173D01*
X105545651Y-107567395D01*
X105402106Y-107572592D01*
G37*
X105402106Y-107572592D02*
X105389618Y-107576198D01*
X105324716Y-107625464D01*
X105304941Y-107729752D01*
X105304942Y-107738103D01*
X105305883Y-107872834D01*
X105382164Y-107773664D01*
X105482258Y-107695587D01*
X105560707Y-107688997D01*
X105652428Y-107725561D01*
X105671809Y-107799981D01*
X105618542Y-107913719D01*
X105492315Y-108068239D01*
X105476952Y-108084634D01*
X105340963Y-108245912D01*
X105273757Y-108376740D01*
X105272212Y-108491370D01*
X105333206Y-108604051D01*
X105356917Y-108632518D01*
X105492740Y-108730157D01*
X105657020Y-108766892D01*
X105801417Y-108740950D01*
X105881883Y-108667705D01*
X105896667Y-108596363D01*
X105880867Y-108502288D01*
X105844447Y-108465657D01*
X105803883Y-108497089D01*
X105791060Y-108528287D01*
X105727737Y-108606794D01*
X105624376Y-108644448D01*
X105520254Y-108630022D01*
X105493951Y-108613211D01*
X105439532Y-108537140D01*
X105448743Y-108444130D01*
X105524868Y-108325014D01*
X105642667Y-108198334D01*
X105779090Y-108045658D01*
X105845144Y-107918672D01*
X105845058Y-107803016D01*
X105790781Y-107695105D01*
X105688506Y-107612173D01*
X105545651Y-107567395D01*
X105402106Y-107572592D01*
D14*
X112200000Y-108400000D02*
X112200000Y-111700000D01*
X112200000Y-111700000D02*
X112200000Y-115000000D01*
X118800000Y-111700000D02*
X118800000Y-113700000D01*
X118800000Y-109700000D02*
X118800000Y-111700000D01*
X112200000Y-108400000D02*
X117500000Y-108400000D01*
X112200000Y-115000000D02*
X117500000Y-115000000D01*
X117500000Y-108400000D02*
X118800000Y-109700000D01*
X118800000Y-113700000D02*
X117500000Y-115000000D01*
D12*
X135875000Y-110175000D02*
X135875000Y-107275000D01*
X136425000Y-116375000D02*
X131775000Y-116375000D01*
X131050000Y-110175000D02*
X132325000Y-110175000D01*
X131050000Y-108575000D02*
X131050000Y-110175000D01*
X130050000Y-108575000D02*
X131050000Y-108575000D01*
X130050000Y-112800000D02*
X130050000Y-108575000D01*
X138150000Y-108575000D02*
X138150000Y-112800000D01*
X137150000Y-108575000D02*
X138150000Y-108575000D01*
X137150000Y-110175000D02*
X137150000Y-108575000D01*
X135875000Y-110175000D02*
X137150000Y-110175000D01*
D14*
X138225000Y-104125000D02*
X138225000Y-103775000D01*
X137800000Y-104125000D02*
X138225000Y-104125000D01*
X138225000Y-94875000D02*
X137625000Y-94875000D01*
X138225000Y-95500000D02*
X138225000Y-94875000D01*
X128975000Y-104125000D02*
X128975000Y-103625000D01*
X129575000Y-104125000D02*
X128975000Y-104125000D01*
X128975000Y-97725000D02*
X128650000Y-97725000D01*
X129325000Y-94875000D02*
X128975000Y-95225000D01*
X129525000Y-94875000D02*
X129325000Y-94875000D01*
X128975000Y-95225000D02*
X128975000Y-97725000D01*
D12*
X118235000Y-105265000D02*
X118235000Y-101735000D01*
X111765000Y-105265000D02*
X111765000Y-101735000D01*
X118170000Y-106590000D02*
X118170000Y-105265000D01*
X118235000Y-105265000D02*
X118170000Y-105265000D01*
X118235000Y-101735000D02*
X118170000Y-101735000D01*
X111830000Y-105265000D02*
X111765000Y-105265000D01*
X111830000Y-101735000D02*
X111765000Y-101735000D01*
X102800000Y-112700000D02*
X101400000Y-112700000D01*
X101400000Y-112700000D02*
X101400000Y-116500000D01*
X110600000Y-116500000D02*
X110600000Y-112700000D01*
X110600000Y-112700000D02*
X109200000Y-112700000D01*
X104200000Y-112700000D02*
X105300000Y-112700000D01*
X105300000Y-112700000D02*
X105300000Y-112700000D01*
X106700000Y-112700000D02*
X107800000Y-112700000D01*
X107800000Y-112700000D02*
X107800000Y-112700000D01*
X101400000Y-116500000D02*
X103100000Y-116500000D01*
X103100000Y-116500000D02*
X103100000Y-116800000D01*
X103100000Y-116800000D02*
X103900000Y-116800000D01*
X103900000Y-116800000D02*
X103900000Y-116500000D01*
X103900000Y-116500000D02*
X105600000Y-116500000D01*
X105600000Y-116500000D02*
X105600000Y-116800000D01*
X105600000Y-116800000D02*
X106400000Y-116800000D01*
X106400000Y-116800000D02*
X106400000Y-116500000D01*
X106400000Y-116500000D02*
X108100000Y-116500000D01*
X108100000Y-116500000D02*
X108100000Y-116800000D01*
X108100000Y-116800000D02*
X108900000Y-116800000D01*
X108900000Y-116800000D02*
X108900000Y-116500000D01*
X108900000Y-116500000D02*
X110600000Y-116500000D01*
X110600000Y-116500000D02*
X110600000Y-116500000D01*
X108000000Y-118400000D02*
X108000000Y-117900000D01*
X108000000Y-117900000D02*
X108000000Y-117900000D01*
X108000000Y-118400000D02*
X107500000Y-118400000D01*
X107500000Y-118400000D02*
X107500000Y-118400000D01*
X104000000Y-118400000D02*
X104500000Y-118400000D01*
X104500000Y-118400000D02*
X104500000Y-118400000D01*
X104000000Y-118400000D02*
X104000000Y-117900000D01*
X104000000Y-117900000D02*
X104000000Y-117900000D01*
X104000000Y-117600000D02*
X104000000Y-117100000D01*
X104000000Y-117100000D02*
X104000000Y-117100000D01*
X108000000Y-117600000D02*
X108000000Y-117100000D01*
X108000000Y-117100000D02*
X108000000Y-117100000D01*
X107200000Y-118400000D02*
X106700000Y-118400000D01*
X106700000Y-118400000D02*
X106700000Y-118400000D01*
X104800000Y-118400000D02*
X105300000Y-118400000D01*
X105300000Y-118400000D02*
X105300000Y-118400000D01*
X105600000Y-118400000D02*
X106400000Y-118400000D01*
X106400000Y-118400000D02*
X106400000Y-118400000D01*
X127300000Y-97612500D02*
X126800000Y-97612500D01*
X127300000Y-97612500D02*
X127300000Y-97612500D01*
X126800000Y-97612500D02*
X127300000Y-97612500D01*
X126800000Y-97612500D02*
X126800000Y-97612500D01*
X127300000Y-98312500D02*
X126800000Y-98312500D01*
X127300000Y-98312500D02*
X127300000Y-98312500D01*
X126800000Y-98312500D02*
X127300000Y-98312500D01*
X126800000Y-98312500D02*
X126800000Y-98312500D01*
X126800000Y-98812500D02*
X126800000Y-98812500D01*
X126800000Y-97612500D02*
X126800000Y-98812500D01*
X126800000Y-97612500D02*
X126800000Y-97612500D01*
X126800000Y-98812500D02*
X126800000Y-97612500D01*
X127300000Y-98812500D02*
X126400000Y-98812500D01*
X127300000Y-96462500D02*
X127300000Y-98812500D01*
X121300000Y-97612500D02*
X121800000Y-97612500D01*
X121300000Y-97612500D02*
X121300000Y-97612500D01*
X121800000Y-97612500D02*
X121300000Y-97612500D01*
X121800000Y-97612500D02*
X121800000Y-97612500D01*
X121300000Y-98312500D02*
X121800000Y-98312500D01*
X121300000Y-98312500D02*
X121300000Y-98312500D01*
X121800000Y-98312500D02*
X121300000Y-98312500D01*
X121800000Y-98312500D02*
X121800000Y-98312500D01*
X121800000Y-98812500D02*
X121800000Y-98812500D01*
X121800000Y-97612500D02*
X121800000Y-98812500D01*
X121800000Y-97612500D02*
X121800000Y-97612500D01*
X121800000Y-98812500D02*
X121800000Y-97612500D01*
X121300000Y-98812500D02*
X122200000Y-98812500D01*
X121300000Y-96462500D02*
X121300000Y-98812500D01*
X122400000Y-94562500D02*
X126200000Y-94562500D01*
X122050000Y-99387500D02*
G75*
G03*
X122050000Y-99387500I-250000J0D01*
G01*
D15*
X115000000Y-95900000D02*
X115000000Y-95650000D01*
X115000000Y-95900000D02*
X115250000Y-95900000D01*
X116300000Y-94650000D02*
X116500000Y-94350000D01*
X113500000Y-94400000D02*
X113850000Y-93900000D01*
X113850000Y-94650000D02*
X114350000Y-93900000D01*
X114350000Y-94650000D02*
X114850000Y-93900000D01*
X115850000Y-94650000D02*
X116350000Y-93900000D01*
X115350000Y-94650000D02*
X115850000Y-93900000D01*
X114800000Y-94650000D02*
X115300000Y-93900000D01*
X117800000Y-94650000D02*
X117800000Y-94250000D01*
X117800000Y-94250000D02*
X117400000Y-94250000D01*
X117400000Y-94650000D02*
X117400000Y-94250000D01*
X112200000Y-94650000D02*
X112200000Y-94250000D01*
X112600000Y-94250000D02*
X112200000Y-94250000D01*
X112600000Y-94650000D02*
X112600000Y-94250000D01*
X114750000Y-95900000D02*
X115000000Y-95900000D01*
X115000000Y-96150000D02*
X115000000Y-95900000D01*
D14*
X118900000Y-94650000D02*
X118900000Y-95300000D01*
X111100000Y-94650000D02*
X111100000Y-95300000D01*
D15*
X116500000Y-94650000D02*
X116500000Y-93900000D01*
X113500000Y-94650000D02*
X113500000Y-93900000D01*
X116500000Y-93900000D02*
X115000000Y-93900000D01*
X115000000Y-93900000D02*
X113500000Y-93900000D01*
D14*
X118450000Y-97150000D02*
X118450000Y-95900000D01*
X118450000Y-97150000D02*
X115000000Y-97150000D01*
X118900000Y-94650000D02*
X115000000Y-94650000D01*
X118450000Y-95900000D02*
X118450000Y-94650000D01*
X115000000Y-97150000D02*
X111550000Y-97150000D01*
X111550000Y-97150000D02*
X111550000Y-95900000D01*
X115000000Y-94650000D02*
X111100000Y-94650000D01*
X111550000Y-95900000D02*
X111550000Y-94650000D01*
D12*
X124000000Y-113187500D02*
X124500000Y-113187500D01*
X124000000Y-113187500D02*
X124000000Y-113187500D01*
X124500000Y-113187500D02*
X124000000Y-113187500D01*
X124500000Y-113187500D02*
X124500000Y-113187500D01*
X124000000Y-112487500D02*
X124500000Y-112487500D01*
X124000000Y-112487500D02*
X124000000Y-112487500D01*
X124500000Y-112487500D02*
X124000000Y-112487500D01*
X124500000Y-112487500D02*
X124500000Y-112487500D01*
X124500000Y-111987500D02*
X124500000Y-111987500D01*
X124500000Y-113187500D02*
X124500000Y-111987500D01*
X124500000Y-113187500D02*
X124500000Y-113187500D01*
X124500000Y-111987500D02*
X124500000Y-113187500D01*
X124000000Y-111987500D02*
X124900000Y-111987500D01*
X124000000Y-114337500D02*
X124000000Y-111987500D01*
X128000000Y-113187500D02*
X127500000Y-113187500D01*
X128000000Y-113187500D02*
X128000000Y-113187500D01*
X127500000Y-113187500D02*
X128000000Y-113187500D01*
X127500000Y-113187500D02*
X127500000Y-113187500D01*
X128000000Y-112487500D02*
X127500000Y-112487500D01*
X128000000Y-112487500D02*
X128000000Y-112487500D01*
X127500000Y-112487500D02*
X128000000Y-112487500D01*
X127500000Y-112487500D02*
X127500000Y-112487500D01*
X127500000Y-111987500D02*
X127500000Y-111987500D01*
X127500000Y-113187500D02*
X127500000Y-111987500D01*
X127500000Y-113187500D02*
X127500000Y-113187500D01*
X127500000Y-111987500D02*
X127500000Y-113187500D01*
X128000000Y-111987500D02*
X127100000Y-111987500D01*
X128000000Y-114337500D02*
X128000000Y-111987500D01*
X126900000Y-116237500D02*
X125100000Y-116237500D01*
X127750000Y-111412500D02*
G75*
G03*
X127750000Y-111412500I-250000J0D01*
G01*
D10*
X119150000Y-114333333D02*
X119150000Y-114866666D01*
X119416666Y-114600000D02*
X118883333Y-114600000D01*
D12*
X138728571Y-115757142D02*
X139328571Y-115757142D01*
X138900000Y-115557142D01*
X139328571Y-115357142D01*
X138728571Y-115357142D01*
X139328571Y-114957142D02*
X139328571Y-114842857D01*
X139300000Y-114785714D01*
X139242857Y-114728571D01*
X139128571Y-114700000D01*
X138928571Y-114700000D01*
X138814285Y-114728571D01*
X138757142Y-114785714D01*
X138728571Y-114842857D01*
X138728571Y-114957142D01*
X138757142Y-115014285D01*
X138814285Y-115071428D01*
X138928571Y-115100000D01*
X139128571Y-115100000D01*
X139242857Y-115071428D01*
X139300000Y-115014285D01*
X139328571Y-114957142D01*
X139328571Y-114528571D02*
X139328571Y-114185714D01*
X138728571Y-114357142D02*
X139328571Y-114357142D01*
X139328571Y-113871428D02*
X139328571Y-113757142D01*
X139300000Y-113700000D01*
X139242857Y-113642857D01*
X139128571Y-113614285D01*
X138928571Y-113614285D01*
X138814285Y-113642857D01*
X138757142Y-113700000D01*
X138728571Y-113757142D01*
X138728571Y-113871428D01*
X138757142Y-113928571D01*
X138814285Y-113985714D01*
X138928571Y-114014285D01*
X139128571Y-114014285D01*
X139242857Y-113985714D01*
X139300000Y-113928571D01*
X139328571Y-113871428D01*
X138728571Y-113014285D02*
X139014285Y-113214285D01*
X138728571Y-113357142D02*
X139328571Y-113357142D01*
X139328571Y-113128571D01*
X139300000Y-113071428D01*
X139271428Y-113042857D01*
X139214285Y-113014285D01*
X139128571Y-113014285D01*
X139071428Y-113042857D01*
X139042857Y-113071428D01*
X139014285Y-113128571D01*
X139014285Y-113357142D01*
X110757142Y-104414285D02*
X110728571Y-104328571D01*
X110728571Y-104185714D01*
X110757142Y-104128571D01*
X110785714Y-104100000D01*
X110842857Y-104071428D01*
X110900000Y-104071428D01*
X110957142Y-104100000D01*
X110985714Y-104128571D01*
X111014285Y-104185714D01*
X111042857Y-104300000D01*
X111071428Y-104357142D01*
X111100000Y-104385714D01*
X111157142Y-104414285D01*
X111214285Y-104414285D01*
X111271428Y-104385714D01*
X111300000Y-104357142D01*
X111328571Y-104300000D01*
X111328571Y-104157142D01*
X111300000Y-104071428D01*
X111328571Y-103871428D02*
X110728571Y-103728571D01*
X111157142Y-103614285D01*
X110728571Y-103500000D01*
X111328571Y-103357142D01*
X110728571Y-103128571D02*
X111328571Y-103128571D01*
X111328571Y-102985714D01*
X111300000Y-102900000D01*
X111242857Y-102842857D01*
X111185714Y-102814285D01*
X111071428Y-102785714D01*
X110985714Y-102785714D01*
X110871428Y-102814285D01*
X110814285Y-102842857D01*
X110757142Y-102900000D01*
X110728571Y-102985714D01*
X110728571Y-103128571D01*
X100428571Y-114985714D02*
X101028571Y-114985714D01*
X101028571Y-114757142D01*
X101000000Y-114700000D01*
X100971428Y-114671428D01*
X100914285Y-114642857D01*
X100828571Y-114642857D01*
X100771428Y-114671428D01*
X100742857Y-114700000D01*
X100714285Y-114757142D01*
X100714285Y-114985714D01*
X101028571Y-114271428D02*
X101028571Y-114157142D01*
X101000000Y-114100000D01*
X100942857Y-114042857D01*
X100828571Y-114014285D01*
X100628571Y-114014285D01*
X100514285Y-114042857D01*
X100457142Y-114100000D01*
X100428571Y-114157142D01*
X100428571Y-114271428D01*
X100457142Y-114328571D01*
X100514285Y-114385714D01*
X100628571Y-114414285D01*
X100828571Y-114414285D01*
X100942857Y-114385714D01*
X101000000Y-114328571D01*
X101028571Y-114271428D01*
X101028571Y-113814285D02*
X100428571Y-113671428D01*
X100857142Y-113557142D01*
X100428571Y-113442857D01*
X101028571Y-113300000D01*
X100742857Y-113071428D02*
X100742857Y-112871428D01*
X100428571Y-112785714D02*
X100428571Y-113071428D01*
X101028571Y-113071428D01*
X101028571Y-112785714D01*
X100428571Y-112185714D02*
X100714285Y-112385714D01*
X100428571Y-112528571D02*
X101028571Y-112528571D01*
X101028571Y-112300000D01*
X101000000Y-112242857D01*
X100971428Y-112214285D01*
X100914285Y-112185714D01*
X100828571Y-112185714D01*
X100771428Y-112214285D01*
X100742857Y-112242857D01*
X100714285Y-112300000D01*
X100714285Y-112528571D01*
X119957142Y-99828571D02*
X119928571Y-99742857D01*
X119928571Y-99600000D01*
X119957142Y-99542857D01*
X119985714Y-99514285D01*
X120042857Y-99485714D01*
X120100000Y-99485714D01*
X120157142Y-99514285D01*
X120185714Y-99542857D01*
X120214285Y-99600000D01*
X120242857Y-99714285D01*
X120271428Y-99771428D01*
X120300000Y-99800000D01*
X120357142Y-99828571D01*
X120414285Y-99828571D01*
X120471428Y-99800000D01*
X120500000Y-99771428D01*
X120528571Y-99714285D01*
X120528571Y-99571428D01*
X120500000Y-99485714D01*
X120528571Y-99314285D02*
X120528571Y-98971428D01*
X119928571Y-99142857D02*
X120528571Y-99142857D01*
X120242857Y-98771428D02*
X120242857Y-98571428D01*
X119928571Y-98485714D02*
X119928571Y-98771428D01*
X120528571Y-98771428D01*
X120528571Y-98485714D01*
X119928571Y-98228571D02*
X120528571Y-98228571D01*
X120100000Y-98028571D01*
X120528571Y-97828571D01*
X119928571Y-97828571D01*
X119928571Y-97542857D02*
X120528571Y-97542857D01*
X120100000Y-97342857D01*
X120528571Y-97142857D01*
X119928571Y-97142857D01*
X120100000Y-96885714D02*
X120100000Y-96600000D01*
X119928571Y-96942857D02*
X120528571Y-96742857D01*
X119928571Y-96542857D01*
X120157142Y-96342857D02*
X120157142Y-95885714D01*
X119871428Y-95200000D02*
X119900000Y-95257142D01*
X119957142Y-95314285D01*
X120042857Y-95400000D01*
X120071428Y-95457142D01*
X120071428Y-95514285D01*
X119928571Y-95485714D02*
X119957142Y-95542857D01*
X120014285Y-95600000D01*
X120128571Y-95628571D01*
X120328571Y-95628571D01*
X120442857Y-95600000D01*
X120500000Y-95542857D01*
X120528571Y-95485714D01*
X120528571Y-95371428D01*
X120500000Y-95314285D01*
X120442857Y-95257142D01*
X120328571Y-95228571D01*
X120128571Y-95228571D01*
X120014285Y-95257142D01*
X119957142Y-95314285D01*
X119928571Y-95371428D01*
X119928571Y-95485714D01*
X120528571Y-95057142D02*
X120528571Y-94714285D01*
X119928571Y-94885714D02*
X120528571Y-94885714D01*
X115871428Y-97871428D02*
X116071428Y-97585714D01*
X116214285Y-97871428D02*
X116214285Y-97271428D01*
X115985714Y-97271428D01*
X115928571Y-97300000D01*
X115900000Y-97328571D01*
X115871428Y-97385714D01*
X115871428Y-97471428D01*
X115900000Y-97528571D01*
X115928571Y-97557142D01*
X115985714Y-97585714D01*
X116214285Y-97585714D01*
X115614285Y-97557142D02*
X115414285Y-97557142D01*
X115328571Y-97871428D02*
X115614285Y-97871428D01*
X115614285Y-97271428D01*
X115328571Y-97271428D01*
X115100000Y-97842857D02*
X115014285Y-97871428D01*
X114871428Y-97871428D01*
X114814285Y-97842857D01*
X114785714Y-97814285D01*
X114757142Y-97757142D01*
X114757142Y-97700000D01*
X114785714Y-97642857D01*
X114814285Y-97614285D01*
X114871428Y-97585714D01*
X114985714Y-97557142D01*
X115042857Y-97528571D01*
X115071428Y-97500000D01*
X115100000Y-97442857D01*
X115100000Y-97385714D01*
X115071428Y-97328571D01*
X115042857Y-97300000D01*
X114985714Y-97271428D01*
X114842857Y-97271428D01*
X114757142Y-97300000D01*
X114500000Y-97557142D02*
X114300000Y-97557142D01*
X114214285Y-97871428D02*
X114500000Y-97871428D01*
X114500000Y-97271428D01*
X114214285Y-97271428D01*
X114042857Y-97271428D02*
X113700000Y-97271428D01*
X113871428Y-97871428D02*
X113871428Y-97271428D01*
D16*
X117316666Y-94930952D02*
X117088095Y-94930952D01*
X117202380Y-95330952D02*
X117202380Y-94930952D01*
X116764285Y-95330952D02*
X116954761Y-95330952D01*
X116954761Y-94930952D01*
X116669047Y-94930952D02*
X116421428Y-94930952D01*
X116554761Y-95083333D01*
X116497619Y-95083333D01*
X116459523Y-95102380D01*
X116440476Y-95121428D01*
X116421428Y-95159523D01*
X116421428Y-95254761D01*
X116440476Y-95292857D01*
X116459523Y-95311904D01*
X116497619Y-95330952D01*
X116611904Y-95330952D01*
X116650000Y-95311904D01*
X116669047Y-95292857D01*
X116288095Y-94930952D02*
X116040476Y-94930952D01*
X116173809Y-95083333D01*
X116116666Y-95083333D01*
X116078571Y-95102380D01*
X116059523Y-95121428D01*
X116040476Y-95159523D01*
X116040476Y-95254761D01*
X116059523Y-95292857D01*
X116078571Y-95311904D01*
X116116666Y-95330952D01*
X116230952Y-95330952D01*
X116269047Y-95311904D01*
X116288095Y-95292857D01*
X115907142Y-94930952D02*
X115659523Y-94930952D01*
X115792857Y-95083333D01*
X115735714Y-95083333D01*
X115697619Y-95102380D01*
X115678571Y-95121428D01*
X115659523Y-95159523D01*
X115659523Y-95254761D01*
X115678571Y-95292857D01*
X115697619Y-95311904D01*
X115735714Y-95330952D01*
X115850000Y-95330952D01*
X115888095Y-95311904D01*
X115907142Y-95292857D01*
X115411904Y-94930952D02*
X115373809Y-94930952D01*
X115335714Y-94950000D01*
X115316666Y-94969047D01*
X115297619Y-95007142D01*
X115278571Y-95083333D01*
X115278571Y-95178571D01*
X115297619Y-95254761D01*
X115316666Y-95292857D01*
X115335714Y-95311904D01*
X115373809Y-95330952D01*
X115411904Y-95330952D01*
X115450000Y-95311904D01*
X115469047Y-95292857D01*
X115488095Y-95254761D01*
X115507142Y-95178571D01*
X115507142Y-95083333D01*
X115488095Y-95007142D01*
X115469047Y-94969047D01*
X115450000Y-94950000D01*
X115411904Y-94930952D01*
X115126190Y-95216666D02*
X114935714Y-95216666D01*
X115164285Y-95330952D02*
X115030952Y-94930952D01*
X114897619Y-95330952D01*
X114630952Y-95121428D02*
X114764285Y-95121428D01*
X114764285Y-95330952D02*
X114764285Y-94930952D01*
X114573809Y-94930952D01*
X114135714Y-95311904D02*
X114078571Y-95330952D01*
X113983333Y-95330952D01*
X113945238Y-95311904D01*
X113926190Y-95292857D01*
X113907142Y-95254761D01*
X113907142Y-95216666D01*
X113926190Y-95178571D01*
X113945238Y-95159523D01*
X113983333Y-95140476D01*
X114059523Y-95121428D01*
X114097619Y-95102380D01*
X114116666Y-95083333D01*
X114135714Y-95045238D01*
X114135714Y-95007142D01*
X114116666Y-94969047D01*
X114097619Y-94950000D01*
X114059523Y-94930952D01*
X113964285Y-94930952D01*
X113907142Y-94950000D01*
X113735714Y-95330952D02*
X113735714Y-94930952D01*
X113583333Y-94930952D01*
X113545238Y-94950000D01*
X113526190Y-94969047D01*
X113507142Y-95007142D01*
X113507142Y-95064285D01*
X113526190Y-95102380D01*
X113545238Y-95121428D01*
X113583333Y-95140476D01*
X113735714Y-95140476D01*
X113354761Y-95311904D02*
X113297619Y-95330952D01*
X113202380Y-95330952D01*
X113164285Y-95311904D01*
X113145238Y-95292857D01*
X113126190Y-95254761D01*
X113126190Y-95216666D01*
X113145238Y-95178571D01*
X113164285Y-95159523D01*
X113202380Y-95140476D01*
X113278571Y-95121428D01*
X113316666Y-95102380D01*
X113335714Y-95083333D01*
X113354761Y-95045238D01*
X113354761Y-95007142D01*
X113335714Y-94969047D01*
X113316666Y-94950000D01*
X113278571Y-94930952D01*
X113183333Y-94930952D01*
X113126190Y-94950000D01*
X113011904Y-94930952D02*
X112783333Y-94930952D01*
X112897619Y-95330952D02*
X112897619Y-94930952D01*
D12*
X122457142Y-116142857D02*
X122428571Y-116057142D01*
X122428571Y-115914285D01*
X122457142Y-115857142D01*
X122485714Y-115828571D01*
X122542857Y-115800000D01*
X122600000Y-115800000D01*
X122657142Y-115828571D01*
X122685714Y-115857142D01*
X122714285Y-115914285D01*
X122742857Y-116028571D01*
X122771428Y-116085714D01*
X122800000Y-116114285D01*
X122857142Y-116142857D01*
X122914285Y-116142857D01*
X122971428Y-116114285D01*
X123000000Y-116085714D01*
X123028571Y-116028571D01*
X123028571Y-115885714D01*
X123000000Y-115800000D01*
X122742857Y-115542857D02*
X122742857Y-115342857D01*
X122428571Y-115257142D02*
X122428571Y-115542857D01*
X123028571Y-115542857D01*
X123028571Y-115257142D01*
X122428571Y-115000000D02*
X123028571Y-115000000D01*
X122428571Y-114657142D01*
X123028571Y-114657142D01*
X122457142Y-114400000D02*
X122428571Y-114314285D01*
X122428571Y-114171428D01*
X122457142Y-114114285D01*
X122485714Y-114085714D01*
X122542857Y-114057142D01*
X122600000Y-114057142D01*
X122657142Y-114085714D01*
X122685714Y-114114285D01*
X122714285Y-114171428D01*
X122742857Y-114285714D01*
X122771428Y-114342857D01*
X122800000Y-114371428D01*
X122857142Y-114400000D01*
X122914285Y-114400000D01*
X122971428Y-114371428D01*
X123000000Y-114342857D01*
X123028571Y-114285714D01*
X123028571Y-114142857D01*
X123000000Y-114057142D01*
X123028571Y-113685714D02*
X123028571Y-113571428D01*
X123000000Y-113514285D01*
X122942857Y-113457142D01*
X122828571Y-113428571D01*
X122628571Y-113428571D01*
X122514285Y-113457142D01*
X122457142Y-113514285D01*
X122428571Y-113571428D01*
X122428571Y-113685714D01*
X122457142Y-113742857D01*
X122514285Y-113800000D01*
X122628571Y-113828571D01*
X122828571Y-113828571D01*
X122942857Y-113800000D01*
X123000000Y-113742857D01*
X123028571Y-113685714D01*
X122428571Y-112828571D02*
X122714285Y-113028571D01*
X122428571Y-113171428D02*
X123028571Y-113171428D01*
X123028571Y-112942857D01*
X123000000Y-112885714D01*
X122971428Y-112857142D01*
X122914285Y-112828571D01*
X122828571Y-112828571D01*
X122771428Y-112857142D01*
X122742857Y-112885714D01*
X122714285Y-112942857D01*
X122714285Y-113171428D01*
X122371428Y-112714285D02*
X122371428Y-112257142D01*
X122428571Y-112114285D02*
X123028571Y-112114285D01*
X122428571Y-111828571D02*
X123028571Y-111828571D01*
X122428571Y-111485714D01*
X123028571Y-111485714D01*
M02*
